%TF.GenerationSoftware,KiCad,Pcbnew,8.0.6-8.0.6-0~ubuntu22.04.1*%
%TF.CreationDate,2024-11-17T18:13:22+01:00*%
%TF.ProjectId,z80-SOUND,7a38302d-534f-4554-9e44-2e6b69636164,rev?*%
%TF.SameCoordinates,Original*%
%TF.FileFunction,Soldermask,Bot*%
%TF.FilePolarity,Negative*%
%FSLAX46Y46*%
G04 Gerber Fmt 4.6, Leading zero omitted, Abs format (unit mm)*
G04 Created by KiCad (PCBNEW 8.0.6-8.0.6-0~ubuntu22.04.1) date 2024-11-17 18:13:22*
%MOMM*%
%LPD*%
G01*
G04 APERTURE LIST*
G04 Aperture macros list*
%AMRoundRect*
0 Rectangle with rounded corners*
0 $1 Rounding radius*
0 $2 $3 $4 $5 $6 $7 $8 $9 X,Y pos of 4 corners*
0 Add a 4 corners polygon primitive as box body*
4,1,4,$2,$3,$4,$5,$6,$7,$8,$9,$2,$3,0*
0 Add four circle primitives for the rounded corners*
1,1,$1+$1,$2,$3*
1,1,$1+$1,$4,$5*
1,1,$1+$1,$6,$7*
1,1,$1+$1,$8,$9*
0 Add four rect primitives between the rounded corners*
20,1,$1+$1,$2,$3,$4,$5,0*
20,1,$1+$1,$4,$5,$6,$7,0*
20,1,$1+$1,$6,$7,$8,$9,0*
20,1,$1+$1,$8,$9,$2,$3,0*%
G04 Aperture macros list end*
%ADD10C,1.600000*%
%ADD11R,1.600000X1.600000*%
%ADD12O,1.600000X1.600000*%
%ADD13C,1.400000*%
%ADD14O,1.400000X1.400000*%
%ADD15C,2.400000*%
%ADD16O,2.400000X2.400000*%
%ADD17C,1.440000*%
%ADD18C,4.000000*%
%ADD19R,1.700000X1.700000*%
%ADD20O,1.700000X1.700000*%
%ADD21R,1.500000X1.500000*%
%ADD22O,1.500000X1.500000*%
%ADD23O,1.324000X2.124000*%
%ADD24O,2.524000X1.324000*%
%ADD25O,1.324000X2.524000*%
%ADD26R,2.400000X1.600000*%
%ADD27O,2.400000X1.600000*%
%ADD28R,1.050000X1.500000*%
%ADD29O,1.050000X1.500000*%
%ADD30C,2.850000*%
%ADD31C,5.600000*%
%ADD32RoundRect,0.249999X-0.525001X0.525001X-0.525001X-0.525001X0.525001X-0.525001X0.525001X0.525001X0*%
%ADD33C,1.550000*%
%ADD34R,1.524000X1.524000*%
%ADD35C,1.524000*%
%ADD36C,1.854200*%
G04 APERTURE END LIST*
D10*
%TO.C,C12*%
X131525000Y-83820000D03*
X136525000Y-83820000D03*
%TD*%
%TO.C,C7*%
X195580000Y-50800000D03*
X190580000Y-50800000D03*
%TD*%
D11*
%TO.C,U5*%
X142875000Y-53340000D03*
D12*
X142875000Y-55880000D03*
X142875000Y-58420000D03*
X142875000Y-60960000D03*
X142875000Y-63500000D03*
X142875000Y-66040000D03*
X142875000Y-68580000D03*
X142875000Y-71120000D03*
X142875000Y-73660000D03*
X142875000Y-76200000D03*
X142875000Y-78740000D03*
X142875000Y-81280000D03*
X158115000Y-81280000D03*
X158115000Y-78740000D03*
X158115000Y-76200000D03*
X158115000Y-73660000D03*
X158115000Y-71120000D03*
X158115000Y-68580000D03*
X158115000Y-66040000D03*
X158115000Y-63500000D03*
X158115000Y-60960000D03*
X158115000Y-58420000D03*
X158115000Y-55880000D03*
X158115000Y-53340000D03*
%TD*%
D10*
%TO.C,C21*%
X122475000Y-119380000D03*
X117475000Y-119380000D03*
%TD*%
D11*
%TO.C,RN4*%
X120650000Y-141351000D03*
D12*
X118110000Y-141351000D03*
X115570000Y-141351000D03*
X113030000Y-141351000D03*
X110490000Y-141351000D03*
X107950000Y-141351000D03*
X105410000Y-141351000D03*
X102870000Y-141351000D03*
X100330000Y-141351000D03*
%TD*%
D11*
%TO.C,D4*%
X100330000Y-105410000D03*
D12*
X107950000Y-105410000D03*
%TD*%
D11*
%TO.C,C8*%
X120650000Y-52070000D03*
D10*
X123150000Y-52070000D03*
%TD*%
D13*
%TO.C,R21*%
X93980000Y-115545000D03*
D14*
X86360000Y-115545000D03*
%TD*%
D15*
%TO.C,FB2*%
X137160000Y-106680000D03*
D16*
X121920000Y-106680000D03*
%TD*%
D13*
%TO.C,R18*%
X107950000Y-113030000D03*
D14*
X100330000Y-113030000D03*
%TD*%
D17*
%TO.C,RV3*%
X115570000Y-66040000D03*
X113030000Y-66040000D03*
X110490000Y-66040000D03*
%TD*%
D11*
%TO.C,U13*%
X114935000Y-121920000D03*
D12*
X114935000Y-124460000D03*
X114935000Y-127000000D03*
X114935000Y-129540000D03*
X114935000Y-132080000D03*
X114935000Y-134620000D03*
X114935000Y-137160000D03*
X122555000Y-137160000D03*
X122555000Y-134620000D03*
X122555000Y-132080000D03*
X122555000Y-129540000D03*
X122555000Y-127000000D03*
X122555000Y-124460000D03*
X122555000Y-121920000D03*
%TD*%
D11*
%TO.C,C18*%
X112705000Y-88900000D03*
D10*
X116205000Y-88900000D03*
%TD*%
D13*
%TO.C,R5*%
X106680000Y-75565000D03*
D14*
X99060000Y-75565000D03*
%TD*%
D11*
%TO.C,RN2*%
X83820000Y-115570000D03*
D12*
X83820000Y-113030000D03*
X83820000Y-110490000D03*
X83820000Y-107950000D03*
X83820000Y-105410000D03*
X83820000Y-102870000D03*
X83820000Y-100330000D03*
X83820000Y-97790000D03*
%TD*%
D13*
%TO.C,R22*%
X93980000Y-113030000D03*
D14*
X86360000Y-113030000D03*
%TD*%
D18*
%TO.C,J5*%
X78737600Y-99807600D03*
X78737600Y-133107600D03*
D11*
X80157600Y-126152600D03*
D10*
X80157600Y-123382600D03*
X80157600Y-120612600D03*
X80157600Y-117842600D03*
X80157600Y-115072600D03*
X80157600Y-112302600D03*
X80157600Y-109532600D03*
X80157600Y-106762600D03*
X77317600Y-124767600D03*
X77317600Y-121997600D03*
X77317600Y-119227600D03*
X77317600Y-116457600D03*
X77317600Y-113687600D03*
X77317600Y-110917600D03*
X77317600Y-108147600D03*
%TD*%
D13*
%TO.C,R10*%
X130175000Y-99060000D03*
D14*
X137795000Y-99060000D03*
%TD*%
D10*
%TO.C,C26*%
X163195000Y-109220000D03*
X163195000Y-114220000D03*
%TD*%
%TO.C,C2*%
X212685000Y-50800000D03*
X207685000Y-50800000D03*
%TD*%
%TO.C,C25*%
X180975000Y-50800000D03*
X175975000Y-50800000D03*
%TD*%
%TO.C,C4*%
X212645000Y-111760000D03*
X207645000Y-111760000D03*
%TD*%
D11*
%TO.C,RN1*%
X200533000Y-85344000D03*
D12*
X200533000Y-87884000D03*
X200533000Y-90424000D03*
X200533000Y-92964000D03*
X200533000Y-95504000D03*
%TD*%
D19*
%TO.C,U19*%
X167640000Y-71120000D03*
D20*
X167640000Y-68580000D03*
X167640000Y-66040000D03*
X167640000Y-63500000D03*
X167640000Y-60960000D03*
X167640000Y-58420000D03*
X167640000Y-55880000D03*
%TD*%
D21*
%TO.C,D8*%
X93980000Y-105410000D03*
D22*
X86360000Y-105410000D03*
%TD*%
D13*
%TO.C,R15*%
X107950000Y-110490000D03*
D14*
X100330000Y-110490000D03*
%TD*%
D13*
%TO.C,R7*%
X86360000Y-72415000D03*
D14*
X93980000Y-72415000D03*
%TD*%
D13*
%TO.C,R14*%
X137795000Y-91440000D03*
D14*
X130175000Y-91440000D03*
%TD*%
D11*
%TO.C,U7*%
X187960000Y-53340000D03*
D12*
X187960000Y-55880000D03*
X187960000Y-58420000D03*
X187960000Y-60960000D03*
X187960000Y-63500000D03*
X187960000Y-66040000D03*
X187960000Y-68580000D03*
X195580000Y-68580000D03*
X195580000Y-66040000D03*
X195580000Y-63500000D03*
X195580000Y-60960000D03*
X195580000Y-58420000D03*
X195580000Y-55880000D03*
X195580000Y-53340000D03*
%TD*%
D17*
%TO.C,RV4*%
X115570000Y-72390000D03*
X113030000Y-72390000D03*
X110490000Y-72390000D03*
%TD*%
D13*
%TO.C,R4*%
X106680000Y-66065000D03*
D14*
X99060000Y-66065000D03*
%TD*%
D11*
%TO.C,U16*%
X86360000Y-132725000D03*
D12*
X86360000Y-135265000D03*
X86360000Y-137805000D03*
X86360000Y-140345000D03*
X93980000Y-140345000D03*
X93980000Y-137805000D03*
X93980000Y-135265000D03*
X93980000Y-132725000D03*
%TD*%
D10*
%TO.C,C13*%
X131525000Y-86360000D03*
X136525000Y-86360000D03*
%TD*%
D19*
%TO.C,J7*%
X200660000Y-99060000D03*
D20*
X200660000Y-101600000D03*
X200660000Y-104140000D03*
X200660000Y-106680000D03*
X200660000Y-109220000D03*
X200660000Y-111760000D03*
X200660000Y-114300000D03*
X200660000Y-116840000D03*
X200660000Y-119380000D03*
X200660000Y-121920000D03*
X200660000Y-124460000D03*
X200660000Y-127000000D03*
X200660000Y-129540000D03*
X200660000Y-132080000D03*
X200660000Y-134620000D03*
X200660000Y-137160000D03*
%TD*%
D13*
%TO.C,R25*%
X169545000Y-48260000D03*
D14*
X161925000Y-48260000D03*
%TD*%
D17*
%TO.C,RV2*%
X115570000Y-59690000D03*
X113030000Y-59690000D03*
X110490000Y-59690000D03*
%TD*%
D13*
%TO.C,R9*%
X130175000Y-101600000D03*
D14*
X137795000Y-101600000D03*
%TD*%
D10*
%TO.C,C27*%
X160655000Y-127000000D03*
X160655000Y-132000000D03*
%TD*%
D13*
%TO.C,R3*%
X106680000Y-69215000D03*
D14*
X99060000Y-69215000D03*
%TD*%
D13*
%TO.C,R6*%
X106680000Y-72415000D03*
D14*
X99060000Y-72415000D03*
%TD*%
D11*
%TO.C,U15*%
X86360000Y-121280000D03*
D12*
X86360000Y-123820000D03*
X86360000Y-126360000D03*
X86360000Y-128900000D03*
X93980000Y-128900000D03*
X93980000Y-126360000D03*
X93980000Y-123820000D03*
X93980000Y-121280000D03*
%TD*%
D13*
%TO.C,R13*%
X137795000Y-88900000D03*
D14*
X130175000Y-88900000D03*
%TD*%
D23*
%TO.C,J3*%
X75158600Y-60430400D03*
D24*
X76358600Y-55030400D03*
D25*
X67658600Y-60430400D03*
D24*
X76358600Y-65830400D03*
%TD*%
D21*
%TO.C,D6*%
X93980000Y-100330000D03*
D22*
X86360000Y-100330000D03*
%TD*%
D13*
%TO.C,R16*%
X107950000Y-107950000D03*
D14*
X100330000Y-107950000D03*
%TD*%
D17*
%TO.C,RV1*%
X115570000Y-53340000D03*
X113030000Y-53340000D03*
X110490000Y-53340000D03*
%TD*%
%TO.C,RV5*%
X115570000Y-78740000D03*
X113030000Y-78740000D03*
X110490000Y-78740000D03*
%TD*%
D13*
%TO.C,R23*%
X96520000Y-121285000D03*
D14*
X96520000Y-128905000D03*
%TD*%
D10*
%TO.C,C16*%
X126365000Y-100925000D03*
X126365000Y-95925000D03*
%TD*%
%TO.C,C14*%
X113070000Y-114300000D03*
X118070000Y-114300000D03*
%TD*%
D13*
%TO.C,R12*%
X130175000Y-93980000D03*
D14*
X137795000Y-93980000D03*
%TD*%
D26*
%TO.C,U8*%
X187960000Y-119380000D03*
D27*
X187960000Y-121920000D03*
X187960000Y-124460000D03*
X187960000Y-127000000D03*
X187960000Y-129540000D03*
X187960000Y-132080000D03*
X187960000Y-134620000D03*
X187960000Y-137160000D03*
X195580000Y-137160000D03*
X195580000Y-134620000D03*
X195580000Y-132080000D03*
X195580000Y-129540000D03*
X195580000Y-127000000D03*
X195580000Y-124460000D03*
X195580000Y-121920000D03*
X195580000Y-119380000D03*
%TD*%
D10*
%TO.C,C5*%
X195580000Y-116840000D03*
X190580000Y-116840000D03*
%TD*%
D11*
%TO.C,D3*%
X100330000Y-102870000D03*
D12*
X107950000Y-102870000D03*
%TD*%
D13*
%TO.C,R1*%
X106680000Y-53340000D03*
D14*
X99060000Y-53340000D03*
%TD*%
D21*
%TO.C,D7*%
X93980000Y-102870000D03*
D22*
X86360000Y-102870000D03*
%TD*%
D13*
%TO.C,R17*%
X107950000Y-115570000D03*
D14*
X100330000Y-115570000D03*
%TD*%
D11*
%TO.C,U9*%
X142875000Y-88900000D03*
D12*
X142875000Y-91440000D03*
X142875000Y-93980000D03*
X142875000Y-96520000D03*
X142875000Y-99060000D03*
X142875000Y-101600000D03*
X142875000Y-104140000D03*
X142875000Y-106680000D03*
X142875000Y-109220000D03*
X142875000Y-111760000D03*
X142875000Y-114300000D03*
X142875000Y-116840000D03*
X142875000Y-119380000D03*
X142875000Y-121920000D03*
X142875000Y-124460000D03*
X142875000Y-127000000D03*
X142875000Y-129540000D03*
X142875000Y-132080000D03*
X142875000Y-134620000D03*
X142875000Y-137160000D03*
X158115000Y-137160000D03*
X158115000Y-134620000D03*
X158115000Y-132080000D03*
X158115000Y-129540000D03*
X158115000Y-127000000D03*
X158115000Y-124460000D03*
X158115000Y-121920000D03*
X158115000Y-119380000D03*
X158115000Y-116840000D03*
X158115000Y-114300000D03*
X158115000Y-111760000D03*
X158115000Y-109220000D03*
X158115000Y-106680000D03*
X158115000Y-104140000D03*
X158115000Y-101600000D03*
X158115000Y-99060000D03*
X158115000Y-96520000D03*
X158115000Y-93980000D03*
X158115000Y-91440000D03*
X158115000Y-88900000D03*
%TD*%
D11*
%TO.C,C19*%
X121595000Y-88900000D03*
D10*
X125095000Y-88900000D03*
%TD*%
D21*
%TO.C,D5*%
X93980000Y-97790000D03*
D22*
X86360000Y-97790000D03*
%TD*%
D28*
%TO.C,Q1*%
X161925000Y-57510000D03*
D29*
X163195000Y-57510000D03*
X164465000Y-57510000D03*
%TD*%
D28*
%TO.C,Q3*%
X161925000Y-69090000D03*
D29*
X163195000Y-69090000D03*
X164465000Y-69090000D03*
%TD*%
D13*
%TO.C,R27*%
X169545000Y-53340000D03*
D14*
X161925000Y-53340000D03*
%TD*%
D23*
%TO.C,J4*%
X75158600Y-73406000D03*
D24*
X76358600Y-68006000D03*
D25*
X67658600Y-73406000D03*
D24*
X76358600Y-78806000D03*
%TD*%
D11*
%TO.C,X1*%
X165735000Y-83185000D03*
D10*
X180975000Y-83185000D03*
X180975000Y-75565000D03*
X165735000Y-75565000D03*
%TD*%
D11*
%TO.C,D2*%
X100330000Y-100330000D03*
D12*
X107950000Y-100330000D03*
%TD*%
D15*
%TO.C,FB1*%
X137160000Y-112730000D03*
D16*
X121920000Y-112730000D03*
%TD*%
D26*
%TO.C,U1*%
X187960000Y-83820000D03*
D27*
X187960000Y-86360000D03*
X187960000Y-88900000D03*
X187960000Y-91440000D03*
X187960000Y-93980000D03*
X187960000Y-96520000D03*
X187960000Y-99060000D03*
X187960000Y-101600000D03*
X187960000Y-104140000D03*
X187960000Y-106680000D03*
X195580000Y-106680000D03*
X195580000Y-104140000D03*
X195580000Y-101600000D03*
X195580000Y-99060000D03*
X195580000Y-96520000D03*
X195580000Y-93980000D03*
X195580000Y-91440000D03*
X195580000Y-88900000D03*
X195580000Y-86360000D03*
X195580000Y-83820000D03*
%TD*%
D13*
%TO.C,R11*%
X130175000Y-96520000D03*
D14*
X137795000Y-96520000D03*
%TD*%
D11*
%TO.C,U11*%
X86360000Y-53340000D03*
D12*
X86360000Y-55880000D03*
X86360000Y-58420000D03*
X86360000Y-60960000D03*
X86360000Y-63500000D03*
X86360000Y-66040000D03*
X86360000Y-68580000D03*
X93980000Y-68580000D03*
X93980000Y-66040000D03*
X93980000Y-63500000D03*
X93980000Y-60960000D03*
X93980000Y-58420000D03*
X93980000Y-55880000D03*
X93980000Y-53340000D03*
%TD*%
D11*
%TO.C,U14*%
X129667000Y-121920000D03*
D12*
X129667000Y-124460000D03*
X129667000Y-127000000D03*
X129667000Y-129540000D03*
X129667000Y-132080000D03*
X129667000Y-134620000D03*
X129667000Y-137160000D03*
X137287000Y-137160000D03*
X137287000Y-134620000D03*
X137287000Y-132080000D03*
X137287000Y-129540000D03*
X137287000Y-127000000D03*
X137287000Y-124460000D03*
X137287000Y-121920000D03*
%TD*%
D11*
%TO.C,C10*%
X79415000Y-60325000D03*
D10*
X81915000Y-60325000D03*
%TD*%
D30*
%TO.C,J1*%
X224155000Y-50800000D03*
X224155000Y-139700000D03*
D31*
X72610000Y-50673000D03*
X72610000Y-139827000D03*
D32*
X221615000Y-55880000D03*
D33*
X221615000Y-58420000D03*
X221615000Y-60960000D03*
X221615000Y-63500000D03*
X221615000Y-66040000D03*
X221615000Y-68580000D03*
X221615000Y-71120000D03*
X221615000Y-73660000D03*
X221615000Y-76200000D03*
X221615000Y-78740000D03*
X221615000Y-81280000D03*
X221615000Y-83820000D03*
X221615000Y-86360000D03*
X221615000Y-88900000D03*
X221615000Y-91440000D03*
X221615000Y-93980000D03*
X221615000Y-96520000D03*
X221615000Y-99060000D03*
X221615000Y-101600000D03*
X221615000Y-104140000D03*
X221615000Y-106680000D03*
X221615000Y-109220000D03*
X221615000Y-111760000D03*
X221615000Y-114300000D03*
X221615000Y-116840000D03*
X221615000Y-119380000D03*
X221615000Y-121920000D03*
X221615000Y-124460000D03*
X221615000Y-127000000D03*
X221615000Y-129540000D03*
X221615000Y-132080000D03*
X221615000Y-134620000D03*
X219075000Y-55880000D03*
X219075000Y-58420000D03*
X219075000Y-60960000D03*
X219075000Y-63500000D03*
X219075000Y-66040000D03*
X219075000Y-68580000D03*
X219075000Y-71120000D03*
X219075000Y-73660000D03*
X219075000Y-76200000D03*
X219075000Y-78740000D03*
X219075000Y-81280000D03*
X219075000Y-83820000D03*
X219075000Y-86360000D03*
X219075000Y-88900000D03*
X219075000Y-91440000D03*
X219075000Y-93980000D03*
X219075000Y-96520000D03*
X219075000Y-99060000D03*
X219075000Y-101600000D03*
X219075000Y-104140000D03*
X219075000Y-106680000D03*
X219075000Y-109220000D03*
X219075000Y-111760000D03*
X219075000Y-114300000D03*
X219075000Y-116840000D03*
X219075000Y-119380000D03*
X219075000Y-121920000D03*
X219075000Y-124460000D03*
X219075000Y-127000000D03*
X219075000Y-129540000D03*
X219075000Y-132080000D03*
X219075000Y-134620000D03*
%TD*%
D13*
%TO.C,R26*%
X169545000Y-50800000D03*
D14*
X161925000Y-50800000D03*
%TD*%
D11*
%TO.C,D1*%
X100330000Y-97790000D03*
D12*
X107950000Y-97790000D03*
%TD*%
D10*
%TO.C,C3*%
X212645000Y-81280000D03*
X207645000Y-81280000D03*
%TD*%
D19*
%TO.C,J6*%
X187960000Y-77470000D03*
D20*
X187960000Y-74930000D03*
X190500000Y-77470000D03*
X190500000Y-74930000D03*
X193040000Y-77470000D03*
X193040000Y-74930000D03*
X195580000Y-77470000D03*
X195580000Y-74930000D03*
%TD*%
D13*
%TO.C,R8*%
X86360000Y-75565000D03*
D14*
X93980000Y-75565000D03*
%TD*%
D10*
%TO.C,C23*%
X137795000Y-50800000D03*
X132795000Y-50800000D03*
%TD*%
D13*
%TO.C,R24*%
X96520000Y-132715000D03*
D14*
X96520000Y-140335000D03*
%TD*%
D28*
%TO.C,U18*%
X120777000Y-98425000D03*
D29*
X122047000Y-98425000D03*
X123317000Y-98425000D03*
%TD*%
D11*
%TO.C,U6*%
X130175000Y-53340000D03*
D12*
X130175000Y-55880000D03*
X130175000Y-58420000D03*
X130175000Y-60960000D03*
X130175000Y-63500000D03*
X130175000Y-66040000D03*
X130175000Y-68580000D03*
X130175000Y-71120000D03*
X137795000Y-71120000D03*
X137795000Y-68580000D03*
X137795000Y-66040000D03*
X137795000Y-63500000D03*
X137795000Y-60960000D03*
X137795000Y-58420000D03*
X137795000Y-55880000D03*
X137795000Y-53340000D03*
%TD*%
D10*
%TO.C,C15*%
X111760000Y-95925000D03*
X111760000Y-100925000D03*
%TD*%
%TO.C,C22*%
X107950000Y-119380000D03*
X102950000Y-119380000D03*
%TD*%
%TO.C,C1*%
X195580000Y-81280000D03*
X190580000Y-81280000D03*
%TD*%
D11*
%TO.C,C11*%
X79415000Y-73660000D03*
D10*
X81915000Y-73660000D03*
%TD*%
D13*
%TO.C,R20*%
X93980000Y-107950000D03*
D14*
X86360000Y-107950000D03*
%TD*%
D28*
%TO.C,U17*%
X114935000Y-98425000D03*
D29*
X116205000Y-98425000D03*
X117475000Y-98425000D03*
%TD*%
D28*
%TO.C,Q2*%
X161925000Y-63300000D03*
D29*
X163195000Y-63300000D03*
X164465000Y-63300000D03*
%TD*%
D26*
%TO.C,U10*%
X173355000Y-53340000D03*
D27*
X173355000Y-55880000D03*
X173355000Y-58420000D03*
X173355000Y-60960000D03*
X173355000Y-63500000D03*
X173355000Y-66040000D03*
X173355000Y-68580000D03*
X173355000Y-71120000D03*
X180975000Y-71120000D03*
X180975000Y-68580000D03*
X180975000Y-66040000D03*
X180975000Y-63500000D03*
X180975000Y-60960000D03*
X180975000Y-58420000D03*
X180975000Y-55880000D03*
X180975000Y-53340000D03*
%TD*%
D34*
%TO.C,SW1*%
X80645000Y-84815000D03*
D35*
X84455000Y-84815000D03*
X88265000Y-84815000D03*
D36*
X67945000Y-82275000D03*
X67945000Y-87355000D03*
%TD*%
D13*
%TO.C,R19*%
X93980000Y-110490000D03*
D14*
X86360000Y-110490000D03*
%TD*%
D13*
%TO.C,R2*%
X106680000Y-59690000D03*
D14*
X99060000Y-59690000D03*
%TD*%
D10*
%TO.C,C24*%
X158115000Y-50800000D03*
X153115000Y-50800000D03*
%TD*%
D26*
%TO.C,U2*%
X205105000Y-53340000D03*
D27*
X205105000Y-55880000D03*
X205105000Y-58420000D03*
X205105000Y-60960000D03*
X205105000Y-63500000D03*
X205105000Y-66040000D03*
X205105000Y-68580000D03*
X205105000Y-71120000D03*
X205105000Y-73660000D03*
X205105000Y-76200000D03*
X212725000Y-76200000D03*
X212725000Y-73660000D03*
X212725000Y-71120000D03*
X212725000Y-68580000D03*
X212725000Y-66040000D03*
X212725000Y-63500000D03*
X212725000Y-60960000D03*
X212725000Y-58420000D03*
X212725000Y-55880000D03*
X212725000Y-53340000D03*
%TD*%
D19*
%TO.C,J2*%
X140081000Y-99060000D03*
D20*
X140081000Y-101600000D03*
X140081000Y-104140000D03*
X140081000Y-106680000D03*
X140081000Y-109220000D03*
X140081000Y-111760000D03*
X140081000Y-114300000D03*
X140081000Y-116840000D03*
X140081000Y-119380000D03*
X140081000Y-121920000D03*
X140081000Y-124460000D03*
X140081000Y-127000000D03*
X140081000Y-129540000D03*
X140081000Y-132080000D03*
X140081000Y-134620000D03*
X140081000Y-137160000D03*
%TD*%
D10*
%TO.C,C20*%
X137287000Y-119380000D03*
X132287000Y-119380000D03*
%TD*%
%TO.C,C6*%
X125055000Y-66040000D03*
X120055000Y-66040000D03*
%TD*%
D26*
%TO.C,U3*%
X205105000Y-83820000D03*
D27*
X205105000Y-86360000D03*
X205105000Y-88900000D03*
X205105000Y-91440000D03*
X205105000Y-93980000D03*
X205105000Y-96520000D03*
X205105000Y-99060000D03*
X205105000Y-101600000D03*
X205105000Y-104140000D03*
X205105000Y-106680000D03*
X212725000Y-106680000D03*
X212725000Y-104140000D03*
X212725000Y-101600000D03*
X212725000Y-99060000D03*
X212725000Y-96520000D03*
X212725000Y-93980000D03*
X212725000Y-91440000D03*
X212725000Y-88900000D03*
X212725000Y-86360000D03*
X212725000Y-83820000D03*
%TD*%
D11*
%TO.C,C9*%
X120650000Y-59690000D03*
D10*
X123150000Y-59690000D03*
%TD*%
D26*
%TO.C,U4*%
X205105000Y-114300000D03*
D27*
X205105000Y-116840000D03*
X205105000Y-119380000D03*
X205105000Y-121920000D03*
X205105000Y-124460000D03*
X205105000Y-127000000D03*
X205105000Y-129540000D03*
X205105000Y-132080000D03*
X205105000Y-134620000D03*
X205105000Y-137160000D03*
X212725000Y-137160000D03*
X212725000Y-134620000D03*
X212725000Y-132080000D03*
X212725000Y-129540000D03*
X212725000Y-127000000D03*
X212725000Y-124460000D03*
X212725000Y-121920000D03*
X212725000Y-119380000D03*
X212725000Y-116840000D03*
X212725000Y-114300000D03*
%TD*%
D11*
%TO.C,IC1*%
X165735000Y-88900000D03*
D12*
X165735000Y-91440000D03*
X165735000Y-93980000D03*
X165735000Y-96520000D03*
X165735000Y-99060000D03*
X165735000Y-101600000D03*
X165735000Y-104140000D03*
X165735000Y-106680000D03*
X165735000Y-109220000D03*
X165735000Y-111760000D03*
X165735000Y-114300000D03*
X165735000Y-116840000D03*
X165735000Y-119380000D03*
X165735000Y-121920000D03*
X165735000Y-124460000D03*
X165735000Y-127000000D03*
X165735000Y-129540000D03*
X165735000Y-132080000D03*
X165735000Y-134620000D03*
X165735000Y-137160000D03*
X180975000Y-137160000D03*
X180975000Y-134620000D03*
X180975000Y-132080000D03*
X180975000Y-129540000D03*
X180975000Y-127000000D03*
X180975000Y-124460000D03*
X180975000Y-121920000D03*
X180975000Y-119380000D03*
X180975000Y-116840000D03*
X180975000Y-114300000D03*
X180975000Y-111760000D03*
X180975000Y-109220000D03*
X180975000Y-106680000D03*
X180975000Y-104140000D03*
X180975000Y-101600000D03*
X180975000Y-99060000D03*
X180975000Y-96520000D03*
X180975000Y-93980000D03*
X180975000Y-91440000D03*
X180975000Y-88900000D03*
%TD*%
D11*
%TO.C,U12*%
X100330000Y-121915000D03*
D12*
X100330000Y-124455000D03*
X100330000Y-126995000D03*
X100330000Y-129535000D03*
X100330000Y-132075000D03*
X100330000Y-134615000D03*
X100330000Y-137155000D03*
X107950000Y-137155000D03*
X107950000Y-134615000D03*
X107950000Y-132075000D03*
X107950000Y-129535000D03*
X107950000Y-126995000D03*
X107950000Y-124455000D03*
X107950000Y-121915000D03*
%TD*%
D11*
%TO.C,RN3*%
X161290000Y-73660000D03*
D12*
X161290000Y-76200000D03*
X161290000Y-78740000D03*
X161290000Y-81280000D03*
X161290000Y-83820000D03*
%TD*%
D11*
%TO.C,C17*%
X113340000Y-107315000D03*
D10*
X116840000Y-107315000D03*
%TD*%
M02*
