M48
; DRILL file {KiCad 8.0.6-8.0.6-0~ubuntu22.04.1} date 2024-11-17T18:13:07+0100
; FORMAT={-:-/ absolute / inch / decimal}
; #@! TF.CreationDate,2024-11-17T18:13:07+01:00
; #@! TF.GenerationSoftware,Kicad,Pcbnew,8.0.6-8.0.6-0~ubuntu22.04.1
; #@! TF.FileFunction,Plated,1,2,PTH
FMAT,2
INCH
; #@! TA.AperFunction,Plated,PTH,ViaDrill
T1C0.0118
; #@! TA.AperFunction,Plated,PTH,ComponentDrill
T2C0.0236
; #@! TA.AperFunction,Plated,PTH,ComponentDrill
T3C0.0276
; #@! TA.AperFunction,Plated,PTH,ComponentDrill
T4C0.0295
; #@! TA.AperFunction,Plated,PTH,ComponentDrill
T5C0.0315
; #@! TA.AperFunction,Plated,PTH,ComponentDrill
T6C0.0320
; #@! TA.AperFunction,Plated,PTH,ComponentDrill
T7C0.0365
; #@! TA.AperFunction,Plated,PTH,ComponentDrill
T8C0.0394
; #@! TA.AperFunction,Plated,PTH,ComponentDrill
T9C0.0472
; #@! TA.AperFunction,Plated,PTH,ComponentDrill
T10C0.1260
%
G90
G05
T1
X2.9Y-4.325
X2.9Y-5.2
X2.9123Y-4.375
X2.95Y-4.2
X2.95Y-4.275
X2.95Y-4.75
X2.95Y-5.0
X2.95Y-5.25
X2.975Y-4.55
X2.975Y-4.7
X3.0Y-4.3
X3.075Y-4.85
X3.1Y-4.5661
X3.1188Y-4.6038
X3.125Y-2.775
X3.2Y-4.475
X3.225Y-4.425
X3.225Y-4.4507
X3.225Y-4.75
X3.25Y-4.625
X3.36Y-5.28
X3.44Y-4.1
X3.45Y-2.9384
X3.45Y-3.0116
X3.455Y-5.25
X3.475Y-2.8875
X3.485Y-2.4
X3.5053Y-3.25
X3.53Y-3.395
X3.5548Y-3.3849
X3.595Y-2.405
X3.75Y-3.0304
X3.7688Y-2.3
X3.775Y-2.7
X3.775Y-2.9064
X3.7946Y-3.2755
X3.8Y-2.5
X3.81Y-3.255
X3.8425Y-5.0663
X3.8826Y-4.255
X3.8826Y-4.345
X3.8826Y-4.455
X3.925Y-5.465
X3.9494Y-5.4838
X3.965Y-3.13
X3.9745Y-5.4958
X3.995Y-3.13
X4.0002Y-5.5078
X4.0116Y-4.8116
X4.0197Y-4.7865
X4.025Y-5.19
X4.0304Y-4.94
X4.0304Y-5.095
X4.0493Y-4.87
X4.075Y-4.79
X4.075Y-5.19
X4.1Y-5.4462
X4.18Y-5.0
X4.18Y-5.3
X4.2289Y-5.3422
X4.325Y-4.9663
X4.35Y-4.9407
X4.375Y-5.415
X4.45Y-4.8337
X4.455Y-4.62
X4.475Y-5.3593
X4.57Y-3.425
X4.58Y-5.18
X4.6Y-4.8
X4.6Y-5.14
X4.65Y-4.8593
X4.7554Y-5.0593
X4.7588Y-5.3
X4.76Y-4.9
X4.775Y-4.98
X4.7777Y-5.2
X4.875Y-4.6
X4.92Y-3.9981
X4.94Y-2.45
X4.9997Y-3.57
X5.0Y-5.65
X5.0497Y-4.5815
X5.05Y-5.675
X5.06Y-5.0
X5.06Y-5.2783
X5.0734Y-4.09
X5.1655Y-4.8337
X5.18Y-5.4
X5.1869Y-4.8479
X5.19Y-2.65
X5.195Y-4.88
X5.1988Y-5.095
X5.2Y-1.895
X5.2281Y-4.91
X5.265Y-2.355
X5.295Y-4.5815
X5.325Y-4.05
X5.325Y-4.27
X5.325Y-4.6052
X5.335Y-5.22
X5.345Y-4.14
X5.345Y-5.11
X5.3519Y-4.8345
X5.355Y-5.28
X5.375Y-3.17
X5.398Y-3.1585
X5.43Y-1.92
X5.435Y-4.61
X5.4804Y-3.8
X5.495Y-2.31
X5.5Y-3.7177
X5.5494Y-2.2407
X5.565Y-4.56
X5.565Y-4.65
X5.5654Y-5.4855
X5.578Y-4.7407
X5.58Y-5.21
X5.595Y-4.64
X5.595Y-5.473
X5.62Y-1.8966
X5.625Y-5.5232
X5.6383Y-4.6533
X5.6467Y-3.95
X5.655Y-4.25
X5.6843Y-4.1
X5.6843Y-4.505
X5.6843Y-5.305
X5.69Y-3.155
X5.695Y-4.06
X5.6963Y-4.305
X5.6963Y-4.4
X5.7Y-2.1
X5.7Y-5.425
X5.7029Y-5.3228
X5.7083Y-5.05
X5.7083Y-5.25
X5.7203Y-5.02
X5.9292Y-2.0358
X5.945Y-5.36
X5.955Y-2.035
X5.9628Y-2.53
X5.9782Y-3.0
X5.99Y-2.4812
X5.9902Y-4.44
X6.0Y-2.3593
X6.0022Y-3.14
X6.0049Y-2.4601
X6.01Y-2.1
X6.01Y-2.9
X6.0125Y-2.5496
X6.0125Y-2.6407
X6.0245Y-2.4434
X6.0262Y-2.81
X6.0382Y-2.7
X6.04Y-2.1593
X6.0454Y-2.4246
X6.0502Y-2.615
X6.06Y-2.14
X6.0622Y-2.505
X6.0742Y-2.4
X6.085Y-2.3
X6.0967Y-4.7407
X6.105Y-2.195
X6.1238Y-2.555
X6.1238Y-3.665
X6.1317Y-4.7333
X6.1412Y-2.9
X6.1512Y-2.47
X6.1512Y-2.52
X6.1537Y-2.995
X6.17Y-2.18
X6.17Y-2.68
X6.1708Y-3.4364
X6.185Y-3.415
X6.225Y-1.9203
X6.225Y-5.48
X6.24Y-5.35
X6.27Y-3.685
X6.27Y-5.4405
X6.2873Y-2.54
X6.3008Y-4.545
X6.3008Y-4.69
X6.3062Y-2.32
X6.31Y-4.3
X6.325Y-2.46
X6.3255Y-4.65
X6.35Y-2.65
X6.365Y-5.27
X6.465Y-5.2711
X6.475Y-4.8407
X6.545Y-2.48
X6.5813Y-5.3407
X6.6Y-4.65
X6.61Y-3.9
X6.6108Y-4.1
X6.6108Y-4.625
X6.6228Y-4.205
X6.695Y-2.6
X6.725Y-2.5
X6.725Y-4.7
X6.7645Y-1.9738
X6.765Y-2.0
X6.785Y-1.92
X6.955Y-5.245
X6.9772Y-4.05
X6.9892Y-4.2263
X6.9912Y-3.6
X6.9961Y-3.1442
X7.0012Y-4.25
X7.0032Y-3.6751
X7.0152Y-3.7
X7.02Y-3.8
X7.02Y-4.44
X7.0227Y-3.1442
X7.0388Y-4.42
X7.0392Y-3.78
X7.047Y-3.4585
X7.0482Y-3.1472
X7.05Y-4.955
X7.0512Y-4.1
X7.06Y-3.17
X7.06Y-4.3711
X7.06Y-4.435
X7.07Y-3.47
X7.07Y-4.305
X7.0717Y-3.1367
X7.0777Y-4.7
X7.0777Y-4.2713
X7.1692Y-4.4713
X7.175Y-4.035
X7.175Y-4.2713
X7.1777Y-2.9627
X7.1938Y-3.86
X7.195Y-3.9
X7.195Y-4.16
X7.195Y-4.5464
X7.1966Y-3.5417
X7.2017Y-2.9217
X7.2058Y-3.8343
X7.21Y-3.5
X7.2133Y-2.8933
X7.29Y-3.925
X7.3399Y-3.8836
X7.465Y-5.1
X7.475Y-3.4
X7.4764Y-2.6
X7.4871Y-4.01
X7.4871Y-4.4121
X7.49Y-2.7
X7.49Y-3.925
X7.51Y-4.2
X7.5118Y-3.29
X7.5118Y-3.495
X7.5118Y-3.69
X7.5118Y-4.095
X7.5258Y-2.515
X7.5346Y-4.3711
X7.56Y-4.71
X7.5615Y-4.0593
X7.5615Y-4.14
X7.573Y-2.89
X7.6112Y-3.9
X7.6112Y-3.95
X7.6147Y-3.1305
X7.6246Y-3.6491
X7.625Y-5.195
X7.6252Y-3.6752
X7.6267Y-3.105
X7.63Y-4.12
X7.6387Y-2.99
X7.6488Y-4.035
X7.6506Y-3.5667
X7.755Y-3.865
X7.7614Y-3.76
X7.7751Y-3.025
X7.7751Y-4.1
X7.785Y-4.78
X7.795Y-3.2
X7.7998Y-2.725
X7.7998Y-4.31
X7.8245Y-3.04
X7.8245Y-4.2
X7.83Y-3.4337
X7.835Y-3.9188
X7.835Y-4.7618
X7.845Y-4.2858
X7.855Y-4.7362
X7.9179Y-2.7798
X7.9265Y-2.7515
X7.9416Y-2.7898
X7.9672Y-2.7911
X7.9696Y-2.8167
X7.995Y-2.8287
X7.9999Y-4.6948
X8.0Y-2.205
X8.0042Y-5.3407
X8.01Y-2.6783
X8.0102Y-4.7515
X8.015Y-2.31
X8.015Y-2.405
X8.015Y-2.505
X8.015Y-2.61
X8.015Y-4.72
X8.1153Y-2.1595
X8.1501Y-2.685
X8.1575Y-5.3525
X8.1621Y-4.455
X8.175Y-2.97
X8.175Y-4.18
X8.185Y-4.605
X8.1997Y-3.4
X8.205Y-3.3
X8.2117Y-3.5
X8.2237Y-3.9
X8.2312Y-4.73
X8.2312Y-5.16
X8.2312Y-5.251
X8.2314Y-4.756
X8.2367Y-4.01
X8.2487Y-4.1
X8.3061Y-4.7044
X8.3169Y-4.735
X8.395Y-4.255
X8.4501Y-5.3
X8.455Y-4.9
X8.4621Y-5.0
X8.4621Y-5.2
X8.4741Y-4.8
X8.475Y-4.7
X8.525Y-5.65
X8.55Y-5.675
X8.825Y-1.92
X8.845Y-1.9
T3
X3.4Y-2.851
X3.4Y-2.975
X3.4Y-4.25
X3.4Y-4.35
X3.4Y-4.45
X3.4Y-4.549
X3.7Y-2.851
X3.7Y-2.975
X3.7Y-4.25
X3.7Y-4.35
X3.7Y-4.45
X3.7Y-4.549
X3.8Y-4.775
X3.8Y-5.075
X3.8Y-5.225
X3.8Y-5.525
X3.9Y-2.1
X3.9Y-2.35
X3.9Y-2.601
X3.9Y-2.725
X3.9Y-2.851
X3.9Y-2.975
X3.95Y-4.25
X3.95Y-4.35
X3.95Y-4.45
X3.95Y-4.55
X4.2Y-2.1
X4.2Y-2.35
X4.2Y-2.601
X4.2Y-2.725
X4.2Y-2.851
X4.2Y-2.975
X4.25Y-4.25
X4.25Y-4.35
X4.25Y-4.45
X4.25Y-4.55
X5.125Y-3.5
X5.125Y-3.6
X5.125Y-3.7
X5.125Y-3.8
X5.125Y-3.9
X5.125Y-4.0
X5.425Y-3.5
X5.425Y-3.6
X5.425Y-3.7
X5.425Y-3.8
X5.425Y-3.9
X5.425Y-4.0
X6.375Y-1.9
X6.375Y-2.0
X6.375Y-2.1
X6.675Y-1.9
X6.675Y-2.0
X6.675Y-2.1
T4
X3.4Y-3.85
X3.4Y-3.95
X3.4Y-4.05
X3.4Y-4.15
X3.7Y-3.85
X3.7Y-3.95
X3.7Y-4.05
X3.7Y-4.15
X4.525Y-3.875
X4.575Y-3.875
X4.625Y-3.875
X4.755Y-3.875
X4.805Y-3.875
X4.855Y-3.875
X6.375Y-2.2642
X6.375Y-2.4921
X6.375Y-2.7201
X6.425Y-2.2642
X6.425Y-2.4921
X6.425Y-2.7201
X6.475Y-2.2642
X6.475Y-2.4921
X6.475Y-2.7201
T5
X3.1266Y-2.375
X3.1266Y-2.9
X3.225Y-2.375
X3.225Y-2.9
X3.3Y-3.85
X3.3Y-3.95
X3.3Y-4.05
X3.3Y-4.15
X3.3Y-4.25
X3.3Y-4.35
X3.3Y-4.45
X3.3Y-4.55
X3.4Y-2.1
X3.4Y-2.2
X3.4Y-2.3
X3.4Y-2.4
X3.4Y-2.5
X3.4Y-2.6
X3.4Y-2.7
X3.4Y-4.7748
X3.4Y-4.8748
X3.4Y-4.9748
X3.4Y-5.0748
X3.4Y-5.2254
X3.4Y-5.3254
X3.4Y-5.4254
X3.4Y-5.5254
X3.7Y-2.1
X3.7Y-2.2
X3.7Y-2.3
X3.7Y-2.4
X3.7Y-2.5
X3.7Y-2.6
X3.7Y-2.7
X3.7Y-4.7748
X3.7Y-4.8748
X3.7Y-4.9748
X3.7Y-5.0748
X3.7Y-5.2254
X3.7Y-5.3254
X3.7Y-5.4254
X3.7Y-5.5254
X3.95Y-3.85
X3.95Y-3.95
X3.95Y-4.05
X3.95Y-4.15
X3.95Y-4.7998
X3.95Y-4.8998
X3.95Y-4.9998
X3.95Y-5.0998
X3.95Y-5.1998
X3.95Y-5.2998
X3.95Y-5.3998
X3.95Y-5.565
X4.05Y-5.565
X4.0531Y-4.7
X4.15Y-5.565
X4.25Y-3.85
X4.25Y-3.95
X4.25Y-4.05
X4.25Y-4.15
X4.25Y-4.7
X4.25Y-4.7998
X4.25Y-4.8998
X4.25Y-4.9998
X4.25Y-5.0998
X4.25Y-5.1998
X4.25Y-5.2998
X4.25Y-5.3998
X4.25Y-5.565
X4.35Y-2.1
X4.35Y-2.35
X4.35Y-2.6
X4.35Y-2.85
X4.35Y-3.1
X4.35Y-5.565
X4.4Y-3.7766
X4.4Y-3.9734
X4.4372Y-3.5
X4.45Y-2.1
X4.45Y-2.35
X4.45Y-2.6
X4.45Y-2.85
X4.45Y-3.1
X4.45Y-5.565
X4.4516Y-4.5
X4.4622Y-4.225
X4.525Y-4.8
X4.525Y-4.9
X4.525Y-5.0
X4.525Y-5.1
X4.525Y-5.2
X4.525Y-5.3
X4.525Y-5.4
X4.55Y-2.1
X4.55Y-2.35
X4.55Y-2.6
X4.55Y-2.85
X4.55Y-3.1
X4.55Y-5.565
X4.575Y-3.5
X4.6Y-4.225
X4.625Y-4.7
X4.6484Y-4.5
X4.65Y-5.565
X4.7266Y-2.6
X4.75Y-2.05
X4.75Y-2.35
X4.75Y-5.565
X4.7872Y-3.5
X4.8219Y-4.7
X4.825Y-4.8
X4.825Y-4.9
X4.825Y-5.0
X4.825Y-5.1
X4.825Y-5.2
X4.825Y-5.3
X4.825Y-5.4
X4.8484Y-2.05
X4.8484Y-2.35
X4.9234Y-2.6
X4.925Y-3.5
X4.975Y-3.7766
X4.975Y-3.9734
X5.105Y-4.8
X5.105Y-4.9
X5.105Y-5.0
X5.105Y-5.1
X5.105Y-5.2
X5.105Y-5.3
X5.105Y-5.4
X5.125Y-2.1
X5.125Y-2.2
X5.125Y-2.3
X5.125Y-2.4
X5.125Y-2.5
X5.125Y-2.6
X5.125Y-2.7
X5.125Y-2.8
X5.1781Y-3.3
X5.1781Y-3.4
X5.2081Y-4.7
X5.2281Y-2.0
X5.375Y-3.3
X5.375Y-3.4
X5.405Y-4.7
X5.405Y-4.8
X5.405Y-4.9
X5.405Y-5.0
X5.405Y-5.1
X5.405Y-5.2
X5.405Y-5.3
X5.405Y-5.4
X5.425Y-2.0
X5.425Y-2.1
X5.425Y-2.2
X5.425Y-2.3
X5.425Y-2.4
X5.425Y-2.5
X5.425Y-2.6
X5.425Y-2.7
X5.425Y-2.8
X5.625Y-2.1
X5.625Y-2.2
X5.625Y-2.3
X5.625Y-2.4
X5.625Y-2.5
X5.625Y-2.6
X5.625Y-2.7
X5.625Y-2.8
X5.625Y-2.9
X5.625Y-3.0
X5.625Y-3.1
X5.625Y-3.2
X5.625Y-3.5
X5.625Y-3.6
X5.625Y-3.7
X5.625Y-3.8
X5.625Y-3.9
X5.625Y-4.0
X5.625Y-4.1
X5.625Y-4.2
X5.625Y-4.3
X5.625Y-4.4
X5.625Y-4.5
X5.625Y-4.6
X5.625Y-4.7
X5.625Y-4.8
X5.625Y-4.9
X5.625Y-5.0
X5.625Y-5.1
X5.625Y-5.2
X5.625Y-5.3
X5.625Y-5.4
X6.0281Y-2.0
X6.225Y-2.0
X6.225Y-2.1
X6.225Y-2.2
X6.225Y-2.3
X6.225Y-2.4
X6.225Y-2.5
X6.225Y-2.6
X6.225Y-2.7
X6.225Y-2.8
X6.225Y-2.9
X6.225Y-3.0
X6.225Y-3.1
X6.225Y-3.2
X6.225Y-3.5
X6.225Y-3.6
X6.225Y-3.7
X6.225Y-3.8
X6.225Y-3.9
X6.225Y-4.0
X6.225Y-4.1
X6.225Y-4.2
X6.225Y-4.3
X6.225Y-4.4
X6.225Y-4.5
X6.225Y-4.6
X6.225Y-4.7
X6.225Y-4.8
X6.225Y-4.9
X6.225Y-5.0
X6.225Y-5.1
X6.225Y-5.2
X6.225Y-5.3
X6.225Y-5.4
X6.325Y-5.0
X6.325Y-5.1969
X6.35Y-2.9
X6.35Y-3.0
X6.35Y-3.1
X6.35Y-3.2
X6.35Y-3.3
X6.425Y-4.3
X6.425Y-4.4969
X6.525Y-2.975
X6.525Y-3.275
X6.525Y-3.5
X6.525Y-3.6
X6.525Y-3.7
X6.525Y-3.8
X6.525Y-3.9
X6.525Y-4.0
X6.525Y-4.1
X6.525Y-4.2
X6.525Y-4.3
X6.525Y-4.4
X6.525Y-4.5
X6.525Y-4.6
X6.525Y-4.7
X6.525Y-4.8
X6.525Y-4.9
X6.525Y-5.0
X6.525Y-5.1
X6.525Y-5.2
X6.525Y-5.3
X6.525Y-5.4
X6.825Y-2.1
X6.825Y-2.2
X6.825Y-2.3
X6.825Y-2.4
X6.825Y-2.5
X6.825Y-2.6
X6.825Y-2.7
X6.825Y-2.8
X6.9281Y-2.0
X7.125Y-2.0
X7.125Y-2.1
X7.125Y-2.2
X7.125Y-2.3
X7.125Y-2.4
X7.125Y-2.5
X7.125Y-2.6
X7.125Y-2.7
X7.125Y-2.8
X7.125Y-2.975
X7.125Y-3.275
X7.125Y-3.5
X7.125Y-3.6
X7.125Y-3.7
X7.125Y-3.8
X7.125Y-3.9
X7.125Y-4.0
X7.125Y-4.1
X7.125Y-4.2
X7.125Y-4.3
X7.125Y-4.4
X7.125Y-4.5
X7.125Y-4.6
X7.125Y-4.7
X7.125Y-4.8
X7.125Y-4.9
X7.125Y-5.0
X7.125Y-5.1
X7.125Y-5.2
X7.125Y-5.3
X7.125Y-5.4
X7.4Y-2.1
X7.4Y-2.2
X7.4Y-2.3
X7.4Y-2.4
X7.4Y-2.5
X7.4Y-2.6
X7.4Y-2.7
X7.4Y-3.3
X7.4Y-3.4
X7.4Y-3.5
X7.4Y-3.6
X7.4Y-3.7
X7.4Y-3.8
X7.4Y-3.9
X7.4Y-4.0
X7.4Y-4.1
X7.4Y-4.2
X7.4Y-4.7
X7.4Y-4.8
X7.4Y-4.9
X7.4Y-5.0
X7.4Y-5.1
X7.4Y-5.2
X7.4Y-5.3
X7.4Y-5.4
X7.5031Y-2.0
X7.5031Y-3.2
X7.5031Y-4.6
X7.7Y-2.0
X7.7Y-2.1
X7.7Y-2.2
X7.7Y-2.3
X7.7Y-2.4
X7.7Y-2.5
X7.7Y-2.6
X7.7Y-2.7
X7.7Y-3.2
X7.7Y-3.3
X7.7Y-3.4
X7.7Y-3.5
X7.7Y-3.6
X7.7Y-3.7
X7.7Y-3.8
X7.7Y-3.9
X7.7Y-4.0
X7.7Y-4.1
X7.7Y-4.2
X7.7Y-4.6
X7.7Y-4.7
X7.7Y-4.8
X7.7Y-4.9
X7.7Y-5.0
X7.7Y-5.1
X7.7Y-5.2
X7.7Y-5.3
X7.7Y-5.4
X7.895Y-3.36
X7.895Y-3.46
X7.895Y-3.56
X7.895Y-3.66
X7.895Y-3.76
X8.075Y-2.1
X8.075Y-2.2
X8.075Y-2.3
X8.075Y-2.4
X8.075Y-2.5
X8.075Y-2.6
X8.075Y-2.7
X8.075Y-2.8
X8.075Y-2.9
X8.075Y-3.0
X8.075Y-3.3
X8.075Y-3.4
X8.075Y-3.5
X8.075Y-3.6
X8.075Y-3.7
X8.075Y-3.8
X8.075Y-3.9
X8.075Y-4.0
X8.075Y-4.1
X8.075Y-4.2
X8.075Y-4.5
X8.075Y-4.6
X8.075Y-4.7
X8.075Y-4.8
X8.075Y-4.9
X8.075Y-5.0
X8.075Y-5.1
X8.075Y-5.2
X8.075Y-5.3
X8.075Y-5.4
X8.175Y-3.2
X8.175Y-4.4
X8.1766Y-2.0
X8.3719Y-3.2
X8.3719Y-4.4
X8.3734Y-2.0
X8.375Y-2.1
X8.375Y-2.2
X8.375Y-2.3
X8.375Y-2.4
X8.375Y-2.5
X8.375Y-2.6
X8.375Y-2.7
X8.375Y-2.8
X8.375Y-2.9
X8.375Y-3.0
X8.375Y-3.3
X8.375Y-3.4
X8.375Y-3.5
X8.375Y-3.6
X8.375Y-3.7
X8.375Y-3.8
X8.375Y-3.9
X8.375Y-4.0
X8.375Y-4.1
X8.375Y-4.2
X8.375Y-4.5
X8.375Y-4.6
X8.375Y-4.7
X8.375Y-4.8
X8.375Y-4.9
X8.375Y-5.0
X8.375Y-5.1
X8.375Y-5.2
X8.375Y-5.3
X8.375Y-5.4
T6
X3.175Y-3.3392
X3.325Y-3.3392
X3.475Y-3.3392
T7
X2.675Y-3.2392
X2.675Y-3.4392
T8
X3.044Y-4.2578
X3.044Y-4.3668
X3.044Y-4.4759
X3.044Y-4.5849
X3.044Y-4.694
X3.044Y-4.8031
X3.044Y-4.9121
X3.1558Y-4.2033
X3.1558Y-4.3123
X3.1558Y-4.4214
X3.1558Y-4.5304
X3.1558Y-4.6395
X3.1558Y-4.7485
X3.1558Y-4.8576
X3.1558Y-4.9666
X5.515Y-3.9
X5.515Y-4.0
X5.515Y-4.1
X5.515Y-4.2
X5.515Y-4.3
X5.515Y-4.4
X5.515Y-4.5
X5.515Y-4.6
X5.515Y-4.7
X5.515Y-4.8
X5.515Y-4.9
X5.515Y-5.0
X5.515Y-5.1
X5.515Y-5.2
X5.515Y-5.3
X5.515Y-5.4
X6.6Y-2.2
X6.6Y-2.3
X6.6Y-2.4
X6.6Y-2.5
X6.6Y-2.6
X6.6Y-2.7
X6.6Y-2.8
X7.4Y-2.95
X7.4Y-3.05
X7.5Y-2.95
X7.5Y-3.05
X7.6Y-2.95
X7.6Y-3.05
X7.7Y-2.95
X7.7Y-3.05
X7.9Y-3.9
X7.9Y-4.0
X7.9Y-4.1
X7.9Y-4.2
X7.9Y-4.3
X7.9Y-4.4
X7.9Y-4.5
X7.9Y-4.6
X7.9Y-4.7
X7.9Y-4.8
X7.9Y-4.9
X7.9Y-5.0
X7.9Y-5.1
X7.9Y-5.2
X7.9Y-5.3
X7.9Y-5.4
X8.625Y-2.2
X8.625Y-2.3
X8.625Y-2.4
X8.625Y-2.5
X8.625Y-2.6
X8.625Y-2.7
X8.625Y-2.8
X8.625Y-2.9
X8.625Y-3.0
X8.625Y-3.1
X8.625Y-3.2
X8.625Y-3.3
X8.625Y-3.4
X8.625Y-3.5
X8.625Y-3.6
X8.625Y-3.7
X8.625Y-3.8
X8.625Y-3.9
X8.625Y-4.0
X8.625Y-4.1
X8.625Y-4.2
X8.625Y-4.3
X8.625Y-4.4
X8.625Y-4.5
X8.625Y-4.6
X8.625Y-4.7
X8.625Y-4.8
X8.625Y-4.9
X8.625Y-5.0
X8.625Y-5.1
X8.625Y-5.2
X8.625Y-5.3
X8.725Y-2.2
X8.725Y-2.3
X8.725Y-2.4
X8.725Y-2.5
X8.725Y-2.6
X8.725Y-2.7
X8.725Y-2.8
X8.725Y-2.9
X8.725Y-3.0
X8.725Y-3.1
X8.725Y-3.2
X8.725Y-3.3
X8.725Y-3.4
X8.725Y-3.5
X8.725Y-3.6
X8.725Y-3.7
X8.725Y-3.8
X8.725Y-3.9
X8.725Y-4.0
X8.725Y-4.1
X8.725Y-4.2
X8.725Y-4.3
X8.725Y-4.4
X8.725Y-4.5
X8.725Y-4.6
X8.725Y-4.7
X8.725Y-4.8
X8.725Y-4.9
X8.725Y-5.0
X8.725Y-5.1
X8.725Y-5.2
X8.725Y-5.3
T9
X4.8Y-4.2
X4.8Y-4.4382
X5.4Y-4.2
X5.4Y-4.4382
T10
X2.8587Y-1.995
X2.8587Y-5.505
X3.0999Y-3.9294
X3.0999Y-5.2405
T2
G00X2.6637Y-2.3555
M15
G01X2.6637Y-2.4028
M16
G05
G00X2.6637Y-2.8664
M15
G01X2.6637Y-2.9136
M16
G05
G00X2.959Y-2.3641
M15
G01X2.959Y-2.3941
M16
G05
G00X2.959Y-2.875
M15
G01X2.959Y-2.905
M16
G05
G00X3.0299Y-2.1666
M15
G01X2.9826Y-2.1666
M16
G05
G00X3.0299Y-2.5917
M15
G01X2.9826Y-2.5917
M16
G05
G00X3.0299Y-2.6774
M15
G01X2.9826Y-2.6774
M16
G05
G00X3.0299Y-3.1026
M15
G01X2.9826Y-3.1026
M16
G05
M30
