M48
; DRILL file {KiCad (6.0.4)} date Mon Oct 24 21:41:42 2022
; FORMAT={-:-/ absolute / inch / decimal}
; #@! TF.CreationDate,2022-10-24T21:41:42+02:00
; #@! TF.GenerationSoftware,Kicad,Pcbnew,(6.0.4)
; #@! TF.FileFunction,Plated,1,2,PTH
FMAT,2
INCH
; #@! TA.AperFunction,Plated,PTH,ViaDrill
T1C0.0118
; #@! TA.AperFunction,Plated,PTH,ViaDrill
T2C0.0157
; #@! TA.AperFunction,Plated,PTH,ViaDrill
T3C0.0197
; #@! TA.AperFunction,Plated,PTH,ComponentDrill
T4C0.0276
; #@! TA.AperFunction,Plated,PTH,ComponentDrill
T5C0.0295
; #@! TA.AperFunction,Plated,PTH,ComponentDrill
T6C0.0300
; #@! TA.AperFunction,Plated,PTH,ComponentDrill
T7C0.0315
; #@! TA.AperFunction,Plated,PTH,ComponentDrill
T8C0.0394
; #@! TA.AperFunction,Plated,PTH,ComponentDrill
T9C0.0433
; #@! TA.AperFunction,Plated,PTH,ComponentDrill
T10C0.0870
%
G90
G05
T1
X2.86Y-4.0
X2.87Y-4.81
X2.8709Y-2.87
X2.88Y-3.9
X2.8807Y-4.36
X2.89Y-2.69
X2.8916Y-2.89
X2.8946Y-4.32
X2.9103Y-2.9103
X3.16Y-4.45
X3.18Y-3.09
X3.195Y-4.82
X3.195Y-4.86
X3.23Y-3.81
X3.24Y-4.4293
X3.25Y-3.7893
X3.2707Y-4.58
X3.3Y-4.01
X3.3Y-4.25
X3.3Y-4.56
X3.3186Y-4.53
X3.3393Y-4.77
X3.36Y-3.7
X3.36Y-4.4707
X3.395Y-4.81
X3.43Y-4.57
X3.46Y-4.51
X3.4654Y-3.2454
X3.4796Y-4.7635
X3.4893Y-4.6952
X3.4986Y-2.25
X3.51Y-4.5928
X3.5193Y-2.22
X3.5293Y-3.92
X3.5293Y-4.0107
X3.5293Y-4.05
X3.5293Y-4.15
X3.5493Y-2.19
X3.56Y-4.5307
X3.5716Y-2.17
X3.5836Y-4.6952
X3.5854Y-2.14
X3.5989Y-4.6081
X3.5993Y-2.09
X3.62Y-2.06
X3.62Y-3.59
X3.62Y-3.6193
X3.63Y-4.63
X3.6318Y-4.2384
X3.64Y-4.1693
X3.6407Y-2.1113
X3.66Y-4.5514
X3.66Y-4.84
X3.68Y-3.5693
X3.6807Y-4.6124
X3.6941Y-4.6365
X3.7Y-4.5928
X3.71Y-3.45
X3.71Y-3.5486
X3.72Y-1.98
X3.725Y-4.24
X3.7307Y-3.42
X3.7307Y-3.5298
X3.75Y-4.51
X3.77Y-4.53
X3.7893Y-3.5486
X3.8027Y-4.8473
X3.81Y-3.19
X3.8105Y-4.1693
X3.82Y-3.02
X3.82Y-3.14
X3.8234Y-4.7
X3.8323Y-3.1154
X3.84Y-2.94
X3.85Y-2.54
X3.85Y-3.06
X3.85Y-3.5693
X3.85Y-4.54
X3.85Y-4.57
X3.87Y-1.98
X3.8723Y-3.54
X3.88Y-2.36
X3.88Y-2.66
X3.88Y-2.81
X3.8807Y-3.21
X3.8807Y-3.31
X3.8893Y-3.7
X3.9007Y-2.45
X3.91Y-3.2
X3.91Y-4.3
X3.9142Y-4.72
X3.9163Y-3.6944
X3.936Y-2.7
X3.9404Y-3.59
X3.9543Y-2.26
X3.9543Y-2.7278
X3.9543Y-3.6175
X3.9682Y-1.73
X3.99Y-4.48
X4.0096Y-1.7
X4.02Y-1.64
X4.03Y-1.77
X4.06Y-1.7752
X4.06Y-1.81
X4.09Y-4.72
X4.0922Y-1.8071
X4.0957Y-1.8344
X4.0965Y-4.2904
X4.1Y-2.5654
X4.1107Y-4.25
X4.176Y-4.3
X4.19Y-4.45
X4.2091Y-4.2
X4.23Y-4.26
X4.23Y-3.21
X4.29Y-2.12
X4.36Y-2.65
X4.36Y-2.68
X4.39Y-4.61
X4.4Y-4.2
X4.45Y-2.59
X4.4532Y-2.62
X4.48Y-4.05
X4.48Y-4.94
X4.49Y-2.56
X4.5Y-4.81
X4.54Y-3.81
X4.5493Y-3.9721
X4.55Y-4.163
X4.57Y-3.8707
X4.59Y-2.52
X4.6074Y-4.8374
X4.6493Y-2.9876
X4.67Y-2.88
X4.68Y-4.74
X4.7Y-2.05
X4.71Y-4.76
X4.7293Y-4.05
X4.73Y-3.8
X4.76Y-3.71
X4.76Y-3.85
X4.76Y-4.86
X4.78Y-4.1
X4.81Y-4.95
X5.01Y-5.19
X5.02Y-4.3
X5.07Y-3.9
X5.08Y-5.21
X5.09Y-1.9941
X5.23Y-4.2
X5.25Y-3.74
X5.26Y-1.6693
X5.263Y-2.56
X5.28Y-3.67
X5.4Y-2.0079
X5.44Y-3.15
X5.49Y-4.82
X5.51Y-2.4
X5.6217Y-3.47
X5.65Y-4.16
X5.66Y-1.69
X5.7293Y-4.2
X5.75Y-3.6717
X5.76Y-4.77
X5.7646Y-4.42
X5.7646Y-4.47
X5.7707Y-3.73
X5.7793Y-2.07
X5.78Y-2.71
X5.78Y-4.85
X5.8046Y-2.7223
X5.81Y-1.72
X5.8126Y-3.74
X5.8536Y-1.7344
X5.88Y-1.82
X5.92Y-3.62
X5.96Y-2.0284
X5.9791Y-3.03
X5.9791Y-3.14
X6.0Y-3.21
X6.0Y-3.74
X6.01Y-1.72
X6.03Y-4.09
X6.04Y-1.76
X6.04Y-3.25
X6.05Y-2.26
X6.0593Y-3.35
X6.063Y-1.78
X6.07Y-2.61
X6.08Y-4.5
X6.09Y-4.88
X6.11Y-1.7407
X6.15Y-4.8586
X6.24Y-1.79
X6.25Y-2.2907
X6.2646Y-1.8023
X6.27Y-2.05
X6.27Y-2.27
X6.27Y-3.687
X6.27Y-4.26
X6.29Y-3.15
X6.2986Y-3.36
X6.3193Y-2.95
X6.32Y-2.57
X6.3207Y-2.05
X6.3323Y-2.075
X6.34Y-3.55
X6.4Y-2.0284
X6.45Y-1.9593
X6.45Y-2.08
X6.463Y-2.6
X6.4756Y-3.26
X6.4756Y-3.64
X6.4793Y-2.1093
X6.48Y-4.66
X6.49Y-2.67
X6.51Y-4.73
X6.5307Y-4.36
X6.5493Y-3.22
X6.57Y-2.99
X6.57Y-3.64
X6.57Y-4.4629
X6.6156Y-4.3944
X6.6363Y-3.5392
X6.64Y-3.35
X6.64Y-4.9
X6.6423Y-4.3577
X6.6793Y-2.3
X6.73Y-2.03
X6.78Y-4.46
X6.78Y-4.2
X6.78Y-4.57
X6.7925Y-3.09
X6.8Y-4.3
X6.81Y-1.6855
X6.8107Y-3.15
X6.8207Y-1.83
X6.8246Y-3.61
X6.84Y-3.72
X6.85Y-4.77
X6.863Y-2.65
X6.87Y-4.9
X6.88Y-4.7
X6.96Y-4.89
X6.99Y-2.12
X7.03Y-4.86
X7.07Y-1.65
X7.2225Y-3.8
X7.24Y-2.57
X7.29Y-3.8
X7.3086Y-2.39
X7.33Y-4.8207
X7.34Y-1.6855
X7.3422Y-4.2078
X7.35Y-2.02
X7.37Y-1.91
X7.3908Y-3.5093
X7.4034Y-2.0727
X7.42Y-3.4
X7.42Y-4.1871
X7.42Y-4.2285
X7.56Y-2.5473
X7.57Y-2.76
X7.63Y-2.32
X7.66Y-1.65
X7.66Y-2.4
X7.67Y-2.56
X7.7407Y-2.47
X7.91Y-1.69
X7.93Y-2.71
X8.02Y-4.8
X8.03Y-4.45
X8.08Y-5.05
X8.08Y-5.22
X8.22Y-4.2
X8.27Y-4.25
X8.28Y-3.2
X8.28Y-3.29
X8.2801Y-2.56
X8.29Y-4.36
X8.2923Y-2.5353
T2
X2.863Y-4.65
X3.81Y-1.95
X4.15Y-4.125
X4.15Y-4.775
X4.75Y-1.65
X5.2Y-1.638
X5.675Y-3.575
X5.7Y-2.0
X5.75Y-1.65
X5.75Y-3.2
X5.8Y-2.0066
X5.9Y-2.18
X6.01Y-2.2066
X6.1Y-2.2205
X6.2Y-2.2366
X6.3Y-2.2505
X6.4Y-2.2643
X6.55Y-1.65
X7.0181Y-4.53
X7.0702Y-2.9298
X7.1653Y-4.3
X7.17Y-4.5
X7.225Y-3.525
X7.24Y-2.2643
X7.25Y-2.1534
X7.36Y-3.89
X7.3608Y-2.2066
X7.3866Y-3.85
X7.39Y-2.0066
X7.3982Y-4.531
X7.4Y-2.21
X7.4Y-2.61
X7.4005Y-3.74
X7.4034Y-2.29
X7.4147Y-4.7
X7.4198Y-3.5577
X7.43Y-1.98
X7.43Y-2.11
X7.43Y-2.18
X7.43Y-2.51
X7.5691Y-3.18
X7.5994Y-2.8006
X7.5994Y-2.9194
X7.6026Y-3.0926
X7.6026Y-3.9974
X7.6026Y-5.1474
X7.636Y-3.3
X7.636Y-3.7692
X7.636Y-3.95
X7.636Y-5.3
X7.6626Y-3.5
X7.6626Y-3.64
X7.6626Y-3.7
X7.7024Y-3.5309
X7.71Y-2.12
X7.72Y-2.24
X7.72Y-2.38
X7.73Y-2.61
X7.73Y-2.66
X7.73Y-3.06
X7.73Y-4.35
X7.73Y-4.5659
X7.8841Y-4.21
X7.8841Y-4.84
X7.8978Y-2.21
X7.8978Y-2.46
X7.8978Y-2.61
X7.9Y-2.8
X7.9107Y-4.55
X7.9107Y-4.7
X7.9244Y-2.3414
X7.9244Y-2.5104
X7.9729Y-3.8425
X7.9822Y-4.5078
X7.9868Y-3.43
X8.0066Y-4.41
X8.0261Y-4.3
X8.04Y-4.0
X8.0434Y-3.65
X8.06Y-3.31
X8.06Y-4.4
X8.06Y-4.55
X8.06Y-4.61
X8.07Y-3.4
X8.2109Y-3.5694
X8.2175Y-5.08
X8.251Y-3.999
X8.2526Y-2.8026
X8.2844Y-3.5
X8.2844Y-3.75
X8.2844Y-4.45
X8.2844Y-5.1
X8.29Y-1.8766
X8.35Y-5.0
X8.5Y-5.13
X8.51Y-4.43
X8.52Y-4.53
X8.52Y-4.64
X8.52Y-5.04
X8.53Y-4.74
X8.5366Y-4.14
X8.5478Y-3.3
X8.5478Y-3.4
X8.5478Y-3.6
X8.5478Y-3.7
X8.5478Y-3.79
X8.5478Y-3.89
X8.5478Y-4.0
X8.5478Y-4.04
X8.55Y-2.54
X8.55Y-3.5
X8.5617Y-2.66
X8.5755Y-2.75
X8.5894Y-2.84
X8.5941Y-2.71
X8.601Y-4.34
X8.608Y-2.61
X8.61Y-2.9
X8.6218Y-2.51
X8.6239Y-3.03
X8.6357Y-2.41
X8.6495Y-2.31
X8.65Y-3.09
X8.6514Y-2.8358
X8.6634Y-2.21
X8.6743Y-3.2032
X8.69Y-2.11
X8.71Y-3.14
T3
X3.96Y-4.95
X4.29Y-4.9
T4
X2.918Y-3.7674
X2.918Y-4.0674
X3.015Y-4.217
X3.015Y-4.517
X3.114Y-4.217
X3.114Y-4.517
X4.341Y-4.512
X4.341Y-4.607
X4.341Y-4.703
X4.341Y-4.799
X4.641Y-4.512
X4.641Y-4.607
X4.641Y-4.703
X4.641Y-4.799
X4.844Y-4.512
X5.144Y-4.512
X5.39Y-4.361
X5.39Y-4.45
X5.39Y-4.54
X5.39Y-4.63
X5.39Y-4.721
X5.69Y-4.361
X5.69Y-4.45
X5.69Y-4.54
X5.69Y-4.63
X5.69Y-4.721
X8.45Y-5.3
X8.55Y-5.3
T5
X8.65Y-5.25
X8.7Y-5.25
X8.75Y-5.25
T6
X3.0155Y-4.62
X3.0155Y-4.72
X3.1155Y-4.62
X3.1155Y-4.72
T7
X3.35Y-3.85
X3.35Y-3.95
X3.35Y-4.05
X3.35Y-4.15
X3.35Y-4.25
X3.35Y-4.35
X3.45Y-3.75
X3.45Y-3.85
X3.45Y-3.95
X3.45Y-4.05
X3.45Y-4.15
X3.45Y-4.25
X3.45Y-4.35
X3.45Y-4.45
X3.55Y-3.75
X3.55Y-3.85
X3.55Y-4.35
X3.55Y-4.45
X3.65Y-3.75
X3.65Y-3.85
X3.65Y-4.35
X3.65Y-4.45
X3.75Y-3.75
X3.75Y-3.85
X3.75Y-4.35
X3.75Y-4.45
X3.85Y-3.75
X3.85Y-3.85
X3.85Y-4.35
X3.85Y-4.45
X3.95Y-3.75
X3.95Y-3.85
X3.95Y-3.95
X3.95Y-4.05
X3.95Y-4.15
X3.95Y-4.25
X3.95Y-4.35
X3.95Y-4.45
X3.9516Y-4.65
X4.05Y-3.85
X4.05Y-3.95
X4.05Y-4.05
X4.05Y-4.15
X4.05Y-4.25
X4.05Y-4.35
X4.1484Y-4.65
X4.3428Y-3.7
X4.3428Y-3.8
X4.3428Y-3.9
X4.3428Y-4.0
X4.3428Y-4.1
X4.3428Y-4.2
X4.3428Y-4.3
X4.4Y-2.8
X4.4516Y-3.6
X4.5378Y-2.8
X4.6428Y-3.7
X4.6428Y-3.8
X4.6428Y-3.9
X4.6428Y-4.0
X4.6428Y-4.1
X4.6428Y-4.2
X4.6428Y-4.3
X4.6484Y-3.6
X4.713Y-1.853
X4.713Y-2.453
X4.8Y-2.8
X4.85Y-3.7
X4.85Y-3.8
X4.85Y-3.9
X4.85Y-4.0
X4.85Y-4.1
X4.85Y-4.2
X4.85Y-4.3
X4.8984Y-2.8
X4.9531Y-3.6
X5.013Y-1.853
X5.013Y-2.453
X5.15Y-3.6
X5.15Y-3.7
X5.15Y-3.8
X5.15Y-3.9
X5.15Y-4.0
X5.15Y-4.1
X5.15Y-4.2
X5.15Y-4.3
X5.2Y-1.9
X5.2Y-2.5
X5.3Y-1.9
X5.3Y-2.5
X5.4Y-1.9
X5.4Y-2.5
X5.5Y-1.9
X5.5Y-2.5
X5.6Y-1.9
X5.6Y-2.5
X5.7Y-1.9
X5.7Y-2.5
X5.8Y-1.9
X5.8Y-2.5
X5.85Y-2.95
X5.85Y-3.05
X5.85Y-3.15
X5.85Y-3.25
X5.85Y-3.35
X5.85Y-3.45
X5.85Y-3.55
X5.85Y-3.65
X5.85Y-4.0998
X5.85Y-4.1998
X5.85Y-4.2998
X5.85Y-4.3998
X5.85Y-4.4998
X5.85Y-4.5998
X5.85Y-4.6998
X5.9Y-1.9
X5.9Y-2.5
X5.9516Y-2.85
X5.9531Y-4.0
X6.0Y-1.9
X6.0Y-2.5
X6.1Y-1.9
X6.1Y-2.5
X6.1484Y-2.85
X6.15Y-2.95
X6.15Y-3.05
X6.15Y-3.15
X6.15Y-3.25
X6.15Y-3.35
X6.15Y-3.45
X6.15Y-3.55
X6.15Y-3.65
X6.15Y-4.0
X6.15Y-4.0998
X6.15Y-4.1998
X6.15Y-4.2998
X6.15Y-4.3998
X6.15Y-4.4998
X6.15Y-4.5998
X6.15Y-4.6998
X6.2Y-1.9
X6.2Y-2.5
X6.3Y-1.9
X6.3Y-2.5
X6.4Y-1.9
X6.4Y-2.5
X6.4Y-2.95
X6.4Y-3.05
X6.4Y-3.15
X6.4Y-3.25
X6.4Y-3.35
X6.4Y-3.45
X6.4Y-3.55
X6.4Y-3.65
X6.4Y-3.75
X6.4Y-3.85
X6.4004Y-4.0998
X6.4004Y-4.1998
X6.4004Y-4.2998
X6.4004Y-4.3998
X6.4004Y-4.4998
X6.4004Y-4.5998
X6.4004Y-4.6998
X6.5Y-1.9
X6.5Y-2.5
X6.5031Y-2.85
X6.5031Y-4.0
X6.6Y-1.9
X6.6Y-2.5
X6.6Y-2.6
X6.7Y-1.9
X6.7Y-2.5
X6.7Y-2.85
X6.7Y-2.95
X6.7Y-3.05
X6.7Y-3.15
X6.7Y-3.25
X6.7Y-3.35
X6.7Y-3.45
X6.7Y-3.55
X6.7Y-3.65
X6.7Y-3.75
X6.7Y-3.85
X6.7Y-4.0
X6.7004Y-4.0998
X6.7004Y-4.1998
X6.7004Y-4.2998
X6.7004Y-4.3998
X6.7004Y-4.4998
X6.7004Y-4.5998
X6.7004Y-4.6998
X6.7969Y-2.6
X6.8Y-1.9
X6.8Y-2.5
X6.9Y-1.9
X6.9Y-2.5
X6.95Y-4.1
X6.95Y-4.2
X6.95Y-4.3
X6.95Y-4.4
X6.95Y-4.5
X6.95Y-4.6
X6.95Y-4.7
X7.0Y-1.9
X7.0Y-2.5
X7.0516Y-4.0
X7.1Y-1.9
X7.1Y-2.5
X7.2484Y-4.0
X7.25Y-4.1
X7.25Y-4.2
X7.25Y-4.3
X7.25Y-4.4
X7.25Y-4.5
X7.25Y-4.6
X7.25Y-4.7
X7.3Y-2.93
X7.3Y-3.03
X7.3Y-3.13
X7.3Y-3.23
X7.3Y-3.33
X7.3Y-3.43
X7.3Y-3.53
X7.3Y-3.63
X7.3Y-3.73
X7.4994Y-1.9104
X7.4994Y-2.0104
X7.4994Y-2.1104
X7.4994Y-2.2104
X7.4994Y-2.3104
X7.4994Y-2.4104
X7.4994Y-2.5104
X7.4994Y-2.6104
X7.4994Y-2.7104
X7.4994Y-2.8104
X7.4994Y-3.1002
X7.4994Y-3.2002
X7.4994Y-3.3002
X7.4994Y-3.4002
X7.4994Y-3.5002
X7.4994Y-3.6002
X7.4994Y-3.7002
X7.4994Y-3.8002
X7.4994Y-3.9002
X7.4994Y-4.0002
X7.4994Y-4.2502
X7.4994Y-4.3502
X7.4994Y-4.4502
X7.4994Y-4.5502
X7.4994Y-4.6502
X7.4994Y-4.7502
X7.4994Y-4.8502
X7.4994Y-4.9502
X7.4994Y-5.0502
X7.4994Y-5.1502
X7.5994Y-1.8002
X7.6026Y-3.0002
X7.6026Y-4.1502
X7.7963Y-1.8002
X7.7994Y-1.9104
X7.7994Y-2.0104
X7.7994Y-2.1104
X7.7994Y-2.2104
X7.7994Y-2.3104
X7.7994Y-2.4104
X7.7994Y-2.5104
X7.7994Y-2.6104
X7.7994Y-2.7104
X7.7994Y-2.8104
X7.7994Y-3.0002
X7.7994Y-3.1002
X7.7994Y-3.2002
X7.7994Y-3.3002
X7.7994Y-3.4002
X7.7994Y-3.5002
X7.7994Y-3.6002
X7.7994Y-3.7002
X7.7994Y-3.8002
X7.7994Y-3.9002
X7.7994Y-4.0002
X7.7994Y-4.1502
X7.7994Y-4.2502
X7.7994Y-4.3502
X7.7994Y-4.4502
X7.7994Y-4.5502
X7.7994Y-4.6502
X7.7994Y-4.7502
X7.7994Y-4.8502
X7.7994Y-4.9502
X7.7994Y-5.0502
X7.7994Y-5.1502
X8.1494Y-1.9104
X8.1494Y-2.0104
X8.1494Y-2.1104
X8.1494Y-2.2104
X8.1494Y-2.3104
X8.1494Y-2.4104
X8.1494Y-2.5104
X8.1494Y-2.6104
X8.1494Y-2.7104
X8.1494Y-2.8104
X8.1494Y-3.1002
X8.1494Y-3.2002
X8.1494Y-3.3002
X8.1494Y-3.4002
X8.1494Y-3.5002
X8.1494Y-3.6002
X8.1494Y-3.7002
X8.1494Y-3.8002
X8.1494Y-3.9002
X8.1494Y-4.0002
X8.1494Y-4.2502
X8.1494Y-4.3502
X8.1494Y-4.4502
X8.1494Y-4.5502
X8.1494Y-4.6502
X8.1494Y-4.7502
X8.1494Y-4.8502
X8.1494Y-4.9502
X8.1494Y-5.0502
X8.1494Y-5.1502
X8.251Y-3.0002
X8.251Y-4.1502
X8.2526Y-1.8002
X8.4478Y-3.0002
X8.4478Y-4.1502
X8.4494Y-1.8002
X8.4494Y-1.9104
X8.4494Y-2.0104
X8.4494Y-2.1104
X8.4494Y-2.2104
X8.4494Y-2.3104
X8.4494Y-2.4104
X8.4494Y-2.5104
X8.4494Y-2.6104
X8.4494Y-2.7104
X8.4494Y-2.8104
X8.4494Y-3.1002
X8.4494Y-3.2002
X8.4494Y-3.3002
X8.4494Y-3.4002
X8.4494Y-3.5002
X8.4494Y-3.6002
X8.4494Y-3.7002
X8.4494Y-3.8002
X8.4494Y-3.9002
X8.4494Y-4.0002
X8.4494Y-4.2502
X8.4494Y-4.3502
X8.4494Y-4.4502
X8.4494Y-4.5502
X8.4494Y-4.6502
X8.4494Y-4.7502
X8.4494Y-4.8502
X8.4494Y-4.9502
X8.4494Y-5.0502
X8.4494Y-5.1502
T8
X3.05Y-3.8
X3.05Y-3.9
X3.05Y-4.0
X3.06Y-5.0396
X3.06Y-5.1396
X3.16Y-5.0396
X3.16Y-5.1396
X3.26Y-5.0396
X3.26Y-5.1396
X3.36Y-5.0396
X3.36Y-5.1396
X3.46Y-5.0396
X3.46Y-5.1396
X3.56Y-5.0396
X3.56Y-5.1396
X3.66Y-5.0396
X3.66Y-5.1396
X3.76Y-5.0396
X3.76Y-5.1396
X3.86Y-5.0396
X3.86Y-5.1396
X3.96Y-5.0396
X3.96Y-5.1396
X4.06Y-5.0396
X4.06Y-5.1396
X4.16Y-5.0396
X4.16Y-5.1396
X4.26Y-5.0396
X4.26Y-5.1396
X4.36Y-5.0396
X4.36Y-5.1396
X4.46Y-5.0396
X4.46Y-5.1396
X4.56Y-5.0396
X4.56Y-5.1396
X4.66Y-5.0396
X4.66Y-5.1396
X4.76Y-5.0396
X4.76Y-5.1396
X4.86Y-5.0396
X4.86Y-5.1396
X4.96Y-5.0396
X4.96Y-5.1396
X5.174Y-2.943
X5.174Y-3.043
X5.174Y-3.143
X5.344Y-2.943
X5.344Y-3.043
X5.344Y-3.143
X5.47Y-5.0396
X5.47Y-5.1396
X5.516Y-2.943
X5.516Y-3.043
X5.57Y-5.0396
X5.57Y-5.1396
X5.67Y-5.0396
X5.67Y-5.1396
X5.688Y-2.943
X5.688Y-3.043
X5.77Y-5.0396
X5.77Y-5.1396
X5.87Y-5.0396
X5.87Y-5.1396
X5.97Y-5.0396
X5.97Y-5.1396
X6.07Y-5.0396
X6.07Y-5.1396
X6.17Y-5.0396
X6.17Y-5.1396
X6.27Y-5.0396
X6.27Y-5.1396
X6.37Y-5.0396
X6.37Y-5.1396
X6.47Y-5.0396
X6.47Y-5.1396
X6.57Y-5.0396
X6.57Y-5.1396
X6.67Y-5.0396
X6.67Y-5.1396
X6.77Y-5.0396
X6.77Y-5.1396
X6.87Y-5.0396
X6.87Y-5.1396
X6.95Y-3.9
X6.97Y-5.0396
X6.97Y-5.1396
X6.9702Y-3.03
X6.9702Y-3.13
X6.9702Y-3.23
X6.9702Y-3.33
X6.9702Y-3.43
X6.9702Y-3.53
X7.05Y-3.9
X7.07Y-5.0396
X7.07Y-5.1396
X7.0702Y-3.03
X7.0702Y-3.13
X7.0702Y-3.23
X7.0702Y-3.33
X7.0702Y-3.43
X7.0702Y-3.53
X8.7548Y-1.94
X8.7548Y-2.04
X8.7548Y-2.14
X8.7548Y-2.24
X8.7548Y-2.34
X8.7548Y-2.44
X8.7548Y-2.54
X8.7548Y-2.64
X8.7548Y-2.74
X8.7548Y-2.84
X8.7548Y-2.94
X8.7548Y-3.04
X8.7548Y-3.14
X8.7548Y-3.24
X8.7548Y-3.34
X8.7548Y-3.44
X8.7548Y-3.54
X8.7548Y-3.64
X8.7548Y-3.74
X8.7548Y-3.84
X8.7548Y-3.94
X8.7548Y-4.04
X8.7548Y-4.14
X8.7548Y-4.24
X8.7548Y-4.34
X8.7548Y-4.44
X8.7548Y-4.54
X8.7548Y-4.64
X8.7548Y-4.74
X8.7548Y-4.84
X8.7548Y-4.94
X8.7548Y-5.04
X8.8548Y-1.94
X8.8548Y-2.04
X8.8548Y-2.14
X8.8548Y-2.24
X8.8548Y-2.34
X8.8548Y-2.44
X8.8548Y-2.54
X8.8548Y-2.64
X8.8548Y-2.74
X8.8548Y-2.84
X8.8548Y-2.94
X8.8548Y-3.04
X8.8548Y-3.14
X8.8548Y-3.24
X8.8548Y-3.34
X8.8548Y-3.44
X8.8548Y-3.54
X8.8548Y-3.64
X8.8548Y-3.74
X8.8548Y-3.84
X8.8548Y-3.94
X8.8548Y-4.04
X8.8548Y-4.14
X8.8548Y-4.24
X8.8548Y-4.34
X8.8548Y-4.44
X8.8548Y-4.54
X8.8548Y-4.64
X8.8548Y-4.74
X8.8548Y-4.84
X8.8548Y-4.94
X8.8548Y-5.04
T9
X4.19Y-2.48
X4.29Y-2.48
X4.39Y-2.48
T10
X3.5999Y-1.8624
X3.5999Y-3.3876
T0
M30
