M48
; DRILL file {KiCad 7.0.11+dfsg-1build4} date Mo 30 Dez 2024 23:58:24 CET
; FORMAT={-:-/ absolute / inch / decimal}
; #@! TF.CreationDate,2024-12-30T23:58:24+01:00
; #@! TF.GenerationSoftware,Kicad,Pcbnew,7.0.11+dfsg-1build4
; #@! TF.FileFunction,Plated,1,2,PTH
FMAT,2
INCH
; #@! TA.AperFunction,Plated,PTH,ViaDrill
T1C0.0157
; #@! TA.AperFunction,Plated,PTH,ComponentDrill
T2C0.0335
; #@! TA.AperFunction,Plated,PTH,ComponentDrill
T3C0.0394
; #@! TA.AperFunction,Plated,PTH,ComponentDrill
T4C0.1063
%
G90
G05
T1
X2.63Y-6.49
X3.75Y-2.35
X3.8Y-6.4
X3.9Y-6.2667
X5.0Y-6.4
X5.05Y-2.35
X5.1Y-6.2667
X5.8Y-2.49
X6.15Y-6.4
X6.2Y-2.35
X6.3Y-6.2667
X7.35Y-6.4
X7.4Y-2.35
X7.5Y-6.2667
X8.5Y-6.4
X8.55Y-2.5
X8.6128Y-6.25
X8.8Y-2.5
T3
X1.9846Y-2.8291
X1.9846Y-2.9291
X1.9846Y-3.0291
X1.9846Y-3.1291
X1.9846Y-3.2291
X1.9846Y-3.3291
X1.9846Y-3.4291
X1.9846Y-3.5291
X1.9846Y-3.6291
X1.9846Y-3.7291
X1.9846Y-3.8291
X1.9846Y-3.9291
X1.9846Y-4.0291
X1.9846Y-4.1291
X1.9846Y-4.2291
X1.9846Y-4.3291
X1.9846Y-4.4291
X1.9846Y-4.5291
X1.9846Y-4.6291
X1.9846Y-4.7291
X1.9846Y-4.8291
X1.9846Y-4.9291
X1.9846Y-5.0291
X1.9846Y-5.1291
X1.9846Y-5.2291
X1.9846Y-5.3291
X1.9846Y-5.4291
X1.9846Y-5.5291
X1.9846Y-5.6291
X1.9846Y-5.7291
X1.9846Y-5.8291
X1.9846Y-5.9291
X2.0846Y-2.8291
X2.0846Y-2.9291
X2.0846Y-3.0291
X2.0846Y-3.1291
X2.0846Y-3.2291
X2.0846Y-3.3291
X2.0846Y-3.4291
X2.0846Y-3.5291
X2.0846Y-3.6291
X2.0846Y-3.7291
X2.0846Y-3.8291
X2.0846Y-3.9291
X2.0846Y-4.0291
X2.0846Y-4.1291
X2.0846Y-4.2291
X2.0846Y-4.3291
X2.0846Y-4.4291
X2.0846Y-4.5291
X2.0846Y-4.6291
X2.0846Y-4.7291
X2.0846Y-4.8291
X2.0846Y-4.9291
X2.0846Y-5.0291
X2.0846Y-5.1291
X2.0846Y-5.2291
X2.0846Y-5.3291
X2.0846Y-5.4291
X2.0846Y-5.5291
X2.0846Y-5.6291
X2.0846Y-5.7291
X2.0846Y-5.8291
X2.0846Y-5.9291
X2.3622Y-2.8299
X2.3622Y-2.9299
X2.3622Y-3.0299
X2.3622Y-3.1299
X2.3622Y-3.2299
X2.3622Y-3.3299
X2.3622Y-3.4299
X2.3622Y-3.5299
X2.3622Y-3.6299
X2.3622Y-3.7299
X2.3622Y-3.8299
X2.3622Y-3.9299
X2.3622Y-4.0299
X2.3622Y-4.1299
X2.3622Y-4.2299
X2.3622Y-4.3299
X2.3622Y-4.4299
X2.3622Y-4.5299
X2.3622Y-4.6299
X2.3622Y-4.7299
X2.3622Y-4.8299
X2.3622Y-4.9299
X2.3622Y-5.0299
X2.3622Y-5.1299
X2.3622Y-5.2299
X2.3622Y-5.3299
X2.3622Y-5.4299
X2.3622Y-5.5299
X2.3622Y-5.6299
X2.3622Y-5.7299
X2.3622Y-5.8299
X2.3622Y-5.9299
X2.4622Y-2.8299
X2.4622Y-2.9299
X2.4622Y-3.0299
X2.4622Y-3.1299
X2.4622Y-3.2299
X2.4622Y-3.3299
X2.4622Y-3.4299
X2.4622Y-3.5299
X2.4622Y-3.6299
X2.4622Y-3.7299
X2.4622Y-3.8299
X2.4622Y-3.9299
X2.4622Y-4.0299
X2.4622Y-4.1299
X2.4622Y-4.2299
X2.4622Y-4.3299
X2.4622Y-4.4299
X2.4622Y-4.5299
X2.4622Y-4.6299
X2.4622Y-4.7299
X2.4622Y-4.8299
X2.4622Y-4.9299
X2.4622Y-5.0299
X2.4622Y-5.1299
X2.4622Y-5.2299
X2.4622Y-5.3299
X2.4622Y-5.4299
X2.4622Y-5.5299
X2.4622Y-5.6299
X2.4622Y-5.7299
X2.4622Y-5.8299
X2.4622Y-5.9299
X3.5622Y-2.8299
X3.5622Y-2.9299
X3.5622Y-3.0299
X3.5622Y-3.1299
X3.5622Y-3.2299
X3.5622Y-3.3299
X3.5622Y-3.4299
X3.5622Y-3.5299
X3.5622Y-3.6299
X3.5622Y-3.7299
X3.5622Y-3.8299
X3.5622Y-3.9299
X3.5622Y-4.0299
X3.5622Y-4.1299
X3.5622Y-4.2299
X3.5622Y-4.3299
X3.5622Y-4.4299
X3.5622Y-4.5299
X3.5622Y-4.6299
X3.5622Y-4.7299
X3.5622Y-4.8299
X3.5622Y-4.9299
X3.5622Y-5.0299
X3.5622Y-5.1299
X3.5622Y-5.2299
X3.5622Y-5.3299
X3.5622Y-5.4299
X3.5622Y-5.5299
X3.5622Y-5.6299
X3.5622Y-5.7299
X3.5622Y-5.8299
X3.5622Y-5.9299
X3.6622Y-2.8299
X3.6622Y-2.9299
X3.6622Y-3.0299
X3.6622Y-3.1299
X3.6622Y-3.2299
X3.6622Y-3.3299
X3.6622Y-3.4299
X3.6622Y-3.5299
X3.6622Y-3.6299
X3.6622Y-3.7299
X3.6622Y-3.8299
X3.6622Y-3.9299
X3.6622Y-4.0299
X3.6622Y-4.1299
X3.6622Y-4.2299
X3.6622Y-4.3299
X3.6622Y-4.4299
X3.6622Y-4.5299
X3.6622Y-4.6299
X3.6622Y-4.7299
X3.6622Y-4.8299
X3.6622Y-4.9299
X3.6622Y-5.0299
X3.6622Y-5.1299
X3.6622Y-5.2299
X3.6622Y-5.3299
X3.6622Y-5.4299
X3.6622Y-5.5299
X3.6622Y-5.6299
X3.6622Y-5.7299
X3.6622Y-5.8299
X3.6622Y-5.9299
X4.7622Y-2.8299
X4.7622Y-2.9299
X4.7622Y-3.0299
X4.7622Y-3.1299
X4.7622Y-3.2299
X4.7622Y-3.3299
X4.7622Y-3.4299
X4.7622Y-3.5299
X4.7622Y-3.6299
X4.7622Y-3.7299
X4.7622Y-3.8299
X4.7622Y-3.9299
X4.7622Y-4.0299
X4.7622Y-4.1299
X4.7622Y-4.2299
X4.7622Y-4.3299
X4.7622Y-4.4299
X4.7622Y-4.5299
X4.7622Y-4.6299
X4.7622Y-4.7299
X4.7622Y-4.8299
X4.7622Y-4.9299
X4.7622Y-5.0299
X4.7622Y-5.1299
X4.7622Y-5.2299
X4.7622Y-5.3299
X4.7622Y-5.4299
X4.7622Y-5.5299
X4.7622Y-5.6299
X4.7622Y-5.7299
X4.7622Y-5.8299
X4.7622Y-5.9299
X4.8622Y-2.8299
X4.8622Y-2.9299
X4.8622Y-3.0299
X4.8622Y-3.1299
X4.8622Y-3.2299
X4.8622Y-3.3299
X4.8622Y-3.4299
X4.8622Y-3.5299
X4.8622Y-3.6299
X4.8622Y-3.7299
X4.8622Y-3.8299
X4.8622Y-3.9299
X4.8622Y-4.0299
X4.8622Y-4.1299
X4.8622Y-4.2299
X4.8622Y-4.3299
X4.8622Y-4.4299
X4.8622Y-4.5299
X4.8622Y-4.6299
X4.8622Y-4.7299
X4.8622Y-4.8299
X4.8622Y-4.9299
X4.8622Y-5.0299
X4.8622Y-5.1299
X4.8622Y-5.2299
X4.8622Y-5.3299
X4.8622Y-5.4299
X4.8622Y-5.5299
X4.8622Y-5.6299
X4.8622Y-5.7299
X4.8622Y-5.8299
X4.8622Y-5.9299
X5.9622Y-2.8299
X5.9622Y-2.9299
X5.9622Y-3.0299
X5.9622Y-3.1299
X5.9622Y-3.2299
X5.9622Y-3.3299
X5.9622Y-3.4299
X5.9622Y-3.5299
X5.9622Y-3.6299
X5.9622Y-3.7299
X5.9622Y-3.8299
X5.9622Y-3.9299
X5.9622Y-4.0299
X5.9622Y-4.1299
X5.9622Y-4.2299
X5.9622Y-4.3299
X5.9622Y-4.4299
X5.9622Y-4.5299
X5.9622Y-4.6299
X5.9622Y-4.7299
X5.9622Y-4.8299
X5.9622Y-4.9299
X5.9622Y-5.0299
X5.9622Y-5.1299
X5.9622Y-5.2299
X5.9622Y-5.3299
X5.9622Y-5.4299
X5.9622Y-5.5299
X5.9622Y-5.6299
X5.9622Y-5.7299
X5.9622Y-5.8299
X5.9622Y-5.9299
X6.0622Y-2.8299
X6.0622Y-2.9299
X6.0622Y-3.0299
X6.0622Y-3.1299
X6.0622Y-3.2299
X6.0622Y-3.3299
X6.0622Y-3.4299
X6.0622Y-3.5299
X6.0622Y-3.6299
X6.0622Y-3.7299
X6.0622Y-3.8299
X6.0622Y-3.9299
X6.0622Y-4.0299
X6.0622Y-4.1299
X6.0622Y-4.2299
X6.0622Y-4.3299
X6.0622Y-4.4299
X6.0622Y-4.5299
X6.0622Y-4.6299
X6.0622Y-4.7299
X6.0622Y-4.8299
X6.0622Y-4.9299
X6.0622Y-5.0299
X6.0622Y-5.1299
X6.0622Y-5.2299
X6.0622Y-5.3299
X6.0622Y-5.4299
X6.0622Y-5.5299
X6.0622Y-5.6299
X6.0622Y-5.7299
X6.0622Y-5.8299
X6.0622Y-5.9299
X7.1622Y-2.8268
X7.1622Y-2.9268
X7.1622Y-3.0268
X7.1622Y-3.1268
X7.1622Y-3.2268
X7.1622Y-3.3268
X7.1622Y-3.4268
X7.1622Y-3.5268
X7.1622Y-3.6268
X7.1622Y-3.7268
X7.1622Y-3.8268
X7.1622Y-3.9268
X7.1622Y-4.0268
X7.1622Y-4.1268
X7.1622Y-4.2268
X7.1622Y-4.3268
X7.1622Y-4.4268
X7.1622Y-4.5268
X7.1622Y-4.6268
X7.1622Y-4.7268
X7.1622Y-4.8268
X7.1622Y-4.9268
X7.1622Y-5.0268
X7.1622Y-5.1268
X7.1622Y-5.2268
X7.1622Y-5.3268
X7.1622Y-5.4268
X7.1622Y-5.5268
X7.1622Y-5.6268
X7.1622Y-5.7268
X7.1622Y-5.8268
X7.1622Y-5.9268
X7.2622Y-2.8268
X7.2622Y-2.9268
X7.2622Y-3.0268
X7.2622Y-3.1268
X7.2622Y-3.2268
X7.2622Y-3.3268
X7.2622Y-3.4268
X7.2622Y-3.5268
X7.2622Y-3.6268
X7.2622Y-3.7268
X7.2622Y-3.8268
X7.2622Y-3.9268
X7.2622Y-4.0268
X7.2622Y-4.1268
X7.2622Y-4.2268
X7.2622Y-4.3268
X7.2622Y-4.4268
X7.2622Y-4.5268
X7.2622Y-4.6268
X7.2622Y-4.7268
X7.2622Y-4.8268
X7.2622Y-4.9268
X7.2622Y-5.0268
X7.2622Y-5.1268
X7.2622Y-5.2268
X7.2622Y-5.3268
X7.2622Y-5.4268
X7.2622Y-5.5268
X7.2622Y-5.6268
X7.2622Y-5.7268
X7.2622Y-5.8268
X7.2622Y-5.9268
X8.3622Y-2.828
X8.3622Y-2.928
X8.3622Y-3.028
X8.3622Y-3.128
X8.3622Y-3.228
X8.3622Y-3.328
X8.3622Y-3.428
X8.3622Y-3.528
X8.3622Y-3.628
X8.3622Y-3.728
X8.3622Y-3.828
X8.3622Y-3.928
X8.3622Y-4.028
X8.3622Y-4.128
X8.3622Y-4.228
X8.3622Y-4.328
X8.3622Y-4.428
X8.3622Y-4.528
X8.3622Y-4.628
X8.3622Y-4.728
X8.3622Y-4.828
X8.3622Y-4.928
X8.3622Y-5.028
X8.3622Y-5.128
X8.3622Y-5.228
X8.3622Y-5.328
X8.3622Y-5.428
X8.3622Y-5.528
X8.3622Y-5.628
X8.3622Y-5.728
X8.3622Y-5.828
X8.3622Y-5.928
X8.4622Y-2.828
X8.4622Y-2.928
X8.4622Y-3.028
X8.4622Y-3.128
X8.4622Y-3.228
X8.4622Y-3.328
X8.4622Y-3.428
X8.4622Y-3.528
X8.4622Y-3.628
X8.4622Y-3.728
X8.4622Y-3.828
X8.4622Y-3.928
X8.4622Y-4.028
X8.4622Y-4.128
X8.4622Y-4.228
X8.4622Y-4.328
X8.4622Y-4.428
X8.4622Y-4.528
X8.4622Y-4.628
X8.4622Y-4.728
X8.4622Y-4.828
X8.4622Y-4.928
X8.4622Y-5.028
X8.4622Y-5.128
X8.4622Y-5.228
X8.4622Y-5.328
X8.4622Y-5.428
X8.4622Y-5.528
X8.4622Y-5.628
X8.4622Y-5.728
X8.4622Y-5.828
X8.4622Y-5.928
X8.7244Y-2.8268
X8.7244Y-2.9268
X8.7244Y-3.0268
X8.7244Y-3.1268
X8.7244Y-3.2268
X8.7244Y-3.3268
X8.7244Y-3.4268
X8.7244Y-3.5268
X8.7244Y-3.6268
X8.7244Y-3.7268
X8.7244Y-3.8268
X8.7244Y-3.9268
X8.7244Y-4.0268
X8.7244Y-4.1268
X8.7244Y-4.2268
X8.7244Y-4.3268
X8.7244Y-4.4268
X8.7244Y-4.5268
X8.7244Y-4.6268
X8.7244Y-4.7268
X8.7244Y-4.8268
X8.7244Y-4.9268
X8.7244Y-5.0268
X8.7244Y-5.1268
X8.7244Y-5.2268
X8.7244Y-5.3268
X8.7244Y-5.4268
X8.7244Y-5.5268
X8.7244Y-5.6268
X8.7244Y-5.7268
X8.7244Y-5.8268
X8.7244Y-5.9268
X8.8244Y-2.8268
X8.8244Y-2.9268
X8.8244Y-3.0268
X8.8244Y-3.1268
X8.8244Y-3.2268
X8.8244Y-3.3268
X8.8244Y-3.4268
X8.8244Y-3.5268
X8.8244Y-3.6268
X8.8244Y-3.7268
X8.8244Y-3.8268
X8.8244Y-3.9268
X8.8244Y-4.0268
X8.8244Y-4.1268
X8.8244Y-4.2268
X8.8244Y-4.3268
X8.8244Y-4.4268
X8.8244Y-4.5268
X8.8244Y-4.6268
X8.8244Y-4.7268
X8.8244Y-4.8268
X8.8244Y-4.9268
X8.8244Y-5.0268
X8.8244Y-5.1268
X8.8244Y-5.2268
X8.8244Y-5.3268
X8.8244Y-5.4268
X8.8244Y-5.5268
X8.8244Y-5.6268
X8.8244Y-5.7268
X8.8244Y-5.8268
X8.8244Y-5.9268
T4
X2.4488Y-1.9685
X2.4488Y-6.7913
X3.6488Y-1.9685
X3.6488Y-6.7913
X4.8488Y-1.9685
X4.8488Y-6.7913
X6.0488Y-1.9685
X6.0488Y-6.7913
X7.2488Y-1.9685
X7.2488Y-6.7913
X8.4488Y-1.9685
X8.4488Y-6.7913
T2
G00X2.6943Y-2.35
M15
G01X2.712Y-2.35
M16
G05
G00X2.6943Y-2.55
M15
G01X2.712Y-2.55
M16
G05
G00X2.6943Y-6.2
M15
G01X2.712Y-6.2
M16
G05
G00X2.6943Y-6.4
M15
G01X2.712Y-6.4
M16
G05
G00X2.8911Y-2.35
M15
G01X2.9089Y-2.35
M16
G05
G00X2.8911Y-2.55
M15
G01X2.9089Y-2.55
M16
G05
G00X2.8911Y-6.2
M15
G01X2.9089Y-6.2
M16
G05
G00X2.8911Y-6.4
M15
G01X2.9089Y-6.4
M16
G05
G00X7.8911Y-2.35
M15
G01X7.9089Y-2.35
M16
G05
G00X7.8911Y-2.55
M15
G01X7.9089Y-2.55
M16
G05
G00X7.8911Y-6.2
M15
G01X7.9089Y-6.2
M16
G05
G00X7.8911Y-6.4
M15
G01X7.9089Y-6.4
M16
G05
G00X8.088Y-2.35
M15
G01X8.1057Y-2.35
M16
G05
G00X8.088Y-2.55
M15
G01X8.1057Y-2.55
M16
G05
G00X8.088Y-6.2
M15
G01X8.1057Y-6.2
M16
G05
G00X8.088Y-6.4
M15
G01X8.1057Y-6.4
M16
G05
M30
