%TF.GenerationSoftware,KiCad,Pcbnew,7.0.11+dfsg-1build4*%
%TF.CreationDate,2024-12-30T23:58:22+01:00*%
%TF.ProjectId,Z80-Backplane,5a38302d-4261-4636-9b70-6c616e652e6b,rev?*%
%TF.SameCoordinates,Original*%
%TF.FileFunction,Legend,Bot*%
%TF.FilePolarity,Positive*%
%FSLAX46Y46*%
G04 Gerber Fmt 4.6, Leading zero omitted, Abs format (unit mm)*
G04 Created by KiCad (PCBNEW 7.0.11+dfsg-1build4) date 2024-12-30 23:58:22*
%MOMM*%
%LPD*%
G01*
G04 APERTURE LIST*
%ADD10C,0.300000*%
%ADD11C,0.150000*%
%ADD12C,0.120000*%
G04 APERTURE END LIST*
D10*
X79120856Y-64019757D02*
X79263714Y-63948328D01*
X79263714Y-63948328D02*
X79477999Y-63948328D01*
X79477999Y-63948328D02*
X79692285Y-64019757D01*
X79692285Y-64019757D02*
X79835142Y-64162614D01*
X79835142Y-64162614D02*
X79906571Y-64305471D01*
X79906571Y-64305471D02*
X79977999Y-64591185D01*
X79977999Y-64591185D02*
X79977999Y-64805471D01*
X79977999Y-64805471D02*
X79906571Y-65091185D01*
X79906571Y-65091185D02*
X79835142Y-65234042D01*
X79835142Y-65234042D02*
X79692285Y-65376900D01*
X79692285Y-65376900D02*
X79477999Y-65448328D01*
X79477999Y-65448328D02*
X79335142Y-65448328D01*
X79335142Y-65448328D02*
X79120856Y-65376900D01*
X79120856Y-65376900D02*
X79049428Y-65305471D01*
X79049428Y-65305471D02*
X79049428Y-64805471D01*
X79049428Y-64805471D02*
X79335142Y-64805471D01*
X78406571Y-65448328D02*
X78406571Y-63948328D01*
X78406571Y-63948328D02*
X77549428Y-65448328D01*
X77549428Y-65448328D02*
X77549428Y-63948328D01*
X76835142Y-65448328D02*
X76835142Y-63948328D01*
X76835142Y-63948328D02*
X76477999Y-63948328D01*
X76477999Y-63948328D02*
X76263713Y-64019757D01*
X76263713Y-64019757D02*
X76120856Y-64162614D01*
X76120856Y-64162614D02*
X76049427Y-64305471D01*
X76049427Y-64305471D02*
X75977999Y-64591185D01*
X75977999Y-64591185D02*
X75977999Y-64805471D01*
X75977999Y-64805471D02*
X76049427Y-65091185D01*
X76049427Y-65091185D02*
X76120856Y-65234042D01*
X76120856Y-65234042D02*
X76263713Y-65376900D01*
X76263713Y-65376900D02*
X76477999Y-65448328D01*
X76477999Y-65448328D02*
X76835142Y-65448328D01*
X81382856Y-162666900D02*
X80239999Y-162666900D01*
X78739998Y-163238328D02*
X79597141Y-163238328D01*
X79168570Y-163238328D02*
X79168570Y-161738328D01*
X79168570Y-161738328D02*
X79311427Y-161952614D01*
X79311427Y-161952614D02*
X79454284Y-162095471D01*
X79454284Y-162095471D02*
X79597141Y-162166900D01*
X78168570Y-161881185D02*
X78097142Y-161809757D01*
X78097142Y-161809757D02*
X77954285Y-161738328D01*
X77954285Y-161738328D02*
X77597142Y-161738328D01*
X77597142Y-161738328D02*
X77454285Y-161809757D01*
X77454285Y-161809757D02*
X77382856Y-161881185D01*
X77382856Y-161881185D02*
X77311427Y-162024042D01*
X77311427Y-162024042D02*
X77311427Y-162166900D01*
X77311427Y-162166900D02*
X77382856Y-162381185D01*
X77382856Y-162381185D02*
X78239999Y-163238328D01*
X78239999Y-163238328D02*
X77311427Y-163238328D01*
X76882856Y-161738328D02*
X76382856Y-163238328D01*
X76382856Y-163238328D02*
X75882856Y-161738328D01*
X152624858Y-163508328D02*
X152339144Y-164508328D01*
X152339144Y-164508328D02*
X152053429Y-163794042D01*
X152053429Y-163794042D02*
X151767715Y-164508328D01*
X151767715Y-164508328D02*
X151482001Y-163508328D01*
X151053429Y-163508328D02*
X150767715Y-164508328D01*
X150767715Y-164508328D02*
X150482000Y-163794042D01*
X150482000Y-163794042D02*
X150196286Y-164508328D01*
X150196286Y-164508328D02*
X149910572Y-163508328D01*
X149482000Y-163508328D02*
X149196286Y-164508328D01*
X149196286Y-164508328D02*
X148910571Y-163794042D01*
X148910571Y-163794042D02*
X148624857Y-164508328D01*
X148624857Y-164508328D02*
X148339143Y-163508328D01*
X147767714Y-164365471D02*
X147696285Y-164436900D01*
X147696285Y-164436900D02*
X147767714Y-164508328D01*
X147767714Y-164508328D02*
X147839142Y-164436900D01*
X147839142Y-164436900D02*
X147767714Y-164365471D01*
X147767714Y-164365471D02*
X147767714Y-164508328D01*
X146410571Y-164508328D02*
X146410571Y-163008328D01*
X146410571Y-164436900D02*
X146553428Y-164508328D01*
X146553428Y-164508328D02*
X146839142Y-164508328D01*
X146839142Y-164508328D02*
X146981999Y-164436900D01*
X146981999Y-164436900D02*
X147053428Y-164365471D01*
X147053428Y-164365471D02*
X147124856Y-164222614D01*
X147124856Y-164222614D02*
X147124856Y-163794042D01*
X147124856Y-163794042D02*
X147053428Y-163651185D01*
X147053428Y-163651185D02*
X146981999Y-163579757D01*
X146981999Y-163579757D02*
X146839142Y-163508328D01*
X146839142Y-163508328D02*
X146553428Y-163508328D01*
X146553428Y-163508328D02*
X146410571Y-163579757D01*
X145124856Y-164436900D02*
X145267713Y-164508328D01*
X145267713Y-164508328D02*
X145553428Y-164508328D01*
X145553428Y-164508328D02*
X145696285Y-164436900D01*
X145696285Y-164436900D02*
X145767713Y-164294042D01*
X145767713Y-164294042D02*
X145767713Y-163722614D01*
X145767713Y-163722614D02*
X145696285Y-163579757D01*
X145696285Y-163579757D02*
X145553428Y-163508328D01*
X145553428Y-163508328D02*
X145267713Y-163508328D01*
X145267713Y-163508328D02*
X145124856Y-163579757D01*
X145124856Y-163579757D02*
X145053428Y-163722614D01*
X145053428Y-163722614D02*
X145053428Y-163865471D01*
X145053428Y-163865471D02*
X145767713Y-164008328D01*
X144410571Y-163508328D02*
X144410571Y-164508328D01*
X144410571Y-163651185D02*
X144339142Y-163579757D01*
X144339142Y-163579757D02*
X144196285Y-163508328D01*
X144196285Y-163508328D02*
X143981999Y-163508328D01*
X143981999Y-163508328D02*
X143839142Y-163579757D01*
X143839142Y-163579757D02*
X143767714Y-163722614D01*
X143767714Y-163722614D02*
X143767714Y-164508328D01*
X143053428Y-163508328D02*
X143053428Y-164508328D01*
X143053428Y-163651185D02*
X142981999Y-163579757D01*
X142981999Y-163579757D02*
X142839142Y-163508328D01*
X142839142Y-163508328D02*
X142624856Y-163508328D01*
X142624856Y-163508328D02*
X142481999Y-163579757D01*
X142481999Y-163579757D02*
X142410571Y-163722614D01*
X142410571Y-163722614D02*
X142410571Y-164508328D01*
X141696285Y-164508328D02*
X141696285Y-163508328D01*
X141696285Y-163008328D02*
X141767713Y-163079757D01*
X141767713Y-163079757D02*
X141696285Y-163151185D01*
X141696285Y-163151185D02*
X141624856Y-163079757D01*
X141624856Y-163079757D02*
X141696285Y-163008328D01*
X141696285Y-163008328D02*
X141696285Y-163151185D01*
X141053427Y-164436900D02*
X140910570Y-164508328D01*
X140910570Y-164508328D02*
X140624856Y-164508328D01*
X140624856Y-164508328D02*
X140481999Y-164436900D01*
X140481999Y-164436900D02*
X140410570Y-164294042D01*
X140410570Y-164294042D02*
X140410570Y-164222614D01*
X140410570Y-164222614D02*
X140481999Y-164079757D01*
X140481999Y-164079757D02*
X140624856Y-164008328D01*
X140624856Y-164008328D02*
X140839142Y-164008328D01*
X140839142Y-164008328D02*
X140981999Y-163936900D01*
X140981999Y-163936900D02*
X141053427Y-163794042D01*
X141053427Y-163794042D02*
X141053427Y-163722614D01*
X141053427Y-163722614D02*
X140981999Y-163579757D01*
X140981999Y-163579757D02*
X140839142Y-163508328D01*
X140839142Y-163508328D02*
X140624856Y-163508328D01*
X140624856Y-163508328D02*
X140481999Y-163579757D01*
X139124856Y-163508328D02*
X139124856Y-164722614D01*
X139124856Y-164722614D02*
X139196284Y-164865471D01*
X139196284Y-164865471D02*
X139267713Y-164936900D01*
X139267713Y-164936900D02*
X139410570Y-165008328D01*
X139410570Y-165008328D02*
X139624856Y-165008328D01*
X139624856Y-165008328D02*
X139767713Y-164936900D01*
X139124856Y-164436900D02*
X139267713Y-164508328D01*
X139267713Y-164508328D02*
X139553427Y-164508328D01*
X139553427Y-164508328D02*
X139696284Y-164436900D01*
X139696284Y-164436900D02*
X139767713Y-164365471D01*
X139767713Y-164365471D02*
X139839141Y-164222614D01*
X139839141Y-164222614D02*
X139839141Y-163794042D01*
X139839141Y-163794042D02*
X139767713Y-163651185D01*
X139767713Y-163651185D02*
X139696284Y-163579757D01*
X139696284Y-163579757D02*
X139553427Y-163508328D01*
X139553427Y-163508328D02*
X139267713Y-163508328D01*
X139267713Y-163508328D02*
X139124856Y-163579757D01*
X137767713Y-163508328D02*
X137767713Y-164508328D01*
X138410570Y-163508328D02*
X138410570Y-164294042D01*
X138410570Y-164294042D02*
X138339141Y-164436900D01*
X138339141Y-164436900D02*
X138196284Y-164508328D01*
X138196284Y-164508328D02*
X137981998Y-164508328D01*
X137981998Y-164508328D02*
X137839141Y-164436900D01*
X137839141Y-164436900D02*
X137767713Y-164365471D01*
X137053427Y-163508328D02*
X137053427Y-164508328D01*
X137053427Y-163651185D02*
X136981998Y-163579757D01*
X136981998Y-163579757D02*
X136839141Y-163508328D01*
X136839141Y-163508328D02*
X136624855Y-163508328D01*
X136624855Y-163508328D02*
X136481998Y-163579757D01*
X136481998Y-163579757D02*
X136410570Y-163722614D01*
X136410570Y-163722614D02*
X136410570Y-164508328D01*
X135696284Y-164508328D02*
X135696284Y-163508328D01*
X135696284Y-163008328D02*
X135767712Y-163079757D01*
X135767712Y-163079757D02*
X135696284Y-163151185D01*
X135696284Y-163151185D02*
X135624855Y-163079757D01*
X135624855Y-163079757D02*
X135696284Y-163008328D01*
X135696284Y-163008328D02*
X135696284Y-163151185D01*
X134339141Y-164508328D02*
X134339141Y-163722614D01*
X134339141Y-163722614D02*
X134410569Y-163579757D01*
X134410569Y-163579757D02*
X134553426Y-163508328D01*
X134553426Y-163508328D02*
X134839141Y-163508328D01*
X134839141Y-163508328D02*
X134981998Y-163579757D01*
X134339141Y-164436900D02*
X134481998Y-164508328D01*
X134481998Y-164508328D02*
X134839141Y-164508328D01*
X134839141Y-164508328D02*
X134981998Y-164436900D01*
X134981998Y-164436900D02*
X135053426Y-164294042D01*
X135053426Y-164294042D02*
X135053426Y-164151185D01*
X135053426Y-164151185D02*
X134981998Y-164008328D01*
X134981998Y-164008328D02*
X134839141Y-163936900D01*
X134839141Y-163936900D02*
X134481998Y-163936900D01*
X134481998Y-163936900D02*
X134339141Y-163865471D01*
X133624855Y-164365471D02*
X133553426Y-164436900D01*
X133553426Y-164436900D02*
X133624855Y-164508328D01*
X133624855Y-164508328D02*
X133696283Y-164436900D01*
X133696283Y-164436900D02*
X133624855Y-164365471D01*
X133624855Y-164365471D02*
X133624855Y-164508328D01*
X132267712Y-164508328D02*
X132267712Y-163008328D01*
X132267712Y-164436900D02*
X132410569Y-164508328D01*
X132410569Y-164508328D02*
X132696283Y-164508328D01*
X132696283Y-164508328D02*
X132839140Y-164436900D01*
X132839140Y-164436900D02*
X132910569Y-164365471D01*
X132910569Y-164365471D02*
X132981997Y-164222614D01*
X132981997Y-164222614D02*
X132981997Y-163794042D01*
X132981997Y-163794042D02*
X132910569Y-163651185D01*
X132910569Y-163651185D02*
X132839140Y-163579757D01*
X132839140Y-163579757D02*
X132696283Y-163508328D01*
X132696283Y-163508328D02*
X132410569Y-163508328D01*
X132410569Y-163508328D02*
X132267712Y-163579757D01*
X130981997Y-164436900D02*
X131124854Y-164508328D01*
X131124854Y-164508328D02*
X131410569Y-164508328D01*
X131410569Y-164508328D02*
X131553426Y-164436900D01*
X131553426Y-164436900D02*
X131624854Y-164294042D01*
X131624854Y-164294042D02*
X131624854Y-163722614D01*
X131624854Y-163722614D02*
X131553426Y-163579757D01*
X131553426Y-163579757D02*
X131410569Y-163508328D01*
X131410569Y-163508328D02*
X131124854Y-163508328D01*
X131124854Y-163508328D02*
X130981997Y-163579757D01*
X130981997Y-163579757D02*
X130910569Y-163722614D01*
X130910569Y-163722614D02*
X130910569Y-163865471D01*
X130910569Y-163865471D02*
X131624854Y-164008328D01*
X198730856Y-157586900D02*
X197587999Y-157586900D01*
X198159427Y-158158328D02*
X198159427Y-157015471D01*
X196087998Y-158158328D02*
X196945141Y-158158328D01*
X196516570Y-158158328D02*
X196516570Y-156658328D01*
X196516570Y-156658328D02*
X196659427Y-156872614D01*
X196659427Y-156872614D02*
X196802284Y-157015471D01*
X196802284Y-157015471D02*
X196945141Y-157086900D01*
X195516570Y-156801185D02*
X195445142Y-156729757D01*
X195445142Y-156729757D02*
X195302285Y-156658328D01*
X195302285Y-156658328D02*
X194945142Y-156658328D01*
X194945142Y-156658328D02*
X194802285Y-156729757D01*
X194802285Y-156729757D02*
X194730856Y-156801185D01*
X194730856Y-156801185D02*
X194659427Y-156944042D01*
X194659427Y-156944042D02*
X194659427Y-157086900D01*
X194659427Y-157086900D02*
X194730856Y-157301185D01*
X194730856Y-157301185D02*
X195587999Y-158158328D01*
X195587999Y-158158328D02*
X194659427Y-158158328D01*
X194230856Y-156658328D02*
X193730856Y-158158328D01*
X193730856Y-158158328D02*
X193230856Y-156658328D01*
X161811524Y-159437638D02*
X160478191Y-159437638D01*
X160478191Y-159437638D02*
X161811524Y-161437638D01*
X161811524Y-161437638D02*
X160478191Y-161437638D01*
X159430572Y-160294780D02*
X159621048Y-160199542D01*
X159621048Y-160199542D02*
X159716286Y-160104304D01*
X159716286Y-160104304D02*
X159811524Y-159913828D01*
X159811524Y-159913828D02*
X159811524Y-159818590D01*
X159811524Y-159818590D02*
X159716286Y-159628114D01*
X159716286Y-159628114D02*
X159621048Y-159532876D01*
X159621048Y-159532876D02*
X159430572Y-159437638D01*
X159430572Y-159437638D02*
X159049619Y-159437638D01*
X159049619Y-159437638D02*
X158859143Y-159532876D01*
X158859143Y-159532876D02*
X158763905Y-159628114D01*
X158763905Y-159628114D02*
X158668667Y-159818590D01*
X158668667Y-159818590D02*
X158668667Y-159913828D01*
X158668667Y-159913828D02*
X158763905Y-160104304D01*
X158763905Y-160104304D02*
X158859143Y-160199542D01*
X158859143Y-160199542D02*
X159049619Y-160294780D01*
X159049619Y-160294780D02*
X159430572Y-160294780D01*
X159430572Y-160294780D02*
X159621048Y-160390019D01*
X159621048Y-160390019D02*
X159716286Y-160485257D01*
X159716286Y-160485257D02*
X159811524Y-160675733D01*
X159811524Y-160675733D02*
X159811524Y-161056685D01*
X159811524Y-161056685D02*
X159716286Y-161247161D01*
X159716286Y-161247161D02*
X159621048Y-161342400D01*
X159621048Y-161342400D02*
X159430572Y-161437638D01*
X159430572Y-161437638D02*
X159049619Y-161437638D01*
X159049619Y-161437638D02*
X158859143Y-161342400D01*
X158859143Y-161342400D02*
X158763905Y-161247161D01*
X158763905Y-161247161D02*
X158668667Y-161056685D01*
X158668667Y-161056685D02*
X158668667Y-160675733D01*
X158668667Y-160675733D02*
X158763905Y-160485257D01*
X158763905Y-160485257D02*
X158859143Y-160390019D01*
X158859143Y-160390019D02*
X159049619Y-160294780D01*
X156668667Y-161247161D02*
X156763905Y-161342400D01*
X156763905Y-161342400D02*
X157049619Y-161437638D01*
X157049619Y-161437638D02*
X157240095Y-161437638D01*
X157240095Y-161437638D02*
X157525810Y-161342400D01*
X157525810Y-161342400D02*
X157716286Y-161151923D01*
X157716286Y-161151923D02*
X157811524Y-160961447D01*
X157811524Y-160961447D02*
X157906762Y-160580495D01*
X157906762Y-160580495D02*
X157906762Y-160294780D01*
X157906762Y-160294780D02*
X157811524Y-159913828D01*
X157811524Y-159913828D02*
X157716286Y-159723352D01*
X157716286Y-159723352D02*
X157525810Y-159532876D01*
X157525810Y-159532876D02*
X157240095Y-159437638D01*
X157240095Y-159437638D02*
X157049619Y-159437638D01*
X157049619Y-159437638D02*
X156763905Y-159532876D01*
X156763905Y-159532876D02*
X156668667Y-159628114D01*
X154287714Y-161437638D02*
X154287714Y-159437638D01*
X154287714Y-160390019D02*
X153144857Y-160390019D01*
X153144857Y-161437638D02*
X153144857Y-159437638D01*
X151906762Y-161437638D02*
X152097238Y-161342400D01*
X152097238Y-161342400D02*
X152192476Y-161247161D01*
X152192476Y-161247161D02*
X152287714Y-161056685D01*
X152287714Y-161056685D02*
X152287714Y-160485257D01*
X152287714Y-160485257D02*
X152192476Y-160294780D01*
X152192476Y-160294780D02*
X152097238Y-160199542D01*
X152097238Y-160199542D02*
X151906762Y-160104304D01*
X151906762Y-160104304D02*
X151621047Y-160104304D01*
X151621047Y-160104304D02*
X151430571Y-160199542D01*
X151430571Y-160199542D02*
X151335333Y-160294780D01*
X151335333Y-160294780D02*
X151240095Y-160485257D01*
X151240095Y-160485257D02*
X151240095Y-161056685D01*
X151240095Y-161056685D02*
X151335333Y-161247161D01*
X151335333Y-161247161D02*
X151430571Y-161342400D01*
X151430571Y-161342400D02*
X151621047Y-161437638D01*
X151621047Y-161437638D02*
X151906762Y-161437638D01*
X150382952Y-161437638D02*
X150382952Y-160104304D01*
X150382952Y-160294780D02*
X150287714Y-160199542D01*
X150287714Y-160199542D02*
X150097238Y-160104304D01*
X150097238Y-160104304D02*
X149811523Y-160104304D01*
X149811523Y-160104304D02*
X149621047Y-160199542D01*
X149621047Y-160199542D02*
X149525809Y-160390019D01*
X149525809Y-160390019D02*
X149525809Y-161437638D01*
X149525809Y-160390019D02*
X149430571Y-160199542D01*
X149430571Y-160199542D02*
X149240095Y-160104304D01*
X149240095Y-160104304D02*
X148954381Y-160104304D01*
X148954381Y-160104304D02*
X148763904Y-160199542D01*
X148763904Y-160199542D02*
X148668666Y-160390019D01*
X148668666Y-160390019D02*
X148668666Y-161437638D01*
X146954380Y-161342400D02*
X147144856Y-161437638D01*
X147144856Y-161437638D02*
X147525809Y-161437638D01*
X147525809Y-161437638D02*
X147716285Y-161342400D01*
X147716285Y-161342400D02*
X147811523Y-161151923D01*
X147811523Y-161151923D02*
X147811523Y-160390019D01*
X147811523Y-160390019D02*
X147716285Y-160199542D01*
X147716285Y-160199542D02*
X147525809Y-160104304D01*
X147525809Y-160104304D02*
X147144856Y-160104304D01*
X147144856Y-160104304D02*
X146954380Y-160199542D01*
X146954380Y-160199542D02*
X146859142Y-160390019D01*
X146859142Y-160390019D02*
X146859142Y-160580495D01*
X146859142Y-160580495D02*
X147811523Y-160770971D01*
X146001999Y-161437638D02*
X146001999Y-159437638D01*
X146001999Y-160199542D02*
X145811523Y-160104304D01*
X145811523Y-160104304D02*
X145430570Y-160104304D01*
X145430570Y-160104304D02*
X145240094Y-160199542D01*
X145240094Y-160199542D02*
X145144856Y-160294780D01*
X145144856Y-160294780D02*
X145049618Y-160485257D01*
X145049618Y-160485257D02*
X145049618Y-161056685D01*
X145049618Y-161056685D02*
X145144856Y-161247161D01*
X145144856Y-161247161D02*
X145240094Y-161342400D01*
X145240094Y-161342400D02*
X145430570Y-161437638D01*
X145430570Y-161437638D02*
X145811523Y-161437638D01*
X145811523Y-161437638D02*
X146001999Y-161342400D01*
X144192475Y-161437638D02*
X144192475Y-160104304D01*
X144192475Y-160485257D02*
X144097237Y-160294780D01*
X144097237Y-160294780D02*
X144001999Y-160199542D01*
X144001999Y-160199542D02*
X143811523Y-160104304D01*
X143811523Y-160104304D02*
X143621046Y-160104304D01*
X142192475Y-161342400D02*
X142382951Y-161437638D01*
X142382951Y-161437638D02*
X142763904Y-161437638D01*
X142763904Y-161437638D02*
X142954380Y-161342400D01*
X142954380Y-161342400D02*
X143049618Y-161151923D01*
X143049618Y-161151923D02*
X143049618Y-160390019D01*
X143049618Y-160390019D02*
X142954380Y-160199542D01*
X142954380Y-160199542D02*
X142763904Y-160104304D01*
X142763904Y-160104304D02*
X142382951Y-160104304D01*
X142382951Y-160104304D02*
X142192475Y-160199542D01*
X142192475Y-160199542D02*
X142097237Y-160390019D01*
X142097237Y-160390019D02*
X142097237Y-160580495D01*
X142097237Y-160580495D02*
X143049618Y-160770971D01*
X141430570Y-160104304D02*
X141049618Y-161437638D01*
X141049618Y-161437638D02*
X140668665Y-160485257D01*
X140668665Y-160485257D02*
X140287713Y-161437638D01*
X140287713Y-161437638D02*
X139906761Y-160104304D01*
X136478189Y-161247161D02*
X136573427Y-161342400D01*
X136573427Y-161342400D02*
X136859141Y-161437638D01*
X136859141Y-161437638D02*
X137049617Y-161437638D01*
X137049617Y-161437638D02*
X137335332Y-161342400D01*
X137335332Y-161342400D02*
X137525808Y-161151923D01*
X137525808Y-161151923D02*
X137621046Y-160961447D01*
X137621046Y-160961447D02*
X137716284Y-160580495D01*
X137716284Y-160580495D02*
X137716284Y-160294780D01*
X137716284Y-160294780D02*
X137621046Y-159913828D01*
X137621046Y-159913828D02*
X137525808Y-159723352D01*
X137525808Y-159723352D02*
X137335332Y-159532876D01*
X137335332Y-159532876D02*
X137049617Y-159437638D01*
X137049617Y-159437638D02*
X136859141Y-159437638D01*
X136859141Y-159437638D02*
X136573427Y-159532876D01*
X136573427Y-159532876D02*
X136478189Y-159628114D01*
X135335332Y-161437638D02*
X135525808Y-161342400D01*
X135525808Y-161342400D02*
X135621046Y-161247161D01*
X135621046Y-161247161D02*
X135716284Y-161056685D01*
X135716284Y-161056685D02*
X135716284Y-160485257D01*
X135716284Y-160485257D02*
X135621046Y-160294780D01*
X135621046Y-160294780D02*
X135525808Y-160199542D01*
X135525808Y-160199542D02*
X135335332Y-160104304D01*
X135335332Y-160104304D02*
X135049617Y-160104304D01*
X135049617Y-160104304D02*
X134859141Y-160199542D01*
X134859141Y-160199542D02*
X134763903Y-160294780D01*
X134763903Y-160294780D02*
X134668665Y-160485257D01*
X134668665Y-160485257D02*
X134668665Y-161056685D01*
X134668665Y-161056685D02*
X134763903Y-161247161D01*
X134763903Y-161247161D02*
X134859141Y-161342400D01*
X134859141Y-161342400D02*
X135049617Y-161437638D01*
X135049617Y-161437638D02*
X135335332Y-161437638D01*
X133811522Y-161437638D02*
X133811522Y-160104304D01*
X133811522Y-160294780D02*
X133716284Y-160199542D01*
X133716284Y-160199542D02*
X133525808Y-160104304D01*
X133525808Y-160104304D02*
X133240093Y-160104304D01*
X133240093Y-160104304D02*
X133049617Y-160199542D01*
X133049617Y-160199542D02*
X132954379Y-160390019D01*
X132954379Y-160390019D02*
X132954379Y-161437638D01*
X132954379Y-160390019D02*
X132859141Y-160199542D01*
X132859141Y-160199542D02*
X132668665Y-160104304D01*
X132668665Y-160104304D02*
X132382951Y-160104304D01*
X132382951Y-160104304D02*
X132192474Y-160199542D01*
X132192474Y-160199542D02*
X132097236Y-160390019D01*
X132097236Y-160390019D02*
X132097236Y-161437638D01*
X131144855Y-160104304D02*
X131144855Y-162104304D01*
X131144855Y-160199542D02*
X130954379Y-160104304D01*
X130954379Y-160104304D02*
X130573426Y-160104304D01*
X130573426Y-160104304D02*
X130382950Y-160199542D01*
X130382950Y-160199542D02*
X130287712Y-160294780D01*
X130287712Y-160294780D02*
X130192474Y-160485257D01*
X130192474Y-160485257D02*
X130192474Y-161056685D01*
X130192474Y-161056685D02*
X130287712Y-161247161D01*
X130287712Y-161247161D02*
X130382950Y-161342400D01*
X130382950Y-161342400D02*
X130573426Y-161437638D01*
X130573426Y-161437638D02*
X130954379Y-161437638D01*
X130954379Y-161437638D02*
X131144855Y-161342400D01*
X128478188Y-160104304D02*
X128478188Y-161437638D01*
X129335331Y-160104304D02*
X129335331Y-161151923D01*
X129335331Y-161151923D02*
X129240093Y-161342400D01*
X129240093Y-161342400D02*
X129049617Y-161437638D01*
X129049617Y-161437638D02*
X128763902Y-161437638D01*
X128763902Y-161437638D02*
X128573426Y-161342400D01*
X128573426Y-161342400D02*
X128478188Y-161247161D01*
X127811521Y-160104304D02*
X127049617Y-160104304D01*
X127525807Y-159437638D02*
X127525807Y-161151923D01*
X127525807Y-161151923D02*
X127430569Y-161342400D01*
X127430569Y-161342400D02*
X127240093Y-161437638D01*
X127240093Y-161437638D02*
X127049617Y-161437638D01*
X125621045Y-161342400D02*
X125811521Y-161437638D01*
X125811521Y-161437638D02*
X126192474Y-161437638D01*
X126192474Y-161437638D02*
X126382950Y-161342400D01*
X126382950Y-161342400D02*
X126478188Y-161151923D01*
X126478188Y-161151923D02*
X126478188Y-160390019D01*
X126478188Y-160390019D02*
X126382950Y-160199542D01*
X126382950Y-160199542D02*
X126192474Y-160104304D01*
X126192474Y-160104304D02*
X125811521Y-160104304D01*
X125811521Y-160104304D02*
X125621045Y-160199542D01*
X125621045Y-160199542D02*
X125525807Y-160390019D01*
X125525807Y-160390019D02*
X125525807Y-160580495D01*
X125525807Y-160580495D02*
X126478188Y-160770971D01*
X124668664Y-161437638D02*
X124668664Y-160104304D01*
X124668664Y-160485257D02*
X124573426Y-160294780D01*
X124573426Y-160294780D02*
X124478188Y-160199542D01*
X124478188Y-160199542D02*
X124287712Y-160104304D01*
X124287712Y-160104304D02*
X124097235Y-160104304D01*
X198524571Y-59796900D02*
X197381714Y-59796900D01*
X197953142Y-60368328D02*
X197953142Y-59225471D01*
X195953142Y-58868328D02*
X196667428Y-58868328D01*
X196667428Y-58868328D02*
X196738856Y-59582614D01*
X196738856Y-59582614D02*
X196667428Y-59511185D01*
X196667428Y-59511185D02*
X196524571Y-59439757D01*
X196524571Y-59439757D02*
X196167428Y-59439757D01*
X196167428Y-59439757D02*
X196024571Y-59511185D01*
X196024571Y-59511185D02*
X195953142Y-59582614D01*
X195953142Y-59582614D02*
X195881713Y-59725471D01*
X195881713Y-59725471D02*
X195881713Y-60082614D01*
X195881713Y-60082614D02*
X195953142Y-60225471D01*
X195953142Y-60225471D02*
X196024571Y-60296900D01*
X196024571Y-60296900D02*
X196167428Y-60368328D01*
X196167428Y-60368328D02*
X196524571Y-60368328D01*
X196524571Y-60368328D02*
X196667428Y-60296900D01*
X196667428Y-60296900D02*
X196738856Y-60225471D01*
X195453142Y-58868328D02*
X194953142Y-60368328D01*
X194953142Y-60368328D02*
X194453142Y-58868328D01*
X79906571Y-59796900D02*
X78763714Y-59796900D01*
X79335142Y-60368328D02*
X79335142Y-59225471D01*
X77335142Y-58868328D02*
X78049428Y-58868328D01*
X78049428Y-58868328D02*
X78120856Y-59582614D01*
X78120856Y-59582614D02*
X78049428Y-59511185D01*
X78049428Y-59511185D02*
X77906571Y-59439757D01*
X77906571Y-59439757D02*
X77549428Y-59439757D01*
X77549428Y-59439757D02*
X77406571Y-59511185D01*
X77406571Y-59511185D02*
X77335142Y-59582614D01*
X77335142Y-59582614D02*
X77263713Y-59725471D01*
X77263713Y-59725471D02*
X77263713Y-60082614D01*
X77263713Y-60082614D02*
X77335142Y-60225471D01*
X77335142Y-60225471D02*
X77406571Y-60296900D01*
X77406571Y-60296900D02*
X77549428Y-60368328D01*
X77549428Y-60368328D02*
X77906571Y-60368328D01*
X77906571Y-60368328D02*
X78049428Y-60296900D01*
X78049428Y-60296900D02*
X78120856Y-60225471D01*
X76835142Y-58868328D02*
X76335142Y-60368328D01*
X76335142Y-60368328D02*
X75835142Y-58868328D01*
X81382856Y-157586900D02*
X80239999Y-157586900D01*
X80811427Y-158158328D02*
X80811427Y-157015471D01*
X78739998Y-158158328D02*
X79597141Y-158158328D01*
X79168570Y-158158328D02*
X79168570Y-156658328D01*
X79168570Y-156658328D02*
X79311427Y-156872614D01*
X79311427Y-156872614D02*
X79454284Y-157015471D01*
X79454284Y-157015471D02*
X79597141Y-157086900D01*
X78168570Y-156801185D02*
X78097142Y-156729757D01*
X78097142Y-156729757D02*
X77954285Y-156658328D01*
X77954285Y-156658328D02*
X77597142Y-156658328D01*
X77597142Y-156658328D02*
X77454285Y-156729757D01*
X77454285Y-156729757D02*
X77382856Y-156801185D01*
X77382856Y-156801185D02*
X77311427Y-156944042D01*
X77311427Y-156944042D02*
X77311427Y-157086900D01*
X77311427Y-157086900D02*
X77382856Y-157301185D01*
X77382856Y-157301185D02*
X78239999Y-158158328D01*
X78239999Y-158158328D02*
X77311427Y-158158328D01*
X76882856Y-156658328D02*
X76382856Y-158158328D01*
X76382856Y-158158328D02*
X75882856Y-156658328D01*
X197738856Y-64019757D02*
X197881714Y-63948328D01*
X197881714Y-63948328D02*
X198095999Y-63948328D01*
X198095999Y-63948328D02*
X198310285Y-64019757D01*
X198310285Y-64019757D02*
X198453142Y-64162614D01*
X198453142Y-64162614D02*
X198524571Y-64305471D01*
X198524571Y-64305471D02*
X198595999Y-64591185D01*
X198595999Y-64591185D02*
X198595999Y-64805471D01*
X198595999Y-64805471D02*
X198524571Y-65091185D01*
X198524571Y-65091185D02*
X198453142Y-65234042D01*
X198453142Y-65234042D02*
X198310285Y-65376900D01*
X198310285Y-65376900D02*
X198095999Y-65448328D01*
X198095999Y-65448328D02*
X197953142Y-65448328D01*
X197953142Y-65448328D02*
X197738856Y-65376900D01*
X197738856Y-65376900D02*
X197667428Y-65305471D01*
X197667428Y-65305471D02*
X197667428Y-64805471D01*
X197667428Y-64805471D02*
X197953142Y-64805471D01*
X197024571Y-65448328D02*
X197024571Y-63948328D01*
X197024571Y-63948328D02*
X196167428Y-65448328D01*
X196167428Y-65448328D02*
X196167428Y-63948328D01*
X195453142Y-65448328D02*
X195453142Y-63948328D01*
X195453142Y-63948328D02*
X195095999Y-63948328D01*
X195095999Y-63948328D02*
X194881713Y-64019757D01*
X194881713Y-64019757D02*
X194738856Y-64162614D01*
X194738856Y-64162614D02*
X194667427Y-64305471D01*
X194667427Y-64305471D02*
X194595999Y-64591185D01*
X194595999Y-64591185D02*
X194595999Y-64805471D01*
X194595999Y-64805471D02*
X194667427Y-65091185D01*
X194667427Y-65091185D02*
X194738856Y-65234042D01*
X194738856Y-65234042D02*
X194881713Y-65376900D01*
X194881713Y-65376900D02*
X195095999Y-65448328D01*
X195095999Y-65448328D02*
X195453142Y-65448328D01*
X198730856Y-162666900D02*
X197587999Y-162666900D01*
X196087998Y-163238328D02*
X196945141Y-163238328D01*
X196516570Y-163238328D02*
X196516570Y-161738328D01*
X196516570Y-161738328D02*
X196659427Y-161952614D01*
X196659427Y-161952614D02*
X196802284Y-162095471D01*
X196802284Y-162095471D02*
X196945141Y-162166900D01*
X195516570Y-161881185D02*
X195445142Y-161809757D01*
X195445142Y-161809757D02*
X195302285Y-161738328D01*
X195302285Y-161738328D02*
X194945142Y-161738328D01*
X194945142Y-161738328D02*
X194802285Y-161809757D01*
X194802285Y-161809757D02*
X194730856Y-161881185D01*
X194730856Y-161881185D02*
X194659427Y-162024042D01*
X194659427Y-162024042D02*
X194659427Y-162166900D01*
X194659427Y-162166900D02*
X194730856Y-162381185D01*
X194730856Y-162381185D02*
X195587999Y-163238328D01*
X195587999Y-163238328D02*
X194659427Y-163238328D01*
X194230856Y-161738328D02*
X193730856Y-163238328D01*
X193730856Y-163238328D02*
X193230856Y-161738328D01*
D11*
X52489523Y-65214819D02*
X52489523Y-65929104D01*
X52489523Y-65929104D02*
X52537142Y-66071961D01*
X52537142Y-66071961D02*
X52632380Y-66167200D01*
X52632380Y-66167200D02*
X52775237Y-66214819D01*
X52775237Y-66214819D02*
X52870475Y-66214819D01*
X51489523Y-66214819D02*
X52060951Y-66214819D01*
X51775237Y-66214819D02*
X51775237Y-65214819D01*
X51775237Y-65214819D02*
X51870475Y-65357676D01*
X51870475Y-65357676D02*
X51965713Y-65452914D01*
X51965713Y-65452914D02*
X52060951Y-65500533D01*
X51156189Y-65214819D02*
X50489523Y-65214819D01*
X50489523Y-65214819D02*
X50918094Y-66214819D01*
X223679523Y-65154819D02*
X223679523Y-65869104D01*
X223679523Y-65869104D02*
X223727142Y-66011961D01*
X223727142Y-66011961D02*
X223822380Y-66107200D01*
X223822380Y-66107200D02*
X223965237Y-66154819D01*
X223965237Y-66154819D02*
X224060475Y-66154819D01*
X222679523Y-66154819D02*
X223250951Y-66154819D01*
X222965237Y-66154819D02*
X222965237Y-65154819D01*
X222965237Y-65154819D02*
X223060475Y-65297676D01*
X223060475Y-65297676D02*
X223155713Y-65392914D01*
X223155713Y-65392914D02*
X223250951Y-65440533D01*
X221822380Y-65154819D02*
X222012856Y-65154819D01*
X222012856Y-65154819D02*
X222108094Y-65202438D01*
X222108094Y-65202438D02*
X222155713Y-65250057D01*
X222155713Y-65250057D02*
X222250951Y-65392914D01*
X222250951Y-65392914D02*
X222298570Y-65583390D01*
X222298570Y-65583390D02*
X222298570Y-65964342D01*
X222298570Y-65964342D02*
X222250951Y-66059580D01*
X222250951Y-66059580D02*
X222203332Y-66107200D01*
X222203332Y-66107200D02*
X222108094Y-66154819D01*
X222108094Y-66154819D02*
X221917618Y-66154819D01*
X221917618Y-66154819D02*
X221822380Y-66107200D01*
X221822380Y-66107200D02*
X221774761Y-66059580D01*
X221774761Y-66059580D02*
X221727142Y-65964342D01*
X221727142Y-65964342D02*
X221727142Y-65726247D01*
X221727142Y-65726247D02*
X221774761Y-65631009D01*
X221774761Y-65631009D02*
X221822380Y-65583390D01*
X221822380Y-65583390D02*
X221917618Y-65535771D01*
X221917618Y-65535771D02*
X222108094Y-65535771D01*
X222108094Y-65535771D02*
X222203332Y-65583390D01*
X222203332Y-65583390D02*
X222250951Y-65631009D01*
X222250951Y-65631009D02*
X222298570Y-65726247D01*
D12*
%TO.C,J17*%
X57630000Y-72360000D02*
X56630000Y-71860000D01*
X57630000Y-71360000D02*
X57630000Y-72360000D01*
X56630000Y-71860000D02*
X57630000Y-71360000D01*
X56240000Y-155810000D02*
X56240000Y-66650000D01*
X56240000Y-109180000D02*
X54930000Y-109180000D01*
X56240000Y-66650000D02*
X47120000Y-66650000D01*
X54930000Y-154510000D02*
X54930000Y-113280000D01*
X54930000Y-113280000D02*
X56240000Y-113280000D01*
X54930000Y-113280000D02*
X54930000Y-113280000D01*
X54930000Y-109180000D02*
X54930000Y-67950000D01*
X54930000Y-67950000D02*
X48430000Y-67950000D01*
X48430000Y-154510000D02*
X54930000Y-154510000D01*
X48430000Y-67950000D02*
X48430000Y-154510000D01*
X47120000Y-155810000D02*
X56240000Y-155810000D01*
X47120000Y-66650000D02*
X47120000Y-155810000D01*
%TO.C,J16*%
X228820000Y-72300000D02*
X227820000Y-71800000D01*
X228820000Y-71300000D02*
X228820000Y-72300000D01*
X227820000Y-71800000D02*
X228820000Y-71300000D01*
X227430000Y-155750000D02*
X227430000Y-66590000D01*
X227430000Y-109120000D02*
X226120000Y-109120000D01*
X227430000Y-66590000D02*
X218310000Y-66590000D01*
X226120000Y-154450000D02*
X226120000Y-113220000D01*
X226120000Y-113220000D02*
X227430000Y-113220000D01*
X226120000Y-113220000D02*
X226120000Y-113220000D01*
X226120000Y-109120000D02*
X226120000Y-67890000D01*
X226120000Y-67890000D02*
X219620000Y-67890000D01*
X219620000Y-154450000D02*
X226120000Y-154450000D01*
X219620000Y-67890000D02*
X219620000Y-154450000D01*
X218310000Y-155750000D02*
X227430000Y-155750000D01*
X218310000Y-66590000D02*
X218310000Y-155750000D01*
%TD*%
M02*
