M48
; DRILL file {KiCad (6.0.4)} date Tue Sep 27 18:30:28 2022
; FORMAT={-:-/ absolute / inch / decimal}
; #@! TF.CreationDate,2022-09-27T18:30:28+02:00
; #@! TF.GenerationSoftware,Kicad,Pcbnew,(6.0.4)
; #@! TF.FileFunction,Plated,1,2,PTH
FMAT,2
INCH
; #@! TA.AperFunction,Plated,PTH,ViaDrill
T1C0.0118
; #@! TA.AperFunction,Plated,PTH,ViaDrill
T2C0.0157
; #@! TA.AperFunction,Plated,PTH,ComponentDrill
T3C0.0276
; #@! TA.AperFunction,Plated,PTH,ComponentDrill
T4C0.0295
; #@! TA.AperFunction,Plated,PTH,ComponentDrill
T5C0.0300
; #@! TA.AperFunction,Plated,PTH,ComponentDrill
T6C0.0315
; #@! TA.AperFunction,Plated,PTH,ComponentDrill
T7C0.0394
; #@! TA.AperFunction,Plated,PTH,ComponentDrill
T8C0.0728
; #@! TA.AperFunction,Plated,PTH,ComponentDrill
T9C0.1260
%
G90
G05
T1
X2.88Y-3.84
X2.9Y-3.48
X2.9Y-3.5352
X2.9Y-3.66
X2.9Y-3.8
X2.9Y-4.26
X2.9008Y-4.16
X2.92Y-3.36
X2.9216Y-4.04
X2.94Y-3.26
X2.9424Y-3.94
X2.96Y-3.16
X2.96Y-3.98
X2.98Y-4.08
X3.0Y-4.18
X3.02Y-4.28
X3.38Y-5.18
X3.6784Y-4.84
X3.72Y-2.4
X3.72Y-4.7
X3.72Y-4.94
X3.726Y-4.26
X3.74Y-2.52
X3.76Y-4.92
X3.7773Y-4.16
X4.1086Y-3.38
X4.1294Y-3.2218
X4.1502Y-3.141
X4.171Y-2.5
X4.171Y-2.92
X4.171Y-3.02
X4.32Y-1.94
X4.38Y-2.06
X4.38Y-2.16
X4.38Y-2.28
X4.38Y-2.42
X4.38Y-2.52
X4.38Y-2.62
X4.38Y-2.72
X4.38Y-2.82
X4.38Y-2.92
X4.38Y-3.02
X4.44Y-2.32
X4.44Y-2.56
X4.52Y-2.22
X4.52Y-2.42
X4.52Y-4.16
X4.58Y-4.06
X4.5946Y-2.2576
X4.5946Y-2.92
X4.6Y-3.96
X4.6154Y-2.18
X4.6154Y-3.02
X4.62Y-3.9
X4.6363Y-2.1208
X4.6368Y-3.1
X4.6576Y-2.1
X4.6576Y-3.2
X4.6784Y-1.98
X4.6992Y-1.8615
X4.72Y-1.821
X4.7384Y-2.9784
X4.74Y-3.32
X4.7416Y-2.8784
X4.76Y-1.82
X4.7765Y-2.7765
X4.92Y-1.9202
X4.9408Y-2.34
X4.96Y-2.24
X4.96Y-2.66
X4.96Y-2.84
X4.96Y-2.96
X4.96Y-3.06
X4.96Y-3.16
X4.9607Y-2.5407
X5.0242Y-2.0758
X5.0616Y-2.3784
X5.08Y-2.28
X5.08Y-2.48
X5.54Y-1.8344
X5.5409Y-2.3362
X5.5589Y-2.8607
X5.56Y-3.18
X5.72Y-2.58
X5.72Y-2.9
X5.734Y-2.02
X5.734Y-2.68
X5.7891Y-1.821
X5.7999Y-3.0362
X5.8Y-2.3607
X5.8208Y-2.58
X5.8208Y-2.8
X5.8208Y-2.9607
X5.8282Y-2.4918
X5.8416Y-2.4
X5.86Y-2.4644
X5.86Y-2.6381
X6.0409Y-1.9
X6.0409Y-2.18
X6.0409Y-2.48
X6.0409Y-3.1
X6.06Y-3.1652
X6.0617Y-1.9794
X6.0617Y-2.1
X6.0617Y-2.9
X6.0617Y-2.521
X6.08Y-2.96
X6.0825Y-2.7
X6.14Y-2.2
X6.14Y-2.7589
X6.1504Y-2.84
X6.18Y-2.7392
X6.18Y-2.84
X6.2Y-3.48
X6.272Y-2.753
X6.28Y-2.688
X6.36Y-1.7362
X6.42Y-2.58
X6.44Y-2.5
X6.4496Y-2.58
X6.4704Y-2.94
X6.4704Y-3.02
X6.48Y-2.4
X6.7201Y-2.72
X6.74Y-2.6
X6.86Y-2.3
X6.86Y-3.42
X6.98Y-1.74
X6.98Y-5.36
X7.02Y-2.5
X7.04Y-2.68
X7.04Y-3.18
X7.0608Y-2.92
X7.0608Y-3.02
X7.0609Y-3.2009
X7.0651Y-2.8243
X7.0651Y-2.63
X7.08Y-2.02
X7.08Y-2.4
X7.08Y-2.48
X7.0813Y-2.9414
X7.0816Y-3.08
X7.1Y-2.3
X7.14Y-2.12
X7.14Y-2.2
X7.16Y-3.2
X7.1851Y-3.2357
X7.22Y-3.3
X7.22Y-3.4
X7.2491Y-1.978
X7.26Y-3.48
X7.28Y-3.6
X7.28Y-3.72
X7.28Y-3.84
X7.3Y-3.9
X7.3216Y-2.08
X7.34Y-4.02
X7.3408Y-2.14
X7.3608Y-2.26
T2
X1.62Y-2.26
X2.06Y-5.06
X2.1255Y-4.6445
X2.3Y-2.7
X2.3416Y-2.0816
X2.3416Y-4.5416
X2.3731Y-2.64
X2.38Y-2.2
X2.38Y-2.3
X2.38Y-2.44
X2.44Y-3.6
X2.44Y-4.5
X2.46Y-4.76
X2.5Y-2.78
X2.54Y-1.663
X2.6Y-5.16
X2.62Y-4.1
X2.72Y-4.28
X2.98Y-2.8
X3.0331Y-2.4
X3.04Y-2.78
X3.0734Y-2.66
X3.08Y-2.5
X3.08Y-3.22
X3.1Y-3.18
X3.1028Y-3.46
X3.1294Y-3.12
X3.16Y-3.26
X3.1787Y-3.78
X3.1787Y-4.56
X3.18Y-2.5
X3.2054Y-4.96
X3.24Y-5.377
X3.2683Y-3.78
X3.3734Y-3.48
X3.4066Y-5.06
X3.42Y-2.18
X3.4466Y-4.3
X3.4466Y-4.84
X3.48Y-4.64
X3.5Y-3.12
X3.7734Y-3.76
X3.7734Y-4.44
X3.8Y-5.04
X3.84Y-3.8734
X3.84Y-5.36
X4.02Y-3.4
X4.3Y-4.56
X4.34Y-4.06
X4.34Y-4.14
X4.38Y-2.02
X4.52Y-4.22
X4.56Y-2.44
X4.86Y-1.68
X4.923Y-3.789
X4.9637Y-2.4422
X4.9873Y-2.8071
X5.0014Y-3.3466
X5.04Y-4.22
X5.0534Y-5.06
X5.06Y-4.34
X5.08Y-4.8
X5.14Y-3.28
X5.28Y-5.16
X5.2931Y-3.52
X5.3Y-1.9
X5.32Y-2.42
X5.32Y-3.68
X5.3334Y-4.3
X5.34Y-4.84
X5.36Y-3.9
X5.364Y-3.823
X5.3688Y-3.6912
X5.38Y-3.18
X5.38Y-3.7312
X5.5Y-5.36
X5.5134Y-4.3734
X5.5448Y-2.6323
X5.58Y-3.68
X5.72Y-4.84
X5.7616Y-2.5184
X5.8Y-3.24
X5.8039Y-4.6641
X5.838Y-4.919
X5.868Y-4.176
X5.8795Y-3.9
X5.88Y-5.36
X5.963Y-1.675
X6.0134Y-2.8334
X6.04Y-3.6686
X6.0448Y-3.7159
X6.0448Y-4.2
X6.049Y-4.8091
X6.049Y-4.971
X6.08Y-5.28
X6.26Y-3.94
X6.32Y-4.26
X6.34Y-4.12
X6.4Y-3.8
X6.4206Y-3.6
X6.52Y-5.377
X6.5515Y-4.857
X6.57Y-5.151
X6.6926Y-2.6474
X6.7Y-2.9
X6.7784Y-3.7426
X6.923Y-3.7642
X6.984Y-4.076
X7.04Y-3.82
X7.1Y-4.2
X7.12Y-3.84
X7.12Y-4.16
X7.2Y-3.6
X7.24Y-3.68
X7.28Y-4.1
X7.3Y-4.06
X7.364Y-4.596
X7.403Y-2.347
T3
X1.67Y-4.88
X1.77Y-4.88
X1.812Y-4.16
X1.85Y-4.88
X1.87Y-5.36
X1.912Y-4.16
X1.95Y-4.88
X1.97Y-5.36
X2.12Y-4.952
X2.12Y-5.052
X2.12Y-5.128
X2.12Y-5.228
X2.125Y-4.098
X2.125Y-4.198
X2.632Y-4.0
X2.732Y-4.0
X3.102Y-2.2
X3.202Y-2.2
X6.152Y-3.3
X6.252Y-3.3
X6.638Y-4.453
X6.688Y-4.699
X6.738Y-4.453
X6.788Y-4.699
X6.833Y-4.453
X6.933Y-4.453
X7.048Y-3.3
X7.048Y-3.4
X7.148Y-3.3
X7.148Y-3.4
T4
X2.675Y-4.1392
X2.675Y-4.4142
X2.725Y-4.1392
X2.725Y-4.4142
X2.775Y-4.1392
X2.775Y-4.4142
T5
X1.77Y-4.97
X1.77Y-5.07
X1.77Y-5.17
X1.77Y-5.27
X1.87Y-4.97
X1.87Y-5.07
X1.87Y-5.17
X1.87Y-5.27
T6
X1.548Y-3.3246
X1.548Y-3.4246
X1.548Y-3.5246
X1.548Y-3.6246
X1.548Y-3.7246
X1.548Y-3.8246
X1.548Y-3.9246
X1.548Y-4.0246
X1.8216Y-4.24
X1.848Y-3.3246
X1.848Y-3.4246
X1.848Y-3.5246
X1.848Y-3.6246
X1.848Y-3.7246
X1.848Y-3.8246
X1.848Y-3.9246
X1.848Y-4.0246
X1.975Y-3.225
X1.975Y-3.325
X1.975Y-3.425
X1.975Y-3.525
X1.975Y-3.625
X1.975Y-3.725
X1.975Y-3.825
X1.975Y-3.925
X1.975Y-4.025
X2.0Y-5.0216
X2.0Y-5.2184
X2.0184Y-4.24
X2.2254Y-1.9996
X2.2254Y-2.0996
X2.2254Y-2.1996
X2.2254Y-2.2996
X2.2254Y-2.3996
X2.2254Y-2.4996
X2.2254Y-2.5996
X2.2254Y-2.6996
X2.2254Y-2.9502
X2.2254Y-3.0502
X2.2254Y-3.1502
X2.2254Y-3.2502
X2.2254Y-3.3502
X2.2254Y-3.4502
X2.2254Y-3.5502
X2.2254Y-3.6502
X2.2254Y-3.7502
X2.2254Y-3.8502
X2.2254Y-4.0998
X2.2254Y-4.1998
X2.2254Y-4.2998
X2.2254Y-4.3998
X2.2254Y-4.4998
X2.2254Y-4.5998
X2.2254Y-4.6998
X2.2254Y-4.9504
X2.2254Y-5.0504
X2.2254Y-5.1504
X2.2254Y-5.2504
X2.3416Y-1.9
X2.3416Y-2.84
X2.3416Y-4.0
X2.5254Y-1.9996
X2.5254Y-2.0996
X2.5254Y-2.1996
X2.5254Y-2.2996
X2.5254Y-2.3996
X2.5254Y-2.4996
X2.5254Y-2.5996
X2.5254Y-2.6996
X2.5254Y-2.9502
X2.5254Y-3.0502
X2.5254Y-3.1502
X2.5254Y-3.2502
X2.5254Y-3.3502
X2.5254Y-3.4502
X2.5254Y-3.5502
X2.5254Y-3.6502
X2.5254Y-3.7502
X2.5254Y-3.8502
X2.5254Y-4.0998
X2.5254Y-4.1998
X2.5254Y-4.2998
X2.5254Y-4.3998
X2.5254Y-4.4998
X2.5254Y-4.5998
X2.5254Y-4.6998
X2.5254Y-4.9504
X2.5254Y-5.0504
X2.5254Y-5.1504
X2.5254Y-5.2504
X2.5384Y-1.9
X2.5384Y-2.84
X2.5384Y-4.0
X2.72Y-1.7734
X2.72Y-1.8719
X2.72Y-2.0534
X2.72Y-2.1519
X2.72Y-2.3334
X2.72Y-2.4319
X2.72Y-2.6134
X2.72Y-2.7119
X3.0016Y-2.6
X3.1984Y-2.6
X3.2998Y-1.8002
X3.2998Y-1.9002
X3.2998Y-2.0002
X3.2998Y-2.1002
X3.2998Y-2.2002
X3.2998Y-2.3002
X3.2998Y-2.4002
X3.2998Y-2.5002
X3.2998Y-2.6002
X3.2998Y-2.7002
X3.2998Y-2.8002
X3.2998Y-2.9002
X3.2998Y-3.0002
X3.2998Y-3.1002
X3.2998Y-3.2002
X3.2998Y-3.3002
X3.2998Y-3.4002
X3.2998Y-3.5002
X3.2998Y-3.6002
X3.2998Y-3.7002
X3.2998Y-3.9494
X3.2998Y-4.0494
X3.2998Y-4.1494
X3.2998Y-4.2494
X3.2998Y-4.3494
X3.2998Y-4.4494
X3.2998Y-4.5494
X3.2998Y-4.6494
X3.2998Y-4.7494
X3.2998Y-4.8494
X3.2998Y-4.9494
X3.2998Y-5.0494
X3.2998Y-5.1494
X3.2998Y-5.2494
X3.8998Y-1.8002
X3.8998Y-1.9002
X3.8998Y-2.0002
X3.8998Y-2.1002
X3.8998Y-2.2002
X3.8998Y-2.3002
X3.8998Y-2.4002
X3.8998Y-2.5002
X3.8998Y-2.6002
X3.8998Y-2.7002
X3.8998Y-2.8002
X3.8998Y-2.9002
X3.8998Y-3.0002
X3.8998Y-3.1002
X3.8998Y-3.2002
X3.8998Y-3.3002
X3.8998Y-3.4002
X3.8998Y-3.5002
X3.8998Y-3.6002
X3.8998Y-3.7002
X3.8998Y-3.9494
X3.8998Y-4.0494
X3.8998Y-4.1494
X3.8998Y-4.2494
X3.8998Y-4.3494
X3.8998Y-4.4494
X3.8998Y-4.5494
X3.8998Y-4.6494
X3.8998Y-4.7494
X3.8998Y-4.8494
X3.8998Y-4.9494
X3.8998Y-5.0494
X3.8998Y-5.1494
X3.8998Y-5.2494
X4.0016Y-4.34
X4.1984Y-4.34
X4.525Y-4.3
X4.525Y-4.9
X4.825Y-4.3
X4.825Y-4.9
X5.04Y-1.8016
X5.04Y-1.9984
X5.1504Y-1.7994
X5.1504Y-1.8994
X5.1504Y-1.9994
X5.1504Y-2.0994
X5.1504Y-2.1994
X5.1504Y-2.2994
X5.1504Y-2.3994
X5.1504Y-2.4994
X5.1504Y-2.5994
X5.1504Y-2.6994
X5.1504Y-2.7994
X5.1504Y-2.8994
X5.1504Y-2.9994
X5.1504Y-3.0994
X5.1504Y-3.4002
X5.1504Y-3.5002
X5.1504Y-3.6002
X5.1504Y-3.7002
X5.1504Y-3.8002
X5.1504Y-3.9002
X5.1504Y-4.0002
X5.1504Y-4.1002
X5.1504Y-4.2002
X5.1504Y-4.3002
X5.1504Y-4.6248
X5.1504Y-4.7248
X5.1504Y-4.8248
X5.1504Y-4.9248
X5.1504Y-5.0248
X5.1504Y-5.1248
X5.1504Y-5.2248
X5.2616Y-1.7
X5.2616Y-3.3
X5.2616Y-4.52
X5.4504Y-1.7994
X5.4504Y-1.8994
X5.4504Y-1.9994
X5.4504Y-2.0994
X5.4504Y-2.1994
X5.4504Y-2.2994
X5.4504Y-2.3994
X5.4504Y-2.4994
X5.4504Y-2.5994
X5.4504Y-2.6994
X5.4504Y-2.7994
X5.4504Y-2.8994
X5.4504Y-2.9994
X5.4504Y-3.0994
X5.4504Y-3.4002
X5.4504Y-3.5002
X5.4504Y-3.6002
X5.4504Y-3.7002
X5.4504Y-3.8002
X5.4504Y-3.9002
X5.4504Y-4.0002
X5.4504Y-4.1002
X5.4504Y-4.2002
X5.4504Y-4.3002
X5.4504Y-4.6248
X5.4504Y-4.7248
X5.4504Y-4.8248
X5.4504Y-4.9248
X5.4504Y-5.0248
X5.4504Y-5.1248
X5.4504Y-5.2248
X5.4584Y-1.7
X5.4584Y-3.3
X5.4584Y-4.52
X5.6504Y-1.7994
X5.6504Y-1.8994
X5.6504Y-1.9994
X5.6504Y-2.0994
X5.6504Y-2.1994
X5.6504Y-2.2994
X5.6504Y-2.3994
X5.6504Y-2.4994
X5.6504Y-2.5994
X5.6504Y-2.6994
X5.6504Y-2.7994
X5.6504Y-2.8994
X5.6504Y-2.9994
X5.6504Y-3.0994
X5.6504Y-3.3996
X5.6504Y-3.4996
X5.6504Y-3.5996
X5.6504Y-3.6996
X5.6504Y-3.7996
X5.6504Y-3.8996
X5.6504Y-3.9996
X5.6504Y-4.0996
X5.6504Y-4.6248
X5.6504Y-4.7248
X5.6504Y-4.8248
X5.6504Y-4.9248
X5.6504Y-5.0248
X5.6504Y-5.1248
X5.6504Y-5.2248
X5.7616Y-3.3
X5.7616Y-4.52
X5.9504Y-1.7994
X5.9504Y-1.8994
X5.9504Y-1.9994
X5.9504Y-2.0994
X5.9504Y-2.1994
X5.9504Y-2.2994
X5.9504Y-2.3994
X5.9504Y-2.4994
X5.9504Y-2.5994
X5.9504Y-2.6994
X5.9504Y-2.7994
X5.9504Y-2.8994
X5.9504Y-2.9994
X5.9504Y-3.0994
X5.9504Y-3.3996
X5.9504Y-3.4996
X5.9504Y-3.5996
X5.9504Y-3.6996
X5.9504Y-3.7996
X5.9504Y-3.8996
X5.9504Y-3.9996
X5.9504Y-4.0996
X5.9504Y-4.6248
X5.9504Y-4.7248
X5.9504Y-4.8248
X5.9504Y-4.9248
X5.9504Y-5.0248
X5.9504Y-5.1248
X5.9504Y-5.2248
X5.9584Y-3.3
X5.9584Y-4.52
X6.1504Y-4.6248
X6.1504Y-4.7248
X6.1504Y-4.8248
X6.1504Y-4.9248
X6.1504Y-5.0248
X6.1504Y-5.1248
X6.1504Y-5.2248
X6.24Y-2.6016
X6.24Y-2.7984
X6.2616Y-4.52
X6.3498Y-1.8002
X6.3498Y-1.9002
X6.3498Y-2.0002
X6.3498Y-2.1002
X6.3498Y-2.2002
X6.3498Y-2.3002
X6.3498Y-2.4002
X6.3498Y-2.5002
X6.3498Y-2.6002
X6.3498Y-2.7002
X6.3498Y-2.8002
X6.3498Y-2.9002
X6.3498Y-3.0002
X6.3498Y-3.1002
X6.3498Y-3.2002
X6.3498Y-3.3002
X6.3498Y-3.4002
X6.3498Y-3.5002
X6.3498Y-3.6002
X6.3498Y-3.7002
X6.4Y-3.9
X6.4Y-4.2
X6.4504Y-4.6248
X6.4504Y-4.7248
X6.4504Y-4.8248
X6.4504Y-4.9248
X6.4504Y-5.0248
X6.4504Y-5.1248
X6.4504Y-5.2248
X6.4584Y-4.52
X6.9498Y-1.8002
X6.9498Y-1.9002
X6.9498Y-2.0002
X6.9498Y-2.1002
X6.9498Y-2.2002
X6.9498Y-2.3002
X6.9498Y-2.4002
X6.9498Y-2.5002
X6.9498Y-2.6002
X6.9498Y-2.7002
X6.9498Y-2.8002
X6.9498Y-2.9002
X6.9498Y-3.0002
X6.9498Y-3.1002
X6.9498Y-3.2002
X6.9498Y-3.3002
X6.9498Y-3.4002
X6.9498Y-3.5002
X6.9498Y-3.6002
X6.9498Y-3.7002
X7.0Y-3.9
X7.0Y-4.2
X7.2546Y-1.825
X7.353Y-1.825
T7
X1.899Y-2.3118
X1.899Y-2.4209
X1.899Y-2.5299
X1.899Y-2.639
X2.0108Y-2.2573
X2.0108Y-2.3663
X2.0108Y-2.4754
X2.0108Y-2.5844
X2.0108Y-2.6935
X4.024Y-2.774
X4.024Y-2.874
X4.024Y-2.974
X4.024Y-3.074
X4.024Y-3.174
X4.024Y-3.274
X4.0498Y-4.4504
X4.0498Y-4.5504
X4.0498Y-4.6504
X4.0498Y-4.7504
X4.1498Y-4.4504
X4.1498Y-4.5504
X4.1498Y-4.6504
X4.1498Y-4.7504
X4.2536Y-2.0157
X4.2536Y-2.1157
X4.2536Y-2.2157
X4.2536Y-2.3157
X4.2536Y-2.4157
X4.2536Y-2.5157
X4.2536Y-2.6157
X4.2536Y-2.7157
X4.2536Y-2.8157
X4.2536Y-2.9157
X4.2536Y-3.0157
X4.2536Y-3.1157
X4.2536Y-3.2157
X4.2536Y-3.3157
X4.7206Y-3.69
X4.8206Y-3.69
X4.8536Y-2.0157
X4.8536Y-2.1157
X4.8536Y-2.2157
X4.8536Y-2.3157
X4.8536Y-2.4157
X4.8536Y-2.5157
X4.8536Y-2.6157
X4.8536Y-2.7157
X4.8536Y-2.8157
X4.8536Y-2.9157
X4.8536Y-3.0157
X4.8536Y-3.1157
X4.8536Y-3.2157
X4.8536Y-3.3157
X4.9206Y-3.69
X7.4898Y-1.975
X7.4898Y-2.075
X7.4898Y-2.175
X7.4898Y-2.275
X7.4898Y-2.375
X7.4898Y-2.475
X7.4898Y-2.575
X7.4898Y-2.675
X7.4898Y-2.775
X7.4898Y-2.875
X7.4898Y-2.975
X7.4898Y-3.075
X7.4898Y-3.175
X7.4898Y-3.275
X7.4898Y-3.375
X7.4898Y-3.475
X7.4898Y-3.575
X7.4898Y-3.675
X7.4898Y-3.775
X7.4898Y-3.875
X7.4898Y-3.975
X7.4898Y-4.075
X7.4898Y-4.175
X7.4898Y-4.275
X7.4898Y-4.375
X7.4898Y-4.475
X7.4898Y-4.575
X7.4898Y-4.675
X7.4898Y-4.775
X7.4898Y-4.875
X7.4898Y-4.975
X7.4898Y-5.075
X7.5898Y-1.975
X7.5898Y-2.075
X7.5898Y-2.175
X7.5898Y-2.275
X7.5898Y-2.375
X7.5898Y-2.475
X7.5898Y-2.575
X7.5898Y-2.675
X7.5898Y-2.775
X7.5898Y-2.875
X7.5898Y-2.975
X7.5898Y-3.075
X7.5898Y-3.175
X7.5898Y-3.275
X7.5898Y-3.375
X7.5898Y-3.475
X7.5898Y-3.575
X7.5898Y-3.675
X7.5898Y-3.775
X7.5898Y-3.875
X7.5898Y-3.975
X7.5898Y-4.075
X7.5898Y-4.175
X7.5898Y-4.275
X7.5898Y-4.375
X7.5898Y-4.475
X7.5898Y-4.575
X7.5898Y-4.675
X7.5898Y-4.775
X7.5898Y-4.875
X7.5898Y-4.975
X7.5898Y-5.075
T8
X1.5754Y-4.45
X1.5754Y-4.65
X2.0754Y-4.365
X2.0754Y-4.55
X2.0754Y-4.735
T9
X1.9549Y-1.9833
X1.9549Y-2.9675
T7
G00X6.8192Y-4.9519
M15
G01X6.7208Y-4.9519
M16
G05
G00X6.8192Y-5.1881
M15
G01X6.7208Y-5.1881
M16
G05
G00X6.955Y-5.1192
M15
G01X6.955Y-5.0208
M16
G05
T0
M30
