%TF.GenerationSoftware,KiCad,Pcbnew,(6.0.4)*%
%TF.CreationDate,2022-09-27T18:30:23+02:00*%
%TF.ProjectId,Z80,5a38302e-6b69-4636-9164-5f7063625858,rev?*%
%TF.SameCoordinates,Original*%
%TF.FileFunction,Soldermask,Bot*%
%TF.FilePolarity,Negative*%
%FSLAX46Y46*%
G04 Gerber Fmt 4.6, Leading zero omitted, Abs format (unit mm)*
G04 Created by KiCad (PCBNEW (6.0.4)) date 2022-09-27 18:30:23*
%MOMM*%
%LPD*%
G01*
G04 APERTURE LIST*
G04 Aperture macros list*
%AMRoundRect*
0 Rectangle with rounded corners*
0 $1 Rounding radius*
0 $2 $3 $4 $5 $6 $7 $8 $9 X,Y pos of 4 corners*
0 Add a 4 corners polygon primitive as box body*
4,1,4,$2,$3,$4,$5,$6,$7,$8,$9,$2,$3,0*
0 Add four circle primitives for the rounded corners*
1,1,$1+$1,$2,$3*
1,1,$1+$1,$4,$5*
1,1,$1+$1,$6,$7*
1,1,$1+$1,$8,$9*
0 Add four rect primitives between the rounded corners*
20,1,$1+$1,$2,$3,$4,$5,0*
20,1,$1+$1,$4,$5,$6,$7,0*
20,1,$1+$1,$6,$7,$8,$9,0*
20,1,$1+$1,$8,$9,$2,$3,0*%
G04 Aperture macros list end*
%ADD10C,1.400000*%
%ADD11O,1.400000X1.400000*%
%ADD12C,1.600000*%
%ADD13R,1.600000X1.600000*%
%ADD14R,2.400000X1.600000*%
%ADD15O,2.400000X1.600000*%
%ADD16R,1.700000X1.700000*%
%ADD17O,1.700000X1.700000*%
%ADD18C,2.850000*%
%ADD19RoundRect,0.249999X-0.525001X0.525001X-0.525001X-0.525001X0.525001X-0.525001X0.525001X0.525001X0*%
%ADD20C,1.550000*%
%ADD21O,1.600000X1.600000*%
%ADD22C,4.000000*%
%ADD23R,1.050000X1.500000*%
%ADD24O,1.050000X1.500000*%
%ADD25R,2.000000X1.440000*%
%ADD26O,2.000000X1.440000*%
%ADD27C,1.524000*%
%ADD28R,4.500000X2.000000*%
%ADD29R,2.000000X4.500000*%
%ADD30R,2.850000X2.850000*%
G04 APERTURE END LIST*
D10*
%TO.C,R15*%
X169875200Y-119354600D03*
D11*
X172415200Y-119354600D03*
%TD*%
D10*
%TO.C,R14*%
X176099000Y-113106200D03*
D11*
X173559000Y-113106200D03*
%TD*%
D10*
%TO.C,R13*%
X171145200Y-113106200D03*
D11*
X168605200Y-113106200D03*
%TD*%
D12*
%TO.C,C10*%
X64476000Y-101600000D03*
X59476000Y-101600000D03*
%TD*%
D13*
%TO.C,C1*%
X69088000Y-52157621D03*
D12*
X69088000Y-54657621D03*
%TD*%
D10*
%TO.C,R3*%
X181560000Y-83820000D03*
D11*
X179020000Y-83820000D03*
%TD*%
D13*
%TO.C,C4*%
X69088000Y-45045621D03*
D12*
X69088000Y-47545621D03*
%TD*%
D14*
%TO.C,U5*%
X143520000Y-86350000D03*
D15*
X143520000Y-88890000D03*
X143520000Y-91430000D03*
X143520000Y-93970000D03*
X143520000Y-96510000D03*
X143520000Y-99050000D03*
X143520000Y-101590000D03*
X143520000Y-104130000D03*
X151140000Y-104130000D03*
X151140000Y-101590000D03*
X151140000Y-99050000D03*
X151140000Y-96510000D03*
X151140000Y-93970000D03*
X151140000Y-91430000D03*
X151140000Y-88890000D03*
X151140000Y-86350000D03*
%TD*%
D16*
%TO.C,J3*%
X119903000Y-93726000D03*
D17*
X122443000Y-93726000D03*
X124983000Y-93726000D03*
%TD*%
D14*
%TO.C,U7*%
X156220000Y-117470000D03*
D15*
X156220000Y-120010000D03*
X156220000Y-122550000D03*
X156220000Y-125090000D03*
X156220000Y-127630000D03*
X156220000Y-130170000D03*
X156220000Y-132710000D03*
X163840000Y-132710000D03*
X163840000Y-130170000D03*
X163840000Y-127630000D03*
X163840000Y-125090000D03*
X163840000Y-122550000D03*
X163840000Y-120010000D03*
X163840000Y-117470000D03*
%TD*%
D18*
%TO.C,J6*%
X195320000Y-133985000D03*
X195320000Y-45085000D03*
D19*
X192780000Y-50165000D03*
D20*
X192780000Y-52705000D03*
X192780000Y-55245000D03*
X192780000Y-57785000D03*
X192780000Y-60325000D03*
X192780000Y-62865000D03*
X192780000Y-65405000D03*
X192780000Y-67945000D03*
X192780000Y-70485000D03*
X192780000Y-73025000D03*
X192780000Y-75565000D03*
X192780000Y-78105000D03*
X192780000Y-80645000D03*
X192780000Y-83185000D03*
X192780000Y-85725000D03*
X192780000Y-88265000D03*
X192780000Y-90805000D03*
X192780000Y-93345000D03*
X192780000Y-95885000D03*
X192780000Y-98425000D03*
X192780000Y-100965000D03*
X192780000Y-103505000D03*
X192780000Y-106045000D03*
X192780000Y-108585000D03*
X192780000Y-111125000D03*
X192780000Y-113665000D03*
X192780000Y-116205000D03*
X192780000Y-118745000D03*
X192780000Y-121285000D03*
X192780000Y-123825000D03*
X192780000Y-126365000D03*
X192780000Y-128905000D03*
X190240000Y-50165000D03*
X190240000Y-52705000D03*
X190240000Y-55245000D03*
X190240000Y-57785000D03*
X190240000Y-60325000D03*
X190240000Y-62865000D03*
X190240000Y-65405000D03*
X190240000Y-67945000D03*
X190240000Y-70485000D03*
X190240000Y-73025000D03*
X190240000Y-75565000D03*
X190240000Y-78105000D03*
X190240000Y-80645000D03*
X190240000Y-83185000D03*
X190240000Y-85725000D03*
X190240000Y-88265000D03*
X190240000Y-90805000D03*
X190240000Y-93345000D03*
X190240000Y-95885000D03*
X190240000Y-98425000D03*
X190240000Y-100965000D03*
X190240000Y-103505000D03*
X190240000Y-106045000D03*
X190240000Y-108585000D03*
X190240000Y-111125000D03*
X190240000Y-113665000D03*
X190240000Y-116205000D03*
X190240000Y-118745000D03*
X190240000Y-121285000D03*
X190240000Y-123825000D03*
X190240000Y-126365000D03*
X190240000Y-128905000D03*
%TD*%
D16*
%TO.C,J1*%
X102865000Y-113040000D03*
D17*
X105405000Y-113040000D03*
X102865000Y-115580000D03*
X105405000Y-115580000D03*
X102865000Y-118120000D03*
X105405000Y-118120000D03*
X102865000Y-120660000D03*
X105405000Y-120660000D03*
%TD*%
D13*
%TO.C,C2*%
X69088000Y-59269621D03*
D12*
X69088000Y-61769621D03*
%TD*%
D13*
%TO.C,C5*%
X69088000Y-66381621D03*
D12*
X69088000Y-68881621D03*
%TD*%
D14*
%TO.C,U6*%
X143520000Y-117470000D03*
D15*
X143520000Y-120010000D03*
X143520000Y-122550000D03*
X143520000Y-125090000D03*
X143520000Y-127630000D03*
X143520000Y-130170000D03*
X143520000Y-132710000D03*
X151140000Y-132710000D03*
X151140000Y-130170000D03*
X151140000Y-127630000D03*
X151140000Y-125090000D03*
X151140000Y-122550000D03*
X151140000Y-120010000D03*
X151140000Y-117470000D03*
%TD*%
D13*
%TO.C,RN1*%
X50165000Y-81915000D03*
D21*
X50165000Y-84455000D03*
X50165000Y-86995000D03*
X50165000Y-89535000D03*
X50165000Y-92075000D03*
X50165000Y-94615000D03*
X50165000Y-97155000D03*
X50165000Y-99695000D03*
X50165000Y-102235000D03*
%TD*%
D12*
%TO.C,C16*%
X138644000Y-83820000D03*
X133644000Y-83820000D03*
%TD*%
D13*
%TO.C,C7*%
X184267349Y-46355000D03*
D12*
X186767349Y-46355000D03*
%TD*%
D22*
%TO.C,J4*%
X49655331Y-50375000D03*
X49655331Y-75375000D03*
D13*
X51075331Y-68415000D03*
D12*
X51075331Y-65645000D03*
X51075331Y-62875000D03*
X51075331Y-60105000D03*
X51075331Y-57335000D03*
X48235331Y-67030000D03*
X48235331Y-64260000D03*
X48235331Y-61490000D03*
X48235331Y-58720000D03*
%TD*%
D23*
%TO.C,Q1*%
X67945000Y-112120000D03*
D24*
X69215000Y-112120000D03*
X70485000Y-112120000D03*
%TD*%
D10*
%TO.C,R7*%
X53975000Y-106630000D03*
D11*
X53975000Y-104090000D03*
%TD*%
D12*
%TO.C,C20*%
X151344000Y-114808000D03*
X146344000Y-114808000D03*
%TD*%
D14*
%TO.C,U9*%
X56525000Y-104135000D03*
D15*
X56525000Y-106675000D03*
X56525000Y-109215000D03*
X56525000Y-111755000D03*
X56525000Y-114295000D03*
X56525000Y-116835000D03*
X56525000Y-119375000D03*
X64145000Y-119375000D03*
X64145000Y-116835000D03*
X64145000Y-114295000D03*
X64145000Y-111755000D03*
X64145000Y-109215000D03*
X64145000Y-106675000D03*
X64145000Y-104135000D03*
%TD*%
D10*
%TO.C,R9*%
X66852000Y-101600000D03*
D11*
X69392000Y-101600000D03*
%TD*%
D25*
%TO.C,U4*%
X108042500Y-51200000D03*
D26*
X108042500Y-53740000D03*
X108042500Y-56280000D03*
X108042500Y-58820000D03*
X108042500Y-61360000D03*
X108042500Y-63900000D03*
X108042500Y-66440000D03*
X108042500Y-68980000D03*
X108042500Y-71520000D03*
X108042500Y-74060000D03*
X108042500Y-76600000D03*
X108042500Y-79140000D03*
X108042500Y-81680000D03*
X108042500Y-84220000D03*
X123282500Y-84220000D03*
X123282500Y-81680000D03*
X123282500Y-79140000D03*
X123282500Y-76600000D03*
X123282500Y-74060000D03*
X123282500Y-71520000D03*
X123282500Y-68980000D03*
X123282500Y-66440000D03*
X123282500Y-63900000D03*
X123282500Y-61360000D03*
X123282500Y-58820000D03*
X123282500Y-56280000D03*
X123282500Y-53740000D03*
X123282500Y-51200000D03*
%TD*%
D12*
%TO.C,C12*%
X81240000Y-66040000D03*
X76240000Y-66040000D03*
%TD*%
D10*
%TO.C,R11*%
X44958000Y-123952000D03*
D11*
X42418000Y-123952000D03*
%TD*%
D16*
%TO.C,J2*%
X102210000Y-83160000D03*
D17*
X102210000Y-80620000D03*
X102210000Y-78080000D03*
X102210000Y-75540000D03*
X102210000Y-73000000D03*
X102210000Y-70460000D03*
%TD*%
D12*
%TO.C,C3*%
X50800000Y-132548000D03*
X50800000Y-127548000D03*
%TD*%
%TO.C,C17*%
X158496000Y-71080000D03*
X158496000Y-66080000D03*
%TD*%
D27*
%TO.C,LED1*%
X47498000Y-126238000D03*
X47498000Y-128778000D03*
X44958000Y-126238000D03*
X44958000Y-128778000D03*
%TD*%
D12*
%TO.C,C6*%
X46268000Y-107696000D03*
X51268000Y-107696000D03*
%TD*%
%TO.C,C18*%
X151344000Y-83820000D03*
X146344000Y-83820000D03*
%TD*%
D13*
%TO.C,X2*%
X114935000Y-109220000D03*
D12*
X114935000Y-124460000D03*
X122555000Y-124460000D03*
X122555000Y-109220000D03*
%TD*%
D14*
%TO.C,U12*%
X56525000Y-74935000D03*
D15*
X56525000Y-77475000D03*
X56525000Y-80015000D03*
X56525000Y-82555000D03*
X56525000Y-85095000D03*
X56525000Y-87635000D03*
X56525000Y-90175000D03*
X56525000Y-92715000D03*
X56525000Y-95255000D03*
X56525000Y-97795000D03*
X64145000Y-97795000D03*
X64145000Y-95255000D03*
X64145000Y-92715000D03*
X64145000Y-90175000D03*
X64145000Y-87635000D03*
X64145000Y-85095000D03*
X64145000Y-82555000D03*
X64145000Y-80015000D03*
X64145000Y-77475000D03*
X64145000Y-74935000D03*
%TD*%
D14*
%TO.C,U15*%
X56525000Y-50790000D03*
D15*
X56525000Y-53330000D03*
X56525000Y-55870000D03*
X56525000Y-58410000D03*
X56525000Y-60950000D03*
X56525000Y-63490000D03*
X56525000Y-66030000D03*
X56525000Y-68570000D03*
X64145000Y-68570000D03*
X64145000Y-66030000D03*
X64145000Y-63490000D03*
X64145000Y-60950000D03*
X64145000Y-58410000D03*
X64145000Y-55870000D03*
X64145000Y-53330000D03*
X64145000Y-50790000D03*
%TD*%
D10*
%TO.C,R10*%
X46990000Y-123952000D03*
D11*
X49530000Y-123952000D03*
%TD*%
D28*
%TO.C,J5*%
X171958000Y-125778000D03*
X171958000Y-131778000D03*
D29*
X176658000Y-128778000D03*
%TD*%
D14*
%TO.C,U1*%
X161285000Y-45725000D03*
D15*
X161285000Y-48265000D03*
X161285000Y-50805000D03*
X161285000Y-53345000D03*
X161285000Y-55885000D03*
X161285000Y-58425000D03*
X161285000Y-60965000D03*
X161285000Y-63505000D03*
X161285000Y-66045000D03*
X161285000Y-68585000D03*
X161285000Y-71125000D03*
X161285000Y-73665000D03*
X161285000Y-76205000D03*
X161285000Y-78745000D03*
X161285000Y-81285000D03*
X161285000Y-83825000D03*
X161285000Y-86365000D03*
X161285000Y-88905000D03*
X161285000Y-91445000D03*
X161285000Y-93985000D03*
X176525000Y-93985000D03*
X176525000Y-91445000D03*
X176525000Y-88905000D03*
X176525000Y-86365000D03*
X176525000Y-83825000D03*
X176525000Y-81285000D03*
X176525000Y-78745000D03*
X176525000Y-76205000D03*
X176525000Y-73665000D03*
X176525000Y-71125000D03*
X176525000Y-68585000D03*
X176525000Y-66045000D03*
X176525000Y-63505000D03*
X176525000Y-60965000D03*
X176525000Y-58425000D03*
X176525000Y-55885000D03*
X176525000Y-53345000D03*
X176525000Y-50805000D03*
X176525000Y-48265000D03*
X176525000Y-45725000D03*
%TD*%
D12*
%TO.C,C15*%
X138644000Y-43180000D03*
X133644000Y-43180000D03*
%TD*%
D13*
%TO.C,SW1*%
X39320000Y-84445000D03*
D21*
X39320000Y-86985000D03*
X39320000Y-89525000D03*
X39320000Y-92065000D03*
X39320000Y-94605000D03*
X39320000Y-97145000D03*
X39320000Y-99685000D03*
X39320000Y-102225000D03*
X46940000Y-102225000D03*
X46940000Y-99685000D03*
X46940000Y-97145000D03*
X46940000Y-94605000D03*
X46940000Y-92065000D03*
X46940000Y-89525000D03*
X46940000Y-86985000D03*
X46940000Y-84445000D03*
%TD*%
D13*
%TO.C,X1*%
X162560000Y-106680000D03*
D12*
X177800000Y-106680000D03*
X177800000Y-99060000D03*
X162560000Y-99060000D03*
%TD*%
D10*
%TO.C,R12*%
X47498000Y-136144000D03*
D11*
X50038000Y-136144000D03*
%TD*%
D12*
%TO.C,C13*%
X101640000Y-110236000D03*
X106640000Y-110236000D03*
%TD*%
D30*
%TO.C,SW2*%
X52715620Y-120270000D03*
D18*
X52715620Y-115570000D03*
X52715620Y-110870000D03*
X40015620Y-113030000D03*
X40015620Y-118110000D03*
%TD*%
D10*
%TO.C,R6*%
X46024000Y-105664000D03*
D11*
X48564000Y-105664000D03*
%TD*%
D12*
%TO.C,C9*%
X64476000Y-72136000D03*
X59476000Y-72136000D03*
%TD*%
D10*
%TO.C,R2*%
X156260000Y-83820000D03*
D11*
X158800000Y-83820000D03*
%TD*%
D14*
%TO.C,U14*%
X83815000Y-45725000D03*
D15*
X83815000Y-48265000D03*
X83815000Y-50805000D03*
X83815000Y-53345000D03*
X83815000Y-55885000D03*
X83815000Y-58425000D03*
X83815000Y-60965000D03*
X83815000Y-63505000D03*
X83815000Y-66045000D03*
X83815000Y-68585000D03*
X83815000Y-71125000D03*
X83815000Y-73665000D03*
X83815000Y-76205000D03*
X83815000Y-78745000D03*
X83815000Y-81285000D03*
X83815000Y-83825000D03*
X83815000Y-86365000D03*
X83815000Y-88905000D03*
X83815000Y-91445000D03*
X83815000Y-93985000D03*
X99055000Y-93985000D03*
X99055000Y-91445000D03*
X99055000Y-88905000D03*
X99055000Y-86365000D03*
X99055000Y-83825000D03*
X99055000Y-81285000D03*
X99055000Y-78745000D03*
X99055000Y-76205000D03*
X99055000Y-73665000D03*
X99055000Y-71125000D03*
X99055000Y-68585000D03*
X99055000Y-66045000D03*
X99055000Y-63505000D03*
X99055000Y-60965000D03*
X99055000Y-58425000D03*
X99055000Y-55885000D03*
X99055000Y-53345000D03*
X99055000Y-50805000D03*
X99055000Y-48265000D03*
X99055000Y-45725000D03*
%TD*%
D12*
%TO.C,C14*%
X128016000Y-50760000D03*
X128016000Y-45760000D03*
%TD*%
D14*
%TO.C,U3*%
X130820000Y-45705000D03*
D15*
X130820000Y-48245000D03*
X130820000Y-50785000D03*
X130820000Y-53325000D03*
X130820000Y-55865000D03*
X130820000Y-58405000D03*
X130820000Y-60945000D03*
X130820000Y-63485000D03*
X130820000Y-66025000D03*
X130820000Y-68565000D03*
X130820000Y-71105000D03*
X130820000Y-73645000D03*
X130820000Y-76185000D03*
X130820000Y-78725000D03*
X138440000Y-78725000D03*
X138440000Y-76185000D03*
X138440000Y-73645000D03*
X138440000Y-71105000D03*
X138440000Y-68565000D03*
X138440000Y-66025000D03*
X138440000Y-63485000D03*
X138440000Y-60945000D03*
X138440000Y-58405000D03*
X138440000Y-55865000D03*
X138440000Y-53325000D03*
X138440000Y-50785000D03*
X138440000Y-48245000D03*
X138440000Y-45705000D03*
%TD*%
D14*
%TO.C,U8*%
X130820000Y-117470000D03*
D15*
X130820000Y-120010000D03*
X130820000Y-122550000D03*
X130820000Y-125090000D03*
X130820000Y-127630000D03*
X130820000Y-130170000D03*
X130820000Y-132710000D03*
X138440000Y-132710000D03*
X138440000Y-130170000D03*
X138440000Y-127630000D03*
X138440000Y-125090000D03*
X138440000Y-122550000D03*
X138440000Y-120010000D03*
X138440000Y-117470000D03*
%TD*%
D10*
%TO.C,R5*%
X53848000Y-125780000D03*
D11*
X53848000Y-128320000D03*
%TD*%
D14*
%TO.C,U10*%
X56525000Y-125740000D03*
D15*
X56525000Y-128280000D03*
X56525000Y-130820000D03*
X56525000Y-133360000D03*
X64145000Y-133360000D03*
X64145000Y-130820000D03*
X64145000Y-128280000D03*
X64145000Y-125740000D03*
%TD*%
D10*
%TO.C,R8*%
X53848000Y-132792000D03*
D11*
X53848000Y-130252000D03*
%TD*%
D10*
%TO.C,R1*%
X78790000Y-55880000D03*
D11*
X81330000Y-55880000D03*
%TD*%
D14*
%TO.C,U13*%
X83815000Y-100315000D03*
D15*
X83815000Y-102855000D03*
X83815000Y-105395000D03*
X83815000Y-107935000D03*
X83815000Y-110475000D03*
X83815000Y-113015000D03*
X83815000Y-115555000D03*
X83815000Y-118095000D03*
X83815000Y-120635000D03*
X83815000Y-123175000D03*
X83815000Y-125715000D03*
X83815000Y-128255000D03*
X83815000Y-130795000D03*
X83815000Y-133335000D03*
X99055000Y-133335000D03*
X99055000Y-130795000D03*
X99055000Y-128255000D03*
X99055000Y-125715000D03*
X99055000Y-123175000D03*
X99055000Y-120635000D03*
X99055000Y-118095000D03*
X99055000Y-115555000D03*
X99055000Y-113015000D03*
X99055000Y-110475000D03*
X99055000Y-107935000D03*
X99055000Y-105395000D03*
X99055000Y-102855000D03*
X99055000Y-100315000D03*
%TD*%
D12*
%TO.C,C8*%
X64476000Y-48260000D03*
X59476000Y-48260000D03*
%TD*%
D23*
%TO.C,Q2*%
X67945000Y-105135000D03*
D24*
X69215000Y-105135000D03*
X70485000Y-105135000D03*
%TD*%
D12*
%TO.C,C11*%
X164044000Y-114808000D03*
X159044000Y-114808000D03*
%TD*%
%TO.C,C19*%
X138644000Y-114808000D03*
X133644000Y-114808000D03*
%TD*%
D14*
%TO.C,U11*%
X130820000Y-86365000D03*
D15*
X130820000Y-88905000D03*
X130820000Y-91445000D03*
X130820000Y-93985000D03*
X130820000Y-96525000D03*
X130820000Y-99065000D03*
X130820000Y-101605000D03*
X130820000Y-104145000D03*
X130820000Y-106685000D03*
X130820000Y-109225000D03*
X138440000Y-109225000D03*
X138440000Y-106685000D03*
X138440000Y-104145000D03*
X138440000Y-101605000D03*
X138440000Y-99065000D03*
X138440000Y-96525000D03*
X138440000Y-93985000D03*
X138440000Y-91445000D03*
X138440000Y-88905000D03*
X138440000Y-86365000D03*
%TD*%
D27*
%TO.C,LED2*%
X47498000Y-131318000D03*
X47498000Y-133858000D03*
X44958000Y-131318000D03*
X44958000Y-133858000D03*
%TD*%
D10*
%TO.C,R4*%
X181560000Y-86360000D03*
D11*
X179020000Y-86360000D03*
%TD*%
D14*
%TO.C,U2*%
X143520000Y-45705000D03*
D15*
X143520000Y-48245000D03*
X143520000Y-50785000D03*
X143520000Y-53325000D03*
X143520000Y-55865000D03*
X143520000Y-58405000D03*
X143520000Y-60945000D03*
X143520000Y-63485000D03*
X143520000Y-66025000D03*
X143520000Y-68565000D03*
X143520000Y-71105000D03*
X143520000Y-73645000D03*
X143520000Y-76185000D03*
X143520000Y-78725000D03*
X151140000Y-78725000D03*
X151140000Y-76185000D03*
X151140000Y-73645000D03*
X151140000Y-71105000D03*
X151140000Y-68565000D03*
X151140000Y-66025000D03*
X151140000Y-63485000D03*
X151140000Y-60945000D03*
X151140000Y-58405000D03*
X151140000Y-55865000D03*
X151140000Y-53325000D03*
X151140000Y-50785000D03*
X151140000Y-48245000D03*
X151140000Y-45705000D03*
%TD*%
M02*
