%TF.GenerationSoftware,KiCad,Pcbnew,(6.0.4)*%
%TF.CreationDate,2022-09-27T18:30:23+02:00*%
%TF.ProjectId,Z80,5a38302e-6b69-4636-9164-5f7063625858,rev?*%
%TF.SameCoordinates,Original*%
%TF.FileFunction,Copper,L2,Bot*%
%TF.FilePolarity,Positive*%
%FSLAX46Y46*%
G04 Gerber Fmt 4.6, Leading zero omitted, Abs format (unit mm)*
G04 Created by KiCad (PCBNEW (6.0.4)) date 2022-09-27 18:30:23*
%MOMM*%
%LPD*%
G01*
G04 APERTURE LIST*
G04 Aperture macros list*
%AMRoundRect*
0 Rectangle with rounded corners*
0 $1 Rounding radius*
0 $2 $3 $4 $5 $6 $7 $8 $9 X,Y pos of 4 corners*
0 Add a 4 corners polygon primitive as box body*
4,1,4,$2,$3,$4,$5,$6,$7,$8,$9,$2,$3,0*
0 Add four circle primitives for the rounded corners*
1,1,$1+$1,$2,$3*
1,1,$1+$1,$4,$5*
1,1,$1+$1,$6,$7*
1,1,$1+$1,$8,$9*
0 Add four rect primitives between the rounded corners*
20,1,$1+$1,$2,$3,$4,$5,0*
20,1,$1+$1,$4,$5,$6,$7,0*
20,1,$1+$1,$6,$7,$8,$9,0*
20,1,$1+$1,$8,$9,$2,$3,0*%
G04 Aperture macros list end*
%TA.AperFunction,ComponentPad*%
%ADD10C,1.400000*%
%TD*%
%TA.AperFunction,ComponentPad*%
%ADD11O,1.400000X1.400000*%
%TD*%
%TA.AperFunction,ComponentPad*%
%ADD12C,1.600000*%
%TD*%
%TA.AperFunction,ComponentPad*%
%ADD13R,1.600000X1.600000*%
%TD*%
%TA.AperFunction,ComponentPad*%
%ADD14R,2.400000X1.600000*%
%TD*%
%TA.AperFunction,ComponentPad*%
%ADD15O,2.400000X1.600000*%
%TD*%
%TA.AperFunction,ComponentPad*%
%ADD16R,1.700000X1.700000*%
%TD*%
%TA.AperFunction,ComponentPad*%
%ADD17O,1.700000X1.700000*%
%TD*%
%TA.AperFunction,ComponentPad*%
%ADD18RoundRect,0.249999X-0.525001X0.525001X-0.525001X-0.525001X0.525001X-0.525001X0.525001X0.525001X0*%
%TD*%
%TA.AperFunction,ComponentPad*%
%ADD19C,1.550000*%
%TD*%
%TA.AperFunction,ComponentPad*%
%ADD20O,1.600000X1.600000*%
%TD*%
%TA.AperFunction,ComponentPad*%
%ADD21C,4.000000*%
%TD*%
%TA.AperFunction,ComponentPad*%
%ADD22R,1.050000X1.500000*%
%TD*%
%TA.AperFunction,ComponentPad*%
%ADD23O,1.050000X1.500000*%
%TD*%
%TA.AperFunction,ComponentPad*%
%ADD24R,2.000000X1.440000*%
%TD*%
%TA.AperFunction,ComponentPad*%
%ADD25O,2.000000X1.440000*%
%TD*%
%TA.AperFunction,ComponentPad*%
%ADD26C,1.524000*%
%TD*%
%TA.AperFunction,ComponentPad*%
%ADD27R,4.500000X2.000000*%
%TD*%
%TA.AperFunction,ComponentPad*%
%ADD28R,2.000000X4.500000*%
%TD*%
%TA.AperFunction,ComponentPad*%
%ADD29R,2.850000X2.850000*%
%TD*%
%TA.AperFunction,ComponentPad*%
%ADD30C,2.850000*%
%TD*%
%TA.AperFunction,ViaPad*%
%ADD31C,0.800000*%
%TD*%
%TA.AperFunction,ViaPad*%
%ADD32C,0.600000*%
%TD*%
%TA.AperFunction,Conductor*%
%ADD33C,0.151900*%
%TD*%
%TA.AperFunction,Conductor*%
%ADD34C,0.153000*%
%TD*%
%TA.AperFunction,Conductor*%
%ADD35C,0.400000*%
%TD*%
%TA.AperFunction,Conductor*%
%ADD36C,2.000000*%
%TD*%
G04 APERTURE END LIST*
D10*
%TO.P,R15,1*%
%TO.N,/MEMAQ*%
X169875200Y-119354600D03*
D11*
%TO.P,R15,2*%
%TO.N,+5V*%
X172415200Y-119354600D03*
%TD*%
D10*
%TO.P,R14,1*%
%TO.N,/{slash}WR*%
X176099000Y-113106200D03*
D11*
%TO.P,R14,2*%
%TO.N,+5V*%
X173559000Y-113106200D03*
%TD*%
D10*
%TO.P,R13,1*%
%TO.N,/{slash}RD*%
X171145200Y-113106200D03*
D11*
%TO.P,R13,2*%
%TO.N,+5V*%
X168605200Y-113106200D03*
%TD*%
D12*
%TO.P,C10,1*%
%TO.N,+5V*%
X64476000Y-101600000D03*
%TO.P,C10,2*%
%TO.N,GND*%
X59476000Y-101600000D03*
%TD*%
D13*
%TO.P,C1,1*%
%TO.N,Net-(C1-Pad1)*%
X69088000Y-52157621D03*
D12*
%TO.P,C1,2*%
%TO.N,Net-(C1-Pad2)*%
X69088000Y-54657621D03*
%TD*%
D10*
%TO.P,R3,1*%
%TO.N,+5V*%
X181560000Y-83820000D03*
D11*
%TO.P,R3,2*%
%TO.N,/{slash}BUSREQ*%
X179020000Y-83820000D03*
%TD*%
D13*
%TO.P,C4,1*%
%TO.N,Net-(C4-Pad1)*%
X69088000Y-45045621D03*
D12*
%TO.P,C4,2*%
%TO.N,+5V*%
X69088000Y-47545621D03*
%TD*%
D14*
%TO.P,U5,1,A0*%
%TO.N,/A14*%
X143520000Y-86350000D03*
D15*
%TO.P,U5,2,A1*%
%TO.N,/A15*%
X143520000Y-88890000D03*
%TO.P,U5,3,A2*%
%TO.N,GND*%
X143520000Y-91430000D03*
%TO.P,U5,4,~{LE}*%
%TO.N,/{slash}MREQ*%
X143520000Y-93970000D03*
%TO.P,U5,5,~{E1}*%
%TO.N,GND*%
X143520000Y-96510000D03*
%TO.P,U5,6,E2*%
%TO.N,+5V*%
X143520000Y-99050000D03*
%TO.P,U5,7,~{Y7}*%
%TO.N,unconnected-(U5-Pad7)*%
X143520000Y-101590000D03*
%TO.P,U5,8,GND*%
%TO.N,GND*%
X143520000Y-104130000D03*
%TO.P,U5,9,~{Y6}*%
%TO.N,unconnected-(U5-Pad9)*%
X151140000Y-104130000D03*
%TO.P,U5,10,~{Y5}*%
%TO.N,unconnected-(U5-Pad10)*%
X151140000Y-101590000D03*
%TO.P,U5,11,~{Y4}*%
%TO.N,unconnected-(U5-Pad11)*%
X151140000Y-99050000D03*
%TO.P,U5,12,~{Y3}*%
%TO.N,/MEMC000*%
X151140000Y-96510000D03*
%TO.P,U5,13,~{Y2}*%
%TO.N,/MEM8000*%
X151140000Y-93970000D03*
%TO.P,U5,14,~{Y1}*%
%TO.N,/MEM4000*%
X151140000Y-91430000D03*
%TO.P,U5,15,~{Y0}*%
%TO.N,/MEM0000*%
X151140000Y-88890000D03*
%TO.P,U5,16,VCC*%
%TO.N,+5V*%
X151140000Y-86350000D03*
%TD*%
D16*
%TO.P,J3,1,Pin_1*%
%TO.N,+5V*%
X119903000Y-93726000D03*
D17*
%TO.P,J3,2,Pin_2*%
%TO.N,/{slash}WE_ROM*%
X122443000Y-93726000D03*
%TO.P,J3,3,Pin_3*%
%TO.N,/{slash}WR*%
X124983000Y-93726000D03*
%TD*%
D14*
%TO.P,U7,1*%
%TO.N,Net-(U7-Pad1)*%
X156220000Y-117470000D03*
D15*
%TO.P,U7,2*%
%TO.N,/MEM0000*%
X156220000Y-120010000D03*
%TO.P,U7,3*%
%TO.N,/{slash}RAMSEL*%
X156220000Y-122550000D03*
%TO.P,U7,4*%
%TO.N,/{slash}CS_RAM_LOW_1*%
X156220000Y-125090000D03*
%TO.P,U7,5*%
%TO.N,Net-(U7-Pad1)*%
X156220000Y-127630000D03*
%TO.P,U7,6*%
X156220000Y-130170000D03*
%TO.P,U7,7,GND*%
%TO.N,GND*%
X156220000Y-132710000D03*
%TO.P,U7,8*%
%TO.N,/MEM0000*%
X163840000Y-132710000D03*
%TO.P,U7,9*%
%TO.N,/{slash}ROMSEL*%
X163840000Y-130170000D03*
%TO.P,U7,10*%
%TO.N,Net-(U7-Pad10)*%
X163840000Y-127630000D03*
%TO.P,U7,11*%
%TO.N,Net-(U6-Pad8)*%
X163840000Y-125090000D03*
%TO.P,U7,12*%
X163840000Y-122550000D03*
%TO.P,U7,13*%
%TO.N,/{slash}CS_RAM_HIGH*%
X163840000Y-120010000D03*
%TO.P,U7,14,VCC*%
%TO.N,+5V*%
X163840000Y-117470000D03*
%TD*%
D18*
%TO.P,J6,a1,Pin_a1*%
%TO.N,GND*%
X192780000Y-50165000D03*
D19*
%TO.P,J6,a2,Pin_a2*%
X192780000Y-52705000D03*
%TO.P,J6,a3,Pin_a3*%
X192780000Y-55245000D03*
%TO.P,J6,a4,Pin_a4*%
X192780000Y-57785000D03*
%TO.P,J6,a5,Pin_a5*%
%TO.N,/MEMAQ*%
X192780000Y-60325000D03*
%TO.P,J6,a6,Pin_a6*%
%TO.N,/INT3*%
X192780000Y-62865000D03*
%TO.P,J6,a7,Pin_a7*%
%TO.N,/A0*%
X192780000Y-65405000D03*
%TO.P,J6,a8,Pin_a8*%
%TO.N,/A1*%
X192780000Y-67945000D03*
%TO.P,J6,a9,Pin_a9*%
%TO.N,/A2*%
X192780000Y-70485000D03*
%TO.P,J6,a10,Pin_a10*%
%TO.N,/A3*%
X192780000Y-73025000D03*
%TO.P,J6,a11,Pin_a11*%
%TO.N,/A4*%
X192780000Y-75565000D03*
%TO.P,J6,a12,Pin_a12*%
%TO.N,/A5*%
X192780000Y-78105000D03*
%TO.P,J6,a13,Pin_a13*%
%TO.N,/A6*%
X192780000Y-80645000D03*
%TO.P,J6,a14,Pin_a14*%
%TO.N,/A7*%
X192780000Y-83185000D03*
%TO.P,J6,a15,Pin_a15*%
%TO.N,/A8*%
X192780000Y-85725000D03*
%TO.P,J6,a16,Pin_a16*%
%TO.N,/A9*%
X192780000Y-88265000D03*
%TO.P,J6,a17,Pin_a17*%
%TO.N,/A10*%
X192780000Y-90805000D03*
%TO.P,J6,a18,Pin_a18*%
%TO.N,/A11*%
X192780000Y-93345000D03*
%TO.P,J6,a19,Pin_a19*%
%TO.N,/A12*%
X192780000Y-95885000D03*
%TO.P,J6,a20,Pin_a20*%
%TO.N,/A13*%
X192780000Y-98425000D03*
%TO.P,J6,a21,Pin_a21*%
%TO.N,/A14*%
X192780000Y-100965000D03*
%TO.P,J6,a22,Pin_a22*%
%TO.N,/A15*%
X192780000Y-103505000D03*
%TO.P,J6,a23,Pin_a23*%
%TO.N,/{slash}BUSREQ*%
X192780000Y-106045000D03*
%TO.P,J6,a24,Pin_a24*%
%TO.N,/{slash}BUSACK*%
X192780000Y-108585000D03*
%TO.P,J6,a25,Pin_a25*%
%TO.N,/A16*%
X192780000Y-111125000D03*
%TO.P,J6,a26,Pin_a26*%
%TO.N,/A17*%
X192780000Y-113665000D03*
%TO.P,J6,a27,Pin_a27*%
%TO.N,/A18*%
X192780000Y-116205000D03*
%TO.P,J6,a28,Pin_a28*%
%TO.N,/A19*%
X192780000Y-118745000D03*
%TO.P,J6,a29,Pin_a29*%
%TO.N,/A20*%
X192780000Y-121285000D03*
%TO.P,J6,a30,Pin_a30*%
%TO.N,/A21*%
X192780000Y-123825000D03*
%TO.P,J6,a31,Pin_a31*%
%TO.N,/A22*%
X192780000Y-126365000D03*
%TO.P,J6,a32,Pin_a32*%
%TO.N,/A23*%
X192780000Y-128905000D03*
%TO.P,J6,b1,Pin_b1*%
%TO.N,+5V*%
X190240000Y-50165000D03*
%TO.P,J6,b2,Pin_b2*%
X190240000Y-52705000D03*
%TO.P,J6,b3,Pin_b3*%
X190240000Y-55245000D03*
%TO.P,J6,b4,Pin_b4*%
%TO.N,/INT0*%
X190240000Y-57785000D03*
%TO.P,J6,b5,Pin_b5*%
%TO.N,/INT1*%
X190240000Y-60325000D03*
%TO.P,J6,b6,Pin_b6*%
%TO.N,/INT2*%
X190240000Y-62865000D03*
%TO.P,J6,b7,Pin_b7*%
%TO.N,/D0*%
X190240000Y-65405000D03*
%TO.P,J6,b8,Pin_b8*%
%TO.N,/D1*%
X190240000Y-67945000D03*
%TO.P,J6,b9,Pin_b9*%
%TO.N,/D2*%
X190240000Y-70485000D03*
%TO.P,J6,b10,Pin_b10*%
%TO.N,/D3*%
X190240000Y-73025000D03*
%TO.P,J6,b11,Pin_b11*%
%TO.N,/D4*%
X190240000Y-75565000D03*
%TO.P,J6,b12,Pin_b12*%
%TO.N,/D5*%
X190240000Y-78105000D03*
%TO.P,J6,b13,Pin_b13*%
%TO.N,/D6*%
X190240000Y-80645000D03*
%TO.P,J6,b14,Pin_b14*%
%TO.N,/D7*%
X190240000Y-83185000D03*
%TO.P,J6,b15,Pin_b15*%
%TO.N,/{slash}RESET*%
X190240000Y-85725000D03*
%TO.P,J6,b16,Pin_b16*%
%TO.N,/CLK_CPU*%
X190240000Y-88265000D03*
%TO.P,J6,b17,Pin_b17*%
%TO.N,/{slash}INT*%
X190240000Y-90805000D03*
%TO.P,J6,b18,Pin_b18*%
%TO.N,/{slash}NMI*%
X190240000Y-93345000D03*
%TO.P,J6,b19,Pin_b19*%
%TO.N,/{slash}M1*%
X190240000Y-95885000D03*
%TO.P,J6,b20,Pin_b20*%
%TO.N,/{slash}WAIT*%
X190240000Y-98425000D03*
%TO.P,J6,b21,Pin_b21*%
%TO.N,/{slash}HALT*%
X190240000Y-100965000D03*
%TO.P,J6,b22,Pin_b22*%
%TO.N,/{slash}RD*%
X190240000Y-103505000D03*
%TO.P,J6,b23,Pin_b23*%
%TO.N,/{slash}WR*%
X190240000Y-106045000D03*
%TO.P,J6,b24,Pin_b24*%
%TO.N,/{slash}MREQ*%
X190240000Y-108585000D03*
%TO.P,J6,b25,Pin_b25*%
%TO.N,/{slash}IOREQ*%
X190240000Y-111125000D03*
%TO.P,J6,b26,Pin_b26*%
%TO.N,/IEO_SIO*%
X190240000Y-113665000D03*
%TO.P,J6,b27,Pin_b27*%
%TO.N,/CARD_IEO*%
X190240000Y-116205000D03*
%TO.P,J6,b28,Pin_b28*%
%TO.N,+12V*%
X190240000Y-118745000D03*
%TO.P,J6,b29,Pin_b29*%
%TO.N,-12V*%
X190240000Y-121285000D03*
%TO.P,J6,b30,Pin_b30*%
%TO.N,-5V*%
X190240000Y-123825000D03*
%TO.P,J6,b31,Pin_b31*%
%TO.N,+3V3*%
X190240000Y-126365000D03*
%TO.P,J6,b32,Pin_b32*%
%TO.N,GND*%
X190240000Y-128905000D03*
%TD*%
D16*
%TO.P,J1,1,Pin_1*%
%TO.N,Net-(J1-Pad1)*%
X102865000Y-113040000D03*
D17*
%TO.P,J1,2,Pin_2*%
%TO.N,Net-(J1-Pad2)*%
X105405000Y-113040000D03*
%TO.P,J1,3,Pin_3*%
%TO.N,Net-(J1-Pad3)*%
X102865000Y-115580000D03*
%TO.P,J1,4,Pin_4*%
%TO.N,Net-(J1-Pad2)*%
X105405000Y-115580000D03*
%TO.P,J1,5,Pin_5*%
%TO.N,Net-(J1-Pad5)*%
X102865000Y-118120000D03*
%TO.P,J1,6,Pin_6*%
%TO.N,Net-(J1-Pad2)*%
X105405000Y-118120000D03*
%TO.P,J1,7,Pin_7*%
%TO.N,Net-(J1-Pad7)*%
X102865000Y-120660000D03*
%TO.P,J1,8,Pin_8*%
%TO.N,Net-(J1-Pad2)*%
X105405000Y-120660000D03*
%TD*%
D13*
%TO.P,C2,1*%
%TO.N,Net-(C2-Pad1)*%
X69088000Y-59269621D03*
D12*
%TO.P,C2,2*%
%TO.N,Net-(C2-Pad2)*%
X69088000Y-61769621D03*
%TD*%
D13*
%TO.P,C5,1*%
%TO.N,GND*%
X69088000Y-66381621D03*
D12*
%TO.P,C5,2*%
%TO.N,Net-(C5-Pad2)*%
X69088000Y-68881621D03*
%TD*%
D14*
%TO.P,U6,1*%
%TO.N,/{slash}CS_RAM_LOW_1*%
X143520000Y-117470000D03*
D15*
%TO.P,U6,2*%
%TO.N,/MEM4000*%
X143520000Y-120010000D03*
%TO.P,U6,3*%
%TO.N,Net-(U6-Pad3)*%
X143520000Y-122550000D03*
%TO.P,U6,4*%
X143520000Y-125090000D03*
%TO.P,U6,5*%
X143520000Y-127630000D03*
%TO.P,U6,6*%
%TO.N,/{slash}CS_RAM_LOW*%
X143520000Y-130170000D03*
%TO.P,U6,7,GND*%
%TO.N,GND*%
X143520000Y-132710000D03*
%TO.P,U6,8*%
%TO.N,Net-(U6-Pad8)*%
X151140000Y-132710000D03*
%TO.P,U6,9*%
%TO.N,/MEM8000*%
X151140000Y-130170000D03*
%TO.P,U6,10*%
%TO.N,/MEMC000*%
X151140000Y-127630000D03*
%TO.P,U6,11*%
%TO.N,/{slash}CS_ROM_LOW*%
X151140000Y-125090000D03*
%TO.P,U6,12*%
%TO.N,Net-(U7-Pad10)*%
X151140000Y-122550000D03*
%TO.P,U6,13*%
%TO.N,/MEMAQ*%
X151140000Y-120010000D03*
%TO.P,U6,14,VCC*%
%TO.N,+5V*%
X151140000Y-117470000D03*
%TD*%
D13*
%TO.P,RN1,1,common*%
%TO.N,GND*%
X50165000Y-81915000D03*
D20*
%TO.P,RN1,2,R1*%
%TO.N,Net-(RN1-Pad2)*%
X50165000Y-84455000D03*
%TO.P,RN1,3,R2*%
%TO.N,Net-(RN1-Pad3)*%
X50165000Y-86995000D03*
%TO.P,RN1,4,R3*%
%TO.N,Net-(RN1-Pad4)*%
X50165000Y-89535000D03*
%TO.P,RN1,5,R4*%
%TO.N,Net-(RN1-Pad5)*%
X50165000Y-92075000D03*
%TO.P,RN1,6,R5*%
%TO.N,Net-(RN1-Pad6)*%
X50165000Y-94615000D03*
%TO.P,RN1,7,R6*%
%TO.N,Net-(RN1-Pad7)*%
X50165000Y-97155000D03*
%TO.P,RN1,8,R7*%
%TO.N,Net-(RN1-Pad8)*%
X50165000Y-99695000D03*
%TO.P,RN1,9,R8*%
%TO.N,Net-(RN1-Pad9)*%
X50165000Y-102235000D03*
%TD*%
D12*
%TO.P,C16,1*%
%TO.N,+5V*%
X138644000Y-83820000D03*
%TO.P,C16,2*%
%TO.N,GND*%
X133644000Y-83820000D03*
%TD*%
D13*
%TO.P,C7,1*%
%TO.N,+5V*%
X184267349Y-46355000D03*
D12*
%TO.P,C7,2*%
%TO.N,GND*%
X186767349Y-46355000D03*
%TD*%
D21*
%TO.P,J4,0*%
%TO.N,N/C*%
X49655331Y-50375000D03*
X49655331Y-75375000D03*
D13*
%TO.P,J4,1,1*%
%TO.N,unconnected-(J4-Pad1)*%
X51075331Y-68415000D03*
D12*
%TO.P,J4,2,2*%
%TO.N,Net-(J4-Pad2)*%
X51075331Y-65645000D03*
%TO.P,J4,3,3*%
%TO.N,Net-(J4-Pad3)*%
X51075331Y-62875000D03*
%TO.P,J4,4,4*%
%TO.N,unconnected-(J4-Pad4)*%
X51075331Y-60105000D03*
%TO.P,J4,5,5*%
%TO.N,GND*%
X51075331Y-57335000D03*
%TO.P,J4,6,6*%
%TO.N,unconnected-(J4-Pad6)*%
X48235331Y-67030000D03*
%TO.P,J4,7,7*%
%TO.N,Net-(J4-Pad7)*%
X48235331Y-64260000D03*
%TO.P,J4,8,8*%
%TO.N,Net-(J4-Pad8)*%
X48235331Y-61490000D03*
%TO.P,J4,9,9*%
%TO.N,unconnected-(J4-Pad9)*%
X48235331Y-58720000D03*
%TD*%
D22*
%TO.P,Q1,1,C*%
%TO.N,/{slash}RESET*%
X67945000Y-112120000D03*
D23*
%TO.P,Q1,2,B*%
%TO.N,Net-(Q1-Pad2)*%
X69215000Y-112120000D03*
%TO.P,Q1,3,E*%
%TO.N,GND*%
X70485000Y-112120000D03*
%TD*%
D10*
%TO.P,R7,1*%
%TO.N,Net-(R7-Pad1)*%
X53975000Y-106630000D03*
D11*
%TO.P,R7,2*%
%TO.N,Net-(Q1-Pad2)*%
X53975000Y-104090000D03*
%TD*%
D12*
%TO.P,C20,1*%
%TO.N,+5V*%
X151344000Y-114808000D03*
%TO.P,C20,2*%
%TO.N,GND*%
X146344000Y-114808000D03*
%TD*%
D14*
%TO.P,U9,1*%
%TO.N,Net-(C6-Pad2)*%
X56525000Y-104135000D03*
D15*
%TO.P,U9,2*%
%TO.N,Net-(R7-Pad1)*%
X56525000Y-106675000D03*
%TO.P,U9,3*%
%TO.N,/{slash}RESET*%
X56525000Y-109215000D03*
%TO.P,U9,4*%
%TO.N,/LED_RESET*%
X56525000Y-111755000D03*
%TO.P,U9,5*%
%TO.N,/{slash}HALT*%
X56525000Y-114295000D03*
%TO.P,U9,6*%
%TO.N,/LED_HALT*%
X56525000Y-116835000D03*
%TO.P,U9,7,GND*%
%TO.N,GND*%
X56525000Y-119375000D03*
%TO.P,U9,8*%
%TO.N,N/C*%
X64145000Y-119375000D03*
%TO.P,U9,9*%
X64145000Y-116835000D03*
%TO.P,U9,10*%
X64145000Y-114295000D03*
%TO.P,U9,11*%
X64145000Y-111755000D03*
%TO.P,U9,12*%
X64145000Y-109215000D03*
%TO.P,U9,13*%
X64145000Y-106675000D03*
%TO.P,U9,14,VCC*%
%TO.N,+5V*%
X64145000Y-104135000D03*
%TD*%
D10*
%TO.P,R9,1*%
%TO.N,+5V*%
X66852000Y-101600000D03*
D11*
%TO.P,R9,2*%
%TO.N,/{slash}RESET*%
X69392000Y-101600000D03*
%TD*%
D24*
%TO.P,U4,1,A14*%
%TO.N,/{slash}CS_ROM_LOW*%
X108042500Y-51200000D03*
D25*
%TO.P,U4,2,A12*%
%TO.N,/A12*%
X108042500Y-53740000D03*
%TO.P,U4,3,A7*%
%TO.N,/A7*%
X108042500Y-56280000D03*
%TO.P,U4,4,A6*%
%TO.N,/A6*%
X108042500Y-58820000D03*
%TO.P,U4,5,A5*%
%TO.N,/A5*%
X108042500Y-61360000D03*
%TO.P,U4,6,A4*%
%TO.N,/A4*%
X108042500Y-63900000D03*
%TO.P,U4,7,A3*%
%TO.N,/A3*%
X108042500Y-66440000D03*
%TO.P,U4,8,A2*%
%TO.N,/A2*%
X108042500Y-68980000D03*
%TO.P,U4,9,A1*%
%TO.N,/A1*%
X108042500Y-71520000D03*
%TO.P,U4,10,A0*%
%TO.N,/A0*%
X108042500Y-74060000D03*
%TO.P,U4,11,D0*%
%TO.N,/D0*%
X108042500Y-76600000D03*
%TO.P,U4,12,D1*%
%TO.N,/D1*%
X108042500Y-79140000D03*
%TO.P,U4,13,D2*%
%TO.N,/D2*%
X108042500Y-81680000D03*
%TO.P,U4,14,GND*%
%TO.N,GND*%
X108042500Y-84220000D03*
%TO.P,U4,15,D3*%
%TO.N,/D3*%
X123282500Y-84220000D03*
%TO.P,U4,16,D4*%
%TO.N,/D4*%
X123282500Y-81680000D03*
%TO.P,U4,17,D5*%
%TO.N,/D5*%
X123282500Y-79140000D03*
%TO.P,U4,18,D6*%
%TO.N,/D6*%
X123282500Y-76600000D03*
%TO.P,U4,19,D7*%
%TO.N,/D7*%
X123282500Y-74060000D03*
%TO.P,U4,20,~{CS}*%
%TO.N,/ROM_BANK_SEL*%
X123282500Y-71520000D03*
%TO.P,U4,21,A10*%
%TO.N,/A10*%
X123282500Y-68980000D03*
%TO.P,U4,22,~{OE}*%
%TO.N,/{slash}RD*%
X123282500Y-66440000D03*
%TO.P,U4,23,A11*%
%TO.N,/A11*%
X123282500Y-63900000D03*
%TO.P,U4,24,A9*%
%TO.N,/A9*%
X123282500Y-61360000D03*
%TO.P,U4,25,A8*%
%TO.N,/A8*%
X123282500Y-58820000D03*
%TO.P,U4,26,A13*%
%TO.N,/A13*%
X123282500Y-56280000D03*
%TO.P,U4,27,~{WE}*%
%TO.N,/{slash}WE_ROM*%
X123282500Y-53740000D03*
%TO.P,U4,28,VCC*%
%TO.N,+5V*%
X123282500Y-51200000D03*
%TD*%
D12*
%TO.P,C12,1*%
%TO.N,+5V*%
X81240000Y-66040000D03*
%TO.P,C12,2*%
%TO.N,GND*%
X76240000Y-66040000D03*
%TD*%
D10*
%TO.P,R11,1*%
%TO.N,Net-(LED1-Pad2a)*%
X44958000Y-123952000D03*
D11*
%TO.P,R11,2*%
%TO.N,GND*%
X42418000Y-123952000D03*
%TD*%
D16*
%TO.P,J2,1,Pin_1*%
%TO.N,unconnected-(J2-Pad1)*%
X102210000Y-83160000D03*
D17*
%TO.P,J2,2,Pin_2*%
%TO.N,Net-(J2-Pad2)*%
X102210000Y-80620000D03*
%TO.P,J2,3,Pin_3*%
%TO.N,Net-(J2-Pad3)*%
X102210000Y-78080000D03*
%TO.P,J2,4,Pin_4*%
%TO.N,unconnected-(J2-Pad4)*%
X102210000Y-75540000D03*
%TO.P,J2,5,Pin_5*%
%TO.N,unconnected-(J2-Pad5)*%
X102210000Y-73000000D03*
%TO.P,J2,6,Pin_6*%
%TO.N,GND*%
X102210000Y-70460000D03*
%TD*%
D12*
%TO.P,C3,1*%
%TO.N,Net-(C3-Pad1)*%
X50800000Y-132548000D03*
%TO.P,C3,2*%
%TO.N,GND*%
X50800000Y-127548000D03*
%TD*%
%TO.P,C17,1*%
%TO.N,+5V*%
X158496000Y-71080000D03*
%TO.P,C17,2*%
%TO.N,GND*%
X158496000Y-66080000D03*
%TD*%
D26*
%TO.P,LED1,1a,K*%
%TO.N,Net-(LED1-Pad1a)*%
X47498000Y-126238000D03*
%TO.P,LED1,1b,A*%
%TO.N,+5V*%
X47498000Y-128778000D03*
%TO.P,LED1,2a,K*%
%TO.N,Net-(LED1-Pad2a)*%
X44958000Y-126238000D03*
%TO.P,LED1,2b,A*%
%TO.N,/LED_RESET*%
X44958000Y-128778000D03*
%TD*%
D12*
%TO.P,C6,1*%
%TO.N,+5V*%
X46268000Y-107696000D03*
%TO.P,C6,2*%
%TO.N,Net-(C6-Pad2)*%
X51268000Y-107696000D03*
%TD*%
%TO.P,C18,1*%
%TO.N,+5V*%
X151344000Y-83820000D03*
%TO.P,C18,2*%
%TO.N,GND*%
X146344000Y-83820000D03*
%TD*%
D13*
%TO.P,X2,1,NC*%
%TO.N,unconnected-(X2-Pad1)*%
X114935000Y-109220000D03*
D12*
%TO.P,X2,7,GND*%
%TO.N,GND*%
X114935000Y-124460000D03*
%TO.P,X2,8,OUT*%
%TO.N,Net-(J1-Pad2)*%
X122555000Y-124460000D03*
%TO.P,X2,14,Vcc*%
%TO.N,+5V*%
X122555000Y-109220000D03*
%TD*%
D14*
%TO.P,U12,1,A->B*%
%TO.N,+5V*%
X56525000Y-74935000D03*
D15*
%TO.P,U12,2,A0*%
%TO.N,Net-(RN1-Pad2)*%
X56525000Y-77475000D03*
%TO.P,U12,3,A1*%
%TO.N,Net-(RN1-Pad3)*%
X56525000Y-80015000D03*
%TO.P,U12,4,A2*%
%TO.N,Net-(RN1-Pad4)*%
X56525000Y-82555000D03*
%TO.P,U12,5,A3*%
%TO.N,Net-(RN1-Pad5)*%
X56525000Y-85095000D03*
%TO.P,U12,6,A4*%
%TO.N,Net-(RN1-Pad6)*%
X56525000Y-87635000D03*
%TO.P,U12,7,A5*%
%TO.N,Net-(RN1-Pad7)*%
X56525000Y-90175000D03*
%TO.P,U12,8,A6*%
%TO.N,Net-(RN1-Pad8)*%
X56525000Y-92715000D03*
%TO.P,U12,9,A7*%
%TO.N,Net-(RN1-Pad9)*%
X56525000Y-95255000D03*
%TO.P,U12,10,GND*%
%TO.N,GND*%
X56525000Y-97795000D03*
%TO.P,U12,11,B7*%
%TO.N,/D7*%
X64145000Y-97795000D03*
%TO.P,U12,12,B6*%
%TO.N,/D6*%
X64145000Y-95255000D03*
%TO.P,U12,13,B5*%
%TO.N,/D5*%
X64145000Y-92715000D03*
%TO.P,U12,14,B4*%
%TO.N,/D4*%
X64145000Y-90175000D03*
%TO.P,U12,15,B3*%
%TO.N,/D3*%
X64145000Y-87635000D03*
%TO.P,U12,16,B2*%
%TO.N,/D2*%
X64145000Y-85095000D03*
%TO.P,U12,17,B1*%
%TO.N,/D1*%
X64145000Y-82555000D03*
%TO.P,U12,18,B0*%
%TO.N,/D0*%
X64145000Y-80015000D03*
%TO.P,U12,19,CE*%
%TO.N,/{slash}CS_DIP*%
X64145000Y-77475000D03*
%TO.P,U12,20,VCC*%
%TO.N,+5V*%
X64145000Y-74935000D03*
%TD*%
D14*
%TO.P,U15,1,C1+*%
%TO.N,Net-(C1-Pad1)*%
X56525000Y-50790000D03*
D15*
%TO.P,U15,2,VS+*%
%TO.N,Net-(C4-Pad1)*%
X56525000Y-53330000D03*
%TO.P,U15,3,C1-*%
%TO.N,Net-(C1-Pad2)*%
X56525000Y-55870000D03*
%TO.P,U15,4,C2+*%
%TO.N,Net-(C2-Pad1)*%
X56525000Y-58410000D03*
%TO.P,U15,5,C2-*%
%TO.N,Net-(C2-Pad2)*%
X56525000Y-60950000D03*
%TO.P,U15,6,VS-*%
%TO.N,Net-(C5-Pad2)*%
X56525000Y-63490000D03*
%TO.P,U15,7,T2OUT*%
%TO.N,Net-(J4-Pad8)*%
X56525000Y-66030000D03*
%TO.P,U15,8,R2IN*%
%TO.N,Net-(J4-Pad7)*%
X56525000Y-68570000D03*
%TO.P,U15,9,R2OUT*%
%TO.N,Net-(U14-Pad18)*%
X64145000Y-68570000D03*
%TO.P,U15,10,T2IN*%
%TO.N,Net-(U14-Pad16)*%
X64145000Y-66030000D03*
%TO.P,U15,11,T1IN*%
%TO.N,Net-(U14-Pad15)*%
X64145000Y-63490000D03*
%TO.P,U15,12,R1OUT*%
%TO.N,Net-(U14-Pad12)*%
X64145000Y-60950000D03*
%TO.P,U15,13,R1IN*%
%TO.N,Net-(J4-Pad3)*%
X64145000Y-58410000D03*
%TO.P,U15,14,T1OUT*%
%TO.N,Net-(J4-Pad2)*%
X64145000Y-55870000D03*
%TO.P,U15,15,GND*%
%TO.N,GND*%
X64145000Y-53330000D03*
%TO.P,U15,16,VCC*%
%TO.N,+5V*%
X64145000Y-50790000D03*
%TD*%
D10*
%TO.P,R10,1*%
%TO.N,Net-(LED1-Pad1a)*%
X46990000Y-123952000D03*
D11*
%TO.P,R10,2*%
%TO.N,GND*%
X49530000Y-123952000D03*
%TD*%
D27*
%TO.P,J5,1*%
%TO.N,+5V*%
X171958000Y-125778000D03*
%TO.P,J5,2*%
%TO.N,GND*%
X171958000Y-131778000D03*
D28*
%TO.P,J5,3*%
%TO.N,N/C*%
X176658000Y-128778000D03*
%TD*%
D14*
%TO.P,U1,1,A11*%
%TO.N,/A11*%
X161285000Y-45725000D03*
D15*
%TO.P,U1,2,A12*%
%TO.N,/A12*%
X161285000Y-48265000D03*
%TO.P,U1,3,A13*%
%TO.N,/A13*%
X161285000Y-50805000D03*
%TO.P,U1,4,A14*%
%TO.N,/A14*%
X161285000Y-53345000D03*
%TO.P,U1,5,A15*%
%TO.N,/A15*%
X161285000Y-55885000D03*
%TO.P,U1,6,~{CLK}*%
%TO.N,/CLK_CPU*%
X161285000Y-58425000D03*
%TO.P,U1,7,D4*%
%TO.N,/D4*%
X161285000Y-60965000D03*
%TO.P,U1,8,D3*%
%TO.N,/D3*%
X161285000Y-63505000D03*
%TO.P,U1,9,D5*%
%TO.N,/D5*%
X161285000Y-66045000D03*
%TO.P,U1,10,D6*%
%TO.N,/D6*%
X161285000Y-68585000D03*
%TO.P,U1,11,VCC*%
%TO.N,+5V*%
X161285000Y-71125000D03*
%TO.P,U1,12,D2*%
%TO.N,/D2*%
X161285000Y-73665000D03*
%TO.P,U1,13,D7*%
%TO.N,/D7*%
X161285000Y-76205000D03*
%TO.P,U1,14,D0*%
%TO.N,/D0*%
X161285000Y-78745000D03*
%TO.P,U1,15,D1*%
%TO.N,/D1*%
X161285000Y-81285000D03*
%TO.P,U1,16,~{INT}*%
%TO.N,/{slash}NMI*%
X161285000Y-83825000D03*
%TO.P,U1,17,~{NMI}*%
%TO.N,/{slash}INT*%
X161285000Y-86365000D03*
%TO.P,U1,18,~{HALT}*%
%TO.N,/{slash}HALT*%
X161285000Y-88905000D03*
%TO.P,U1,19,~{MREQ}*%
%TO.N,/{slash}MREQ*%
X161285000Y-91445000D03*
%TO.P,U1,20,~{IORQ}*%
%TO.N,/{slash}IOREQ*%
X161285000Y-93985000D03*
%TO.P,U1,21,~{RD}*%
%TO.N,/{slash}RD*%
X176525000Y-93985000D03*
%TO.P,U1,22,~{WR}*%
%TO.N,/{slash}WR*%
X176525000Y-91445000D03*
%TO.P,U1,23,~{BUSACK}*%
%TO.N,/{slash}BUSACK*%
X176525000Y-88905000D03*
%TO.P,U1,24,~{WAIT}*%
%TO.N,/{slash}WAIT*%
X176525000Y-86365000D03*
%TO.P,U1,25,~{BUSRQ}*%
%TO.N,/{slash}BUSREQ*%
X176525000Y-83825000D03*
%TO.P,U1,26,~{RESET}*%
%TO.N,/{slash}RESET*%
X176525000Y-81285000D03*
%TO.P,U1,27,~{M1}*%
%TO.N,/{slash}M1*%
X176525000Y-78745000D03*
%TO.P,U1,28,~{RFSH}*%
%TO.N,unconnected-(U1-Pad28)*%
X176525000Y-76205000D03*
%TO.P,U1,29,GND*%
%TO.N,GND*%
X176525000Y-73665000D03*
%TO.P,U1,30,A0*%
%TO.N,/A0*%
X176525000Y-71125000D03*
%TO.P,U1,31,A1*%
%TO.N,/A1*%
X176525000Y-68585000D03*
%TO.P,U1,32,A2*%
%TO.N,/A2*%
X176525000Y-66045000D03*
%TO.P,U1,33,A3*%
%TO.N,/A3*%
X176525000Y-63505000D03*
%TO.P,U1,34,A4*%
%TO.N,/A4*%
X176525000Y-60965000D03*
%TO.P,U1,35,A5*%
%TO.N,/A5*%
X176525000Y-58425000D03*
%TO.P,U1,36,A6*%
%TO.N,/A6*%
X176525000Y-55885000D03*
%TO.P,U1,37,A7*%
%TO.N,/A7*%
X176525000Y-53345000D03*
%TO.P,U1,38,A8*%
%TO.N,/A8*%
X176525000Y-50805000D03*
%TO.P,U1,39,A9*%
%TO.N,/A9*%
X176525000Y-48265000D03*
%TO.P,U1,40,A10*%
%TO.N,/A10*%
X176525000Y-45725000D03*
%TD*%
D12*
%TO.P,C15,1*%
%TO.N,+5V*%
X138644000Y-43180000D03*
%TO.P,C15,2*%
%TO.N,GND*%
X133644000Y-43180000D03*
%TD*%
D13*
%TO.P,SW1,1*%
%TO.N,+5V*%
X39320000Y-84445000D03*
D20*
%TO.P,SW1,2*%
X39320000Y-86985000D03*
%TO.P,SW1,3*%
X39320000Y-89525000D03*
%TO.P,SW1,4*%
X39320000Y-92065000D03*
%TO.P,SW1,5*%
X39320000Y-94605000D03*
%TO.P,SW1,6*%
X39320000Y-97145000D03*
%TO.P,SW1,7*%
X39320000Y-99685000D03*
%TO.P,SW1,8*%
X39320000Y-102225000D03*
%TO.P,SW1,9*%
%TO.N,Net-(RN1-Pad9)*%
X46940000Y-102225000D03*
%TO.P,SW1,10*%
%TO.N,Net-(RN1-Pad8)*%
X46940000Y-99685000D03*
%TO.P,SW1,11*%
%TO.N,Net-(RN1-Pad7)*%
X46940000Y-97145000D03*
%TO.P,SW1,12*%
%TO.N,Net-(RN1-Pad6)*%
X46940000Y-94605000D03*
%TO.P,SW1,13*%
%TO.N,Net-(RN1-Pad5)*%
X46940000Y-92065000D03*
%TO.P,SW1,14*%
%TO.N,Net-(RN1-Pad4)*%
X46940000Y-89525000D03*
%TO.P,SW1,15*%
%TO.N,Net-(RN1-Pad3)*%
X46940000Y-86985000D03*
%TO.P,SW1,16*%
%TO.N,Net-(RN1-Pad2)*%
X46940000Y-84445000D03*
%TD*%
D13*
%TO.P,X1,1,NC*%
%TO.N,unconnected-(X1-Pad1)*%
X162560000Y-106680000D03*
D12*
%TO.P,X1,7,GND*%
%TO.N,GND*%
X177800000Y-106680000D03*
%TO.P,X1,8,OUT*%
%TO.N,/CLK_CPU*%
X177800000Y-99060000D03*
%TO.P,X1,14,Vcc*%
%TO.N,+5V*%
X162560000Y-99060000D03*
%TD*%
D10*
%TO.P,R12,1*%
%TO.N,Net-(LED2-Pad1a)*%
X47498000Y-136144000D03*
D11*
%TO.P,R12,2*%
%TO.N,GND*%
X50038000Y-136144000D03*
%TD*%
D12*
%TO.P,C13,1*%
%TO.N,+5V*%
X101640000Y-110236000D03*
%TO.P,C13,2*%
%TO.N,GND*%
X106640000Y-110236000D03*
%TD*%
D29*
%TO.P,SW2,1,A*%
%TO.N,unconnected-(SW2-Pad1)*%
X52715620Y-120270000D03*
D30*
%TO.P,SW2,2,B*%
%TO.N,GND*%
X52715620Y-115570000D03*
%TO.P,SW2,3,C*%
%TO.N,Net-(C6-Pad2)*%
X52715620Y-110870000D03*
%TO.P,SW2,4*%
%TO.N,N/C*%
X40015620Y-113030000D03*
X40015620Y-118110000D03*
%TD*%
D10*
%TO.P,R6,1*%
%TO.N,+5V*%
X46024000Y-105664000D03*
D11*
%TO.P,R6,2*%
%TO.N,Net-(C6-Pad2)*%
X48564000Y-105664000D03*
%TD*%
D12*
%TO.P,C9,1*%
%TO.N,+5V*%
X64476000Y-72136000D03*
%TO.P,C9,2*%
%TO.N,GND*%
X59476000Y-72136000D03*
%TD*%
D10*
%TO.P,R2,1*%
%TO.N,+5V*%
X156260000Y-83820000D03*
D11*
%TO.P,R2,2*%
%TO.N,/{slash}NMI*%
X158800000Y-83820000D03*
%TD*%
D14*
%TO.P,U14,1,D1*%
%TO.N,/D1*%
X83815000Y-45725000D03*
D15*
%TO.P,U14,2,D3*%
%TO.N,/D3*%
X83815000Y-48265000D03*
%TO.P,U14,3,D5*%
%TO.N,/D5*%
X83815000Y-50805000D03*
%TO.P,U14,4,D7*%
%TO.N,/D7*%
X83815000Y-53345000D03*
%TO.P,U14,5,~{INT}*%
%TO.N,/{slash}INT*%
X83815000Y-55885000D03*
%TO.P,U14,6,IEI*%
%TO.N,/IEO_CTC*%
X83815000Y-58425000D03*
%TO.P,U14,7,IEO*%
%TO.N,/IEO_SIO*%
X83815000Y-60965000D03*
%TO.P,U14,8,~{M1}*%
%TO.N,/{slash}M1*%
X83815000Y-63505000D03*
%TO.P,U14,9,+5V*%
%TO.N,+5V*%
X83815000Y-66045000D03*
%TO.P,U14,10,~{W}/~{RDYA}*%
%TO.N,unconnected-(U14-Pad10)*%
X83815000Y-68585000D03*
%TO.P,U14,11,~{SYNCA}*%
%TO.N,unconnected-(U14-Pad11)*%
X83815000Y-71125000D03*
%TO.P,U14,12,RXDA*%
%TO.N,Net-(U14-Pad12)*%
X83815000Y-73665000D03*
%TO.P,U14,13,~{RXCA}*%
%TO.N,Net-(U13-Pad7)*%
X83815000Y-76205000D03*
%TO.P,U14,14,~{TXCA}*%
X83815000Y-78745000D03*
%TO.P,U14,15,TXDA*%
%TO.N,Net-(U14-Pad15)*%
X83815000Y-81285000D03*
%TO.P,U14,16,~{DTRA}*%
%TO.N,Net-(U14-Pad16)*%
X83815000Y-83825000D03*
%TO.P,U14,17,~{RTSA}*%
%TO.N,unconnected-(U14-Pad17)*%
X83815000Y-86365000D03*
%TO.P,U14,18,~{CTSA}*%
%TO.N,Net-(U14-Pad18)*%
X83815000Y-88905000D03*
%TO.P,U14,19,~{DCDA}*%
%TO.N,unconnected-(U14-Pad19)*%
X83815000Y-91445000D03*
%TO.P,U14,20,\u03A6*%
%TO.N,/CLK_CPU*%
X83815000Y-93985000D03*
%TO.P,U14,21,~{RESET}*%
%TO.N,/{slash}RESET*%
X99055000Y-93985000D03*
%TO.P,U14,22,~{DCDB}*%
%TO.N,unconnected-(U14-Pad22)*%
X99055000Y-91445000D03*
%TO.P,U14,23,~{CTSB}*%
%TO.N,unconnected-(U14-Pad23)*%
X99055000Y-88905000D03*
%TO.P,U14,24,~{RTSB}*%
%TO.N,unconnected-(U14-Pad24)*%
X99055000Y-86365000D03*
%TO.P,U14,25,~{DTRB}*%
%TO.N,unconnected-(U14-Pad25)*%
X99055000Y-83825000D03*
%TO.P,U14,26,TXDB*%
%TO.N,Net-(J2-Pad2)*%
X99055000Y-81285000D03*
%TO.P,U14,27,~{RxTxCB}*%
%TO.N,Net-(U13-Pad8)*%
X99055000Y-78745000D03*
%TO.P,U14,28,RXDB*%
%TO.N,Net-(J2-Pad3)*%
X99055000Y-76205000D03*
%TO.P,U14,29,~{SYNCB}*%
%TO.N,unconnected-(U14-Pad29)*%
X99055000Y-73665000D03*
%TO.P,U14,30,~{W}/~{RDYB}*%
%TO.N,unconnected-(U14-Pad30)*%
X99055000Y-71125000D03*
%TO.P,U14,31,GND*%
%TO.N,GND*%
X99055000Y-68585000D03*
%TO.P,U14,32,~{RD}*%
%TO.N,/{slash}RD*%
X99055000Y-66045000D03*
%TO.P,U14,33,C/~{D}*%
%TO.N,/A0*%
X99055000Y-63505000D03*
%TO.P,U14,34,B/~{A}*%
%TO.N,/A1*%
X99055000Y-60965000D03*
%TO.P,U14,35,~{CE}*%
%TO.N,/{slash}CS_SIO*%
X99055000Y-58425000D03*
%TO.P,U14,36,~{IORQ}*%
%TO.N,/{slash}IOREQ*%
X99055000Y-55885000D03*
%TO.P,U14,37,D6*%
%TO.N,/D6*%
X99055000Y-53345000D03*
%TO.P,U14,38,D4*%
%TO.N,/D4*%
X99055000Y-50805000D03*
%TO.P,U14,39,D2*%
%TO.N,/D2*%
X99055000Y-48265000D03*
%TO.P,U14,40,D0*%
%TO.N,/D0*%
X99055000Y-45725000D03*
%TD*%
D12*
%TO.P,C14,1*%
%TO.N,+5V*%
X128016000Y-50760000D03*
%TO.P,C14,2*%
%TO.N,GND*%
X128016000Y-45760000D03*
%TD*%
D14*
%TO.P,U3,1,A14*%
%TO.N,/A14*%
X130820000Y-45705000D03*
D15*
%TO.P,U3,2,A12*%
%TO.N,/A12*%
X130820000Y-48245000D03*
%TO.P,U3,3,A7*%
%TO.N,/A7*%
X130820000Y-50785000D03*
%TO.P,U3,4,A6*%
%TO.N,/A6*%
X130820000Y-53325000D03*
%TO.P,U3,5,A5*%
%TO.N,/A5*%
X130820000Y-55865000D03*
%TO.P,U3,6,A4*%
%TO.N,/A4*%
X130820000Y-58405000D03*
%TO.P,U3,7,A3*%
%TO.N,/A3*%
X130820000Y-60945000D03*
%TO.P,U3,8,A2*%
%TO.N,/A2*%
X130820000Y-63485000D03*
%TO.P,U3,9,A1*%
%TO.N,/A1*%
X130820000Y-66025000D03*
%TO.P,U3,10,A0*%
%TO.N,/A0*%
X130820000Y-68565000D03*
%TO.P,U3,11,Q0*%
%TO.N,/D0*%
X130820000Y-71105000D03*
%TO.P,U3,12,Q1*%
%TO.N,/D1*%
X130820000Y-73645000D03*
%TO.P,U3,13,Q2*%
%TO.N,/D2*%
X130820000Y-76185000D03*
%TO.P,U3,14,GND*%
%TO.N,GND*%
X130820000Y-78725000D03*
%TO.P,U3,15,Q3*%
%TO.N,/D3*%
X138440000Y-78725000D03*
%TO.P,U3,16,Q4*%
%TO.N,/D4*%
X138440000Y-76185000D03*
%TO.P,U3,17,Q5*%
%TO.N,/D5*%
X138440000Y-73645000D03*
%TO.P,U3,18,Q6*%
%TO.N,/D6*%
X138440000Y-71105000D03*
%TO.P,U3,19,Q7*%
%TO.N,/D7*%
X138440000Y-68565000D03*
%TO.P,U3,20,~{CS}*%
%TO.N,/{slash}CS_RAM_HIGH*%
X138440000Y-66025000D03*
%TO.P,U3,21,A10*%
%TO.N,/A10*%
X138440000Y-63485000D03*
%TO.P,U3,22,~{OE}*%
%TO.N,/{slash}RD*%
X138440000Y-60945000D03*
%TO.P,U3,23,A11*%
%TO.N,/A11*%
X138440000Y-58405000D03*
%TO.P,U3,24,A9*%
%TO.N,/A9*%
X138440000Y-55865000D03*
%TO.P,U3,25,A8*%
%TO.N,/A8*%
X138440000Y-53325000D03*
%TO.P,U3,26,A13*%
%TO.N,/A13*%
X138440000Y-50785000D03*
%TO.P,U3,27,~{WE}*%
%TO.N,/{slash}WR*%
X138440000Y-48245000D03*
%TO.P,U3,28,VCC*%
%TO.N,+5V*%
X138440000Y-45705000D03*
%TD*%
D14*
%TO.P,U8,1,~{R}*%
%TO.N,/{slash}RESET*%
X130820000Y-117470000D03*
D15*
%TO.P,U8,2,D*%
%TO.N,/D0*%
X130820000Y-120010000D03*
%TO.P,U8,3,C*%
%TO.N,/{slash}CS_BANK*%
X130820000Y-122550000D03*
%TO.P,U8,4,~{S}*%
%TO.N,+5V*%
X130820000Y-125090000D03*
%TO.P,U8,5,Q*%
%TO.N,/{slash}ROMSEL*%
X130820000Y-127630000D03*
%TO.P,U8,6,~{Q}*%
%TO.N,/{slash}RAMSEL*%
X130820000Y-130170000D03*
%TO.P,U8,7,GND*%
%TO.N,GND*%
X130820000Y-132710000D03*
%TO.P,U8,8,~{Q}*%
%TO.N,unconnected-(U8-Pad8)*%
X138440000Y-132710000D03*
%TO.P,U8,9,Q*%
%TO.N,/ROM_BANK_SEL*%
X138440000Y-130170000D03*
%TO.P,U8,10,~{S}*%
%TO.N,+5V*%
X138440000Y-127630000D03*
%TO.P,U8,11,C*%
%TO.N,/{slash}CS_BANK*%
X138440000Y-125090000D03*
%TO.P,U8,12,D*%
%TO.N,/D1*%
X138440000Y-122550000D03*
%TO.P,U8,13,~{R}*%
%TO.N,/{slash}RESET*%
X138440000Y-120010000D03*
%TO.P,U8,14,VCC*%
%TO.N,+5V*%
X138440000Y-117470000D03*
%TD*%
D10*
%TO.P,R5,1*%
%TO.N,+5V*%
X53848000Y-125780000D03*
D11*
%TO.P,R5,2*%
%TO.N,Net-(C3-Pad1)*%
X53848000Y-128320000D03*
%TD*%
D14*
%TO.P,U10,1,GND*%
%TO.N,GND*%
X56525000Y-125740000D03*
D15*
%TO.P,U10,2,TR*%
%TO.N,Net-(C3-Pad1)*%
X56525000Y-128280000D03*
%TO.P,U10,3,Q*%
%TO.N,Net-(R8-Pad1)*%
X56525000Y-130820000D03*
%TO.P,U10,4,R*%
%TO.N,+5V*%
X56525000Y-133360000D03*
%TO.P,U10,5,CV*%
%TO.N,unconnected-(U10-Pad5)*%
X64145000Y-133360000D03*
%TO.P,U10,6,THR*%
%TO.N,Net-(C3-Pad1)*%
X64145000Y-130820000D03*
%TO.P,U10,7,DIS*%
%TO.N,unconnected-(U10-Pad7)*%
X64145000Y-128280000D03*
%TO.P,U10,8,VCC*%
%TO.N,+5V*%
X64145000Y-125740000D03*
%TD*%
D10*
%TO.P,R8,1*%
%TO.N,Net-(R8-Pad1)*%
X53848000Y-132792000D03*
D11*
%TO.P,R8,2*%
%TO.N,Net-(Q2-Pad2)*%
X53848000Y-130252000D03*
%TD*%
D10*
%TO.P,R1,1*%
%TO.N,+5V*%
X78790000Y-55880000D03*
D11*
%TO.P,R1,2*%
%TO.N,/{slash}INT*%
X81330000Y-55880000D03*
%TD*%
D14*
%TO.P,U13,1,D4*%
%TO.N,/D4*%
X83815000Y-100315000D03*
D15*
%TO.P,U13,2,D5*%
%TO.N,/D5*%
X83815000Y-102855000D03*
%TO.P,U13,3,D6*%
%TO.N,/D6*%
X83815000Y-105395000D03*
%TO.P,U13,4,D7*%
%TO.N,/D7*%
X83815000Y-107935000D03*
%TO.P,U13,5,GND*%
%TO.N,GND*%
X83815000Y-110475000D03*
%TO.P,U13,6,~{RD}*%
%TO.N,/{slash}RD*%
X83815000Y-113015000D03*
%TO.P,U13,7,ZC/TO0*%
%TO.N,Net-(U13-Pad7)*%
X83815000Y-115555000D03*
%TO.P,U13,8,ZC/TO1*%
%TO.N,Net-(U13-Pad8)*%
X83815000Y-118095000D03*
%TO.P,U13,9,ZC/TO2*%
%TO.N,unconnected-(U13-Pad9)*%
X83815000Y-120635000D03*
%TO.P,U13,10,~{IORQ}*%
%TO.N,/{slash}IOREQ*%
X83815000Y-123175000D03*
%TO.P,U13,11,IEO*%
%TO.N,/IEO_CTC*%
X83815000Y-125715000D03*
%TO.P,U13,12,~{INT}*%
%TO.N,/{slash}INT*%
X83815000Y-128255000D03*
%TO.P,U13,13,IEI*%
%TO.N,+5V*%
X83815000Y-130795000D03*
%TO.P,U13,14,~{M1}*%
%TO.N,/{slash}M1*%
X83815000Y-133335000D03*
%TO.P,U13,15,CLK*%
%TO.N,/CLK_CPU*%
X99055000Y-133335000D03*
%TO.P,U13,16,~{CE}*%
%TO.N,/{slash}CS_CTC*%
X99055000Y-130795000D03*
%TO.P,U13,17,~{RESET}*%
%TO.N,/{slash}RESET*%
X99055000Y-128255000D03*
%TO.P,U13,18,CS0*%
%TO.N,/A0*%
X99055000Y-125715000D03*
%TO.P,U13,19,CS1*%
%TO.N,/A1*%
X99055000Y-123175000D03*
%TO.P,U13,20,CLK/TRG3*%
%TO.N,Net-(J1-Pad7)*%
X99055000Y-120635000D03*
%TO.P,U13,21,CLK/TRG2*%
%TO.N,Net-(J1-Pad5)*%
X99055000Y-118095000D03*
%TO.P,U13,22,CLK/TRG1*%
%TO.N,Net-(J1-Pad3)*%
X99055000Y-115555000D03*
%TO.P,U13,23,CLK/TRG0*%
%TO.N,Net-(J1-Pad1)*%
X99055000Y-113015000D03*
%TO.P,U13,24,+5V*%
%TO.N,+5V*%
X99055000Y-110475000D03*
%TO.P,U13,25,D0*%
%TO.N,/D0*%
X99055000Y-107935000D03*
%TO.P,U13,26,D1*%
%TO.N,/D1*%
X99055000Y-105395000D03*
%TO.P,U13,27,D2*%
%TO.N,/D2*%
X99055000Y-102855000D03*
%TO.P,U13,28,D3*%
%TO.N,/D3*%
X99055000Y-100315000D03*
%TD*%
D12*
%TO.P,C8,1*%
%TO.N,+5V*%
X64476000Y-48260000D03*
%TO.P,C8,2*%
%TO.N,GND*%
X59476000Y-48260000D03*
%TD*%
D22*
%TO.P,Q2,1,C*%
%TO.N,/{slash}RESET*%
X67945000Y-105135000D03*
D23*
%TO.P,Q2,2,B*%
%TO.N,Net-(Q2-Pad2)*%
X69215000Y-105135000D03*
%TO.P,Q2,3,E*%
%TO.N,GND*%
X70485000Y-105135000D03*
%TD*%
D12*
%TO.P,C11,1*%
%TO.N,+5V*%
X164044000Y-114808000D03*
%TO.P,C11,2*%
%TO.N,GND*%
X159044000Y-114808000D03*
%TD*%
%TO.P,C19,1*%
%TO.N,+5V*%
X138644000Y-114808000D03*
%TO.P,C19,2*%
%TO.N,GND*%
X133644000Y-114808000D03*
%TD*%
D14*
%TO.P,U11,1,I1/CLK*%
%TO.N,/A0*%
X130820000Y-86365000D03*
D15*
%TO.P,U11,2,I2*%
%TO.N,/A1*%
X130820000Y-88905000D03*
%TO.P,U11,3,I3*%
%TO.N,/A2*%
X130820000Y-91445000D03*
%TO.P,U11,4,I4*%
%TO.N,/A3*%
X130820000Y-93985000D03*
%TO.P,U11,5,I5*%
%TO.N,/A4*%
X130820000Y-96525000D03*
%TO.P,U11,6,I6*%
%TO.N,/A5*%
X130820000Y-99065000D03*
%TO.P,U11,7,I7*%
%TO.N,/A6*%
X130820000Y-101605000D03*
%TO.P,U11,8,I8*%
%TO.N,/A7*%
X130820000Y-104145000D03*
%TO.P,U11,9,I9*%
%TO.N,/{slash}IOREQ*%
X130820000Y-106685000D03*
%TO.P,U11,10,GND*%
%TO.N,GND*%
X130820000Y-109225000D03*
%TO.P,U11,11,I10/~{OE}*%
%TO.N,/{slash}RD*%
X138440000Y-109225000D03*
%TO.P,U11,12,IO8*%
%TO.N,/{slash}WR*%
X138440000Y-106685000D03*
%TO.P,U11,13,IO7*%
%TO.N,unconnected-(U11-Pad13)*%
X138440000Y-104145000D03*
%TO.P,U11,14,IO6*%
%TO.N,unconnected-(U11-Pad14)*%
X138440000Y-101605000D03*
%TO.P,U11,15,IO5*%
%TO.N,/{slash}CS_BANK*%
X138440000Y-99065000D03*
%TO.P,U11,16,IO4*%
%TO.N,/{slash}CS_SIO*%
X138440000Y-96525000D03*
%TO.P,U11,17,I03*%
%TO.N,/{slash}CS_CTC*%
X138440000Y-93985000D03*
%TO.P,U11,18,IO2*%
%TO.N,unconnected-(U11-Pad18)*%
X138440000Y-91445000D03*
%TO.P,U11,19,IO1*%
%TO.N,/{slash}CS_DIP*%
X138440000Y-88905000D03*
%TO.P,U11,20,VCC*%
%TO.N,+5V*%
X138440000Y-86365000D03*
%TD*%
D26*
%TO.P,LED2,1a,K*%
%TO.N,Net-(LED2-Pad1a)*%
X47498000Y-131318000D03*
%TO.P,LED2,1b,A*%
%TO.N,/LED_HALT*%
X47498000Y-133858000D03*
%TO.P,LED2,2a,K*%
%TO.N,unconnected-(LED2-Pad2a)*%
X44958000Y-131318000D03*
%TO.P,LED2,2b,A*%
%TO.N,unconnected-(LED2-Pad2b)*%
X44958000Y-133858000D03*
%TD*%
D10*
%TO.P,R4,1*%
%TO.N,+5V*%
X181560000Y-86360000D03*
D11*
%TO.P,R4,2*%
%TO.N,/{slash}WAIT*%
X179020000Y-86360000D03*
%TD*%
D14*
%TO.P,U2,1,A14*%
%TO.N,/A14*%
X143520000Y-45705000D03*
D15*
%TO.P,U2,2,A12*%
%TO.N,/A12*%
X143520000Y-48245000D03*
%TO.P,U2,3,A7*%
%TO.N,/A7*%
X143520000Y-50785000D03*
%TO.P,U2,4,A6*%
%TO.N,/A6*%
X143520000Y-53325000D03*
%TO.P,U2,5,A5*%
%TO.N,/A5*%
X143520000Y-55865000D03*
%TO.P,U2,6,A4*%
%TO.N,/A4*%
X143520000Y-58405000D03*
%TO.P,U2,7,A3*%
%TO.N,/A3*%
X143520000Y-60945000D03*
%TO.P,U2,8,A2*%
%TO.N,/A2*%
X143520000Y-63485000D03*
%TO.P,U2,9,A1*%
%TO.N,/A1*%
X143520000Y-66025000D03*
%TO.P,U2,10,A0*%
%TO.N,/A0*%
X143520000Y-68565000D03*
%TO.P,U2,11,Q0*%
%TO.N,/D0*%
X143520000Y-71105000D03*
%TO.P,U2,12,Q1*%
%TO.N,/D1*%
X143520000Y-73645000D03*
%TO.P,U2,13,Q2*%
%TO.N,/D2*%
X143520000Y-76185000D03*
%TO.P,U2,14,GND*%
%TO.N,GND*%
X143520000Y-78725000D03*
%TO.P,U2,15,Q3*%
%TO.N,/D3*%
X151140000Y-78725000D03*
%TO.P,U2,16,Q4*%
%TO.N,/D4*%
X151140000Y-76185000D03*
%TO.P,U2,17,Q5*%
%TO.N,/D5*%
X151140000Y-73645000D03*
%TO.P,U2,18,Q6*%
%TO.N,/D6*%
X151140000Y-71105000D03*
%TO.P,U2,19,Q7*%
%TO.N,/D7*%
X151140000Y-68565000D03*
%TO.P,U2,20,~{CS}*%
%TO.N,/{slash}CS_RAM_LOW*%
X151140000Y-66025000D03*
%TO.P,U2,21,A10*%
%TO.N,/A10*%
X151140000Y-63485000D03*
%TO.P,U2,22,~{OE}*%
%TO.N,/{slash}RD*%
X151140000Y-60945000D03*
%TO.P,U2,23,A11*%
%TO.N,/A11*%
X151140000Y-58405000D03*
%TO.P,U2,24,A9*%
%TO.N,/A9*%
X151140000Y-55865000D03*
%TO.P,U2,25,A8*%
%TO.N,/A8*%
X151140000Y-53325000D03*
%TO.P,U2,26,A13*%
%TO.N,/A13*%
X151140000Y-50785000D03*
%TO.P,U2,27,~{WE}*%
%TO.N,/{slash}WR*%
X151140000Y-48245000D03*
%TO.P,U2,28,VCC*%
%TO.N,+5V*%
X151140000Y-45705000D03*
%TD*%
D31*
%TO.N,/{slash}WR*%
X136245600Y-97104200D03*
X125044200Y-96240600D03*
X177393600Y-103530400D03*
%TO.N,/{slash}RD*%
X172172380Y-95061020D03*
D32*
%TO.N,/D6*%
X159308800Y-69926200D03*
X159512000Y-68275200D03*
D31*
%TO.N,+5V*%
X151460200Y-42545000D03*
%TO.N,/MEMAQ*%
X187045600Y-116738400D03*
X188036200Y-59613800D03*
%TO.N,/{slash}CS_ROM_LOW*%
X148285200Y-124942600D03*
X149047200Y-106070400D03*
%TO.N,/{slash}CS_RAM_HIGH*%
X147419461Y-118467739D03*
%TO.N,Net-(U7-Pad10)*%
X153644539Y-122149980D03*
X153644539Y-126263400D03*
%TO.N,Net-(U6-Pad8)*%
X166407500Y-123367800D03*
X166878000Y-130835400D03*
%TO.N,+5V*%
X140039520Y-111083520D03*
X180848000Y-97536000D03*
X82296000Y-136576500D03*
X97536000Y-136144000D03*
X123444000Y-42672000D03*
X139700000Y-136144000D03*
X149340536Y-99060083D03*
X149352000Y-136144000D03*
X52324000Y-128524000D03*
X165608000Y-136576500D03*
X64516000Y-42239500D03*
X162560000Y-96520000D03*
X152739520Y-71967520D03*
D32*
%TO.N,/D4*%
X73660000Y-89792980D03*
X118302800Y-53340000D03*
X164592000Y-60960000D03*
X118302800Y-81280000D03*
X125984000Y-77724000D03*
X74737211Y-100076000D03*
X147317420Y-77120580D03*
X147320000Y-59961820D03*
X164348303Y-76708000D03*
X117348000Y-99060000D03*
%TO.N,/D5*%
X117774400Y-78740000D03*
X74208811Y-102616000D03*
X73660000Y-92964000D03*
X153967420Y-73660000D03*
X125984000Y-75184000D03*
X117760764Y-53868400D03*
X116840000Y-100584000D03*
X153924000Y-80397020D03*
X153968190Y-64033400D03*
%TO.N,/D6*%
X73660000Y-96520000D03*
X117232364Y-55372000D03*
X125984000Y-72136000D03*
X178816000Y-80772000D03*
X73680400Y-105664000D03*
X178816000Y-68072000D03*
X117232364Y-76708000D03*
X116332000Y-103124000D03*
%TO.N,/D7*%
X154432000Y-75184000D03*
X73152000Y-97536000D03*
X125984000Y-67564000D03*
X179344400Y-76708000D03*
X116703964Y-74168000D03*
X179347675Y-81303675D03*
X73660000Y-108204000D03*
X114808000Y-105664000D03*
X154496590Y-68580000D03*
X116703964Y-57343180D03*
D31*
%TO.N,GND*%
X146344000Y-63968000D03*
X41148000Y-57404000D03*
X161036000Y-104648000D03*
X59476000Y-52872000D03*
X130556000Y-83312000D03*
X59476000Y-115356000D03*
X169991480Y-67244520D03*
X170180000Y-73660000D03*
D32*
%TO.N,/CLK_CPU*%
X174244000Y-86868000D03*
X177292000Y-136144000D03*
X85852000Y-131572000D03*
X174244000Y-58420000D03*
%TO.N,/A0*%
X105943480Y-74168000D03*
X94996000Y-64008000D03*
X111252000Y-69088000D03*
X156220097Y-72136000D03*
X105943480Y-63500000D03*
X178308000Y-63500000D03*
X94488000Y-125476000D03*
X155956000Y-70075580D03*
%TO.N,/A1*%
X156972000Y-72136000D03*
X156972000Y-69575600D03*
X145644500Y-68072000D03*
X111252000Y-66548000D03*
X93431189Y-122936000D03*
X112776000Y-58928000D03*
X94488000Y-60960000D03*
X112776000Y-65024000D03*
%TO.N,/D0*%
X163068000Y-65532000D03*
X76708000Y-108712000D03*
X105943480Y-76708000D03*
X94488000Y-119380000D03*
X147848400Y-75201820D03*
X111252000Y-71628000D03*
X94639589Y-108204000D03*
X147848400Y-71120000D03*
X120904000Y-46228000D03*
X75184000Y-80264000D03*
X121323980Y-70523980D03*
%TO.N,/D1*%
X74676000Y-82804000D03*
X111252000Y-74168000D03*
X141224000Y-80772000D03*
X119888000Y-46253400D03*
X76200000Y-106172000D03*
X120436420Y-73111580D03*
X105415080Y-79781440D03*
X95944000Y-105664000D03*
X163819903Y-65532000D03*
X95504000Y-124968000D03*
X141196580Y-72661820D03*
%TO.N,/D2*%
X104886680Y-81833840D03*
X111252000Y-76708000D03*
X74168000Y-85344000D03*
X119359600Y-47281820D03*
X75692000Y-103632000D03*
X120355580Y-75651580D03*
X145288000Y-73660000D03*
%TO.N,/D3*%
X120396000Y-84328000D03*
X118831200Y-50292000D03*
X153439020Y-62992000D03*
X164348303Y-74676000D03*
X73660000Y-88392000D03*
X153439020Y-78740000D03*
X125984000Y-80264000D03*
X163576000Y-63500000D03*
X104358280Y-85852000D03*
X75184000Y-101092000D03*
D31*
%TO.N,Net-(Q1-Pad2)*%
X69088000Y-108712000D03*
%TO.N,Net-(Q2-Pad2)*%
X66040000Y-131064000D03*
X66548000Y-104140000D03*
D32*
%TO.N,/A14*%
X186456400Y-54356000D03*
X145644500Y-51308000D03*
X185420000Y-99060000D03*
%TO.N,/A12*%
X184127877Y-50241858D03*
X184912000Y-94488000D03*
X109728000Y-49276000D03*
%TO.N,/A7*%
X182501836Y-82186564D03*
X111252000Y-52324000D03*
X181356000Y-53848000D03*
%TO.N,/A6*%
X181864000Y-81280000D03*
X181356000Y-55880000D03*
X111252000Y-54864000D03*
%TO.N,/A5*%
X114808000Y-61468000D03*
X114808000Y-56388000D03*
X180340000Y-58420000D03*
X179872800Y-78232000D03*
%TO.N,/A4*%
X179865072Y-74710455D03*
X111252000Y-57912000D03*
X129032000Y-57912000D03*
X179832000Y-60960000D03*
%TO.N,/A3*%
X179832000Y-62992000D03*
X148844000Y-62597020D03*
X128564420Y-60411580D03*
X111252000Y-61468000D03*
X148376811Y-60960000D03*
X179344400Y-74168000D03*
%TO.N,/A2*%
X145288000Y-65532000D03*
X129032000Y-62992000D03*
X170690980Y-69088000D03*
X179453847Y-66802000D03*
X171196000Y-66040000D03*
X179453836Y-71737436D03*
X148844000Y-67008180D03*
X147848400Y-65532000D03*
X111252000Y-64008000D03*
%TO.N,/A10*%
X184404000Y-88392000D03*
X126002544Y-64534544D03*
X148036011Y-63291989D03*
X147043500Y-46252620D03*
%TO.N,/A11*%
X140739020Y-59340580D03*
X177292000Y-44196000D03*
X125496400Y-59436000D03*
X140716000Y-46592980D03*
X184912000Y-91440000D03*
X161544000Y-44100580D03*
%TO.N,/A9*%
X153439020Y-48260000D03*
X183388000Y-86360000D03*
X153439020Y-55372000D03*
X125984000Y-56896000D03*
%TO.N,/A8*%
X183388000Y-83820000D03*
X153967420Y-53340000D03*
X127615580Y-52724420D03*
X153967420Y-50276600D03*
X179832000Y-51308000D03*
%TO.N,/A13*%
X184912000Y-97536000D03*
X124968000Y-48773400D03*
X185968811Y-52832000D03*
D31*
%TO.N,Net-(C5-Pad2)*%
X58420000Y-68580000D03*
%TO.N,Net-(J4-Pad3)*%
X60452000Y-61976000D03*
X60452000Y-58420000D03*
%TO.N,Net-(J4-Pad2)*%
X60452000Y-55880000D03*
X60275500Y-67056000D03*
D32*
%TO.N,/A15*%
X186964400Y-57404000D03*
X186436000Y-102108000D03*
X157480000Y-88392000D03*
X155956000Y-55880000D03*
D31*
%TO.N,/LED_HALT*%
X53986478Y-117971522D03*
%TO.N,/{slash}WR*%
X134443500Y-89408000D03*
X184912000Y-104140000D03*
X134620000Y-48260000D03*
X182880000Y-91440000D03*
%TO.N,/{slash}RESET*%
X97536000Y-98384000D03*
X102108000Y-86360000D03*
X127035081Y-85004011D03*
X96520000Y-128016000D03*
%TO.N,/{slash}INT*%
X86528000Y-128524000D03*
X85684000Y-88392000D03*
%TO.N,/{slash}NMI*%
X163084491Y-91439940D03*
%TO.N,/{slash}M1*%
X175844031Y-95609574D03*
X83014980Y-96012000D03*
X80264000Y-82804000D03*
X80739980Y-96012000D03*
X80772000Y-63500000D03*
%TO.N,/{slash}WAIT*%
X178816000Y-97028000D03*
%TO.N,/{slash}HALT*%
X109220000Y-115824000D03*
X62484000Y-120904000D03*
X61976000Y-114300000D03*
X159004000Y-100076000D03*
X110236000Y-103124000D03*
%TO.N,/{slash}RD*%
X95844000Y-112776000D03*
X135128000Y-61468000D03*
X135128000Y-93472000D03*
X126077459Y-62031566D03*
X185420000Y-103124000D03*
X135468000Y-109220000D03*
X136652000Y-94772980D03*
X183896000Y-93472000D03*
%TO.N,/{slash}BUSREQ*%
X180848000Y-105664000D03*
%TO.N,/{slash}MREQ*%
X160528000Y-108204000D03*
%TO.N,/{slash}BUSACK*%
X180340000Y-106680000D03*
%TO.N,/{slash}IOREQ*%
X87544000Y-122936000D03*
X87544000Y-109220000D03*
X86868000Y-55372000D03*
X153539020Y-106680000D03*
X153539020Y-94385020D03*
%TO.N,/IEO_SIO*%
X114808000Y-107188000D03*
X128016000Y-107188000D03*
X115824000Y-61976000D03*
X128524000Y-110236000D03*
%TO.N,/{slash}CS_RAM_LOW*%
X140839020Y-66860580D03*
%TO.N,/{slash}CS_RAM_HIGH*%
X147320000Y-82296000D03*
X136652000Y-80772000D03*
%TO.N,/{slash}CS_ROM_LOW*%
X110236000Y-105156000D03*
X111252000Y-51308000D03*
%TO.N,/ROM_BANK_SEL*%
X128356000Y-128524000D03*
X126677399Y-71299794D03*
%TO.N,/MEM8000*%
X153416000Y-93182020D03*
%TO.N,/MEM4000*%
X141732000Y-93472000D03*
%TO.N,/MEM0000*%
X154432000Y-134112000D03*
%TO.N,/{slash}CS_RAM_LOW_1*%
X145288000Y-122936000D03*
%TO.N,/{slash}RAMSEL*%
X129032000Y-121920000D03*
%TO.N,/{slash}CS_BANK*%
X136144000Y-99060000D03*
X135636000Y-122936000D03*
%TO.N,/{slash}CS_SIO*%
X95844000Y-95504000D03*
%TO.N,/{slash}CS_CTC*%
X134112000Y-131064000D03*
X136368005Y-93755995D03*
%TO.N,/{slash}CS_DIP*%
X61976000Y-91440000D03*
%TO.N,Net-(U13-Pad7)*%
X79487989Y-79248000D03*
X80739980Y-115824000D03*
%TO.N,Net-(U13-Pad8)*%
X88900000Y-79248000D03*
X88392000Y-117856000D03*
%TO.N,/IEO_CTC*%
X81415980Y-125984000D03*
%TO.N,Net-(U14-Pad12)*%
X75692000Y-71120000D03*
X77039500Y-60960000D03*
%TO.N,Net-(U14-Pad15)*%
X78232000Y-63500000D03*
X78740000Y-80772000D03*
%TO.N,Net-(U14-Pad16)*%
X78232000Y-81788000D03*
X78064000Y-67564000D03*
%TO.N,Net-(U14-Pad18)*%
X77216000Y-70612000D03*
X78811989Y-87884000D03*
X63500000Y-70612000D03*
%TD*%
D33*
%TO.N,/{slash}WR*%
X126404070Y-97600470D02*
X125044200Y-96240600D01*
X135749330Y-97600470D02*
X126404070Y-97600470D01*
X136245600Y-97104200D02*
X135749330Y-97600470D01*
%TO.N,+5V*%
X165745800Y-113106200D02*
X164044000Y-114808000D01*
X168605200Y-113106200D02*
X165745800Y-113106200D01*
X172583539Y-114081661D02*
X173559000Y-113106200D01*
X169580661Y-114081661D02*
X172583539Y-114081661D01*
X168605200Y-113106200D02*
X169580661Y-114081661D01*
%TO.N,/{slash}WR*%
X178003200Y-104140000D02*
X184912000Y-104140000D01*
X177393600Y-103530400D02*
X178003200Y-104140000D01*
D34*
%TO.N,/{slash}RD*%
X175448980Y-95061020D02*
X172172380Y-95061020D01*
X172172380Y-95061020D02*
X136717020Y-95061020D01*
D33*
%TO.N,/A1*%
X156943569Y-69547169D02*
X156972000Y-69575600D01*
X155737124Y-69547169D02*
X156943569Y-69547169D01*
%TO.N,/D6*%
X159231011Y-70003989D02*
X158050301Y-70003989D01*
X159308800Y-69926200D02*
X159231011Y-70003989D01*
X159821800Y-68585000D02*
X161285000Y-68585000D01*
X159512000Y-68275200D02*
X159821800Y-68585000D01*
D35*
%TO.N,+5V*%
X151460200Y-42545000D02*
X151460200Y-40716200D01*
D33*
%TO.N,/MEMAQ*%
X172491400Y-116738400D02*
X169875200Y-119354600D01*
X187045600Y-116738400D02*
X172491400Y-116738400D01*
X188375461Y-59274539D02*
X188036200Y-59613800D01*
X191729539Y-59274539D02*
X188375461Y-59274539D01*
X192780000Y-60325000D02*
X191729539Y-59274539D01*
%TO.N,/{slash}CS_ROM_LOW*%
X148285200Y-124942600D02*
X148432600Y-125090000D01*
X148432600Y-125090000D02*
X151140000Y-125090000D01*
X148585780Y-105608980D02*
X149047200Y-106070400D01*
X115768980Y-105608980D02*
X148585780Y-105608980D01*
%TO.N,/{slash}CS_RAM_HIGH*%
X147886252Y-118934530D02*
X147419461Y-118467739D01*
X162764530Y-118934530D02*
X147886252Y-118934530D01*
X163840000Y-120010000D02*
X162764530Y-118934530D01*
%TO.N,/MEMAQ*%
X152215470Y-121085470D02*
X168144330Y-121085470D01*
X168144330Y-121085470D02*
X169875200Y-119354600D01*
X151140000Y-120010000D02*
X152215470Y-121085470D01*
%TO.N,Net-(U7-Pad10)*%
X153244519Y-122550000D02*
X151140000Y-122550000D01*
X162764530Y-126554530D02*
X153935669Y-126554530D01*
X153644539Y-122149980D02*
X153244519Y-122550000D01*
X163840000Y-127630000D02*
X162764530Y-126554530D01*
X153935669Y-126554530D02*
X153644539Y-126263400D01*
%TO.N,Net-(U6-Pad8)*%
X166407500Y-123367800D02*
X165589700Y-122550000D01*
X166078870Y-131634530D02*
X166878000Y-130835400D01*
X165589700Y-122550000D02*
X163840000Y-122550000D01*
X152215470Y-131634530D02*
X166078870Y-131634530D01*
X151140000Y-132710000D02*
X152215470Y-131634530D01*
D36*
%TO.N,+5V*%
X43230000Y-49226000D02*
X47244000Y-45212000D01*
X139192000Y-138176000D02*
X148844000Y-138176000D01*
D34*
X56525000Y-74935000D02*
X64145000Y-74935000D01*
X130820000Y-125090000D02*
X133360000Y-127630000D01*
D35*
X161285000Y-71125000D02*
X158541000Y-71125000D01*
X81240000Y-66040000D02*
X83810000Y-66040000D01*
D36*
X138684000Y-40640000D02*
X123444000Y-40640000D01*
X40386000Y-122174000D02*
X43180000Y-119380000D01*
X39624000Y-126492000D02*
X39624000Y-122174000D01*
D35*
X97536000Y-136144000D02*
X97536000Y-138176000D01*
X153627040Y-71080000D02*
X152739520Y-71967520D01*
D36*
X39320000Y-92065000D02*
X39320000Y-94605000D01*
X152400000Y-138176000D02*
X165100000Y-138176000D01*
D35*
X99055000Y-110475000D02*
X101401000Y-110475000D01*
D34*
X46268000Y-107696000D02*
X42164000Y-107696000D01*
D36*
X39320000Y-102225000D02*
X39320000Y-106376000D01*
D33*
X51571461Y-129276539D02*
X52324000Y-128524000D01*
D34*
X162728011Y-96351989D02*
X162560000Y-96520000D01*
D36*
X181102000Y-125222000D02*
X181102000Y-138176000D01*
D34*
X133360000Y-127630000D02*
X138440000Y-127630000D01*
D35*
X158496000Y-71080000D02*
X153627040Y-71080000D01*
D36*
X186553349Y-41519349D02*
X192793521Y-47759521D01*
D35*
X55087511Y-124540489D02*
X53848000Y-125780000D01*
D36*
X171958000Y-124714000D02*
X172974000Y-123698000D01*
D34*
X180848000Y-97536000D02*
X179663989Y-96351989D01*
D35*
X64145000Y-125740000D02*
X62945489Y-124540489D01*
D36*
X43180000Y-110236000D02*
X41402000Y-108458000D01*
X39624000Y-122174000D02*
X40386000Y-122174000D01*
X39624000Y-138176000D02*
X82296000Y-138176000D01*
D35*
X138644000Y-40680000D02*
X138684000Y-40640000D01*
D34*
X65190379Y-47545621D02*
X64476000Y-48260000D01*
D35*
X83810000Y-66040000D02*
X83815000Y-66045000D01*
D36*
X39320000Y-49226000D02*
X39320000Y-84445000D01*
X184267349Y-46355000D02*
X184267349Y-41519349D01*
D35*
X101401000Y-110475000D02*
X101640000Y-110236000D01*
D36*
X39320000Y-106376000D02*
X41402000Y-108458000D01*
X195326000Y-47759521D02*
X196850000Y-49283521D01*
D35*
X82296000Y-136576500D02*
X82296000Y-138176000D01*
X156260000Y-83820000D02*
X151344000Y-83820000D01*
X123282500Y-51200000D02*
X127576000Y-51200000D01*
X139700000Y-137668000D02*
X139192000Y-138176000D01*
D36*
X179578000Y-123698000D02*
X181102000Y-125222000D01*
D35*
X158541000Y-71125000D02*
X158496000Y-71080000D01*
D34*
X122555000Y-109220000D02*
X124418520Y-111083520D01*
D36*
X43180000Y-119380000D02*
X43180000Y-110236000D01*
X181102000Y-138176000D02*
X165100000Y-138176000D01*
X39320000Y-84445000D02*
X39320000Y-86985000D01*
X39320000Y-49226000D02*
X43230000Y-49226000D01*
X196850000Y-49283521D02*
X196850000Y-128672655D01*
X82296000Y-138176000D02*
X97536000Y-138176000D01*
D34*
X179663989Y-96351989D02*
X162728011Y-96351989D01*
D36*
X39624000Y-126492000D02*
X39624000Y-138176000D01*
D34*
X143520000Y-99050000D02*
X149330453Y-99050000D01*
D36*
X39320000Y-86985000D02*
X39320000Y-89525000D01*
X97536000Y-138176000D02*
X139192000Y-138176000D01*
D33*
X47996539Y-129276539D02*
X51571461Y-129276539D01*
D36*
X195728655Y-138176000D02*
X181102000Y-138176000D01*
D34*
X42164000Y-107696000D02*
X41402000Y-108458000D01*
D35*
X127576000Y-51200000D02*
X128016000Y-50760000D01*
D36*
X39320000Y-97145000D02*
X39320000Y-94605000D01*
X171958000Y-125778000D02*
X171958000Y-124714000D01*
D35*
X165608000Y-137668000D02*
X165100000Y-138176000D01*
X139700000Y-136144000D02*
X139700000Y-137668000D01*
D36*
X183388000Y-40640000D02*
X151384000Y-40640000D01*
D35*
X149352000Y-137668000D02*
X148844000Y-138176000D01*
D36*
X184267349Y-41519349D02*
X186553349Y-41519349D01*
X172974000Y-123698000D02*
X179578000Y-123698000D01*
X65024000Y-40640000D02*
X47244000Y-40640000D01*
D34*
X149330453Y-99050000D02*
X149340536Y-99060083D01*
D35*
X165608000Y-136576500D02*
X165608000Y-137668000D01*
D36*
X39320000Y-99685000D02*
X39320000Y-97145000D01*
D35*
X64516000Y-41148000D02*
X65024000Y-40640000D01*
X138644000Y-43180000D02*
X138644000Y-40680000D01*
X64516000Y-42239500D02*
X64516000Y-41148000D01*
D34*
X124418520Y-111083520D02*
X140039520Y-111083520D01*
D36*
X47244000Y-45212000D02*
X47244000Y-40640000D01*
X184267349Y-41519349D02*
X183388000Y-40640000D01*
X192793521Y-47759521D02*
X195326000Y-47759521D01*
X192645479Y-135092824D02*
X195728655Y-138176000D01*
X151384000Y-40640000D02*
X138684000Y-40640000D01*
X148844000Y-138176000D02*
X152400000Y-138176000D01*
D35*
X123444000Y-42672000D02*
X123444000Y-40640000D01*
D33*
X47498000Y-128778000D02*
X47996539Y-129276539D01*
D35*
X62945489Y-124540489D02*
X55087511Y-124540489D01*
D36*
X39320000Y-89525000D02*
X39320000Y-92065000D01*
X39320000Y-102225000D02*
X39320000Y-99685000D01*
X196850000Y-128672655D02*
X192645479Y-132877176D01*
D34*
X69088000Y-47545621D02*
X65190379Y-47545621D01*
D36*
X123444000Y-40640000D02*
X65024000Y-40640000D01*
D35*
X149352000Y-136144000D02*
X149352000Y-137668000D01*
D36*
X192645479Y-132877176D02*
X192645479Y-135092824D01*
D34*
%TO.N,/D4*%
X139468420Y-77213420D02*
X150111580Y-77213420D01*
X138440000Y-76185000D02*
X139468420Y-77213420D01*
X126059020Y-77648980D02*
X125984000Y-77724000D01*
X164587000Y-60965000D02*
X161285000Y-60965000D01*
X150162340Y-59738340D02*
X147543480Y-59738340D01*
X99055000Y-50805000D02*
X100446011Y-52196011D01*
X138440000Y-76185000D02*
X136976020Y-77648980D01*
X64145000Y-90175000D02*
X65273000Y-90175000D01*
X150111580Y-77213420D02*
X151140000Y-76185000D01*
X74976211Y-100315000D02*
X83815000Y-100315000D01*
X83815000Y-100315000D02*
X90693000Y-100315000D01*
X90693000Y-100315000D02*
X91948000Y-99060000D01*
X73275020Y-89408000D02*
X73660000Y-89792980D01*
X161285000Y-60965000D02*
X160058340Y-59738340D01*
X110376724Y-52196011D02*
X111520713Y-53340000D01*
X147543480Y-59738340D02*
X147320000Y-59961820D01*
X65273000Y-90175000D02*
X66040000Y-89408000D01*
X190240000Y-75565000D02*
X188136020Y-77668980D01*
X91948000Y-99060000D02*
X117348000Y-99060000D01*
X188136020Y-77668980D02*
X175823020Y-77668980D01*
X100446011Y-52196011D02*
X110376724Y-52196011D01*
X165309283Y-77668980D02*
X164348303Y-76708000D01*
X136976020Y-77648980D02*
X126059020Y-77648980D01*
X118302800Y-81280000D02*
X118702800Y-81680000D01*
X118702800Y-81680000D02*
X123282500Y-81680000D01*
X74737211Y-100076000D02*
X74976211Y-100315000D01*
X111520713Y-53340000D02*
X118302800Y-53340000D01*
X175823020Y-77668980D02*
X165309283Y-77668980D01*
X66040000Y-89408000D02*
X73275020Y-89408000D01*
X160058340Y-59738340D02*
X150162340Y-59738340D01*
X164592000Y-60960000D02*
X164587000Y-60965000D01*
%TO.N,/D5*%
X150111580Y-74673420D02*
X151140000Y-73645000D01*
X126494580Y-74673420D02*
X125984000Y-75184000D01*
X99652198Y-51833420D02*
X100478033Y-52659255D01*
X83815000Y-102855000D02*
X90693000Y-102855000D01*
X154064440Y-80256580D02*
X153924000Y-80397020D01*
X110408746Y-52659255D02*
X111617891Y-53868400D01*
X116080580Y-101343420D02*
X116840000Y-100584000D01*
X117774400Y-78740000D02*
X118174400Y-79140000D01*
X64145000Y-92715000D02*
X73411000Y-92715000D01*
X161285000Y-66045000D02*
X159273400Y-64033400D01*
X90693000Y-102855000D02*
X92204580Y-101343420D01*
X153952420Y-73645000D02*
X151140000Y-73645000D01*
X159273400Y-64033400D02*
X153968190Y-64033400D01*
X73411000Y-92715000D02*
X73660000Y-92964000D01*
X173736000Y-80264000D02*
X173728580Y-80256580D01*
X173791020Y-80208980D02*
X173736000Y-80264000D01*
X92204580Y-101343420D02*
X116080580Y-101343420D01*
X137411580Y-74673420D02*
X126494580Y-74673420D01*
X138440000Y-73645000D02*
X137411580Y-74673420D01*
X74447811Y-102855000D02*
X83815000Y-102855000D01*
X173728580Y-80256580D02*
X154064440Y-80256580D01*
X139468420Y-74673420D02*
X150111580Y-74673420D01*
X100478033Y-52659255D02*
X110408746Y-52659255D01*
X111617891Y-53868400D02*
X117760764Y-53868400D01*
X153967420Y-73660000D02*
X153952420Y-73645000D01*
X83815000Y-50805000D02*
X84843420Y-51833420D01*
X118174400Y-79140000D02*
X123282500Y-79140000D01*
X188136020Y-80208980D02*
X173791020Y-80208980D01*
X138440000Y-73645000D02*
X139468420Y-74673420D01*
X84843420Y-51833420D02*
X99652198Y-51833420D01*
X74208811Y-102616000D02*
X74447811Y-102855000D01*
X190240000Y-78105000D02*
X188136020Y-80208980D01*
%TO.N,/D6*%
X139468420Y-72133420D02*
X150111580Y-72133420D01*
X114279589Y-55392411D02*
X114300000Y-55372000D01*
X64145000Y-95255000D02*
X72395000Y-95255000D01*
X161285000Y-68585000D02*
X169607024Y-68585000D01*
X158050301Y-70003989D02*
X157450310Y-70603980D01*
X170635444Y-67556580D02*
X178300580Y-67556580D01*
X137411580Y-72133420D02*
X125986580Y-72133420D01*
X83815000Y-105395000D02*
X90693000Y-105395000D01*
X169607024Y-68585000D02*
X170635444Y-67556580D01*
X90693000Y-105395000D02*
X92204580Y-103883420D01*
X115572580Y-103883420D02*
X116332000Y-103124000D01*
X138440000Y-71105000D02*
X137411580Y-72133420D01*
X150111580Y-72133420D02*
X151140000Y-71105000D01*
X111033124Y-55392411D02*
X114279589Y-55392411D01*
X178943000Y-80645000D02*
X178816000Y-80772000D01*
X73949400Y-105395000D02*
X83815000Y-105395000D01*
X73680400Y-105664000D02*
X73949400Y-105395000D01*
X138440000Y-71105000D02*
X139468420Y-72133420D01*
X125986580Y-72133420D02*
X125984000Y-72136000D01*
X99055000Y-53345000D02*
X100792876Y-55082876D01*
X92204580Y-103883420D02*
X115572580Y-103883420D01*
X100792876Y-55082876D02*
X110723589Y-55082876D01*
X157450310Y-70603980D02*
X151641020Y-70603980D01*
X110723589Y-55082876D02*
X111033124Y-55392411D01*
X117340364Y-76600000D02*
X123282500Y-76600000D01*
X178300580Y-67556580D02*
X178816000Y-68072000D01*
X190240000Y-80645000D02*
X178943000Y-80645000D01*
X72395000Y-95255000D02*
X73660000Y-96520000D01*
X117232364Y-76708000D02*
X117340364Y-76600000D01*
X151641020Y-70603980D02*
X151140000Y-71105000D01*
X114300000Y-55372000D02*
X117232364Y-55372000D01*
%TO.N,/D7*%
X91146160Y-107935000D02*
X92174580Y-106906580D01*
X150111580Y-67536580D02*
X139468420Y-67536580D01*
X179344400Y-76708000D02*
X178771380Y-77281020D01*
X182753000Y-83185000D02*
X181864000Y-82296000D01*
X180871675Y-81303675D02*
X179347675Y-81303675D01*
X161310411Y-76179589D02*
X161285000Y-76205000D01*
X73929000Y-107935000D02*
X83815000Y-107935000D01*
X116703964Y-74168000D02*
X116811964Y-74060000D01*
X155453000Y-76205000D02*
X154432000Y-75184000D01*
X154496590Y-68580000D02*
X154481590Y-68565000D01*
X139468420Y-67536580D02*
X138440000Y-68565000D01*
X83815000Y-107935000D02*
X91146160Y-107935000D01*
X83815000Y-53345000D02*
X87698420Y-57228420D01*
X154481590Y-68565000D02*
X151140000Y-68565000D01*
X151140000Y-68565000D02*
X150111580Y-67536580D01*
X164567179Y-76179589D02*
X161310411Y-76179589D01*
X64145000Y-97795000D02*
X72893000Y-97795000D01*
X116589204Y-57228420D02*
X116703964Y-57343180D01*
X92174580Y-106906580D02*
X113565420Y-106906580D01*
X161285000Y-76205000D02*
X155453000Y-76205000D01*
X126011420Y-67536580D02*
X125984000Y-67564000D01*
X87698420Y-57228420D02*
X116589204Y-57228420D01*
X72893000Y-97795000D02*
X73152000Y-97536000D01*
X113565420Y-106906580D02*
X114808000Y-105664000D01*
X73660000Y-108204000D02*
X73929000Y-107935000D01*
X138440000Y-68565000D02*
X137411580Y-67536580D01*
X190240000Y-83185000D02*
X182753000Y-83185000D01*
X178771380Y-77281020D02*
X165668610Y-77281020D01*
X165668610Y-77281020D02*
X164567179Y-76179589D01*
X116811964Y-74060000D02*
X123282500Y-74060000D01*
X137411580Y-67536580D02*
X126011420Y-67536580D01*
X181864000Y-82296000D02*
X180871675Y-81303675D01*
%TO.N,GND*%
X70485000Y-112345000D02*
X67071020Y-115758980D01*
X59934000Y-53330000D02*
X59476000Y-52872000D01*
D33*
X48554539Y-122976539D02*
X43393461Y-122976539D01*
D35*
X170180000Y-73660000D02*
X170185000Y-73665000D01*
X130556000Y-83312000D02*
X133136000Y-83312000D01*
D33*
X43393461Y-122976539D02*
X42418000Y-123952000D01*
D35*
X161036000Y-104648000D02*
X175768000Y-104648000D01*
D33*
X55060470Y-127204530D02*
X56525000Y-125740000D01*
D34*
X129738989Y-108143989D02*
X130820000Y-109225000D01*
X70485000Y-112120000D02*
X70485000Y-112345000D01*
D33*
X49530000Y-123952000D02*
X48554539Y-122976539D01*
D35*
X76255480Y-118034520D02*
X57865480Y-118034520D01*
X83815000Y-110475000D02*
X85100000Y-111760000D01*
X147201480Y-64825480D02*
X146344000Y-63968000D01*
X85100000Y-111760000D02*
X105116000Y-111760000D01*
D34*
X67071020Y-115758980D02*
X59878980Y-115758980D01*
D35*
X158496000Y-66080000D02*
X157241480Y-64825480D01*
X41217000Y-57335000D02*
X41148000Y-57404000D01*
X83815000Y-110475000D02*
X76255480Y-118034520D01*
D33*
X50800000Y-127548000D02*
X51143470Y-127204530D01*
D34*
X106640000Y-110236000D02*
X108732011Y-108143989D01*
X64145000Y-53330000D02*
X59934000Y-53330000D01*
D35*
X51075331Y-57335000D02*
X41217000Y-57335000D01*
D34*
X59878980Y-115758980D02*
X59476000Y-115356000D01*
X75898379Y-66381621D02*
X76240000Y-66040000D01*
D35*
X157241480Y-64825480D02*
X147201480Y-64825480D01*
X158496000Y-66080000D02*
X159660520Y-67244520D01*
X105116000Y-111760000D02*
X106640000Y-110236000D01*
D34*
X69088000Y-66381621D02*
X75898379Y-66381621D01*
D35*
X159660520Y-67244520D02*
X170104520Y-67244520D01*
X57865480Y-118034520D02*
X56525000Y-119375000D01*
D33*
X51143470Y-127204530D02*
X55060470Y-127204530D01*
D35*
X175768000Y-104648000D02*
X177800000Y-106680000D01*
X133136000Y-83312000D02*
X133644000Y-83820000D01*
D34*
X108732011Y-108143989D02*
X129738989Y-108143989D01*
D35*
X170185000Y-73665000D02*
X176525000Y-73665000D01*
D34*
%TO.N,/CLK_CPU*%
X189465000Y-87490000D02*
X174866000Y-87490000D01*
X87615000Y-133335000D02*
X99055000Y-133335000D01*
X174244000Y-58420000D02*
X174239000Y-58425000D01*
X176615989Y-135467989D02*
X101187989Y-135467989D01*
X177292000Y-136144000D02*
X176615989Y-135467989D01*
X101187989Y-135467989D02*
X99055000Y-133335000D01*
X85852000Y-131572000D02*
X87615000Y-133335000D01*
X174866000Y-87490000D02*
X174244000Y-86868000D01*
X190240000Y-88265000D02*
X189465000Y-87490000D01*
X174239000Y-58425000D02*
X161285000Y-58425000D01*
%TO.N,/A0*%
X94488000Y-125476000D02*
X94727000Y-125715000D01*
X145031580Y-70076580D02*
X151356580Y-70076580D01*
X131848420Y-69593420D02*
X130820000Y-68565000D01*
X143520000Y-68565000D02*
X145031580Y-70076580D01*
X168570580Y-72729420D02*
X170180000Y-71120000D01*
X151356580Y-70076580D02*
X151384000Y-70076580D01*
X142491580Y-69593420D02*
X131848420Y-69593420D01*
X156220097Y-72136000D02*
X156748508Y-72664411D01*
X163576000Y-72729420D02*
X168570580Y-72729420D01*
X163483160Y-72636580D02*
X163576000Y-72729420D01*
X105938480Y-63505000D02*
X105943480Y-63500000D01*
X160431184Y-72664411D02*
X160459015Y-72636580D01*
X155955000Y-70076580D02*
X155956000Y-70075580D01*
X99055000Y-63505000D02*
X95499000Y-63505000D01*
X160459015Y-72636580D02*
X163483160Y-72636580D01*
X151384000Y-70076580D02*
X155955000Y-70076580D01*
X130820000Y-68565000D02*
X124488768Y-68565000D01*
X123487768Y-67564000D02*
X112776000Y-67564000D01*
X156748508Y-72664411D02*
X160431184Y-72664411D01*
X170180000Y-71120000D02*
X170185000Y-71125000D01*
X112776000Y-67564000D02*
X111252000Y-69088000D01*
X192780000Y-65405000D02*
X191291011Y-63916011D01*
X105943480Y-74168000D02*
X106051480Y-74060000D01*
X124488768Y-68565000D02*
X123487768Y-67564000D01*
X99055000Y-63505000D02*
X105938480Y-63505000D01*
X95499000Y-63505000D02*
X94996000Y-64008000D01*
X94727000Y-125715000D02*
X99055000Y-125715000D01*
X106051480Y-74060000D02*
X108042500Y-74060000D01*
X191291011Y-63916011D02*
X178724011Y-63916011D01*
X178724011Y-63916011D02*
X178308000Y-63500000D01*
X170185000Y-71125000D02*
X176525000Y-71125000D01*
X143520000Y-68565000D02*
X142491580Y-69593420D01*
%TO.N,/A1*%
X145644500Y-68072000D02*
X147165920Y-69593420D01*
X177028000Y-69088000D02*
X176525000Y-68585000D01*
X93670189Y-123175000D02*
X93431189Y-122936000D01*
X111292420Y-60411580D02*
X112776000Y-58928000D01*
X168590980Y-72201020D02*
X172212000Y-68580000D01*
X112776000Y-65024000D02*
X123555084Y-65024000D01*
X112776000Y-65024000D02*
X111252000Y-66548000D01*
X155690873Y-69593420D02*
X155737124Y-69547169D01*
X156972000Y-72136000D02*
X157037020Y-72201020D01*
X157037020Y-72201020D02*
X168590980Y-72201020D01*
X94493000Y-60965000D02*
X99055000Y-60965000D01*
X172217000Y-68585000D02*
X176525000Y-68585000D01*
X123555084Y-65024000D02*
X124556084Y-66025000D01*
X192780000Y-67945000D02*
X191637000Y-69088000D01*
X131896020Y-64948980D02*
X142443980Y-64948980D01*
X99608420Y-60411580D02*
X111292420Y-60411580D01*
X124556084Y-66025000D02*
X130820000Y-66025000D01*
X99055000Y-123175000D02*
X93670189Y-123175000D01*
X94488000Y-60960000D02*
X94493000Y-60965000D01*
X142443980Y-64948980D02*
X143520000Y-66025000D01*
X99055000Y-60965000D02*
X99608420Y-60411580D01*
X147165920Y-69593420D02*
X155690873Y-69593420D01*
X191637000Y-69088000D02*
X177028000Y-69088000D01*
X130820000Y-66025000D02*
X131896020Y-64948980D01*
X172212000Y-68580000D02*
X172217000Y-68585000D01*
%TO.N,/D0*%
X91912080Y-108239920D02*
X91948000Y-108204000D01*
X130820000Y-71105000D02*
X130238980Y-70523980D01*
X121323980Y-70523980D02*
X112356020Y-70523980D01*
X76959420Y-108963420D02*
X86616580Y-108963420D01*
X112356020Y-70523980D02*
X111252000Y-71628000D01*
X106051480Y-76600000D02*
X108042500Y-76600000D01*
X94639589Y-108204000D02*
X94908589Y-107935000D01*
X76708000Y-108712000D02*
X76959420Y-108963420D01*
X87340080Y-108239920D02*
X91912080Y-108239920D01*
X147893640Y-75156580D02*
X147848400Y-75201820D01*
X91948000Y-108204000D02*
X94639589Y-108204000D01*
X147833400Y-71105000D02*
X143520000Y-71105000D01*
X64145000Y-80015000D02*
X74935000Y-80015000D01*
X94908589Y-107935000D02*
X99055000Y-107935000D01*
X120401000Y-45725000D02*
X120904000Y-46228000D01*
X130820000Y-71105000D02*
X131848420Y-70076580D01*
X99055000Y-45725000D02*
X120401000Y-45725000D01*
X155554405Y-78745000D02*
X151965985Y-75156580D01*
X130190000Y-119380000D02*
X94488000Y-119380000D01*
X163970000Y-64630000D02*
X163068000Y-65532000D01*
X189465000Y-64630000D02*
X163970000Y-64630000D01*
X105943480Y-76708000D02*
X106051480Y-76600000D01*
X130820000Y-120010000D02*
X130190000Y-119380000D01*
X86616580Y-108963420D02*
X87340080Y-108239920D01*
X74935000Y-80015000D02*
X75184000Y-80264000D01*
X161285000Y-78745000D02*
X155554405Y-78745000D01*
X147848400Y-71120000D02*
X147833400Y-71105000D01*
X130238980Y-70523980D02*
X121323980Y-70523980D01*
X131848420Y-70076580D02*
X142491580Y-70076580D01*
X151965985Y-75156580D02*
X147893640Y-75156580D01*
X190240000Y-65405000D02*
X189465000Y-64630000D01*
X142491580Y-70076580D02*
X143520000Y-71105000D01*
%TO.N,/D1*%
X164335323Y-65016580D02*
X163819903Y-65532000D01*
X76200000Y-106172000D02*
X76451420Y-106423420D01*
X95944000Y-105664000D02*
X96213000Y-105395000D01*
X96213000Y-105395000D02*
X99055000Y-105395000D01*
X190240000Y-67945000D02*
X187311580Y-65016580D01*
X119387980Y-46753420D02*
X119888000Y-46253400D01*
X100730416Y-125536011D02*
X99880985Y-124686580D01*
X99880985Y-124686580D02*
X95785420Y-124686580D01*
X130286580Y-73111580D02*
X120436420Y-73111580D01*
X95184580Y-106423420D02*
X95944000Y-105664000D01*
X130820000Y-73645000D02*
X131848420Y-72616580D01*
X112308420Y-73111580D02*
X111252000Y-74168000D01*
X84843420Y-46753420D02*
X119387980Y-46753420D01*
X161285000Y-81285000D02*
X141737000Y-81285000D01*
X130820000Y-73645000D02*
X130286580Y-73111580D01*
X123000699Y-125536011D02*
X100730416Y-125536011D01*
X106056520Y-79140000D02*
X108042500Y-79140000D01*
X131848420Y-72616580D02*
X142491580Y-72616580D01*
X83815000Y-45725000D02*
X84843420Y-46753420D01*
X95785420Y-124686580D02*
X95504000Y-124968000D01*
X76451420Y-106423420D02*
X95184580Y-106423420D01*
X138440000Y-122550000D02*
X137363980Y-123626020D01*
X64145000Y-82555000D02*
X74427000Y-82555000D01*
X105415080Y-79781440D02*
X106056520Y-79140000D01*
X124910690Y-123626020D02*
X123000699Y-125536011D01*
X137363980Y-123626020D02*
X124910690Y-123626020D01*
X187311580Y-65016580D02*
X164335323Y-65016580D01*
X142491580Y-72616580D02*
X143520000Y-73645000D01*
X141737000Y-81285000D02*
X141224000Y-80772000D01*
X120436420Y-73111580D02*
X112308420Y-73111580D01*
X74427000Y-82555000D02*
X74676000Y-82804000D01*
%TO.N,/D2*%
X168143000Y-73665000D02*
X161285000Y-73665000D01*
X75943420Y-103883420D02*
X91696580Y-103883420D01*
X92725000Y-102855000D02*
X99055000Y-102855000D01*
X75692000Y-103632000D02*
X75943420Y-103883420D01*
X160751589Y-73131589D02*
X152480994Y-73131589D01*
X120355580Y-75651580D02*
X112308420Y-75651580D01*
X161285000Y-73665000D02*
X160751589Y-73131589D01*
X152480994Y-73131589D02*
X151965985Y-72616580D01*
X64145000Y-85095000D02*
X73919000Y-85095000D01*
X124488768Y-76185000D02*
X123955348Y-75651580D01*
X73919000Y-85095000D02*
X74168000Y-85344000D01*
X142491580Y-75156580D02*
X143520000Y-76185000D01*
X130820000Y-76185000D02*
X124488768Y-76185000D01*
X100038180Y-47281820D02*
X119359600Y-47281820D01*
X151965985Y-72616580D02*
X146331420Y-72616580D01*
X190240000Y-70485000D02*
X179959000Y-70485000D01*
X112308420Y-75651580D02*
X111252000Y-76708000D01*
X123955348Y-75651580D02*
X120355580Y-75651580D01*
X105040520Y-81680000D02*
X108042500Y-81680000D01*
X146331420Y-72616580D02*
X145288000Y-73660000D01*
X99055000Y-48265000D02*
X100038180Y-47281820D01*
X130820000Y-76185000D02*
X131848420Y-75156580D01*
X104886680Y-81833840D02*
X105040520Y-81680000D01*
X177855020Y-72588980D02*
X169219020Y-72588980D01*
X169219020Y-72588980D02*
X168143000Y-73665000D01*
X131848420Y-75156580D02*
X142491580Y-75156580D01*
X179959000Y-70485000D02*
X177855020Y-72588980D01*
X91696580Y-103883420D02*
X92725000Y-102855000D01*
%TO.N,/D3*%
X153952020Y-63505000D02*
X153439020Y-62992000D01*
X138440000Y-78725000D02*
X139516020Y-77648980D01*
X75184000Y-101092000D02*
X75435411Y-101343411D01*
X132080000Y-80264000D02*
X125984000Y-80264000D01*
X163576000Y-63500000D02*
X163571000Y-63505000D01*
X150063980Y-77648980D02*
X151140000Y-78725000D01*
X64145000Y-87635000D02*
X72903000Y-87635000D01*
X153424020Y-78725000D02*
X151140000Y-78725000D01*
X164801283Y-75128980D02*
X164348303Y-74676000D01*
X83815000Y-48265000D02*
X85044876Y-49494876D01*
X161285000Y-63505000D02*
X153952020Y-63505000D01*
X85044876Y-49494876D02*
X108930876Y-49494876D01*
X177347020Y-75128980D02*
X164801283Y-75128980D01*
X72903000Y-87635000D02*
X73660000Y-88392000D01*
X139516020Y-77648980D02*
X150063980Y-77648980D01*
X133619000Y-78725000D02*
X132080000Y-80264000D01*
X120396000Y-84328000D02*
X120504000Y-84220000D01*
X163571000Y-63505000D02*
X161285000Y-63505000D01*
X190240000Y-73025000D02*
X179451000Y-73025000D01*
X104358280Y-85852000D02*
X118872000Y-85852000D01*
X179451000Y-73025000D02*
X177800000Y-74676000D01*
X91773367Y-101343411D02*
X92801778Y-100315000D01*
X138440000Y-78725000D02*
X133619000Y-78725000D01*
X120504000Y-84220000D02*
X123282500Y-84220000D01*
X118872000Y-85852000D02*
X120396000Y-84328000D01*
X109728000Y-50292000D02*
X118831200Y-50292000D01*
X108930876Y-49494876D02*
X109728000Y-50292000D01*
X75435411Y-101343411D02*
X91773367Y-101343411D01*
X153439020Y-78740000D02*
X153424020Y-78725000D01*
X177800000Y-74676000D02*
X177347020Y-75128980D01*
X92801778Y-100315000D02*
X99055000Y-100315000D01*
%TO.N,Net-(Q1-Pad2)*%
X53975000Y-104090000D02*
X55096011Y-105211011D01*
X55096011Y-105211011D02*
X65587011Y-105211011D01*
X65587011Y-105211011D02*
X69088000Y-108712000D01*
%TO.N,Net-(Q2-Pad2)*%
X66579011Y-104108989D02*
X69056989Y-104108989D01*
X66548000Y-104140000D02*
X66579011Y-104108989D01*
X69056989Y-104108989D02*
X69215000Y-104267000D01*
X55492020Y-131896020D02*
X65207980Y-131896020D01*
X69215000Y-104267000D02*
X69215000Y-105135000D01*
X53848000Y-130252000D02*
X55492020Y-131896020D01*
X65207980Y-131896020D02*
X66040000Y-131064000D01*
%TO.N,/A14*%
X186456400Y-54356000D02*
X186435989Y-54376411D01*
X153896580Y-52296580D02*
X146633080Y-52296580D01*
X130820000Y-45705000D02*
X131896020Y-46781020D01*
X162316411Y-54376411D02*
X161285000Y-53345000D01*
X154945000Y-53345000D02*
X153896580Y-52296580D01*
X146633080Y-52296580D02*
X145644500Y-51308000D01*
X191728989Y-99913989D02*
X186273989Y-99913989D01*
X161285000Y-53345000D02*
X154945000Y-53345000D01*
X140731000Y-45705000D02*
X143520000Y-45705000D01*
X131896020Y-46781020D02*
X139654980Y-46781020D01*
X139654980Y-46781020D02*
X140731000Y-45705000D01*
X186273989Y-99913989D02*
X185420000Y-99060000D01*
X186435989Y-54376411D02*
X162316411Y-54376411D01*
X192780000Y-100965000D02*
X191728989Y-99913989D01*
%TO.N,/A12*%
X130820000Y-48245000D02*
X131896020Y-49321020D01*
X184127877Y-50241858D02*
X183179439Y-49293420D01*
X144596020Y-49321020D02*
X160228980Y-49321020D01*
X110759000Y-48245000D02*
X109728000Y-49276000D01*
X191383000Y-94488000D02*
X190500000Y-94488000D01*
X131896020Y-49321020D02*
X142443980Y-49321020D01*
X192780000Y-95885000D02*
X191383000Y-94488000D01*
X143520000Y-48245000D02*
X144596020Y-49321020D01*
X160228980Y-49321020D02*
X161285000Y-48265000D01*
X130820000Y-48245000D02*
X110759000Y-48245000D01*
X142443980Y-49321020D02*
X143520000Y-48245000D01*
X190500000Y-94488000D02*
X184912000Y-94488000D01*
X162313420Y-49293420D02*
X161285000Y-48265000D01*
X183179439Y-49293420D02*
X162313420Y-49293420D01*
%TO.N,/A7*%
X147337420Y-51833420D02*
X145796000Y-50292000D01*
X191548331Y-81953331D02*
X184569331Y-81953331D01*
X175013420Y-51833420D02*
X147337420Y-51833420D01*
X144013000Y-50292000D02*
X143520000Y-50785000D01*
X181356000Y-53848000D02*
X180853000Y-53345000D01*
X192780000Y-83185000D02*
X191548331Y-81953331D01*
X129408980Y-52196020D02*
X111379980Y-52196020D01*
X145796000Y-50292000D02*
X144013000Y-50292000D01*
X180853000Y-53345000D02*
X176525000Y-53345000D01*
X130820000Y-50785000D02*
X129408980Y-52196020D01*
X131848420Y-51813420D02*
X142491580Y-51813420D01*
X111379980Y-52196020D02*
X111252000Y-52324000D01*
X142491580Y-51813420D02*
X143520000Y-50785000D01*
X130820000Y-50785000D02*
X131848420Y-51813420D01*
X176525000Y-53345000D02*
X175013420Y-51833420D01*
X184569331Y-81953331D02*
X182735069Y-81953331D01*
X182735069Y-81953331D02*
X182501836Y-82186564D01*
%TO.N,/A6*%
X144551000Y-54356000D02*
X143520000Y-53325000D01*
X142491580Y-54353420D02*
X131848420Y-54353420D01*
X143520000Y-53325000D02*
X142491580Y-54353420D01*
X181351000Y-55885000D02*
X176525000Y-55885000D01*
X175483589Y-54843589D02*
X154411589Y-54843589D01*
X192780000Y-80645000D02*
X191776589Y-81648411D01*
X130820000Y-53325000D02*
X129408980Y-54736020D01*
X182232411Y-81648411D02*
X181864000Y-81280000D01*
X154411589Y-54843589D02*
X153924000Y-54356000D01*
X153924000Y-54356000D02*
X144551000Y-54356000D01*
X191776589Y-81648411D02*
X182232411Y-81648411D01*
X129408980Y-54736020D02*
X111379980Y-54736020D01*
X181356000Y-55880000D02*
X181351000Y-55885000D01*
X131848420Y-54353420D02*
X130820000Y-53325000D01*
X111379980Y-54736020D02*
X111252000Y-54864000D01*
X176525000Y-55885000D02*
X175483589Y-54843589D01*
%TO.N,/A5*%
X188004222Y-78232000D02*
X179872800Y-78232000D01*
X180335000Y-58425000D02*
X176525000Y-58425000D01*
X131848420Y-54836580D02*
X142491580Y-54836580D01*
X176525000Y-58425000D02*
X175298339Y-57198339D01*
X108678911Y-61996411D02*
X111470876Y-61996411D01*
X175298339Y-57198339D02*
X156012646Y-57198339D01*
X130286580Y-55331580D02*
X130820000Y-55865000D01*
X114808000Y-56388000D02*
X121553232Y-56388000D01*
X191383000Y-76708000D02*
X189528222Y-76708000D01*
X153650887Y-54836580D02*
X144548420Y-54836580D01*
X180340000Y-58420000D02*
X180335000Y-58425000D01*
X111470876Y-61996411D02*
X114279589Y-61996411D01*
X144548420Y-54836580D02*
X143520000Y-55865000D01*
X189528222Y-76708000D02*
X188004222Y-78232000D01*
X130820000Y-55865000D02*
X131848420Y-54836580D01*
X192780000Y-78105000D02*
X191383000Y-76708000D01*
X114279589Y-61996411D02*
X114808000Y-61468000D01*
X121553232Y-56388000D02*
X122609652Y-55331580D01*
X156012646Y-57198339D02*
X153650887Y-54836580D01*
X108042500Y-61360000D02*
X108678911Y-61996411D01*
X122609652Y-55331580D02*
X130286580Y-55331580D01*
X142491580Y-54836580D02*
X143520000Y-55865000D01*
%TO.N,/A4*%
X153924000Y-57912000D02*
X153388580Y-57376580D01*
X130820000Y-58405000D02*
X131848420Y-57376580D01*
X180102607Y-74472920D02*
X179865072Y-74710455D01*
X179827000Y-60965000D02*
X176525000Y-60965000D01*
X153388580Y-57376580D02*
X144548420Y-57376580D01*
X191687920Y-74472920D02*
X188468000Y-74472920D01*
X175496580Y-59936580D02*
X160687802Y-59936580D01*
X176525000Y-60965000D02*
X175496580Y-59936580D01*
X142491580Y-57376580D02*
X143520000Y-58405000D01*
X131848420Y-57376580D02*
X142491580Y-57376580D01*
X188468000Y-74472920D02*
X180102607Y-74472920D01*
X158663222Y-57912000D02*
X153924000Y-57912000D01*
X144548420Y-57376580D02*
X143520000Y-58405000D01*
X192780000Y-75565000D02*
X191687920Y-74472920D01*
X130286580Y-57871580D02*
X111292420Y-57871580D01*
X111292420Y-57871580D02*
X111252000Y-57912000D01*
X130820000Y-58405000D02*
X130286580Y-57871580D01*
X179832000Y-60960000D02*
X179827000Y-60965000D01*
X130327000Y-57912000D02*
X130820000Y-58405000D01*
X160687802Y-59936580D02*
X158663222Y-57912000D01*
X129032000Y-57912000D02*
X130327000Y-57912000D01*
%TO.N,/A3*%
X148376811Y-60960000D02*
X148361811Y-60945000D01*
X148361811Y-60945000D02*
X143520000Y-60945000D01*
X131896020Y-59868980D02*
X142443980Y-59868980D01*
X130820000Y-60945000D02*
X130286580Y-60411580D01*
X130820000Y-60945000D02*
X131896020Y-59868980D01*
X112308420Y-60411580D02*
X111252000Y-61468000D01*
X160528000Y-62476580D02*
X160508000Y-62456580D01*
X175496580Y-62476580D02*
X160528000Y-62476580D01*
X142443980Y-59868980D02*
X143520000Y-60945000D01*
X130286580Y-60411580D02*
X128564420Y-60411580D01*
X191637000Y-74168000D02*
X191008000Y-74168000D01*
X192780000Y-73025000D02*
X191637000Y-74168000D01*
X191008000Y-74168000D02*
X179344400Y-74168000D01*
X179832000Y-62992000D02*
X179811589Y-62971589D01*
X179811589Y-62971589D02*
X177058411Y-62971589D01*
X160508000Y-62456580D02*
X150368000Y-62456580D01*
X177058411Y-62971589D02*
X176525000Y-63505000D01*
X150368000Y-62456580D02*
X148984440Y-62456580D01*
X128564420Y-60411580D02*
X112308420Y-60411580D01*
X148984440Y-62456580D02*
X148844000Y-62597020D01*
X176525000Y-63505000D02*
X175496580Y-62476580D01*
%TO.N,/A2*%
X130327000Y-62992000D02*
X130820000Y-63485000D01*
X171201000Y-66045000D02*
X176525000Y-66045000D01*
X157285733Y-67101020D02*
X159798133Y-69613420D01*
X149352000Y-67101020D02*
X157285733Y-67101020D01*
X131848420Y-62456580D02*
X130820000Y-63485000D01*
X130286580Y-62951580D02*
X112308420Y-62951580D01*
X192780000Y-70485000D02*
X191527564Y-71737436D01*
D33*
X178696847Y-66045000D02*
X179453847Y-66802000D01*
D34*
X191527564Y-71737436D02*
X179453836Y-71737436D01*
X112308420Y-62951580D02*
X111252000Y-64008000D01*
X170165560Y-69613420D02*
X170690980Y-69088000D01*
D33*
X176525000Y-66045000D02*
X178696847Y-66045000D01*
D34*
X159798133Y-69613420D02*
X170165560Y-69613420D01*
X129032000Y-62992000D02*
X130327000Y-62992000D01*
X142491580Y-62456580D02*
X131848420Y-62456580D01*
X143520000Y-63485000D02*
X142491580Y-62456580D01*
X145288000Y-65532000D02*
X147848400Y-65532000D01*
X171196000Y-66040000D02*
X171201000Y-66045000D01*
X148844000Y-67008180D02*
X149259160Y-67008180D01*
X130820000Y-63485000D02*
X130286580Y-62951580D01*
X149259160Y-67008180D02*
X149352000Y-67101020D01*
%TO.N,/A10*%
X144782580Y-64513420D02*
X146004011Y-63291989D01*
X148667140Y-44628980D02*
X147043500Y-46252620D01*
X126023668Y-64513420D02*
X126002544Y-64534544D01*
X189804656Y-89753989D02*
X191728989Y-89753989D01*
X137411580Y-64513420D02*
X126023668Y-64513420D01*
X188442667Y-88392000D02*
X189804656Y-89753989D01*
X184404000Y-88392000D02*
X188442667Y-88392000D01*
X176525000Y-45725000D02*
X175428980Y-44628980D01*
X191728989Y-89753989D02*
X192780000Y-90805000D01*
X148036011Y-63291989D02*
X150946989Y-63291989D01*
X150946989Y-63291989D02*
X151140000Y-63485000D01*
X139468420Y-64513420D02*
X144782580Y-64513420D01*
X138440000Y-63485000D02*
X137411580Y-64513420D01*
X146004011Y-63291989D02*
X148036011Y-63291989D01*
X138440000Y-63485000D02*
X139468420Y-64513420D01*
X175428980Y-44628980D02*
X148667140Y-44628980D01*
%TO.N,/A11*%
X160228980Y-46781020D02*
X140904040Y-46781020D01*
X138440000Y-58405000D02*
X139468420Y-59433420D01*
X138440000Y-58405000D02*
X133111000Y-58405000D01*
X161285000Y-45725000D02*
X160228980Y-46781020D01*
X185420000Y-91948000D02*
X184912000Y-91440000D01*
X132080000Y-59436000D02*
X125496400Y-59436000D01*
X139468420Y-59433420D02*
X150111580Y-59433420D01*
X150111580Y-59433420D02*
X151140000Y-58405000D01*
X185928000Y-91948000D02*
X185420000Y-91948000D01*
X161639420Y-44196000D02*
X161544000Y-44100580D01*
X191383000Y-91948000D02*
X185928000Y-91948000D01*
X133111000Y-58405000D02*
X132080000Y-59436000D01*
X192780000Y-93345000D02*
X191383000Y-91948000D01*
X140904040Y-46781020D02*
X140716000Y-46592980D01*
X177292000Y-44196000D02*
X161639420Y-44196000D01*
%TO.N,/A9*%
X152946020Y-55865000D02*
X151140000Y-55865000D01*
X175496580Y-47236580D02*
X154462440Y-47236580D01*
X139468420Y-56893420D02*
X150111580Y-56893420D01*
X137668000Y-56896000D02*
X138440000Y-56124000D01*
X192780000Y-88265000D02*
X191383000Y-86868000D01*
X176525000Y-48265000D02*
X175496580Y-47236580D01*
X138440000Y-56124000D02*
X138440000Y-55865000D01*
X154462440Y-47236580D02*
X153439020Y-48260000D01*
X138440000Y-55865000D02*
X137409000Y-56896000D01*
X138440000Y-55865000D02*
X139468420Y-56893420D01*
X153439020Y-55372000D02*
X152946020Y-55865000D01*
X183896000Y-86868000D02*
X183388000Y-86360000D01*
X191383000Y-86868000D02*
X190500000Y-86868000D01*
X150111580Y-56893420D02*
X151140000Y-55865000D01*
X125984000Y-56896000D02*
X137668000Y-56896000D01*
X190500000Y-86868000D02*
X183896000Y-86868000D01*
%TO.N,/A8*%
X137411580Y-52296580D02*
X129739642Y-52296580D01*
X145781000Y-53325000D02*
X144574339Y-52118339D01*
X179832000Y-51308000D02*
X179376350Y-50805000D01*
X184165481Y-84597481D02*
X183388000Y-83820000D01*
X191652481Y-84597481D02*
X184912000Y-84597481D01*
X139646661Y-52118339D02*
X138440000Y-53325000D01*
X151140000Y-53325000D02*
X145781000Y-53325000D01*
X129311802Y-52724420D02*
X127615580Y-52724420D01*
X154467440Y-49776580D02*
X153967420Y-50276600D01*
X192780000Y-85725000D02*
X191652481Y-84597481D01*
X144574339Y-52118339D02*
X139646661Y-52118339D01*
X184912000Y-84597481D02*
X184165481Y-84597481D01*
X175496580Y-49776580D02*
X154467440Y-49776580D01*
X153952420Y-53325000D02*
X151140000Y-53325000D01*
X179376350Y-50805000D02*
X176525000Y-50805000D01*
X129739642Y-52296580D02*
X129311802Y-52724420D01*
X176525000Y-50805000D02*
X175496580Y-49776580D01*
X138440000Y-53325000D02*
X137411580Y-52296580D01*
X153967420Y-53340000D02*
X153952420Y-53325000D01*
%TO.N,/A13*%
X128551420Y-49756580D02*
X127568240Y-48773400D01*
X125984000Y-48768000D02*
X125989400Y-48773400D01*
X182872580Y-52316580D02*
X175927801Y-52316580D01*
X137411580Y-49756580D02*
X128551420Y-49756580D01*
X175927801Y-52316580D02*
X174416221Y-50805000D01*
X185968811Y-52832000D02*
X183388000Y-52832000D01*
X192780000Y-98425000D02*
X191728989Y-97373989D01*
X139468420Y-49756580D02*
X150111580Y-49756580D01*
X183388000Y-52832000D02*
X182872580Y-52316580D01*
X138440000Y-50785000D02*
X137411580Y-49756580D01*
X150111580Y-49756580D02*
X151140000Y-50785000D01*
X138440000Y-50785000D02*
X139468420Y-49756580D01*
X151160000Y-50805000D02*
X151140000Y-50785000D01*
X125470600Y-48773400D02*
X125476000Y-48768000D01*
X185074011Y-97373989D02*
X184912000Y-97536000D01*
X191728989Y-97373989D02*
X190675344Y-97373989D01*
X174416221Y-50805000D02*
X161285000Y-50805000D01*
X161285000Y-50805000D02*
X151160000Y-50805000D01*
X127568240Y-48773400D02*
X125989400Y-48773400D01*
X125476000Y-48768000D02*
X125984000Y-48768000D01*
X124968000Y-48773400D02*
X125470600Y-48773400D01*
X190675344Y-97373989D02*
X185074011Y-97373989D01*
%TO.N,Net-(C1-Pad1)*%
X57892621Y-52157621D02*
X56525000Y-50790000D01*
X69088000Y-52157621D02*
X57892621Y-52157621D01*
%TO.N,Net-(C4-Pad1)*%
X54864000Y-46228000D02*
X54864000Y-51669000D01*
X56046379Y-45045621D02*
X54864000Y-46228000D01*
X54864000Y-51669000D02*
X56525000Y-53330000D01*
X69088000Y-45045621D02*
X56046379Y-45045621D01*
%TO.N,Net-(C1-Pad2)*%
X57737379Y-54657621D02*
X56525000Y-55870000D01*
X69088000Y-54657621D02*
X57737379Y-54657621D01*
%TO.N,Net-(C2-Pad1)*%
X68871601Y-59486020D02*
X57601020Y-59486020D01*
X69088000Y-59269621D02*
X68871601Y-59486020D01*
X57601020Y-59486020D02*
X56525000Y-58410000D01*
%TO.N,Net-(C2-Pad2)*%
X68831601Y-62026020D02*
X61518020Y-62026020D01*
X61518020Y-62026020D02*
X60442000Y-60950000D01*
X60442000Y-60950000D02*
X56525000Y-60950000D01*
X69088000Y-61769621D02*
X68831601Y-62026020D01*
%TO.N,Net-(C5-Pad2)*%
X59521620Y-69681620D02*
X58420000Y-68580000D01*
X68288001Y-69681620D02*
X59521620Y-69681620D01*
X69088000Y-68881621D02*
X68288001Y-69681620D01*
%TO.N,Net-(J4-Pad8)*%
X48235331Y-62621370D02*
X50129961Y-64516000D01*
X55011000Y-64516000D02*
X56525000Y-66030000D01*
X48235331Y-61490000D02*
X48235331Y-62621370D01*
X50129961Y-64516000D02*
X55011000Y-64516000D01*
%TO.N,Net-(J4-Pad7)*%
X48235331Y-65391370D02*
X50182950Y-67338989D01*
X50182950Y-67338989D02*
X55293989Y-67338989D01*
X48235331Y-64260000D02*
X48235331Y-65391370D01*
X55293989Y-67338989D02*
X56525000Y-68570000D01*
%TO.N,Net-(J4-Pad3)*%
X60462000Y-58410000D02*
X64145000Y-58410000D01*
X51075331Y-62875000D02*
X51875330Y-62075001D01*
X60352999Y-62075001D02*
X60452000Y-61976000D01*
X51875330Y-62075001D02*
X60352999Y-62075001D01*
X60452000Y-58420000D02*
X60462000Y-58410000D01*
%TO.N,Net-(J4-Pad2)*%
X51075331Y-65645000D02*
X54218278Y-65645000D01*
X54218278Y-65645000D02*
X56067258Y-67493980D01*
X59837520Y-67493980D02*
X60275500Y-67056000D01*
X60452000Y-55880000D02*
X60462000Y-55870000D01*
X60462000Y-55870000D02*
X64145000Y-55870000D01*
X56067258Y-67493980D02*
X59837520Y-67493980D01*
D35*
%TO.N,Net-(C3-Pad1)*%
X56525000Y-128280000D02*
X61605000Y-128280000D01*
D33*
X50800000Y-131368000D02*
X53848000Y-128320000D01*
D35*
X56485000Y-128320000D02*
X56525000Y-128280000D01*
X61605000Y-128280000D02*
X64145000Y-130820000D01*
D33*
X50800000Y-132548000D02*
X50800000Y-131368000D01*
D35*
X53848000Y-128320000D02*
X56485000Y-128320000D01*
%TO.N,Net-(RN1-Pad9)*%
X46940000Y-102225000D02*
X50155000Y-102225000D01*
X50155000Y-102225000D02*
X50165000Y-102235000D01*
%TO.N,Net-(RN1-Pad8)*%
X50155000Y-99685000D02*
X50165000Y-99695000D01*
X46940000Y-99685000D02*
X50155000Y-99685000D01*
%TO.N,Net-(RN1-Pad7)*%
X46950000Y-97155000D02*
X46940000Y-97145000D01*
X50165000Y-97155000D02*
X46950000Y-97155000D01*
%TO.N,Net-(RN1-Pad6)*%
X50155000Y-94605000D02*
X50165000Y-94615000D01*
X46940000Y-94605000D02*
X50155000Y-94605000D01*
%TO.N,Net-(RN1-Pad5)*%
X50155000Y-92065000D02*
X50165000Y-92075000D01*
X46940000Y-92065000D02*
X50155000Y-92065000D01*
%TO.N,Net-(RN1-Pad4)*%
X46940000Y-89525000D02*
X50155000Y-89525000D01*
X50155000Y-89525000D02*
X50165000Y-89535000D01*
%TO.N,Net-(RN1-Pad3)*%
X50155000Y-86985000D02*
X50165000Y-86995000D01*
X46940000Y-86985000D02*
X50155000Y-86985000D01*
%TO.N,Net-(RN1-Pad2)*%
X46940000Y-84445000D02*
X50155000Y-84445000D01*
X50155000Y-84445000D02*
X50165000Y-84455000D01*
D34*
%TO.N,/A15*%
X143520000Y-88890000D02*
X144596020Y-89966020D01*
X144596020Y-89966020D02*
X155905980Y-89966020D01*
X186956980Y-57396580D02*
X186964400Y-57404000D01*
X192780000Y-103505000D02*
X191383000Y-102108000D01*
X177292000Y-57396580D02*
X186956980Y-57396580D01*
X155905980Y-89966020D02*
X157480000Y-88392000D01*
X191383000Y-102108000D02*
X186436000Y-102108000D01*
X155961000Y-55885000D02*
X161285000Y-55885000D01*
X175681595Y-56896000D02*
X176182175Y-57396580D01*
X161285000Y-55885000D02*
X173743581Y-55885000D01*
X155956000Y-55880000D02*
X155961000Y-55885000D01*
X175679014Y-56893419D02*
X175681595Y-56896000D01*
X176182175Y-57396580D02*
X177292000Y-57396580D01*
X174752000Y-56893419D02*
X175679014Y-56893419D01*
X173743581Y-55885000D02*
X174752000Y-56893419D01*
%TO.N,Net-(J1-Pad1)*%
X99055000Y-113015000D02*
X102840000Y-113015000D01*
X102840000Y-113015000D02*
X102865000Y-113040000D01*
D33*
%TO.N,/LED_HALT*%
X53986478Y-117971522D02*
X55123000Y-116835000D01*
X55123000Y-116835000D02*
X56525000Y-116835000D01*
D34*
%TO.N,Net-(J1-Pad2)*%
X118755000Y-120660000D02*
X122555000Y-124460000D01*
X105405000Y-120660000D02*
X118755000Y-120660000D01*
%TO.N,Net-(J1-Pad3)*%
X102840000Y-115555000D02*
X102865000Y-115580000D01*
X99055000Y-115555000D02*
X102840000Y-115555000D01*
%TO.N,Net-(J1-Pad5)*%
X99055000Y-118095000D02*
X102840000Y-118095000D01*
X102840000Y-118095000D02*
X102865000Y-118120000D01*
%TO.N,Net-(J1-Pad7)*%
X102865000Y-120660000D02*
X99080000Y-120660000D01*
X99080000Y-120660000D02*
X99055000Y-120635000D01*
%TO.N,/{slash}WR*%
X133482520Y-90368980D02*
X134443500Y-89408000D01*
X182875000Y-91445000D02*
X176525000Y-91445000D01*
X150063980Y-47168980D02*
X151140000Y-48245000D01*
D33*
X125943980Y-90368980D02*
X125943980Y-91495020D01*
D34*
X125943980Y-90368980D02*
X133482520Y-90368980D01*
X134620000Y-48260000D02*
X134635000Y-48245000D01*
X190240000Y-106045000D02*
X188335000Y-104140000D01*
X175433980Y-90353980D02*
X135389480Y-90353980D01*
X138440000Y-48245000D02*
X139516020Y-47168980D01*
X135389480Y-90353980D02*
X134443500Y-89408000D01*
D33*
X125943980Y-91495020D02*
X124983000Y-92456000D01*
D34*
X182880000Y-91440000D02*
X182875000Y-91445000D01*
X188335000Y-104140000D02*
X184912000Y-104140000D01*
X134635000Y-48245000D02*
X138440000Y-48245000D01*
X139516020Y-47168980D02*
X150063980Y-47168980D01*
D33*
X124983000Y-92456000D02*
X124983000Y-93726000D01*
D34*
X176525000Y-91445000D02*
X175433980Y-90353980D01*
%TO.N,/{slash}RESET*%
X123505967Y-86428011D02*
X102176011Y-86428011D01*
X124929967Y-85004011D02*
X123505967Y-86428011D01*
X56525000Y-109215000D02*
X57988980Y-110678980D01*
X57988980Y-110678980D02*
X66503980Y-110678980D01*
X102176011Y-86428011D02*
X102108000Y-86360000D01*
X72608000Y-98384000D02*
X97536000Y-98384000D01*
X190240000Y-85725000D02*
X189465000Y-84950000D01*
X66503980Y-110678980D02*
X67945000Y-112120000D01*
X130820000Y-117470000D02*
X135900000Y-117470000D01*
X172860000Y-84950000D02*
X172847000Y-84963000D01*
X172805989Y-85004011D02*
X127676011Y-85004011D01*
X135900000Y-117470000D02*
X138440000Y-120010000D01*
X96520000Y-128016000D02*
X96759000Y-128255000D01*
X176525000Y-81285000D02*
X172847000Y-84963000D01*
X189465000Y-84950000D02*
X172860000Y-84950000D01*
X172847000Y-84963000D02*
X172805989Y-85004011D01*
X96759000Y-128255000D02*
X99055000Y-128255000D01*
X127676011Y-85004011D02*
X124929967Y-85004011D01*
X69392000Y-101600000D02*
X72608000Y-98384000D01*
%TO.N,/{slash}INT*%
X83810000Y-55880000D02*
X83815000Y-55885000D01*
X160208980Y-87441020D02*
X86634980Y-87441020D01*
X81330000Y-55880000D02*
X83810000Y-55880000D01*
X86634980Y-87441020D02*
X85684000Y-88392000D01*
X161285000Y-86365000D02*
X160208980Y-87441020D01*
X86528000Y-128524000D02*
X86259000Y-128255000D01*
X189436461Y-90001461D02*
X164921461Y-90001461D01*
X86259000Y-128255000D02*
X83815000Y-128255000D01*
X190240000Y-90805000D02*
X189436461Y-90001461D01*
X164921461Y-90001461D02*
X161285000Y-86365000D01*
%TO.N,/{slash}NMI*%
X161280000Y-83820000D02*
X161285000Y-83825000D01*
X190240000Y-93345000D02*
X189465000Y-92570000D01*
X158800000Y-83820000D02*
X161280000Y-83820000D01*
X189465000Y-92570000D02*
X164214551Y-92570000D01*
X164214551Y-92570000D02*
X163084491Y-91439940D01*
%TO.N,/{slash}M1*%
X133030980Y-79821020D02*
X131291900Y-81560100D01*
X103124000Y-81788000D02*
X100473722Y-81788000D01*
X80777000Y-63505000D02*
X83815000Y-63505000D01*
X123847084Y-82804000D02*
X104140000Y-82804000D01*
X83014980Y-96012000D02*
X80739980Y-96012000D01*
X80706980Y-82361020D02*
X80264000Y-82804000D01*
X190240000Y-95885000D02*
X176119457Y-95885000D01*
X176119457Y-95885000D02*
X175844031Y-95609574D01*
X104140000Y-82804000D02*
X103124000Y-81788000D01*
X176525000Y-78745000D02*
X175448980Y-79821020D01*
X80772000Y-63500000D02*
X80777000Y-63505000D01*
X100473722Y-81788000D02*
X99900702Y-82361020D01*
X131291900Y-81560100D02*
X125090984Y-81560100D01*
X99900702Y-82361020D02*
X80706980Y-82361020D01*
X175448980Y-79821020D02*
X133030980Y-79821020D01*
X125090984Y-81560100D02*
X123847084Y-82804000D01*
%TO.N,/{slash}WAIT*%
X179015000Y-86365000D02*
X179020000Y-86360000D01*
X190240000Y-98425000D02*
X180213000Y-98425000D01*
X176525000Y-86365000D02*
X179015000Y-86365000D01*
X180213000Y-98425000D02*
X178816000Y-97028000D01*
%TO.N,/{slash}HALT*%
X116908011Y-102885407D02*
X116570593Y-102547989D01*
X109220000Y-115824000D02*
X108337989Y-116706011D01*
X74676000Y-120904000D02*
X62484000Y-120904000D01*
X159004000Y-100076000D02*
X156194593Y-102885407D01*
X108337989Y-116706011D02*
X78873989Y-116706011D01*
X76200000Y-119380000D02*
X74676000Y-120904000D01*
X61976000Y-114300000D02*
X61971000Y-114295000D01*
X78873989Y-116706011D02*
X76200000Y-119380000D01*
X156194593Y-102885407D02*
X116908011Y-102885407D01*
X159893000Y-100965000D02*
X159004000Y-100076000D01*
X190240000Y-100965000D02*
X159893000Y-100965000D01*
X61971000Y-114295000D02*
X56525000Y-114295000D01*
X116570593Y-102547989D02*
X110812011Y-102547989D01*
X110812011Y-102547989D02*
X110236000Y-103124000D01*
%TO.N,/{slash}RD*%
X138440000Y-109225000D02*
X135473000Y-109225000D01*
X185801000Y-103505000D02*
X185420000Y-103124000D01*
X183383000Y-93985000D02*
X176525000Y-93985000D01*
X137353434Y-62031566D02*
X135580434Y-62031566D01*
X111379980Y-67436020D02*
X112376000Y-66440000D01*
X139516020Y-62021020D02*
X150063980Y-62021020D01*
X95605000Y-113015000D02*
X83815000Y-113015000D01*
X150063980Y-62021020D02*
X151140000Y-60945000D01*
X138440000Y-60945000D02*
X139516020Y-62021020D01*
X138440000Y-60945000D02*
X137353434Y-62031566D01*
X190240000Y-103505000D02*
X185801000Y-103505000D01*
X176525000Y-93985000D02*
X175448980Y-95061020D01*
X135580434Y-62031566D02*
X126077459Y-62031566D01*
X135580434Y-61920434D02*
X135580434Y-62031566D01*
X135128000Y-61468000D02*
X135580434Y-61920434D01*
X112376000Y-66440000D02*
X123282500Y-66440000D01*
X136717020Y-95061020D02*
X135128000Y-93472000D01*
X99055000Y-66045000D02*
X100446020Y-67436020D01*
X100446020Y-67436020D02*
X111379980Y-67436020D01*
X183896000Y-93472000D02*
X183383000Y-93985000D01*
X135473000Y-109225000D02*
X135468000Y-109220000D01*
X95844000Y-112776000D02*
X95605000Y-113015000D01*
%TO.N,/{slash}BUSREQ*%
X176525000Y-83825000D02*
X179015000Y-83825000D01*
X180848000Y-105664000D02*
X182280011Y-107096011D01*
X191728989Y-107096011D02*
X192780000Y-106045000D01*
X179015000Y-83825000D02*
X179020000Y-83820000D01*
X182280011Y-107096011D02*
X191728989Y-107096011D01*
%TO.N,/{slash}MREQ*%
X160223980Y-92506020D02*
X144983980Y-92506020D01*
X160909000Y-108585000D02*
X160528000Y-108204000D01*
X161285000Y-91445000D02*
X160223980Y-92506020D01*
X144983980Y-92506020D02*
X143520000Y-93970000D01*
X190240000Y-108585000D02*
X160909000Y-108585000D01*
%TO.N,/{slash}BUSACK*%
X192780000Y-108585000D02*
X191728989Y-107533989D01*
X181193989Y-107533989D02*
X180340000Y-106680000D01*
X191728989Y-107533989D02*
X181193989Y-107533989D01*
%TO.N,/{slash}IOREQ*%
X101092000Y-109220000D02*
X87544000Y-109220000D01*
X130820000Y-106685000D02*
X130646989Y-106511989D01*
X87381000Y-55885000D02*
X99055000Y-55885000D01*
X153939040Y-93985000D02*
X153539020Y-94385020D01*
X83815000Y-123175000D02*
X87305000Y-123175000D01*
X113179069Y-107791469D02*
X102520531Y-107791469D01*
X152458000Y-107761020D02*
X131896020Y-107761020D01*
X114458549Y-106511989D02*
X113179069Y-107791469D01*
X131896020Y-107761020D02*
X130820000Y-106685000D01*
X190240000Y-111125000D02*
X157984020Y-111125000D01*
X130646989Y-106511989D02*
X114458549Y-106511989D01*
X153539020Y-106680000D02*
X152458000Y-107761020D01*
X161285000Y-93985000D02*
X153939040Y-93985000D01*
X86868000Y-55372000D02*
X87381000Y-55885000D01*
X102520531Y-107791469D02*
X101092000Y-109220000D01*
X157984020Y-111125000D02*
X153539020Y-106680000D01*
X87305000Y-123175000D02*
X87544000Y-122936000D01*
%TO.N,/IEO_SIO*%
X179324000Y-111477520D02*
X156689520Y-111477520D01*
X190240000Y-113665000D02*
X188052520Y-111477520D01*
X85206020Y-62356020D02*
X115443980Y-62356020D01*
X115443980Y-62356020D02*
X115824000Y-61976000D01*
X188052520Y-111477520D02*
X179324000Y-111477520D01*
X128695509Y-110407509D02*
X128524000Y-110236000D01*
X156464000Y-111252000D02*
X155619509Y-110407509D01*
X156689520Y-111477520D02*
X156464000Y-111252000D01*
X83815000Y-60965000D02*
X85206020Y-62356020D01*
X155619509Y-110407509D02*
X128695509Y-110407509D01*
X114808000Y-107188000D02*
X128016000Y-107188000D01*
%TO.N,/{slash}CS_RAM_LOW*%
X148859000Y-66025000D02*
X151140000Y-66025000D01*
X141079460Y-67101020D02*
X145242980Y-67101020D01*
X145288000Y-67056000D02*
X147828000Y-67056000D01*
X140839020Y-66860580D02*
X141079460Y-67101020D01*
X145242980Y-67101020D02*
X145288000Y-67056000D01*
X147828000Y-67056000D02*
X148859000Y-66025000D01*
D33*
%TO.N,/{slash}CS_RAM_HIGH*%
X136652000Y-80772000D02*
X138176000Y-82296000D01*
X138176000Y-82296000D02*
X147320000Y-82296000D01*
D34*
%TO.N,/{slash}CS_ROM_LOW*%
X111144000Y-51200000D02*
X108042500Y-51200000D01*
X115768980Y-105608980D02*
X115247989Y-105087989D01*
X115247989Y-105087989D02*
X110304011Y-105087989D01*
X111252000Y-51308000D02*
X111144000Y-51200000D01*
X110304011Y-105087989D02*
X110236000Y-105156000D01*
%TO.N,/ROM_BANK_SEL*%
X126457193Y-71520000D02*
X123282500Y-71520000D01*
X126677399Y-71299794D02*
X126457193Y-71520000D01*
X128925980Y-129093980D02*
X128356000Y-128524000D01*
X138440000Y-130170000D02*
X137363980Y-129093980D01*
X137363980Y-129093980D02*
X128925980Y-129093980D01*
%TO.N,/MEM8000*%
X152628020Y-93970000D02*
X151140000Y-93970000D01*
X153416000Y-93182020D02*
X152628020Y-93970000D01*
%TO.N,/MEM4000*%
X145441722Y-91430000D02*
X143977742Y-92893980D01*
X143977742Y-92893980D02*
X142310020Y-92893980D01*
X151140000Y-91430000D02*
X145441722Y-91430000D01*
X142310020Y-92893980D02*
X141732000Y-93472000D01*
%TO.N,/MEM0000*%
X162438000Y-134112000D02*
X163840000Y-132710000D01*
X154432000Y-134112000D02*
X162438000Y-134112000D01*
%TO.N,/{slash}CS_RAM_LOW_1*%
X155143980Y-124013980D02*
X146365980Y-124013980D01*
X146365980Y-124013980D02*
X145288000Y-122936000D01*
X156220000Y-125090000D02*
X155143980Y-124013980D01*
%TO.N,/{slash}RAMSEL*%
X155143980Y-121473980D02*
X129478020Y-121473980D01*
X156220000Y-122550000D02*
X155143980Y-121473980D01*
X129478020Y-121473980D02*
X129032000Y-121920000D01*
%TO.N,/{slash}ROMSEL*%
X163840000Y-130170000D02*
X162376020Y-128706020D01*
X131896020Y-128706020D02*
X130820000Y-127630000D01*
X162376020Y-128706020D02*
X131896020Y-128706020D01*
%TO.N,/{slash}CS_BANK*%
X130820000Y-122550000D02*
X135250000Y-122550000D01*
X135250000Y-122550000D02*
X135636000Y-122936000D01*
X138440000Y-99065000D02*
X136149000Y-99065000D01*
X136149000Y-99065000D02*
X136144000Y-99060000D01*
%TO.N,/{slash}CS_SIO*%
X137363980Y-95448980D02*
X95899020Y-95448980D01*
X138440000Y-96525000D02*
X137363980Y-95448980D01*
X95899020Y-95448980D02*
X95844000Y-95504000D01*
%TO.N,/{slash}CS_CTC*%
X138440000Y-93985000D02*
X136597010Y-93985000D01*
X99506020Y-131246020D02*
X133929980Y-131246020D01*
X99055000Y-130795000D02*
X99506020Y-131246020D01*
X133929980Y-131246020D02*
X134112000Y-131064000D01*
X136597010Y-93985000D02*
X136368005Y-93755995D01*
%TO.N,/{slash}CS_DIP*%
X138440000Y-88905000D02*
X137363980Y-87828980D01*
X84663045Y-90368980D02*
X65872742Y-90368980D01*
X65872742Y-90368980D02*
X64801722Y-91440000D01*
X137363980Y-87828980D02*
X87203045Y-87828980D01*
X87203045Y-87828980D02*
X84663045Y-90368980D01*
X64801722Y-91440000D02*
X61976000Y-91440000D01*
%TO.N,Net-(U13-Pad7)*%
X83815000Y-78745000D02*
X79990989Y-78745000D01*
X81008980Y-115555000D02*
X83815000Y-115555000D01*
X79990989Y-78745000D02*
X79487989Y-79248000D01*
X80739980Y-115824000D02*
X81008980Y-115555000D01*
%TO.N,Net-(U13-Pad8)*%
X88900000Y-79248000D02*
X89403000Y-78745000D01*
X83815000Y-118095000D02*
X88153000Y-118095000D01*
X88153000Y-118095000D02*
X88392000Y-117856000D01*
X89403000Y-78745000D02*
X99055000Y-78745000D01*
%TO.N,/IEO_CTC*%
X81415980Y-125984000D02*
X81684980Y-125715000D01*
X81684980Y-125715000D02*
X83815000Y-125715000D01*
%TO.N,Net-(U14-Pad12)*%
X83815000Y-73665000D02*
X78237000Y-73665000D01*
X78237000Y-73665000D02*
X75692000Y-71120000D01*
X76773110Y-60693610D02*
X64401390Y-60693610D01*
X77039500Y-60960000D02*
X76773110Y-60693610D01*
X64401390Y-60693610D02*
X64145000Y-60950000D01*
%TO.N,Net-(U14-Pad15)*%
X78222000Y-63490000D02*
X64145000Y-63490000D01*
X83815000Y-81285000D02*
X79253000Y-81285000D01*
X79253000Y-81285000D02*
X78740000Y-80772000D01*
X78232000Y-63500000D02*
X78222000Y-63490000D01*
%TO.N,Net-(U14-Pad16)*%
X65679000Y-67564000D02*
X64145000Y-66030000D01*
X83815000Y-83825000D02*
X80269000Y-83825000D01*
X80269000Y-83825000D02*
X78232000Y-81788000D01*
X78064000Y-67564000D02*
X65679000Y-67564000D01*
%TO.N,Net-(U14-Pad18)*%
X77047989Y-70443989D02*
X63668011Y-70443989D01*
X77216000Y-70612000D02*
X77047989Y-70443989D01*
X79832989Y-88905000D02*
X78811989Y-87884000D01*
X83815000Y-88905000D02*
X79832989Y-88905000D01*
X63668011Y-70443989D02*
X63500000Y-70612000D01*
%TD*%
M02*
