%TF.GenerationSoftware,KiCad,Pcbnew,(6.0.4)*%
%TF.CreationDate,2022-10-24T21:32:19+02:00*%
%TF.ProjectId,Z80-MIO,5a38302d-4d49-44f2-9e6b-696361645f70,rev?*%
%TF.SameCoordinates,Original*%
%TF.FileFunction,Legend,Top*%
%TF.FilePolarity,Positive*%
%FSLAX46Y46*%
G04 Gerber Fmt 4.6, Leading zero omitted, Abs format (unit mm)*
G04 Created by KiCad (PCBNEW (6.0.4)) date 2022-10-24 21:32:19*
%MOMM*%
%LPD*%
G01*
G04 APERTURE LIST*
%ADD10C,0.150000*%
%ADD11C,0.400000*%
%ADD12C,0.100000*%
%ADD13C,0.120000*%
G04 APERTURE END LIST*
D10*
X100624285Y-142962380D02*
X100624285Y-143676666D01*
X100576666Y-143819523D01*
X100481428Y-143914761D01*
X100338571Y-143962380D01*
X100243333Y-143962380D01*
X101005238Y-142962380D02*
X101671904Y-142962380D01*
X101243333Y-143962380D01*
X102767142Y-143676666D02*
X103243333Y-143676666D01*
X102671904Y-143962380D02*
X103005238Y-142962380D01*
X103338571Y-143962380D01*
X103671904Y-143962380D02*
X103671904Y-142962380D01*
X104052857Y-142962380D01*
X104148095Y-143010000D01*
X104195714Y-143057619D01*
X104243333Y-143152857D01*
X104243333Y-143295714D01*
X104195714Y-143390952D01*
X104148095Y-143438571D01*
X104052857Y-143486190D01*
X103671904Y-143486190D01*
X104671904Y-142962380D02*
X104671904Y-143771904D01*
X104719523Y-143867142D01*
X104767142Y-143914761D01*
X104862380Y-143962380D01*
X105052857Y-143962380D01*
X105148095Y-143914761D01*
X105195714Y-143867142D01*
X105243333Y-143771904D01*
X105243333Y-142962380D01*
X106481428Y-143962380D02*
X106481428Y-142962380D01*
X106862380Y-142962380D01*
X106957619Y-143010000D01*
X107005238Y-143057619D01*
X107052857Y-143152857D01*
X107052857Y-143295714D01*
X107005238Y-143390952D01*
X106957619Y-143438571D01*
X106862380Y-143486190D01*
X106481428Y-143486190D01*
X107910000Y-143962380D02*
X107910000Y-143438571D01*
X107862380Y-143343333D01*
X107767142Y-143295714D01*
X107576666Y-143295714D01*
X107481428Y-143343333D01*
X107910000Y-143914761D02*
X107814761Y-143962380D01*
X107576666Y-143962380D01*
X107481428Y-143914761D01*
X107433809Y-143819523D01*
X107433809Y-143724285D01*
X107481428Y-143629047D01*
X107576666Y-143581428D01*
X107814761Y-143581428D01*
X107910000Y-143533809D01*
X108814761Y-143295714D02*
X108814761Y-143962380D01*
X108386190Y-143295714D02*
X108386190Y-143819523D01*
X108433809Y-143914761D01*
X108529047Y-143962380D01*
X108671904Y-143962380D01*
X108767142Y-143914761D01*
X108814761Y-143867142D01*
X109243333Y-143914761D02*
X109338571Y-143962380D01*
X109529047Y-143962380D01*
X109624285Y-143914761D01*
X109671904Y-143819523D01*
X109671904Y-143771904D01*
X109624285Y-143676666D01*
X109529047Y-143629047D01*
X109386190Y-143629047D01*
X109290952Y-143581428D01*
X109243333Y-143486190D01*
X109243333Y-143438571D01*
X109290952Y-143343333D01*
X109386190Y-143295714D01*
X109529047Y-143295714D01*
X109624285Y-143343333D01*
X110481428Y-143914761D02*
X110386190Y-143962380D01*
X110195714Y-143962380D01*
X110100476Y-143914761D01*
X110052857Y-143819523D01*
X110052857Y-143438571D01*
X110100476Y-143343333D01*
X110195714Y-143295714D01*
X110386190Y-143295714D01*
X110481428Y-143343333D01*
X110529047Y-143438571D01*
X110529047Y-143533809D01*
X110052857Y-143629047D01*
X79869309Y-113537380D02*
X79869309Y-114251666D01*
X79821690Y-114394523D01*
X79726452Y-114489761D01*
X79583595Y-114537380D01*
X79488357Y-114537380D01*
X80488357Y-113965952D02*
X80393119Y-113918333D01*
X80345500Y-113870714D01*
X80297880Y-113775476D01*
X80297880Y-113727857D01*
X80345500Y-113632619D01*
X80393119Y-113585000D01*
X80488357Y-113537380D01*
X80678833Y-113537380D01*
X80774071Y-113585000D01*
X80821690Y-113632619D01*
X80869309Y-113727857D01*
X80869309Y-113775476D01*
X80821690Y-113870714D01*
X80774071Y-113918333D01*
X80678833Y-113965952D01*
X80488357Y-113965952D01*
X80393119Y-114013571D01*
X80345500Y-114061190D01*
X80297880Y-114156428D01*
X80297880Y-114346904D01*
X80345500Y-114442142D01*
X80393119Y-114489761D01*
X80488357Y-114537380D01*
X80678833Y-114537380D01*
X80774071Y-114489761D01*
X80821690Y-114442142D01*
X80869309Y-114346904D01*
X80869309Y-114156428D01*
X80821690Y-114061190D01*
X80774071Y-114013571D01*
X80678833Y-113965952D01*
X82012166Y-114251666D02*
X82488357Y-114251666D01*
X81916928Y-114537380D02*
X82250261Y-113537380D01*
X82583595Y-114537380D01*
X82916928Y-114537380D02*
X82916928Y-113537380D01*
X83297880Y-113537380D01*
X83393119Y-113585000D01*
X83440738Y-113632619D01*
X83488357Y-113727857D01*
X83488357Y-113870714D01*
X83440738Y-113965952D01*
X83393119Y-114013571D01*
X83297880Y-114061190D01*
X82916928Y-114061190D01*
X83916928Y-113537380D02*
X83916928Y-114346904D01*
X83964547Y-114442142D01*
X84012166Y-114489761D01*
X84107404Y-114537380D01*
X84297880Y-114537380D01*
X84393119Y-114489761D01*
X84440738Y-114442142D01*
X84488357Y-114346904D01*
X84488357Y-113537380D01*
X86297880Y-114442142D02*
X86250261Y-114489761D01*
X86107404Y-114537380D01*
X86012166Y-114537380D01*
X85869309Y-114489761D01*
X85774071Y-114394523D01*
X85726452Y-114299285D01*
X85678833Y-114108809D01*
X85678833Y-113965952D01*
X85726452Y-113775476D01*
X85774071Y-113680238D01*
X85869309Y-113585000D01*
X86012166Y-113537380D01*
X86107404Y-113537380D01*
X86250261Y-113585000D01*
X86297880Y-113632619D01*
X86869309Y-114537380D02*
X86774071Y-114489761D01*
X86726452Y-114394523D01*
X86726452Y-113537380D01*
X87393119Y-114537380D02*
X87297880Y-114489761D01*
X87250261Y-114442142D01*
X87202642Y-114346904D01*
X87202642Y-114061190D01*
X87250261Y-113965952D01*
X87297880Y-113918333D01*
X87393119Y-113870714D01*
X87535976Y-113870714D01*
X87631214Y-113918333D01*
X87678833Y-113965952D01*
X87726452Y-114061190D01*
X87726452Y-114346904D01*
X87678833Y-114442142D01*
X87631214Y-114489761D01*
X87535976Y-114537380D01*
X87393119Y-114537380D01*
X88583595Y-114489761D02*
X88488357Y-114537380D01*
X88297880Y-114537380D01*
X88202642Y-114489761D01*
X88155023Y-114442142D01*
X88107404Y-114346904D01*
X88107404Y-114061190D01*
X88155023Y-113965952D01*
X88202642Y-113918333D01*
X88297880Y-113870714D01*
X88488357Y-113870714D01*
X88583595Y-113918333D01*
X89012166Y-114537380D02*
X89012166Y-113537380D01*
X89107404Y-114156428D02*
X89393119Y-114537380D01*
X89393119Y-113870714D02*
X89012166Y-114251666D01*
X80107404Y-116147380D02*
X79535976Y-116147380D01*
X79821690Y-116147380D02*
X79821690Y-115147380D01*
X79726452Y-115290238D01*
X79631214Y-115385476D01*
X79535976Y-115433095D01*
X80535976Y-115766428D02*
X81297880Y-115766428D01*
X81726452Y-115242619D02*
X81774071Y-115195000D01*
X81869309Y-115147380D01*
X82107404Y-115147380D01*
X82202642Y-115195000D01*
X82250261Y-115242619D01*
X82297880Y-115337857D01*
X82297880Y-115433095D01*
X82250261Y-115575952D01*
X81678833Y-116147380D01*
X82297880Y-116147380D01*
X84964547Y-115099761D02*
X84107404Y-116385476D01*
X85250261Y-115242619D02*
X85297880Y-115195000D01*
X85393119Y-115147380D01*
X85631214Y-115147380D01*
X85726452Y-115195000D01*
X85774071Y-115242619D01*
X85821690Y-115337857D01*
X85821690Y-115433095D01*
X85774071Y-115575952D01*
X85202642Y-116147380D01*
X85821690Y-116147380D01*
X79488357Y-116757380D02*
X80107404Y-116757380D01*
X79774071Y-117138333D01*
X79916928Y-117138333D01*
X80012166Y-117185952D01*
X80059785Y-117233571D01*
X80107404Y-117328809D01*
X80107404Y-117566904D01*
X80059785Y-117662142D01*
X80012166Y-117709761D01*
X79916928Y-117757380D01*
X79631214Y-117757380D01*
X79535976Y-117709761D01*
X79488357Y-117662142D01*
X80535976Y-117376428D02*
X81297880Y-117376428D01*
X82202642Y-117090714D02*
X82202642Y-117757380D01*
X81964547Y-116709761D02*
X81726452Y-117424047D01*
X82345500Y-117424047D01*
X84964547Y-116709761D02*
X84107404Y-117995476D01*
X85726452Y-117090714D02*
X85726452Y-117757380D01*
X85488357Y-116709761D02*
X85250261Y-117424047D01*
X85869309Y-117424047D01*
X80059785Y-118367380D02*
X79583595Y-118367380D01*
X79535976Y-118843571D01*
X79583595Y-118795952D01*
X79678833Y-118748333D01*
X79916928Y-118748333D01*
X80012166Y-118795952D01*
X80059785Y-118843571D01*
X80107404Y-118938809D01*
X80107404Y-119176904D01*
X80059785Y-119272142D01*
X80012166Y-119319761D01*
X79916928Y-119367380D01*
X79678833Y-119367380D01*
X79583595Y-119319761D01*
X79535976Y-119272142D01*
X80535976Y-118986428D02*
X81297880Y-118986428D01*
X82202642Y-118367380D02*
X82012166Y-118367380D01*
X81916928Y-118415000D01*
X81869309Y-118462619D01*
X81774071Y-118605476D01*
X81726452Y-118795952D01*
X81726452Y-119176904D01*
X81774071Y-119272142D01*
X81821690Y-119319761D01*
X81916928Y-119367380D01*
X82107404Y-119367380D01*
X82202642Y-119319761D01*
X82250261Y-119272142D01*
X82297880Y-119176904D01*
X82297880Y-118938809D01*
X82250261Y-118843571D01*
X82202642Y-118795952D01*
X82107404Y-118748333D01*
X81916928Y-118748333D01*
X81821690Y-118795952D01*
X81774071Y-118843571D01*
X81726452Y-118938809D01*
X84964547Y-118319761D02*
X84107404Y-119605476D01*
X85440738Y-118795952D02*
X85345500Y-118748333D01*
X85297880Y-118700714D01*
X85250261Y-118605476D01*
X85250261Y-118557857D01*
X85297880Y-118462619D01*
X85345500Y-118415000D01*
X85440738Y-118367380D01*
X85631214Y-118367380D01*
X85726452Y-118415000D01*
X85774071Y-118462619D01*
X85821690Y-118557857D01*
X85821690Y-118605476D01*
X85774071Y-118700714D01*
X85726452Y-118748333D01*
X85631214Y-118795952D01*
X85440738Y-118795952D01*
X85345500Y-118843571D01*
X85297880Y-118891190D01*
X85250261Y-118986428D01*
X85250261Y-119176904D01*
X85297880Y-119272142D01*
X85345500Y-119319761D01*
X85440738Y-119367380D01*
X85631214Y-119367380D01*
X85726452Y-119319761D01*
X85774071Y-119272142D01*
X85821690Y-119176904D01*
X85821690Y-118986428D01*
X85774071Y-118891190D01*
X85726452Y-118843571D01*
X85631214Y-118795952D01*
X79488357Y-119977380D02*
X80155023Y-119977380D01*
X79726452Y-120977380D01*
X80535976Y-120596428D02*
X81297880Y-120596428D01*
X81916928Y-120405952D02*
X81821690Y-120358333D01*
X81774071Y-120310714D01*
X81726452Y-120215476D01*
X81726452Y-120167857D01*
X81774071Y-120072619D01*
X81821690Y-120025000D01*
X81916928Y-119977380D01*
X82107404Y-119977380D01*
X82202642Y-120025000D01*
X82250261Y-120072619D01*
X82297880Y-120167857D01*
X82297880Y-120215476D01*
X82250261Y-120310714D01*
X82202642Y-120358333D01*
X82107404Y-120405952D01*
X81916928Y-120405952D01*
X81821690Y-120453571D01*
X81774071Y-120501190D01*
X81726452Y-120596428D01*
X81726452Y-120786904D01*
X81774071Y-120882142D01*
X81821690Y-120929761D01*
X81916928Y-120977380D01*
X82107404Y-120977380D01*
X82202642Y-120929761D01*
X82250261Y-120882142D01*
X82297880Y-120786904D01*
X82297880Y-120596428D01*
X82250261Y-120501190D01*
X82202642Y-120453571D01*
X82107404Y-120405952D01*
X84964547Y-119929761D02*
X84107404Y-121215476D01*
X85821690Y-120977380D02*
X85250261Y-120977380D01*
X85535976Y-120977380D02*
X85535976Y-119977380D01*
X85440738Y-120120238D01*
X85345500Y-120215476D01*
X85250261Y-120263095D01*
X86678833Y-119977380D02*
X86488357Y-119977380D01*
X86393119Y-120025000D01*
X86345500Y-120072619D01*
X86250261Y-120215476D01*
X86202642Y-120405952D01*
X86202642Y-120786904D01*
X86250261Y-120882142D01*
X86297880Y-120929761D01*
X86393119Y-120977380D01*
X86583595Y-120977380D01*
X86678833Y-120929761D01*
X86726452Y-120882142D01*
X86774071Y-120786904D01*
X86774071Y-120548809D01*
X86726452Y-120453571D01*
X86678833Y-120405952D01*
X86583595Y-120358333D01*
X86393119Y-120358333D01*
X86297880Y-120405952D01*
X86250261Y-120453571D01*
X86202642Y-120548809D01*
X79583595Y-122587380D02*
X79583595Y-121587380D01*
X79916928Y-122301666D01*
X80250261Y-121587380D01*
X80250261Y-122587380D01*
X81155023Y-122587380D02*
X81155023Y-122063571D01*
X81107404Y-121968333D01*
X81012166Y-121920714D01*
X80821690Y-121920714D01*
X80726452Y-121968333D01*
X81155023Y-122539761D02*
X81059785Y-122587380D01*
X80821690Y-122587380D01*
X80726452Y-122539761D01*
X80678833Y-122444523D01*
X80678833Y-122349285D01*
X80726452Y-122254047D01*
X80821690Y-122206428D01*
X81059785Y-122206428D01*
X81155023Y-122158809D01*
X81535976Y-122587380D02*
X82059785Y-121920714D01*
X81535976Y-121920714D02*
X82059785Y-122587380D01*
X82440738Y-122492142D02*
X82488357Y-122539761D01*
X82440738Y-122587380D01*
X82393119Y-122539761D01*
X82440738Y-122492142D01*
X82440738Y-122587380D01*
X83583595Y-121587380D02*
X84202642Y-121587380D01*
X83869309Y-121968333D01*
X84012166Y-121968333D01*
X84107404Y-122015952D01*
X84155023Y-122063571D01*
X84202642Y-122158809D01*
X84202642Y-122396904D01*
X84155023Y-122492142D01*
X84107404Y-122539761D01*
X84012166Y-122587380D01*
X83726452Y-122587380D01*
X83631214Y-122539761D01*
X83583595Y-122492142D01*
X84631214Y-122587380D02*
X84631214Y-121587380D01*
X84964547Y-122301666D01*
X85297880Y-121587380D01*
X85297880Y-122587380D01*
X85774071Y-122587380D02*
X85774071Y-121587380D01*
X85774071Y-122063571D02*
X86345500Y-122063571D01*
X86345500Y-122587380D02*
X86345500Y-121587380D01*
X86726452Y-121920714D02*
X87250261Y-121920714D01*
X86726452Y-122587380D01*
X87250261Y-122587380D01*
X58755595Y-70302380D02*
X58755595Y-69302380D01*
X59088928Y-70016666D01*
X59422261Y-69302380D01*
X59422261Y-70302380D01*
X60041309Y-70302380D02*
X59946071Y-70254761D01*
X59898452Y-70207142D01*
X59850833Y-70111904D01*
X59850833Y-69826190D01*
X59898452Y-69730952D01*
X59946071Y-69683333D01*
X60041309Y-69635714D01*
X60184166Y-69635714D01*
X60279404Y-69683333D01*
X60327023Y-69730952D01*
X60374642Y-69826190D01*
X60374642Y-70111904D01*
X60327023Y-70207142D01*
X60279404Y-70254761D01*
X60184166Y-70302380D01*
X60041309Y-70302380D01*
X61231785Y-69635714D02*
X61231785Y-70302380D01*
X60803214Y-69635714D02*
X60803214Y-70159523D01*
X60850833Y-70254761D01*
X60946071Y-70302380D01*
X61088928Y-70302380D01*
X61184166Y-70254761D01*
X61231785Y-70207142D01*
X61660357Y-70254761D02*
X61755595Y-70302380D01*
X61946071Y-70302380D01*
X62041309Y-70254761D01*
X62088928Y-70159523D01*
X62088928Y-70111904D01*
X62041309Y-70016666D01*
X61946071Y-69969047D01*
X61803214Y-69969047D01*
X61707976Y-69921428D01*
X61660357Y-69826190D01*
X61660357Y-69778571D01*
X61707976Y-69683333D01*
X61803214Y-69635714D01*
X61946071Y-69635714D01*
X62041309Y-69683333D01*
X62898452Y-70254761D02*
X62803214Y-70302380D01*
X62612738Y-70302380D01*
X62517500Y-70254761D01*
X62469880Y-70159523D01*
X62469880Y-69778571D01*
X62517500Y-69683333D01*
X62612738Y-69635714D01*
X62803214Y-69635714D01*
X62898452Y-69683333D01*
X62946071Y-69778571D01*
X62946071Y-69873809D01*
X62469880Y-69969047D01*
X73773309Y-89915380D02*
X73773309Y-90629666D01*
X73725690Y-90772523D01*
X73630452Y-90867761D01*
X73487595Y-90915380D01*
X73392357Y-90915380D01*
X74773309Y-90915380D02*
X74201880Y-90915380D01*
X74487595Y-90915380D02*
X74487595Y-89915380D01*
X74392357Y-90058238D01*
X74297119Y-90153476D01*
X74201880Y-90201095D01*
X76297119Y-90391571D02*
X76439976Y-90439190D01*
X76487595Y-90486809D01*
X76535214Y-90582047D01*
X76535214Y-90724904D01*
X76487595Y-90820142D01*
X76439976Y-90867761D01*
X76344738Y-90915380D01*
X75963785Y-90915380D01*
X75963785Y-89915380D01*
X76297119Y-89915380D01*
X76392357Y-89963000D01*
X76439976Y-90010619D01*
X76487595Y-90105857D01*
X76487595Y-90201095D01*
X76439976Y-90296333D01*
X76392357Y-90343952D01*
X76297119Y-90391571D01*
X75963785Y-90391571D01*
X77106642Y-90915380D02*
X77011404Y-90867761D01*
X76963785Y-90820142D01*
X76916166Y-90724904D01*
X76916166Y-90439190D01*
X76963785Y-90343952D01*
X77011404Y-90296333D01*
X77106642Y-90248714D01*
X77249500Y-90248714D01*
X77344738Y-90296333D01*
X77392357Y-90343952D01*
X77439976Y-90439190D01*
X77439976Y-90724904D01*
X77392357Y-90820142D01*
X77344738Y-90867761D01*
X77249500Y-90915380D01*
X77106642Y-90915380D01*
X78297119Y-90915380D02*
X78297119Y-90391571D01*
X78249500Y-90296333D01*
X78154261Y-90248714D01*
X77963785Y-90248714D01*
X77868547Y-90296333D01*
X78297119Y-90867761D02*
X78201880Y-90915380D01*
X77963785Y-90915380D01*
X77868547Y-90867761D01*
X77820928Y-90772523D01*
X77820928Y-90677285D01*
X77868547Y-90582047D01*
X77963785Y-90534428D01*
X78201880Y-90534428D01*
X78297119Y-90486809D01*
X78773309Y-90915380D02*
X78773309Y-90248714D01*
X78773309Y-90439190D02*
X78820928Y-90343952D01*
X78868547Y-90296333D01*
X78963785Y-90248714D01*
X79059023Y-90248714D01*
X79820928Y-90915380D02*
X79820928Y-89915380D01*
X79820928Y-90867761D02*
X79725690Y-90915380D01*
X79535214Y-90915380D01*
X79439976Y-90867761D01*
X79392357Y-90820142D01*
X79344738Y-90724904D01*
X79344738Y-90439190D01*
X79392357Y-90343952D01*
X79439976Y-90296333D01*
X79535214Y-90248714D01*
X79725690Y-90248714D01*
X79820928Y-90296333D01*
X81059023Y-90915380D02*
X81059023Y-89915380D01*
X81059023Y-90296333D02*
X81154261Y-90248714D01*
X81344738Y-90248714D01*
X81439976Y-90296333D01*
X81487595Y-90343952D01*
X81535214Y-90439190D01*
X81535214Y-90724904D01*
X81487595Y-90820142D01*
X81439976Y-90867761D01*
X81344738Y-90915380D01*
X81154261Y-90915380D01*
X81059023Y-90867761D01*
X82392357Y-90915380D02*
X82392357Y-90391571D01*
X82344738Y-90296333D01*
X82249500Y-90248714D01*
X82059023Y-90248714D01*
X81963785Y-90296333D01*
X82392357Y-90867761D02*
X82297119Y-90915380D01*
X82059023Y-90915380D01*
X81963785Y-90867761D01*
X81916166Y-90772523D01*
X81916166Y-90677285D01*
X81963785Y-90582047D01*
X82059023Y-90534428D01*
X82297119Y-90534428D01*
X82392357Y-90486809D01*
X82820928Y-90867761D02*
X82916166Y-90915380D01*
X83106642Y-90915380D01*
X83201880Y-90867761D01*
X83249500Y-90772523D01*
X83249500Y-90724904D01*
X83201880Y-90629666D01*
X83106642Y-90582047D01*
X82963785Y-90582047D01*
X82868547Y-90534428D01*
X82820928Y-90439190D01*
X82820928Y-90391571D01*
X82868547Y-90296333D01*
X82963785Y-90248714D01*
X83106642Y-90248714D01*
X83201880Y-90296333D01*
X84059023Y-90867761D02*
X83963785Y-90915380D01*
X83773309Y-90915380D01*
X83678071Y-90867761D01*
X83630452Y-90772523D01*
X83630452Y-90391571D01*
X83678071Y-90296333D01*
X83773309Y-90248714D01*
X83963785Y-90248714D01*
X84059023Y-90296333D01*
X84106642Y-90391571D01*
X84106642Y-90486809D01*
X83630452Y-90582047D01*
X85725690Y-90915380D02*
X85725690Y-90391571D01*
X85678071Y-90296333D01*
X85582833Y-90248714D01*
X85392357Y-90248714D01*
X85297119Y-90296333D01*
X85725690Y-90867761D02*
X85630452Y-90915380D01*
X85392357Y-90915380D01*
X85297119Y-90867761D01*
X85249500Y-90772523D01*
X85249500Y-90677285D01*
X85297119Y-90582047D01*
X85392357Y-90534428D01*
X85630452Y-90534428D01*
X85725690Y-90486809D01*
X86630452Y-90915380D02*
X86630452Y-89915380D01*
X86630452Y-90867761D02*
X86535214Y-90915380D01*
X86344738Y-90915380D01*
X86249500Y-90867761D01*
X86201880Y-90820142D01*
X86154261Y-90724904D01*
X86154261Y-90439190D01*
X86201880Y-90343952D01*
X86249500Y-90296333D01*
X86344738Y-90248714D01*
X86535214Y-90248714D01*
X86630452Y-90296333D01*
X87535214Y-90915380D02*
X87535214Y-89915380D01*
X87535214Y-90867761D02*
X87439976Y-90915380D01*
X87249500Y-90915380D01*
X87154261Y-90867761D01*
X87106642Y-90820142D01*
X87059023Y-90724904D01*
X87059023Y-90439190D01*
X87106642Y-90343952D01*
X87154261Y-90296333D01*
X87249500Y-90248714D01*
X87439976Y-90248714D01*
X87535214Y-90296333D01*
X88011404Y-90915380D02*
X88011404Y-90248714D01*
X88011404Y-90439190D02*
X88059023Y-90343952D01*
X88106642Y-90296333D01*
X88201880Y-90248714D01*
X88297119Y-90248714D01*
X89011404Y-90867761D02*
X88916166Y-90915380D01*
X88725690Y-90915380D01*
X88630452Y-90867761D01*
X88582833Y-90772523D01*
X88582833Y-90391571D01*
X88630452Y-90296333D01*
X88725690Y-90248714D01*
X88916166Y-90248714D01*
X89011404Y-90296333D01*
X89059023Y-90391571D01*
X89059023Y-90486809D01*
X88582833Y-90582047D01*
X89439976Y-90867761D02*
X89535214Y-90915380D01*
X89725690Y-90915380D01*
X89820928Y-90867761D01*
X89868547Y-90772523D01*
X89868547Y-90724904D01*
X89820928Y-90629666D01*
X89725690Y-90582047D01*
X89582833Y-90582047D01*
X89487595Y-90534428D01*
X89439976Y-90439190D01*
X89439976Y-90391571D01*
X89487595Y-90296333D01*
X89582833Y-90248714D01*
X89725690Y-90248714D01*
X89820928Y-90296333D01*
X90249500Y-90867761D02*
X90344738Y-90915380D01*
X90535214Y-90915380D01*
X90630452Y-90867761D01*
X90678071Y-90772523D01*
X90678071Y-90724904D01*
X90630452Y-90629666D01*
X90535214Y-90582047D01*
X90392357Y-90582047D01*
X90297119Y-90534428D01*
X90249500Y-90439190D01*
X90249500Y-90391571D01*
X90297119Y-90296333D01*
X90392357Y-90248714D01*
X90535214Y-90248714D01*
X90630452Y-90296333D01*
X74011404Y-92525380D02*
X73439976Y-92525380D01*
X73725690Y-92525380D02*
X73725690Y-91525380D01*
X73630452Y-91668238D01*
X73535214Y-91763476D01*
X73439976Y-91811095D01*
X74439976Y-92144428D02*
X75201880Y-92144428D01*
X75630452Y-91620619D02*
X75678071Y-91573000D01*
X75773309Y-91525380D01*
X76011404Y-91525380D01*
X76106642Y-91573000D01*
X76154261Y-91620619D01*
X76201880Y-91715857D01*
X76201880Y-91811095D01*
X76154261Y-91953952D01*
X75582833Y-92525380D01*
X76201880Y-92525380D01*
X78106642Y-92239666D02*
X78582833Y-92239666D01*
X78011404Y-92525380D02*
X78344738Y-91525380D01*
X78678071Y-92525380D01*
X78916166Y-91525380D02*
X79582833Y-91525380D01*
X79154261Y-92525380D01*
X73392357Y-93135380D02*
X74011404Y-93135380D01*
X73678071Y-93516333D01*
X73820928Y-93516333D01*
X73916166Y-93563952D01*
X73963785Y-93611571D01*
X74011404Y-93706809D01*
X74011404Y-93944904D01*
X73963785Y-94040142D01*
X73916166Y-94087761D01*
X73820928Y-94135380D01*
X73535214Y-94135380D01*
X73439976Y-94087761D01*
X73392357Y-94040142D01*
X74439976Y-93754428D02*
X75201880Y-93754428D01*
X76106642Y-93468714D02*
X76106642Y-94135380D01*
X75868547Y-93087761D02*
X75630452Y-93802047D01*
X76249500Y-93802047D01*
X78106642Y-93849666D02*
X78582833Y-93849666D01*
X78011404Y-94135380D02*
X78344738Y-93135380D01*
X78678071Y-94135380D01*
X79439976Y-93135380D02*
X79249500Y-93135380D01*
X79154261Y-93183000D01*
X79106642Y-93230619D01*
X79011404Y-93373476D01*
X78963785Y-93563952D01*
X78963785Y-93944904D01*
X79011404Y-94040142D01*
X79059023Y-94087761D01*
X79154261Y-94135380D01*
X79344738Y-94135380D01*
X79439976Y-94087761D01*
X79487595Y-94040142D01*
X79535214Y-93944904D01*
X79535214Y-93706809D01*
X79487595Y-93611571D01*
X79439976Y-93563952D01*
X79344738Y-93516333D01*
X79154261Y-93516333D01*
X79059023Y-93563952D01*
X79011404Y-93611571D01*
X78963785Y-93706809D01*
X73963785Y-94745380D02*
X73487595Y-94745380D01*
X73439976Y-95221571D01*
X73487595Y-95173952D01*
X73582833Y-95126333D01*
X73820928Y-95126333D01*
X73916166Y-95173952D01*
X73963785Y-95221571D01*
X74011404Y-95316809D01*
X74011404Y-95554904D01*
X73963785Y-95650142D01*
X73916166Y-95697761D01*
X73820928Y-95745380D01*
X73582833Y-95745380D01*
X73487595Y-95697761D01*
X73439976Y-95650142D01*
X74439976Y-95364428D02*
X75201880Y-95364428D01*
X76106642Y-94745380D02*
X75916166Y-94745380D01*
X75820928Y-94793000D01*
X75773309Y-94840619D01*
X75678071Y-94983476D01*
X75630452Y-95173952D01*
X75630452Y-95554904D01*
X75678071Y-95650142D01*
X75725690Y-95697761D01*
X75820928Y-95745380D01*
X76011404Y-95745380D01*
X76106642Y-95697761D01*
X76154261Y-95650142D01*
X76201880Y-95554904D01*
X76201880Y-95316809D01*
X76154261Y-95221571D01*
X76106642Y-95173952D01*
X76011404Y-95126333D01*
X75820928Y-95126333D01*
X75725690Y-95173952D01*
X75678071Y-95221571D01*
X75630452Y-95316809D01*
X78106642Y-95459666D02*
X78582833Y-95459666D01*
X78011404Y-95745380D02*
X78344738Y-94745380D01*
X78678071Y-95745380D01*
X79487595Y-94745380D02*
X79011404Y-94745380D01*
X78963785Y-95221571D01*
X79011404Y-95173952D01*
X79106642Y-95126333D01*
X79344738Y-95126333D01*
X79439976Y-95173952D01*
X79487595Y-95221571D01*
X79535214Y-95316809D01*
X79535214Y-95554904D01*
X79487595Y-95650142D01*
X79439976Y-95697761D01*
X79344738Y-95745380D01*
X79106642Y-95745380D01*
X79011404Y-95697761D01*
X78963785Y-95650142D01*
X73392357Y-96355380D02*
X74059023Y-96355380D01*
X73630452Y-97355380D01*
X74439976Y-96974428D02*
X75201880Y-96974428D01*
X75820928Y-96783952D02*
X75725690Y-96736333D01*
X75678071Y-96688714D01*
X75630452Y-96593476D01*
X75630452Y-96545857D01*
X75678071Y-96450619D01*
X75725690Y-96403000D01*
X75820928Y-96355380D01*
X76011404Y-96355380D01*
X76106642Y-96403000D01*
X76154261Y-96450619D01*
X76201880Y-96545857D01*
X76201880Y-96593476D01*
X76154261Y-96688714D01*
X76106642Y-96736333D01*
X76011404Y-96783952D01*
X75820928Y-96783952D01*
X75725690Y-96831571D01*
X75678071Y-96879190D01*
X75630452Y-96974428D01*
X75630452Y-97164904D01*
X75678071Y-97260142D01*
X75725690Y-97307761D01*
X75820928Y-97355380D01*
X76011404Y-97355380D01*
X76106642Y-97307761D01*
X76154261Y-97260142D01*
X76201880Y-97164904D01*
X76201880Y-96974428D01*
X76154261Y-96879190D01*
X76106642Y-96831571D01*
X76011404Y-96783952D01*
X78106642Y-97069666D02*
X78582833Y-97069666D01*
X78011404Y-97355380D02*
X78344738Y-96355380D01*
X78678071Y-97355380D01*
X79439976Y-96688714D02*
X79439976Y-97355380D01*
X79201880Y-96307761D02*
X78963785Y-97022047D01*
X79582833Y-97022047D01*
X73535214Y-98965380D02*
X73725690Y-98965380D01*
X73820928Y-98917761D01*
X73868547Y-98870142D01*
X73963785Y-98727285D01*
X74011404Y-98536809D01*
X74011404Y-98155857D01*
X73963785Y-98060619D01*
X73916166Y-98013000D01*
X73820928Y-97965380D01*
X73630452Y-97965380D01*
X73535214Y-98013000D01*
X73487595Y-98060619D01*
X73439976Y-98155857D01*
X73439976Y-98393952D01*
X73487595Y-98489190D01*
X73535214Y-98536809D01*
X73630452Y-98584428D01*
X73820928Y-98584428D01*
X73916166Y-98536809D01*
X73963785Y-98489190D01*
X74011404Y-98393952D01*
X74439976Y-98584428D02*
X75201880Y-98584428D01*
X76201880Y-98965380D02*
X75630452Y-98965380D01*
X75916166Y-98965380D02*
X75916166Y-97965380D01*
X75820928Y-98108238D01*
X75725690Y-98203476D01*
X75630452Y-98251095D01*
X76820928Y-97965380D02*
X76916166Y-97965380D01*
X77011404Y-98013000D01*
X77059023Y-98060619D01*
X77106642Y-98155857D01*
X77154261Y-98346333D01*
X77154261Y-98584428D01*
X77106642Y-98774904D01*
X77059023Y-98870142D01*
X77011404Y-98917761D01*
X76916166Y-98965380D01*
X76820928Y-98965380D01*
X76725690Y-98917761D01*
X76678071Y-98870142D01*
X76630452Y-98774904D01*
X76582833Y-98584428D01*
X76582833Y-98346333D01*
X76630452Y-98155857D01*
X76678071Y-98060619D01*
X76725690Y-98013000D01*
X76820928Y-97965380D01*
X78344738Y-98965380D02*
X78344738Y-97965380D01*
X78916166Y-98965380D01*
X78916166Y-97965380D01*
X80106642Y-97917761D02*
X79249500Y-99203476D01*
X81011404Y-98870142D02*
X80963785Y-98917761D01*
X80820928Y-98965380D01*
X80725690Y-98965380D01*
X80582833Y-98917761D01*
X80487595Y-98822523D01*
X80439976Y-98727285D01*
X80392357Y-98536809D01*
X80392357Y-98393952D01*
X80439976Y-98203476D01*
X80487595Y-98108238D01*
X80582833Y-98013000D01*
X80725690Y-97965380D01*
X80820928Y-97965380D01*
X80963785Y-98013000D01*
X81011404Y-98060619D01*
X144925023Y-109926380D02*
X144591690Y-109450190D01*
X144353595Y-109926380D02*
X144353595Y-108926380D01*
X144734547Y-108926380D01*
X144829785Y-108974000D01*
X144877404Y-109021619D01*
X144925023Y-109116857D01*
X144925023Y-109259714D01*
X144877404Y-109354952D01*
X144829785Y-109402571D01*
X144734547Y-109450190D01*
X144353595Y-109450190D01*
X145210738Y-108926380D02*
X145782166Y-108926380D01*
X145496452Y-109926380D02*
X145496452Y-108926380D01*
X146686928Y-109831142D02*
X146639309Y-109878761D01*
X146496452Y-109926380D01*
X146401214Y-109926380D01*
X146258357Y-109878761D01*
X146163119Y-109783523D01*
X146115500Y-109688285D01*
X146067880Y-109497809D01*
X146067880Y-109354952D01*
X146115500Y-109164476D01*
X146163119Y-109069238D01*
X146258357Y-108974000D01*
X146401214Y-108926380D01*
X146496452Y-108926380D01*
X146639309Y-108974000D01*
X146686928Y-109021619D01*
X148210738Y-109402571D02*
X148353595Y-109450190D01*
X148401214Y-109497809D01*
X148448833Y-109593047D01*
X148448833Y-109735904D01*
X148401214Y-109831142D01*
X148353595Y-109878761D01*
X148258357Y-109926380D01*
X147877404Y-109926380D01*
X147877404Y-108926380D01*
X148210738Y-108926380D01*
X148305976Y-108974000D01*
X148353595Y-109021619D01*
X148401214Y-109116857D01*
X148401214Y-109212095D01*
X148353595Y-109307333D01*
X148305976Y-109354952D01*
X148210738Y-109402571D01*
X147877404Y-109402571D01*
X149305976Y-109926380D02*
X149305976Y-109402571D01*
X149258357Y-109307333D01*
X149163119Y-109259714D01*
X148972642Y-109259714D01*
X148877404Y-109307333D01*
X149305976Y-109878761D02*
X149210738Y-109926380D01*
X148972642Y-109926380D01*
X148877404Y-109878761D01*
X148829785Y-109783523D01*
X148829785Y-109688285D01*
X148877404Y-109593047D01*
X148972642Y-109545428D01*
X149210738Y-109545428D01*
X149305976Y-109497809D01*
X149639309Y-109259714D02*
X150020261Y-109259714D01*
X149782166Y-108926380D02*
X149782166Y-109783523D01*
X149829785Y-109878761D01*
X149925023Y-109926380D01*
X150020261Y-109926380D01*
X150210738Y-109259714D02*
X150591690Y-109259714D01*
X150353595Y-108926380D02*
X150353595Y-109783523D01*
X150401214Y-109878761D01*
X150496452Y-109926380D01*
X150591690Y-109926380D01*
X151305976Y-109878761D02*
X151210738Y-109926380D01*
X151020261Y-109926380D01*
X150925023Y-109878761D01*
X150877404Y-109783523D01*
X150877404Y-109402571D01*
X150925023Y-109307333D01*
X151020261Y-109259714D01*
X151210738Y-109259714D01*
X151305976Y-109307333D01*
X151353595Y-109402571D01*
X151353595Y-109497809D01*
X150877404Y-109593047D01*
X151782166Y-109926380D02*
X151782166Y-109259714D01*
X151782166Y-109450190D02*
X151829785Y-109354952D01*
X151877404Y-109307333D01*
X151972642Y-109259714D01*
X152067880Y-109259714D01*
X152305976Y-109259714D02*
X152544071Y-109926380D01*
X152782166Y-109259714D02*
X152544071Y-109926380D01*
X152448833Y-110164476D01*
X152401214Y-110212095D01*
X152305976Y-110259714D01*
X56739404Y-104656000D02*
X56644166Y-104608380D01*
X56501309Y-104608380D01*
X56358452Y-104656000D01*
X56263214Y-104751238D01*
X56215595Y-104846476D01*
X56167976Y-105036952D01*
X56167976Y-105179809D01*
X56215595Y-105370285D01*
X56263214Y-105465523D01*
X56358452Y-105560761D01*
X56501309Y-105608380D01*
X56596547Y-105608380D01*
X56739404Y-105560761D01*
X56787023Y-105513142D01*
X56787023Y-105179809D01*
X56596547Y-105179809D01*
X57215595Y-105608380D02*
X57215595Y-104608380D01*
X57596547Y-104608380D01*
X57691785Y-104656000D01*
X57739404Y-104703619D01*
X57787023Y-104798857D01*
X57787023Y-104941714D01*
X57739404Y-105036952D01*
X57691785Y-105084571D01*
X57596547Y-105132190D01*
X57215595Y-105132190D01*
X58215595Y-105608380D02*
X58215595Y-104608380D01*
X58882261Y-104608380D02*
X59072738Y-104608380D01*
X59167976Y-104656000D01*
X59263214Y-104751238D01*
X59310833Y-104941714D01*
X59310833Y-105275047D01*
X59263214Y-105465523D01*
X59167976Y-105560761D01*
X59072738Y-105608380D01*
X58882261Y-105608380D01*
X58787023Y-105560761D01*
X58691785Y-105465523D01*
X58644166Y-105275047D01*
X58644166Y-104941714D01*
X58691785Y-104751238D01*
X58787023Y-104656000D01*
X58882261Y-104608380D01*
X60501309Y-105608380D02*
X60501309Y-104608380D01*
X60882261Y-104608380D01*
X60977500Y-104656000D01*
X61025119Y-104703619D01*
X61072738Y-104798857D01*
X61072738Y-104941714D01*
X61025119Y-105036952D01*
X60977500Y-105084571D01*
X60882261Y-105132190D01*
X60501309Y-105132190D01*
X61644166Y-105608380D02*
X61548928Y-105560761D01*
X61501309Y-105513142D01*
X61453690Y-105417904D01*
X61453690Y-105132190D01*
X61501309Y-105036952D01*
X61548928Y-104989333D01*
X61644166Y-104941714D01*
X61787023Y-104941714D01*
X61882261Y-104989333D01*
X61929880Y-105036952D01*
X61977500Y-105132190D01*
X61977500Y-105417904D01*
X61929880Y-105513142D01*
X61882261Y-105560761D01*
X61787023Y-105608380D01*
X61644166Y-105608380D01*
X62406071Y-105608380D02*
X62406071Y-104941714D01*
X62406071Y-105132190D02*
X62453690Y-105036952D01*
X62501309Y-104989333D01*
X62596547Y-104941714D01*
X62691785Y-104941714D01*
X62882261Y-104941714D02*
X63263214Y-104941714D01*
X63025119Y-104608380D02*
X63025119Y-105465523D01*
X63072738Y-105560761D01*
X63167976Y-105608380D01*
X63263214Y-105608380D01*
X64310833Y-105322666D02*
X64787023Y-105322666D01*
X64215595Y-105608380D02*
X64548928Y-104608380D01*
X64882261Y-105608380D01*
X125757320Y-119340369D02*
X125757320Y-120054655D01*
X125709701Y-120197512D01*
X125614463Y-120292750D01*
X125471606Y-120340369D01*
X125376368Y-120340369D01*
X126185891Y-119435608D02*
X126233511Y-119387989D01*
X126328749Y-119340369D01*
X126566844Y-119340369D01*
X126662082Y-119387989D01*
X126709701Y-119435608D01*
X126757320Y-119530846D01*
X126757320Y-119626084D01*
X126709701Y-119768941D01*
X126138272Y-120340369D01*
X126757320Y-120340369D01*
X127947796Y-120340369D02*
X127947796Y-119340369D01*
X128376368Y-119435608D02*
X128423987Y-119387989D01*
X128519225Y-119340369D01*
X128757320Y-119340369D01*
X128852558Y-119387989D01*
X128900177Y-119435608D01*
X128947796Y-119530846D01*
X128947796Y-119626084D01*
X128900177Y-119768941D01*
X128328749Y-120340369D01*
X128947796Y-120340369D01*
X129947796Y-120245131D02*
X129900177Y-120292750D01*
X129757320Y-120340369D01*
X129662082Y-120340369D01*
X129519225Y-120292750D01*
X129423987Y-120197512D01*
X129376368Y-120102274D01*
X129328749Y-119911798D01*
X129328749Y-119768941D01*
X129376368Y-119578465D01*
X129423987Y-119483227D01*
X129519225Y-119387989D01*
X129662082Y-119340369D01*
X129757320Y-119340369D01*
X129900177Y-119387989D01*
X129947796Y-119435608D01*
X131709701Y-120340369D02*
X131376368Y-119864179D01*
X131138272Y-120340369D02*
X131138272Y-119340369D01*
X131519225Y-119340369D01*
X131614463Y-119387989D01*
X131662082Y-119435608D01*
X131709701Y-119530846D01*
X131709701Y-119673703D01*
X131662082Y-119768941D01*
X131614463Y-119816560D01*
X131519225Y-119864179D01*
X131138272Y-119864179D01*
X132281130Y-120340369D02*
X132185891Y-120292750D01*
X132138272Y-120245131D01*
X132090653Y-120149893D01*
X132090653Y-119864179D01*
X132138272Y-119768941D01*
X132185891Y-119721322D01*
X132281130Y-119673703D01*
X132423987Y-119673703D01*
X132519225Y-119721322D01*
X132566844Y-119768941D01*
X132614463Y-119864179D01*
X132614463Y-120149893D01*
X132566844Y-120245131D01*
X132519225Y-120292750D01*
X132423987Y-120340369D01*
X132281130Y-120340369D01*
X133471606Y-119673703D02*
X133471606Y-120340369D01*
X133043034Y-119673703D02*
X133043034Y-120197512D01*
X133090653Y-120292750D01*
X133185891Y-120340369D01*
X133328749Y-120340369D01*
X133423987Y-120292750D01*
X133471606Y-120245131D01*
X133804939Y-119673703D02*
X134185891Y-119673703D01*
X133947796Y-119340369D02*
X133947796Y-120197512D01*
X133995415Y-120292750D01*
X134090653Y-120340369D01*
X134185891Y-120340369D01*
X134519225Y-120340369D02*
X134519225Y-119673703D01*
X134519225Y-119340369D02*
X134471606Y-119387989D01*
X134519225Y-119435608D01*
X134566844Y-119387989D01*
X134519225Y-119340369D01*
X134519225Y-119435608D01*
X134995415Y-119673703D02*
X134995415Y-120340369D01*
X134995415Y-119768941D02*
X135043034Y-119721322D01*
X135138272Y-119673703D01*
X135281130Y-119673703D01*
X135376368Y-119721322D01*
X135423987Y-119816560D01*
X135423987Y-120340369D01*
X136328749Y-119673703D02*
X136328749Y-120483227D01*
X136281130Y-120578465D01*
X136233511Y-120626084D01*
X136138272Y-120673703D01*
X135995415Y-120673703D01*
X135900177Y-120626084D01*
X136328749Y-120292750D02*
X136233511Y-120340369D01*
X136043034Y-120340369D01*
X135947796Y-120292750D01*
X135900177Y-120245131D01*
X135852558Y-120149893D01*
X135852558Y-119864179D01*
X135900177Y-119768941D01*
X135947796Y-119721322D01*
X136043034Y-119673703D01*
X136233511Y-119673703D01*
X136328749Y-119721322D01*
X125995415Y-121950369D02*
X125423987Y-121950369D01*
X125709701Y-121950369D02*
X125709701Y-120950369D01*
X125614463Y-121093227D01*
X125519225Y-121188465D01*
X125423987Y-121236084D01*
X126423987Y-121569417D02*
X127185891Y-121569417D01*
X127614463Y-121045608D02*
X127662082Y-120997989D01*
X127757320Y-120950369D01*
X127995415Y-120950369D01*
X128090653Y-120997989D01*
X128138272Y-121045608D01*
X128185891Y-121140846D01*
X128185891Y-121236084D01*
X128138272Y-121378941D01*
X127566844Y-121950369D01*
X128185891Y-121950369D01*
X129328749Y-121902750D02*
X129471606Y-121950369D01*
X129709701Y-121950369D01*
X129804939Y-121902750D01*
X129852558Y-121855131D01*
X129900177Y-121759893D01*
X129900177Y-121664655D01*
X129852558Y-121569417D01*
X129804939Y-121521798D01*
X129709701Y-121474179D01*
X129519225Y-121426560D01*
X129423987Y-121378941D01*
X129376368Y-121331322D01*
X129328749Y-121236084D01*
X129328749Y-121140846D01*
X129376368Y-121045608D01*
X129423987Y-120997989D01*
X129519225Y-120950369D01*
X129757320Y-120950369D01*
X129900177Y-120997989D01*
X130328749Y-121950369D02*
X130328749Y-120950369D01*
X130566844Y-120950369D01*
X130709701Y-120997989D01*
X130804939Y-121093227D01*
X130852558Y-121188465D01*
X130900177Y-121378941D01*
X130900177Y-121521798D01*
X130852558Y-121712274D01*
X130804939Y-121807512D01*
X130709701Y-121902750D01*
X130566844Y-121950369D01*
X130328749Y-121950369D01*
X131281130Y-121664655D02*
X131757320Y-121664655D01*
X131185891Y-121950369D02*
X131519225Y-120950369D01*
X131852558Y-121950369D01*
X132185891Y-121283703D02*
X132947796Y-121569417D01*
X132185891Y-121855131D01*
X133376368Y-121664655D02*
X133852558Y-121664655D01*
X133281130Y-121950369D02*
X133614463Y-120950369D01*
X133947796Y-121950369D01*
X134233511Y-121045608D02*
X134281130Y-120997989D01*
X134376368Y-120950369D01*
X134614463Y-120950369D01*
X134709701Y-120997989D01*
X134757320Y-121045608D01*
X134804939Y-121140846D01*
X134804939Y-121236084D01*
X134757320Y-121378941D01*
X134185891Y-121950369D01*
X134804939Y-121950369D01*
X135138272Y-120950369D02*
X135757320Y-120950369D01*
X135423987Y-121331322D01*
X135566844Y-121331322D01*
X135662082Y-121378941D01*
X135709701Y-121426560D01*
X135757320Y-121521798D01*
X135757320Y-121759893D01*
X135709701Y-121855131D01*
X135662082Y-121902750D01*
X135566844Y-121950369D01*
X135281130Y-121950369D01*
X135185891Y-121902750D01*
X135138272Y-121855131D01*
X125376368Y-122560369D02*
X125995415Y-122560369D01*
X125662082Y-122941322D01*
X125804939Y-122941322D01*
X125900177Y-122988941D01*
X125947796Y-123036560D01*
X125995415Y-123131798D01*
X125995415Y-123369893D01*
X125947796Y-123465131D01*
X125900177Y-123512750D01*
X125804939Y-123560369D01*
X125519225Y-123560369D01*
X125423987Y-123512750D01*
X125376368Y-123465131D01*
X126423987Y-123179417D02*
X127185891Y-123179417D01*
X128090653Y-122893703D02*
X128090653Y-123560369D01*
X127852558Y-122512750D02*
X127614463Y-123227036D01*
X128233511Y-123227036D01*
X129328749Y-123512750D02*
X129471606Y-123560369D01*
X129709701Y-123560369D01*
X129804939Y-123512750D01*
X129852558Y-123465131D01*
X129900177Y-123369893D01*
X129900177Y-123274655D01*
X129852558Y-123179417D01*
X129804939Y-123131798D01*
X129709701Y-123084179D01*
X129519225Y-123036560D01*
X129423987Y-122988941D01*
X129376368Y-122941322D01*
X129328749Y-122846084D01*
X129328749Y-122750846D01*
X129376368Y-122655608D01*
X129423987Y-122607989D01*
X129519225Y-122560369D01*
X129757320Y-122560369D01*
X129900177Y-122607989D01*
X130328749Y-123560369D02*
X130328749Y-122560369D01*
X130566844Y-122560369D01*
X130709701Y-122607989D01*
X130804939Y-122703227D01*
X130852558Y-122798465D01*
X130900177Y-122988941D01*
X130900177Y-123131798D01*
X130852558Y-123322274D01*
X130804939Y-123417512D01*
X130709701Y-123512750D01*
X130566844Y-123560369D01*
X130328749Y-123560369D01*
X131900177Y-123465131D02*
X131852558Y-123512750D01*
X131709701Y-123560369D01*
X131614463Y-123560369D01*
X131471606Y-123512750D01*
X131376368Y-123417512D01*
X131328749Y-123322274D01*
X131281130Y-123131798D01*
X131281130Y-122988941D01*
X131328749Y-122798465D01*
X131376368Y-122703227D01*
X131471606Y-122607989D01*
X131614463Y-122560369D01*
X131709701Y-122560369D01*
X131852558Y-122607989D01*
X131900177Y-122655608D01*
X132328749Y-122893703D02*
X133090653Y-123179417D01*
X132328749Y-123465131D01*
X133519225Y-123274655D02*
X133995415Y-123274655D01*
X133423987Y-123560369D02*
X133757320Y-122560369D01*
X134090653Y-123560369D01*
X134376368Y-122655608D02*
X134423987Y-122607989D01*
X134519225Y-122560369D01*
X134757320Y-122560369D01*
X134852558Y-122607989D01*
X134900177Y-122655608D01*
X134947796Y-122750846D01*
X134947796Y-122846084D01*
X134900177Y-122988941D01*
X134328749Y-123560369D01*
X134947796Y-123560369D01*
X135328749Y-122655608D02*
X135376368Y-122607989D01*
X135471606Y-122560369D01*
X135709701Y-122560369D01*
X135804939Y-122607989D01*
X135852558Y-122655608D01*
X135900177Y-122750846D01*
X135900177Y-122846084D01*
X135852558Y-122988941D01*
X135281130Y-123560369D01*
X135900177Y-123560369D01*
X58755595Y-87066380D02*
X58755595Y-86066380D01*
X59327023Y-87066380D02*
X58898452Y-86494952D01*
X59327023Y-86066380D02*
X58755595Y-86637809D01*
X60136547Y-87018761D02*
X60041309Y-87066380D01*
X59850833Y-87066380D01*
X59755595Y-87018761D01*
X59707976Y-86923523D01*
X59707976Y-86542571D01*
X59755595Y-86447333D01*
X59850833Y-86399714D01*
X60041309Y-86399714D01*
X60136547Y-86447333D01*
X60184166Y-86542571D01*
X60184166Y-86637809D01*
X59707976Y-86733047D01*
X60517500Y-86399714D02*
X60755595Y-87066380D01*
X60993690Y-86399714D02*
X60755595Y-87066380D01*
X60660357Y-87304476D01*
X60612738Y-87352095D01*
X60517500Y-87399714D01*
X61374642Y-87066380D02*
X61374642Y-86066380D01*
X61374642Y-86447333D02*
X61469880Y-86399714D01*
X61660357Y-86399714D01*
X61755595Y-86447333D01*
X61803214Y-86494952D01*
X61850833Y-86590190D01*
X61850833Y-86875904D01*
X61803214Y-86971142D01*
X61755595Y-87018761D01*
X61660357Y-87066380D01*
X61469880Y-87066380D01*
X61374642Y-87018761D01*
X62422261Y-87066380D02*
X62327023Y-87018761D01*
X62279404Y-86971142D01*
X62231785Y-86875904D01*
X62231785Y-86590190D01*
X62279404Y-86494952D01*
X62327023Y-86447333D01*
X62422261Y-86399714D01*
X62565119Y-86399714D01*
X62660357Y-86447333D01*
X62707976Y-86494952D01*
X62755595Y-86590190D01*
X62755595Y-86875904D01*
X62707976Y-86971142D01*
X62660357Y-87018761D01*
X62565119Y-87066380D01*
X62422261Y-87066380D01*
X63612738Y-87066380D02*
X63612738Y-86542571D01*
X63565119Y-86447333D01*
X63469880Y-86399714D01*
X63279404Y-86399714D01*
X63184166Y-86447333D01*
X63612738Y-87018761D02*
X63517500Y-87066380D01*
X63279404Y-87066380D01*
X63184166Y-87018761D01*
X63136547Y-86923523D01*
X63136547Y-86828285D01*
X63184166Y-86733047D01*
X63279404Y-86685428D01*
X63517500Y-86685428D01*
X63612738Y-86637809D01*
X64088928Y-87066380D02*
X64088928Y-86399714D01*
X64088928Y-86590190D02*
X64136547Y-86494952D01*
X64184166Y-86447333D01*
X64279404Y-86399714D01*
X64374642Y-86399714D01*
X65136547Y-87066380D02*
X65136547Y-86066380D01*
X65136547Y-87018761D02*
X65041309Y-87066380D01*
X64850833Y-87066380D01*
X64755595Y-87018761D01*
X64707976Y-86971142D01*
X64660357Y-86875904D01*
X64660357Y-86590190D01*
X64707976Y-86494952D01*
X64755595Y-86447333D01*
X64850833Y-86399714D01*
X65041309Y-86399714D01*
X65136547Y-86447333D01*
X79869309Y-103928380D02*
X79869309Y-104642666D01*
X79821690Y-104785523D01*
X79726452Y-104880761D01*
X79583595Y-104928380D01*
X79488357Y-104928380D01*
X80250261Y-103928380D02*
X80916928Y-103928380D01*
X80488357Y-104928380D01*
X82012166Y-104642666D02*
X82488357Y-104642666D01*
X81916928Y-104928380D02*
X82250261Y-103928380D01*
X82583595Y-104928380D01*
X82916928Y-104928380D02*
X82916928Y-103928380D01*
X83297880Y-103928380D01*
X83393119Y-103976000D01*
X83440738Y-104023619D01*
X83488357Y-104118857D01*
X83488357Y-104261714D01*
X83440738Y-104356952D01*
X83393119Y-104404571D01*
X83297880Y-104452190D01*
X82916928Y-104452190D01*
X83916928Y-103928380D02*
X83916928Y-104737904D01*
X83964547Y-104833142D01*
X84012166Y-104880761D01*
X84107404Y-104928380D01*
X84297880Y-104928380D01*
X84393119Y-104880761D01*
X84440738Y-104833142D01*
X84488357Y-104737904D01*
X84488357Y-103928380D01*
X85726452Y-104928380D02*
X85726452Y-103928380D01*
X86202642Y-104261714D02*
X86202642Y-104928380D01*
X86202642Y-104356952D02*
X86250261Y-104309333D01*
X86345500Y-104261714D01*
X86488357Y-104261714D01*
X86583595Y-104309333D01*
X86631214Y-104404571D01*
X86631214Y-104928380D01*
X86964547Y-104261714D02*
X87345500Y-104261714D01*
X87107404Y-103928380D02*
X87107404Y-104785523D01*
X87155023Y-104880761D01*
X87250261Y-104928380D01*
X87345500Y-104928380D01*
X80107404Y-106538380D02*
X79535976Y-106538380D01*
X79821690Y-106538380D02*
X79821690Y-105538380D01*
X79726452Y-105681238D01*
X79631214Y-105776476D01*
X79535976Y-105824095D01*
X80535976Y-106157428D02*
X81297880Y-106157428D01*
X81726452Y-105633619D02*
X81774071Y-105586000D01*
X81869309Y-105538380D01*
X82107404Y-105538380D01*
X82202642Y-105586000D01*
X82250261Y-105633619D01*
X82297880Y-105728857D01*
X82297880Y-105824095D01*
X82250261Y-105966952D01*
X81678833Y-106538380D01*
X82297880Y-106538380D01*
X84250261Y-106538380D02*
X84250261Y-105538380D01*
X84726452Y-106538380D02*
X84726452Y-105538380D01*
X85297880Y-106538380D01*
X85297880Y-105538380D01*
X85631214Y-105538380D02*
X86202642Y-105538380D01*
X85916928Y-106538380D02*
X85916928Y-105538380D01*
X86726452Y-105538380D02*
X86821690Y-105538380D01*
X86916928Y-105586000D01*
X86964547Y-105633619D01*
X87012166Y-105728857D01*
X87059785Y-105919333D01*
X87059785Y-106157428D01*
X87012166Y-106347904D01*
X86964547Y-106443142D01*
X86916928Y-106490761D01*
X86821690Y-106538380D01*
X86726452Y-106538380D01*
X86631214Y-106490761D01*
X86583595Y-106443142D01*
X86535976Y-106347904D01*
X86488357Y-106157428D01*
X86488357Y-105919333D01*
X86535976Y-105728857D01*
X86583595Y-105633619D01*
X86631214Y-105586000D01*
X86726452Y-105538380D01*
X79488357Y-107148380D02*
X80107404Y-107148380D01*
X79774071Y-107529333D01*
X79916928Y-107529333D01*
X80012166Y-107576952D01*
X80059785Y-107624571D01*
X80107404Y-107719809D01*
X80107404Y-107957904D01*
X80059785Y-108053142D01*
X80012166Y-108100761D01*
X79916928Y-108148380D01*
X79631214Y-108148380D01*
X79535976Y-108100761D01*
X79488357Y-108053142D01*
X80535976Y-107767428D02*
X81297880Y-107767428D01*
X82202642Y-107481714D02*
X82202642Y-108148380D01*
X81964547Y-107100761D02*
X81726452Y-107815047D01*
X82345500Y-107815047D01*
X84250261Y-108148380D02*
X84250261Y-107148380D01*
X84726452Y-108148380D02*
X84726452Y-107148380D01*
X85297880Y-108148380D01*
X85297880Y-107148380D01*
X85631214Y-107148380D02*
X86202642Y-107148380D01*
X85916928Y-108148380D02*
X85916928Y-107148380D01*
X87059785Y-108148380D02*
X86488357Y-108148380D01*
X86774071Y-108148380D02*
X86774071Y-107148380D01*
X86678833Y-107291238D01*
X86583595Y-107386476D01*
X86488357Y-107434095D01*
X80059785Y-108758380D02*
X79583595Y-108758380D01*
X79535976Y-109234571D01*
X79583595Y-109186952D01*
X79678833Y-109139333D01*
X79916928Y-109139333D01*
X80012166Y-109186952D01*
X80059785Y-109234571D01*
X80107404Y-109329809D01*
X80107404Y-109567904D01*
X80059785Y-109663142D01*
X80012166Y-109710761D01*
X79916928Y-109758380D01*
X79678833Y-109758380D01*
X79583595Y-109710761D01*
X79535976Y-109663142D01*
X80535976Y-109377428D02*
X81297880Y-109377428D01*
X82202642Y-108758380D02*
X82012166Y-108758380D01*
X81916928Y-108806000D01*
X81869309Y-108853619D01*
X81774071Y-108996476D01*
X81726452Y-109186952D01*
X81726452Y-109567904D01*
X81774071Y-109663142D01*
X81821690Y-109710761D01*
X81916928Y-109758380D01*
X82107404Y-109758380D01*
X82202642Y-109710761D01*
X82250261Y-109663142D01*
X82297880Y-109567904D01*
X82297880Y-109329809D01*
X82250261Y-109234571D01*
X82202642Y-109186952D01*
X82107404Y-109139333D01*
X81916928Y-109139333D01*
X81821690Y-109186952D01*
X81774071Y-109234571D01*
X81726452Y-109329809D01*
X84250261Y-109758380D02*
X84250261Y-108758380D01*
X84726452Y-109758380D02*
X84726452Y-108758380D01*
X85297880Y-109758380D01*
X85297880Y-108758380D01*
X85631214Y-108758380D02*
X86202642Y-108758380D01*
X85916928Y-109758380D02*
X85916928Y-108758380D01*
X86488357Y-108853619D02*
X86535976Y-108806000D01*
X86631214Y-108758380D01*
X86869309Y-108758380D01*
X86964547Y-108806000D01*
X87012166Y-108853619D01*
X87059785Y-108948857D01*
X87059785Y-109044095D01*
X87012166Y-109186952D01*
X86440738Y-109758380D01*
X87059785Y-109758380D01*
X79488357Y-110368380D02*
X80155023Y-110368380D01*
X79726452Y-111368380D01*
X80535976Y-110987428D02*
X81297880Y-110987428D01*
X81916928Y-110796952D02*
X81821690Y-110749333D01*
X81774071Y-110701714D01*
X81726452Y-110606476D01*
X81726452Y-110558857D01*
X81774071Y-110463619D01*
X81821690Y-110416000D01*
X81916928Y-110368380D01*
X82107404Y-110368380D01*
X82202642Y-110416000D01*
X82250261Y-110463619D01*
X82297880Y-110558857D01*
X82297880Y-110606476D01*
X82250261Y-110701714D01*
X82202642Y-110749333D01*
X82107404Y-110796952D01*
X81916928Y-110796952D01*
X81821690Y-110844571D01*
X81774071Y-110892190D01*
X81726452Y-110987428D01*
X81726452Y-111177904D01*
X81774071Y-111273142D01*
X81821690Y-111320761D01*
X81916928Y-111368380D01*
X82107404Y-111368380D01*
X82202642Y-111320761D01*
X82250261Y-111273142D01*
X82297880Y-111177904D01*
X82297880Y-110987428D01*
X82250261Y-110892190D01*
X82202642Y-110844571D01*
X82107404Y-110796952D01*
X84250261Y-111368380D02*
X84250261Y-110368380D01*
X84726452Y-111368380D02*
X84726452Y-110368380D01*
X85297880Y-111368380D01*
X85297880Y-110368380D01*
X85631214Y-110368380D02*
X86202642Y-110368380D01*
X85916928Y-111368380D02*
X85916928Y-110368380D01*
X86440738Y-110368380D02*
X87059785Y-110368380D01*
X86726452Y-110749333D01*
X86869309Y-110749333D01*
X86964547Y-110796952D01*
X87012166Y-110844571D01*
X87059785Y-110939809D01*
X87059785Y-111177904D01*
X87012166Y-111273142D01*
X86964547Y-111320761D01*
X86869309Y-111368380D01*
X86583595Y-111368380D01*
X86488357Y-111320761D01*
X86440738Y-111273142D01*
X59168357Y-141395380D02*
X59835023Y-141395380D01*
X59168357Y-142395380D01*
X59835023Y-142395380D01*
X60358833Y-141823952D02*
X60263595Y-141776333D01*
X60215976Y-141728714D01*
X60168357Y-141633476D01*
X60168357Y-141585857D01*
X60215976Y-141490619D01*
X60263595Y-141443000D01*
X60358833Y-141395380D01*
X60549309Y-141395380D01*
X60644547Y-141443000D01*
X60692166Y-141490619D01*
X60739785Y-141585857D01*
X60739785Y-141633476D01*
X60692166Y-141728714D01*
X60644547Y-141776333D01*
X60549309Y-141823952D01*
X60358833Y-141823952D01*
X60263595Y-141871571D01*
X60215976Y-141919190D01*
X60168357Y-142014428D01*
X60168357Y-142204904D01*
X60215976Y-142300142D01*
X60263595Y-142347761D01*
X60358833Y-142395380D01*
X60549309Y-142395380D01*
X60644547Y-142347761D01*
X60692166Y-142300142D01*
X60739785Y-142204904D01*
X60739785Y-142014428D01*
X60692166Y-141919190D01*
X60644547Y-141871571D01*
X60549309Y-141823952D01*
X61739785Y-142300142D02*
X61692166Y-142347761D01*
X61549309Y-142395380D01*
X61454071Y-142395380D01*
X61311214Y-142347761D01*
X61215976Y-142252523D01*
X61168357Y-142157285D01*
X61120738Y-141966809D01*
X61120738Y-141823952D01*
X61168357Y-141633476D01*
X61215976Y-141538238D01*
X61311214Y-141443000D01*
X61454071Y-141395380D01*
X61549309Y-141395380D01*
X61692166Y-141443000D01*
X61739785Y-141490619D01*
X62930261Y-142395380D02*
X62930261Y-141395380D01*
X63263595Y-142109666D01*
X63596928Y-141395380D01*
X63596928Y-142395380D01*
X64501690Y-141728714D02*
X64501690Y-142395380D01*
X64073119Y-141728714D02*
X64073119Y-142252523D01*
X64120738Y-142347761D01*
X64215976Y-142395380D01*
X64358833Y-142395380D01*
X64454071Y-142347761D01*
X64501690Y-142300142D01*
X65120738Y-142395380D02*
X65025500Y-142347761D01*
X64977880Y-142252523D01*
X64977880Y-141395380D01*
X65358833Y-141728714D02*
X65739785Y-141728714D01*
X65501690Y-141395380D02*
X65501690Y-142252523D01*
X65549309Y-142347761D01*
X65644547Y-142395380D01*
X65739785Y-142395380D01*
X66073119Y-142395380D02*
X66073119Y-141728714D01*
X66073119Y-141395380D02*
X66025500Y-141443000D01*
X66073119Y-141490619D01*
X66120738Y-141443000D01*
X66073119Y-141395380D01*
X66073119Y-141490619D01*
X67311214Y-142395380D02*
X67311214Y-141395380D01*
X68501690Y-141347761D02*
X67644547Y-142633476D01*
X69025500Y-141395380D02*
X69215976Y-141395380D01*
X69311214Y-141443000D01*
X69406452Y-141538238D01*
X69454071Y-141728714D01*
X69454071Y-142062047D01*
X69406452Y-142252523D01*
X69311214Y-142347761D01*
X69215976Y-142395380D01*
X69025500Y-142395380D01*
X68930261Y-142347761D01*
X68835023Y-142252523D01*
X68787404Y-142062047D01*
X68787404Y-141728714D01*
X68835023Y-141538238D01*
X68930261Y-141443000D01*
X69025500Y-141395380D01*
X70977880Y-141871571D02*
X71120738Y-141919190D01*
X71168357Y-141966809D01*
X71215976Y-142062047D01*
X71215976Y-142204904D01*
X71168357Y-142300142D01*
X71120738Y-142347761D01*
X71025500Y-142395380D01*
X70644547Y-142395380D01*
X70644547Y-141395380D01*
X70977880Y-141395380D01*
X71073119Y-141443000D01*
X71120738Y-141490619D01*
X71168357Y-141585857D01*
X71168357Y-141681095D01*
X71120738Y-141776333D01*
X71073119Y-141823952D01*
X70977880Y-141871571D01*
X70644547Y-141871571D01*
X71787404Y-142395380D02*
X71692166Y-142347761D01*
X71644547Y-142300142D01*
X71596928Y-142204904D01*
X71596928Y-141919190D01*
X71644547Y-141823952D01*
X71692166Y-141776333D01*
X71787404Y-141728714D01*
X71930261Y-141728714D01*
X72025500Y-141776333D01*
X72073119Y-141823952D01*
X72120738Y-141919190D01*
X72120738Y-142204904D01*
X72073119Y-142300142D01*
X72025500Y-142347761D01*
X71930261Y-142395380D01*
X71787404Y-142395380D01*
X72977880Y-142395380D02*
X72977880Y-141871571D01*
X72930261Y-141776333D01*
X72835023Y-141728714D01*
X72644547Y-141728714D01*
X72549309Y-141776333D01*
X72977880Y-142347761D02*
X72882642Y-142395380D01*
X72644547Y-142395380D01*
X72549309Y-142347761D01*
X72501690Y-142252523D01*
X72501690Y-142157285D01*
X72549309Y-142062047D01*
X72644547Y-142014428D01*
X72882642Y-142014428D01*
X72977880Y-141966809D01*
X73454071Y-142395380D02*
X73454071Y-141728714D01*
X73454071Y-141919190D02*
X73501690Y-141823952D01*
X73549309Y-141776333D01*
X73644547Y-141728714D01*
X73739785Y-141728714D01*
X74501690Y-142395380D02*
X74501690Y-141395380D01*
X74501690Y-142347761D02*
X74406452Y-142395380D01*
X74215976Y-142395380D01*
X74120738Y-142347761D01*
X74073119Y-142300142D01*
X74025500Y-142204904D01*
X74025500Y-141919190D01*
X74073119Y-141823952D01*
X74120738Y-141776333D01*
X74215976Y-141728714D01*
X74406452Y-141728714D01*
X74501690Y-141776333D01*
X59215976Y-143100619D02*
X59263595Y-143053000D01*
X59358833Y-143005380D01*
X59596928Y-143005380D01*
X59692166Y-143053000D01*
X59739785Y-143100619D01*
X59787404Y-143195857D01*
X59787404Y-143291095D01*
X59739785Y-143433952D01*
X59168357Y-144005380D01*
X59787404Y-144005380D01*
X60406452Y-143005380D02*
X60501690Y-143005380D01*
X60596928Y-143053000D01*
X60644547Y-143100619D01*
X60692166Y-143195857D01*
X60739785Y-143386333D01*
X60739785Y-143624428D01*
X60692166Y-143814904D01*
X60644547Y-143910142D01*
X60596928Y-143957761D01*
X60501690Y-144005380D01*
X60406452Y-144005380D01*
X60311214Y-143957761D01*
X60263595Y-143910142D01*
X60215976Y-143814904D01*
X60168357Y-143624428D01*
X60168357Y-143386333D01*
X60215976Y-143195857D01*
X60263595Y-143100619D01*
X60311214Y-143053000D01*
X60406452Y-143005380D01*
X61120738Y-143100619D02*
X61168357Y-143053000D01*
X61263595Y-143005380D01*
X61501690Y-143005380D01*
X61596928Y-143053000D01*
X61644547Y-143100619D01*
X61692166Y-143195857D01*
X61692166Y-143291095D01*
X61644547Y-143433952D01*
X61073119Y-144005380D01*
X61692166Y-144005380D01*
X62073119Y-143100619D02*
X62120738Y-143053000D01*
X62215976Y-143005380D01*
X62454071Y-143005380D01*
X62549309Y-143053000D01*
X62596928Y-143100619D01*
X62644547Y-143195857D01*
X62644547Y-143291095D01*
X62596928Y-143433952D01*
X62025500Y-144005380D01*
X62644547Y-144005380D01*
X63835023Y-143624428D02*
X64596928Y-143624428D01*
X65739785Y-143338714D02*
X65930261Y-144005380D01*
X66120738Y-143529190D01*
X66311214Y-144005380D01*
X66501690Y-143338714D01*
X66787404Y-143338714D02*
X66977880Y-144005380D01*
X67168357Y-143529190D01*
X67358833Y-144005380D01*
X67549309Y-143338714D01*
X67835023Y-143338714D02*
X68025500Y-144005380D01*
X68215976Y-143529190D01*
X68406452Y-144005380D01*
X68596928Y-143338714D01*
X68977880Y-143910142D02*
X69025500Y-143957761D01*
X68977880Y-144005380D01*
X68930261Y-143957761D01*
X68977880Y-143910142D01*
X68977880Y-144005380D01*
X69882642Y-144005380D02*
X69882642Y-143005380D01*
X69882642Y-143957761D02*
X69787404Y-144005380D01*
X69596928Y-144005380D01*
X69501690Y-143957761D01*
X69454071Y-143910142D01*
X69406452Y-143814904D01*
X69406452Y-143529190D01*
X69454071Y-143433952D01*
X69501690Y-143386333D01*
X69596928Y-143338714D01*
X69787404Y-143338714D01*
X69882642Y-143386333D01*
X70739785Y-143957761D02*
X70644547Y-144005380D01*
X70454071Y-144005380D01*
X70358833Y-143957761D01*
X70311214Y-143862523D01*
X70311214Y-143481571D01*
X70358833Y-143386333D01*
X70454071Y-143338714D01*
X70644547Y-143338714D01*
X70739785Y-143386333D01*
X70787404Y-143481571D01*
X70787404Y-143576809D01*
X70311214Y-143672047D01*
X71215976Y-143338714D02*
X71215976Y-144005380D01*
X71215976Y-143433952D02*
X71263595Y-143386333D01*
X71358833Y-143338714D01*
X71501690Y-143338714D01*
X71596928Y-143386333D01*
X71644547Y-143481571D01*
X71644547Y-144005380D01*
X72120738Y-143338714D02*
X72120738Y-144005380D01*
X72120738Y-143433952D02*
X72168357Y-143386333D01*
X72263595Y-143338714D01*
X72406452Y-143338714D01*
X72501690Y-143386333D01*
X72549309Y-143481571D01*
X72549309Y-144005380D01*
X73025500Y-144005380D02*
X73025500Y-143338714D01*
X73025500Y-143005380D02*
X72977880Y-143053000D01*
X73025500Y-143100619D01*
X73073119Y-143053000D01*
X73025500Y-143005380D01*
X73025500Y-143100619D01*
X73454071Y-143957761D02*
X73549309Y-144005380D01*
X73739785Y-144005380D01*
X73835023Y-143957761D01*
X73882642Y-143862523D01*
X73882642Y-143814904D01*
X73835023Y-143719666D01*
X73739785Y-143672047D01*
X73596928Y-143672047D01*
X73501690Y-143624428D01*
X73454071Y-143529190D01*
X73454071Y-143481571D01*
X73501690Y-143386333D01*
X73596928Y-143338714D01*
X73739785Y-143338714D01*
X73835023Y-143386333D01*
X74739785Y-143338714D02*
X74739785Y-144148238D01*
X74692166Y-144243476D01*
X74644547Y-144291095D01*
X74549309Y-144338714D01*
X74406452Y-144338714D01*
X74311214Y-144291095D01*
X74739785Y-143957761D02*
X74644547Y-144005380D01*
X74454071Y-144005380D01*
X74358833Y-143957761D01*
X74311214Y-143910142D01*
X74263595Y-143814904D01*
X74263595Y-143529190D01*
X74311214Y-143433952D01*
X74358833Y-143386333D01*
X74454071Y-143338714D01*
X74644547Y-143338714D01*
X74739785Y-143386333D01*
X75644547Y-143338714D02*
X75644547Y-144005380D01*
X75215976Y-143338714D02*
X75215976Y-143862523D01*
X75263595Y-143957761D01*
X75358833Y-144005380D01*
X75501690Y-144005380D01*
X75596928Y-143957761D01*
X75644547Y-143910142D01*
X76120738Y-143338714D02*
X76120738Y-144005380D01*
X76120738Y-143433952D02*
X76168357Y-143386333D01*
X76263595Y-143338714D01*
X76406452Y-143338714D01*
X76501690Y-143386333D01*
X76549309Y-143481571D01*
X76549309Y-144005380D01*
X77025500Y-144005380D02*
X77025500Y-143338714D01*
X77025500Y-143005380D02*
X76977880Y-143053000D01*
X77025500Y-143100619D01*
X77073119Y-143053000D01*
X77025500Y-143005380D01*
X77025500Y-143100619D01*
X77930261Y-144005380D02*
X77930261Y-143481571D01*
X77882642Y-143386333D01*
X77787404Y-143338714D01*
X77596928Y-143338714D01*
X77501690Y-143386333D01*
X77930261Y-143957761D02*
X77835023Y-144005380D01*
X77596928Y-144005380D01*
X77501690Y-143957761D01*
X77454071Y-143862523D01*
X77454071Y-143767285D01*
X77501690Y-143672047D01*
X77596928Y-143624428D01*
X77835023Y-143624428D01*
X77930261Y-143576809D01*
X78406452Y-143910142D02*
X78454071Y-143957761D01*
X78406452Y-144005380D01*
X78358833Y-143957761D01*
X78406452Y-143910142D01*
X78406452Y-144005380D01*
X79311214Y-144005380D02*
X79311214Y-143005380D01*
X79311214Y-143957761D02*
X79215976Y-144005380D01*
X79025500Y-144005380D01*
X78930261Y-143957761D01*
X78882642Y-143910142D01*
X78835023Y-143814904D01*
X78835023Y-143529190D01*
X78882642Y-143433952D01*
X78930261Y-143386333D01*
X79025500Y-143338714D01*
X79215976Y-143338714D01*
X79311214Y-143386333D01*
X80168357Y-143957761D02*
X80073119Y-144005380D01*
X79882642Y-144005380D01*
X79787404Y-143957761D01*
X79739785Y-143862523D01*
X79739785Y-143481571D01*
X79787404Y-143386333D01*
X79882642Y-143338714D01*
X80073119Y-143338714D01*
X80168357Y-143386333D01*
X80215976Y-143481571D01*
X80215976Y-143576809D01*
X79739785Y-143672047D01*
D11*
X59262380Y-138604761D02*
X60595714Y-138604761D01*
X59262380Y-140604761D01*
X60595714Y-140604761D01*
X61643333Y-139461904D02*
X61452857Y-139366666D01*
X61357619Y-139271428D01*
X61262380Y-139080952D01*
X61262380Y-138985714D01*
X61357619Y-138795238D01*
X61452857Y-138700000D01*
X61643333Y-138604761D01*
X62024285Y-138604761D01*
X62214761Y-138700000D01*
X62310000Y-138795238D01*
X62405238Y-138985714D01*
X62405238Y-139080952D01*
X62310000Y-139271428D01*
X62214761Y-139366666D01*
X62024285Y-139461904D01*
X61643333Y-139461904D01*
X61452857Y-139557142D01*
X61357619Y-139652380D01*
X61262380Y-139842857D01*
X61262380Y-140223809D01*
X61357619Y-140414285D01*
X61452857Y-140509523D01*
X61643333Y-140604761D01*
X62024285Y-140604761D01*
X62214761Y-140509523D01*
X62310000Y-140414285D01*
X62405238Y-140223809D01*
X62405238Y-139842857D01*
X62310000Y-139652380D01*
X62214761Y-139557142D01*
X62024285Y-139461904D01*
X64405238Y-140414285D02*
X64310000Y-140509523D01*
X64024285Y-140604761D01*
X63833809Y-140604761D01*
X63548095Y-140509523D01*
X63357619Y-140319047D01*
X63262380Y-140128571D01*
X63167142Y-139747619D01*
X63167142Y-139461904D01*
X63262380Y-139080952D01*
X63357619Y-138890476D01*
X63548095Y-138700000D01*
X63833809Y-138604761D01*
X64024285Y-138604761D01*
X64310000Y-138700000D01*
X64405238Y-138795238D01*
X66786190Y-139842857D02*
X68310000Y-139842857D01*
X70786190Y-140604761D02*
X70786190Y-138604761D01*
X71452857Y-140033333D01*
X72119523Y-138604761D01*
X72119523Y-140604761D01*
X73071904Y-140604761D02*
X73071904Y-138604761D01*
X74405238Y-138604761D02*
X74786190Y-138604761D01*
X74976666Y-138700000D01*
X75167142Y-138890476D01*
X75262380Y-139271428D01*
X75262380Y-139938095D01*
X75167142Y-140319047D01*
X74976666Y-140509523D01*
X74786190Y-140604761D01*
X74405238Y-140604761D01*
X74214761Y-140509523D01*
X74024285Y-140319047D01*
X73929047Y-139938095D01*
X73929047Y-139271428D01*
X74024285Y-138890476D01*
X74214761Y-138700000D01*
X74405238Y-138604761D01*
D10*
%TO.C,BT1*%
X160019145Y-87952271D02*
X160162002Y-87999890D01*
X160209621Y-88047509D01*
X160257240Y-88142747D01*
X160257240Y-88285604D01*
X160209621Y-88380842D01*
X160162002Y-88428461D01*
X160066764Y-88476080D01*
X159685812Y-88476080D01*
X159685812Y-87476080D01*
X160019145Y-87476080D01*
X160114383Y-87523700D01*
X160162002Y-87571319D01*
X160209621Y-87666557D01*
X160209621Y-87761795D01*
X160162002Y-87857033D01*
X160114383Y-87904652D01*
X160019145Y-87952271D01*
X159685812Y-87952271D01*
X160542955Y-87476080D02*
X161114383Y-87476080D01*
X160828669Y-88476080D02*
X160828669Y-87476080D01*
X161971526Y-88476080D02*
X161400098Y-88476080D01*
X161685812Y-88476080D02*
X161685812Y-87476080D01*
X161590574Y-87618938D01*
X161495336Y-87714176D01*
X161400098Y-87761795D01*
%TO.C,D8*%
X75715904Y-109672380D02*
X75715904Y-108672380D01*
X75954000Y-108672380D01*
X76096857Y-108720000D01*
X76192095Y-108815238D01*
X76239714Y-108910476D01*
X76287333Y-109100952D01*
X76287333Y-109243809D01*
X76239714Y-109434285D01*
X76192095Y-109529523D01*
X76096857Y-109624761D01*
X75954000Y-109672380D01*
X75715904Y-109672380D01*
X76858761Y-109100952D02*
X76763523Y-109053333D01*
X76715904Y-109005714D01*
X76668285Y-108910476D01*
X76668285Y-108862857D01*
X76715904Y-108767619D01*
X76763523Y-108720000D01*
X76858761Y-108672380D01*
X77049238Y-108672380D01*
X77144476Y-108720000D01*
X77192095Y-108767619D01*
X77239714Y-108862857D01*
X77239714Y-108910476D01*
X77192095Y-109005714D01*
X77144476Y-109053333D01*
X77049238Y-109100952D01*
X76858761Y-109100952D01*
X76763523Y-109148571D01*
X76715904Y-109196190D01*
X76668285Y-109291428D01*
X76668285Y-109481904D01*
X76715904Y-109577142D01*
X76763523Y-109624761D01*
X76858761Y-109672380D01*
X77049238Y-109672380D01*
X77144476Y-109624761D01*
X77192095Y-109577142D01*
X77239714Y-109481904D01*
X77239714Y-109291428D01*
X77192095Y-109196190D01*
X77144476Y-109148571D01*
X77049238Y-109100952D01*
X66281095Y-107922380D02*
X66281095Y-106922380D01*
X66852523Y-107922380D02*
X66423952Y-107350952D01*
X66852523Y-106922380D02*
X66281095Y-107493809D01*
%TO.C,C2*%
X73661344Y-63653131D02*
X73613725Y-63700750D01*
X73470868Y-63748369D01*
X73375630Y-63748369D01*
X73232772Y-63700750D01*
X73137534Y-63605512D01*
X73089915Y-63510274D01*
X73042296Y-63319798D01*
X73042296Y-63176941D01*
X73089915Y-62986465D01*
X73137534Y-62891227D01*
X73232772Y-62795989D01*
X73375630Y-62748369D01*
X73470868Y-62748369D01*
X73613725Y-62795989D01*
X73661344Y-62843608D01*
X74042296Y-62843608D02*
X74089915Y-62795989D01*
X74185153Y-62748369D01*
X74423249Y-62748369D01*
X74518487Y-62795989D01*
X74566106Y-62843608D01*
X74613725Y-62938846D01*
X74613725Y-63034084D01*
X74566106Y-63176941D01*
X73994677Y-63748369D01*
X74613725Y-63748369D01*
%TO.C,C16*%
X167759142Y-53951142D02*
X167711523Y-53998761D01*
X167568666Y-54046380D01*
X167473428Y-54046380D01*
X167330571Y-53998761D01*
X167235333Y-53903523D01*
X167187714Y-53808285D01*
X167140095Y-53617809D01*
X167140095Y-53474952D01*
X167187714Y-53284476D01*
X167235333Y-53189238D01*
X167330571Y-53094000D01*
X167473428Y-53046380D01*
X167568666Y-53046380D01*
X167711523Y-53094000D01*
X167759142Y-53141619D01*
X168711523Y-54046380D02*
X168140095Y-54046380D01*
X168425809Y-54046380D02*
X168425809Y-53046380D01*
X168330571Y-53189238D01*
X168235333Y-53284476D01*
X168140095Y-53332095D01*
X169568666Y-53046380D02*
X169378190Y-53046380D01*
X169282952Y-53094000D01*
X169235333Y-53141619D01*
X169140095Y-53284476D01*
X169092476Y-53474952D01*
X169092476Y-53855904D01*
X169140095Y-53951142D01*
X169187714Y-53998761D01*
X169282952Y-54046380D01*
X169473428Y-54046380D01*
X169568666Y-53998761D01*
X169616285Y-53951142D01*
X169663904Y-53855904D01*
X169663904Y-53617809D01*
X169616285Y-53522571D01*
X169568666Y-53474952D01*
X169473428Y-53427333D01*
X169282952Y-53427333D01*
X169187714Y-53474952D01*
X169140095Y-53522571D01*
X169092476Y-53617809D01*
%TO.C,H2*%
X48006095Y-139654380D02*
X48006095Y-138654380D01*
X48006095Y-139130571D02*
X48577523Y-139130571D01*
X48577523Y-139654380D02*
X48577523Y-138654380D01*
X49006095Y-138749619D02*
X49053714Y-138702000D01*
X49148952Y-138654380D01*
X49387047Y-138654380D01*
X49482285Y-138702000D01*
X49529904Y-138749619D01*
X49577523Y-138844857D01*
X49577523Y-138940095D01*
X49529904Y-139082952D01*
X48958476Y-139654380D01*
X49577523Y-139654380D01*
%TO.C,R19*%
X108323142Y-104450380D02*
X107989809Y-103974190D01*
X107751714Y-104450380D02*
X107751714Y-103450380D01*
X108132666Y-103450380D01*
X108227904Y-103498000D01*
X108275523Y-103545619D01*
X108323142Y-103640857D01*
X108323142Y-103783714D01*
X108275523Y-103878952D01*
X108227904Y-103926571D01*
X108132666Y-103974190D01*
X107751714Y-103974190D01*
X109275523Y-104450380D02*
X108704095Y-104450380D01*
X108989809Y-104450380D02*
X108989809Y-103450380D01*
X108894571Y-103593238D01*
X108799333Y-103688476D01*
X108704095Y-103736095D01*
X109751714Y-104450380D02*
X109942190Y-104450380D01*
X110037428Y-104402761D01*
X110085047Y-104355142D01*
X110180285Y-104212285D01*
X110227904Y-104021809D01*
X110227904Y-103640857D01*
X110180285Y-103545619D01*
X110132666Y-103498000D01*
X110037428Y-103450380D01*
X109846952Y-103450380D01*
X109751714Y-103498000D01*
X109704095Y-103545619D01*
X109656476Y-103640857D01*
X109656476Y-103878952D01*
X109704095Y-103974190D01*
X109751714Y-104021809D01*
X109846952Y-104069428D01*
X110037428Y-104069428D01*
X110132666Y-104021809D01*
X110180285Y-103974190D01*
X110227904Y-103878952D01*
%TO.C,D4*%
X75715904Y-117800380D02*
X75715904Y-116800380D01*
X75954000Y-116800380D01*
X76096857Y-116848000D01*
X76192095Y-116943238D01*
X76239714Y-117038476D01*
X76287333Y-117228952D01*
X76287333Y-117371809D01*
X76239714Y-117562285D01*
X76192095Y-117657523D01*
X76096857Y-117752761D01*
X75954000Y-117800380D01*
X75715904Y-117800380D01*
X77144476Y-117133714D02*
X77144476Y-117800380D01*
X76906380Y-116752761D02*
X76668285Y-117467047D01*
X77287333Y-117467047D01*
X66281095Y-116050380D02*
X66281095Y-115050380D01*
X66852523Y-116050380D02*
X66423952Y-115478952D01*
X66852523Y-115050380D02*
X66281095Y-115621809D01*
%TO.C,R13*%
X53713142Y-111704380D02*
X53379809Y-111228190D01*
X53141714Y-111704380D02*
X53141714Y-110704380D01*
X53522666Y-110704380D01*
X53617904Y-110752000D01*
X53665523Y-110799619D01*
X53713142Y-110894857D01*
X53713142Y-111037714D01*
X53665523Y-111132952D01*
X53617904Y-111180571D01*
X53522666Y-111228190D01*
X53141714Y-111228190D01*
X54665523Y-111704380D02*
X54094095Y-111704380D01*
X54379809Y-111704380D02*
X54379809Y-110704380D01*
X54284571Y-110847238D01*
X54189333Y-110942476D01*
X54094095Y-110990095D01*
X54998857Y-110704380D02*
X55617904Y-110704380D01*
X55284571Y-111085333D01*
X55427428Y-111085333D01*
X55522666Y-111132952D01*
X55570285Y-111180571D01*
X55617904Y-111275809D01*
X55617904Y-111513904D01*
X55570285Y-111609142D01*
X55522666Y-111656761D01*
X55427428Y-111704380D01*
X55141714Y-111704380D01*
X55046476Y-111656761D01*
X54998857Y-111609142D01*
%TO.C,U7*%
X77470095Y-55586380D02*
X77470095Y-56395904D01*
X77517714Y-56491142D01*
X77565333Y-56538761D01*
X77660571Y-56586380D01*
X77851047Y-56586380D01*
X77946285Y-56538761D01*
X77993904Y-56491142D01*
X78041523Y-56395904D01*
X78041523Y-55586380D01*
X78422476Y-55586380D02*
X79089142Y-55586380D01*
X78660571Y-56586380D01*
%TO.C,R5*%
X53681333Y-121864380D02*
X53348000Y-121388190D01*
X53109904Y-121864380D02*
X53109904Y-120864380D01*
X53490857Y-120864380D01*
X53586095Y-120912000D01*
X53633714Y-120959619D01*
X53681333Y-121054857D01*
X53681333Y-121197714D01*
X53633714Y-121292952D01*
X53586095Y-121340571D01*
X53490857Y-121388190D01*
X53109904Y-121388190D01*
X54586095Y-120864380D02*
X54109904Y-120864380D01*
X54062285Y-121340571D01*
X54109904Y-121292952D01*
X54205142Y-121245333D01*
X54443238Y-121245333D01*
X54538476Y-121292952D01*
X54586095Y-121340571D01*
X54633714Y-121435809D01*
X54633714Y-121673904D01*
X54586095Y-121769142D01*
X54538476Y-121816761D01*
X54443238Y-121864380D01*
X54205142Y-121864380D01*
X54109904Y-121816761D01*
X54062285Y-121769142D01*
%TO.C,D10*%
X75747714Y-127960380D02*
X75747714Y-126960380D01*
X75985809Y-126960380D01*
X76128666Y-127008000D01*
X76223904Y-127103238D01*
X76271523Y-127198476D01*
X76319142Y-127388952D01*
X76319142Y-127531809D01*
X76271523Y-127722285D01*
X76223904Y-127817523D01*
X76128666Y-127912761D01*
X75985809Y-127960380D01*
X75747714Y-127960380D01*
X77271523Y-127960380D02*
X76700095Y-127960380D01*
X76985809Y-127960380D02*
X76985809Y-126960380D01*
X76890571Y-127103238D01*
X76795333Y-127198476D01*
X76700095Y-127246095D01*
X77890571Y-126960380D02*
X77985809Y-126960380D01*
X78081047Y-127008000D01*
X78128666Y-127055619D01*
X78176285Y-127150857D01*
X78223904Y-127341333D01*
X78223904Y-127579428D01*
X78176285Y-127769904D01*
X78128666Y-127865142D01*
X78081047Y-127912761D01*
X77985809Y-127960380D01*
X77890571Y-127960380D01*
X77795333Y-127912761D01*
X77747714Y-127865142D01*
X77700095Y-127769904D01*
X77652476Y-127579428D01*
X77652476Y-127341333D01*
X77700095Y-127150857D01*
X77747714Y-127055619D01*
X77795333Y-127008000D01*
X77890571Y-126960380D01*
X66281095Y-126210380D02*
X66281095Y-125210380D01*
X66852523Y-126210380D02*
X66423952Y-125638952D01*
X66852523Y-125210380D02*
X66281095Y-125781809D01*
%TO.C,R2*%
X131151333Y-113736380D02*
X130818000Y-113260190D01*
X130579904Y-113736380D02*
X130579904Y-112736380D01*
X130960857Y-112736380D01*
X131056095Y-112784000D01*
X131103714Y-112831619D01*
X131151333Y-112926857D01*
X131151333Y-113069714D01*
X131103714Y-113164952D01*
X131056095Y-113212571D01*
X130960857Y-113260190D01*
X130579904Y-113260190D01*
X131532285Y-112831619D02*
X131579904Y-112784000D01*
X131675142Y-112736380D01*
X131913238Y-112736380D01*
X132008476Y-112784000D01*
X132056095Y-112831619D01*
X132103714Y-112926857D01*
X132103714Y-113022095D01*
X132056095Y-113164952D01*
X131484666Y-113736380D01*
X132103714Y-113736380D01*
%TO.C,R16*%
X84526380Y-88272857D02*
X84050190Y-88606190D01*
X84526380Y-88844285D02*
X83526380Y-88844285D01*
X83526380Y-88463333D01*
X83574000Y-88368095D01*
X83621619Y-88320476D01*
X83716857Y-88272857D01*
X83859714Y-88272857D01*
X83954952Y-88320476D01*
X84002571Y-88368095D01*
X84050190Y-88463333D01*
X84050190Y-88844285D01*
X84526380Y-87320476D02*
X84526380Y-87891904D01*
X84526380Y-87606190D02*
X83526380Y-87606190D01*
X83669238Y-87701428D01*
X83764476Y-87796666D01*
X83812095Y-87891904D01*
X83526380Y-86463333D02*
X83526380Y-86653809D01*
X83574000Y-86749047D01*
X83621619Y-86796666D01*
X83764476Y-86891904D01*
X83954952Y-86939523D01*
X84335904Y-86939523D01*
X84431142Y-86891904D01*
X84478761Y-86844285D01*
X84526380Y-86749047D01*
X84526380Y-86558571D01*
X84478761Y-86463333D01*
X84431142Y-86415714D01*
X84335904Y-86368095D01*
X84097809Y-86368095D01*
X84002571Y-86415714D01*
X83954952Y-86463333D01*
X83907333Y-86558571D01*
X83907333Y-86749047D01*
X83954952Y-86844285D01*
X84002571Y-86891904D01*
X84097809Y-86939523D01*
%TO.C,U1*%
X162560095Y-55374369D02*
X162560095Y-56183893D01*
X162607714Y-56279131D01*
X162655333Y-56326750D01*
X162750571Y-56374369D01*
X162941047Y-56374369D01*
X163036285Y-56326750D01*
X163083904Y-56279131D01*
X163131523Y-56183893D01*
X163131523Y-55374369D01*
X164131523Y-56374369D02*
X163560095Y-56374369D01*
X163845809Y-56374369D02*
X163845809Y-55374369D01*
X163750571Y-55517227D01*
X163655333Y-55612465D01*
X163560095Y-55660084D01*
%TO.C,C4*%
X89917344Y-71853131D02*
X89869725Y-71900750D01*
X89726868Y-71948369D01*
X89631630Y-71948369D01*
X89488772Y-71900750D01*
X89393534Y-71805512D01*
X89345915Y-71710274D01*
X89298296Y-71519798D01*
X89298296Y-71376941D01*
X89345915Y-71186465D01*
X89393534Y-71091227D01*
X89488772Y-70995989D01*
X89631630Y-70948369D01*
X89726868Y-70948369D01*
X89869725Y-70995989D01*
X89917344Y-71043608D01*
X90774487Y-71281703D02*
X90774487Y-71948369D01*
X90536391Y-70900750D02*
X90298296Y-71615036D01*
X90917344Y-71615036D01*
%TO.C,C14*%
X181221142Y-53951142D02*
X181173523Y-53998761D01*
X181030666Y-54046380D01*
X180935428Y-54046380D01*
X180792571Y-53998761D01*
X180697333Y-53903523D01*
X180649714Y-53808285D01*
X180602095Y-53617809D01*
X180602095Y-53474952D01*
X180649714Y-53284476D01*
X180697333Y-53189238D01*
X180792571Y-53094000D01*
X180935428Y-53046380D01*
X181030666Y-53046380D01*
X181173523Y-53094000D01*
X181221142Y-53141619D01*
X182173523Y-54046380D02*
X181602095Y-54046380D01*
X181887809Y-54046380D02*
X181887809Y-53046380D01*
X181792571Y-53189238D01*
X181697333Y-53284476D01*
X181602095Y-53332095D01*
X183030666Y-53379714D02*
X183030666Y-54046380D01*
X182792571Y-52998761D02*
X182554476Y-53713047D01*
X183173523Y-53713047D01*
%TO.C,R9*%
X131151333Y-118562380D02*
X130818000Y-118086190D01*
X130579904Y-118562380D02*
X130579904Y-117562380D01*
X130960857Y-117562380D01*
X131056095Y-117610000D01*
X131103714Y-117657619D01*
X131151333Y-117752857D01*
X131151333Y-117895714D01*
X131103714Y-117990952D01*
X131056095Y-118038571D01*
X130960857Y-118086190D01*
X130579904Y-118086190D01*
X131627523Y-118562380D02*
X131818000Y-118562380D01*
X131913238Y-118514761D01*
X131960857Y-118467142D01*
X132056095Y-118324285D01*
X132103714Y-118133809D01*
X132103714Y-117752857D01*
X132056095Y-117657619D01*
X132008476Y-117610000D01*
X131913238Y-117562380D01*
X131722761Y-117562380D01*
X131627523Y-117610000D01*
X131579904Y-117657619D01*
X131532285Y-117752857D01*
X131532285Y-117990952D01*
X131579904Y-118086190D01*
X131627523Y-118133809D01*
X131722761Y-118181428D01*
X131913238Y-118181428D01*
X132008476Y-118133809D01*
X132056095Y-118086190D01*
X132103714Y-117990952D01*
%TO.C,C7*%
X168235333Y-111609142D02*
X168187714Y-111656761D01*
X168044857Y-111704380D01*
X167949619Y-111704380D01*
X167806761Y-111656761D01*
X167711523Y-111561523D01*
X167663904Y-111466285D01*
X167616285Y-111275809D01*
X167616285Y-111132952D01*
X167663904Y-110942476D01*
X167711523Y-110847238D01*
X167806761Y-110752000D01*
X167949619Y-110704380D01*
X168044857Y-110704380D01*
X168187714Y-110752000D01*
X168235333Y-110799619D01*
X168568666Y-110704380D02*
X169235333Y-110704380D01*
X168806761Y-111704380D01*
%TO.C,Q1*%
X60102761Y-80045619D02*
X60007523Y-79998000D01*
X59912285Y-79902761D01*
X59769428Y-79759904D01*
X59674190Y-79712285D01*
X59578952Y-79712285D01*
X59626571Y-79950380D02*
X59531333Y-79902761D01*
X59436095Y-79807523D01*
X59388476Y-79617047D01*
X59388476Y-79283714D01*
X59436095Y-79093238D01*
X59531333Y-78998000D01*
X59626571Y-78950380D01*
X59817047Y-78950380D01*
X59912285Y-78998000D01*
X60007523Y-79093238D01*
X60055142Y-79283714D01*
X60055142Y-79617047D01*
X60007523Y-79807523D01*
X59912285Y-79902761D01*
X59817047Y-79950380D01*
X59626571Y-79950380D01*
X61007523Y-79950380D02*
X60436095Y-79950380D01*
X60721809Y-79950380D02*
X60721809Y-78950380D01*
X60626571Y-79093238D01*
X60531333Y-79188476D01*
X60436095Y-79236095D01*
%TO.C,U6*%
X92286391Y-91779893D02*
X93095915Y-91779893D01*
X93191153Y-91732274D01*
X93238772Y-91684655D01*
X93286391Y-91589417D01*
X93286391Y-91398941D01*
X93238772Y-91303703D01*
X93191153Y-91256084D01*
X93095915Y-91208465D01*
X92286391Y-91208465D01*
X92286391Y-90303703D02*
X92286391Y-90494179D01*
X92334011Y-90589417D01*
X92381630Y-90637036D01*
X92524487Y-90732274D01*
X92714963Y-90779893D01*
X93095915Y-90779893D01*
X93191153Y-90732274D01*
X93238772Y-90684655D01*
X93286391Y-90589417D01*
X93286391Y-90398941D01*
X93238772Y-90303703D01*
X93191153Y-90256084D01*
X93095915Y-90208465D01*
X92857820Y-90208465D01*
X92762582Y-90256084D01*
X92714963Y-90303703D01*
X92667344Y-90398941D01*
X92667344Y-90589417D01*
X92714963Y-90684655D01*
X92762582Y-90732274D01*
X92857820Y-90779893D01*
%TO.C,R10*%
X53713142Y-109672380D02*
X53379809Y-109196190D01*
X53141714Y-109672380D02*
X53141714Y-108672380D01*
X53522666Y-108672380D01*
X53617904Y-108720000D01*
X53665523Y-108767619D01*
X53713142Y-108862857D01*
X53713142Y-109005714D01*
X53665523Y-109100952D01*
X53617904Y-109148571D01*
X53522666Y-109196190D01*
X53141714Y-109196190D01*
X54665523Y-109672380D02*
X54094095Y-109672380D01*
X54379809Y-109672380D02*
X54379809Y-108672380D01*
X54284571Y-108815238D01*
X54189333Y-108910476D01*
X54094095Y-108958095D01*
X55284571Y-108672380D02*
X55379809Y-108672380D01*
X55475047Y-108720000D01*
X55522666Y-108767619D01*
X55570285Y-108862857D01*
X55617904Y-109053333D01*
X55617904Y-109291428D01*
X55570285Y-109481904D01*
X55522666Y-109577142D01*
X55475047Y-109624761D01*
X55379809Y-109672380D01*
X55284571Y-109672380D01*
X55189333Y-109624761D01*
X55141714Y-109577142D01*
X55094095Y-109481904D01*
X55046476Y-109291428D01*
X55046476Y-109053333D01*
X55094095Y-108862857D01*
X55141714Y-108767619D01*
X55189333Y-108720000D01*
X55284571Y-108672380D01*
%TO.C,R18*%
X90797142Y-114244380D02*
X90463809Y-113768190D01*
X90225714Y-114244380D02*
X90225714Y-113244380D01*
X90606666Y-113244380D01*
X90701904Y-113292000D01*
X90749523Y-113339619D01*
X90797142Y-113434857D01*
X90797142Y-113577714D01*
X90749523Y-113672952D01*
X90701904Y-113720571D01*
X90606666Y-113768190D01*
X90225714Y-113768190D01*
X91749523Y-114244380D02*
X91178095Y-114244380D01*
X91463809Y-114244380D02*
X91463809Y-113244380D01*
X91368571Y-113387238D01*
X91273333Y-113482476D01*
X91178095Y-113530095D01*
X92320952Y-113672952D02*
X92225714Y-113625333D01*
X92178095Y-113577714D01*
X92130476Y-113482476D01*
X92130476Y-113434857D01*
X92178095Y-113339619D01*
X92225714Y-113292000D01*
X92320952Y-113244380D01*
X92511428Y-113244380D01*
X92606666Y-113292000D01*
X92654285Y-113339619D01*
X92701904Y-113434857D01*
X92701904Y-113482476D01*
X92654285Y-113577714D01*
X92606666Y-113625333D01*
X92511428Y-113672952D01*
X92320952Y-113672952D01*
X92225714Y-113720571D01*
X92178095Y-113768190D01*
X92130476Y-113863428D01*
X92130476Y-114053904D01*
X92178095Y-114149142D01*
X92225714Y-114196761D01*
X92320952Y-114244380D01*
X92511428Y-114244380D01*
X92606666Y-114196761D01*
X92654285Y-114149142D01*
X92701904Y-114053904D01*
X92701904Y-113863428D01*
X92654285Y-113768190D01*
X92606666Y-113720571D01*
X92511428Y-113672952D01*
%TO.C,R4*%
X53681333Y-123784380D02*
X53348000Y-123308190D01*
X53109904Y-123784380D02*
X53109904Y-122784380D01*
X53490857Y-122784380D01*
X53586095Y-122832000D01*
X53633714Y-122879619D01*
X53681333Y-122974857D01*
X53681333Y-123117714D01*
X53633714Y-123212952D01*
X53586095Y-123260571D01*
X53490857Y-123308190D01*
X53109904Y-123308190D01*
X54538476Y-123117714D02*
X54538476Y-123784380D01*
X54300380Y-122736761D02*
X54062285Y-123451047D01*
X54681333Y-123451047D01*
%TO.C,J1*%
X156552677Y-70443369D02*
X156552677Y-71157655D01*
X156505058Y-71300512D01*
X156409820Y-71395750D01*
X156266963Y-71443369D01*
X156171725Y-71443369D01*
X157552677Y-71443369D02*
X156981249Y-71443369D01*
X157266963Y-71443369D02*
X157266963Y-70443369D01*
X157171725Y-70586227D01*
X157076487Y-70681465D01*
X156981249Y-70729084D01*
%TO.C,J3*%
X139021677Y-119631369D02*
X139021677Y-120345655D01*
X138974058Y-120488512D01*
X138878820Y-120583750D01*
X138735963Y-120631369D01*
X138640725Y-120631369D01*
X139402630Y-119631369D02*
X140021677Y-119631369D01*
X139688344Y-120012322D01*
X139831201Y-120012322D01*
X139926439Y-120059941D01*
X139974058Y-120107560D01*
X140021677Y-120202798D01*
X140021677Y-120440893D01*
X139974058Y-120536131D01*
X139926439Y-120583750D01*
X139831201Y-120631369D01*
X139545487Y-120631369D01*
X139450249Y-120583750D01*
X139402630Y-120536131D01*
%TO.C,R1*%
X77668380Y-87796666D02*
X77192190Y-88130000D01*
X77668380Y-88368095D02*
X76668380Y-88368095D01*
X76668380Y-87987142D01*
X76716000Y-87891904D01*
X76763619Y-87844285D01*
X76858857Y-87796666D01*
X77001714Y-87796666D01*
X77096952Y-87844285D01*
X77144571Y-87891904D01*
X77192190Y-87987142D01*
X77192190Y-88368095D01*
X77668380Y-86844285D02*
X77668380Y-87415714D01*
X77668380Y-87130000D02*
X76668380Y-87130000D01*
X76811238Y-87225238D01*
X76906476Y-87320476D01*
X76954095Y-87415714D01*
%TO.C,D3*%
X75715904Y-119832380D02*
X75715904Y-118832380D01*
X75954000Y-118832380D01*
X76096857Y-118880000D01*
X76192095Y-118975238D01*
X76239714Y-119070476D01*
X76287333Y-119260952D01*
X76287333Y-119403809D01*
X76239714Y-119594285D01*
X76192095Y-119689523D01*
X76096857Y-119784761D01*
X75954000Y-119832380D01*
X75715904Y-119832380D01*
X76620666Y-118832380D02*
X77239714Y-118832380D01*
X76906380Y-119213333D01*
X77049238Y-119213333D01*
X77144476Y-119260952D01*
X77192095Y-119308571D01*
X77239714Y-119403809D01*
X77239714Y-119641904D01*
X77192095Y-119737142D01*
X77144476Y-119784761D01*
X77049238Y-119832380D01*
X76763523Y-119832380D01*
X76668285Y-119784761D01*
X76620666Y-119737142D01*
X66281095Y-118082380D02*
X66281095Y-117082380D01*
X66852523Y-118082380D02*
X66423952Y-117510952D01*
X66852523Y-117082380D02*
X66281095Y-117653809D01*
%TO.C,U11*%
X89947904Y-120356380D02*
X89947904Y-121165904D01*
X89995523Y-121261142D01*
X90043142Y-121308761D01*
X90138380Y-121356380D01*
X90328857Y-121356380D01*
X90424095Y-121308761D01*
X90471714Y-121261142D01*
X90519333Y-121165904D01*
X90519333Y-120356380D01*
X91519333Y-121356380D02*
X90947904Y-121356380D01*
X91233619Y-121356380D02*
X91233619Y-120356380D01*
X91138380Y-120499238D01*
X91043142Y-120594476D01*
X90947904Y-120642095D01*
X92471714Y-121356380D02*
X91900285Y-121356380D01*
X92186000Y-121356380D02*
X92186000Y-120356380D01*
X92090761Y-120499238D01*
X91995523Y-120594476D01*
X91900285Y-120642095D01*
%TO.C,R3*%
X125476391Y-104900655D02*
X125000201Y-105233989D01*
X125476391Y-105472084D02*
X124476391Y-105472084D01*
X124476391Y-105091131D01*
X124524011Y-104995893D01*
X124571630Y-104948274D01*
X124666868Y-104900655D01*
X124809725Y-104900655D01*
X124904963Y-104948274D01*
X124952582Y-104995893D01*
X125000201Y-105091131D01*
X125000201Y-105472084D01*
X124476391Y-104567322D02*
X124476391Y-103948274D01*
X124857344Y-104281608D01*
X124857344Y-104138750D01*
X124904963Y-104043512D01*
X124952582Y-103995893D01*
X125047820Y-103948274D01*
X125285915Y-103948274D01*
X125381153Y-103995893D01*
X125428772Y-104043512D01*
X125476391Y-104138750D01*
X125476391Y-104424465D01*
X125428772Y-104519703D01*
X125381153Y-104567322D01*
%TO.C,C3*%
X73661344Y-73813131D02*
X73613725Y-73860750D01*
X73470868Y-73908369D01*
X73375630Y-73908369D01*
X73232772Y-73860750D01*
X73137534Y-73765512D01*
X73089915Y-73670274D01*
X73042296Y-73479798D01*
X73042296Y-73336941D01*
X73089915Y-73146465D01*
X73137534Y-73051227D01*
X73232772Y-72955989D01*
X73375630Y-72908369D01*
X73470868Y-72908369D01*
X73613725Y-72955989D01*
X73661344Y-73003608D01*
X73994677Y-72908369D02*
X74613725Y-72908369D01*
X74280391Y-73289322D01*
X74423249Y-73289322D01*
X74518487Y-73336941D01*
X74566106Y-73384560D01*
X74613725Y-73479798D01*
X74613725Y-73717893D01*
X74566106Y-73813131D01*
X74518487Y-73860750D01*
X74423249Y-73908369D01*
X74137534Y-73908369D01*
X74042296Y-73860750D01*
X73994677Y-73813131D01*
%TO.C,D2*%
X75715904Y-121864380D02*
X75715904Y-120864380D01*
X75954000Y-120864380D01*
X76096857Y-120912000D01*
X76192095Y-121007238D01*
X76239714Y-121102476D01*
X76287333Y-121292952D01*
X76287333Y-121435809D01*
X76239714Y-121626285D01*
X76192095Y-121721523D01*
X76096857Y-121816761D01*
X75954000Y-121864380D01*
X75715904Y-121864380D01*
X76668285Y-120959619D02*
X76715904Y-120912000D01*
X76811142Y-120864380D01*
X77049238Y-120864380D01*
X77144476Y-120912000D01*
X77192095Y-120959619D01*
X77239714Y-121054857D01*
X77239714Y-121150095D01*
X77192095Y-121292952D01*
X76620666Y-121864380D01*
X77239714Y-121864380D01*
X66281095Y-120114380D02*
X66281095Y-119114380D01*
X66852523Y-120114380D02*
X66423952Y-119542952D01*
X66852523Y-119114380D02*
X66281095Y-119685809D01*
%TO.C,R6*%
X53681333Y-119832380D02*
X53348000Y-119356190D01*
X53109904Y-119832380D02*
X53109904Y-118832380D01*
X53490857Y-118832380D01*
X53586095Y-118880000D01*
X53633714Y-118927619D01*
X53681333Y-119022857D01*
X53681333Y-119165714D01*
X53633714Y-119260952D01*
X53586095Y-119308571D01*
X53490857Y-119356190D01*
X53109904Y-119356190D01*
X54538476Y-118832380D02*
X54348000Y-118832380D01*
X54252761Y-118880000D01*
X54205142Y-118927619D01*
X54109904Y-119070476D01*
X54062285Y-119260952D01*
X54062285Y-119641904D01*
X54109904Y-119737142D01*
X54157523Y-119784761D01*
X54252761Y-119832380D01*
X54443238Y-119832380D01*
X54538476Y-119784761D01*
X54586095Y-119737142D01*
X54633714Y-119641904D01*
X54633714Y-119403809D01*
X54586095Y-119308571D01*
X54538476Y-119260952D01*
X54443238Y-119213333D01*
X54252761Y-119213333D01*
X54157523Y-119260952D01*
X54109904Y-119308571D01*
X54062285Y-119403809D01*
%TO.C,U3*%
X176276095Y-84330369D02*
X176276095Y-85139893D01*
X176323714Y-85235131D01*
X176371333Y-85282750D01*
X176466571Y-85330369D01*
X176657047Y-85330369D01*
X176752285Y-85282750D01*
X176799904Y-85235131D01*
X176847523Y-85139893D01*
X176847523Y-84330369D01*
X177228476Y-84330369D02*
X177847523Y-84330369D01*
X177514190Y-84711322D01*
X177657047Y-84711322D01*
X177752285Y-84758941D01*
X177799904Y-84806560D01*
X177847523Y-84901798D01*
X177847523Y-85139893D01*
X177799904Y-85235131D01*
X177752285Y-85282750D01*
X177657047Y-85330369D01*
X177371333Y-85330369D01*
X177276095Y-85282750D01*
X177228476Y-85235131D01*
%TO.C,D5*%
X75715904Y-115768380D02*
X75715904Y-114768380D01*
X75954000Y-114768380D01*
X76096857Y-114816000D01*
X76192095Y-114911238D01*
X76239714Y-115006476D01*
X76287333Y-115196952D01*
X76287333Y-115339809D01*
X76239714Y-115530285D01*
X76192095Y-115625523D01*
X76096857Y-115720761D01*
X75954000Y-115768380D01*
X75715904Y-115768380D01*
X77192095Y-114768380D02*
X76715904Y-114768380D01*
X76668285Y-115244571D01*
X76715904Y-115196952D01*
X76811142Y-115149333D01*
X77049238Y-115149333D01*
X77144476Y-115196952D01*
X77192095Y-115244571D01*
X77239714Y-115339809D01*
X77239714Y-115577904D01*
X77192095Y-115673142D01*
X77144476Y-115720761D01*
X77049238Y-115768380D01*
X76811142Y-115768380D01*
X76715904Y-115720761D01*
X76668285Y-115673142D01*
X66281095Y-114018380D02*
X66281095Y-113018380D01*
X66852523Y-114018380D02*
X66423952Y-113446952D01*
X66852523Y-113018380D02*
X66281095Y-113589809D01*
%TO.C,RN1*%
X154630380Y-79176476D02*
X154154190Y-79509809D01*
X154630380Y-79747904D02*
X153630380Y-79747904D01*
X153630380Y-79366952D01*
X153678000Y-79271714D01*
X153725619Y-79224095D01*
X153820857Y-79176476D01*
X153963714Y-79176476D01*
X154058952Y-79224095D01*
X154106571Y-79271714D01*
X154154190Y-79366952D01*
X154154190Y-79747904D01*
X154630380Y-78747904D02*
X153630380Y-78747904D01*
X154630380Y-78176476D01*
X153630380Y-78176476D01*
X154630380Y-77176476D02*
X154630380Y-77747904D01*
X154630380Y-77462190D02*
X153630380Y-77462190D01*
X153773238Y-77557428D01*
X153868476Y-77652666D01*
X153916095Y-77747904D01*
%TO.C,U10*%
X134143904Y-128230380D02*
X134143904Y-129039904D01*
X134191523Y-129135142D01*
X134239142Y-129182761D01*
X134334380Y-129230380D01*
X134524857Y-129230380D01*
X134620095Y-129182761D01*
X134667714Y-129135142D01*
X134715333Y-129039904D01*
X134715333Y-128230380D01*
X135715333Y-129230380D02*
X135143904Y-129230380D01*
X135429619Y-129230380D02*
X135429619Y-128230380D01*
X135334380Y-128373238D01*
X135239142Y-128468476D01*
X135143904Y-128516095D01*
X136334380Y-128230380D02*
X136429619Y-128230380D01*
X136524857Y-128278000D01*
X136572476Y-128325619D01*
X136620095Y-128420857D01*
X136667714Y-128611333D01*
X136667714Y-128849428D01*
X136620095Y-129039904D01*
X136572476Y-129135142D01*
X136524857Y-129182761D01*
X136429619Y-129230380D01*
X136334380Y-129230380D01*
X136239142Y-129182761D01*
X136191523Y-129135142D01*
X136143904Y-129039904D01*
X136096285Y-128849428D01*
X136096285Y-128611333D01*
X136143904Y-128420857D01*
X136191523Y-128325619D01*
X136239142Y-128278000D01*
X136334380Y-128230380D01*
%TO.C,J6*%
X56781380Y-86962333D02*
X57495666Y-86962333D01*
X57638523Y-87009952D01*
X57733761Y-87105190D01*
X57781380Y-87248047D01*
X57781380Y-87343285D01*
X56781380Y-86057571D02*
X56781380Y-86248047D01*
X56829000Y-86343285D01*
X56876619Y-86390904D01*
X57019476Y-86486142D01*
X57209952Y-86533761D01*
X57590904Y-86533761D01*
X57686142Y-86486142D01*
X57733761Y-86438523D01*
X57781380Y-86343285D01*
X57781380Y-86152809D01*
X57733761Y-86057571D01*
X57686142Y-86009952D01*
X57590904Y-85962333D01*
X57352809Y-85962333D01*
X57257571Y-86009952D01*
X57209952Y-86057571D01*
X57162333Y-86152809D01*
X57162333Y-86343285D01*
X57209952Y-86438523D01*
X57257571Y-86486142D01*
X57352809Y-86533761D01*
%TO.C,D1*%
X75715904Y-123896380D02*
X75715904Y-122896380D01*
X75954000Y-122896380D01*
X76096857Y-122944000D01*
X76192095Y-123039238D01*
X76239714Y-123134476D01*
X76287333Y-123324952D01*
X76287333Y-123467809D01*
X76239714Y-123658285D01*
X76192095Y-123753523D01*
X76096857Y-123848761D01*
X75954000Y-123896380D01*
X75715904Y-123896380D01*
X77239714Y-123896380D02*
X76668285Y-123896380D01*
X76954000Y-123896380D02*
X76954000Y-122896380D01*
X76858761Y-123039238D01*
X76763523Y-123134476D01*
X76668285Y-123182095D01*
X66281095Y-122146380D02*
X66281095Y-121146380D01*
X66852523Y-122146380D02*
X66423952Y-121574952D01*
X66852523Y-121146380D02*
X66281095Y-121717809D01*
%TO.C,R17*%
X86558380Y-88272857D02*
X86082190Y-88606190D01*
X86558380Y-88844285D02*
X85558380Y-88844285D01*
X85558380Y-88463333D01*
X85606000Y-88368095D01*
X85653619Y-88320476D01*
X85748857Y-88272857D01*
X85891714Y-88272857D01*
X85986952Y-88320476D01*
X86034571Y-88368095D01*
X86082190Y-88463333D01*
X86082190Y-88844285D01*
X86558380Y-87320476D02*
X86558380Y-87891904D01*
X86558380Y-87606190D02*
X85558380Y-87606190D01*
X85701238Y-87701428D01*
X85796476Y-87796666D01*
X85844095Y-87891904D01*
X85558380Y-86987142D02*
X85558380Y-86320476D01*
X86558380Y-86749047D01*
%TO.C,U4*%
X176276095Y-55332380D02*
X176276095Y-56141904D01*
X176323714Y-56237142D01*
X176371333Y-56284761D01*
X176466571Y-56332380D01*
X176657047Y-56332380D01*
X176752285Y-56284761D01*
X176799904Y-56237142D01*
X176847523Y-56141904D01*
X176847523Y-55332380D01*
X177752285Y-55665714D02*
X177752285Y-56332380D01*
X177514190Y-55284761D02*
X177276095Y-55999047D01*
X177895142Y-55999047D01*
%TO.C,J9*%
X88561666Y-123116380D02*
X88561666Y-123830666D01*
X88514047Y-123973523D01*
X88418809Y-124068761D01*
X88275952Y-124116380D01*
X88180714Y-124116380D01*
X89085476Y-124116380D02*
X89275952Y-124116380D01*
X89371190Y-124068761D01*
X89418809Y-124021142D01*
X89514047Y-123878285D01*
X89561666Y-123687809D01*
X89561666Y-123306857D01*
X89514047Y-123211619D01*
X89466428Y-123164000D01*
X89371190Y-123116380D01*
X89180714Y-123116380D01*
X89085476Y-123164000D01*
X89037857Y-123211619D01*
X88990238Y-123306857D01*
X88990238Y-123544952D01*
X89037857Y-123640190D01*
X89085476Y-123687809D01*
X89180714Y-123735428D01*
X89371190Y-123735428D01*
X89466428Y-123687809D01*
X89514047Y-123640190D01*
X89561666Y-123544952D01*
%TO.C,D9*%
X53109904Y-127960380D02*
X53109904Y-126960380D01*
X53348000Y-126960380D01*
X53490857Y-127008000D01*
X53586095Y-127103238D01*
X53633714Y-127198476D01*
X53681333Y-127388952D01*
X53681333Y-127531809D01*
X53633714Y-127722285D01*
X53586095Y-127817523D01*
X53490857Y-127912761D01*
X53348000Y-127960380D01*
X53109904Y-127960380D01*
X54157523Y-127960380D02*
X54348000Y-127960380D01*
X54443238Y-127912761D01*
X54490857Y-127865142D01*
X54586095Y-127722285D01*
X54633714Y-127531809D01*
X54633714Y-127150857D01*
X54586095Y-127055619D01*
X54538476Y-127008000D01*
X54443238Y-126960380D01*
X54252761Y-126960380D01*
X54157523Y-127008000D01*
X54109904Y-127055619D01*
X54062285Y-127150857D01*
X54062285Y-127388952D01*
X54109904Y-127484190D01*
X54157523Y-127531809D01*
X54252761Y-127579428D01*
X54443238Y-127579428D01*
X54538476Y-127531809D01*
X54586095Y-127484190D01*
X54633714Y-127388952D01*
X56629095Y-126210380D02*
X56629095Y-125210380D01*
X57200523Y-126210380D02*
X56771952Y-125638952D01*
X57200523Y-125210380D02*
X56629095Y-125781809D01*
%TO.C,LS1*%
X57090142Y-89976380D02*
X56613952Y-89976380D01*
X56613952Y-88976380D01*
X57375857Y-89928761D02*
X57518714Y-89976380D01*
X57756809Y-89976380D01*
X57852047Y-89928761D01*
X57899666Y-89881142D01*
X57947285Y-89785904D01*
X57947285Y-89690666D01*
X57899666Y-89595428D01*
X57852047Y-89547809D01*
X57756809Y-89500190D01*
X57566333Y-89452571D01*
X57471095Y-89404952D01*
X57423476Y-89357333D01*
X57375857Y-89262095D01*
X57375857Y-89166857D01*
X57423476Y-89071619D01*
X57471095Y-89024000D01*
X57566333Y-88976380D01*
X57804428Y-88976380D01*
X57947285Y-89024000D01*
X58899666Y-89976380D02*
X58328238Y-89976380D01*
X58613952Y-89976380D02*
X58613952Y-88976380D01*
X58518714Y-89119238D01*
X58423476Y-89214476D01*
X58328238Y-89262095D01*
%TO.C,Y1*%
X126126201Y-134734179D02*
X126602391Y-134734179D01*
X125602391Y-135067512D02*
X126126201Y-134734179D01*
X125602391Y-134400846D01*
X126602391Y-133543703D02*
X126602391Y-134115131D01*
X126602391Y-133829417D02*
X125602391Y-133829417D01*
X125745249Y-133924655D01*
X125840487Y-134019893D01*
X125888106Y-134115131D01*
%TO.C,U9*%
X92286391Y-66862893D02*
X93095915Y-66862893D01*
X93191153Y-66815274D01*
X93238772Y-66767655D01*
X93286391Y-66672417D01*
X93286391Y-66481941D01*
X93238772Y-66386703D01*
X93191153Y-66339084D01*
X93095915Y-66291465D01*
X92286391Y-66291465D01*
X93286391Y-65767655D02*
X93286391Y-65577179D01*
X93238772Y-65481941D01*
X93191153Y-65434322D01*
X93048296Y-65339084D01*
X92857820Y-65291465D01*
X92476868Y-65291465D01*
X92381630Y-65339084D01*
X92334011Y-65386703D01*
X92286391Y-65481941D01*
X92286391Y-65672417D01*
X92334011Y-65767655D01*
X92381630Y-65815274D01*
X92476868Y-65862893D01*
X92714963Y-65862893D01*
X92810201Y-65815274D01*
X92857820Y-65767655D01*
X92905439Y-65672417D01*
X92905439Y-65481941D01*
X92857820Y-65386703D01*
X92810201Y-65339084D01*
X92714963Y-65291465D01*
%TO.C,H1*%
X48006095Y-50500380D02*
X48006095Y-49500380D01*
X48006095Y-49976571D02*
X48577523Y-49976571D01*
X48577523Y-50500380D02*
X48577523Y-49500380D01*
X49577523Y-50500380D02*
X49006095Y-50500380D01*
X49291809Y-50500380D02*
X49291809Y-49500380D01*
X49196571Y-49643238D01*
X49101333Y-49738476D01*
X49006095Y-49786095D01*
%TO.C,C5*%
X105751333Y-108307142D02*
X105703714Y-108354761D01*
X105560857Y-108402380D01*
X105465619Y-108402380D01*
X105322761Y-108354761D01*
X105227523Y-108259523D01*
X105179904Y-108164285D01*
X105132285Y-107973809D01*
X105132285Y-107830952D01*
X105179904Y-107640476D01*
X105227523Y-107545238D01*
X105322761Y-107450000D01*
X105465619Y-107402380D01*
X105560857Y-107402380D01*
X105703714Y-107450000D01*
X105751333Y-107497619D01*
X106656095Y-107402380D02*
X106179904Y-107402380D01*
X106132285Y-107878571D01*
X106179904Y-107830952D01*
X106275142Y-107783333D01*
X106513238Y-107783333D01*
X106608476Y-107830952D01*
X106656095Y-107878571D01*
X106703714Y-107973809D01*
X106703714Y-108211904D01*
X106656095Y-108307142D01*
X106608476Y-108354761D01*
X106513238Y-108402380D01*
X106275142Y-108402380D01*
X106179904Y-108354761D01*
X106132285Y-108307142D01*
%TO.C,U5*%
X176276095Y-113027369D02*
X176276095Y-113836893D01*
X176323714Y-113932131D01*
X176371333Y-113979750D01*
X176466571Y-114027369D01*
X176657047Y-114027369D01*
X176752285Y-113979750D01*
X176799904Y-113932131D01*
X176847523Y-113836893D01*
X176847523Y-113027369D01*
X177799904Y-113027369D02*
X177323714Y-113027369D01*
X177276095Y-113503560D01*
X177323714Y-113455941D01*
X177418952Y-113408322D01*
X177657047Y-113408322D01*
X177752285Y-113455941D01*
X177799904Y-113503560D01*
X177847523Y-113598798D01*
X177847523Y-113836893D01*
X177799904Y-113932131D01*
X177752285Y-113979750D01*
X177657047Y-114027369D01*
X177418952Y-114027369D01*
X177323714Y-113979750D01*
X177276095Y-113932131D01*
%TO.C,D7*%
X75715904Y-111704380D02*
X75715904Y-110704380D01*
X75954000Y-110704380D01*
X76096857Y-110752000D01*
X76192095Y-110847238D01*
X76239714Y-110942476D01*
X76287333Y-111132952D01*
X76287333Y-111275809D01*
X76239714Y-111466285D01*
X76192095Y-111561523D01*
X76096857Y-111656761D01*
X75954000Y-111704380D01*
X75715904Y-111704380D01*
X76620666Y-110704380D02*
X77287333Y-110704380D01*
X76858761Y-111704380D01*
X66281095Y-109954380D02*
X66281095Y-108954380D01*
X66852523Y-109954380D02*
X66423952Y-109382952D01*
X66852523Y-108954380D02*
X66281095Y-109525809D01*
%TO.C,J2*%
X196458380Y-54435333D02*
X197172666Y-54435333D01*
X197315523Y-54482952D01*
X197410761Y-54578190D01*
X197458380Y-54721047D01*
X197458380Y-54816285D01*
X196553619Y-54006761D02*
X196506000Y-53959142D01*
X196458380Y-53863904D01*
X196458380Y-53625809D01*
X196506000Y-53530571D01*
X196553619Y-53482952D01*
X196648857Y-53435333D01*
X196744095Y-53435333D01*
X196886952Y-53482952D01*
X197458380Y-54054380D01*
X197458380Y-53435333D01*
%TO.C,D6*%
X75715904Y-113736380D02*
X75715904Y-112736380D01*
X75954000Y-112736380D01*
X76096857Y-112784000D01*
X76192095Y-112879238D01*
X76239714Y-112974476D01*
X76287333Y-113164952D01*
X76287333Y-113307809D01*
X76239714Y-113498285D01*
X76192095Y-113593523D01*
X76096857Y-113688761D01*
X75954000Y-113736380D01*
X75715904Y-113736380D01*
X77144476Y-112736380D02*
X76954000Y-112736380D01*
X76858761Y-112784000D01*
X76811142Y-112831619D01*
X76715904Y-112974476D01*
X76668285Y-113164952D01*
X76668285Y-113545904D01*
X76715904Y-113641142D01*
X76763523Y-113688761D01*
X76858761Y-113736380D01*
X77049238Y-113736380D01*
X77144476Y-113688761D01*
X77192095Y-113641142D01*
X77239714Y-113545904D01*
X77239714Y-113307809D01*
X77192095Y-113212571D01*
X77144476Y-113164952D01*
X77049238Y-113117333D01*
X76858761Y-113117333D01*
X76763523Y-113164952D01*
X76715904Y-113212571D01*
X76668285Y-113307809D01*
X66281095Y-111986380D02*
X66281095Y-110986380D01*
X66852523Y-111986380D02*
X66423952Y-111414952D01*
X66852523Y-110986380D02*
X66281095Y-111557809D01*
%TO.C,D13*%
X75747714Y-125928380D02*
X75747714Y-124928380D01*
X75985809Y-124928380D01*
X76128666Y-124976000D01*
X76223904Y-125071238D01*
X76271523Y-125166476D01*
X76319142Y-125356952D01*
X76319142Y-125499809D01*
X76271523Y-125690285D01*
X76223904Y-125785523D01*
X76128666Y-125880761D01*
X75985809Y-125928380D01*
X75747714Y-125928380D01*
X77271523Y-125928380D02*
X76700095Y-125928380D01*
X76985809Y-125928380D02*
X76985809Y-124928380D01*
X76890571Y-125071238D01*
X76795333Y-125166476D01*
X76700095Y-125214095D01*
X77604857Y-124928380D02*
X78223904Y-124928380D01*
X77890571Y-125309333D01*
X78033428Y-125309333D01*
X78128666Y-125356952D01*
X78176285Y-125404571D01*
X78223904Y-125499809D01*
X78223904Y-125737904D01*
X78176285Y-125833142D01*
X78128666Y-125880761D01*
X78033428Y-125928380D01*
X77747714Y-125928380D01*
X77652476Y-125880761D01*
X77604857Y-125833142D01*
X66281095Y-124178380D02*
X66281095Y-123178380D01*
X66852523Y-124178380D02*
X66423952Y-123606952D01*
X66852523Y-123178380D02*
X66281095Y-123749809D01*
%TO.C,C15*%
X107053142Y-78843142D02*
X107005523Y-78890761D01*
X106862666Y-78938380D01*
X106767428Y-78938380D01*
X106624571Y-78890761D01*
X106529333Y-78795523D01*
X106481714Y-78700285D01*
X106434095Y-78509809D01*
X106434095Y-78366952D01*
X106481714Y-78176476D01*
X106529333Y-78081238D01*
X106624571Y-77986000D01*
X106767428Y-77938380D01*
X106862666Y-77938380D01*
X107005523Y-77986000D01*
X107053142Y-78033619D01*
X108005523Y-78938380D02*
X107434095Y-78938380D01*
X107719809Y-78938380D02*
X107719809Y-77938380D01*
X107624571Y-78081238D01*
X107529333Y-78176476D01*
X107434095Y-78224095D01*
X108910285Y-77938380D02*
X108434095Y-77938380D01*
X108386476Y-78414571D01*
X108434095Y-78366952D01*
X108529333Y-78319333D01*
X108767428Y-78319333D01*
X108862666Y-78366952D01*
X108910285Y-78414571D01*
X108957904Y-78509809D01*
X108957904Y-78747904D01*
X108910285Y-78843142D01*
X108862666Y-78890761D01*
X108767428Y-78938380D01*
X108529333Y-78938380D01*
X108434095Y-78890761D01*
X108386476Y-78843142D01*
%TO.C,R20*%
X90797142Y-116276380D02*
X90463809Y-115800190D01*
X90225714Y-116276380D02*
X90225714Y-115276380D01*
X90606666Y-115276380D01*
X90701904Y-115324000D01*
X90749523Y-115371619D01*
X90797142Y-115466857D01*
X90797142Y-115609714D01*
X90749523Y-115704952D01*
X90701904Y-115752571D01*
X90606666Y-115800190D01*
X90225714Y-115800190D01*
X91178095Y-115371619D02*
X91225714Y-115324000D01*
X91320952Y-115276380D01*
X91559047Y-115276380D01*
X91654285Y-115324000D01*
X91701904Y-115371619D01*
X91749523Y-115466857D01*
X91749523Y-115562095D01*
X91701904Y-115704952D01*
X91130476Y-116276380D01*
X91749523Y-116276380D01*
X92368571Y-115276380D02*
X92463809Y-115276380D01*
X92559047Y-115324000D01*
X92606666Y-115371619D01*
X92654285Y-115466857D01*
X92701904Y-115657333D01*
X92701904Y-115895428D01*
X92654285Y-116085904D01*
X92606666Y-116181142D01*
X92559047Y-116228761D01*
X92463809Y-116276380D01*
X92368571Y-116276380D01*
X92273333Y-116228761D01*
X92225714Y-116181142D01*
X92178095Y-116085904D01*
X92130476Y-115895428D01*
X92130476Y-115657333D01*
X92178095Y-115466857D01*
X92225714Y-115371619D01*
X92273333Y-115324000D01*
X92368571Y-115276380D01*
%TO.C,J8*%
X138932380Y-109802333D02*
X139646666Y-109802333D01*
X139789523Y-109849952D01*
X139884761Y-109945190D01*
X139932380Y-110088047D01*
X139932380Y-110183285D01*
X139360952Y-109183285D02*
X139313333Y-109278523D01*
X139265714Y-109326142D01*
X139170476Y-109373761D01*
X139122857Y-109373761D01*
X139027619Y-109326142D01*
X138980000Y-109278523D01*
X138932380Y-109183285D01*
X138932380Y-108992809D01*
X138980000Y-108897571D01*
X139027619Y-108849952D01*
X139122857Y-108802333D01*
X139170476Y-108802333D01*
X139265714Y-108849952D01*
X139313333Y-108897571D01*
X139360952Y-108992809D01*
X139360952Y-109183285D01*
X139408571Y-109278523D01*
X139456190Y-109326142D01*
X139551428Y-109373761D01*
X139741904Y-109373761D01*
X139837142Y-109326142D01*
X139884761Y-109278523D01*
X139932380Y-109183285D01*
X139932380Y-108992809D01*
X139884761Y-108897571D01*
X139837142Y-108849952D01*
X139741904Y-108802333D01*
X139551428Y-108802333D01*
X139456190Y-108849952D01*
X139408571Y-108897571D01*
X139360952Y-108992809D01*
%TO.C,C10*%
X186555142Y-113387142D02*
X186507523Y-113434761D01*
X186364666Y-113482380D01*
X186269428Y-113482380D01*
X186126571Y-113434761D01*
X186031333Y-113339523D01*
X185983714Y-113244285D01*
X185936095Y-113053809D01*
X185936095Y-112910952D01*
X185983714Y-112720476D01*
X186031333Y-112625238D01*
X186126571Y-112530000D01*
X186269428Y-112482380D01*
X186364666Y-112482380D01*
X186507523Y-112530000D01*
X186555142Y-112577619D01*
X187507523Y-113482380D02*
X186936095Y-113482380D01*
X187221809Y-113482380D02*
X187221809Y-112482380D01*
X187126571Y-112625238D01*
X187031333Y-112720476D01*
X186936095Y-112768095D01*
X188126571Y-112482380D02*
X188221809Y-112482380D01*
X188317047Y-112530000D01*
X188364666Y-112577619D01*
X188412285Y-112672857D01*
X188459904Y-112863333D01*
X188459904Y-113101428D01*
X188412285Y-113291904D01*
X188364666Y-113387142D01*
X188317047Y-113434761D01*
X188221809Y-113482380D01*
X188126571Y-113482380D01*
X188031333Y-113434761D01*
X187983714Y-113387142D01*
X187936095Y-113291904D01*
X187888476Y-113101428D01*
X187888476Y-112863333D01*
X187936095Y-112672857D01*
X187983714Y-112577619D01*
X188031333Y-112530000D01*
X188126571Y-112482380D01*
%TO.C,C11*%
X132621153Y-79269131D02*
X132573534Y-79316750D01*
X132430677Y-79364369D01*
X132335439Y-79364369D01*
X132192582Y-79316750D01*
X132097344Y-79221512D01*
X132049725Y-79126274D01*
X132002106Y-78935798D01*
X132002106Y-78792941D01*
X132049725Y-78602465D01*
X132097344Y-78507227D01*
X132192582Y-78411989D01*
X132335439Y-78364369D01*
X132430677Y-78364369D01*
X132573534Y-78411989D01*
X132621153Y-78459608D01*
X133573534Y-79364369D02*
X133002106Y-79364369D01*
X133287820Y-79364369D02*
X133287820Y-78364369D01*
X133192582Y-78507227D01*
X133097344Y-78602465D01*
X133002106Y-78650084D01*
X134525915Y-79364369D02*
X133954487Y-79364369D01*
X134240201Y-79364369D02*
X134240201Y-78364369D01*
X134144963Y-78507227D01*
X134049725Y-78602465D01*
X133954487Y-78650084D01*
%TO.C,J7*%
X111422380Y-143843333D02*
X112136666Y-143843333D01*
X112279523Y-143890952D01*
X112374761Y-143986190D01*
X112422380Y-144129047D01*
X112422380Y-144224285D01*
X111422380Y-143462380D02*
X111422380Y-142795714D01*
X112422380Y-143224285D01*
%TO.C,C13*%
X152265142Y-111609142D02*
X152217523Y-111656761D01*
X152074666Y-111704380D01*
X151979428Y-111704380D01*
X151836571Y-111656761D01*
X151741333Y-111561523D01*
X151693714Y-111466285D01*
X151646095Y-111275809D01*
X151646095Y-111132952D01*
X151693714Y-110942476D01*
X151741333Y-110847238D01*
X151836571Y-110752000D01*
X151979428Y-110704380D01*
X152074666Y-110704380D01*
X152217523Y-110752000D01*
X152265142Y-110799619D01*
X153217523Y-111704380D02*
X152646095Y-111704380D01*
X152931809Y-111704380D02*
X152931809Y-110704380D01*
X152836571Y-110847238D01*
X152741333Y-110942476D01*
X152646095Y-110990095D01*
X153550857Y-110704380D02*
X154169904Y-110704380D01*
X153836571Y-111085333D01*
X153979428Y-111085333D01*
X154074666Y-111132952D01*
X154122285Y-111180571D01*
X154169904Y-111275809D01*
X154169904Y-111513904D01*
X154122285Y-111609142D01*
X154074666Y-111656761D01*
X153979428Y-111704380D01*
X153693714Y-111704380D01*
X153598476Y-111656761D01*
X153550857Y-111609142D01*
%TO.C,C6*%
X93813333Y-118467142D02*
X93765714Y-118514761D01*
X93622857Y-118562380D01*
X93527619Y-118562380D01*
X93384761Y-118514761D01*
X93289523Y-118419523D01*
X93241904Y-118324285D01*
X93194285Y-118133809D01*
X93194285Y-117990952D01*
X93241904Y-117800476D01*
X93289523Y-117705238D01*
X93384761Y-117610000D01*
X93527619Y-117562380D01*
X93622857Y-117562380D01*
X93765714Y-117610000D01*
X93813333Y-117657619D01*
X94670476Y-117562380D02*
X94480000Y-117562380D01*
X94384761Y-117610000D01*
X94337142Y-117657619D01*
X94241904Y-117800476D01*
X94194285Y-117990952D01*
X94194285Y-118371904D01*
X94241904Y-118467142D01*
X94289523Y-118514761D01*
X94384761Y-118562380D01*
X94575238Y-118562380D01*
X94670476Y-118514761D01*
X94718095Y-118467142D01*
X94765714Y-118371904D01*
X94765714Y-118133809D01*
X94718095Y-118038571D01*
X94670476Y-117990952D01*
X94575238Y-117943333D01*
X94384761Y-117943333D01*
X94289523Y-117990952D01*
X94241904Y-118038571D01*
X94194285Y-118133809D01*
%TO.C,C9*%
X144867333Y-128627142D02*
X144819714Y-128674761D01*
X144676857Y-128722380D01*
X144581619Y-128722380D01*
X144438761Y-128674761D01*
X144343523Y-128579523D01*
X144295904Y-128484285D01*
X144248285Y-128293809D01*
X144248285Y-128150952D01*
X144295904Y-127960476D01*
X144343523Y-127865238D01*
X144438761Y-127770000D01*
X144581619Y-127722380D01*
X144676857Y-127722380D01*
X144819714Y-127770000D01*
X144867333Y-127817619D01*
X145343523Y-128722380D02*
X145534000Y-128722380D01*
X145629238Y-128674761D01*
X145676857Y-128627142D01*
X145772095Y-128484285D01*
X145819714Y-128293809D01*
X145819714Y-127912857D01*
X145772095Y-127817619D01*
X145724476Y-127770000D01*
X145629238Y-127722380D01*
X145438761Y-127722380D01*
X145343523Y-127770000D01*
X145295904Y-127817619D01*
X145248285Y-127912857D01*
X145248285Y-128150952D01*
X145295904Y-128246190D01*
X145343523Y-128293809D01*
X145438761Y-128341428D01*
X145629238Y-128341428D01*
X145724476Y-128293809D01*
X145772095Y-128246190D01*
X145819714Y-128150952D01*
%TO.C,R14*%
X80462380Y-88272857D02*
X79986190Y-88606190D01*
X80462380Y-88844285D02*
X79462380Y-88844285D01*
X79462380Y-88463333D01*
X79510000Y-88368095D01*
X79557619Y-88320476D01*
X79652857Y-88272857D01*
X79795714Y-88272857D01*
X79890952Y-88320476D01*
X79938571Y-88368095D01*
X79986190Y-88463333D01*
X79986190Y-88844285D01*
X80462380Y-87320476D02*
X80462380Y-87891904D01*
X80462380Y-87606190D02*
X79462380Y-87606190D01*
X79605238Y-87701428D01*
X79700476Y-87796666D01*
X79748095Y-87891904D01*
X79795714Y-86463333D02*
X80462380Y-86463333D01*
X79414761Y-86701428D02*
X80129047Y-86939523D01*
X80129047Y-86320476D01*
%TO.C,R12*%
X53713142Y-113736380D02*
X53379809Y-113260190D01*
X53141714Y-113736380D02*
X53141714Y-112736380D01*
X53522666Y-112736380D01*
X53617904Y-112784000D01*
X53665523Y-112831619D01*
X53713142Y-112926857D01*
X53713142Y-113069714D01*
X53665523Y-113164952D01*
X53617904Y-113212571D01*
X53522666Y-113260190D01*
X53141714Y-113260190D01*
X54665523Y-113736380D02*
X54094095Y-113736380D01*
X54379809Y-113736380D02*
X54379809Y-112736380D01*
X54284571Y-112879238D01*
X54189333Y-112974476D01*
X54094095Y-113022095D01*
X55046476Y-112831619D02*
X55094095Y-112784000D01*
X55189333Y-112736380D01*
X55427428Y-112736380D01*
X55522666Y-112784000D01*
X55570285Y-112831619D01*
X55617904Y-112926857D01*
X55617904Y-113022095D01*
X55570285Y-113164952D01*
X54998857Y-113736380D01*
X55617904Y-113736380D01*
%TO.C,C8*%
X83099344Y-54205142D02*
X83051725Y-54252761D01*
X82908868Y-54300380D01*
X82813630Y-54300380D01*
X82670772Y-54252761D01*
X82575534Y-54157523D01*
X82527915Y-54062285D01*
X82480296Y-53871809D01*
X82480296Y-53728952D01*
X82527915Y-53538476D01*
X82575534Y-53443238D01*
X82670772Y-53348000D01*
X82813630Y-53300380D01*
X82908868Y-53300380D01*
X83051725Y-53348000D01*
X83099344Y-53395619D01*
X83670772Y-53728952D02*
X83575534Y-53681333D01*
X83527915Y-53633714D01*
X83480296Y-53538476D01*
X83480296Y-53490857D01*
X83527915Y-53395619D01*
X83575534Y-53348000D01*
X83670772Y-53300380D01*
X83861249Y-53300380D01*
X83956487Y-53348000D01*
X84004106Y-53395619D01*
X84051725Y-53490857D01*
X84051725Y-53538476D01*
X84004106Y-53633714D01*
X83956487Y-53681333D01*
X83861249Y-53728952D01*
X83670772Y-53728952D01*
X83575534Y-53776571D01*
X83527915Y-53824190D01*
X83480296Y-53919428D01*
X83480296Y-54109904D01*
X83527915Y-54205142D01*
X83575534Y-54252761D01*
X83670772Y-54300380D01*
X83861249Y-54300380D01*
X83956487Y-54252761D01*
X84004106Y-54205142D01*
X84051725Y-54109904D01*
X84051725Y-53919428D01*
X84004106Y-53824190D01*
X83956487Y-53776571D01*
X83861249Y-53728952D01*
%TO.C,C12*%
X186555142Y-84939142D02*
X186507523Y-84986761D01*
X186364666Y-85034380D01*
X186269428Y-85034380D01*
X186126571Y-84986761D01*
X186031333Y-84891523D01*
X185983714Y-84796285D01*
X185936095Y-84605809D01*
X185936095Y-84462952D01*
X185983714Y-84272476D01*
X186031333Y-84177238D01*
X186126571Y-84082000D01*
X186269428Y-84034380D01*
X186364666Y-84034380D01*
X186507523Y-84082000D01*
X186555142Y-84129619D01*
X187507523Y-85034380D02*
X186936095Y-85034380D01*
X187221809Y-85034380D02*
X187221809Y-84034380D01*
X187126571Y-84177238D01*
X187031333Y-84272476D01*
X186936095Y-84320095D01*
X187888476Y-84129619D02*
X187936095Y-84082000D01*
X188031333Y-84034380D01*
X188269428Y-84034380D01*
X188364666Y-84082000D01*
X188412285Y-84129619D01*
X188459904Y-84224857D01*
X188459904Y-84320095D01*
X188412285Y-84462952D01*
X187840857Y-85034380D01*
X188459904Y-85034380D01*
%TO.C,R15*%
X82494380Y-88272857D02*
X82018190Y-88606190D01*
X82494380Y-88844285D02*
X81494380Y-88844285D01*
X81494380Y-88463333D01*
X81542000Y-88368095D01*
X81589619Y-88320476D01*
X81684857Y-88272857D01*
X81827714Y-88272857D01*
X81922952Y-88320476D01*
X81970571Y-88368095D01*
X82018190Y-88463333D01*
X82018190Y-88844285D01*
X82494380Y-87320476D02*
X82494380Y-87891904D01*
X82494380Y-87606190D02*
X81494380Y-87606190D01*
X81637238Y-87701428D01*
X81732476Y-87796666D01*
X81780095Y-87891904D01*
X81494380Y-86415714D02*
X81494380Y-86891904D01*
X81970571Y-86939523D01*
X81922952Y-86891904D01*
X81875333Y-86796666D01*
X81875333Y-86558571D01*
X81922952Y-86463333D01*
X81970571Y-86415714D01*
X82065809Y-86368095D01*
X82303904Y-86368095D01*
X82399142Y-86415714D01*
X82446761Y-86463333D01*
X82494380Y-86558571D01*
X82494380Y-86796666D01*
X82446761Y-86891904D01*
X82399142Y-86939523D01*
%TO.C,J4*%
X48688666Y-131564380D02*
X48688666Y-132278666D01*
X48641047Y-132421523D01*
X48545809Y-132516761D01*
X48402952Y-132564380D01*
X48307714Y-132564380D01*
X49593428Y-131897714D02*
X49593428Y-132564380D01*
X49355333Y-131516761D02*
X49117238Y-132231047D01*
X49736285Y-132231047D01*
%TO.C,R11*%
X53713142Y-115768380D02*
X53379809Y-115292190D01*
X53141714Y-115768380D02*
X53141714Y-114768380D01*
X53522666Y-114768380D01*
X53617904Y-114816000D01*
X53665523Y-114863619D01*
X53713142Y-114958857D01*
X53713142Y-115101714D01*
X53665523Y-115196952D01*
X53617904Y-115244571D01*
X53522666Y-115292190D01*
X53141714Y-115292190D01*
X54665523Y-115768380D02*
X54094095Y-115768380D01*
X54379809Y-115768380D02*
X54379809Y-114768380D01*
X54284571Y-114911238D01*
X54189333Y-115006476D01*
X54094095Y-115054095D01*
X55617904Y-115768380D02*
X55046476Y-115768380D01*
X55332190Y-115768380D02*
X55332190Y-114768380D01*
X55236952Y-114911238D01*
X55141714Y-115006476D01*
X55046476Y-115054095D01*
%TO.C,U12*%
X114331904Y-107866380D02*
X114331904Y-108675904D01*
X114379523Y-108771142D01*
X114427142Y-108818761D01*
X114522380Y-108866380D01*
X114712857Y-108866380D01*
X114808095Y-108818761D01*
X114855714Y-108771142D01*
X114903333Y-108675904D01*
X114903333Y-107866380D01*
X115903333Y-108866380D02*
X115331904Y-108866380D01*
X115617619Y-108866380D02*
X115617619Y-107866380D01*
X115522380Y-108009238D01*
X115427142Y-108104476D01*
X115331904Y-108152095D01*
X116284285Y-107961619D02*
X116331904Y-107914000D01*
X116427142Y-107866380D01*
X116665238Y-107866380D01*
X116760476Y-107914000D01*
X116808095Y-107961619D01*
X116855714Y-108056857D01*
X116855714Y-108152095D01*
X116808095Y-108294952D01*
X116236666Y-108866380D01*
X116855714Y-108866380D01*
%TO.C,U2*%
X162560095Y-112990380D02*
X162560095Y-113799904D01*
X162607714Y-113895142D01*
X162655333Y-113942761D01*
X162750571Y-113990380D01*
X162941047Y-113990380D01*
X163036285Y-113942761D01*
X163083904Y-113895142D01*
X163131523Y-113799904D01*
X163131523Y-112990380D01*
X163560095Y-113085619D02*
X163607714Y-113038000D01*
X163702952Y-112990380D01*
X163941047Y-112990380D01*
X164036285Y-113038000D01*
X164083904Y-113085619D01*
X164131523Y-113180857D01*
X164131523Y-113276095D01*
X164083904Y-113418952D01*
X163512476Y-113990380D01*
X164131523Y-113990380D01*
%TO.C,D11*%
X53141714Y-129992380D02*
X53141714Y-128992380D01*
X53379809Y-128992380D01*
X53522666Y-129040000D01*
X53617904Y-129135238D01*
X53665523Y-129230476D01*
X53713142Y-129420952D01*
X53713142Y-129563809D01*
X53665523Y-129754285D01*
X53617904Y-129849523D01*
X53522666Y-129944761D01*
X53379809Y-129992380D01*
X53141714Y-129992380D01*
X54665523Y-129992380D02*
X54094095Y-129992380D01*
X54379809Y-129992380D02*
X54379809Y-128992380D01*
X54284571Y-129135238D01*
X54189333Y-129230476D01*
X54094095Y-129278095D01*
X55617904Y-129992380D02*
X55046476Y-129992380D01*
X55332190Y-129992380D02*
X55332190Y-128992380D01*
X55236952Y-129135238D01*
X55141714Y-129230476D01*
X55046476Y-129278095D01*
X56634095Y-128242380D02*
X56634095Y-127242380D01*
X57205523Y-128242380D02*
X56776952Y-127670952D01*
X57205523Y-127242380D02*
X56634095Y-127813809D01*
%TO.C,R8*%
X131151333Y-116276380D02*
X130818000Y-115800190D01*
X130579904Y-116276380D02*
X130579904Y-115276380D01*
X130960857Y-115276380D01*
X131056095Y-115324000D01*
X131103714Y-115371619D01*
X131151333Y-115466857D01*
X131151333Y-115609714D01*
X131103714Y-115704952D01*
X131056095Y-115752571D01*
X130960857Y-115800190D01*
X130579904Y-115800190D01*
X131722761Y-115704952D02*
X131627523Y-115657333D01*
X131579904Y-115609714D01*
X131532285Y-115514476D01*
X131532285Y-115466857D01*
X131579904Y-115371619D01*
X131627523Y-115324000D01*
X131722761Y-115276380D01*
X131913238Y-115276380D01*
X132008476Y-115324000D01*
X132056095Y-115371619D01*
X132103714Y-115466857D01*
X132103714Y-115514476D01*
X132056095Y-115609714D01*
X132008476Y-115657333D01*
X131913238Y-115704952D01*
X131722761Y-115704952D01*
X131627523Y-115752571D01*
X131579904Y-115800190D01*
X131532285Y-115895428D01*
X131532285Y-116085904D01*
X131579904Y-116181142D01*
X131627523Y-116228761D01*
X131722761Y-116276380D01*
X131913238Y-116276380D01*
X132008476Y-116228761D01*
X132056095Y-116181142D01*
X132103714Y-116085904D01*
X132103714Y-115895428D01*
X132056095Y-115800190D01*
X132008476Y-115752571D01*
X131913238Y-115704952D01*
%TO.C,D12*%
X75747714Y-129992380D02*
X75747714Y-128992380D01*
X75985809Y-128992380D01*
X76128666Y-129040000D01*
X76223904Y-129135238D01*
X76271523Y-129230476D01*
X76319142Y-129420952D01*
X76319142Y-129563809D01*
X76271523Y-129754285D01*
X76223904Y-129849523D01*
X76128666Y-129944761D01*
X75985809Y-129992380D01*
X75747714Y-129992380D01*
X77271523Y-129992380D02*
X76700095Y-129992380D01*
X76985809Y-129992380D02*
X76985809Y-128992380D01*
X76890571Y-129135238D01*
X76795333Y-129230476D01*
X76700095Y-129278095D01*
X77652476Y-129087619D02*
X77700095Y-129040000D01*
X77795333Y-128992380D01*
X78033428Y-128992380D01*
X78128666Y-129040000D01*
X78176285Y-129087619D01*
X78223904Y-129182857D01*
X78223904Y-129278095D01*
X78176285Y-129420952D01*
X77604857Y-129992380D01*
X78223904Y-129992380D01*
X66286095Y-128242380D02*
X66286095Y-127242380D01*
X66857523Y-128242380D02*
X66428952Y-127670952D01*
X66857523Y-127242380D02*
X66286095Y-127813809D01*
%TO.C,J5*%
X56781380Y-70198333D02*
X57495666Y-70198333D01*
X57638523Y-70245952D01*
X57733761Y-70341190D01*
X57781380Y-70484047D01*
X57781380Y-70579285D01*
X56781380Y-69245952D02*
X56781380Y-69722142D01*
X57257571Y-69769761D01*
X57209952Y-69722142D01*
X57162333Y-69626904D01*
X57162333Y-69388809D01*
X57209952Y-69293571D01*
X57257571Y-69245952D01*
X57352809Y-69198333D01*
X57590904Y-69198333D01*
X57686142Y-69245952D01*
X57733761Y-69293571D01*
X57781380Y-69388809D01*
X57781380Y-69626904D01*
X57733761Y-69722142D01*
X57686142Y-69769761D01*
%TO.C,U8*%
X148844095Y-112990380D02*
X148844095Y-113799904D01*
X148891714Y-113895142D01*
X148939333Y-113942761D01*
X149034571Y-113990380D01*
X149225047Y-113990380D01*
X149320285Y-113942761D01*
X149367904Y-113895142D01*
X149415523Y-113799904D01*
X149415523Y-112990380D01*
X150034571Y-113418952D02*
X149939333Y-113371333D01*
X149891714Y-113323714D01*
X149844095Y-113228476D01*
X149844095Y-113180857D01*
X149891714Y-113085619D01*
X149939333Y-113038000D01*
X150034571Y-112990380D01*
X150225047Y-112990380D01*
X150320285Y-113038000D01*
X150367904Y-113085619D01*
X150415523Y-113180857D01*
X150415523Y-113228476D01*
X150367904Y-113323714D01*
X150320285Y-113371333D01*
X150225047Y-113418952D01*
X150034571Y-113418952D01*
X149939333Y-113466571D01*
X149891714Y-113514190D01*
X149844095Y-113609428D01*
X149844095Y-113799904D01*
X149891714Y-113895142D01*
X149939333Y-113942761D01*
X150034571Y-113990380D01*
X150225047Y-113990380D01*
X150320285Y-113942761D01*
X150367904Y-113895142D01*
X150415523Y-113799904D01*
X150415523Y-113609428D01*
X150367904Y-113514190D01*
X150320285Y-113466571D01*
X150225047Y-113418952D01*
%TO.C,R7*%
X53681333Y-117800380D02*
X53348000Y-117324190D01*
X53109904Y-117800380D02*
X53109904Y-116800380D01*
X53490857Y-116800380D01*
X53586095Y-116848000D01*
X53633714Y-116895619D01*
X53681333Y-116990857D01*
X53681333Y-117133714D01*
X53633714Y-117228952D01*
X53586095Y-117276571D01*
X53490857Y-117324190D01*
X53109904Y-117324190D01*
X54014666Y-116800380D02*
X54681333Y-116800380D01*
X54252761Y-117800380D01*
%TO.C,C1*%
X73661344Y-68733131D02*
X73613725Y-68780750D01*
X73470868Y-68828369D01*
X73375630Y-68828369D01*
X73232772Y-68780750D01*
X73137534Y-68685512D01*
X73089915Y-68590274D01*
X73042296Y-68399798D01*
X73042296Y-68256941D01*
X73089915Y-68066465D01*
X73137534Y-67971227D01*
X73232772Y-67875989D01*
X73375630Y-67828369D01*
X73470868Y-67828369D01*
X73613725Y-67875989D01*
X73661344Y-67923608D01*
X74613725Y-68828369D02*
X74042296Y-68828369D01*
X74328011Y-68828369D02*
X74328011Y-67828369D01*
X74232772Y-67971227D01*
X74137534Y-68066465D01*
X74042296Y-68114084D01*
D12*
%TO.C,BT1*%
X174053500Y-96418400D02*
X174053500Y-99263200D01*
X171310300Y-96418400D02*
X174053500Y-96418400D01*
X171310300Y-104241600D02*
X174053500Y-104241600D01*
X174053500Y-104241600D02*
X174053500Y-101396800D01*
X171970700Y-100330000D02*
G75*
G03*
X171970700Y-100330000I-11226800J0D01*
G01*
D13*
%TO.C,D8*%
X71993000Y-110140000D02*
X71993000Y-108300000D01*
X69409000Y-108300000D02*
X69409000Y-110140000D01*
X71993000Y-108300000D02*
X68713000Y-108300000D01*
X73173000Y-109220000D02*
X71993000Y-109220000D01*
X67533000Y-109220000D02*
X68713000Y-109220000D01*
X68713000Y-110140000D02*
X71993000Y-110140000D01*
X68713000Y-108300000D02*
X68713000Y-110140000D01*
X69169000Y-108300000D02*
X69169000Y-110140000D01*
X69289000Y-108300000D02*
X69289000Y-110140000D01*
%TO.C,C2*%
X72208011Y-59990989D02*
X72208011Y-59925989D01*
X75448011Y-62165989D02*
X72208011Y-62165989D01*
X72208011Y-62165989D02*
X72208011Y-62100989D01*
X75448011Y-59925989D02*
X72208011Y-59925989D01*
X75448011Y-62165989D02*
X75448011Y-62100989D01*
X75448011Y-59990989D02*
X75448011Y-59925989D01*
%TO.C,C16*%
X170626011Y-56527989D02*
X166086011Y-56527989D01*
X170626011Y-54402989D02*
X170626011Y-54387989D01*
X170626011Y-54387989D02*
X166086011Y-54387989D01*
X166086011Y-54402989D02*
X166086011Y-54387989D01*
X166086011Y-56527989D02*
X166086011Y-56512989D01*
X170626011Y-56527989D02*
X170626011Y-56512989D01*
%TO.C,R19*%
X111836000Y-105918000D02*
X110886000Y-105918000D01*
X106096000Y-105918000D02*
X107046000Y-105918000D01*
X107046000Y-104998000D02*
X107046000Y-106838000D01*
X107046000Y-106838000D02*
X110886000Y-106838000D01*
X110886000Y-104998000D02*
X107046000Y-104998000D01*
X110886000Y-106838000D02*
X110886000Y-104998000D01*
%TO.C,D4*%
X71993000Y-118268000D02*
X71993000Y-116428000D01*
X68713000Y-116428000D02*
X68713000Y-118268000D01*
X73173000Y-117348000D02*
X71993000Y-117348000D01*
X68713000Y-118268000D02*
X71993000Y-118268000D01*
X67533000Y-117348000D02*
X68713000Y-117348000D01*
X69409000Y-116428000D02*
X69409000Y-118268000D01*
X69169000Y-116428000D02*
X69169000Y-118268000D01*
X69289000Y-116428000D02*
X69289000Y-118268000D01*
X71993000Y-116428000D02*
X68713000Y-116428000D01*
%TO.C,R13*%
X62626000Y-110332000D02*
X58786000Y-110332000D01*
X62626000Y-112172000D02*
X62626000Y-110332000D01*
X58786000Y-110332000D02*
X58786000Y-112172000D01*
X63576000Y-111252000D02*
X62626000Y-111252000D01*
X57836000Y-111252000D02*
X58786000Y-111252000D01*
X58786000Y-112172000D02*
X62626000Y-112172000D01*
%TO.C,U7*%
X76826011Y-75125989D02*
X87106011Y-75125989D01*
X80966011Y-57165989D02*
X79316011Y-57165989D01*
X87106011Y-57105989D02*
X76826011Y-57105989D01*
X79316011Y-57165989D02*
X79316011Y-75065989D01*
X84616011Y-57165989D02*
X82966011Y-57165989D01*
X76826011Y-57105989D02*
X76826011Y-75125989D01*
X84616011Y-75065989D02*
X84616011Y-57165989D01*
X79316011Y-75065989D02*
X84616011Y-75065989D01*
X87106011Y-75125989D02*
X87106011Y-57105989D01*
X80966011Y-57165989D02*
G75*
G03*
X82966011Y-57165989I1000000J0D01*
G01*
%TO.C,R5*%
X62626000Y-120492000D02*
X58786000Y-120492000D01*
X58786000Y-122332000D02*
X62626000Y-122332000D01*
X58786000Y-120492000D02*
X58786000Y-122332000D01*
X63576000Y-121412000D02*
X62626000Y-121412000D01*
X57836000Y-121412000D02*
X58786000Y-121412000D01*
X62626000Y-122332000D02*
X62626000Y-120492000D01*
%TO.C,D10*%
X69169000Y-126588000D02*
X69169000Y-128428000D01*
X68713000Y-126588000D02*
X68713000Y-128428000D01*
X71993000Y-126588000D02*
X68713000Y-126588000D01*
X73173000Y-127508000D02*
X71993000Y-127508000D01*
X69289000Y-126588000D02*
X69289000Y-128428000D01*
X69409000Y-126588000D02*
X69409000Y-128428000D01*
X71993000Y-128428000D02*
X71993000Y-126588000D01*
X67533000Y-127508000D02*
X68713000Y-127508000D01*
X68713000Y-128428000D02*
X71993000Y-128428000D01*
%TO.C,R2*%
X135494000Y-112364000D02*
X135494000Y-114204000D01*
X134544000Y-113284000D02*
X135494000Y-113284000D01*
X139334000Y-112364000D02*
X135494000Y-112364000D01*
X135494000Y-114204000D02*
X139334000Y-114204000D01*
X139334000Y-114204000D02*
X139334000Y-112364000D01*
X140284000Y-113284000D02*
X139334000Y-113284000D01*
%TO.C,R16*%
X83154000Y-78852000D02*
X83154000Y-82692000D01*
X83154000Y-82692000D02*
X84994000Y-82692000D01*
X84994000Y-82692000D02*
X84994000Y-78852000D01*
X84074000Y-77902000D02*
X84074000Y-78852000D01*
X84074000Y-83642000D02*
X84074000Y-82692000D01*
X84994000Y-78852000D02*
X83154000Y-78852000D01*
%TO.C,U1*%
X166046011Y-56921989D02*
X164796011Y-56921989D01*
X169296011Y-56921989D02*
X168046011Y-56921989D01*
X164796011Y-56921989D02*
X164796011Y-82441989D01*
X164796011Y-82441989D02*
X169296011Y-82441989D01*
X169296011Y-82441989D02*
X169296011Y-56921989D01*
X166046011Y-56921989D02*
G75*
G03*
X168046011Y-56921989I1000000J0D01*
G01*
%TO.C,C4*%
X88464011Y-72625989D02*
X91704011Y-72625989D01*
X91704011Y-74800989D02*
X91704011Y-74865989D01*
X88464011Y-74800989D02*
X88464011Y-74865989D01*
X88464011Y-74865989D02*
X91704011Y-74865989D01*
X91704011Y-72625989D02*
X91704011Y-72690989D01*
X88464011Y-72625989D02*
X88464011Y-72690989D01*
%TO.C,C14*%
X179802011Y-54402989D02*
X179802011Y-54387989D01*
X184342011Y-56527989D02*
X184342011Y-56512989D01*
X184342011Y-54402989D02*
X184342011Y-54387989D01*
X184342011Y-56527989D02*
X179802011Y-56527989D01*
X184342011Y-54387989D02*
X179802011Y-54387989D01*
X179802011Y-56527989D02*
X179802011Y-56512989D01*
%TO.C,R9*%
X135408011Y-117275989D02*
X135408011Y-119115989D01*
X140198011Y-118195989D02*
X139248011Y-118195989D01*
X139248011Y-117275989D02*
X135408011Y-117275989D01*
X139248011Y-119115989D02*
X139248011Y-117275989D01*
X135408011Y-119115989D02*
X139248011Y-119115989D01*
X134458011Y-118195989D02*
X135408011Y-118195989D01*
%TO.C,C7*%
X166046011Y-112060989D02*
X166046011Y-112045989D01*
X170586011Y-112060989D02*
X170586011Y-112045989D01*
X170586011Y-114185989D02*
X170586011Y-114170989D01*
X170586011Y-114185989D02*
X166046011Y-114185989D01*
X166046011Y-114185989D02*
X166046011Y-114170989D01*
X170586011Y-112045989D02*
X166046011Y-112045989D01*
%TO.C,Q1*%
X58398000Y-84908000D02*
X61998000Y-84908000D01*
X62036478Y-84896478D02*
G75*
G03*
X60198000Y-80458000I-1838478J1838478D01*
G01*
X60198000Y-80457999D02*
G75*
G03*
X58359522Y-84896478I0J-2600001D01*
G01*
%TO.C,U6*%
X144754011Y-97477989D02*
X144754011Y-84557989D01*
X93834011Y-84557989D02*
X93834011Y-90017989D01*
X93834011Y-97477989D02*
X144754011Y-97477989D01*
X93834011Y-92017989D02*
X93834011Y-97477989D01*
X144754011Y-84557989D02*
X93834011Y-84557989D01*
X93834011Y-92017989D02*
G75*
G03*
X93834011Y-90017989I0J1000000D01*
G01*
%TO.C,R10*%
X58786000Y-108300000D02*
X58786000Y-110140000D01*
X63576000Y-109220000D02*
X62626000Y-109220000D01*
X62626000Y-108300000D02*
X58786000Y-108300000D01*
X62626000Y-110140000D02*
X62626000Y-108300000D01*
X57836000Y-109220000D02*
X58786000Y-109220000D01*
X58786000Y-110140000D02*
X62626000Y-110140000D01*
%TO.C,R18*%
X95870000Y-112872000D02*
X95870000Y-114712000D01*
X100660000Y-113792000D02*
X99710000Y-113792000D01*
X99710000Y-112872000D02*
X95870000Y-112872000D01*
X95870000Y-114712000D02*
X99710000Y-114712000D01*
X94920000Y-113792000D02*
X95870000Y-113792000D01*
X99710000Y-114712000D02*
X99710000Y-112872000D01*
%TO.C,R4*%
X62626000Y-122524000D02*
X58786000Y-122524000D01*
X63576000Y-123444000D02*
X62626000Y-123444000D01*
X57836000Y-123444000D02*
X58786000Y-123444000D01*
X58786000Y-124364000D02*
X62626000Y-124364000D01*
X62626000Y-124364000D02*
X62626000Y-122524000D01*
X58786000Y-122524000D02*
X58786000Y-124364000D01*
%TO.C,J1*%
X159486011Y-69990989D02*
X158156011Y-69990989D01*
X156886011Y-67390989D02*
X156886011Y-69990989D01*
X159486011Y-68660989D02*
X159486011Y-69990989D01*
X159486011Y-67390989D02*
X156886011Y-67390989D01*
X159486011Y-57170989D02*
X154286011Y-57170989D01*
X156886011Y-69990989D02*
X154286011Y-69990989D01*
X159486011Y-67390989D02*
X159486011Y-57170989D01*
X154286011Y-69990989D02*
X154286011Y-57170989D01*
%TO.C,J3*%
X136755011Y-123778989D02*
X136755011Y-126378989D01*
X139355011Y-123778989D02*
X139355011Y-121178989D01*
X141955011Y-121178989D02*
X141955011Y-126378989D01*
X136755011Y-122508989D02*
X136755011Y-121178989D01*
X136755011Y-121178989D02*
X138085011Y-121178989D01*
X136755011Y-123778989D02*
X139355011Y-123778989D01*
X136755011Y-126378989D02*
X141955011Y-126378989D01*
X139355011Y-121178989D02*
X141955011Y-121178989D01*
%TO.C,R1*%
X77216000Y-77902000D02*
X77216000Y-78852000D01*
X78136000Y-78852000D02*
X76296000Y-78852000D01*
X76296000Y-82692000D02*
X78136000Y-82692000D01*
X76296000Y-78852000D02*
X76296000Y-82692000D01*
X77216000Y-83642000D02*
X77216000Y-82692000D01*
X78136000Y-82692000D02*
X78136000Y-78852000D01*
%TO.C,D3*%
X68713000Y-118460000D02*
X68713000Y-120300000D01*
X67533000Y-119380000D02*
X68713000Y-119380000D01*
X69409000Y-118460000D02*
X69409000Y-120300000D01*
X69169000Y-118460000D02*
X69169000Y-120300000D01*
X71993000Y-120300000D02*
X71993000Y-118460000D01*
X73173000Y-119380000D02*
X71993000Y-119380000D01*
X69289000Y-118460000D02*
X69289000Y-120300000D01*
X71993000Y-118460000D02*
X68713000Y-118460000D01*
X68713000Y-120300000D02*
X71993000Y-120300000D01*
%TO.C,U11*%
X100294000Y-140014000D02*
X100294000Y-119574000D01*
X100294000Y-119574000D02*
X99044000Y-119574000D01*
X97044000Y-119574000D02*
X95794000Y-119574000D01*
X95794000Y-119574000D02*
X95794000Y-140014000D01*
X95794000Y-140014000D02*
X100294000Y-140014000D01*
X97044000Y-119574000D02*
G75*
G03*
X99044000Y-119574000I1000000J0D01*
G01*
%TO.C,R3*%
X124024011Y-106653989D02*
X124024011Y-102813989D01*
X123104011Y-101863989D02*
X123104011Y-102813989D01*
X122184011Y-102813989D02*
X122184011Y-106653989D01*
X122184011Y-106653989D02*
X124024011Y-106653989D01*
X124024011Y-102813989D02*
X122184011Y-102813989D01*
X123104011Y-107603989D02*
X123104011Y-106653989D01*
%TO.C,C3*%
X75448011Y-72325989D02*
X75448011Y-72260989D01*
X72208011Y-70150989D02*
X72208011Y-70085989D01*
X75448011Y-72325989D02*
X72208011Y-72325989D01*
X75448011Y-70150989D02*
X75448011Y-70085989D01*
X75448011Y-70085989D02*
X72208011Y-70085989D01*
X72208011Y-72325989D02*
X72208011Y-72260989D01*
%TO.C,D2*%
X68713000Y-120492000D02*
X68713000Y-122332000D01*
X68713000Y-122332000D02*
X71993000Y-122332000D01*
X69409000Y-120492000D02*
X69409000Y-122332000D01*
X73173000Y-121412000D02*
X71993000Y-121412000D01*
X69169000Y-120492000D02*
X69169000Y-122332000D01*
X69289000Y-120492000D02*
X69289000Y-122332000D01*
X67533000Y-121412000D02*
X68713000Y-121412000D01*
X71993000Y-120492000D02*
X68713000Y-120492000D01*
X71993000Y-122332000D02*
X71993000Y-120492000D01*
%TO.C,R6*%
X58786000Y-118460000D02*
X58786000Y-120300000D01*
X62626000Y-120300000D02*
X62626000Y-118460000D01*
X58786000Y-120300000D02*
X62626000Y-120300000D01*
X62626000Y-118460000D02*
X58786000Y-118460000D01*
X63576000Y-119380000D02*
X62626000Y-119380000D01*
X57836000Y-119380000D02*
X58786000Y-119380000D01*
%TO.C,U3*%
X183012011Y-111397989D02*
X183012011Y-85877989D01*
X178512011Y-111397989D02*
X183012011Y-111397989D01*
X183012011Y-85877989D02*
X181762011Y-85877989D01*
X179762011Y-85877989D02*
X178512011Y-85877989D01*
X178512011Y-85877989D02*
X178512011Y-111397989D01*
X179762011Y-85877989D02*
G75*
G03*
X181762011Y-85877989I1000000J0D01*
G01*
%TO.C,D5*%
X71993000Y-114396000D02*
X68713000Y-114396000D01*
X69169000Y-114396000D02*
X69169000Y-116236000D01*
X68713000Y-116236000D02*
X71993000Y-116236000D01*
X71993000Y-116236000D02*
X71993000Y-114396000D01*
X68713000Y-114396000D02*
X68713000Y-116236000D01*
X69409000Y-114396000D02*
X69409000Y-116236000D01*
X73173000Y-115316000D02*
X71993000Y-115316000D01*
X67533000Y-115316000D02*
X68713000Y-115316000D01*
X69289000Y-114396000D02*
X69289000Y-116236000D01*
%TO.C,RN1*%
X150152011Y-79996989D02*
X152952011Y-79996989D01*
X152952011Y-79996989D02*
X152952011Y-56796989D01*
X150152011Y-56796989D02*
X150152011Y-79996989D01*
X152952011Y-59506989D02*
X150152011Y-59506989D01*
X152952011Y-56796989D02*
X150152011Y-56796989D01*
%TO.C,U10*%
X136456011Y-140109989D02*
X141756011Y-140109989D01*
X141756011Y-140109989D02*
X141756011Y-129829989D01*
X136456011Y-129829989D02*
X136456011Y-140109989D01*
X138106011Y-129829989D02*
X136456011Y-129829989D01*
X141756011Y-129829989D02*
X140106011Y-129829989D01*
X138106011Y-129829989D02*
G75*
G03*
X140106011Y-129829989I1000000J0D01*
G01*
%TO.C,J6*%
X56329000Y-76529000D02*
X56329000Y-74529000D01*
X56329000Y-88529000D02*
X50629000Y-88529000D01*
X43429000Y-88529000D02*
X47229000Y-88529000D01*
X43429000Y-74529000D02*
X47229000Y-74529000D01*
X56329000Y-74529000D02*
X50629000Y-74529000D01*
X56329000Y-76529000D02*
X56329000Y-88529000D01*
X43429000Y-81529000D02*
X43429000Y-74529000D01*
X43429000Y-81529000D02*
X43429000Y-88529000D01*
%TO.C,D1*%
X69289000Y-122524000D02*
X69289000Y-124364000D01*
X71993000Y-124364000D02*
X71993000Y-122524000D01*
X69409000Y-122524000D02*
X69409000Y-124364000D01*
X73173000Y-123444000D02*
X71993000Y-123444000D01*
X67533000Y-123444000D02*
X68713000Y-123444000D01*
X71993000Y-122524000D02*
X68713000Y-122524000D01*
X69169000Y-122524000D02*
X69169000Y-124364000D01*
X68713000Y-122524000D02*
X68713000Y-124364000D01*
X68713000Y-124364000D02*
X71993000Y-124364000D01*
%TO.C,R17*%
X86106000Y-77902000D02*
X86106000Y-78852000D01*
X87026000Y-82692000D02*
X87026000Y-78852000D01*
X85186000Y-82692000D02*
X87026000Y-82692000D01*
X86106000Y-83642000D02*
X86106000Y-82692000D01*
X85186000Y-78852000D02*
X85186000Y-82692000D01*
X87026000Y-78852000D02*
X85186000Y-78852000D01*
%TO.C,U4*%
X183012011Y-82441989D02*
X183012011Y-56921989D01*
X178512011Y-82441989D02*
X183012011Y-82441989D01*
X178512011Y-56921989D02*
X178512011Y-82441989D01*
X179762011Y-56921989D02*
X178512011Y-56921989D01*
X183012011Y-56921989D02*
X181762011Y-56921989D01*
X179762011Y-56921989D02*
G75*
G03*
X181762011Y-56921989I1000000J0D01*
G01*
%TO.C,J9*%
X86295000Y-127264000D02*
X88895000Y-127264000D01*
X88895000Y-127264000D02*
X88895000Y-124664000D01*
X88895000Y-124664000D02*
X91495000Y-124664000D01*
X86295000Y-125994000D02*
X86295000Y-124664000D01*
X86295000Y-134944000D02*
X91495000Y-134944000D01*
X86295000Y-124664000D02*
X87625000Y-124664000D01*
X86295000Y-127264000D02*
X86295000Y-134944000D01*
X91495000Y-124664000D02*
X91495000Y-134944000D01*
%TO.C,D9*%
X59757000Y-126588000D02*
X59757000Y-128428000D01*
X62341000Y-128428000D02*
X62341000Y-126588000D01*
X63521000Y-127508000D02*
X62341000Y-127508000D01*
X62341000Y-126588000D02*
X59061000Y-126588000D01*
X57881000Y-127508000D02*
X59061000Y-127508000D01*
X59061000Y-128428000D02*
X62341000Y-128428000D01*
X59517000Y-126588000D02*
X59517000Y-128428000D01*
X59061000Y-126588000D02*
X59061000Y-128428000D01*
X59637000Y-126588000D02*
X59637000Y-128428000D01*
D12*
%TO.C,LS1*%
X64058000Y-96774000D02*
G75*
G03*
X64058000Y-96774000I-6400000J0D01*
G01*
D13*
%TO.C,Y1*%
X128570011Y-134057989D02*
X127900011Y-132657989D01*
X127900011Y-132657989D02*
X127900011Y-131957989D01*
X127470011Y-144957989D02*
X130870011Y-144957989D01*
X127470011Y-134057989D02*
X127470011Y-144957989D01*
X130870011Y-144957989D02*
X130870011Y-134057989D01*
X129770011Y-134057989D02*
X130440011Y-132657989D01*
X130440011Y-132657989D02*
X130440011Y-131957989D01*
X130870011Y-134057989D02*
X127470011Y-134057989D01*
%TO.C,U9*%
X93834011Y-72160989D02*
X144754011Y-72160989D01*
X144754011Y-60040989D02*
X93834011Y-60040989D01*
X93834011Y-60040989D02*
X93834011Y-65100989D01*
X144754011Y-72160989D02*
X144754011Y-60040989D01*
X93834011Y-67100989D02*
X93834011Y-72160989D01*
X93834011Y-67100989D02*
G75*
G03*
X93834011Y-65100989I0J1000000D01*
G01*
%TO.C,C5*%
X112760000Y-109020000D02*
X108220000Y-109020000D01*
X112760000Y-106895000D02*
X112760000Y-106880000D01*
X112760000Y-109020000D02*
X112760000Y-109005000D01*
X112760000Y-106880000D02*
X108220000Y-106880000D01*
X108220000Y-106895000D02*
X108220000Y-106880000D01*
X108220000Y-109020000D02*
X108220000Y-109005000D01*
%TO.C,U5*%
X183012011Y-114574989D02*
X181762011Y-114574989D01*
X183012011Y-140094989D02*
X183012011Y-114574989D01*
X178512011Y-114574989D02*
X178512011Y-140094989D01*
X179762011Y-114574989D02*
X178512011Y-114574989D01*
X178512011Y-140094989D02*
X183012011Y-140094989D01*
X179762011Y-114574989D02*
G75*
G03*
X181762011Y-114574989I1000000J0D01*
G01*
%TO.C,D7*%
X71993000Y-110332000D02*
X68713000Y-110332000D01*
X71993000Y-112172000D02*
X71993000Y-110332000D01*
X68713000Y-110332000D02*
X68713000Y-112172000D01*
X67533000Y-111252000D02*
X68713000Y-111252000D01*
X69409000Y-110332000D02*
X69409000Y-112172000D01*
X69289000Y-110332000D02*
X69289000Y-112172000D01*
X68713000Y-112172000D02*
X71993000Y-112172000D01*
X73173000Y-111252000D02*
X71993000Y-111252000D01*
X69169000Y-110332000D02*
X69169000Y-112172000D01*
%TO.C,J2*%
X198746000Y-92942000D02*
X198746000Y-94003000D01*
X197866000Y-58087000D02*
X198166000Y-57487000D01*
X198746000Y-70082000D02*
X198746000Y-71143000D01*
X203166000Y-51292000D02*
X197746000Y-51292000D01*
X198746000Y-105642000D02*
X198746000Y-106703000D01*
X198746000Y-103102000D02*
X198746000Y-104163000D01*
X198746000Y-113262000D02*
X198746000Y-114323000D01*
X198746000Y-98022000D02*
X198746000Y-99083000D01*
X198746000Y-65002000D02*
X198746000Y-66063000D01*
X198746000Y-75162000D02*
X198746000Y-76223000D01*
X198746000Y-138662000D02*
X198746000Y-140292000D01*
X198746000Y-87862000D02*
X198746000Y-88923000D01*
X198746000Y-120882000D02*
X198746000Y-121943000D01*
X198746000Y-123422000D02*
X198746000Y-124483000D01*
X197746000Y-145812000D02*
X197746000Y-140292000D01*
X198746000Y-82782000D02*
X198746000Y-83843000D01*
X198746000Y-85322000D02*
X198746000Y-86383000D01*
X198746000Y-118342000D02*
X198746000Y-119403000D01*
X197746000Y-51292000D02*
X197746000Y-56812000D01*
X197746000Y-56812000D02*
X198746000Y-56812000D01*
X198746000Y-131042000D02*
X198746000Y-132103000D01*
X198746000Y-80242000D02*
X198746000Y-81303000D01*
X198746000Y-108182000D02*
X198746000Y-109243000D01*
X198746000Y-62462000D02*
X198746000Y-63523000D01*
X203166000Y-145812000D02*
X197746000Y-145812000D01*
X198746000Y-90402000D02*
X198746000Y-91463000D01*
X198746000Y-136122000D02*
X198746000Y-137183000D01*
X198746000Y-133582000D02*
X198746000Y-134643000D01*
X198746000Y-95482000D02*
X198746000Y-96543000D01*
X197746000Y-140292000D02*
X198746000Y-140292000D01*
X198746000Y-100562000D02*
X198746000Y-101623000D01*
X198746000Y-110722000D02*
X198746000Y-111783000D01*
X198746000Y-72622000D02*
X198746000Y-73683000D01*
X198746000Y-56811000D02*
X198746000Y-58087000D01*
X198746000Y-60277000D02*
X198746000Y-60983000D01*
X198746000Y-67542000D02*
X198746000Y-68603000D01*
X198746000Y-115802000D02*
X198746000Y-116863000D01*
X197566000Y-57487000D02*
X197866000Y-58087000D01*
X198746000Y-128502000D02*
X198746000Y-129563000D01*
X198166000Y-57487000D02*
X197566000Y-57487000D01*
X198746000Y-77702000D02*
X198746000Y-78763000D01*
X198746000Y-125962000D02*
X198746000Y-127023000D01*
%TO.C,D6*%
X68713000Y-114204000D02*
X71993000Y-114204000D01*
X69409000Y-112364000D02*
X69409000Y-114204000D01*
X67533000Y-113284000D02*
X68713000Y-113284000D01*
X68713000Y-112364000D02*
X68713000Y-114204000D01*
X71993000Y-112364000D02*
X68713000Y-112364000D01*
X69169000Y-112364000D02*
X69169000Y-114204000D01*
X73173000Y-113284000D02*
X71993000Y-113284000D01*
X69289000Y-112364000D02*
X69289000Y-114204000D01*
X71993000Y-114204000D02*
X71993000Y-112364000D01*
%TO.C,D13*%
X68713000Y-126396000D02*
X71993000Y-126396000D01*
X68713000Y-124556000D02*
X68713000Y-126396000D01*
X69289000Y-124556000D02*
X69289000Y-126396000D01*
X69169000Y-124556000D02*
X69169000Y-126396000D01*
X67533000Y-125476000D02*
X68713000Y-125476000D01*
X73173000Y-125476000D02*
X71993000Y-125476000D01*
X69409000Y-124556000D02*
X69409000Y-126396000D01*
X71993000Y-126396000D02*
X71993000Y-124556000D01*
X71993000Y-124556000D02*
X68713000Y-124556000D01*
%TO.C,C15*%
X105554011Y-75469989D02*
X110094011Y-75469989D01*
X105554011Y-77609989D02*
X110094011Y-77609989D01*
X110094011Y-77594989D02*
X110094011Y-77609989D01*
X105554011Y-77594989D02*
X105554011Y-77609989D01*
X110094011Y-75469989D02*
X110094011Y-75484989D01*
X105554011Y-75469989D02*
X105554011Y-75484989D01*
%TO.C,R20*%
X95870000Y-116744000D02*
X99710000Y-116744000D01*
X94920000Y-115824000D02*
X95870000Y-115824000D01*
X100660000Y-115824000D02*
X99710000Y-115824000D01*
X95870000Y-114904000D02*
X95870000Y-116744000D01*
X99710000Y-116744000D02*
X99710000Y-114904000D01*
X99710000Y-114904000D02*
X95870000Y-114904000D01*
%TO.C,J8*%
X135880000Y-106869000D02*
X135880000Y-109469000D01*
X137150000Y-106869000D02*
X138480000Y-106869000D01*
X138480000Y-112069000D02*
X128200000Y-112069000D01*
X138480000Y-106869000D02*
X138480000Y-108199000D01*
X135880000Y-109469000D02*
X138480000Y-109469000D01*
X138480000Y-109469000D02*
X138480000Y-112069000D01*
X128200000Y-106869000D02*
X128200000Y-112069000D01*
X135880000Y-106869000D02*
X128200000Y-106869000D01*
%TO.C,C10*%
X184302011Y-114185989D02*
X184302011Y-114170989D01*
X184302011Y-112045989D02*
X179762011Y-112045989D01*
X179762011Y-112060989D02*
X179762011Y-112045989D01*
X184302011Y-112060989D02*
X184302011Y-112045989D01*
X184302011Y-114185989D02*
X179762011Y-114185989D01*
X179762011Y-114185989D02*
X179762011Y-114170989D01*
%TO.C,C11*%
X130994011Y-80041989D02*
X135534011Y-80041989D01*
X135534011Y-80041989D02*
X135534011Y-80056989D01*
X135534011Y-82166989D02*
X135534011Y-82181989D01*
X130994011Y-80041989D02*
X130994011Y-80056989D01*
X130994011Y-82181989D02*
X135534011Y-82181989D01*
X130994011Y-82166989D02*
X130994011Y-82181989D01*
%TO.C,J7*%
X118170000Y-144840000D02*
X118170000Y-142180000D01*
X112970000Y-144840000D02*
X112970000Y-143510000D01*
X115570000Y-142180000D02*
X118170000Y-142180000D01*
X114300000Y-144840000D02*
X112970000Y-144840000D01*
X115570000Y-144840000D02*
X115570000Y-142180000D01*
X115570000Y-144840000D02*
X118170000Y-144840000D01*
%TO.C,C13*%
X156996000Y-114354000D02*
X156996000Y-114339000D01*
X156996000Y-114354000D02*
X152456000Y-114354000D01*
X156996000Y-112214000D02*
X152456000Y-112214000D01*
X156996000Y-112229000D02*
X156996000Y-112214000D01*
X152456000Y-114354000D02*
X152456000Y-114339000D01*
X152456000Y-112229000D02*
X152456000Y-112214000D01*
%TO.C,C6*%
X101330000Y-117040000D02*
X96790000Y-117040000D01*
X96790000Y-119180000D02*
X96790000Y-119165000D01*
X101330000Y-119180000D02*
X96790000Y-119180000D01*
X96790000Y-117055000D02*
X96790000Y-117040000D01*
X101330000Y-119180000D02*
X101330000Y-119165000D01*
X101330000Y-117055000D02*
X101330000Y-117040000D01*
%TO.C,C9*%
X142646011Y-127285989D02*
X138106011Y-127285989D01*
X138106011Y-127300989D02*
X138106011Y-127285989D01*
X142646011Y-127300989D02*
X142646011Y-127285989D01*
X142646011Y-129425989D02*
X138106011Y-129425989D01*
X138106011Y-129425989D02*
X138106011Y-129410989D01*
X142646011Y-129425989D02*
X142646011Y-129410989D01*
%TO.C,R14*%
X80930000Y-78852000D02*
X79090000Y-78852000D01*
X80930000Y-82692000D02*
X80930000Y-78852000D01*
X79090000Y-82692000D02*
X80930000Y-82692000D01*
X80010000Y-83642000D02*
X80010000Y-82692000D01*
X80010000Y-77902000D02*
X80010000Y-78852000D01*
X79090000Y-78852000D02*
X79090000Y-82692000D01*
%TO.C,R12*%
X58786000Y-112364000D02*
X58786000Y-114204000D01*
X62626000Y-114204000D02*
X62626000Y-112364000D01*
X58786000Y-114204000D02*
X62626000Y-114204000D01*
X57836000Y-113284000D02*
X58786000Y-113284000D01*
X63576000Y-113284000D02*
X62626000Y-113284000D01*
X62626000Y-112364000D02*
X58786000Y-112364000D01*
%TO.C,C8*%
X80996011Y-54656989D02*
X80996011Y-54641989D01*
X85536011Y-54641989D02*
X80996011Y-54641989D01*
X85536011Y-54656989D02*
X85536011Y-54641989D01*
X85536011Y-56781989D02*
X85536011Y-56766989D01*
X80996011Y-56781989D02*
X80996011Y-56766989D01*
X85536011Y-56781989D02*
X80996011Y-56781989D01*
%TO.C,C12*%
X184342011Y-83343989D02*
X179802011Y-83343989D01*
X184342011Y-83358989D02*
X184342011Y-83343989D01*
X184342011Y-85483989D02*
X179802011Y-85483989D01*
X179802011Y-85483989D02*
X179802011Y-85468989D01*
X179802011Y-83358989D02*
X179802011Y-83343989D01*
X184342011Y-85483989D02*
X184342011Y-85468989D01*
%TO.C,R15*%
X82962000Y-82692000D02*
X82962000Y-78852000D01*
X81122000Y-78852000D02*
X81122000Y-82692000D01*
X82962000Y-78852000D02*
X81122000Y-78852000D01*
X82042000Y-83642000D02*
X82042000Y-82692000D01*
X82042000Y-77902000D02*
X82042000Y-78852000D01*
X81122000Y-82692000D02*
X82962000Y-82692000D01*
%TO.C,J4*%
X36942000Y-122932000D02*
X36942000Y-104652000D01*
X36942000Y-104652000D02*
X33382000Y-104022000D01*
X50762000Y-120142000D02*
X51762000Y-120642000D01*
X50372000Y-96362000D02*
X50372000Y-131222000D01*
X51762000Y-119642000D02*
X50762000Y-120142000D01*
X33382000Y-127752000D02*
X33382000Y-123562000D01*
X33382000Y-99832000D02*
X43042000Y-96362000D01*
X43042000Y-131222000D02*
X33382000Y-127752000D01*
X50372000Y-131222000D02*
X43042000Y-131222000D01*
X33382000Y-104022000D02*
X33382000Y-99832000D01*
X33382000Y-123562000D02*
X36942000Y-122932000D01*
X43042000Y-96362000D02*
X50372000Y-96362000D01*
X51762000Y-120642000D02*
X51762000Y-119642000D01*
%TO.C,R11*%
X58786000Y-116236000D02*
X62626000Y-116236000D01*
X58786000Y-114396000D02*
X58786000Y-116236000D01*
X62626000Y-114396000D02*
X58786000Y-114396000D01*
X63576000Y-115316000D02*
X62626000Y-115316000D01*
X62626000Y-116236000D02*
X62626000Y-114396000D01*
X57836000Y-115316000D02*
X58786000Y-115316000D01*
%TO.C,U12*%
X121630000Y-140014000D02*
X121630000Y-109414000D01*
X114570000Y-109414000D02*
X109510000Y-109414000D01*
X109510000Y-140014000D02*
X121630000Y-140014000D01*
X109510000Y-109414000D02*
X109510000Y-140014000D01*
X121630000Y-109414000D02*
X116570000Y-109414000D01*
X114570000Y-109414000D02*
G75*
G03*
X116570000Y-109414000I1000000J0D01*
G01*
%TO.C,U2*%
X169296011Y-114574989D02*
X168046011Y-114574989D01*
X166046011Y-114574989D02*
X164796011Y-114574989D01*
X164796011Y-140094989D02*
X169296011Y-140094989D01*
X164796011Y-114574989D02*
X164796011Y-140094989D01*
X169296011Y-140094989D02*
X169296011Y-114574989D01*
X166046011Y-114574989D02*
G75*
G03*
X168046011Y-114574989I1000000J0D01*
G01*
%TO.C,D11*%
X63526000Y-129540000D02*
X62346000Y-129540000D01*
X59522000Y-128620000D02*
X59522000Y-130460000D01*
X57886000Y-129540000D02*
X59066000Y-129540000D01*
X59762000Y-128620000D02*
X59762000Y-130460000D01*
X59066000Y-128620000D02*
X59066000Y-130460000D01*
X62346000Y-128620000D02*
X59066000Y-128620000D01*
X62346000Y-130460000D02*
X62346000Y-128620000D01*
X59642000Y-128620000D02*
X59642000Y-130460000D01*
X59066000Y-130460000D02*
X62346000Y-130460000D01*
%TO.C,R8*%
X140198011Y-115655989D02*
X139248011Y-115655989D01*
X135408011Y-116575989D02*
X139248011Y-116575989D01*
X135408011Y-114735989D02*
X135408011Y-116575989D01*
X134458011Y-115655989D02*
X135408011Y-115655989D01*
X139248011Y-116575989D02*
X139248011Y-114735989D01*
X139248011Y-114735989D02*
X135408011Y-114735989D01*
%TO.C,D12*%
X69414000Y-128620000D02*
X69414000Y-130460000D01*
X67538000Y-129540000D02*
X68718000Y-129540000D01*
X69294000Y-128620000D02*
X69294000Y-130460000D01*
X71998000Y-128620000D02*
X68718000Y-128620000D01*
X69174000Y-128620000D02*
X69174000Y-130460000D01*
X68718000Y-130460000D02*
X71998000Y-130460000D01*
X71998000Y-130460000D02*
X71998000Y-128620000D01*
X68718000Y-128620000D02*
X68718000Y-130460000D01*
X73178000Y-129540000D02*
X71998000Y-129540000D01*
%TO.C,J5*%
X56329000Y-57765000D02*
X50629000Y-57765000D01*
X56329000Y-59765000D02*
X56329000Y-57765000D01*
X43429000Y-64765000D02*
X43429000Y-57765000D01*
X43429000Y-57765000D02*
X47229000Y-57765000D01*
X56329000Y-59765000D02*
X56329000Y-71765000D01*
X56329000Y-71765000D02*
X50629000Y-71765000D01*
X43429000Y-71765000D02*
X47229000Y-71765000D01*
X43429000Y-64765000D02*
X43429000Y-71765000D01*
%TO.C,U8*%
X152330011Y-114574989D02*
X151080011Y-114574989D01*
X155580011Y-114574989D02*
X154330011Y-114574989D01*
X151080011Y-114574989D02*
X151080011Y-140094989D01*
X155580011Y-140094989D02*
X155580011Y-114574989D01*
X151080011Y-140094989D02*
X155580011Y-140094989D01*
X152330011Y-114574989D02*
G75*
G03*
X154330011Y-114574989I1000000J0D01*
G01*
%TO.C,R7*%
X58786000Y-118268000D02*
X62626000Y-118268000D01*
X62626000Y-118268000D02*
X62626000Y-116428000D01*
X63576000Y-117348000D02*
X62626000Y-117348000D01*
X62626000Y-116428000D02*
X58786000Y-116428000D01*
X57836000Y-117348000D02*
X58786000Y-117348000D01*
X58786000Y-116428000D02*
X58786000Y-118268000D01*
%TO.C,C1*%
X75448011Y-67245989D02*
X72208011Y-67245989D01*
X72208011Y-65070989D02*
X72208011Y-65005989D01*
X75448011Y-65005989D02*
X72208011Y-65005989D01*
X75448011Y-65070989D02*
X75448011Y-65005989D01*
X72208011Y-67245989D02*
X72208011Y-67180989D01*
X75448011Y-67245989D02*
X75448011Y-67180989D01*
%TD*%
M02*
