%TF.GenerationSoftware,KiCad,Pcbnew,7.0.5*%
%TF.CreationDate,2023-12-07T16:07:00+01:00*%
%TF.ProjectId,Z80-Backplane,5a38302d-4261-4636-9b70-6c616e652e6b,rev?*%
%TF.SameCoordinates,Original*%
%TF.FileFunction,Drillmap*%
%TF.FilePolarity,Positive*%
%FSLAX45Y45*%
G04 Gerber Fmt 4.5, Leading zero omitted, Abs format (unit mm)*
G04 Created by KiCad (PCBNEW 7.0.5) date 2023-12-07 16:07:00*
%MOMM*%
%LPD*%
G01*
G04 APERTURE LIST*
%ADD10C,0.100000*%
%ADD11C,0.200000*%
%ADD12C,0.285000*%
G04 APERTURE END LIST*
D10*
X22800000Y-4740000D02*
X22800000Y-17520000D01*
X4660000Y-4740000D02*
X4660000Y-11120000D01*
X4660000Y-11120000D02*
X4660000Y-17520000D01*
X4660000Y-17520000D02*
X22800000Y-17520000D01*
X22800000Y-4740000D02*
X4660000Y-4740000D01*
D11*
D12*
X6081500Y-6482500D02*
X6366500Y-6767500D01*
X6366500Y-6482500D02*
X6081500Y-6767500D01*
X6081500Y-15482500D02*
X6366500Y-15767500D01*
X6366500Y-15482500D02*
X6081500Y-15767500D01*
X9129500Y-6482500D02*
X9414500Y-6767500D01*
X9414500Y-6482500D02*
X9129500Y-6767500D01*
X9129500Y-15482500D02*
X9414500Y-15767500D01*
X9414500Y-15482500D02*
X9129500Y-15767500D01*
X12177500Y-6482500D02*
X12462500Y-6767500D01*
X12462500Y-6482500D02*
X12177500Y-6767500D01*
X12177500Y-15482500D02*
X12462500Y-15767500D01*
X12462500Y-15482500D02*
X12177500Y-15767500D01*
X15225500Y-6482500D02*
X15510500Y-6767500D01*
X15510500Y-6482500D02*
X15225500Y-6767500D01*
X15225500Y-15482500D02*
X15510500Y-15767500D01*
X15510500Y-15482500D02*
X15225500Y-15767500D01*
X18273500Y-6474500D02*
X18558500Y-6759500D01*
X18558500Y-6474500D02*
X18273500Y-6759500D01*
X18273500Y-15474500D02*
X18558500Y-15759500D01*
X18558500Y-15474500D02*
X18273500Y-15759500D01*
X21321500Y-6477500D02*
X21606500Y-6762500D01*
X21606500Y-6477500D02*
X21321500Y-6762500D01*
X21321500Y-15477500D02*
X21606500Y-15762500D01*
X21606500Y-15477500D02*
X21321500Y-15762500D01*
D11*
X4915777Y-17836484D02*
X4915777Y-17636484D01*
X4915777Y-17636484D02*
X4963396Y-17636484D01*
X4963396Y-17636484D02*
X4991967Y-17646008D01*
X4991967Y-17646008D02*
X5011015Y-17665055D01*
X5011015Y-17665055D02*
X5020539Y-17684103D01*
X5020539Y-17684103D02*
X5030063Y-17722198D01*
X5030063Y-17722198D02*
X5030063Y-17750770D01*
X5030063Y-17750770D02*
X5020539Y-17788865D01*
X5020539Y-17788865D02*
X5011015Y-17807912D01*
X5011015Y-17807912D02*
X4991967Y-17826960D01*
X4991967Y-17826960D02*
X4963396Y-17836484D01*
X4963396Y-17836484D02*
X4915777Y-17836484D01*
X5115777Y-17836484D02*
X5115777Y-17703150D01*
X5115777Y-17741246D02*
X5125301Y-17722198D01*
X5125301Y-17722198D02*
X5134824Y-17712674D01*
X5134824Y-17712674D02*
X5153872Y-17703150D01*
X5153872Y-17703150D02*
X5172920Y-17703150D01*
X5239586Y-17836484D02*
X5239586Y-17703150D01*
X5239586Y-17636484D02*
X5230063Y-17646008D01*
X5230063Y-17646008D02*
X5239586Y-17655531D01*
X5239586Y-17655531D02*
X5249110Y-17646008D01*
X5249110Y-17646008D02*
X5239586Y-17636484D01*
X5239586Y-17636484D02*
X5239586Y-17655531D01*
X5363396Y-17836484D02*
X5344348Y-17826960D01*
X5344348Y-17826960D02*
X5334824Y-17807912D01*
X5334824Y-17807912D02*
X5334824Y-17636484D01*
X5468158Y-17836484D02*
X5449110Y-17826960D01*
X5449110Y-17826960D02*
X5439586Y-17807912D01*
X5439586Y-17807912D02*
X5439586Y-17636484D01*
X5696729Y-17836484D02*
X5696729Y-17636484D01*
X5696729Y-17636484D02*
X5763396Y-17779341D01*
X5763396Y-17779341D02*
X5830062Y-17636484D01*
X5830062Y-17636484D02*
X5830062Y-17836484D01*
X6011015Y-17836484D02*
X6011015Y-17731722D01*
X6011015Y-17731722D02*
X6001491Y-17712674D01*
X6001491Y-17712674D02*
X5982443Y-17703150D01*
X5982443Y-17703150D02*
X5944348Y-17703150D01*
X5944348Y-17703150D02*
X5925301Y-17712674D01*
X6011015Y-17826960D02*
X5991967Y-17836484D01*
X5991967Y-17836484D02*
X5944348Y-17836484D01*
X5944348Y-17836484D02*
X5925301Y-17826960D01*
X5925301Y-17826960D02*
X5915777Y-17807912D01*
X5915777Y-17807912D02*
X5915777Y-17788865D01*
X5915777Y-17788865D02*
X5925301Y-17769817D01*
X5925301Y-17769817D02*
X5944348Y-17760293D01*
X5944348Y-17760293D02*
X5991967Y-17760293D01*
X5991967Y-17760293D02*
X6011015Y-17750770D01*
X6106253Y-17703150D02*
X6106253Y-17903150D01*
X6106253Y-17712674D02*
X6125301Y-17703150D01*
X6125301Y-17703150D02*
X6163396Y-17703150D01*
X6163396Y-17703150D02*
X6182443Y-17712674D01*
X6182443Y-17712674D02*
X6191967Y-17722198D01*
X6191967Y-17722198D02*
X6201491Y-17741246D01*
X6201491Y-17741246D02*
X6201491Y-17798389D01*
X6201491Y-17798389D02*
X6191967Y-17817436D01*
X6191967Y-17817436D02*
X6182443Y-17826960D01*
X6182443Y-17826960D02*
X6163396Y-17836484D01*
X6163396Y-17836484D02*
X6125301Y-17836484D01*
X6125301Y-17836484D02*
X6106253Y-17826960D01*
X6287205Y-17817436D02*
X6296729Y-17826960D01*
X6296729Y-17826960D02*
X6287205Y-17836484D01*
X6287205Y-17836484D02*
X6277682Y-17826960D01*
X6277682Y-17826960D02*
X6287205Y-17817436D01*
X6287205Y-17817436D02*
X6287205Y-17836484D01*
X6287205Y-17712674D02*
X6296729Y-17722198D01*
X6296729Y-17722198D02*
X6287205Y-17731722D01*
X6287205Y-17731722D02*
X6277682Y-17722198D01*
X6277682Y-17722198D02*
X6287205Y-17712674D01*
X6287205Y-17712674D02*
X6287205Y-17731722D01*
X4455000Y-18065000D02*
X4655000Y-18265000D01*
X4655000Y-18065000D02*
X4455000Y-18265000D01*
X4906253Y-18075531D02*
X4915777Y-18066008D01*
X4915777Y-18066008D02*
X4934824Y-18056484D01*
X4934824Y-18056484D02*
X4982444Y-18056484D01*
X4982444Y-18056484D02*
X5001491Y-18066008D01*
X5001491Y-18066008D02*
X5011015Y-18075531D01*
X5011015Y-18075531D02*
X5020539Y-18094579D01*
X5020539Y-18094579D02*
X5020539Y-18113627D01*
X5020539Y-18113627D02*
X5011015Y-18142198D01*
X5011015Y-18142198D02*
X4896729Y-18256484D01*
X4896729Y-18256484D02*
X5020539Y-18256484D01*
X5106253Y-18237436D02*
X5115777Y-18246960D01*
X5115777Y-18246960D02*
X5106253Y-18256484D01*
X5106253Y-18256484D02*
X5096729Y-18246960D01*
X5096729Y-18246960D02*
X5106253Y-18237436D01*
X5106253Y-18237436D02*
X5106253Y-18256484D01*
X5230063Y-18142198D02*
X5211015Y-18132674D01*
X5211015Y-18132674D02*
X5201491Y-18123150D01*
X5201491Y-18123150D02*
X5191967Y-18104103D01*
X5191967Y-18104103D02*
X5191967Y-18094579D01*
X5191967Y-18094579D02*
X5201491Y-18075531D01*
X5201491Y-18075531D02*
X5211015Y-18066008D01*
X5211015Y-18066008D02*
X5230063Y-18056484D01*
X5230063Y-18056484D02*
X5268158Y-18056484D01*
X5268158Y-18056484D02*
X5287205Y-18066008D01*
X5287205Y-18066008D02*
X5296729Y-18075531D01*
X5296729Y-18075531D02*
X5306253Y-18094579D01*
X5306253Y-18094579D02*
X5306253Y-18104103D01*
X5306253Y-18104103D02*
X5296729Y-18123150D01*
X5296729Y-18123150D02*
X5287205Y-18132674D01*
X5287205Y-18132674D02*
X5268158Y-18142198D01*
X5268158Y-18142198D02*
X5230063Y-18142198D01*
X5230063Y-18142198D02*
X5211015Y-18151722D01*
X5211015Y-18151722D02*
X5201491Y-18161246D01*
X5201491Y-18161246D02*
X5191967Y-18180293D01*
X5191967Y-18180293D02*
X5191967Y-18218389D01*
X5191967Y-18218389D02*
X5201491Y-18237436D01*
X5201491Y-18237436D02*
X5211015Y-18246960D01*
X5211015Y-18246960D02*
X5230063Y-18256484D01*
X5230063Y-18256484D02*
X5268158Y-18256484D01*
X5268158Y-18256484D02*
X5287205Y-18246960D01*
X5287205Y-18246960D02*
X5296729Y-18237436D01*
X5296729Y-18237436D02*
X5306253Y-18218389D01*
X5306253Y-18218389D02*
X5306253Y-18180293D01*
X5306253Y-18180293D02*
X5296729Y-18161246D01*
X5296729Y-18161246D02*
X5287205Y-18151722D01*
X5287205Y-18151722D02*
X5268158Y-18142198D01*
X5487205Y-18056484D02*
X5391967Y-18056484D01*
X5391967Y-18056484D02*
X5382444Y-18151722D01*
X5382444Y-18151722D02*
X5391967Y-18142198D01*
X5391967Y-18142198D02*
X5411015Y-18132674D01*
X5411015Y-18132674D02*
X5458634Y-18132674D01*
X5458634Y-18132674D02*
X5477682Y-18142198D01*
X5477682Y-18142198D02*
X5487205Y-18151722D01*
X5487205Y-18151722D02*
X5496729Y-18170770D01*
X5496729Y-18170770D02*
X5496729Y-18218389D01*
X5496729Y-18218389D02*
X5487205Y-18237436D01*
X5487205Y-18237436D02*
X5477682Y-18246960D01*
X5477682Y-18246960D02*
X5458634Y-18256484D01*
X5458634Y-18256484D02*
X5411015Y-18256484D01*
X5411015Y-18256484D02*
X5391967Y-18246960D01*
X5391967Y-18246960D02*
X5382444Y-18237436D01*
X5620539Y-18056484D02*
X5639586Y-18056484D01*
X5639586Y-18056484D02*
X5658634Y-18066008D01*
X5658634Y-18066008D02*
X5668158Y-18075531D01*
X5668158Y-18075531D02*
X5677682Y-18094579D01*
X5677682Y-18094579D02*
X5687205Y-18132674D01*
X5687205Y-18132674D02*
X5687205Y-18180293D01*
X5687205Y-18180293D02*
X5677682Y-18218389D01*
X5677682Y-18218389D02*
X5668158Y-18237436D01*
X5668158Y-18237436D02*
X5658634Y-18246960D01*
X5658634Y-18246960D02*
X5639586Y-18256484D01*
X5639586Y-18256484D02*
X5620539Y-18256484D01*
X5620539Y-18256484D02*
X5601491Y-18246960D01*
X5601491Y-18246960D02*
X5591967Y-18237436D01*
X5591967Y-18237436D02*
X5582444Y-18218389D01*
X5582444Y-18218389D02*
X5572920Y-18180293D01*
X5572920Y-18180293D02*
X5572920Y-18132674D01*
X5572920Y-18132674D02*
X5582444Y-18094579D01*
X5582444Y-18094579D02*
X5591967Y-18075531D01*
X5591967Y-18075531D02*
X5601491Y-18066008D01*
X5601491Y-18066008D02*
X5620539Y-18056484D01*
X5772920Y-18256484D02*
X5772920Y-18123150D01*
X5772920Y-18142198D02*
X5782443Y-18132674D01*
X5782443Y-18132674D02*
X5801491Y-18123150D01*
X5801491Y-18123150D02*
X5830063Y-18123150D01*
X5830063Y-18123150D02*
X5849110Y-18132674D01*
X5849110Y-18132674D02*
X5858634Y-18151722D01*
X5858634Y-18151722D02*
X5858634Y-18256484D01*
X5858634Y-18151722D02*
X5868158Y-18132674D01*
X5868158Y-18132674D02*
X5887205Y-18123150D01*
X5887205Y-18123150D02*
X5915777Y-18123150D01*
X5915777Y-18123150D02*
X5934824Y-18132674D01*
X5934824Y-18132674D02*
X5944348Y-18151722D01*
X5944348Y-18151722D02*
X5944348Y-18256484D01*
X6039586Y-18256484D02*
X6039586Y-18123150D01*
X6039586Y-18142198D02*
X6049110Y-18132674D01*
X6049110Y-18132674D02*
X6068158Y-18123150D01*
X6068158Y-18123150D02*
X6096729Y-18123150D01*
X6096729Y-18123150D02*
X6115777Y-18132674D01*
X6115777Y-18132674D02*
X6125301Y-18151722D01*
X6125301Y-18151722D02*
X6125301Y-18256484D01*
X6125301Y-18151722D02*
X6134824Y-18132674D01*
X6134824Y-18132674D02*
X6153872Y-18123150D01*
X6153872Y-18123150D02*
X6182443Y-18123150D01*
X6182443Y-18123150D02*
X6201491Y-18132674D01*
X6201491Y-18132674D02*
X6211015Y-18151722D01*
X6211015Y-18151722D02*
X6211015Y-18256484D01*
X6601491Y-18046960D02*
X6430063Y-18304103D01*
X6858634Y-18056484D02*
X6877682Y-18056484D01*
X6877682Y-18056484D02*
X6896729Y-18066008D01*
X6896729Y-18066008D02*
X6906253Y-18075531D01*
X6906253Y-18075531D02*
X6915777Y-18094579D01*
X6915777Y-18094579D02*
X6925301Y-18132674D01*
X6925301Y-18132674D02*
X6925301Y-18180293D01*
X6925301Y-18180293D02*
X6915777Y-18218389D01*
X6915777Y-18218389D02*
X6906253Y-18237436D01*
X6906253Y-18237436D02*
X6896729Y-18246960D01*
X6896729Y-18246960D02*
X6877682Y-18256484D01*
X6877682Y-18256484D02*
X6858634Y-18256484D01*
X6858634Y-18256484D02*
X6839586Y-18246960D01*
X6839586Y-18246960D02*
X6830063Y-18237436D01*
X6830063Y-18237436D02*
X6820539Y-18218389D01*
X6820539Y-18218389D02*
X6811015Y-18180293D01*
X6811015Y-18180293D02*
X6811015Y-18132674D01*
X6811015Y-18132674D02*
X6820539Y-18094579D01*
X6820539Y-18094579D02*
X6830063Y-18075531D01*
X6830063Y-18075531D02*
X6839586Y-18066008D01*
X6839586Y-18066008D02*
X6858634Y-18056484D01*
X7011015Y-18237436D02*
X7020539Y-18246960D01*
X7020539Y-18246960D02*
X7011015Y-18256484D01*
X7011015Y-18256484D02*
X7001491Y-18246960D01*
X7001491Y-18246960D02*
X7011015Y-18237436D01*
X7011015Y-18237436D02*
X7011015Y-18256484D01*
X7211015Y-18256484D02*
X7096729Y-18256484D01*
X7153872Y-18256484D02*
X7153872Y-18056484D01*
X7153872Y-18056484D02*
X7134825Y-18085055D01*
X7134825Y-18085055D02*
X7115777Y-18104103D01*
X7115777Y-18104103D02*
X7096729Y-18113627D01*
X7401491Y-18256484D02*
X7287206Y-18256484D01*
X7344348Y-18256484D02*
X7344348Y-18056484D01*
X7344348Y-18056484D02*
X7325301Y-18085055D01*
X7325301Y-18085055D02*
X7306253Y-18104103D01*
X7306253Y-18104103D02*
X7287206Y-18113627D01*
X7477682Y-18075531D02*
X7487206Y-18066008D01*
X7487206Y-18066008D02*
X7506253Y-18056484D01*
X7506253Y-18056484D02*
X7553872Y-18056484D01*
X7553872Y-18056484D02*
X7572920Y-18066008D01*
X7572920Y-18066008D02*
X7582444Y-18075531D01*
X7582444Y-18075531D02*
X7591967Y-18094579D01*
X7591967Y-18094579D02*
X7591967Y-18113627D01*
X7591967Y-18113627D02*
X7582444Y-18142198D01*
X7582444Y-18142198D02*
X7468158Y-18256484D01*
X7468158Y-18256484D02*
X7591967Y-18256484D01*
X7668158Y-18075531D02*
X7677682Y-18066008D01*
X7677682Y-18066008D02*
X7696729Y-18056484D01*
X7696729Y-18056484D02*
X7744348Y-18056484D01*
X7744348Y-18056484D02*
X7763396Y-18066008D01*
X7763396Y-18066008D02*
X7772920Y-18075531D01*
X7772920Y-18075531D02*
X7782444Y-18094579D01*
X7782444Y-18094579D02*
X7782444Y-18113627D01*
X7782444Y-18113627D02*
X7772920Y-18142198D01*
X7772920Y-18142198D02*
X7658634Y-18256484D01*
X7658634Y-18256484D02*
X7782444Y-18256484D01*
X7858634Y-18056484D02*
X7858634Y-18094579D01*
X7934825Y-18056484D02*
X7934825Y-18094579D01*
X8230063Y-18332674D02*
X8220539Y-18323150D01*
X8220539Y-18323150D02*
X8201491Y-18294579D01*
X8201491Y-18294579D02*
X8191968Y-18275531D01*
X8191968Y-18275531D02*
X8182444Y-18246960D01*
X8182444Y-18246960D02*
X8172920Y-18199341D01*
X8172920Y-18199341D02*
X8172920Y-18161246D01*
X8172920Y-18161246D02*
X8182444Y-18113627D01*
X8182444Y-18113627D02*
X8191968Y-18085055D01*
X8191968Y-18085055D02*
X8201491Y-18066008D01*
X8201491Y-18066008D02*
X8220539Y-18037436D01*
X8220539Y-18037436D02*
X8230063Y-18027912D01*
X8411015Y-18256484D02*
X8296729Y-18256484D01*
X8353872Y-18256484D02*
X8353872Y-18056484D01*
X8353872Y-18056484D02*
X8334825Y-18085055D01*
X8334825Y-18085055D02*
X8315777Y-18104103D01*
X8315777Y-18104103D02*
X8296729Y-18113627D01*
X8487206Y-18075531D02*
X8496730Y-18066008D01*
X8496730Y-18066008D02*
X8515777Y-18056484D01*
X8515777Y-18056484D02*
X8563396Y-18056484D01*
X8563396Y-18056484D02*
X8582444Y-18066008D01*
X8582444Y-18066008D02*
X8591968Y-18075531D01*
X8591968Y-18075531D02*
X8601491Y-18094579D01*
X8601491Y-18094579D02*
X8601491Y-18113627D01*
X8601491Y-18113627D02*
X8591968Y-18142198D01*
X8591968Y-18142198D02*
X8477682Y-18256484D01*
X8477682Y-18256484D02*
X8601491Y-18256484D01*
X8839587Y-18256484D02*
X8839587Y-18056484D01*
X8925301Y-18256484D02*
X8925301Y-18151722D01*
X8925301Y-18151722D02*
X8915777Y-18132674D01*
X8915777Y-18132674D02*
X8896730Y-18123150D01*
X8896730Y-18123150D02*
X8868158Y-18123150D01*
X8868158Y-18123150D02*
X8849111Y-18132674D01*
X8849111Y-18132674D02*
X8839587Y-18142198D01*
X9049111Y-18256484D02*
X9030063Y-18246960D01*
X9030063Y-18246960D02*
X9020539Y-18237436D01*
X9020539Y-18237436D02*
X9011015Y-18218389D01*
X9011015Y-18218389D02*
X9011015Y-18161246D01*
X9011015Y-18161246D02*
X9020539Y-18142198D01*
X9020539Y-18142198D02*
X9030063Y-18132674D01*
X9030063Y-18132674D02*
X9049111Y-18123150D01*
X9049111Y-18123150D02*
X9077682Y-18123150D01*
X9077682Y-18123150D02*
X9096730Y-18132674D01*
X9096730Y-18132674D02*
X9106253Y-18142198D01*
X9106253Y-18142198D02*
X9115777Y-18161246D01*
X9115777Y-18161246D02*
X9115777Y-18218389D01*
X9115777Y-18218389D02*
X9106253Y-18237436D01*
X9106253Y-18237436D02*
X9096730Y-18246960D01*
X9096730Y-18246960D02*
X9077682Y-18256484D01*
X9077682Y-18256484D02*
X9049111Y-18256484D01*
X9230063Y-18256484D02*
X9211015Y-18246960D01*
X9211015Y-18246960D02*
X9201492Y-18227912D01*
X9201492Y-18227912D02*
X9201492Y-18056484D01*
X9382444Y-18246960D02*
X9363396Y-18256484D01*
X9363396Y-18256484D02*
X9325301Y-18256484D01*
X9325301Y-18256484D02*
X9306253Y-18246960D01*
X9306253Y-18246960D02*
X9296730Y-18227912D01*
X9296730Y-18227912D02*
X9296730Y-18151722D01*
X9296730Y-18151722D02*
X9306253Y-18132674D01*
X9306253Y-18132674D02*
X9325301Y-18123150D01*
X9325301Y-18123150D02*
X9363396Y-18123150D01*
X9363396Y-18123150D02*
X9382444Y-18132674D01*
X9382444Y-18132674D02*
X9391968Y-18151722D01*
X9391968Y-18151722D02*
X9391968Y-18170770D01*
X9391968Y-18170770D02*
X9296730Y-18189817D01*
X9468158Y-18246960D02*
X9487206Y-18256484D01*
X9487206Y-18256484D02*
X9525301Y-18256484D01*
X9525301Y-18256484D02*
X9544349Y-18246960D01*
X9544349Y-18246960D02*
X9553873Y-18227912D01*
X9553873Y-18227912D02*
X9553873Y-18218389D01*
X9553873Y-18218389D02*
X9544349Y-18199341D01*
X9544349Y-18199341D02*
X9525301Y-18189817D01*
X9525301Y-18189817D02*
X9496730Y-18189817D01*
X9496730Y-18189817D02*
X9477682Y-18180293D01*
X9477682Y-18180293D02*
X9468158Y-18161246D01*
X9468158Y-18161246D02*
X9468158Y-18151722D01*
X9468158Y-18151722D02*
X9477682Y-18132674D01*
X9477682Y-18132674D02*
X9496730Y-18123150D01*
X9496730Y-18123150D02*
X9525301Y-18123150D01*
X9525301Y-18123150D02*
X9544349Y-18132674D01*
X9620539Y-18332674D02*
X9630063Y-18323150D01*
X9630063Y-18323150D02*
X9649111Y-18294579D01*
X9649111Y-18294579D02*
X9658634Y-18275531D01*
X9658634Y-18275531D02*
X9668158Y-18246960D01*
X9668158Y-18246960D02*
X9677682Y-18199341D01*
X9677682Y-18199341D02*
X9677682Y-18161246D01*
X9677682Y-18161246D02*
X9668158Y-18113627D01*
X9668158Y-18113627D02*
X9658634Y-18085055D01*
X9658634Y-18085055D02*
X9649111Y-18066008D01*
X9649111Y-18066008D02*
X9630063Y-18037436D01*
X9630063Y-18037436D02*
X9620539Y-18027912D01*
X9982444Y-18332674D02*
X9972920Y-18323150D01*
X9972920Y-18323150D02*
X9953873Y-18294579D01*
X9953873Y-18294579D02*
X9944349Y-18275531D01*
X9944349Y-18275531D02*
X9934825Y-18246960D01*
X9934825Y-18246960D02*
X9925301Y-18199341D01*
X9925301Y-18199341D02*
X9925301Y-18161246D01*
X9925301Y-18161246D02*
X9934825Y-18113627D01*
X9934825Y-18113627D02*
X9944349Y-18085055D01*
X9944349Y-18085055D02*
X9953873Y-18066008D01*
X9953873Y-18066008D02*
X9972920Y-18037436D01*
X9972920Y-18037436D02*
X9982444Y-18027912D01*
X10058634Y-18123150D02*
X10058634Y-18256484D01*
X10058634Y-18142198D02*
X10068158Y-18132674D01*
X10068158Y-18132674D02*
X10087206Y-18123150D01*
X10087206Y-18123150D02*
X10115777Y-18123150D01*
X10115777Y-18123150D02*
X10134825Y-18132674D01*
X10134825Y-18132674D02*
X10144349Y-18151722D01*
X10144349Y-18151722D02*
X10144349Y-18256484D01*
X10268158Y-18256484D02*
X10249111Y-18246960D01*
X10249111Y-18246960D02*
X10239587Y-18237436D01*
X10239587Y-18237436D02*
X10230063Y-18218389D01*
X10230063Y-18218389D02*
X10230063Y-18161246D01*
X10230063Y-18161246D02*
X10239587Y-18142198D01*
X10239587Y-18142198D02*
X10249111Y-18132674D01*
X10249111Y-18132674D02*
X10268158Y-18123150D01*
X10268158Y-18123150D02*
X10296730Y-18123150D01*
X10296730Y-18123150D02*
X10315777Y-18132674D01*
X10315777Y-18132674D02*
X10325301Y-18142198D01*
X10325301Y-18142198D02*
X10334825Y-18161246D01*
X10334825Y-18161246D02*
X10334825Y-18218389D01*
X10334825Y-18218389D02*
X10325301Y-18237436D01*
X10325301Y-18237436D02*
X10315777Y-18246960D01*
X10315777Y-18246960D02*
X10296730Y-18256484D01*
X10296730Y-18256484D02*
X10268158Y-18256484D01*
X10391968Y-18123150D02*
X10468158Y-18123150D01*
X10420539Y-18056484D02*
X10420539Y-18227912D01*
X10420539Y-18227912D02*
X10430063Y-18246960D01*
X10430063Y-18246960D02*
X10449111Y-18256484D01*
X10449111Y-18256484D02*
X10468158Y-18256484D01*
X10687206Y-18123150D02*
X10687206Y-18323150D01*
X10687206Y-18132674D02*
X10706254Y-18123150D01*
X10706254Y-18123150D02*
X10744349Y-18123150D01*
X10744349Y-18123150D02*
X10763396Y-18132674D01*
X10763396Y-18132674D02*
X10772920Y-18142198D01*
X10772920Y-18142198D02*
X10782444Y-18161246D01*
X10782444Y-18161246D02*
X10782444Y-18218389D01*
X10782444Y-18218389D02*
X10772920Y-18237436D01*
X10772920Y-18237436D02*
X10763396Y-18246960D01*
X10763396Y-18246960D02*
X10744349Y-18256484D01*
X10744349Y-18256484D02*
X10706254Y-18256484D01*
X10706254Y-18256484D02*
X10687206Y-18246960D01*
X10896730Y-18256484D02*
X10877682Y-18246960D01*
X10877682Y-18246960D02*
X10868158Y-18227912D01*
X10868158Y-18227912D02*
X10868158Y-18056484D01*
X11058635Y-18256484D02*
X11058635Y-18151722D01*
X11058635Y-18151722D02*
X11049111Y-18132674D01*
X11049111Y-18132674D02*
X11030063Y-18123150D01*
X11030063Y-18123150D02*
X10991968Y-18123150D01*
X10991968Y-18123150D02*
X10972920Y-18132674D01*
X11058635Y-18246960D02*
X11039587Y-18256484D01*
X11039587Y-18256484D02*
X10991968Y-18256484D01*
X10991968Y-18256484D02*
X10972920Y-18246960D01*
X10972920Y-18246960D02*
X10963396Y-18227912D01*
X10963396Y-18227912D02*
X10963396Y-18208865D01*
X10963396Y-18208865D02*
X10972920Y-18189817D01*
X10972920Y-18189817D02*
X10991968Y-18180293D01*
X10991968Y-18180293D02*
X11039587Y-18180293D01*
X11039587Y-18180293D02*
X11058635Y-18170770D01*
X11125301Y-18123150D02*
X11201492Y-18123150D01*
X11153873Y-18056484D02*
X11153873Y-18227912D01*
X11153873Y-18227912D02*
X11163396Y-18246960D01*
X11163396Y-18246960D02*
X11182444Y-18256484D01*
X11182444Y-18256484D02*
X11201492Y-18256484D01*
X11344349Y-18246960D02*
X11325301Y-18256484D01*
X11325301Y-18256484D02*
X11287206Y-18256484D01*
X11287206Y-18256484D02*
X11268158Y-18246960D01*
X11268158Y-18246960D02*
X11258634Y-18227912D01*
X11258634Y-18227912D02*
X11258634Y-18151722D01*
X11258634Y-18151722D02*
X11268158Y-18132674D01*
X11268158Y-18132674D02*
X11287206Y-18123150D01*
X11287206Y-18123150D02*
X11325301Y-18123150D01*
X11325301Y-18123150D02*
X11344349Y-18132674D01*
X11344349Y-18132674D02*
X11353873Y-18151722D01*
X11353873Y-18151722D02*
X11353873Y-18170770D01*
X11353873Y-18170770D02*
X11258634Y-18189817D01*
X11525301Y-18256484D02*
X11525301Y-18056484D01*
X11525301Y-18246960D02*
X11506254Y-18256484D01*
X11506254Y-18256484D02*
X11468158Y-18256484D01*
X11468158Y-18256484D02*
X11449111Y-18246960D01*
X11449111Y-18246960D02*
X11439587Y-18237436D01*
X11439587Y-18237436D02*
X11430063Y-18218389D01*
X11430063Y-18218389D02*
X11430063Y-18161246D01*
X11430063Y-18161246D02*
X11439587Y-18142198D01*
X11439587Y-18142198D02*
X11449111Y-18132674D01*
X11449111Y-18132674D02*
X11468158Y-18123150D01*
X11468158Y-18123150D02*
X11506254Y-18123150D01*
X11506254Y-18123150D02*
X11525301Y-18132674D01*
X11601492Y-18332674D02*
X11611015Y-18323150D01*
X11611015Y-18323150D02*
X11630063Y-18294579D01*
X11630063Y-18294579D02*
X11639587Y-18275531D01*
X11639587Y-18275531D02*
X11649111Y-18246960D01*
X11649111Y-18246960D02*
X11658634Y-18199341D01*
X11658634Y-18199341D02*
X11658634Y-18161246D01*
X11658634Y-18161246D02*
X11649111Y-18113627D01*
X11649111Y-18113627D02*
X11639587Y-18085055D01*
X11639587Y-18085055D02*
X11630063Y-18066008D01*
X11630063Y-18066008D02*
X11611015Y-18037436D01*
X11611015Y-18037436D02*
X11601492Y-18027912D01*
M02*
