%TF.GenerationSoftware,KiCad,Pcbnew,7.0.5*%
%TF.CreationDate,2023-12-07T16:06:55+01:00*%
%TF.ProjectId,Z80-Backplane,5a38302d-4261-4636-9b70-6c616e652e6b,rev?*%
%TF.SameCoordinates,Original*%
%TF.FileFunction,Legend,Top*%
%TF.FilePolarity,Positive*%
%FSLAX46Y46*%
G04 Gerber Fmt 4.6, Leading zero omitted, Abs format (unit mm)*
G04 Created by KiCad (PCBNEW 7.0.5) date 2023-12-07 16:06:55*
%MOMM*%
%LPD*%
G01*
G04 APERTURE LIST*
%ADD10C,0.300000*%
%ADD11C,0.150000*%
%ADD12C,0.120000*%
G04 APERTURE END LIST*
D10*
X97770828Y-125864285D02*
X97770828Y-124864285D01*
X97770828Y-124864285D02*
X99270828Y-125864285D01*
X99270828Y-125864285D02*
X99270828Y-124864285D01*
X98413685Y-124078571D02*
X98342257Y-124221428D01*
X98342257Y-124221428D02*
X98270828Y-124292857D01*
X98270828Y-124292857D02*
X98127971Y-124364285D01*
X98127971Y-124364285D02*
X98056542Y-124364285D01*
X98056542Y-124364285D02*
X97913685Y-124292857D01*
X97913685Y-124292857D02*
X97842257Y-124221428D01*
X97842257Y-124221428D02*
X97770828Y-124078571D01*
X97770828Y-124078571D02*
X97770828Y-123792857D01*
X97770828Y-123792857D02*
X97842257Y-123650000D01*
X97842257Y-123650000D02*
X97913685Y-123578571D01*
X97913685Y-123578571D02*
X98056542Y-123507142D01*
X98056542Y-123507142D02*
X98127971Y-123507142D01*
X98127971Y-123507142D02*
X98270828Y-123578571D01*
X98270828Y-123578571D02*
X98342257Y-123650000D01*
X98342257Y-123650000D02*
X98413685Y-123792857D01*
X98413685Y-123792857D02*
X98413685Y-124078571D01*
X98413685Y-124078571D02*
X98485114Y-124221428D01*
X98485114Y-124221428D02*
X98556542Y-124292857D01*
X98556542Y-124292857D02*
X98699400Y-124364285D01*
X98699400Y-124364285D02*
X98985114Y-124364285D01*
X98985114Y-124364285D02*
X99127971Y-124292857D01*
X99127971Y-124292857D02*
X99199400Y-124221428D01*
X99199400Y-124221428D02*
X99270828Y-124078571D01*
X99270828Y-124078571D02*
X99270828Y-123792857D01*
X99270828Y-123792857D02*
X99199400Y-123650000D01*
X99199400Y-123650000D02*
X99127971Y-123578571D01*
X99127971Y-123578571D02*
X98985114Y-123507142D01*
X98985114Y-123507142D02*
X98699400Y-123507142D01*
X98699400Y-123507142D02*
X98556542Y-123578571D01*
X98556542Y-123578571D02*
X98485114Y-123650000D01*
X98485114Y-123650000D02*
X98413685Y-123792857D01*
X99127971Y-122007143D02*
X99199400Y-122078571D01*
X99199400Y-122078571D02*
X99270828Y-122292857D01*
X99270828Y-122292857D02*
X99270828Y-122435714D01*
X99270828Y-122435714D02*
X99199400Y-122650000D01*
X99199400Y-122650000D02*
X99056542Y-122792857D01*
X99056542Y-122792857D02*
X98913685Y-122864286D01*
X98913685Y-122864286D02*
X98627971Y-122935714D01*
X98627971Y-122935714D02*
X98413685Y-122935714D01*
X98413685Y-122935714D02*
X98127971Y-122864286D01*
X98127971Y-122864286D02*
X97985114Y-122792857D01*
X97985114Y-122792857D02*
X97842257Y-122650000D01*
X97842257Y-122650000D02*
X97770828Y-122435714D01*
X97770828Y-122435714D02*
X97770828Y-122292857D01*
X97770828Y-122292857D02*
X97842257Y-122078571D01*
X97842257Y-122078571D02*
X97913685Y-122007143D01*
X98699400Y-121364286D02*
X98699400Y-120221429D01*
X99270828Y-119507143D02*
X97770828Y-119507143D01*
X98485114Y-119507143D02*
X98485114Y-118650000D01*
X99270828Y-118650000D02*
X97770828Y-118650000D01*
X99270828Y-117721428D02*
X99199400Y-117864285D01*
X99199400Y-117864285D02*
X99127971Y-117935714D01*
X99127971Y-117935714D02*
X98985114Y-118007142D01*
X98985114Y-118007142D02*
X98556542Y-118007142D01*
X98556542Y-118007142D02*
X98413685Y-117935714D01*
X98413685Y-117935714D02*
X98342257Y-117864285D01*
X98342257Y-117864285D02*
X98270828Y-117721428D01*
X98270828Y-117721428D02*
X98270828Y-117507142D01*
X98270828Y-117507142D02*
X98342257Y-117364285D01*
X98342257Y-117364285D02*
X98413685Y-117292857D01*
X98413685Y-117292857D02*
X98556542Y-117221428D01*
X98556542Y-117221428D02*
X98985114Y-117221428D01*
X98985114Y-117221428D02*
X99127971Y-117292857D01*
X99127971Y-117292857D02*
X99199400Y-117364285D01*
X99199400Y-117364285D02*
X99270828Y-117507142D01*
X99270828Y-117507142D02*
X99270828Y-117721428D01*
X99270828Y-116578571D02*
X98270828Y-116578571D01*
X98413685Y-116578571D02*
X98342257Y-116507142D01*
X98342257Y-116507142D02*
X98270828Y-116364285D01*
X98270828Y-116364285D02*
X98270828Y-116149999D01*
X98270828Y-116149999D02*
X98342257Y-116007142D01*
X98342257Y-116007142D02*
X98485114Y-115935714D01*
X98485114Y-115935714D02*
X99270828Y-115935714D01*
X98485114Y-115935714D02*
X98342257Y-115864285D01*
X98342257Y-115864285D02*
X98270828Y-115721428D01*
X98270828Y-115721428D02*
X98270828Y-115507142D01*
X98270828Y-115507142D02*
X98342257Y-115364285D01*
X98342257Y-115364285D02*
X98485114Y-115292856D01*
X98485114Y-115292856D02*
X99270828Y-115292856D01*
X99199400Y-114007142D02*
X99270828Y-114149999D01*
X99270828Y-114149999D02*
X99270828Y-114435714D01*
X99270828Y-114435714D02*
X99199400Y-114578571D01*
X99199400Y-114578571D02*
X99056542Y-114649999D01*
X99056542Y-114649999D02*
X98485114Y-114649999D01*
X98485114Y-114649999D02*
X98342257Y-114578571D01*
X98342257Y-114578571D02*
X98270828Y-114435714D01*
X98270828Y-114435714D02*
X98270828Y-114149999D01*
X98270828Y-114149999D02*
X98342257Y-114007142D01*
X98342257Y-114007142D02*
X98485114Y-113935714D01*
X98485114Y-113935714D02*
X98627971Y-113935714D01*
X98627971Y-113935714D02*
X98770828Y-114649999D01*
X99270828Y-113292857D02*
X97770828Y-113292857D01*
X98342257Y-113292857D02*
X98270828Y-113150000D01*
X98270828Y-113150000D02*
X98270828Y-112864285D01*
X98270828Y-112864285D02*
X98342257Y-112721428D01*
X98342257Y-112721428D02*
X98413685Y-112650000D01*
X98413685Y-112650000D02*
X98556542Y-112578571D01*
X98556542Y-112578571D02*
X98985114Y-112578571D01*
X98985114Y-112578571D02*
X99127971Y-112650000D01*
X99127971Y-112650000D02*
X99199400Y-112721428D01*
X99199400Y-112721428D02*
X99270828Y-112864285D01*
X99270828Y-112864285D02*
X99270828Y-113150000D01*
X99270828Y-113150000D02*
X99199400Y-113292857D01*
X99270828Y-111935714D02*
X98270828Y-111935714D01*
X98556542Y-111935714D02*
X98413685Y-111864285D01*
X98413685Y-111864285D02*
X98342257Y-111792857D01*
X98342257Y-111792857D02*
X98270828Y-111649999D01*
X98270828Y-111649999D02*
X98270828Y-111507142D01*
X99199400Y-110435714D02*
X99270828Y-110578571D01*
X99270828Y-110578571D02*
X99270828Y-110864286D01*
X99270828Y-110864286D02*
X99199400Y-111007143D01*
X99199400Y-111007143D02*
X99056542Y-111078571D01*
X99056542Y-111078571D02*
X98485114Y-111078571D01*
X98485114Y-111078571D02*
X98342257Y-111007143D01*
X98342257Y-111007143D02*
X98270828Y-110864286D01*
X98270828Y-110864286D02*
X98270828Y-110578571D01*
X98270828Y-110578571D02*
X98342257Y-110435714D01*
X98342257Y-110435714D02*
X98485114Y-110364286D01*
X98485114Y-110364286D02*
X98627971Y-110364286D01*
X98627971Y-110364286D02*
X98770828Y-111078571D01*
X98270828Y-109864286D02*
X99270828Y-109578572D01*
X99270828Y-109578572D02*
X98556542Y-109292857D01*
X98556542Y-109292857D02*
X99270828Y-109007143D01*
X99270828Y-109007143D02*
X98270828Y-108721429D01*
X99127971Y-106150000D02*
X99199400Y-106221428D01*
X99199400Y-106221428D02*
X99270828Y-106435714D01*
X99270828Y-106435714D02*
X99270828Y-106578571D01*
X99270828Y-106578571D02*
X99199400Y-106792857D01*
X99199400Y-106792857D02*
X99056542Y-106935714D01*
X99056542Y-106935714D02*
X98913685Y-107007143D01*
X98913685Y-107007143D02*
X98627971Y-107078571D01*
X98627971Y-107078571D02*
X98413685Y-107078571D01*
X98413685Y-107078571D02*
X98127971Y-107007143D01*
X98127971Y-107007143D02*
X97985114Y-106935714D01*
X97985114Y-106935714D02*
X97842257Y-106792857D01*
X97842257Y-106792857D02*
X97770828Y-106578571D01*
X97770828Y-106578571D02*
X97770828Y-106435714D01*
X97770828Y-106435714D02*
X97842257Y-106221428D01*
X97842257Y-106221428D02*
X97913685Y-106150000D01*
X99270828Y-105292857D02*
X99199400Y-105435714D01*
X99199400Y-105435714D02*
X99127971Y-105507143D01*
X99127971Y-105507143D02*
X98985114Y-105578571D01*
X98985114Y-105578571D02*
X98556542Y-105578571D01*
X98556542Y-105578571D02*
X98413685Y-105507143D01*
X98413685Y-105507143D02*
X98342257Y-105435714D01*
X98342257Y-105435714D02*
X98270828Y-105292857D01*
X98270828Y-105292857D02*
X98270828Y-105078571D01*
X98270828Y-105078571D02*
X98342257Y-104935714D01*
X98342257Y-104935714D02*
X98413685Y-104864286D01*
X98413685Y-104864286D02*
X98556542Y-104792857D01*
X98556542Y-104792857D02*
X98985114Y-104792857D01*
X98985114Y-104792857D02*
X99127971Y-104864286D01*
X99127971Y-104864286D02*
X99199400Y-104935714D01*
X99199400Y-104935714D02*
X99270828Y-105078571D01*
X99270828Y-105078571D02*
X99270828Y-105292857D01*
X99270828Y-104150000D02*
X98270828Y-104150000D01*
X98413685Y-104150000D02*
X98342257Y-104078571D01*
X98342257Y-104078571D02*
X98270828Y-103935714D01*
X98270828Y-103935714D02*
X98270828Y-103721428D01*
X98270828Y-103721428D02*
X98342257Y-103578571D01*
X98342257Y-103578571D02*
X98485114Y-103507143D01*
X98485114Y-103507143D02*
X99270828Y-103507143D01*
X98485114Y-103507143D02*
X98342257Y-103435714D01*
X98342257Y-103435714D02*
X98270828Y-103292857D01*
X98270828Y-103292857D02*
X98270828Y-103078571D01*
X98270828Y-103078571D02*
X98342257Y-102935714D01*
X98342257Y-102935714D02*
X98485114Y-102864285D01*
X98485114Y-102864285D02*
X99270828Y-102864285D01*
X98270828Y-102150000D02*
X99770828Y-102150000D01*
X98342257Y-102150000D02*
X98270828Y-102007143D01*
X98270828Y-102007143D02*
X98270828Y-101721428D01*
X98270828Y-101721428D02*
X98342257Y-101578571D01*
X98342257Y-101578571D02*
X98413685Y-101507143D01*
X98413685Y-101507143D02*
X98556542Y-101435714D01*
X98556542Y-101435714D02*
X98985114Y-101435714D01*
X98985114Y-101435714D02*
X99127971Y-101507143D01*
X99127971Y-101507143D02*
X99199400Y-101578571D01*
X99199400Y-101578571D02*
X99270828Y-101721428D01*
X99270828Y-101721428D02*
X99270828Y-102007143D01*
X99270828Y-102007143D02*
X99199400Y-102150000D01*
X98270828Y-100150000D02*
X99270828Y-100150000D01*
X98270828Y-100792857D02*
X99056542Y-100792857D01*
X99056542Y-100792857D02*
X99199400Y-100721428D01*
X99199400Y-100721428D02*
X99270828Y-100578571D01*
X99270828Y-100578571D02*
X99270828Y-100364285D01*
X99270828Y-100364285D02*
X99199400Y-100221428D01*
X99199400Y-100221428D02*
X99127971Y-100150000D01*
X98270828Y-99649999D02*
X98270828Y-99078571D01*
X97770828Y-99435714D02*
X99056542Y-99435714D01*
X99056542Y-99435714D02*
X99199400Y-99364285D01*
X99199400Y-99364285D02*
X99270828Y-99221428D01*
X99270828Y-99221428D02*
X99270828Y-99078571D01*
X99199400Y-98007142D02*
X99270828Y-98149999D01*
X99270828Y-98149999D02*
X99270828Y-98435714D01*
X99270828Y-98435714D02*
X99199400Y-98578571D01*
X99199400Y-98578571D02*
X99056542Y-98649999D01*
X99056542Y-98649999D02*
X98485114Y-98649999D01*
X98485114Y-98649999D02*
X98342257Y-98578571D01*
X98342257Y-98578571D02*
X98270828Y-98435714D01*
X98270828Y-98435714D02*
X98270828Y-98149999D01*
X98270828Y-98149999D02*
X98342257Y-98007142D01*
X98342257Y-98007142D02*
X98485114Y-97935714D01*
X98485114Y-97935714D02*
X98627971Y-97935714D01*
X98627971Y-97935714D02*
X98770828Y-98649999D01*
X99270828Y-97292857D02*
X98270828Y-97292857D01*
X98556542Y-97292857D02*
X98413685Y-97221428D01*
X98413685Y-97221428D02*
X98342257Y-97150000D01*
X98342257Y-97150000D02*
X98270828Y-97007142D01*
X98270828Y-97007142D02*
X98270828Y-96864285D01*
X100900114Y-118221428D02*
X100971542Y-118007142D01*
X100971542Y-118007142D02*
X101042971Y-117935713D01*
X101042971Y-117935713D02*
X101185828Y-117864285D01*
X101185828Y-117864285D02*
X101400114Y-117864285D01*
X101400114Y-117864285D02*
X101542971Y-117935713D01*
X101542971Y-117935713D02*
X101614400Y-118007142D01*
X101614400Y-118007142D02*
X101685828Y-118149999D01*
X101685828Y-118149999D02*
X101685828Y-118721428D01*
X101685828Y-118721428D02*
X100185828Y-118721428D01*
X100185828Y-118721428D02*
X100185828Y-118221428D01*
X100185828Y-118221428D02*
X100257257Y-118078571D01*
X100257257Y-118078571D02*
X100328685Y-118007142D01*
X100328685Y-118007142D02*
X100471542Y-117935713D01*
X100471542Y-117935713D02*
X100614400Y-117935713D01*
X100614400Y-117935713D02*
X100757257Y-118007142D01*
X100757257Y-118007142D02*
X100828685Y-118078571D01*
X100828685Y-118078571D02*
X100900114Y-118221428D01*
X100900114Y-118221428D02*
X100900114Y-118721428D01*
X101685828Y-116578571D02*
X100900114Y-116578571D01*
X100900114Y-116578571D02*
X100757257Y-116649999D01*
X100757257Y-116649999D02*
X100685828Y-116792856D01*
X100685828Y-116792856D02*
X100685828Y-117078571D01*
X100685828Y-117078571D02*
X100757257Y-117221428D01*
X101614400Y-116578571D02*
X101685828Y-116721428D01*
X101685828Y-116721428D02*
X101685828Y-117078571D01*
X101685828Y-117078571D02*
X101614400Y-117221428D01*
X101614400Y-117221428D02*
X101471542Y-117292856D01*
X101471542Y-117292856D02*
X101328685Y-117292856D01*
X101328685Y-117292856D02*
X101185828Y-117221428D01*
X101185828Y-117221428D02*
X101114400Y-117078571D01*
X101114400Y-117078571D02*
X101114400Y-116721428D01*
X101114400Y-116721428D02*
X101042971Y-116578571D01*
X101614400Y-115221428D02*
X101685828Y-115364285D01*
X101685828Y-115364285D02*
X101685828Y-115649999D01*
X101685828Y-115649999D02*
X101614400Y-115792856D01*
X101614400Y-115792856D02*
X101542971Y-115864285D01*
X101542971Y-115864285D02*
X101400114Y-115935713D01*
X101400114Y-115935713D02*
X100971542Y-115935713D01*
X100971542Y-115935713D02*
X100828685Y-115864285D01*
X100828685Y-115864285D02*
X100757257Y-115792856D01*
X100757257Y-115792856D02*
X100685828Y-115649999D01*
X100685828Y-115649999D02*
X100685828Y-115364285D01*
X100685828Y-115364285D02*
X100757257Y-115221428D01*
X101685828Y-114578571D02*
X100185828Y-114578571D01*
X101114400Y-114435714D02*
X101685828Y-114007142D01*
X100685828Y-114007142D02*
X101257257Y-114578571D01*
X100685828Y-113364285D02*
X102185828Y-113364285D01*
X100757257Y-113364285D02*
X100685828Y-113221428D01*
X100685828Y-113221428D02*
X100685828Y-112935713D01*
X100685828Y-112935713D02*
X100757257Y-112792856D01*
X100757257Y-112792856D02*
X100828685Y-112721428D01*
X100828685Y-112721428D02*
X100971542Y-112649999D01*
X100971542Y-112649999D02*
X101400114Y-112649999D01*
X101400114Y-112649999D02*
X101542971Y-112721428D01*
X101542971Y-112721428D02*
X101614400Y-112792856D01*
X101614400Y-112792856D02*
X101685828Y-112935713D01*
X101685828Y-112935713D02*
X101685828Y-113221428D01*
X101685828Y-113221428D02*
X101614400Y-113364285D01*
X101685828Y-111792856D02*
X101614400Y-111935713D01*
X101614400Y-111935713D02*
X101471542Y-112007142D01*
X101471542Y-112007142D02*
X100185828Y-112007142D01*
X101685828Y-110578571D02*
X100900114Y-110578571D01*
X100900114Y-110578571D02*
X100757257Y-110649999D01*
X100757257Y-110649999D02*
X100685828Y-110792856D01*
X100685828Y-110792856D02*
X100685828Y-111078571D01*
X100685828Y-111078571D02*
X100757257Y-111221428D01*
X101614400Y-110578571D02*
X101685828Y-110721428D01*
X101685828Y-110721428D02*
X101685828Y-111078571D01*
X101685828Y-111078571D02*
X101614400Y-111221428D01*
X101614400Y-111221428D02*
X101471542Y-111292856D01*
X101471542Y-111292856D02*
X101328685Y-111292856D01*
X101328685Y-111292856D02*
X101185828Y-111221428D01*
X101185828Y-111221428D02*
X101114400Y-111078571D01*
X101114400Y-111078571D02*
X101114400Y-110721428D01*
X101114400Y-110721428D02*
X101042971Y-110578571D01*
X100685828Y-109864285D02*
X101685828Y-109864285D01*
X100828685Y-109864285D02*
X100757257Y-109792856D01*
X100757257Y-109792856D02*
X100685828Y-109649999D01*
X100685828Y-109649999D02*
X100685828Y-109435713D01*
X100685828Y-109435713D02*
X100757257Y-109292856D01*
X100757257Y-109292856D02*
X100900114Y-109221428D01*
X100900114Y-109221428D02*
X101685828Y-109221428D01*
X101614400Y-107935713D02*
X101685828Y-108078570D01*
X101685828Y-108078570D02*
X101685828Y-108364285D01*
X101685828Y-108364285D02*
X101614400Y-108507142D01*
X101614400Y-108507142D02*
X101471542Y-108578570D01*
X101471542Y-108578570D02*
X100900114Y-108578570D01*
X100900114Y-108578570D02*
X100757257Y-108507142D01*
X100757257Y-108507142D02*
X100685828Y-108364285D01*
X100685828Y-108364285D02*
X100685828Y-108078570D01*
X100685828Y-108078570D02*
X100757257Y-107935713D01*
X100757257Y-107935713D02*
X100900114Y-107864285D01*
X100900114Y-107864285D02*
X101042971Y-107864285D01*
X101042971Y-107864285D02*
X101185828Y-108578570D01*
X100185828Y-106292856D02*
X101685828Y-105792856D01*
X101685828Y-105792856D02*
X100185828Y-105292856D01*
X101685828Y-104007142D02*
X101685828Y-104864285D01*
X101685828Y-104435714D02*
X100185828Y-104435714D01*
X100185828Y-104435714D02*
X100400114Y-104578571D01*
X100400114Y-104578571D02*
X100542971Y-104721428D01*
X100542971Y-104721428D02*
X100614400Y-104864285D01*
D11*
%TO.C,J3*%
X182856666Y-62124819D02*
X182856666Y-62839104D01*
X182856666Y-62839104D02*
X182809047Y-62981961D01*
X182809047Y-62981961D02*
X182713809Y-63077200D01*
X182713809Y-63077200D02*
X182570952Y-63124819D01*
X182570952Y-63124819D02*
X182475714Y-63124819D01*
X183237619Y-62124819D02*
X183856666Y-62124819D01*
X183856666Y-62124819D02*
X183523333Y-62505771D01*
X183523333Y-62505771D02*
X183666190Y-62505771D01*
X183666190Y-62505771D02*
X183761428Y-62553390D01*
X183761428Y-62553390D02*
X183809047Y-62601009D01*
X183809047Y-62601009D02*
X183856666Y-62696247D01*
X183856666Y-62696247D02*
X183856666Y-62934342D01*
X183856666Y-62934342D02*
X183809047Y-63029580D01*
X183809047Y-63029580D02*
X183761428Y-63077200D01*
X183761428Y-63077200D02*
X183666190Y-63124819D01*
X183666190Y-63124819D02*
X183380476Y-63124819D01*
X183380476Y-63124819D02*
X183285238Y-63077200D01*
X183285238Y-63077200D02*
X183237619Y-63029580D01*
%TO.C,J4*%
X213336666Y-62154819D02*
X213336666Y-62869104D01*
X213336666Y-62869104D02*
X213289047Y-63011961D01*
X213289047Y-63011961D02*
X213193809Y-63107200D01*
X213193809Y-63107200D02*
X213050952Y-63154819D01*
X213050952Y-63154819D02*
X212955714Y-63154819D01*
X214241428Y-62488152D02*
X214241428Y-63154819D01*
X214003333Y-62107200D02*
X213765238Y-62821485D01*
X213765238Y-62821485D02*
X214384285Y-62821485D01*
%TO.C,J14*%
X60460476Y-62204819D02*
X60460476Y-62919104D01*
X60460476Y-62919104D02*
X60412857Y-63061961D01*
X60412857Y-63061961D02*
X60317619Y-63157200D01*
X60317619Y-63157200D02*
X60174762Y-63204819D01*
X60174762Y-63204819D02*
X60079524Y-63204819D01*
X61460476Y-63204819D02*
X60889048Y-63204819D01*
X61174762Y-63204819D02*
X61174762Y-62204819D01*
X61174762Y-62204819D02*
X61079524Y-62347676D01*
X61079524Y-62347676D02*
X60984286Y-62442914D01*
X60984286Y-62442914D02*
X60889048Y-62490533D01*
X62317619Y-62538152D02*
X62317619Y-63204819D01*
X62079524Y-62157200D02*
X61841429Y-62871485D01*
X61841429Y-62871485D02*
X62460476Y-62871485D01*
%TO.C,J2*%
X152376666Y-62204819D02*
X152376666Y-62919104D01*
X152376666Y-62919104D02*
X152329047Y-63061961D01*
X152329047Y-63061961D02*
X152233809Y-63157200D01*
X152233809Y-63157200D02*
X152090952Y-63204819D01*
X152090952Y-63204819D02*
X151995714Y-63204819D01*
X152805238Y-62300057D02*
X152852857Y-62252438D01*
X152852857Y-62252438D02*
X152948095Y-62204819D01*
X152948095Y-62204819D02*
X153186190Y-62204819D01*
X153186190Y-62204819D02*
X153281428Y-62252438D01*
X153281428Y-62252438D02*
X153329047Y-62300057D01*
X153329047Y-62300057D02*
X153376666Y-62395295D01*
X153376666Y-62395295D02*
X153376666Y-62490533D01*
X153376666Y-62490533D02*
X153329047Y-62633390D01*
X153329047Y-62633390D02*
X152757619Y-63204819D01*
X152757619Y-63204819D02*
X153376666Y-63204819D01*
%TO.C,J15*%
X90940476Y-62204819D02*
X90940476Y-62919104D01*
X90940476Y-62919104D02*
X90892857Y-63061961D01*
X90892857Y-63061961D02*
X90797619Y-63157200D01*
X90797619Y-63157200D02*
X90654762Y-63204819D01*
X90654762Y-63204819D02*
X90559524Y-63204819D01*
X91940476Y-63204819D02*
X91369048Y-63204819D01*
X91654762Y-63204819D02*
X91654762Y-62204819D01*
X91654762Y-62204819D02*
X91559524Y-62347676D01*
X91559524Y-62347676D02*
X91464286Y-62442914D01*
X91464286Y-62442914D02*
X91369048Y-62490533D01*
X92845238Y-62204819D02*
X92369048Y-62204819D01*
X92369048Y-62204819D02*
X92321429Y-62681009D01*
X92321429Y-62681009D02*
X92369048Y-62633390D01*
X92369048Y-62633390D02*
X92464286Y-62585771D01*
X92464286Y-62585771D02*
X92702381Y-62585771D01*
X92702381Y-62585771D02*
X92797619Y-62633390D01*
X92797619Y-62633390D02*
X92845238Y-62681009D01*
X92845238Y-62681009D02*
X92892857Y-62776247D01*
X92892857Y-62776247D02*
X92892857Y-63014342D01*
X92892857Y-63014342D02*
X92845238Y-63109580D01*
X92845238Y-63109580D02*
X92797619Y-63157200D01*
X92797619Y-63157200D02*
X92702381Y-63204819D01*
X92702381Y-63204819D02*
X92464286Y-63204819D01*
X92464286Y-63204819D02*
X92369048Y-63157200D01*
X92369048Y-63157200D02*
X92321429Y-63109580D01*
%TO.C,J9*%
X121896666Y-62204819D02*
X121896666Y-62919104D01*
X121896666Y-62919104D02*
X121849047Y-63061961D01*
X121849047Y-63061961D02*
X121753809Y-63157200D01*
X121753809Y-63157200D02*
X121610952Y-63204819D01*
X121610952Y-63204819D02*
X121515714Y-63204819D01*
X122420476Y-63204819D02*
X122610952Y-63204819D01*
X122610952Y-63204819D02*
X122706190Y-63157200D01*
X122706190Y-63157200D02*
X122753809Y-63109580D01*
X122753809Y-63109580D02*
X122849047Y-62966723D01*
X122849047Y-62966723D02*
X122896666Y-62776247D01*
X122896666Y-62776247D02*
X122896666Y-62395295D01*
X122896666Y-62395295D02*
X122849047Y-62300057D01*
X122849047Y-62300057D02*
X122801428Y-62252438D01*
X122801428Y-62252438D02*
X122706190Y-62204819D01*
X122706190Y-62204819D02*
X122515714Y-62204819D01*
X122515714Y-62204819D02*
X122420476Y-62252438D01*
X122420476Y-62252438D02*
X122372857Y-62300057D01*
X122372857Y-62300057D02*
X122325238Y-62395295D01*
X122325238Y-62395295D02*
X122325238Y-62633390D01*
X122325238Y-62633390D02*
X122372857Y-62728628D01*
X122372857Y-62728628D02*
X122420476Y-62776247D01*
X122420476Y-62776247D02*
X122515714Y-62823866D01*
X122515714Y-62823866D02*
X122706190Y-62823866D01*
X122706190Y-62823866D02*
X122801428Y-62776247D01*
X122801428Y-62776247D02*
X122849047Y-62728628D01*
X122849047Y-62728628D02*
X122896666Y-62633390D01*
D12*
%TO.C,J3*%
X178160000Y-71500000D02*
X178160000Y-72100000D01*
X178160000Y-72100000D02*
X178840000Y-71800000D01*
X178840000Y-71800000D02*
X178160000Y-71500000D01*
X179030000Y-63560000D02*
X187350000Y-63560000D01*
X179030000Y-158780000D02*
X179030000Y-63560000D01*
X180190000Y-68669000D02*
X183190000Y-68669000D01*
X180190000Y-153670000D02*
X180190000Y-68669000D01*
X183190000Y-68669000D02*
X183190000Y-69669000D01*
X183190000Y-69669000D02*
X186190000Y-69669000D01*
X183190000Y-152670000D02*
X183190000Y-153670000D01*
X183190000Y-153670000D02*
X180190000Y-153670000D01*
X186190000Y-69669000D02*
X186190000Y-152670000D01*
X186190000Y-152670000D02*
X183190000Y-152670000D01*
X187350000Y-63560000D02*
X187350000Y-158780000D01*
X187350000Y-158780000D02*
X179030000Y-158780000D01*
%TO.C,J4*%
X208640000Y-71530000D02*
X208640000Y-72130000D01*
X208640000Y-72130000D02*
X209320000Y-71830000D01*
X209320000Y-71830000D02*
X208640000Y-71530000D01*
X209510000Y-63590000D02*
X217830000Y-63590000D01*
X209510000Y-158810000D02*
X209510000Y-63590000D01*
X210670000Y-68699000D02*
X213670000Y-68699000D01*
X210670000Y-153700000D02*
X210670000Y-68699000D01*
X213670000Y-68699000D02*
X213670000Y-69699000D01*
X213670000Y-69699000D02*
X216670000Y-69699000D01*
X213670000Y-152700000D02*
X213670000Y-153700000D01*
X213670000Y-153700000D02*
X210670000Y-153700000D01*
X216670000Y-69699000D02*
X216670000Y-152700000D01*
X216670000Y-152700000D02*
X213670000Y-152700000D01*
X217830000Y-63590000D02*
X217830000Y-158810000D01*
X217830000Y-158810000D02*
X209510000Y-158810000D01*
%TO.C,J14*%
X56240000Y-71580000D02*
X56240000Y-72180000D01*
X56240000Y-72180000D02*
X56920000Y-71880000D01*
X56920000Y-71880000D02*
X56240000Y-71580000D01*
X57110000Y-63640000D02*
X65430000Y-63640000D01*
X57110000Y-158860000D02*
X57110000Y-63640000D01*
X58270000Y-68749000D02*
X61270000Y-68749000D01*
X58270000Y-153750000D02*
X58270000Y-68749000D01*
X61270000Y-68749000D02*
X61270000Y-69749000D01*
X61270000Y-69749000D02*
X64270000Y-69749000D01*
X61270000Y-152750000D02*
X61270000Y-153750000D01*
X61270000Y-153750000D02*
X58270000Y-153750000D01*
X64270000Y-69749000D02*
X64270000Y-152750000D01*
X64270000Y-152750000D02*
X61270000Y-152750000D01*
X65430000Y-63640000D02*
X65430000Y-158860000D01*
X65430000Y-158860000D02*
X57110000Y-158860000D01*
%TO.C,J2*%
X147680000Y-71580000D02*
X147680000Y-72180000D01*
X147680000Y-72180000D02*
X148360000Y-71880000D01*
X148360000Y-71880000D02*
X147680000Y-71580000D01*
X148550000Y-63640000D02*
X156870000Y-63640000D01*
X148550000Y-158860000D02*
X148550000Y-63640000D01*
X149710000Y-68749000D02*
X152710000Y-68749000D01*
X149710000Y-153750000D02*
X149710000Y-68749000D01*
X152710000Y-68749000D02*
X152710000Y-69749000D01*
X152710000Y-69749000D02*
X155710000Y-69749000D01*
X152710000Y-152750000D02*
X152710000Y-153750000D01*
X152710000Y-153750000D02*
X149710000Y-153750000D01*
X155710000Y-69749000D02*
X155710000Y-152750000D01*
X155710000Y-152750000D02*
X152710000Y-152750000D01*
X156870000Y-63640000D02*
X156870000Y-158860000D01*
X156870000Y-158860000D02*
X148550000Y-158860000D01*
%TO.C,J15*%
X86720000Y-71580000D02*
X86720000Y-72180000D01*
X86720000Y-72180000D02*
X87400000Y-71880000D01*
X87400000Y-71880000D02*
X86720000Y-71580000D01*
X87590000Y-63640000D02*
X95910000Y-63640000D01*
X87590000Y-158860000D02*
X87590000Y-63640000D01*
X88750000Y-68749000D02*
X91750000Y-68749000D01*
X88750000Y-153750000D02*
X88750000Y-68749000D01*
X91750000Y-68749000D02*
X91750000Y-69749000D01*
X91750000Y-69749000D02*
X94750000Y-69749000D01*
X91750000Y-152750000D02*
X91750000Y-153750000D01*
X91750000Y-153750000D02*
X88750000Y-153750000D01*
X94750000Y-69749000D02*
X94750000Y-152750000D01*
X94750000Y-152750000D02*
X91750000Y-152750000D01*
X95910000Y-63640000D02*
X95910000Y-158860000D01*
X95910000Y-158860000D02*
X87590000Y-158860000D01*
%TO.C,J9*%
X117200000Y-71580000D02*
X117200000Y-72180000D01*
X117200000Y-72180000D02*
X117880000Y-71880000D01*
X117880000Y-71880000D02*
X117200000Y-71580000D01*
X118070000Y-63640000D02*
X126390000Y-63640000D01*
X118070000Y-158860000D02*
X118070000Y-63640000D01*
X119230000Y-68749000D02*
X122230000Y-68749000D01*
X119230000Y-153750000D02*
X119230000Y-68749000D01*
X122230000Y-68749000D02*
X122230000Y-69749000D01*
X122230000Y-69749000D02*
X125230000Y-69749000D01*
X122230000Y-152750000D02*
X122230000Y-153750000D01*
X122230000Y-153750000D02*
X119230000Y-153750000D01*
X125230000Y-69749000D02*
X125230000Y-152750000D01*
X125230000Y-152750000D02*
X122230000Y-152750000D01*
X126390000Y-63640000D02*
X126390000Y-158860000D01*
X126390000Y-158860000D02*
X118070000Y-158860000D01*
%TD*%
M02*
