M48
; DRILL file {KiCad 7.0.5} date Thu Dec  7 16:06:58 2023
; FORMAT={-:-/ absolute / inch / decimal}
; #@! TF.CreationDate,2023-12-07T16:06:58+01:00
; #@! TF.GenerationSoftware,Kicad,Pcbnew,7.0.5
; #@! TF.FileFunction,Plated,1,2,PTH
FMAT,2
INCH
; #@! TA.AperFunction,Plated,PTH,ViaDrill
T1C0.0157
; #@! TA.AperFunction,Plated,PTH,ComponentDrill
T2C0.0335
; #@! TA.AperFunction,Plated,PTH,ComponentDrill
T3C0.0394
; #@! TA.AperFunction,Plated,PTH,ComponentDrill
T4C0.1063
%
G90
G05
T1
X2.3622Y-2.3307
X2.5906Y-2.1732
X2.6128Y-6.4739
X2.6797Y-6.3175
X3.5669Y-2.3307
X3.7638Y-2.1732
X3.8128Y-6.4584
X3.8797Y-6.3172
X4.7717Y-2.3307
X4.9606Y-2.1732
X4.98Y-6.4646
X5.08Y-6.315
X6.05Y-2.33
X6.15Y-2.1725
X6.23Y-6.4646
X6.2797Y-6.315
X7.18Y-2.33
X7.35Y-2.1725
X7.42Y-6.4646
X7.48Y-6.315
X8.4Y-2.33
X8.5Y-2.1725
X8.53Y-6.4646
T3
X1.9846Y-2.8291
X1.9846Y-2.9291
X1.9846Y-3.0291
X1.9846Y-3.1291
X1.9846Y-3.2291
X1.9846Y-3.3291
X1.9846Y-3.4291
X1.9846Y-3.5291
X1.9846Y-3.6291
X1.9846Y-3.7291
X1.9846Y-3.8291
X1.9846Y-3.9291
X1.9846Y-4.0291
X1.9846Y-4.1291
X1.9846Y-4.2291
X1.9846Y-4.3291
X1.9846Y-4.4291
X1.9846Y-4.5291
X1.9846Y-4.6291
X1.9846Y-4.7291
X1.9846Y-4.8291
X1.9846Y-4.9291
X1.9846Y-5.0291
X1.9846Y-5.1291
X1.9846Y-5.2291
X1.9846Y-5.3291
X1.9846Y-5.4291
X1.9846Y-5.5291
X1.9846Y-5.6291
X1.9846Y-5.7291
X1.9846Y-5.8291
X1.9846Y-5.9291
X2.0846Y-2.8291
X2.0846Y-2.9291
X2.0846Y-3.0291
X2.0846Y-3.1291
X2.0846Y-3.2291
X2.0846Y-3.3291
X2.0846Y-3.4291
X2.0846Y-3.5291
X2.0846Y-3.6291
X2.0846Y-3.7291
X2.0846Y-3.8291
X2.0846Y-3.9291
X2.0846Y-4.0291
X2.0846Y-4.1291
X2.0846Y-4.2291
X2.0846Y-4.3291
X2.0846Y-4.4291
X2.0846Y-4.5291
X2.0846Y-4.6291
X2.0846Y-4.7291
X2.0846Y-4.8291
X2.0846Y-4.9291
X2.0846Y-5.0291
X2.0846Y-5.1291
X2.0846Y-5.2291
X2.0846Y-5.3291
X2.0846Y-5.4291
X2.0846Y-5.5291
X2.0846Y-5.6291
X2.0846Y-5.7291
X2.0846Y-5.8291
X2.0846Y-5.9291
X2.3622Y-2.8299
X2.3622Y-2.9299
X2.3622Y-3.0299
X2.3622Y-3.1299
X2.3622Y-3.2299
X2.3622Y-3.3299
X2.3622Y-3.4299
X2.3622Y-3.5299
X2.3622Y-3.6299
X2.3622Y-3.7299
X2.3622Y-3.8299
X2.3622Y-3.9299
X2.3622Y-4.0299
X2.3622Y-4.1299
X2.3622Y-4.2299
X2.3622Y-4.3299
X2.3622Y-4.4299
X2.3622Y-4.5299
X2.3622Y-4.6299
X2.3622Y-4.7299
X2.3622Y-4.8299
X2.3622Y-4.9299
X2.3622Y-5.0299
X2.3622Y-5.1299
X2.3622Y-5.2299
X2.3622Y-5.3299
X2.3622Y-5.4299
X2.3622Y-5.5299
X2.3622Y-5.6299
X2.3622Y-5.7299
X2.3622Y-5.8299
X2.3622Y-5.9299
X2.4622Y-2.8299
X2.4622Y-2.9299
X2.4622Y-3.0299
X2.4622Y-3.1299
X2.4622Y-3.2299
X2.4622Y-3.3299
X2.4622Y-3.4299
X2.4622Y-3.5299
X2.4622Y-3.6299
X2.4622Y-3.7299
X2.4622Y-3.8299
X2.4622Y-3.9299
X2.4622Y-4.0299
X2.4622Y-4.1299
X2.4622Y-4.2299
X2.4622Y-4.3299
X2.4622Y-4.4299
X2.4622Y-4.5299
X2.4622Y-4.6299
X2.4622Y-4.7299
X2.4622Y-4.8299
X2.4622Y-4.9299
X2.4622Y-5.0299
X2.4622Y-5.1299
X2.4622Y-5.2299
X2.4622Y-5.3299
X2.4622Y-5.4299
X2.4622Y-5.5299
X2.4622Y-5.6299
X2.4622Y-5.7299
X2.4622Y-5.8299
X2.4622Y-5.9299
X3.5622Y-2.8299
X3.5622Y-2.9299
X3.5622Y-3.0299
X3.5622Y-3.1299
X3.5622Y-3.2299
X3.5622Y-3.3299
X3.5622Y-3.4299
X3.5622Y-3.5299
X3.5622Y-3.6299
X3.5622Y-3.7299
X3.5622Y-3.8299
X3.5622Y-3.9299
X3.5622Y-4.0299
X3.5622Y-4.1299
X3.5622Y-4.2299
X3.5622Y-4.3299
X3.5622Y-4.4299
X3.5622Y-4.5299
X3.5622Y-4.6299
X3.5622Y-4.7299
X3.5622Y-4.8299
X3.5622Y-4.9299
X3.5622Y-5.0299
X3.5622Y-5.1299
X3.5622Y-5.2299
X3.5622Y-5.3299
X3.5622Y-5.4299
X3.5622Y-5.5299
X3.5622Y-5.6299
X3.5622Y-5.7299
X3.5622Y-5.8299
X3.5622Y-5.9299
X3.6622Y-2.8299
X3.6622Y-2.9299
X3.6622Y-3.0299
X3.6622Y-3.1299
X3.6622Y-3.2299
X3.6622Y-3.3299
X3.6622Y-3.4299
X3.6622Y-3.5299
X3.6622Y-3.6299
X3.6622Y-3.7299
X3.6622Y-3.8299
X3.6622Y-3.9299
X3.6622Y-4.0299
X3.6622Y-4.1299
X3.6622Y-4.2299
X3.6622Y-4.3299
X3.6622Y-4.4299
X3.6622Y-4.5299
X3.6622Y-4.6299
X3.6622Y-4.7299
X3.6622Y-4.8299
X3.6622Y-4.9299
X3.6622Y-5.0299
X3.6622Y-5.1299
X3.6622Y-5.2299
X3.6622Y-5.3299
X3.6622Y-5.4299
X3.6622Y-5.5299
X3.6622Y-5.6299
X3.6622Y-5.7299
X3.6622Y-5.8299
X3.6622Y-5.9299
X4.7622Y-2.8299
X4.7622Y-2.9299
X4.7622Y-3.0299
X4.7622Y-3.1299
X4.7622Y-3.2299
X4.7622Y-3.3299
X4.7622Y-3.4299
X4.7622Y-3.5299
X4.7622Y-3.6299
X4.7622Y-3.7299
X4.7622Y-3.8299
X4.7622Y-3.9299
X4.7622Y-4.0299
X4.7622Y-4.1299
X4.7622Y-4.2299
X4.7622Y-4.3299
X4.7622Y-4.4299
X4.7622Y-4.5299
X4.7622Y-4.6299
X4.7622Y-4.7299
X4.7622Y-4.8299
X4.7622Y-4.9299
X4.7622Y-5.0299
X4.7622Y-5.1299
X4.7622Y-5.2299
X4.7622Y-5.3299
X4.7622Y-5.4299
X4.7622Y-5.5299
X4.7622Y-5.6299
X4.7622Y-5.7299
X4.7622Y-5.8299
X4.7622Y-5.9299
X4.8622Y-2.8299
X4.8622Y-2.9299
X4.8622Y-3.0299
X4.8622Y-3.1299
X4.8622Y-3.2299
X4.8622Y-3.3299
X4.8622Y-3.4299
X4.8622Y-3.5299
X4.8622Y-3.6299
X4.8622Y-3.7299
X4.8622Y-3.8299
X4.8622Y-3.9299
X4.8622Y-4.0299
X4.8622Y-4.1299
X4.8622Y-4.2299
X4.8622Y-4.3299
X4.8622Y-4.4299
X4.8622Y-4.5299
X4.8622Y-4.6299
X4.8622Y-4.7299
X4.8622Y-4.8299
X4.8622Y-4.9299
X4.8622Y-5.0299
X4.8622Y-5.1299
X4.8622Y-5.2299
X4.8622Y-5.3299
X4.8622Y-5.4299
X4.8622Y-5.5299
X4.8622Y-5.6299
X4.8622Y-5.7299
X4.8622Y-5.8299
X4.8622Y-5.9299
X5.9622Y-2.8299
X5.9622Y-2.9299
X5.9622Y-3.0299
X5.9622Y-3.1299
X5.9622Y-3.2299
X5.9622Y-3.3299
X5.9622Y-3.4299
X5.9622Y-3.5299
X5.9622Y-3.6299
X5.9622Y-3.7299
X5.9622Y-3.8299
X5.9622Y-3.9299
X5.9622Y-4.0299
X5.9622Y-4.1299
X5.9622Y-4.2299
X5.9622Y-4.3299
X5.9622Y-4.4299
X5.9622Y-4.5299
X5.9622Y-4.6299
X5.9622Y-4.7299
X5.9622Y-4.8299
X5.9622Y-4.9299
X5.9622Y-5.0299
X5.9622Y-5.1299
X5.9622Y-5.2299
X5.9622Y-5.3299
X5.9622Y-5.4299
X5.9622Y-5.5299
X5.9622Y-5.6299
X5.9622Y-5.7299
X5.9622Y-5.8299
X5.9622Y-5.9299
X6.0622Y-2.8299
X6.0622Y-2.9299
X6.0622Y-3.0299
X6.0622Y-3.1299
X6.0622Y-3.2299
X6.0622Y-3.3299
X6.0622Y-3.4299
X6.0622Y-3.5299
X6.0622Y-3.6299
X6.0622Y-3.7299
X6.0622Y-3.8299
X6.0622Y-3.9299
X6.0622Y-4.0299
X6.0622Y-4.1299
X6.0622Y-4.2299
X6.0622Y-4.3299
X6.0622Y-4.4299
X6.0622Y-4.5299
X6.0622Y-4.6299
X6.0622Y-4.7299
X6.0622Y-4.8299
X6.0622Y-4.9299
X6.0622Y-5.0299
X6.0622Y-5.1299
X6.0622Y-5.2299
X6.0622Y-5.3299
X6.0622Y-5.4299
X6.0622Y-5.5299
X6.0622Y-5.6299
X6.0622Y-5.7299
X6.0622Y-5.8299
X6.0622Y-5.9299
X7.1622Y-2.8268
X7.1622Y-2.9268
X7.1622Y-3.0268
X7.1622Y-3.1268
X7.1622Y-3.2268
X7.1622Y-3.3268
X7.1622Y-3.4268
X7.1622Y-3.5268
X7.1622Y-3.6268
X7.1622Y-3.7268
X7.1622Y-3.8268
X7.1622Y-3.9268
X7.1622Y-4.0268
X7.1622Y-4.1268
X7.1622Y-4.2268
X7.1622Y-4.3268
X7.1622Y-4.4268
X7.1622Y-4.5268
X7.1622Y-4.6268
X7.1622Y-4.7268
X7.1622Y-4.8268
X7.1622Y-4.9268
X7.1622Y-5.0268
X7.1622Y-5.1268
X7.1622Y-5.2268
X7.1622Y-5.3268
X7.1622Y-5.4268
X7.1622Y-5.5268
X7.1622Y-5.6268
X7.1622Y-5.7268
X7.1622Y-5.8268
X7.1622Y-5.9268
X7.2622Y-2.8268
X7.2622Y-2.9268
X7.2622Y-3.0268
X7.2622Y-3.1268
X7.2622Y-3.2268
X7.2622Y-3.3268
X7.2622Y-3.4268
X7.2622Y-3.5268
X7.2622Y-3.6268
X7.2622Y-3.7268
X7.2622Y-3.8268
X7.2622Y-3.9268
X7.2622Y-4.0268
X7.2622Y-4.1268
X7.2622Y-4.2268
X7.2622Y-4.3268
X7.2622Y-4.4268
X7.2622Y-4.5268
X7.2622Y-4.6268
X7.2622Y-4.7268
X7.2622Y-4.8268
X7.2622Y-4.9268
X7.2622Y-5.0268
X7.2622Y-5.1268
X7.2622Y-5.2268
X7.2622Y-5.3268
X7.2622Y-5.4268
X7.2622Y-5.5268
X7.2622Y-5.6268
X7.2622Y-5.7268
X7.2622Y-5.8268
X7.2622Y-5.9268
X8.3622Y-2.828
X8.3622Y-2.928
X8.3622Y-3.028
X8.3622Y-3.128
X8.3622Y-3.228
X8.3622Y-3.328
X8.3622Y-3.428
X8.3622Y-3.528
X8.3622Y-3.628
X8.3622Y-3.728
X8.3622Y-3.828
X8.3622Y-3.928
X8.3622Y-4.028
X8.3622Y-4.128
X8.3622Y-4.228
X8.3622Y-4.328
X8.3622Y-4.428
X8.3622Y-4.528
X8.3622Y-4.628
X8.3622Y-4.728
X8.3622Y-4.828
X8.3622Y-4.928
X8.3622Y-5.028
X8.3622Y-5.128
X8.3622Y-5.228
X8.3622Y-5.328
X8.3622Y-5.428
X8.3622Y-5.528
X8.3622Y-5.628
X8.3622Y-5.728
X8.3622Y-5.828
X8.3622Y-5.928
X8.4622Y-2.828
X8.4622Y-2.928
X8.4622Y-3.028
X8.4622Y-3.128
X8.4622Y-3.228
X8.4622Y-3.328
X8.4622Y-3.428
X8.4622Y-3.528
X8.4622Y-3.628
X8.4622Y-3.728
X8.4622Y-3.828
X8.4622Y-3.928
X8.4622Y-4.028
X8.4622Y-4.128
X8.4622Y-4.228
X8.4622Y-4.328
X8.4622Y-4.428
X8.4622Y-4.528
X8.4622Y-4.628
X8.4622Y-4.728
X8.4622Y-4.828
X8.4622Y-4.928
X8.4622Y-5.028
X8.4622Y-5.128
X8.4622Y-5.228
X8.4622Y-5.328
X8.4622Y-5.428
X8.4622Y-5.528
X8.4622Y-5.628
X8.4622Y-5.728
X8.4622Y-5.828
X8.4622Y-5.928
X8.7244Y-2.8268
X8.7244Y-2.9268
X8.7244Y-3.0268
X8.7244Y-3.1268
X8.7244Y-3.2268
X8.7244Y-3.3268
X8.7244Y-3.4268
X8.7244Y-3.5268
X8.7244Y-3.6268
X8.7244Y-3.7268
X8.7244Y-3.8268
X8.7244Y-3.9268
X8.7244Y-4.0268
X8.7244Y-4.1268
X8.7244Y-4.2268
X8.7244Y-4.3268
X8.7244Y-4.4268
X8.7244Y-4.5268
X8.7244Y-4.6268
X8.7244Y-4.7268
X8.7244Y-4.8268
X8.7244Y-4.9268
X8.7244Y-5.0268
X8.7244Y-5.1268
X8.7244Y-5.2268
X8.7244Y-5.3268
X8.7244Y-5.4268
X8.7244Y-5.5268
X8.7244Y-5.6268
X8.7244Y-5.7268
X8.7244Y-5.8268
X8.7244Y-5.9268
X8.8244Y-2.8268
X8.8244Y-2.9268
X8.8244Y-3.0268
X8.8244Y-3.1268
X8.8244Y-3.2268
X8.8244Y-3.3268
X8.8244Y-3.4268
X8.8244Y-3.5268
X8.8244Y-3.6268
X8.8244Y-3.7268
X8.8244Y-3.8268
X8.8244Y-3.9268
X8.8244Y-4.0268
X8.8244Y-4.1268
X8.8244Y-4.2268
X8.8244Y-4.3268
X8.8244Y-4.4268
X8.8244Y-4.5268
X8.8244Y-4.6268
X8.8244Y-4.7268
X8.8244Y-4.8268
X8.8244Y-4.9268
X8.8244Y-5.0268
X8.8244Y-5.1268
X8.8244Y-5.2268
X8.8244Y-5.3268
X8.8244Y-5.4268
X8.8244Y-5.5268
X8.8244Y-5.6268
X8.8244Y-5.7268
X8.8244Y-5.8268
X8.8244Y-5.9268
T4
X2.4488Y-1.9685
X2.4488Y-6.7913
X3.6488Y-1.9685
X3.6488Y-6.7913
X4.8488Y-1.9685
X4.8488Y-6.7913
X6.0488Y-1.9685
X6.0488Y-6.7913
X7.2488Y-1.9685
X7.2488Y-6.7913
X8.4488Y-1.9685
X8.4488Y-6.7913
T2
G00X1.9478Y-2.1732
M15
G01X1.9656Y-2.1732
M16
G05
G00X1.9478Y-2.3307
M15
G01X1.9656Y-2.3307
M16
G05
G00X1.9478Y-6.315
M15
G01X1.9656Y-6.315
M16
G05
G00X1.9478Y-6.4724
M15
G01X1.9656Y-6.4724
M16
G05
G00X2.1447Y-2.1732
M15
G01X2.1624Y-2.1732
M16
G05
G00X2.1447Y-2.3307
M15
G01X2.1624Y-2.3307
M16
G05
G00X2.1447Y-6.315
M15
G01X2.1624Y-6.315
M16
G05
G00X2.1447Y-6.4724
M15
G01X2.1624Y-6.4724
M16
G05
G00X8.6743Y-2.1725
M15
G01X8.692Y-2.1725
M16
G05
G00X8.6743Y-2.33
M15
G01X8.692Y-2.33
M16
G05
G00X8.6743Y-6.3071
M15
G01X8.692Y-6.3071
M16
G05
G00X8.6743Y-6.4646
M15
G01X8.692Y-6.4646
M16
G05
G00X8.8711Y-2.1725
M15
G01X8.8889Y-2.1725
M16
G05
G00X8.8711Y-2.33
M15
G01X8.8889Y-2.33
M16
G05
G00X8.8711Y-6.3071
M15
G01X8.8889Y-6.3071
M16
G05
G00X8.8711Y-6.4646
M15
G01X8.8889Y-6.4646
M16
G05
T0
M30
