M48
; DRILL file {KiCad 7.0.11+dfsg-1build4} date Mo 30 Dez 2024 23:49:54 CET
; FORMAT={-:-/ absolute / inch / decimal}
; #@! TF.CreationDate,2024-12-30T23:49:54+01:00
; #@! TF.GenerationSoftware,Kicad,Pcbnew,7.0.11+dfsg-1build4
; #@! TF.FileFunction,Plated,1,2,PTH
FMAT,2
INCH
; #@! TA.AperFunction,Plated,PTH,ViaDrill
T1C0.0157
; #@! TA.AperFunction,Plated,PTH,ComponentDrill
T2C0.0276
; #@! TA.AperFunction,Plated,PTH,ComponentDrill
T3C0.0315
; #@! TA.AperFunction,Plated,PTH,ComponentDrill
T4C0.0335
; #@! TA.AperFunction,Plated,PTH,ComponentDrill
T5C0.0374
; #@! TA.AperFunction,Plated,PTH,ComponentDrill
T6C0.0551
; #@! TA.AperFunction,Plated,PTH,ComponentDrill
T7C0.1063
%
G90
G05
T1
X2.15Y-3.7
X2.205Y-5.26
X2.205Y-5.295
X2.205Y-5.58
X2.205Y-5.615
X2.24Y-5.26
X2.24Y-5.295
X2.24Y-5.58
X2.24Y-5.615
X2.425Y-5.285
X2.425Y-5.32
X2.46Y-5.285
X2.46Y-5.32
X2.515Y-4.595
X2.515Y-4.63
X2.52Y-5.1
X2.52Y-5.135
X2.52Y-5.285
X2.52Y-5.32
X2.55Y-4.595
X2.55Y-4.63
X2.555Y-5.1
X2.555Y-5.135
X2.555Y-5.285
X2.555Y-5.32
X2.78Y-6.4728
T2
X2.1Y-3.6205
X2.1Y-3.7602
X2.1Y-3.9
X2.1Y-4.0398
T3
X2.15Y-3.15
X2.15Y-3.3
X2.15Y-3.45
X2.55Y-3.15
X2.55Y-3.3
X2.55Y-3.45
T5
X2.6Y-3.65
X2.6Y-3.7484
X2.6Y-3.8469
X2.6Y-3.9453
T6
X2.1228Y-4.45
X2.1228Y-4.6154
X2.1228Y-4.95
X2.1228Y-5.1154
X2.3394Y-4.45
X2.3394Y-4.6154
X2.3394Y-4.95
X2.3394Y-5.1154
T7
X2.4488Y-1.9685
X2.4488Y-6.7913
T4
G00X2.4343Y-5.4
M15
G01X2.452Y-5.4
M16
G05
G00X2.4343Y-5.6
M15
G01X2.452Y-5.6
M16
G05
G00X2.4343Y-5.8
M15
G01X2.452Y-5.8
M16
G05
G00X2.4343Y-6.0
M15
G01X2.452Y-6.0
M16
G05
G00X2.6311Y-5.4
M15
G01X2.6489Y-5.4
M16
G05
G00X2.6311Y-5.6
M15
G01X2.6489Y-5.6
M16
G05
G00X2.6311Y-5.8
M15
G01X2.6489Y-5.8
M16
G05
G00X2.6311Y-6.0
M15
G01X2.6489Y-6.0
M16
G05
G00X2.6943Y-2.35
M15
G01X2.712Y-2.35
M16
G05
G00X2.6943Y-2.55
M15
G01X2.712Y-2.55
M16
G05
G00X2.6943Y-6.2
M15
G01X2.712Y-6.2
M16
G05
G00X2.6943Y-6.4
M15
G01X2.712Y-6.4
M16
G05
G00X2.8911Y-2.35
M15
G01X2.9089Y-2.35
M16
G05
G00X2.8911Y-2.55
M15
G01X2.9089Y-2.55
M16
G05
G00X2.8911Y-6.2
M15
G01X2.9089Y-6.2
M16
G05
G00X2.8911Y-6.4
M15
G01X2.9089Y-6.4
M16
G05
M30
