%TF.GenerationSoftware,KiCad,Pcbnew,7.0.11+dfsg-1build4*%
%TF.CreationDate,2024-12-30T23:49:52+01:00*%
%TF.ProjectId,Z80-Backplane,5a38302d-4261-4636-9b70-6c616e652e6b,rev?*%
%TF.SameCoordinates,Original*%
%TF.FileFunction,Copper,L2,Bot*%
%TF.FilePolarity,Positive*%
%FSLAX46Y46*%
G04 Gerber Fmt 4.6, Leading zero omitted, Abs format (unit mm)*
G04 Created by KiCad (PCBNEW 7.0.11+dfsg-1build4) date 2024-12-30 23:49:52*
%MOMM*%
%LPD*%
G01*
G04 APERTURE LIST*
G04 Aperture macros list*
%AMRoundRect*
0 Rectangle with rounded corners*
0 $1 Rounding radius*
0 $2 $3 $4 $5 $6 $7 $8 $9 X,Y pos of 4 corners*
0 Add a 4 corners polygon primitive as box body*
4,1,4,$2,$3,$4,$5,$6,$7,$8,$9,$2,$3,0*
0 Add four circle primitives for the rounded corners*
1,1,$1+$1,$2,$3*
1,1,$1+$1,$4,$5*
1,1,$1+$1,$6,$7*
1,1,$1+$1,$8,$9*
0 Add four rect primitives between the rounded corners*
20,1,$1+$1,$2,$3,$4,$5,0*
20,1,$1+$1,$4,$5,$6,$7,0*
20,1,$1+$1,$6,$7,$8,$9,0*
20,1,$1+$1,$8,$9,$2,$3,0*%
G04 Aperture macros list end*
%TA.AperFunction,ComponentPad*%
%ADD10C,1.600000*%
%TD*%
%TA.AperFunction,ComponentPad*%
%ADD11O,1.600000X1.600000*%
%TD*%
%TA.AperFunction,ComponentPad*%
%ADD12RoundRect,0.250000X0.725000X-0.600000X0.725000X0.600000X-0.725000X0.600000X-0.725000X-0.600000X0*%
%TD*%
%TA.AperFunction,ComponentPad*%
%ADD13O,1.950000X1.700000*%
%TD*%
%TA.AperFunction,ComponentPad*%
%ADD14O,2.500000X1.600000*%
%TD*%
%TA.AperFunction,ComponentPad*%
%ADD15C,4.700000*%
%TD*%
%TA.AperFunction,ComponentPad*%
%ADD16C,1.500000*%
%TD*%
%TA.AperFunction,ComponentPad*%
%ADD17RoundRect,0.250001X1.399999X-1.099999X1.399999X1.099999X-1.399999X1.099999X-1.399999X-1.099999X0*%
%TD*%
%TA.AperFunction,ComponentPad*%
%ADD18O,3.300000X2.700000*%
%TD*%
%TA.AperFunction,ViaPad*%
%ADD19C,0.800000*%
%TD*%
%TA.AperFunction,Conductor*%
%ADD20C,0.200000*%
%TD*%
%TA.AperFunction,Conductor*%
%ADD21C,0.250000*%
%TD*%
%TA.AperFunction,Conductor*%
%ADD22C,2.500000*%
%TD*%
%TA.AperFunction,Conductor*%
%ADD23C,1.500000*%
%TD*%
G04 APERTURE END LIST*
D10*
%TO.P,R3,1*%
%TO.N,+5V*%
X54610000Y-87630000D03*
D11*
%TO.P,R3,2*%
%TO.N,Net-(J3-Pin_3)*%
X64770000Y-87630000D03*
%TD*%
D10*
%TO.P,R2,1*%
%TO.N,+12V*%
X54610000Y-83820000D03*
D11*
%TO.P,R2,2*%
%TO.N,Net-(J3-Pin_2)*%
X64770000Y-83820000D03*
%TD*%
D10*
%TO.P,R1,1*%
%TO.N,-12V*%
X54610000Y-80010000D03*
D11*
%TO.P,R1,2*%
%TO.N,Net-(J3-Pin_1)*%
X64770000Y-80010000D03*
%TD*%
D12*
%TO.P,J3,1,Pin_1*%
%TO.N,Net-(J3-Pin_1)*%
X66040000Y-100210000D03*
D13*
%TO.P,J3,2,Pin_2*%
%TO.N,Net-(J3-Pin_2)*%
X66040000Y-97710000D03*
%TO.P,J3,3,Pin_3*%
%TO.N,Net-(J3-Pin_3)*%
X66040000Y-95210000D03*
%TO.P,J3,4,Pin_4*%
%TO.N,GND*%
X66040000Y-92710000D03*
%TD*%
D14*
%TO.P,J5,1,Pin_1*%
%TO.N,+5V*%
X62056000Y-137160000D03*
X67056000Y-137160000D03*
%TD*%
D15*
%TO.P,H10,1,1*%
%TO.N,GND*%
X62200000Y-172500000D03*
%TD*%
D14*
%TO.P,J8,1,Pin_1*%
%TO.N,GND*%
X62056000Y-142240000D03*
X67056000Y-142240000D03*
%TD*%
%TO.P,J13,1,Pin_1*%
%TO.N,-12V*%
X62056000Y-152400000D03*
X67056000Y-152400000D03*
%TD*%
D15*
%TO.P,H11,1,1*%
%TO.N,GND*%
X62200000Y-50000000D03*
%TD*%
D14*
%TO.P,J11,1,Pin_1*%
%TO.N,+12V*%
X62056000Y-147320000D03*
X67056000Y-147320000D03*
%TD*%
%TO.P,J10,1,Pin_1*%
%TO.N,+12V*%
X73660000Y-157480000D03*
X68660000Y-157480000D03*
%TD*%
D16*
%TO.P,TP4,1,1*%
%TO.N,GND*%
X53340000Y-102610000D03*
%TD*%
D17*
%TO.P,J1,1,Pin_1*%
%TO.N,-12V*%
X59420000Y-117230000D03*
D18*
%TO.P,J1,2,Pin_2*%
%TO.N,+12V*%
X59420000Y-113030000D03*
%TO.P,J1,3,Pin_3*%
%TO.N,+5V*%
X53920000Y-117230000D03*
%TO.P,J1,4,Pin_4*%
%TO.N,GND*%
X53920000Y-113030000D03*
%TD*%
D16*
%TO.P,TP2,1,1*%
%TO.N,+12V*%
X53340000Y-95510000D03*
%TD*%
D14*
%TO.P,J12,1,Pin_1*%
%TO.N,-12V*%
X73660000Y-162560000D03*
X68660000Y-162560000D03*
%TD*%
%TO.P,J7,1,Pin_1*%
%TO.N,GND*%
X73660000Y-64770000D03*
X68660000Y-64770000D03*
%TD*%
%TO.P,J6,1,Pin_1*%
%TO.N,+5V*%
X73660000Y-59690000D03*
X68660000Y-59690000D03*
%TD*%
D17*
%TO.P,J2,1,Pin_1*%
%TO.N,-12V*%
X59420000Y-129930000D03*
D18*
%TO.P,J2,2,Pin_2*%
%TO.N,+12V*%
X59420000Y-125730000D03*
%TO.P,J2,3,Pin_3*%
%TO.N,+5V*%
X53920000Y-129930000D03*
%TO.P,J2,4,Pin_4*%
%TO.N,GND*%
X53920000Y-125730000D03*
%TD*%
D16*
%TO.P,TP1,1,1*%
%TO.N,-12V*%
X53340000Y-91960000D03*
%TD*%
%TO.P,TP3,1,1*%
%TO.N,+5V*%
X53340000Y-99060000D03*
%TD*%
D19*
%TO.N,+12V*%
X54610000Y-93980000D03*
%TO.N,GND*%
X56007000Y-141732000D03*
X56896000Y-133604000D03*
X56896000Y-141732000D03*
X56007000Y-142621000D03*
X56896000Y-142621000D03*
X56007000Y-134493000D03*
X70612000Y-164410000D03*
X56896000Y-134493000D03*
X56007000Y-133604000D03*
%TO.N,+12V*%
X62484000Y-134239000D03*
X61595000Y-135128000D03*
X61595000Y-134239000D03*
X62484000Y-135128000D03*
%TO.N,-12V*%
X63881000Y-116713000D03*
X63881000Y-117602000D03*
X64897000Y-129540000D03*
X64008000Y-129540000D03*
X64897000Y-130429000D03*
X64897000Y-135128000D03*
X64008000Y-135128000D03*
X64770000Y-116713000D03*
X64008000Y-130429000D03*
X64897000Y-134239000D03*
X64008000Y-134239000D03*
X64770000Y-117602000D03*
%TD*%
D20*
%TO.N,+12V*%
X58166000Y-113030000D02*
X55753000Y-110617000D01*
X54480000Y-96650000D02*
X53340000Y-95510000D01*
D21*
X55430000Y-110294000D02*
X55430000Y-97600000D01*
X55753000Y-110617000D02*
X55430000Y-110294000D01*
X55430000Y-97600000D02*
X54480000Y-96650000D01*
D20*
%TO.N,-12V*%
X59675109Y-110651657D02*
X57150000Y-110651657D01*
D21*
X54883000Y-95568075D02*
X55880000Y-96565075D01*
X55880000Y-96565075D02*
X55880000Y-109381657D01*
X55880000Y-109381657D02*
X57150000Y-110651657D01*
D20*
X54883000Y-95568075D02*
X53340000Y-94025075D01*
D21*
%TO.N,Net-(J3-Pin_2)*%
X66040000Y-97710000D02*
X64690000Y-97710000D01*
X64690000Y-97710000D02*
X63500000Y-96520000D01*
X63500000Y-96520000D02*
X63500000Y-85090000D01*
X63500000Y-85090000D02*
X64770000Y-83820000D01*
%TO.N,-12V*%
X53340000Y-91960000D02*
X53340000Y-90170000D01*
X53340000Y-90170000D02*
X52890000Y-89720000D01*
X52890000Y-89720000D02*
X52890000Y-81730000D01*
X52890000Y-81730000D02*
X54610000Y-80010000D01*
%TO.N,+12V*%
X54610000Y-84060000D02*
X53340000Y-85330000D01*
X53340000Y-85330000D02*
X53340000Y-89533604D01*
X54610000Y-90803604D02*
X54610000Y-93980000D01*
X53340000Y-89533604D02*
X54610000Y-90803604D01*
%TO.N,Net-(J3-Pin_1)*%
X64770000Y-80010000D02*
X63050000Y-81730000D01*
X63050000Y-81730000D02*
X63050000Y-97220000D01*
X63050000Y-97220000D02*
X66040000Y-100210000D01*
%TO.N,Net-(J3-Pin_3)*%
X64770000Y-88110000D02*
X63970001Y-88909999D01*
X63970001Y-88909999D02*
X63970001Y-93140001D01*
X63970001Y-93140001D02*
X66040000Y-95210000D01*
D20*
%TO.N,GND*%
X70612000Y-164410000D02*
X70612000Y-167132000D01*
D22*
X72390000Y-142240000D02*
X73660000Y-140970000D01*
X67056000Y-142240000D02*
X62056000Y-142240000D01*
D23*
X56520000Y-123130000D02*
X56520000Y-115630000D01*
X56520000Y-115630000D02*
X53920000Y-113030000D01*
D22*
X68660000Y-64770000D02*
X73660000Y-64770000D01*
X73660000Y-140970000D02*
X73660000Y-64770000D01*
D23*
X56520000Y-128330000D02*
X56520000Y-134107000D01*
D22*
X67056000Y-142240000D02*
X72390000Y-142240000D01*
D23*
X53920000Y-125730000D02*
X56520000Y-123130000D01*
X53920000Y-125730000D02*
X56520000Y-128330000D01*
X56388000Y-142240000D02*
X61802000Y-142240000D01*
X56520000Y-134107000D02*
X56515000Y-134112000D01*
D22*
%TO.N,+5V*%
X67056000Y-137160000D02*
X69850000Y-137160000D01*
X67056000Y-137160000D02*
X62056000Y-137160000D01*
D20*
X53520000Y-104267000D02*
X53512075Y-104267000D01*
D23*
X56764811Y-137160000D02*
X53920000Y-134315189D01*
X53920000Y-134315189D02*
X53920000Y-129930000D01*
X62056000Y-137160000D02*
X56764811Y-137160000D01*
D22*
X65532000Y-67818000D02*
X65532000Y-62818000D01*
D23*
X51320000Y-119830000D02*
X51320000Y-127330000D01*
X53920000Y-117230000D02*
X51320000Y-119830000D01*
D22*
X65532000Y-62818000D02*
X68660000Y-59690000D01*
X69850000Y-137160000D02*
X69850000Y-71120000D01*
D23*
X51320000Y-127330000D02*
X53920000Y-129930000D01*
D22*
X68660000Y-59690000D02*
X73660000Y-59690000D01*
X69850000Y-71120000D02*
X65532000Y-67818000D01*
D20*
%TO.N,+12V*%
X59420000Y-113030000D02*
X58166000Y-113030000D01*
D22*
X68660000Y-157480000D02*
X73660000Y-157480000D01*
D23*
X62020000Y-115626016D02*
X59423984Y-113030000D01*
X62020000Y-134576000D02*
X62020000Y-127679000D01*
X62020000Y-127679000D02*
X62020000Y-115626016D01*
X61976000Y-134620000D02*
X62020000Y-134576000D01*
X60071000Y-125730000D02*
X59420000Y-125730000D01*
D22*
X68660000Y-157480000D02*
X69778376Y-156361624D01*
D23*
X59423984Y-113030000D02*
X59420000Y-113030000D01*
X62020000Y-127679000D02*
X60071000Y-125730000D01*
D22*
X69778376Y-156361624D02*
X69778376Y-150042376D01*
X69778376Y-150042376D02*
X67056000Y-147320000D01*
X62056000Y-147320000D02*
X67056000Y-147320000D01*
D20*
%TO.N,-12V*%
X63881000Y-116713000D02*
X63881000Y-114857548D01*
D23*
X64389000Y-134620000D02*
X64389000Y-129921000D01*
D20*
X63881000Y-114857548D02*
X59675109Y-110651657D01*
D22*
X65960000Y-153496000D02*
X67056000Y-152400000D01*
D23*
X64389000Y-129921000D02*
X64389000Y-117221000D01*
D22*
X68660000Y-162560000D02*
X65960000Y-159860000D01*
X67056000Y-152400000D02*
X62056000Y-152400000D01*
D20*
X53340000Y-94025075D02*
X53340000Y-91960000D01*
D22*
X68660000Y-162560000D02*
X73660000Y-162560000D01*
X65960000Y-159860000D02*
X65960000Y-153496000D01*
%TD*%
%TA.AperFunction,Conductor*%
%TO.N,GND*%
G36*
X76542539Y-167151685D02*
G01*
X76588294Y-167204489D01*
X76599500Y-167256000D01*
X76599500Y-175075500D01*
X76579815Y-175142539D01*
X76527011Y-175188294D01*
X76475500Y-175199500D01*
X63696247Y-175199500D01*
X63629208Y-175179815D01*
X63583453Y-175127011D01*
X63573509Y-175057853D01*
X63602534Y-174994297D01*
X63628108Y-174971900D01*
X63904780Y-174789929D01*
X63904788Y-174789923D01*
X64030708Y-174684263D01*
X64030709Y-174684262D01*
X62961373Y-173614925D01*
X63071078Y-173538110D01*
X63238110Y-173371078D01*
X63314926Y-173261373D01*
X64387641Y-174334088D01*
X64585175Y-174068756D01*
X64628233Y-173994177D01*
X65617529Y-173994177D01*
X66324852Y-174701500D01*
X67034356Y-174701500D01*
X67741679Y-173994177D01*
X68445957Y-173994177D01*
X69153280Y-174701500D01*
X69862784Y-174701500D01*
X70570106Y-173994177D01*
X71274384Y-173994177D01*
X71981707Y-174701500D01*
X72691211Y-174701500D01*
X73398534Y-173994177D01*
X74102811Y-173994177D01*
X74810134Y-174701500D01*
X75519638Y-174701500D01*
X76084000Y-174137138D01*
X76084000Y-173851216D01*
X75164886Y-172932102D01*
X74102811Y-173994177D01*
X73398534Y-173994177D01*
X72336459Y-172932102D01*
X71274384Y-173994177D01*
X70570106Y-173994177D01*
X69508031Y-172932102D01*
X68445957Y-173994177D01*
X67741679Y-173994177D01*
X66679604Y-172932102D01*
X65617529Y-173994177D01*
X64628233Y-173994177D01*
X64751166Y-173781249D01*
X64751172Y-173781236D01*
X64865104Y-173517113D01*
X65390315Y-173517113D01*
X66327465Y-172579963D01*
X67031743Y-172579963D01*
X68093818Y-173642038D01*
X69155892Y-172579963D01*
X69860170Y-172579963D01*
X70922245Y-173642038D01*
X71984319Y-172579963D01*
X72688597Y-172579963D01*
X73750672Y-173642038D01*
X74812746Y-172579963D01*
X73750672Y-171517889D01*
X72688597Y-172579963D01*
X71984319Y-172579963D01*
X70922245Y-171517889D01*
X69860170Y-172579963D01*
X69155892Y-172579963D01*
X68093818Y-171517889D01*
X67031743Y-172579963D01*
X66327465Y-172579963D01*
X65458494Y-171710992D01*
X65459893Y-171716210D01*
X65460771Y-171719689D01*
X65464115Y-171733787D01*
X65464902Y-171737331D01*
X65466376Y-171744470D01*
X65467053Y-171748012D01*
X65527220Y-172089238D01*
X65527794Y-172092795D01*
X65528850Y-172100003D01*
X65529324Y-172103600D01*
X65531004Y-172117991D01*
X65531368Y-172121558D01*
X65532001Y-172128791D01*
X65532263Y-172132392D01*
X65552408Y-172478276D01*
X65552565Y-172481872D01*
X65552777Y-172489142D01*
X65552830Y-172492756D01*
X65552830Y-172507244D01*
X65552777Y-172510858D01*
X65552565Y-172518128D01*
X65552408Y-172521724D01*
X65532263Y-172867608D01*
X65532001Y-172871209D01*
X65531368Y-172878442D01*
X65531004Y-172882009D01*
X65529324Y-172896400D01*
X65528850Y-172899997D01*
X65527794Y-172907205D01*
X65527220Y-172910762D01*
X65467053Y-173251988D01*
X65466376Y-173255530D01*
X65464902Y-173262669D01*
X65464115Y-173266213D01*
X65460771Y-173280311D01*
X65459893Y-173283790D01*
X65458015Y-173290798D01*
X65457032Y-173294264D01*
X65390315Y-173517113D01*
X64865104Y-173517113D01*
X64882663Y-173476408D01*
X64977878Y-173158365D01*
X64977881Y-173158351D01*
X65035525Y-172831437D01*
X65035526Y-172831426D01*
X65054830Y-172500003D01*
X65054830Y-172499996D01*
X65035526Y-172168573D01*
X65035525Y-172168562D01*
X64977881Y-171841648D01*
X64977878Y-171841634D01*
X64882663Y-171523591D01*
X64751172Y-171218763D01*
X64751166Y-171218750D01*
X64720567Y-171165750D01*
X65617529Y-171165750D01*
X66679604Y-172227824D01*
X67741679Y-171165750D01*
X68445957Y-171165750D01*
X69508031Y-172227824D01*
X70570106Y-171165750D01*
X71274384Y-171165750D01*
X72336459Y-172227825D01*
X73398534Y-171165750D01*
X74102811Y-171165750D01*
X75164886Y-172227825D01*
X76084000Y-171308711D01*
X76084000Y-171022789D01*
X75164886Y-170103675D01*
X74102811Y-171165750D01*
X73398534Y-171165750D01*
X72336459Y-170103675D01*
X71274384Y-171165750D01*
X70570106Y-171165750D01*
X69508031Y-170103675D01*
X68445957Y-171165750D01*
X67741679Y-171165750D01*
X66679604Y-170103675D01*
X65617529Y-171165750D01*
X64720567Y-171165750D01*
X64585172Y-170931239D01*
X64387642Y-170665910D01*
X63314925Y-171738626D01*
X63238110Y-171628922D01*
X63071078Y-171461890D01*
X62961372Y-171385073D01*
X64030709Y-170315736D01*
X64030709Y-170315735D01*
X63904784Y-170210074D01*
X63627411Y-170027643D01*
X63330747Y-169878652D01*
X63330741Y-169878649D01*
X63018786Y-169765107D01*
X63018765Y-169765100D01*
X62961535Y-169751536D01*
X64203316Y-169751536D01*
X65265391Y-170813611D01*
X66327465Y-169751536D01*
X67031743Y-169751536D01*
X68093818Y-170813611D01*
X69155892Y-169751536D01*
X69860170Y-169751536D01*
X70922245Y-170813611D01*
X71984319Y-169751536D01*
X72688597Y-169751536D01*
X73750672Y-170813611D01*
X74812746Y-169751536D01*
X73750672Y-168689461D01*
X72688597Y-169751536D01*
X71984319Y-169751536D01*
X70922245Y-168689461D01*
X69860170Y-169751536D01*
X69155892Y-169751536D01*
X68093818Y-168689461D01*
X67031743Y-169751536D01*
X66327465Y-169751536D01*
X65265391Y-168689461D01*
X64203316Y-169751536D01*
X62961535Y-169751536D01*
X62695751Y-169688543D01*
X62695736Y-169688541D01*
X62365987Y-169650000D01*
X62034013Y-169650000D01*
X61704263Y-169688541D01*
X61704248Y-169688543D01*
X61381234Y-169765100D01*
X61381213Y-169765107D01*
X61069258Y-169878649D01*
X61069252Y-169878652D01*
X60772581Y-170027646D01*
X60495220Y-170210070D01*
X60495213Y-170210075D01*
X60369289Y-170315735D01*
X61438627Y-171385073D01*
X61328922Y-171461890D01*
X61161890Y-171628922D01*
X61085073Y-171738627D01*
X60012357Y-170665911D01*
X60012356Y-170665911D01*
X59814829Y-170931236D01*
X59814825Y-170931242D01*
X59648833Y-171218750D01*
X59648827Y-171218763D01*
X59517336Y-171523591D01*
X59422121Y-171841634D01*
X59422118Y-171841648D01*
X59364474Y-172168562D01*
X59364473Y-172168573D01*
X59345170Y-172499996D01*
X59345170Y-172500003D01*
X59364473Y-172831426D01*
X59364474Y-172831437D01*
X59422118Y-173158351D01*
X59422121Y-173158365D01*
X59517336Y-173476408D01*
X59648827Y-173781236D01*
X59648833Y-173781249D01*
X59814824Y-174068755D01*
X60012357Y-174334087D01*
X61085073Y-173261372D01*
X61161890Y-173371078D01*
X61328922Y-173538110D01*
X61438626Y-173614925D01*
X60369289Y-174684263D01*
X60495218Y-174789928D01*
X60495223Y-174789932D01*
X60771892Y-174971900D01*
X60817086Y-175025185D01*
X60826297Y-175094444D01*
X60796602Y-175157689D01*
X60737427Y-175194840D01*
X60703753Y-175199500D01*
X46724500Y-175199500D01*
X46657461Y-175179815D01*
X46611706Y-175127011D01*
X46600500Y-175075500D01*
X46600500Y-173157487D01*
X47106000Y-173157487D01*
X47106000Y-174701500D01*
X47235367Y-174701500D01*
X47942689Y-173994177D01*
X48646967Y-173994177D01*
X49354290Y-174701500D01*
X50063794Y-174701500D01*
X50771117Y-173994177D01*
X51475394Y-173994177D01*
X52182717Y-174701500D01*
X52892221Y-174701500D01*
X53599544Y-173994177D01*
X54303821Y-173994177D01*
X55011144Y-174701500D01*
X55720648Y-174701500D01*
X56427971Y-173994177D01*
X57132248Y-173994177D01*
X57839571Y-174701500D01*
X58549075Y-174701500D01*
X59218567Y-174032006D01*
X59213931Y-174023975D01*
X59212176Y-174020832D01*
X59208729Y-174014440D01*
X59207065Y-174011243D01*
X59200562Y-173998297D01*
X59198992Y-173995054D01*
X59195913Y-173988453D01*
X59194430Y-173985150D01*
X59154269Y-173892048D01*
X58194323Y-172932102D01*
X57132248Y-173994177D01*
X56427971Y-173994177D01*
X55365896Y-172932102D01*
X54303821Y-173994177D01*
X53599544Y-173994177D01*
X52537469Y-172932102D01*
X51475394Y-173994177D01*
X50771117Y-173994177D01*
X49709042Y-172932102D01*
X48646967Y-173994177D01*
X47942689Y-173994177D01*
X47106000Y-173157487D01*
X46600500Y-173157487D01*
X46600500Y-172579963D01*
X47232753Y-172579963D01*
X48294828Y-173642038D01*
X49356902Y-172579963D01*
X50061180Y-172579963D01*
X51123255Y-173642038D01*
X52185329Y-172579963D01*
X52889607Y-172579963D01*
X53951682Y-173642038D01*
X55013756Y-172579963D01*
X55718035Y-172579963D01*
X56780109Y-173642038D01*
X57842184Y-172579963D01*
X56780109Y-171517889D01*
X55718035Y-172579963D01*
X55013756Y-172579963D01*
X53951682Y-171517889D01*
X52889607Y-172579963D01*
X52185329Y-172579963D01*
X51123255Y-171517889D01*
X50061180Y-172579963D01*
X49356902Y-172579963D01*
X48294828Y-171517889D01*
X47232753Y-172579963D01*
X46600500Y-172579963D01*
X46600500Y-170329060D01*
X47106000Y-170329060D01*
X47106000Y-172002439D01*
X47942688Y-171165750D01*
X48646967Y-171165750D01*
X49709042Y-172227825D01*
X50771117Y-171165750D01*
X51475394Y-171165750D01*
X52537469Y-172227825D01*
X53599544Y-171165750D01*
X54303821Y-171165750D01*
X55365896Y-172227825D01*
X56427971Y-171165750D01*
X57132248Y-171165750D01*
X58194322Y-172227824D01*
X59039777Y-171382369D01*
X59042336Y-171373823D01*
X59043418Y-171370391D01*
X59045705Y-171363488D01*
X59046893Y-171360070D01*
X59051849Y-171346455D01*
X59053124Y-171343103D01*
X59055809Y-171336342D01*
X59057195Y-171332995D01*
X59167629Y-171076981D01*
X58194323Y-170103675D01*
X57132248Y-171165750D01*
X56427971Y-171165750D01*
X55365896Y-170103675D01*
X54303821Y-171165750D01*
X53599544Y-171165750D01*
X52537469Y-170103675D01*
X51475394Y-171165750D01*
X50771117Y-171165750D01*
X49709042Y-170103675D01*
X48646967Y-171165750D01*
X47942688Y-171165750D01*
X47942689Y-171165749D01*
X47106000Y-170329060D01*
X46600500Y-170329060D01*
X46600500Y-169751536D01*
X47232753Y-169751536D01*
X48294828Y-170813611D01*
X49356902Y-169751536D01*
X50061180Y-169751536D01*
X51123255Y-170813611D01*
X52185329Y-169751536D01*
X52889607Y-169751536D01*
X53951682Y-170813610D01*
X55013756Y-169751536D01*
X55718035Y-169751536D01*
X56780109Y-170813610D01*
X57842184Y-169751536D01*
X58546462Y-169751536D01*
X59421093Y-170626167D01*
X59679302Y-170279333D01*
X59719122Y-170244666D01*
X59814634Y-170192266D01*
X59865266Y-170177308D01*
X59879176Y-170176294D01*
X59889107Y-170137547D01*
X59935610Y-170043250D01*
X59967117Y-170003105D01*
X60180658Y-169823926D01*
X60183455Y-169821647D01*
X60189159Y-169817137D01*
X60192022Y-169814941D01*
X60203643Y-169806290D01*
X60206555Y-169804187D01*
X60212512Y-169800015D01*
X60215506Y-169797983D01*
X60504984Y-169607590D01*
X60508035Y-169605646D01*
X60514231Y-169601825D01*
X60517327Y-169599978D01*
X60518421Y-169599345D01*
X59608537Y-168689461D01*
X58546462Y-169751536D01*
X57842184Y-169751536D01*
X56780109Y-168689461D01*
X55718035Y-169751536D01*
X55013756Y-169751536D01*
X53951682Y-168689461D01*
X52889607Y-169751536D01*
X52185329Y-169751536D01*
X51123255Y-168689461D01*
X50061180Y-169751536D01*
X49356902Y-169751536D01*
X48294828Y-168689461D01*
X47232753Y-169751536D01*
X46600500Y-169751536D01*
X46600500Y-167756000D01*
X47106000Y-167756000D01*
X47106000Y-169174012D01*
X47942688Y-168337323D01*
X48646967Y-168337323D01*
X49709042Y-169399398D01*
X50771117Y-168337323D01*
X51475394Y-168337323D01*
X52537469Y-169399398D01*
X53599544Y-168337323D01*
X54303821Y-168337323D01*
X55365896Y-169399398D01*
X56427971Y-168337323D01*
X57132248Y-168337323D01*
X58194323Y-169399398D01*
X59256398Y-168337323D01*
X59960675Y-168337323D01*
X60997982Y-169374630D01*
X61075862Y-169346284D01*
X62084823Y-168337323D01*
X62789102Y-168337323D01*
X63851177Y-169399398D01*
X64913252Y-168337323D01*
X64913251Y-168337322D01*
X65617529Y-168337322D01*
X66679604Y-169399397D01*
X67741679Y-168337323D01*
X68445957Y-168337323D01*
X69508031Y-169399397D01*
X70570105Y-168337323D01*
X71274384Y-168337323D01*
X72336459Y-169399398D01*
X73398534Y-168337323D01*
X74102811Y-168337323D01*
X75164886Y-169399398D01*
X76084000Y-168480284D01*
X76084000Y-168194362D01*
X75645638Y-167756000D01*
X74684134Y-167756000D01*
X74102811Y-168337323D01*
X73398534Y-168337323D01*
X72817211Y-167756000D01*
X71855707Y-167756000D01*
X71274384Y-168337323D01*
X70570105Y-168337323D01*
X70570106Y-168337322D01*
X69988784Y-167756000D01*
X69027280Y-167756000D01*
X68445957Y-168337323D01*
X67741679Y-168337323D01*
X67160356Y-167756000D01*
X66198852Y-167756000D01*
X65617529Y-168337322D01*
X64913251Y-168337322D01*
X64331929Y-167756000D01*
X63370425Y-167756000D01*
X62789102Y-168337323D01*
X62084823Y-168337323D01*
X62084824Y-168337322D01*
X61503502Y-167756000D01*
X60541998Y-167756000D01*
X59960675Y-168337323D01*
X59256398Y-168337323D01*
X58675075Y-167756000D01*
X57713571Y-167756000D01*
X57132248Y-168337323D01*
X56427971Y-168337323D01*
X55846648Y-167756000D01*
X54885144Y-167756000D01*
X54303821Y-168337323D01*
X53599544Y-168337323D01*
X53018221Y-167756000D01*
X52056717Y-167756000D01*
X51475394Y-168337323D01*
X50771117Y-168337323D01*
X50189794Y-167756000D01*
X49228290Y-167756000D01*
X48646967Y-168337323D01*
X47942688Y-168337323D01*
X47942689Y-168337322D01*
X47361367Y-167756000D01*
X47106000Y-167756000D01*
X46600500Y-167756000D01*
X46600500Y-167256000D01*
X46620185Y-167188961D01*
X46672989Y-167143206D01*
X46724500Y-167132000D01*
X76475500Y-167132000D01*
X76542539Y-167151685D01*
G37*
%TD.AperFunction*%
%TD*%
%TA.AperFunction,Conductor*%
%TO.N,GND*%
G36*
X60618750Y-47420185D02*
G01*
X60664505Y-47472989D01*
X60674449Y-47542147D01*
X60645424Y-47605703D01*
X60619850Y-47628100D01*
X60495220Y-47710070D01*
X60495213Y-47710075D01*
X60369289Y-47815735D01*
X61438627Y-48885073D01*
X61328922Y-48961890D01*
X61161890Y-49128922D01*
X61085073Y-49238627D01*
X60012357Y-48165911D01*
X60012356Y-48165911D01*
X59814829Y-48431236D01*
X59814825Y-48431242D01*
X59648833Y-48718750D01*
X59648827Y-48718763D01*
X59517336Y-49023591D01*
X59422121Y-49341634D01*
X59422118Y-49341648D01*
X59364474Y-49668562D01*
X59364473Y-49668573D01*
X59345170Y-49999996D01*
X59345170Y-50000003D01*
X59364473Y-50331426D01*
X59364474Y-50331437D01*
X59422118Y-50658351D01*
X59422121Y-50658365D01*
X59517336Y-50976408D01*
X59648827Y-51281236D01*
X59648833Y-51281249D01*
X59814824Y-51568755D01*
X60012357Y-51834087D01*
X61085073Y-50761372D01*
X61161890Y-50871078D01*
X61328922Y-51038110D01*
X61438626Y-51114925D01*
X60369289Y-52184263D01*
X60495215Y-52289925D01*
X60772588Y-52472356D01*
X61069252Y-52621347D01*
X61069258Y-52621350D01*
X61381213Y-52734892D01*
X61381234Y-52734899D01*
X61704248Y-52811456D01*
X61704263Y-52811458D01*
X62034012Y-52849999D01*
X62034013Y-52850000D01*
X62365987Y-52850000D01*
X62365987Y-52849999D01*
X62695736Y-52811458D01*
X62695751Y-52811456D01*
X63018765Y-52734899D01*
X63018786Y-52734892D01*
X63330741Y-52621350D01*
X63330747Y-52621347D01*
X63627411Y-52472356D01*
X63904789Y-52289922D01*
X64030708Y-52184263D01*
X64030709Y-52184262D01*
X62961373Y-51114925D01*
X63071078Y-51038110D01*
X63238110Y-50871078D01*
X63314926Y-50761373D01*
X64387641Y-51834088D01*
X64585175Y-51568756D01*
X64617221Y-51513250D01*
X65538529Y-51513250D01*
X66600604Y-52575325D01*
X67662679Y-51513250D01*
X68366956Y-51513250D01*
X69429031Y-52575325D01*
X70491106Y-51513250D01*
X71195383Y-51513250D01*
X72257458Y-52575325D01*
X73319533Y-51513250D01*
X74023810Y-51513250D01*
X75085885Y-52575325D01*
X76084000Y-51577210D01*
X76084000Y-51449290D01*
X75085885Y-50451175D01*
X74023810Y-51513250D01*
X73319533Y-51513250D01*
X72257458Y-50451175D01*
X71195383Y-51513250D01*
X70491106Y-51513250D01*
X69429031Y-50451175D01*
X68366956Y-51513250D01*
X67662679Y-51513250D01*
X66600604Y-50451175D01*
X65538529Y-51513250D01*
X64617221Y-51513250D01*
X64751166Y-51281249D01*
X64751172Y-51281236D01*
X64882663Y-50976408D01*
X64896084Y-50931578D01*
X65415923Y-50931578D01*
X66248464Y-50099036D01*
X66952742Y-50099036D01*
X68014817Y-51161111D01*
X69076891Y-50099036D01*
X69781169Y-50099036D01*
X70843244Y-51161111D01*
X71905318Y-50099036D01*
X72609597Y-50099036D01*
X73671671Y-51161111D01*
X74733746Y-50099036D01*
X73671671Y-49036962D01*
X72609597Y-50099036D01*
X71905318Y-50099036D01*
X70843244Y-49036962D01*
X69781169Y-50099036D01*
X69076891Y-50099036D01*
X68014817Y-49036962D01*
X66952742Y-50099036D01*
X66248464Y-50099036D01*
X65481955Y-49332527D01*
X65527220Y-49589238D01*
X65527794Y-49592795D01*
X65528850Y-49600003D01*
X65529324Y-49603600D01*
X65531004Y-49617991D01*
X65531368Y-49621558D01*
X65532001Y-49628791D01*
X65532263Y-49632392D01*
X65552408Y-49978276D01*
X65552565Y-49981872D01*
X65552777Y-49989142D01*
X65552830Y-49992756D01*
X65552830Y-50007244D01*
X65552777Y-50010858D01*
X65552565Y-50018128D01*
X65552408Y-50021724D01*
X65532263Y-50367608D01*
X65532001Y-50371209D01*
X65531368Y-50378442D01*
X65531004Y-50382009D01*
X65529324Y-50396400D01*
X65528850Y-50399997D01*
X65527794Y-50407205D01*
X65527220Y-50410762D01*
X65467053Y-50751988D01*
X65466376Y-50755530D01*
X65464902Y-50762669D01*
X65464115Y-50766213D01*
X65460771Y-50780311D01*
X65459893Y-50783790D01*
X65458015Y-50790798D01*
X65457032Y-50794264D01*
X65415923Y-50931578D01*
X64896084Y-50931578D01*
X64977878Y-50658365D01*
X64977881Y-50658351D01*
X65035525Y-50331437D01*
X65035526Y-50331426D01*
X65054830Y-50000003D01*
X65054830Y-49999996D01*
X65035526Y-49668573D01*
X65035525Y-49668562D01*
X64977881Y-49341648D01*
X64977878Y-49341634D01*
X64882663Y-49023591D01*
X64751172Y-48718763D01*
X64751166Y-48718750D01*
X64731578Y-48684823D01*
X65538529Y-48684823D01*
X66600604Y-49746898D01*
X67662679Y-48684823D01*
X68366956Y-48684823D01*
X69429031Y-49746898D01*
X70491106Y-48684823D01*
X71195383Y-48684823D01*
X72257458Y-49746898D01*
X73319533Y-48684823D01*
X74023810Y-48684823D01*
X75085885Y-49746898D01*
X76084000Y-48748783D01*
X76084000Y-48620863D01*
X75361637Y-47898500D01*
X74810133Y-47898500D01*
X74023810Y-48684823D01*
X73319533Y-48684823D01*
X72533210Y-47898500D01*
X71981706Y-47898500D01*
X71195383Y-48684823D01*
X70491106Y-48684823D01*
X69704783Y-47898500D01*
X69153279Y-47898500D01*
X68366956Y-48684823D01*
X67662679Y-48684823D01*
X66876356Y-47898500D01*
X66324852Y-47898500D01*
X65538529Y-48684823D01*
X64731578Y-48684823D01*
X64585172Y-48431239D01*
X64387642Y-48165910D01*
X63314925Y-49238626D01*
X63238110Y-49128922D01*
X63071078Y-48961890D01*
X62961372Y-48885073D01*
X64030709Y-47815736D01*
X64030709Y-47815735D01*
X63904781Y-47710071D01*
X63904776Y-47710067D01*
X63780151Y-47628100D01*
X63734957Y-47574815D01*
X63725746Y-47505555D01*
X63755441Y-47442310D01*
X63814616Y-47405160D01*
X63848290Y-47400500D01*
X76475500Y-47400500D01*
X76542539Y-47420185D01*
X76588294Y-47472989D01*
X76599500Y-47524500D01*
X76599500Y-55502000D01*
X76579815Y-55569039D01*
X76527011Y-55614794D01*
X76475500Y-55626000D01*
X46724500Y-55626000D01*
X46657461Y-55606315D01*
X46611706Y-55553511D01*
X46600500Y-55502000D01*
X46600500Y-53583988D01*
X47106000Y-53583988D01*
X47106000Y-55002000D01*
X47203366Y-55002000D01*
X47863689Y-54341677D01*
X48567966Y-54341677D01*
X49228289Y-55002000D01*
X50031793Y-55002000D01*
X50692116Y-54341677D01*
X51396393Y-54341677D01*
X52056716Y-55002000D01*
X52860220Y-55002000D01*
X53520543Y-54341677D01*
X54224820Y-54341677D01*
X54885143Y-55002000D01*
X55688647Y-55002000D01*
X56348970Y-54341677D01*
X57053247Y-54341677D01*
X57713570Y-55002000D01*
X58517074Y-55002000D01*
X59177397Y-54341677D01*
X59881674Y-54341677D01*
X60541997Y-55002000D01*
X61345501Y-55002000D01*
X62005824Y-54341677D01*
X62710102Y-54341677D01*
X63370425Y-55002000D01*
X64173929Y-55002000D01*
X64834251Y-54341677D01*
X65538529Y-54341677D01*
X66198852Y-55002000D01*
X67002356Y-55002000D01*
X67662679Y-54341677D01*
X68366956Y-54341677D01*
X69027279Y-55002000D01*
X69830783Y-55002000D01*
X70491106Y-54341677D01*
X71195383Y-54341677D01*
X71855706Y-55002000D01*
X72659210Y-55002000D01*
X73319533Y-54341677D01*
X74023810Y-54341677D01*
X74684133Y-55002000D01*
X75487637Y-55002000D01*
X76084000Y-54405637D01*
X76084000Y-54277717D01*
X75085885Y-53279602D01*
X74023810Y-54341677D01*
X73319533Y-54341677D01*
X72257458Y-53279602D01*
X71195383Y-54341677D01*
X70491106Y-54341677D01*
X69429031Y-53279602D01*
X68366956Y-54341677D01*
X67662679Y-54341677D01*
X66600604Y-53279602D01*
X65538529Y-54341677D01*
X64834251Y-54341677D01*
X63772176Y-53279602D01*
X62710102Y-54341677D01*
X62005824Y-54341677D01*
X60973954Y-53309807D01*
X61678231Y-53309807D01*
X62357963Y-53989539D01*
X63126292Y-53221209D01*
X62803534Y-53297706D01*
X62800009Y-53298488D01*
X62792884Y-53299959D01*
X62789343Y-53300636D01*
X62775073Y-53303152D01*
X62771517Y-53303726D01*
X62764323Y-53304780D01*
X62760743Y-53305252D01*
X62416615Y-53345473D01*
X62413042Y-53345838D01*
X62405805Y-53346472D01*
X62402198Y-53346735D01*
X62387734Y-53347578D01*
X62384130Y-53347735D01*
X62376853Y-53347947D01*
X62373242Y-53348000D01*
X62026758Y-53348000D01*
X62023147Y-53347947D01*
X62015870Y-53347735D01*
X62012266Y-53347578D01*
X61997802Y-53346735D01*
X61994195Y-53346472D01*
X61986958Y-53345838D01*
X61983385Y-53345473D01*
X61678231Y-53309807D01*
X60973954Y-53309807D01*
X60943749Y-53279602D01*
X59881674Y-54341677D01*
X59177397Y-54341677D01*
X58115322Y-53279602D01*
X57053247Y-54341677D01*
X56348970Y-54341677D01*
X55286895Y-53279602D01*
X54224820Y-54341677D01*
X53520543Y-54341677D01*
X52458468Y-53279602D01*
X51396393Y-54341677D01*
X50692116Y-54341677D01*
X49630041Y-53279602D01*
X48567966Y-54341677D01*
X47863689Y-54341677D01*
X47106000Y-53583988D01*
X46600500Y-53583988D01*
X46600500Y-52927463D01*
X47153752Y-52927463D01*
X48215827Y-53989538D01*
X49277902Y-52927464D01*
X49982180Y-52927464D01*
X51044254Y-53989538D01*
X52106329Y-52927464D01*
X52810607Y-52927464D01*
X53872681Y-53989538D01*
X54934756Y-52927464D01*
X55639034Y-52927464D01*
X56701109Y-53989539D01*
X57763184Y-52927464D01*
X57763183Y-52927463D01*
X58467460Y-52927463D01*
X59529536Y-53989539D01*
X60584103Y-52934971D01*
X60569156Y-52927464D01*
X64124315Y-52927464D01*
X65186390Y-53989539D01*
X66248465Y-52927464D01*
X66952742Y-52927464D01*
X68014817Y-53989539D01*
X69076892Y-52927464D01*
X69781169Y-52927464D01*
X70843244Y-53989538D01*
X71905319Y-52927464D01*
X72609597Y-52927464D01*
X73671671Y-53989538D01*
X74733746Y-52927464D01*
X73671671Y-51865389D01*
X72609597Y-52927464D01*
X71905319Y-52927464D01*
X70843244Y-51865389D01*
X69781169Y-52927464D01*
X69076892Y-52927464D01*
X68014817Y-51865389D01*
X66952742Y-52927464D01*
X66248465Y-52927464D01*
X65186390Y-51865389D01*
X64124315Y-52927464D01*
X60569156Y-52927464D01*
X60542612Y-52914133D01*
X60539415Y-52912469D01*
X60533020Y-52909021D01*
X60529876Y-52907266D01*
X60517327Y-52900022D01*
X60514224Y-52898170D01*
X60508029Y-52894349D01*
X60504985Y-52892411D01*
X60215501Y-52702015D01*
X60212502Y-52699979D01*
X60206537Y-52695801D01*
X60203621Y-52693694D01*
X60192001Y-52685042D01*
X60189144Y-52682850D01*
X60183448Y-52678346D01*
X60180654Y-52676070D01*
X59967116Y-52496893D01*
X59935609Y-52456747D01*
X59889107Y-52362451D01*
X59879176Y-52323704D01*
X59865267Y-52322691D01*
X59814635Y-52307733D01*
X59719124Y-52255334D01*
X59679303Y-52220668D01*
X59463768Y-51931155D01*
X58467460Y-52927463D01*
X57763183Y-52927463D01*
X56701109Y-51865389D01*
X55639034Y-52927464D01*
X54934756Y-52927464D01*
X53872681Y-51865389D01*
X52810607Y-52927464D01*
X52106329Y-52927464D01*
X51044254Y-51865389D01*
X49982180Y-52927464D01*
X49277902Y-52927464D01*
X48215827Y-51865389D01*
X47153752Y-52927463D01*
X46600500Y-52927463D01*
X46600500Y-50755561D01*
X47106000Y-50755561D01*
X47106000Y-52270939D01*
X47863689Y-51513250D01*
X48567966Y-51513250D01*
X49630041Y-52575325D01*
X50692116Y-51513250D01*
X51396393Y-51513250D01*
X52458468Y-52575325D01*
X53520543Y-51513250D01*
X54224820Y-51513250D01*
X55286895Y-52575325D01*
X56348970Y-51513250D01*
X57053247Y-51513250D01*
X58115321Y-52575324D01*
X59177396Y-51513249D01*
X58115322Y-50451175D01*
X57053247Y-51513250D01*
X56348970Y-51513250D01*
X55286895Y-50451175D01*
X54224820Y-51513250D01*
X53520543Y-51513250D01*
X52458468Y-50451175D01*
X51396393Y-51513250D01*
X50692116Y-51513250D01*
X49630041Y-50451175D01*
X48567966Y-51513250D01*
X47863689Y-51513250D01*
X47106000Y-50755561D01*
X46600500Y-50755561D01*
X46600500Y-50099036D01*
X47153752Y-50099036D01*
X48215827Y-51161111D01*
X49277901Y-50099036D01*
X49982180Y-50099036D01*
X51044254Y-51161111D01*
X52106329Y-50099036D01*
X52810607Y-50099036D01*
X53872681Y-51161111D01*
X54934756Y-50099036D01*
X55639034Y-50099036D01*
X56701109Y-51161111D01*
X57763183Y-50099036D01*
X56701109Y-49036962D01*
X55639034Y-50099036D01*
X54934756Y-50099036D01*
X53872681Y-49036962D01*
X52810607Y-50099036D01*
X52106329Y-50099036D01*
X51044254Y-49036962D01*
X49982180Y-50099036D01*
X49277901Y-50099036D01*
X48215827Y-49036962D01*
X47153752Y-50099036D01*
X46600500Y-50099036D01*
X46600500Y-47927134D01*
X47106000Y-47927134D01*
X47106000Y-49442512D01*
X47863689Y-48684823D01*
X48567966Y-48684823D01*
X49630041Y-49746898D01*
X50692116Y-48684823D01*
X51396393Y-48684823D01*
X52458468Y-49746898D01*
X53520543Y-48684823D01*
X54224820Y-48684823D01*
X55286895Y-49746898D01*
X56348970Y-48684823D01*
X57053247Y-48684823D01*
X58115321Y-49746897D01*
X59078412Y-48783806D01*
X59138072Y-48645498D01*
X58391074Y-47898500D01*
X57839570Y-47898500D01*
X57053247Y-48684823D01*
X56348970Y-48684823D01*
X55562647Y-47898500D01*
X55011143Y-47898500D01*
X54224820Y-48684823D01*
X53520543Y-48684823D01*
X52734220Y-47898500D01*
X52182716Y-47898500D01*
X51396393Y-48684823D01*
X50692116Y-48684823D01*
X49905793Y-47898500D01*
X49354289Y-47898500D01*
X48567966Y-48684823D01*
X47863689Y-48684823D01*
X47106000Y-47927134D01*
X46600500Y-47927134D01*
X46600500Y-47524500D01*
X46620185Y-47457461D01*
X46672989Y-47411706D01*
X46724500Y-47400500D01*
X60551711Y-47400500D01*
X60618750Y-47420185D01*
G37*
%TD.AperFunction*%
%TD*%
%TA.AperFunction,Conductor*%
%TO.N,+5V*%
G36*
X76542539Y-56159185D02*
G01*
X76588294Y-56211989D01*
X76599500Y-56263500D01*
X76599500Y-166246000D01*
X76579815Y-166313039D01*
X76527011Y-166358794D01*
X76475500Y-166370000D01*
X71344500Y-166370000D01*
X71277461Y-166350315D01*
X71231706Y-166297511D01*
X71220500Y-166246000D01*
X71220500Y-165139522D01*
X71240185Y-165072483D01*
X71252350Y-165056550D01*
X71351040Y-164946944D01*
X71446527Y-164781556D01*
X71505542Y-164599928D01*
X71523450Y-164429536D01*
X71550035Y-164364924D01*
X71607332Y-164324939D01*
X71646771Y-164318500D01*
X73725798Y-164318500D01*
X73725800Y-164318500D01*
X73725802Y-164318499D01*
X73725821Y-164318499D01*
X73867360Y-164307891D01*
X73922826Y-164303735D01*
X74179780Y-164245087D01*
X74425124Y-164148796D01*
X74653376Y-164017015D01*
X74859438Y-163852686D01*
X74859446Y-163852678D01*
X74928228Y-163778548D01*
X75038706Y-163659481D01*
X75187176Y-163441716D01*
X75301532Y-163204254D01*
X75379218Y-162952400D01*
X75418500Y-162691781D01*
X75418500Y-162622539D01*
X75418972Y-162611731D01*
X75423498Y-162560000D01*
X75423498Y-162559998D01*
X75418972Y-162508266D01*
X75418500Y-162497459D01*
X75418500Y-162428220D01*
X75418499Y-162428211D01*
X75379219Y-162167604D01*
X75379217Y-162167598D01*
X75301532Y-161915746D01*
X75187176Y-161678285D01*
X75038706Y-161460519D01*
X74964676Y-161380733D01*
X74859442Y-161267317D01*
X74819810Y-161235712D01*
X74653376Y-161102985D01*
X74425124Y-160971204D01*
X74179780Y-160874913D01*
X74179771Y-160874911D01*
X74179768Y-160874910D01*
X73922823Y-160816264D01*
X73725821Y-160801500D01*
X73725800Y-160801500D01*
X69439756Y-160801500D01*
X69372717Y-160781815D01*
X69352075Y-160765181D01*
X68608792Y-160021898D01*
X67921401Y-159334507D01*
X67887918Y-159273186D01*
X67892902Y-159203494D01*
X67934774Y-159147561D01*
X68000238Y-159123144D01*
X68054387Y-159131400D01*
X68140211Y-159165084D01*
X68140215Y-159165085D01*
X68140220Y-159165087D01*
X68140229Y-159165089D01*
X68165632Y-159170887D01*
X68178999Y-159174738D01*
X68203586Y-159183342D01*
X68203588Y-159183342D01*
X68203590Y-159183343D01*
X68298514Y-159201302D01*
X68302983Y-159202235D01*
X68397174Y-159223735D01*
X68423176Y-159225683D01*
X68436937Y-159227495D01*
X68462558Y-159232343D01*
X68559102Y-159235954D01*
X68563636Y-159236208D01*
X68594200Y-159238500D01*
X68624794Y-159238500D01*
X68629431Y-159238587D01*
X68725934Y-159242198D01*
X68725934Y-159242197D01*
X68725936Y-159242198D01*
X68751833Y-159239279D01*
X68765718Y-159238500D01*
X73725798Y-159238500D01*
X73725800Y-159238500D01*
X73725802Y-159238499D01*
X73725821Y-159238499D01*
X73872625Y-159227497D01*
X73922826Y-159223735D01*
X74179780Y-159165087D01*
X74425124Y-159068796D01*
X74653376Y-158937015D01*
X74859438Y-158772686D01*
X75038706Y-158579481D01*
X75187176Y-158361716D01*
X75301532Y-158124254D01*
X75379218Y-157872400D01*
X75418500Y-157611781D01*
X75418500Y-157542539D01*
X75418972Y-157531731D01*
X75423498Y-157480000D01*
X75423498Y-157479998D01*
X75418972Y-157428266D01*
X75418500Y-157417459D01*
X75418500Y-157348220D01*
X75418499Y-157348211D01*
X75379219Y-157087604D01*
X75379217Y-157087598D01*
X75301532Y-156835746D01*
X75187176Y-156598285D01*
X75038706Y-156380519D01*
X74964676Y-156300733D01*
X74859442Y-156187317D01*
X74819810Y-156155712D01*
X74653376Y-156022985D01*
X74425124Y-155891204D01*
X74179780Y-155794913D01*
X74179771Y-155794911D01*
X74179768Y-155794910D01*
X73922823Y-155736264D01*
X73725821Y-155721500D01*
X73725800Y-155721500D01*
X71660876Y-155721500D01*
X71593837Y-155701815D01*
X71548082Y-155649011D01*
X71536876Y-155597500D01*
X71536876Y-150077582D01*
X71536963Y-150072945D01*
X71540574Y-149976440D01*
X71529756Y-149880440D01*
X71529327Y-149875852D01*
X71522112Y-149779559D01*
X71522111Y-149779556D01*
X71522111Y-149779550D01*
X71516306Y-149754121D01*
X71513982Y-149740437D01*
X71511064Y-149714534D01*
X71486054Y-149621198D01*
X71484957Y-149616770D01*
X71474747Y-149572035D01*
X71463467Y-149522611D01*
X71463465Y-149522606D01*
X71463463Y-149522596D01*
X71453933Y-149498316D01*
X71449598Y-149485142D01*
X71442849Y-149459952D01*
X71404211Y-149371394D01*
X71402463Y-149367174D01*
X71367172Y-149277252D01*
X71354138Y-149254676D01*
X71347879Y-149242278D01*
X71337452Y-149218379D01*
X71286060Y-149136589D01*
X71283668Y-149132619D01*
X71235391Y-149049000D01*
X71219140Y-149028622D01*
X71211093Y-149017280D01*
X71197229Y-148995214D01*
X71134217Y-148921992D01*
X71131260Y-148918423D01*
X71108989Y-148890497D01*
X71071062Y-148842938D01*
X71071057Y-148842933D01*
X71071054Y-148842929D01*
X71000278Y-148777260D01*
X70996937Y-148774042D01*
X68324332Y-146101437D01*
X68321114Y-146098096D01*
X68255446Y-146027321D01*
X68255444Y-146027319D01*
X68255438Y-146027314D01*
X68179919Y-145967089D01*
X68176381Y-145964157D01*
X68148027Y-145939757D01*
X68103163Y-145901148D01*
X68094581Y-145895756D01*
X68081080Y-145887272D01*
X68069750Y-145879233D01*
X68049376Y-145862985D01*
X67965738Y-145814696D01*
X67961776Y-145812309D01*
X67880000Y-145760926D01*
X67879996Y-145760924D01*
X67856109Y-145750502D01*
X67843698Y-145744237D01*
X67821122Y-145731203D01*
X67731222Y-145695919D01*
X67726939Y-145694145D01*
X67638427Y-145655528D01*
X67638425Y-145655527D01*
X67638424Y-145655527D01*
X67613246Y-145648780D01*
X67600047Y-145644436D01*
X67575780Y-145634912D01*
X67494262Y-145616306D01*
X67481607Y-145613418D01*
X67477124Y-145612306D01*
X67457783Y-145607124D01*
X67383841Y-145587311D01*
X67357941Y-145584393D01*
X67344239Y-145582065D01*
X67334023Y-145579733D01*
X67318824Y-145576264D01*
X67318820Y-145576263D01*
X67222514Y-145569046D01*
X67217898Y-145568613D01*
X67121936Y-145557801D01*
X67025431Y-145561413D01*
X67020794Y-145561500D01*
X61990178Y-145561500D01*
X61793176Y-145576264D01*
X61536231Y-145634910D01*
X61536223Y-145634912D01*
X61536220Y-145634913D01*
X61536217Y-145634913D01*
X61536214Y-145634915D01*
X61290875Y-145731204D01*
X61062624Y-145862985D01*
X60856557Y-146027317D01*
X60677294Y-146220518D01*
X60528821Y-146438288D01*
X60414468Y-146675746D01*
X60414463Y-146675759D01*
X60336783Y-146927594D01*
X60336780Y-146927604D01*
X60297500Y-147188211D01*
X60297500Y-147257459D01*
X60297028Y-147268266D01*
X60292502Y-147319998D01*
X60292502Y-147320000D01*
X60297028Y-147371731D01*
X60297500Y-147382539D01*
X60297500Y-147451788D01*
X60336780Y-147712395D01*
X60336782Y-147712400D01*
X60414468Y-147964254D01*
X60528824Y-148201715D01*
X60677294Y-148419481D01*
X60745082Y-148492539D01*
X60856557Y-148612682D01*
X60856561Y-148612685D01*
X60856562Y-148612686D01*
X61062624Y-148777015D01*
X61290876Y-148908796D01*
X61536220Y-149005087D01*
X61793174Y-149063735D01*
X61830151Y-149066506D01*
X61990178Y-149078499D01*
X61990197Y-149078499D01*
X61990200Y-149078500D01*
X66276243Y-149078500D01*
X66343282Y-149098185D01*
X66363924Y-149114819D01*
X67794595Y-150545490D01*
X67828080Y-150606813D01*
X67823096Y-150676505D01*
X67781224Y-150732438D01*
X67715760Y-150756855D01*
X67661614Y-150748600D01*
X67575780Y-150714913D01*
X67575777Y-150714912D01*
X67575774Y-150714911D01*
X67575771Y-150714910D01*
X67550366Y-150709112D01*
X67537008Y-150705264D01*
X67532476Y-150703678D01*
X67512410Y-150696657D01*
X67512407Y-150696656D01*
X67512406Y-150696656D01*
X67512399Y-150696654D01*
X67417534Y-150678705D01*
X67412995Y-150677758D01*
X67318833Y-150656266D01*
X67318828Y-150656265D01*
X67318826Y-150656265D01*
X67303546Y-150655119D01*
X67292831Y-150654316D01*
X67279057Y-150652502D01*
X67253446Y-150647657D01*
X67253436Y-150647656D01*
X67156930Y-150644045D01*
X67152300Y-150643785D01*
X67121819Y-150641500D01*
X67121800Y-150641500D01*
X67091206Y-150641500D01*
X67086569Y-150641413D01*
X66990065Y-150637801D01*
X66964167Y-150640720D01*
X66950282Y-150641500D01*
X61990178Y-150641500D01*
X61793176Y-150656264D01*
X61536231Y-150714910D01*
X61536223Y-150714912D01*
X61536220Y-150714913D01*
X61536217Y-150714913D01*
X61536214Y-150714915D01*
X61290875Y-150811204D01*
X61062624Y-150942985D01*
X60856557Y-151107317D01*
X60677294Y-151300518D01*
X60528821Y-151518288D01*
X60414468Y-151755746D01*
X60414463Y-151755759D01*
X60336783Y-152007594D01*
X60336780Y-152007604D01*
X60297500Y-152268211D01*
X60297500Y-152337459D01*
X60297028Y-152348266D01*
X60292502Y-152399998D01*
X60292502Y-152400000D01*
X60297028Y-152451731D01*
X60297500Y-152462539D01*
X60297500Y-152531788D01*
X60336780Y-152792395D01*
X60336782Y-152792400D01*
X60414468Y-153044254D01*
X60528824Y-153281715D01*
X60677294Y-153499481D01*
X60745082Y-153572539D01*
X60856557Y-153692682D01*
X60856561Y-153692685D01*
X60856562Y-153692686D01*
X61062624Y-153857015D01*
X61290876Y-153988796D01*
X61536220Y-154085087D01*
X61793174Y-154143735D01*
X61830151Y-154146506D01*
X61990178Y-154158499D01*
X61990197Y-154158499D01*
X61990200Y-154158500D01*
X64077500Y-154158500D01*
X64144539Y-154178185D01*
X64190294Y-154230989D01*
X64201500Y-154282500D01*
X64201500Y-159824792D01*
X64201413Y-159829429D01*
X64197801Y-159925936D01*
X64197801Y-159925937D01*
X64208613Y-160021898D01*
X64209046Y-160026514D01*
X64216263Y-160122820D01*
X64216264Y-160122824D01*
X64222064Y-160148233D01*
X64224393Y-160161941D01*
X64227311Y-160187841D01*
X64252304Y-160281115D01*
X64253420Y-160285615D01*
X64274912Y-160379780D01*
X64284436Y-160404047D01*
X64288781Y-160417249D01*
X64295528Y-160442427D01*
X64334145Y-160530939D01*
X64335919Y-160535222D01*
X64371203Y-160625122D01*
X64384237Y-160647698D01*
X64390502Y-160660109D01*
X64400924Y-160683996D01*
X64400926Y-160684000D01*
X64452309Y-160765776D01*
X64454696Y-160769738D01*
X64502985Y-160853376D01*
X64519233Y-160873750D01*
X64527276Y-160885085D01*
X64541148Y-160907163D01*
X64604146Y-160980367D01*
X64607089Y-160983919D01*
X64667314Y-161059438D01*
X64667319Y-161059444D01*
X64667321Y-161059446D01*
X64738096Y-161125114D01*
X64741437Y-161128332D01*
X67391654Y-163778548D01*
X67394872Y-163781889D01*
X67460553Y-163852678D01*
X67460559Y-163852682D01*
X67460562Y-163852686D01*
X67536094Y-163912920D01*
X67539596Y-163915821D01*
X67612839Y-163978853D01*
X67634912Y-163992722D01*
X67646247Y-164000765D01*
X67666614Y-164017008D01*
X67666619Y-164017011D01*
X67666624Y-164017015D01*
X67750238Y-164065289D01*
X67754208Y-164067680D01*
X67836004Y-164119077D01*
X67859906Y-164129505D01*
X67872296Y-164135759D01*
X67894876Y-164148796D01*
X67984793Y-164184085D01*
X67989013Y-164185833D01*
X68077576Y-164224473D01*
X68102766Y-164231222D01*
X68115940Y-164235557D01*
X68140220Y-164245087D01*
X68140230Y-164245089D01*
X68140235Y-164245091D01*
X68189659Y-164256371D01*
X68234394Y-164266581D01*
X68238822Y-164267678D01*
X68332158Y-164292688D01*
X68358061Y-164295606D01*
X68371745Y-164297930D01*
X68397174Y-164303735D01*
X68397180Y-164303735D01*
X68397183Y-164303736D01*
X68441872Y-164307084D01*
X68493496Y-164310952D01*
X68498064Y-164311380D01*
X68594064Y-164322198D01*
X68690569Y-164318587D01*
X68695206Y-164318500D01*
X69577229Y-164318500D01*
X69644268Y-164338185D01*
X69690023Y-164390989D01*
X69700549Y-164429535D01*
X69718458Y-164599928D01*
X69718459Y-164599931D01*
X69777470Y-164781549D01*
X69777473Y-164781556D01*
X69872960Y-164946944D01*
X69971650Y-165056550D01*
X70001880Y-165119541D01*
X70003500Y-165139522D01*
X70003500Y-166246000D01*
X69983815Y-166313039D01*
X69931011Y-166358794D01*
X69879500Y-166370000D01*
X46724500Y-166370000D01*
X46657461Y-166350315D01*
X46611706Y-166297511D01*
X46600500Y-166246000D01*
X46600500Y-142621000D01*
X55093496Y-142621000D01*
X55113458Y-142810928D01*
X55113459Y-142810931D01*
X55172470Y-142992549D01*
X55172473Y-142992556D01*
X55267960Y-143157944D01*
X55395747Y-143299866D01*
X55550248Y-143412118D01*
X55724712Y-143489794D01*
X55911513Y-143529500D01*
X56102486Y-143529500D01*
X56102487Y-143529500D01*
X56237904Y-143500715D01*
X56269164Y-143498843D01*
X56269164Y-143498500D01*
X56274733Y-143498500D01*
X56641639Y-143498500D01*
X56667419Y-143501209D01*
X56800513Y-143529500D01*
X56991487Y-143529500D01*
X57124580Y-143501209D01*
X57150361Y-143498500D01*
X60771051Y-143498500D01*
X60838090Y-143518185D01*
X60855379Y-143531589D01*
X60856555Y-143532679D01*
X60856556Y-143532680D01*
X60856562Y-143532686D01*
X61062624Y-143697015D01*
X61290876Y-143828796D01*
X61536220Y-143925087D01*
X61793174Y-143983735D01*
X61830151Y-143986506D01*
X61990178Y-143998499D01*
X61990197Y-143998499D01*
X61990200Y-143998500D01*
X66990200Y-143998500D01*
X72354794Y-143998500D01*
X72359431Y-143998587D01*
X72455934Y-144002198D01*
X72455934Y-144002197D01*
X72455936Y-144002198D01*
X72551944Y-143991379D01*
X72556497Y-143990953D01*
X72652826Y-143983735D01*
X72678236Y-143977935D01*
X72691946Y-143975606D01*
X72713727Y-143973151D01*
X72717842Y-143972688D01*
X72811139Y-143947688D01*
X72815554Y-143946593D01*
X72909780Y-143925087D01*
X72934055Y-143915559D01*
X72947242Y-143911220D01*
X72972424Y-143904473D01*
X73060974Y-143865838D01*
X73065172Y-143864099D01*
X73155124Y-143828796D01*
X73155127Y-143828794D01*
X73155130Y-143828793D01*
X73168918Y-143820831D01*
X73177691Y-143815765D01*
X73190103Y-143809499D01*
X73213996Y-143799076D01*
X73295782Y-143747685D01*
X73299695Y-143745326D01*
X73383376Y-143697015D01*
X73403757Y-143680760D01*
X73415083Y-143672724D01*
X73437161Y-143658853D01*
X73510381Y-143595841D01*
X73513909Y-143592917D01*
X73589438Y-143532686D01*
X73655129Y-143461886D01*
X73658318Y-143458575D01*
X74878575Y-142238318D01*
X74881889Y-142235127D01*
X74952678Y-142169445D01*
X74952686Y-142169438D01*
X75012917Y-142093909D01*
X75015841Y-142090381D01*
X75078853Y-142017161D01*
X75092724Y-141995083D01*
X75100760Y-141983757D01*
X75117015Y-141963376D01*
X75165317Y-141879711D01*
X75167663Y-141875818D01*
X75219076Y-141793997D01*
X75229506Y-141770089D01*
X75235757Y-141757706D01*
X75248796Y-141735124D01*
X75284084Y-141645211D01*
X75285848Y-141640950D01*
X75324473Y-141552424D01*
X75331220Y-141527242D01*
X75335559Y-141514055D01*
X75345087Y-141489780D01*
X75366593Y-141395554D01*
X75367692Y-141391126D01*
X75375914Y-141360444D01*
X75392688Y-141297842D01*
X75393151Y-141293727D01*
X75395606Y-141271946D01*
X75397935Y-141258236D01*
X75398503Y-141255744D01*
X75403735Y-141232826D01*
X75410953Y-141136497D01*
X75411379Y-141131944D01*
X75422198Y-141035936D01*
X75418587Y-140939429D01*
X75418500Y-140934792D01*
X75418500Y-64832539D01*
X75418972Y-64821731D01*
X75423498Y-64770000D01*
X75423498Y-64769998D01*
X75418972Y-64718266D01*
X75418500Y-64707459D01*
X75418500Y-64638220D01*
X75418499Y-64638214D01*
X75409357Y-64577560D01*
X75408319Y-64568343D01*
X75403736Y-64507181D01*
X75403735Y-64507177D01*
X75403735Y-64507174D01*
X75390083Y-64447362D01*
X75388359Y-64438249D01*
X75379219Y-64377606D01*
X75379218Y-64377605D01*
X75379218Y-64377600D01*
X75361133Y-64318971D01*
X75358738Y-64310029D01*
X75345089Y-64250228D01*
X75345088Y-64250226D01*
X75345087Y-64250220D01*
X75322673Y-64193111D01*
X75319614Y-64184370D01*
X75301532Y-64125746D01*
X75274903Y-64070451D01*
X75271211Y-64061991D01*
X75248796Y-64004876D01*
X75218116Y-63951738D01*
X75213802Y-63943575D01*
X75187176Y-63888285D01*
X75152622Y-63837605D01*
X75147689Y-63829754D01*
X75117017Y-63776627D01*
X75078770Y-63728666D01*
X75073265Y-63721207D01*
X75057623Y-63698266D01*
X75038706Y-63670519D01*
X74996973Y-63625542D01*
X74990939Y-63618530D01*
X74952686Y-63570562D01*
X74907699Y-63528820D01*
X74901178Y-63522299D01*
X74859438Y-63477314D01*
X74811468Y-63439059D01*
X74804448Y-63433017D01*
X74759484Y-63391295D01*
X74759482Y-63391294D01*
X74731957Y-63372528D01*
X74708790Y-63356733D01*
X74701346Y-63351240D01*
X74653376Y-63312985D01*
X74600253Y-63282314D01*
X74592410Y-63277386D01*
X74576346Y-63266434D01*
X74541716Y-63242824D01*
X74541706Y-63242819D01*
X74486440Y-63216203D01*
X74478244Y-63211872D01*
X74425122Y-63181203D01*
X74425119Y-63181201D01*
X74368029Y-63158794D01*
X74359534Y-63155088D01*
X74304251Y-63128466D01*
X74245634Y-63110386D01*
X74236879Y-63107323D01*
X74179779Y-63084912D01*
X74119971Y-63071260D01*
X74111021Y-63068862D01*
X74052406Y-63050783D01*
X74052400Y-63050782D01*
X73991735Y-63041638D01*
X73982636Y-63039916D01*
X73959506Y-63034636D01*
X73922832Y-63026266D01*
X73922829Y-63026265D01*
X73861647Y-63021679D01*
X73852438Y-63020641D01*
X73791792Y-63011501D01*
X73791783Y-63011500D01*
X73791781Y-63011500D01*
X73725800Y-63011500D01*
X68594200Y-63011500D01*
X68594178Y-63011500D01*
X68397176Y-63026264D01*
X68140231Y-63084910D01*
X68140223Y-63084912D01*
X68140220Y-63084913D01*
X68140217Y-63084913D01*
X68140214Y-63084915D01*
X67894875Y-63181204D01*
X67666624Y-63312985D01*
X67460557Y-63477317D01*
X67281294Y-63670518D01*
X67132821Y-63888288D01*
X67018468Y-64125746D01*
X67018463Y-64125759D01*
X66940783Y-64377594D01*
X66940780Y-64377604D01*
X66901500Y-64638211D01*
X66901500Y-64707459D01*
X66901028Y-64718266D01*
X66896502Y-64769998D01*
X66896502Y-64770000D01*
X66901028Y-64821731D01*
X66901500Y-64832539D01*
X66901500Y-64901788D01*
X66940780Y-65162395D01*
X66940782Y-65162400D01*
X67018468Y-65414254D01*
X67132824Y-65651715D01*
X67281294Y-65869481D01*
X67349082Y-65942539D01*
X67460557Y-66062682D01*
X67460561Y-66062685D01*
X67460562Y-66062686D01*
X67666624Y-66227015D01*
X67894876Y-66358796D01*
X68140220Y-66455087D01*
X68397174Y-66513735D01*
X68434151Y-66516506D01*
X68594178Y-66528499D01*
X68594197Y-66528499D01*
X68594200Y-66528500D01*
X71777500Y-66528500D01*
X71844539Y-66548185D01*
X71890294Y-66600989D01*
X71901500Y-66652500D01*
X71901500Y-140190243D01*
X71881815Y-140257282D01*
X71865181Y-140277924D01*
X71697924Y-140445181D01*
X71636601Y-140478666D01*
X71610243Y-140481500D01*
X61990178Y-140481500D01*
X61793176Y-140496264D01*
X61536231Y-140554910D01*
X61536223Y-140554912D01*
X61536220Y-140554913D01*
X61536217Y-140554913D01*
X61536214Y-140554915D01*
X61290875Y-140651204D01*
X61062624Y-140782985D01*
X60856562Y-140947314D01*
X60856560Y-140947315D01*
X60856555Y-140947320D01*
X60855379Y-140948411D01*
X60854867Y-140948665D01*
X60852935Y-140950207D01*
X60852604Y-140949793D01*
X60792842Y-140979570D01*
X60771051Y-140981500D01*
X57448948Y-140981500D01*
X57381909Y-140961815D01*
X57376062Y-140957818D01*
X57352750Y-140940880D01*
X57218807Y-140881246D01*
X57178288Y-140863206D01*
X57178286Y-140863205D01*
X56991487Y-140823500D01*
X56800513Y-140823500D01*
X56613714Y-140863205D01*
X56501935Y-140912972D01*
X56432685Y-140922256D01*
X56401065Y-140912972D01*
X56392839Y-140909309D01*
X56289288Y-140863206D01*
X56289286Y-140863205D01*
X56102487Y-140823500D01*
X55911513Y-140823500D01*
X55724714Y-140863205D01*
X55724712Y-140863206D01*
X55550253Y-140940880D01*
X55550246Y-140940883D01*
X55395745Y-141053135D01*
X55267959Y-141195057D01*
X55172473Y-141360443D01*
X55172470Y-141360450D01*
X55122565Y-141514044D01*
X55113458Y-141542072D01*
X55093496Y-141732000D01*
X55113458Y-141921928D01*
X55113459Y-141921931D01*
X55135938Y-141991114D01*
X55138899Y-142057019D01*
X55135850Y-142070376D01*
X55135848Y-142070391D01*
X55125685Y-142296687D01*
X55125685Y-142296691D01*
X55131135Y-142336931D01*
X55126189Y-142391888D01*
X55113458Y-142431070D01*
X55113458Y-142431072D01*
X55093496Y-142621000D01*
X46600500Y-142621000D01*
X46600500Y-125798056D01*
X51757771Y-125798056D01*
X51787527Y-126068471D01*
X51787528Y-126068481D01*
X51789547Y-126076202D01*
X51856337Y-126331678D01*
X51962737Y-126582058D01*
X52039568Y-126707951D01*
X52104455Y-126814273D01*
X52104456Y-126814274D01*
X52104458Y-126814277D01*
X52244533Y-126982594D01*
X52278485Y-127023392D01*
X52467232Y-127192509D01*
X52481096Y-127204931D01*
X52707984Y-127355039D01*
X52954311Y-127470512D01*
X52954313Y-127470512D01*
X52954314Y-127470513D01*
X52954320Y-127470515D01*
X53214813Y-127548886D01*
X53214820Y-127548887D01*
X53214825Y-127548889D01*
X53483975Y-127588500D01*
X53947350Y-127588500D01*
X54014389Y-127608185D01*
X54035031Y-127624819D01*
X54278531Y-127868319D01*
X54312016Y-127929642D01*
X54307032Y-127999334D01*
X54265160Y-128055267D01*
X54199696Y-128079684D01*
X54190850Y-128080000D01*
X54170000Y-128080000D01*
X54170000Y-129276162D01*
X54088751Y-129245349D01*
X53962340Y-129230000D01*
X53877660Y-129230000D01*
X53751249Y-129245349D01*
X53670000Y-129276162D01*
X53670000Y-128080000D01*
X53552375Y-128080000D01*
X53349917Y-128094819D01*
X53349907Y-128094820D01*
X53085595Y-128153699D01*
X53085590Y-128153701D01*
X52832652Y-128250442D01*
X52596501Y-128382976D01*
X52596498Y-128382978D01*
X52382157Y-128548486D01*
X52194208Y-128743430D01*
X52194202Y-128743437D01*
X52036630Y-128963681D01*
X52036627Y-128963686D01*
X51912812Y-129204505D01*
X51912805Y-129204523D01*
X51825370Y-129460812D01*
X51825367Y-129460826D01*
X51784883Y-129679999D01*
X51784884Y-129680000D01*
X53260671Y-129680000D01*
X53220000Y-129845005D01*
X53220000Y-130014995D01*
X53260671Y-130180000D01*
X51786343Y-130180000D01*
X51795908Y-130266923D01*
X51795909Y-130266933D01*
X51864401Y-130528920D01*
X51970317Y-130778160D01*
X52111387Y-131009313D01*
X52111388Y-131009315D01*
X52284617Y-131217474D01*
X52486304Y-131398184D01*
X52712152Y-131547604D01*
X52957364Y-131662554D01*
X53216666Y-131740567D01*
X53216680Y-131740570D01*
X53484601Y-131779999D01*
X53484602Y-131780000D01*
X53670000Y-131780000D01*
X53670000Y-130583837D01*
X53751249Y-130614651D01*
X53877660Y-130630000D01*
X53962340Y-130630000D01*
X54088751Y-130614651D01*
X54170000Y-130583837D01*
X54170000Y-131780000D01*
X54287604Y-131780000D01*
X54287624Y-131779999D01*
X54490082Y-131765180D01*
X54490092Y-131765179D01*
X54754404Y-131706300D01*
X54754409Y-131706298D01*
X55007347Y-131609557D01*
X55076812Y-131570572D01*
X55144908Y-131554927D01*
X55210651Y-131578582D01*
X55253170Y-131634025D01*
X55261500Y-131678706D01*
X55261500Y-133045019D01*
X55244887Y-133107019D01*
X55172473Y-133232443D01*
X55172470Y-133232450D01*
X55130881Y-133360449D01*
X55113458Y-133414072D01*
X55093496Y-133604000D01*
X55113458Y-133793928D01*
X55113459Y-133793931D01*
X55172470Y-133975549D01*
X55172472Y-133975553D01*
X55172473Y-133975556D01*
X55178794Y-133986504D01*
X55195263Y-134054405D01*
X55178794Y-134110496D01*
X55172472Y-134121446D01*
X55172470Y-134121450D01*
X55120528Y-134281312D01*
X55113458Y-134303072D01*
X55093496Y-134493000D01*
X55113458Y-134682928D01*
X55113459Y-134682931D01*
X55172470Y-134864549D01*
X55172473Y-134864556D01*
X55267960Y-135029944D01*
X55395747Y-135171866D01*
X55550248Y-135284118D01*
X55724712Y-135361794D01*
X55911513Y-135401500D01*
X56102487Y-135401500D01*
X56295646Y-135360443D01*
X56296051Y-135362348D01*
X56335985Y-135358293D01*
X56486648Y-135375269D01*
X56486649Y-135375268D01*
X56486650Y-135375269D01*
X56507446Y-135373866D01*
X56570146Y-135369638D01*
X56572912Y-135369484D01*
X56576687Y-135369314D01*
X56576691Y-135369315D01*
X56576694Y-135369314D01*
X56578157Y-135369249D01*
X56582564Y-135368801D01*
X56614015Y-135366681D01*
X56648128Y-135369109D01*
X56800513Y-135401500D01*
X56800514Y-135401500D01*
X56991487Y-135401500D01*
X57178288Y-135361794D01*
X57352752Y-135284118D01*
X57507253Y-135171866D01*
X57635040Y-135029944D01*
X57730527Y-134864556D01*
X57789542Y-134682928D01*
X57809504Y-134493000D01*
X57789542Y-134303072D01*
X57782470Y-134281309D01*
X57778738Y-134225886D01*
X57778001Y-134225820D01*
X57778420Y-134221159D01*
X57778398Y-134220829D01*
X57778500Y-134220267D01*
X57778500Y-134215805D01*
X57780027Y-134196407D01*
X57780724Y-134192005D01*
X57780725Y-134192000D01*
X57778531Y-134094244D01*
X57778500Y-134091462D01*
X57778500Y-133847551D01*
X57784569Y-133809232D01*
X57789542Y-133793928D01*
X57809504Y-133604000D01*
X57789542Y-133414072D01*
X57784569Y-133398766D01*
X57778500Y-133360449D01*
X57778500Y-131906305D01*
X57798185Y-131839266D01*
X57850989Y-131793511D01*
X57915103Y-131782947D01*
X57969456Y-131788500D01*
X60637500Y-131788500D01*
X60704539Y-131808185D01*
X60750294Y-131860989D01*
X60761500Y-131912500D01*
X60761500Y-133844644D01*
X60755431Y-133882961D01*
X60701458Y-134049072D01*
X60683934Y-134215805D01*
X60681496Y-134239000D01*
X60701458Y-134428929D01*
X60712842Y-134463965D01*
X60717385Y-134521671D01*
X60715274Y-134534999D01*
X60720358Y-134761477D01*
X60728667Y-134802061D01*
X60725119Y-134865249D01*
X60701458Y-134938070D01*
X60701458Y-134938072D01*
X60681496Y-135128000D01*
X60701458Y-135317928D01*
X60701459Y-135317931D01*
X60760470Y-135499549D01*
X60760473Y-135499556D01*
X60855960Y-135664944D01*
X60983747Y-135806866D01*
X60988569Y-135810369D01*
X61031235Y-135865698D01*
X61037216Y-135935311D01*
X61004611Y-135997107D01*
X60968093Y-136023068D01*
X60953523Y-136029862D01*
X60953518Y-136029865D01*
X60767179Y-136160342D01*
X60606342Y-136321179D01*
X60475865Y-136507517D01*
X60379734Y-136713673D01*
X60379730Y-136713682D01*
X60327127Y-136909999D01*
X60327128Y-136910000D01*
X61481393Y-136910000D01*
X61421762Y-137027031D01*
X61400702Y-137160000D01*
X61421762Y-137292969D01*
X61481393Y-137410000D01*
X60327128Y-137410000D01*
X60379730Y-137606317D01*
X60379734Y-137606326D01*
X60475865Y-137812482D01*
X60606342Y-137998820D01*
X60767179Y-138159657D01*
X60953517Y-138290134D01*
X61159673Y-138386265D01*
X61159682Y-138386269D01*
X61379389Y-138445139D01*
X61379400Y-138445141D01*
X61549233Y-138459999D01*
X61549236Y-138460000D01*
X61806000Y-138460000D01*
X61806000Y-137585000D01*
X62306000Y-137585000D01*
X62306000Y-138460000D01*
X62562764Y-138460000D01*
X62562766Y-138459999D01*
X62732599Y-138445141D01*
X62732610Y-138445139D01*
X62952317Y-138386269D01*
X62952326Y-138386265D01*
X63158482Y-138290134D01*
X63344820Y-138159657D01*
X63505657Y-137998820D01*
X63636134Y-137812482D01*
X63732265Y-137606326D01*
X63732269Y-137606317D01*
X63784872Y-137410000D01*
X62630607Y-137410000D01*
X62690238Y-137292969D01*
X62711298Y-137160000D01*
X62690238Y-137027031D01*
X62630607Y-136910000D01*
X63784872Y-136910000D01*
X63784872Y-136909999D01*
X65327127Y-136909999D01*
X65327128Y-136910000D01*
X66481393Y-136910000D01*
X66421762Y-137027031D01*
X66400702Y-137160000D01*
X66421762Y-137292969D01*
X66481393Y-137410000D01*
X65327128Y-137410000D01*
X65379730Y-137606317D01*
X65379734Y-137606326D01*
X65475865Y-137812482D01*
X65606342Y-137998820D01*
X65767179Y-138159657D01*
X65953517Y-138290134D01*
X66159673Y-138386265D01*
X66159682Y-138386269D01*
X66379389Y-138445139D01*
X66379400Y-138445141D01*
X66549233Y-138459999D01*
X66549236Y-138460000D01*
X66806000Y-138460000D01*
X66806000Y-137585000D01*
X67306000Y-137585000D01*
X67306000Y-138460000D01*
X67562764Y-138460000D01*
X67562766Y-138459999D01*
X67732599Y-138445141D01*
X67732610Y-138445139D01*
X67952317Y-138386269D01*
X67952326Y-138386265D01*
X68158482Y-138290134D01*
X68344820Y-138159657D01*
X68505657Y-137998820D01*
X68636134Y-137812482D01*
X68732265Y-137606326D01*
X68732269Y-137606317D01*
X68784872Y-137410000D01*
X67630607Y-137410000D01*
X67690238Y-137292969D01*
X67711298Y-137160000D01*
X67690238Y-137027031D01*
X67630607Y-136910000D01*
X68784872Y-136910000D01*
X68784872Y-136909999D01*
X68732269Y-136713682D01*
X68732265Y-136713673D01*
X68636134Y-136507517D01*
X68505657Y-136321179D01*
X68344820Y-136160342D01*
X68158482Y-136029865D01*
X67952326Y-135933734D01*
X67952317Y-135933730D01*
X67732610Y-135874860D01*
X67732599Y-135874858D01*
X67562766Y-135860000D01*
X67306000Y-135860000D01*
X67306000Y-136735000D01*
X66806000Y-136735000D01*
X66806000Y-135860000D01*
X66549233Y-135860000D01*
X66379400Y-135874858D01*
X66379389Y-135874860D01*
X66159682Y-135933730D01*
X66159673Y-135933734D01*
X65953517Y-136029865D01*
X65767179Y-136160342D01*
X65606342Y-136321179D01*
X65475865Y-136507517D01*
X65379734Y-136713673D01*
X65379730Y-136713682D01*
X65327127Y-136909999D01*
X63784872Y-136909999D01*
X63732269Y-136713682D01*
X63732265Y-136713673D01*
X63636134Y-136507517D01*
X63505657Y-136321179D01*
X63344820Y-136160342D01*
X63158484Y-136029867D01*
X63123450Y-136013530D01*
X63071011Y-135967356D01*
X63051860Y-135900163D01*
X63072077Y-135833282D01*
X63092891Y-135808992D01*
X63095246Y-135806871D01*
X63095253Y-135806866D01*
X63153850Y-135741786D01*
X63213336Y-135705138D01*
X63283193Y-135706468D01*
X63338149Y-135741786D01*
X63396747Y-135806866D01*
X63551248Y-135919118D01*
X63725712Y-135996794D01*
X63912513Y-136036500D01*
X64103487Y-136036500D01*
X64290288Y-135996794D01*
X64402066Y-135947026D01*
X64471313Y-135937741D01*
X64502929Y-135947024D01*
X64614712Y-135996794D01*
X64801513Y-136036500D01*
X64992487Y-136036500D01*
X65179288Y-135996794D01*
X65353752Y-135919118D01*
X65508253Y-135806866D01*
X65636040Y-135664944D01*
X65731527Y-135499556D01*
X65790542Y-135317928D01*
X65810504Y-135128000D01*
X65790542Y-134938072D01*
X65746349Y-134802061D01*
X65731528Y-134756446D01*
X65731527Y-134756444D01*
X65725209Y-134745501D01*
X65708735Y-134677604D01*
X65725209Y-134621498D01*
X65731527Y-134610556D01*
X65790542Y-134428928D01*
X65810504Y-134239000D01*
X65790542Y-134049072D01*
X65731527Y-133867444D01*
X65664113Y-133750679D01*
X65647500Y-133688679D01*
X65647500Y-130979319D01*
X65664113Y-130917319D01*
X65731527Y-130800556D01*
X65790542Y-130618928D01*
X65810504Y-130429000D01*
X65790542Y-130239072D01*
X65731527Y-130057444D01*
X65725209Y-130046501D01*
X65708735Y-129978604D01*
X65725209Y-129922498D01*
X65731527Y-129911556D01*
X65790542Y-129729928D01*
X65810504Y-129540000D01*
X65790542Y-129350072D01*
X65731527Y-129168444D01*
X65664113Y-129051679D01*
X65647500Y-128989679D01*
X65647500Y-117860939D01*
X65653569Y-117822620D01*
X65663542Y-117791928D01*
X65683504Y-117602000D01*
X65663542Y-117412072D01*
X65653569Y-117381378D01*
X65647500Y-117343060D01*
X65647500Y-117164485D01*
X65647500Y-117164478D01*
X65634821Y-117023604D01*
X65640390Y-116974180D01*
X65663542Y-116902928D01*
X65683504Y-116713000D01*
X65663542Y-116523072D01*
X65604527Y-116341444D01*
X65509040Y-116176056D01*
X65381253Y-116034134D01*
X65226752Y-115921882D01*
X65052288Y-115844206D01*
X65052286Y-115844205D01*
X64865487Y-115804500D01*
X64674513Y-115804500D01*
X64653625Y-115808939D01*
X64639278Y-115811989D01*
X64569611Y-115806671D01*
X64513879Y-115764533D01*
X64489775Y-115698952D01*
X64489500Y-115690698D01*
X64489500Y-114905552D01*
X64490561Y-114889366D01*
X64494750Y-114857547D01*
X64494750Y-114857546D01*
X64490031Y-114821702D01*
X64490030Y-114821688D01*
X64483293Y-114770515D01*
X64473838Y-114698698D01*
X64450390Y-114642088D01*
X64412524Y-114550672D01*
X64412523Y-114550670D01*
X64337006Y-114452256D01*
X64314986Y-114423559D01*
X64289520Y-114404019D01*
X64277325Y-114393324D01*
X60139333Y-110255332D01*
X60128639Y-110243139D01*
X60109096Y-110217670D01*
X60109094Y-110217668D01*
X60109093Y-110217667D01*
X60077184Y-110193183D01*
X60077183Y-110193182D01*
X60077181Y-110193180D01*
X60041245Y-110165605D01*
X59981986Y-110120133D01*
X59981982Y-110120131D01*
X59833960Y-110058818D01*
X59816820Y-110056562D01*
X59814565Y-110056265D01*
X59814564Y-110056264D01*
X59710987Y-110042629D01*
X59710955Y-110042626D01*
X59675110Y-110037907D01*
X59675108Y-110037907D01*
X59643289Y-110042096D01*
X59627104Y-110043157D01*
X57488767Y-110043157D01*
X57421728Y-110023472D01*
X57401086Y-110006838D01*
X56549819Y-109155571D01*
X56516334Y-109094248D01*
X56513500Y-109067890D01*
X56513500Y-96648706D01*
X56515239Y-96632954D01*
X56514968Y-96632929D01*
X56515700Y-96625173D01*
X56515702Y-96625166D01*
X56513561Y-96557043D01*
X56513500Y-96553148D01*
X56513500Y-96525222D01*
X56513500Y-96525219D01*
X56512982Y-96521122D01*
X56512065Y-96509473D01*
X56510674Y-96465186D01*
X56504976Y-96445574D01*
X56501033Y-96426541D01*
X56498474Y-96406278D01*
X56482163Y-96365082D01*
X56478381Y-96354034D01*
X56466018Y-96311483D01*
X56466018Y-96311482D01*
X56455626Y-96293910D01*
X56447066Y-96276437D01*
X56439552Y-96257458D01*
X56413510Y-96221614D01*
X56407099Y-96211856D01*
X56403774Y-96206233D01*
X56384542Y-96173713D01*
X56370108Y-96159279D01*
X56357471Y-96144484D01*
X56345472Y-96127968D01*
X56345469Y-96127966D01*
X56345469Y-96127965D01*
X56311325Y-96099718D01*
X56302685Y-96091856D01*
X55302776Y-95091945D01*
X55284700Y-95077924D01*
X55208041Y-95018461D01*
X55208038Y-95018459D01*
X55204876Y-95017091D01*
X55166447Y-94990973D01*
X55099817Y-94924343D01*
X55066332Y-94863020D01*
X55071316Y-94793328D01*
X55113188Y-94737395D01*
X55114539Y-94736398D01*
X55221253Y-94658866D01*
X55349040Y-94516944D01*
X55444527Y-94351556D01*
X55503542Y-94169928D01*
X55523504Y-93980000D01*
X55503542Y-93790072D01*
X55444527Y-93608444D01*
X55349040Y-93443056D01*
X55349036Y-93443050D01*
X55275350Y-93361213D01*
X55245120Y-93298221D01*
X55243500Y-93278241D01*
X55243500Y-90887235D01*
X55245238Y-90871485D01*
X55244968Y-90871460D01*
X55245701Y-90863698D01*
X55245702Y-90863695D01*
X55243561Y-90795585D01*
X55243500Y-90791689D01*
X55243500Y-90763750D01*
X55242982Y-90759653D01*
X55242064Y-90747993D01*
X55240673Y-90703714D01*
X55240672Y-90703712D01*
X55234979Y-90684118D01*
X55231032Y-90665061D01*
X55228474Y-90644807D01*
X55212162Y-90603609D01*
X55208377Y-90592554D01*
X55196018Y-90550012D01*
X55196018Y-90550011D01*
X55185624Y-90532436D01*
X55177064Y-90514960D01*
X55169554Y-90495992D01*
X55169554Y-90495991D01*
X55169553Y-90495989D01*
X55169552Y-90495987D01*
X55143504Y-90460135D01*
X55137100Y-90450387D01*
X55114542Y-90412241D01*
X55100106Y-90397805D01*
X55087469Y-90383010D01*
X55075471Y-90366496D01*
X55041336Y-90338257D01*
X55032696Y-90330395D01*
X54009819Y-89307518D01*
X53976334Y-89246195D01*
X53973500Y-89219837D01*
X53973500Y-88962227D01*
X53993185Y-88895188D01*
X54045989Y-88849433D01*
X54115147Y-88839489D01*
X54149908Y-88849847D01*
X54163669Y-88856264D01*
X54163682Y-88856269D01*
X54383389Y-88915139D01*
X54383400Y-88915141D01*
X54609998Y-88934966D01*
X54610002Y-88934966D01*
X54836599Y-88915141D01*
X54836610Y-88915139D01*
X55056317Y-88856269D01*
X55056331Y-88856264D01*
X55262478Y-88760136D01*
X55335471Y-88709024D01*
X54654400Y-88027953D01*
X54735148Y-88015165D01*
X54848045Y-87957641D01*
X54937641Y-87868045D01*
X54995165Y-87755148D01*
X55007953Y-87674400D01*
X55689024Y-88355471D01*
X55740136Y-88282478D01*
X55836264Y-88076331D01*
X55836269Y-88076317D01*
X55895139Y-87856610D01*
X55895141Y-87856599D01*
X55914966Y-87630002D01*
X55914966Y-87629997D01*
X55895141Y-87403400D01*
X55895139Y-87403389D01*
X55836269Y-87183682D01*
X55836264Y-87183668D01*
X55740136Y-86977521D01*
X55740132Y-86977513D01*
X55689025Y-86904526D01*
X55007953Y-87585598D01*
X54995165Y-87504852D01*
X54937641Y-87391955D01*
X54848045Y-87302359D01*
X54735148Y-87244835D01*
X54654400Y-87232046D01*
X55335472Y-86550974D01*
X55262478Y-86499863D01*
X55056331Y-86403735D01*
X55056317Y-86403730D01*
X54836610Y-86344860D01*
X54836599Y-86344858D01*
X54610002Y-86325034D01*
X54609998Y-86325034D01*
X54383400Y-86344858D01*
X54383389Y-86344860D01*
X54163682Y-86403730D01*
X54163677Y-86403732D01*
X54149904Y-86410155D01*
X54080826Y-86420646D01*
X54017042Y-86392125D01*
X53978803Y-86333648D01*
X53973500Y-86297772D01*
X53973500Y-85643765D01*
X53993185Y-85576726D01*
X54009815Y-85556088D01*
X54405808Y-85160094D01*
X54467129Y-85126611D01*
X54504290Y-85124249D01*
X54610000Y-85133498D01*
X54610000Y-85133497D01*
X54610001Y-85133498D01*
X54610002Y-85133498D01*
X54669013Y-85128335D01*
X54838087Y-85113543D01*
X55059243Y-85054284D01*
X55266749Y-84957523D01*
X55454300Y-84826198D01*
X55616198Y-84664300D01*
X55747523Y-84476749D01*
X55844284Y-84269243D01*
X55903543Y-84048087D01*
X55923498Y-83820000D01*
X55903543Y-83591913D01*
X55844284Y-83370757D01*
X55747523Y-83163251D01*
X55616198Y-82975700D01*
X55454300Y-82813802D01*
X55266749Y-82682477D01*
X55266745Y-82682475D01*
X55059249Y-82585718D01*
X55059238Y-82585714D01*
X54838089Y-82526457D01*
X54838081Y-82526456D01*
X54610002Y-82506502D01*
X54609998Y-82506502D01*
X54381918Y-82526456D01*
X54381910Y-82526457D01*
X54160761Y-82585714D01*
X54160750Y-82585718D01*
X53953254Y-82682475D01*
X53953252Y-82682476D01*
X53953251Y-82682477D01*
X53765700Y-82813802D01*
X53765698Y-82813803D01*
X53765695Y-82813806D01*
X53735181Y-82844321D01*
X53673858Y-82877806D01*
X53604166Y-82872822D01*
X53548233Y-82830950D01*
X53523816Y-82765486D01*
X53523500Y-82756640D01*
X53523500Y-82043765D01*
X53543185Y-81976726D01*
X53559815Y-81956088D01*
X53805961Y-81709942D01*
X62411780Y-81709942D01*
X62415950Y-81754057D01*
X62416500Y-81765726D01*
X62416500Y-97136366D01*
X62414761Y-97152113D01*
X62415032Y-97152139D01*
X62414298Y-97159905D01*
X62416439Y-97228016D01*
X62416500Y-97231912D01*
X62416500Y-97259856D01*
X62417017Y-97263950D01*
X62417934Y-97275591D01*
X62419326Y-97319889D01*
X62419327Y-97319891D01*
X62425022Y-97339495D01*
X62428967Y-97358542D01*
X62431526Y-97378797D01*
X62431527Y-97378800D01*
X62431528Y-97378804D01*
X62447838Y-97420000D01*
X62451621Y-97431049D01*
X62463981Y-97473592D01*
X62474372Y-97491162D01*
X62482932Y-97508635D01*
X62490447Y-97527617D01*
X62516491Y-97563463D01*
X62522905Y-97573227D01*
X62545458Y-97611362D01*
X62545462Y-97611366D01*
X62559889Y-97625793D01*
X62572526Y-97640588D01*
X62584528Y-97657107D01*
X62617207Y-97684142D01*
X62618668Y-97685350D01*
X62627309Y-97693213D01*
X64520181Y-99586085D01*
X64553666Y-99647408D01*
X64556500Y-99673766D01*
X64556500Y-100860537D01*
X64556501Y-100860553D01*
X64567113Y-100964426D01*
X64622885Y-101132738D01*
X64715970Y-101283652D01*
X64841348Y-101409030D01*
X64992262Y-101502115D01*
X65160574Y-101557887D01*
X65264455Y-101568500D01*
X66815544Y-101568499D01*
X66919426Y-101557887D01*
X67087738Y-101502115D01*
X67238652Y-101409030D01*
X67364030Y-101283652D01*
X67457115Y-101132738D01*
X67512887Y-100964426D01*
X67523500Y-100860545D01*
X67523499Y-99559456D01*
X67512887Y-99455574D01*
X67457115Y-99287262D01*
X67364030Y-99136348D01*
X67238652Y-99010970D01*
X67238648Y-99010967D01*
X67090492Y-98919583D01*
X67043767Y-98867635D01*
X67032546Y-98798673D01*
X67060389Y-98734591D01*
X67069771Y-98724540D01*
X67188476Y-98610772D01*
X67325985Y-98424847D01*
X67430095Y-98218357D01*
X67497811Y-97997243D01*
X67527184Y-97767865D01*
X67517369Y-97536822D01*
X67507528Y-97491162D01*
X67468648Y-97310759D01*
X67425537Y-97203474D01*
X67382426Y-97096187D01*
X67261179Y-96899270D01*
X67108398Y-96725676D01*
X67108396Y-96725674D01*
X67108394Y-96725672D01*
X66928482Y-96580404D01*
X66928476Y-96580400D01*
X66904431Y-96566967D01*
X66855506Y-96517086D01*
X66841314Y-96448673D01*
X66866363Y-96383448D01*
X66895466Y-96355982D01*
X67021523Y-96270783D01*
X67188476Y-96110772D01*
X67325985Y-95924847D01*
X67430095Y-95718357D01*
X67497811Y-95497243D01*
X67527184Y-95267865D01*
X67517369Y-95036822D01*
X67513411Y-95018459D01*
X67483215Y-94878347D01*
X67468649Y-94810762D01*
X67467593Y-94808135D01*
X67382427Y-94596190D01*
X67382426Y-94596187D01*
X67261179Y-94399270D01*
X67108398Y-94225676D01*
X67108396Y-94225674D01*
X67108394Y-94225672D01*
X66928482Y-94080404D01*
X66928476Y-94080400D01*
X66904431Y-94066967D01*
X66855506Y-94017086D01*
X66841314Y-93948673D01*
X66866363Y-93883448D01*
X66895466Y-93855982D01*
X67021523Y-93770783D01*
X67188476Y-93610772D01*
X67325985Y-93424847D01*
X67430095Y-93218357D01*
X67497811Y-92997243D01*
X67527184Y-92767865D01*
X67517369Y-92536822D01*
X67468649Y-92310762D01*
X67382426Y-92096187D01*
X67261179Y-91899270D01*
X67108398Y-91725676D01*
X67108396Y-91725674D01*
X67108394Y-91725672D01*
X66928482Y-91580404D01*
X66928476Y-91580399D01*
X66726594Y-91467621D01*
X66508553Y-91390582D01*
X66508543Y-91390579D01*
X66280634Y-91351500D01*
X66280625Y-91351500D01*
X65857287Y-91351500D01*
X65857269Y-91351500D01*
X65684586Y-91366197D01*
X65460793Y-91424469D01*
X65460789Y-91424470D01*
X65250080Y-91519716D01*
X65250068Y-91519723D01*
X65058486Y-91649209D01*
X65058477Y-91649217D01*
X64891525Y-91809226D01*
X64827196Y-91896205D01*
X64771506Y-91938399D01*
X64701844Y-91943787D01*
X64640328Y-91910657D01*
X64606489Y-91849529D01*
X64603501Y-91822470D01*
X64603501Y-89223764D01*
X64623186Y-89156725D01*
X64639811Y-89136092D01*
X64806478Y-88969424D01*
X64867798Y-88935942D01*
X64883340Y-88933581D01*
X64998087Y-88923543D01*
X65219243Y-88864284D01*
X65426749Y-88767523D01*
X65614300Y-88636198D01*
X65776198Y-88474300D01*
X65907523Y-88286749D01*
X66004284Y-88079243D01*
X66063543Y-87858087D01*
X66083498Y-87630000D01*
X66063543Y-87401913D01*
X66004284Y-87180757D01*
X65907523Y-86973251D01*
X65776198Y-86785700D01*
X65614300Y-86623802D01*
X65426749Y-86492477D01*
X65426745Y-86492475D01*
X65219249Y-86395718D01*
X65219238Y-86395714D01*
X64998089Y-86336457D01*
X64998081Y-86336456D01*
X64770002Y-86316502D01*
X64769998Y-86316502D01*
X64541918Y-86336456D01*
X64541910Y-86336457D01*
X64320760Y-86395715D01*
X64320759Y-86395715D01*
X64320757Y-86395716D01*
X64311878Y-86399855D01*
X64309899Y-86400779D01*
X64240821Y-86411267D01*
X64177038Y-86382744D01*
X64138802Y-86324265D01*
X64133500Y-86288394D01*
X64133500Y-85403765D01*
X64153185Y-85336726D01*
X64169815Y-85316088D01*
X64357569Y-85128333D01*
X64418890Y-85094850D01*
X64477341Y-85096241D01*
X64495979Y-85101234D01*
X64541913Y-85113543D01*
X64704832Y-85127796D01*
X64769998Y-85133498D01*
X64770000Y-85133498D01*
X64770002Y-85133498D01*
X64829013Y-85128335D01*
X64998087Y-85113543D01*
X65219243Y-85054284D01*
X65426749Y-84957523D01*
X65614300Y-84826198D01*
X65776198Y-84664300D01*
X65907523Y-84476749D01*
X66004284Y-84269243D01*
X66063543Y-84048087D01*
X66083498Y-83820000D01*
X66063543Y-83591913D01*
X66004284Y-83370757D01*
X65907523Y-83163251D01*
X65776198Y-82975700D01*
X65614300Y-82813802D01*
X65426749Y-82682477D01*
X65426745Y-82682475D01*
X65219249Y-82585718D01*
X65219238Y-82585714D01*
X64998089Y-82526457D01*
X64998081Y-82526456D01*
X64770002Y-82506502D01*
X64769998Y-82506502D01*
X64541918Y-82526456D01*
X64541910Y-82526457D01*
X64320761Y-82585714D01*
X64320750Y-82585718D01*
X64113254Y-82682475D01*
X64113252Y-82682476D01*
X64113251Y-82682477D01*
X63925700Y-82813802D01*
X63925698Y-82813803D01*
X63925695Y-82813806D01*
X63895181Y-82844321D01*
X63833858Y-82877806D01*
X63764166Y-82872822D01*
X63708233Y-82830950D01*
X63683816Y-82765486D01*
X63683500Y-82756640D01*
X63683500Y-82043765D01*
X63703185Y-81976726D01*
X63719815Y-81956088D01*
X64357569Y-81318333D01*
X64418890Y-81284850D01*
X64477341Y-81286241D01*
X64487929Y-81289078D01*
X64541913Y-81303543D01*
X64704832Y-81317796D01*
X64769998Y-81323498D01*
X64770000Y-81323498D01*
X64770002Y-81323498D01*
X64831482Y-81318119D01*
X64998087Y-81303543D01*
X65219243Y-81244284D01*
X65426749Y-81147523D01*
X65614300Y-81016198D01*
X65776198Y-80854300D01*
X65907523Y-80666749D01*
X66004284Y-80459243D01*
X66063543Y-80238087D01*
X66083498Y-80010000D01*
X66063543Y-79781913D01*
X66004284Y-79560757D01*
X65907523Y-79353251D01*
X65776198Y-79165700D01*
X65614300Y-79003802D01*
X65426749Y-78872477D01*
X65426745Y-78872475D01*
X65219249Y-78775718D01*
X65219238Y-78775714D01*
X64998089Y-78716457D01*
X64998081Y-78716456D01*
X64770002Y-78696502D01*
X64769998Y-78696502D01*
X64541918Y-78716456D01*
X64541910Y-78716457D01*
X64320761Y-78775714D01*
X64320750Y-78775718D01*
X64113254Y-78872475D01*
X64113252Y-78872476D01*
X64113251Y-78872477D01*
X63925700Y-79003802D01*
X63925698Y-79003803D01*
X63925695Y-79003806D01*
X63763806Y-79165695D01*
X63632476Y-79353252D01*
X63632475Y-79353254D01*
X63535718Y-79560750D01*
X63535714Y-79560761D01*
X63476457Y-79781910D01*
X63476456Y-79781918D01*
X63456502Y-80009998D01*
X63456502Y-80010001D01*
X63476456Y-80238081D01*
X63476458Y-80238091D01*
X63493758Y-80302655D01*
X63492095Y-80372504D01*
X63461664Y-80422429D01*
X62661179Y-81222914D01*
X62648820Y-81232818D01*
X62648993Y-81233027D01*
X62642982Y-81238000D01*
X62596338Y-81287669D01*
X62593633Y-81290460D01*
X62573873Y-81310221D01*
X62573858Y-81310238D01*
X62571317Y-81313513D01*
X62563753Y-81322367D01*
X62533420Y-81354671D01*
X62533412Y-81354681D01*
X62523579Y-81372567D01*
X62512903Y-81388820D01*
X62500386Y-81404957D01*
X62500385Y-81404960D01*
X62482785Y-81445629D01*
X62477648Y-81456115D01*
X62456303Y-81494941D01*
X62456303Y-81494942D01*
X62451225Y-81514720D01*
X62444925Y-81533122D01*
X62436818Y-81551857D01*
X62429888Y-81595609D01*
X62427520Y-81607045D01*
X62416500Y-81649965D01*
X62416500Y-81670384D01*
X62414973Y-81689783D01*
X62411780Y-81709941D01*
X62411780Y-81709942D01*
X53805961Y-81709942D01*
X54197569Y-81318333D01*
X54258890Y-81284850D01*
X54317341Y-81286241D01*
X54327929Y-81289078D01*
X54381913Y-81303543D01*
X54544832Y-81317796D01*
X54609998Y-81323498D01*
X54610000Y-81323498D01*
X54610002Y-81323498D01*
X54671482Y-81318119D01*
X54838087Y-81303543D01*
X55059243Y-81244284D01*
X55266749Y-81147523D01*
X55454300Y-81016198D01*
X55616198Y-80854300D01*
X55747523Y-80666749D01*
X55844284Y-80459243D01*
X55903543Y-80238087D01*
X55923498Y-80010000D01*
X55903543Y-79781913D01*
X55844284Y-79560757D01*
X55747523Y-79353251D01*
X55616198Y-79165700D01*
X55454300Y-79003802D01*
X55266749Y-78872477D01*
X55266745Y-78872475D01*
X55059249Y-78775718D01*
X55059238Y-78775714D01*
X54838089Y-78716457D01*
X54838081Y-78716456D01*
X54610002Y-78696502D01*
X54609998Y-78696502D01*
X54381918Y-78716456D01*
X54381910Y-78716457D01*
X54160761Y-78775714D01*
X54160750Y-78775718D01*
X53953254Y-78872475D01*
X53953252Y-78872476D01*
X53953251Y-78872477D01*
X53765700Y-79003802D01*
X53765698Y-79003803D01*
X53765695Y-79003806D01*
X53603806Y-79165695D01*
X53472476Y-79353252D01*
X53472475Y-79353254D01*
X53375718Y-79560750D01*
X53375714Y-79560761D01*
X53316457Y-79781910D01*
X53316456Y-79781918D01*
X53296502Y-80009998D01*
X53296502Y-80010001D01*
X53316456Y-80238081D01*
X53316458Y-80238091D01*
X53333758Y-80302655D01*
X53332095Y-80372504D01*
X53301664Y-80422429D01*
X52501179Y-81222914D01*
X52488820Y-81232818D01*
X52488993Y-81233027D01*
X52482982Y-81238000D01*
X52436338Y-81287669D01*
X52433633Y-81290460D01*
X52413873Y-81310221D01*
X52413858Y-81310238D01*
X52411317Y-81313513D01*
X52403753Y-81322367D01*
X52373420Y-81354671D01*
X52373412Y-81354681D01*
X52363579Y-81372567D01*
X52352903Y-81388820D01*
X52340386Y-81404957D01*
X52340385Y-81404960D01*
X52322785Y-81445629D01*
X52317648Y-81456115D01*
X52296303Y-81494941D01*
X52296303Y-81494942D01*
X52291225Y-81514720D01*
X52284925Y-81533122D01*
X52276818Y-81551857D01*
X52269888Y-81595609D01*
X52267520Y-81607045D01*
X52256500Y-81649965D01*
X52256500Y-81670384D01*
X52254973Y-81689783D01*
X52251780Y-81709941D01*
X52251780Y-81709942D01*
X52255950Y-81754057D01*
X52256500Y-81765726D01*
X52256500Y-89636366D01*
X52254761Y-89652113D01*
X52255032Y-89652139D01*
X52254298Y-89659905D01*
X52256439Y-89728016D01*
X52256500Y-89731912D01*
X52256500Y-89759859D01*
X52257018Y-89763958D01*
X52257934Y-89775598D01*
X52259326Y-89819889D01*
X52259327Y-89819891D01*
X52265022Y-89839495D01*
X52268967Y-89858542D01*
X52271526Y-89878797D01*
X52271527Y-89878800D01*
X52271528Y-89878804D01*
X52287838Y-89920000D01*
X52291621Y-89931049D01*
X52303981Y-89973592D01*
X52314372Y-89991162D01*
X52322932Y-90008635D01*
X52330447Y-90027617D01*
X52356491Y-90063463D01*
X52362905Y-90073227D01*
X52385458Y-90111362D01*
X52385462Y-90111366D01*
X52399889Y-90125793D01*
X52412526Y-90140588D01*
X52424528Y-90157107D01*
X52457207Y-90184142D01*
X52458668Y-90185350D01*
X52467309Y-90193213D01*
X52670181Y-90396085D01*
X52703666Y-90457408D01*
X52706500Y-90483766D01*
X52706500Y-90802686D01*
X52686815Y-90869725D01*
X52653624Y-90904260D01*
X52527961Y-90992251D01*
X52372252Y-91147960D01*
X52372247Y-91147967D01*
X52245946Y-91328342D01*
X52245944Y-91328346D01*
X52152881Y-91527920D01*
X52095885Y-91740627D01*
X52095884Y-91740634D01*
X52076693Y-91959997D01*
X52076693Y-91960002D01*
X52088607Y-92096190D01*
X52095885Y-92179371D01*
X52152880Y-92392076D01*
X52152881Y-92392079D01*
X52152882Y-92392081D01*
X52220378Y-92536827D01*
X52245944Y-92591654D01*
X52372251Y-92772038D01*
X52527962Y-92927749D01*
X52627209Y-92997243D01*
X52678624Y-93033244D01*
X52722249Y-93087822D01*
X52731500Y-93134819D01*
X52731500Y-93977070D01*
X52730439Y-93993255D01*
X52726250Y-94025073D01*
X52726250Y-94025079D01*
X52730968Y-94060921D01*
X52730970Y-94060934D01*
X52733533Y-94080399D01*
X52733533Y-94080402D01*
X52747161Y-94183924D01*
X52747163Y-94183929D01*
X52775999Y-94253546D01*
X52783468Y-94323015D01*
X52752192Y-94385494D01*
X52713852Y-94413376D01*
X52708349Y-94415942D01*
X52708345Y-94415944D01*
X52527967Y-94542247D01*
X52527960Y-94542252D01*
X52372252Y-94697960D01*
X52372247Y-94697967D01*
X52245946Y-94878342D01*
X52245944Y-94878346D01*
X52152881Y-95077920D01*
X52095885Y-95290627D01*
X52095884Y-95290634D01*
X52076693Y-95509997D01*
X52076693Y-95510002D01*
X52094921Y-95718358D01*
X52095885Y-95729371D01*
X52152880Y-95942076D01*
X52152881Y-95942079D01*
X52152882Y-95942081D01*
X52231545Y-96110776D01*
X52245944Y-96141654D01*
X52372251Y-96322038D01*
X52527962Y-96477749D01*
X52708346Y-96604056D01*
X52907924Y-96697120D01*
X53120629Y-96754115D01*
X53277322Y-96767823D01*
X53339998Y-96773307D01*
X53340000Y-96773307D01*
X53340002Y-96773307D01*
X53394842Y-96768509D01*
X53559371Y-96754115D01*
X53619716Y-96737945D01*
X53689564Y-96739608D01*
X53739490Y-96770039D01*
X53913208Y-96943757D01*
X53932259Y-96968317D01*
X53975455Y-97041358D01*
X53975462Y-97041367D01*
X54760181Y-97826085D01*
X54793666Y-97887408D01*
X54796500Y-97913766D01*
X54796500Y-98724228D01*
X54776815Y-98791267D01*
X54724011Y-98837022D01*
X54654853Y-98846966D01*
X54591297Y-98817941D01*
X54553523Y-98759163D01*
X54552725Y-98756321D01*
X54519105Y-98630849D01*
X54519101Y-98630840D01*
X54426667Y-98432614D01*
X54426666Y-98432612D01*
X54383124Y-98370428D01*
X54383124Y-98370427D01*
X53693553Y-99059999D01*
X53693553Y-99060000D01*
X54383124Y-99749570D01*
X54426668Y-99687385D01*
X54426669Y-99687383D01*
X54519100Y-99489164D01*
X54519105Y-99489150D01*
X54552725Y-99363678D01*
X54589090Y-99304017D01*
X54651937Y-99273488D01*
X54721312Y-99281782D01*
X54775190Y-99326268D01*
X54796465Y-99392820D01*
X54796500Y-99395771D01*
X54796500Y-102241390D01*
X54776815Y-102308429D01*
X54724011Y-102354184D01*
X54654853Y-102364128D01*
X54591297Y-102335103D01*
X54553523Y-102276325D01*
X54552738Y-102273531D01*
X54527120Y-102177924D01*
X54434056Y-101978347D01*
X54434054Y-101978344D01*
X54434053Y-101978342D01*
X54370902Y-101888154D01*
X54307749Y-101797962D01*
X54152038Y-101642251D01*
X53971654Y-101515944D01*
X53971650Y-101515942D01*
X53772081Y-101422882D01*
X53772079Y-101422881D01*
X53772076Y-101422880D01*
X53620777Y-101382339D01*
X53559372Y-101365885D01*
X53559365Y-101365884D01*
X53340002Y-101346693D01*
X53339998Y-101346693D01*
X53120634Y-101365884D01*
X53120627Y-101365885D01*
X52907920Y-101422881D01*
X52708346Y-101515944D01*
X52708342Y-101515946D01*
X52527967Y-101642247D01*
X52527960Y-101642252D01*
X52372252Y-101797960D01*
X52372247Y-101797967D01*
X52245946Y-101978342D01*
X52245944Y-101978346D01*
X52152881Y-102177920D01*
X52095885Y-102390627D01*
X52095884Y-102390634D01*
X52076693Y-102609997D01*
X52076693Y-102610000D01*
X52095885Y-102829371D01*
X52152880Y-103042076D01*
X52245944Y-103241654D01*
X52372251Y-103422038D01*
X52527962Y-103577749D01*
X52708346Y-103704056D01*
X52907924Y-103797120D01*
X53120629Y-103854115D01*
X53277322Y-103867823D01*
X53339998Y-103873307D01*
X53340000Y-103873307D01*
X53340002Y-103873307D01*
X53394842Y-103868509D01*
X53559371Y-103854115D01*
X53772076Y-103797120D01*
X53971654Y-103704056D01*
X54152038Y-103577749D01*
X54307749Y-103422038D01*
X54434056Y-103241654D01*
X54527120Y-103042076D01*
X54552726Y-102946512D01*
X54589090Y-102886855D01*
X54651938Y-102856326D01*
X54721313Y-102864621D01*
X54775191Y-102909106D01*
X54796465Y-102975659D01*
X54796500Y-102978609D01*
X54796500Y-110210366D01*
X54794761Y-110226113D01*
X54795032Y-110226139D01*
X54794298Y-110233905D01*
X54794298Y-110233908D01*
X54794298Y-110233909D01*
X54796439Y-110302016D01*
X54796500Y-110305912D01*
X54796500Y-110333859D01*
X54797018Y-110337958D01*
X54797934Y-110349598D01*
X54799326Y-110393889D01*
X54799327Y-110393891D01*
X54805022Y-110413495D01*
X54808967Y-110432542D01*
X54811526Y-110452797D01*
X54811527Y-110452800D01*
X54811528Y-110452804D01*
X54827838Y-110494000D01*
X54831621Y-110505049D01*
X54843981Y-110547592D01*
X54854372Y-110565162D01*
X54862932Y-110582635D01*
X54870447Y-110601617D01*
X54896491Y-110637463D01*
X54902905Y-110647227D01*
X54925458Y-110685362D01*
X54925462Y-110685366D01*
X54939888Y-110699792D01*
X54952525Y-110714587D01*
X54964528Y-110731107D01*
X54998672Y-110759354D01*
X55007310Y-110767215D01*
X55333223Y-111093129D01*
X55333227Y-111093132D01*
X55333230Y-111093135D01*
X55427959Y-111166614D01*
X55431113Y-111167979D01*
X55469552Y-111194101D01*
X57223642Y-112948191D01*
X57257127Y-113009514D01*
X57259878Y-113040399D01*
X57257771Y-113098056D01*
X57287527Y-113368471D01*
X57287528Y-113368481D01*
X57289547Y-113376202D01*
X57356337Y-113631678D01*
X57462737Y-113882058D01*
X57539568Y-114007951D01*
X57604455Y-114114273D01*
X57604456Y-114114274D01*
X57604458Y-114114277D01*
X57744533Y-114282594D01*
X57778485Y-114323392D01*
X57925901Y-114455476D01*
X57981096Y-114504931D01*
X58207984Y-114655039D01*
X58454311Y-114770512D01*
X58454313Y-114770512D01*
X58454314Y-114770513D01*
X58454320Y-114770515D01*
X58714813Y-114848886D01*
X58714820Y-114848887D01*
X58714825Y-114848889D01*
X58983975Y-114888500D01*
X59451334Y-114888500D01*
X59518373Y-114908185D01*
X59539015Y-114924819D01*
X59774015Y-115159819D01*
X59807500Y-115221142D01*
X59802516Y-115290834D01*
X59760644Y-115346767D01*
X59695180Y-115371184D01*
X59686334Y-115371500D01*
X57969448Y-115371500D01*
X57864791Y-115382193D01*
X57796098Y-115369424D01*
X57745213Y-115321544D01*
X57731947Y-115289135D01*
X57716957Y-115229642D01*
X57712680Y-115212666D01*
X57712677Y-115212658D01*
X57710834Y-115208601D01*
X57704201Y-115190306D01*
X57703015Y-115186010D01*
X57694495Y-115168319D01*
X57660599Y-115097933D01*
X57659430Y-115095434D01*
X57658190Y-115092704D01*
X57618994Y-115006409D01*
X57616450Y-115002737D01*
X57606658Y-114985922D01*
X57604725Y-114981907D01*
X57563248Y-114924819D01*
X57547256Y-114902808D01*
X57545646Y-114900538D01*
X57489992Y-114820206D01*
X57489989Y-114820202D01*
X57489986Y-114820198D01*
X57486832Y-114817044D01*
X57474197Y-114802251D01*
X57471572Y-114798639D01*
X57471573Y-114798639D01*
X57471571Y-114798637D01*
X57400864Y-114731034D01*
X57398920Y-114729132D01*
X56092087Y-113422299D01*
X56058602Y-113360976D01*
X56057831Y-113312097D01*
X56072292Y-113233810D01*
X56082228Y-112961942D01*
X56052473Y-112691525D01*
X55983663Y-112428322D01*
X55877263Y-112177942D01*
X55735542Y-111945723D01*
X55561519Y-111736613D01*
X55561518Y-111736612D01*
X55561514Y-111736607D01*
X55358904Y-111555069D01*
X55132016Y-111404961D01*
X54885689Y-111289488D01*
X54885685Y-111289486D01*
X54885679Y-111289484D01*
X54625186Y-111211113D01*
X54625172Y-111211110D01*
X54509037Y-111194018D01*
X54356025Y-111171500D01*
X53552080Y-111171500D01*
X53552061Y-111171500D01*
X53348676Y-111186387D01*
X53348666Y-111186388D01*
X53083140Y-111245537D01*
X53083135Y-111245539D01*
X52829034Y-111342724D01*
X52591798Y-111475868D01*
X52591793Y-111475871D01*
X52376472Y-111642137D01*
X52376462Y-111642146D01*
X52187651Y-111837984D01*
X52187649Y-111837986D01*
X52029355Y-112059241D01*
X52029352Y-112059246D01*
X51904968Y-112301172D01*
X51904961Y-112301190D01*
X51817124Y-112558656D01*
X51817121Y-112558670D01*
X51767708Y-112826190D01*
X51767707Y-112826197D01*
X51757771Y-113098056D01*
X51787527Y-113368471D01*
X51787528Y-113368481D01*
X51789547Y-113376202D01*
X51856337Y-113631678D01*
X51962737Y-113882058D01*
X52039568Y-114007951D01*
X52104455Y-114114273D01*
X52104456Y-114114274D01*
X52104458Y-114114277D01*
X52244533Y-114282594D01*
X52278485Y-114323392D01*
X52425901Y-114455476D01*
X52481096Y-114504931D01*
X52707984Y-114655039D01*
X52954311Y-114770512D01*
X52954313Y-114770512D01*
X52954314Y-114770513D01*
X52954320Y-114770515D01*
X53214813Y-114848886D01*
X53214820Y-114848887D01*
X53214825Y-114848889D01*
X53483975Y-114888500D01*
X53947350Y-114888500D01*
X54014389Y-114908185D01*
X54035031Y-114924819D01*
X54278531Y-115168319D01*
X54312016Y-115229642D01*
X54307032Y-115299334D01*
X54265160Y-115355267D01*
X54199696Y-115379684D01*
X54190850Y-115380000D01*
X54170000Y-115380000D01*
X54170000Y-116576162D01*
X54088751Y-116545349D01*
X53962340Y-116530000D01*
X53877660Y-116530000D01*
X53751249Y-116545349D01*
X53670000Y-116576162D01*
X53670000Y-115380000D01*
X53552375Y-115380000D01*
X53349917Y-115394819D01*
X53349907Y-115394820D01*
X53085595Y-115453699D01*
X53085590Y-115453701D01*
X52832652Y-115550442D01*
X52596501Y-115682976D01*
X52596498Y-115682978D01*
X52382157Y-115848486D01*
X52194208Y-116043430D01*
X52194202Y-116043437D01*
X52036630Y-116263681D01*
X52036627Y-116263686D01*
X51912812Y-116504505D01*
X51912805Y-116504523D01*
X51825370Y-116760812D01*
X51825367Y-116760826D01*
X51784883Y-116979999D01*
X51784884Y-116980000D01*
X53260671Y-116980000D01*
X53220000Y-117145005D01*
X53220000Y-117314995D01*
X53260671Y-117480000D01*
X51786343Y-117480000D01*
X51795908Y-117566923D01*
X51795909Y-117566933D01*
X51864401Y-117828920D01*
X51970317Y-118078160D01*
X52111387Y-118309313D01*
X52111388Y-118309315D01*
X52284617Y-118517474D01*
X52486304Y-118698184D01*
X52712152Y-118847604D01*
X52957364Y-118962554D01*
X53216666Y-119040567D01*
X53216680Y-119040570D01*
X53484601Y-119079999D01*
X53484602Y-119080000D01*
X53670000Y-119080000D01*
X53670000Y-117883837D01*
X53751249Y-117914651D01*
X53877660Y-117930000D01*
X53962340Y-117930000D01*
X54088751Y-117914651D01*
X54170000Y-117883837D01*
X54170000Y-119080000D01*
X54287604Y-119080000D01*
X54287624Y-119079999D01*
X54490082Y-119065180D01*
X54490092Y-119065179D01*
X54754404Y-119006300D01*
X54754409Y-119006298D01*
X55007347Y-118909557D01*
X55076812Y-118870572D01*
X55144908Y-118854927D01*
X55210651Y-118878582D01*
X55253170Y-118934025D01*
X55261500Y-118978706D01*
X55261500Y-122557350D01*
X55241815Y-122624389D01*
X55225181Y-122645031D01*
X54035031Y-123835181D01*
X53973708Y-123868666D01*
X53947350Y-123871500D01*
X53552061Y-123871500D01*
X53348676Y-123886387D01*
X53348666Y-123886388D01*
X53083140Y-123945537D01*
X53083135Y-123945539D01*
X52829034Y-124042724D01*
X52591798Y-124175868D01*
X52591793Y-124175871D01*
X52376472Y-124342137D01*
X52376462Y-124342146D01*
X52187651Y-124537984D01*
X52187649Y-124537986D01*
X52029355Y-124759241D01*
X52029352Y-124759246D01*
X51904968Y-125001172D01*
X51904961Y-125001190D01*
X51817124Y-125258656D01*
X51817121Y-125258670D01*
X51767708Y-125526190D01*
X51767707Y-125526197D01*
X51757771Y-125798056D01*
X46600500Y-125798056D01*
X46600500Y-100103124D01*
X52650427Y-100103124D01*
X52712612Y-100146666D01*
X52910840Y-100239101D01*
X52910849Y-100239105D01*
X53122105Y-100295710D01*
X53122115Y-100295712D01*
X53339999Y-100314775D01*
X53340001Y-100314775D01*
X53557884Y-100295712D01*
X53557894Y-100295710D01*
X53769150Y-100239105D01*
X53769164Y-100239100D01*
X53967383Y-100146669D01*
X53967385Y-100146668D01*
X54029571Y-100103124D01*
X53340001Y-99413553D01*
X53340000Y-99413553D01*
X52650427Y-100103124D01*
X46600500Y-100103124D01*
X46600500Y-99060000D01*
X52085225Y-99060000D01*
X52104287Y-99277884D01*
X52104289Y-99277894D01*
X52160894Y-99489150D01*
X52160898Y-99489159D01*
X52253333Y-99687387D01*
X52296874Y-99749571D01*
X52957144Y-99089302D01*
X52986372Y-99089302D01*
X53015047Y-99202538D01*
X53078936Y-99300327D01*
X53171115Y-99372072D01*
X53281595Y-99410000D01*
X53369005Y-99410000D01*
X53455216Y-99395614D01*
X53557947Y-99340019D01*
X53637060Y-99254079D01*
X53683982Y-99147108D01*
X53693628Y-99030698D01*
X53664953Y-98917462D01*
X53601064Y-98819673D01*
X53508885Y-98747928D01*
X53398405Y-98710000D01*
X53310995Y-98710000D01*
X53224784Y-98724386D01*
X53122053Y-98779981D01*
X53042940Y-98865921D01*
X52996018Y-98972892D01*
X52986372Y-99089302D01*
X52957144Y-99089302D01*
X52986446Y-99060000D01*
X52296874Y-98370428D01*
X52253333Y-98432613D01*
X52160898Y-98630840D01*
X52160894Y-98630849D01*
X52104289Y-98842105D01*
X52104287Y-98842115D01*
X52085225Y-99059999D01*
X52085225Y-99060000D01*
X46600500Y-99060000D01*
X46600500Y-98016874D01*
X52650428Y-98016874D01*
X53340000Y-98706446D01*
X53340001Y-98706446D01*
X54029571Y-98016874D01*
X53967387Y-97973333D01*
X53769159Y-97880898D01*
X53769150Y-97880894D01*
X53557894Y-97824289D01*
X53557884Y-97824287D01*
X53340001Y-97805225D01*
X53339999Y-97805225D01*
X53122115Y-97824287D01*
X53122105Y-97824289D01*
X52910849Y-97880894D01*
X52910840Y-97880898D01*
X52712613Y-97973333D01*
X52650428Y-98016874D01*
X46600500Y-98016874D01*
X46600500Y-59439999D01*
X66931127Y-59439999D01*
X66931128Y-59440000D01*
X68085393Y-59440000D01*
X68025762Y-59557031D01*
X68004702Y-59690000D01*
X68025762Y-59822969D01*
X68085393Y-59940000D01*
X66931128Y-59940000D01*
X66983730Y-60136317D01*
X66983734Y-60136326D01*
X67079865Y-60342482D01*
X67210342Y-60528820D01*
X67371179Y-60689657D01*
X67557517Y-60820134D01*
X67763673Y-60916265D01*
X67763682Y-60916269D01*
X67983389Y-60975139D01*
X67983400Y-60975141D01*
X68153233Y-60989999D01*
X68153236Y-60990000D01*
X68410000Y-60990000D01*
X68410000Y-60115000D01*
X68910000Y-60115000D01*
X68910000Y-60990000D01*
X69166764Y-60990000D01*
X69166766Y-60989999D01*
X69336599Y-60975141D01*
X69336610Y-60975139D01*
X69556317Y-60916269D01*
X69556326Y-60916265D01*
X69762482Y-60820134D01*
X69948820Y-60689657D01*
X70109657Y-60528820D01*
X70240134Y-60342482D01*
X70336265Y-60136326D01*
X70336269Y-60136317D01*
X70388872Y-59940000D01*
X69234607Y-59940000D01*
X69294238Y-59822969D01*
X69315298Y-59690000D01*
X69294238Y-59557031D01*
X69234607Y-59440000D01*
X70388872Y-59440000D01*
X70388872Y-59439999D01*
X71931127Y-59439999D01*
X71931128Y-59440000D01*
X73085393Y-59440000D01*
X73025762Y-59557031D01*
X73004702Y-59690000D01*
X73025762Y-59822969D01*
X73085393Y-59940000D01*
X71931128Y-59940000D01*
X71983730Y-60136317D01*
X71983734Y-60136326D01*
X72079865Y-60342482D01*
X72210342Y-60528820D01*
X72371179Y-60689657D01*
X72557517Y-60820134D01*
X72763673Y-60916265D01*
X72763682Y-60916269D01*
X72983389Y-60975139D01*
X72983400Y-60975141D01*
X73153233Y-60989999D01*
X73153236Y-60990000D01*
X73410000Y-60990000D01*
X73410000Y-60115000D01*
X73910000Y-60115000D01*
X73910000Y-60990000D01*
X74166764Y-60990000D01*
X74166766Y-60989999D01*
X74336599Y-60975141D01*
X74336610Y-60975139D01*
X74556317Y-60916269D01*
X74556326Y-60916265D01*
X74762482Y-60820134D01*
X74948820Y-60689657D01*
X75109657Y-60528820D01*
X75240134Y-60342482D01*
X75336265Y-60136326D01*
X75336269Y-60136317D01*
X75388872Y-59940000D01*
X74234607Y-59940000D01*
X74294238Y-59822969D01*
X74315298Y-59690000D01*
X74294238Y-59557031D01*
X74234607Y-59440000D01*
X75388872Y-59440000D01*
X75388872Y-59439999D01*
X75336269Y-59243682D01*
X75336265Y-59243673D01*
X75240134Y-59037517D01*
X75109657Y-58851179D01*
X74948820Y-58690342D01*
X74762482Y-58559865D01*
X74556326Y-58463734D01*
X74556317Y-58463730D01*
X74336610Y-58404860D01*
X74336599Y-58404858D01*
X74166766Y-58390000D01*
X73910000Y-58390000D01*
X73910000Y-59265000D01*
X73410000Y-59265000D01*
X73410000Y-58390000D01*
X73153233Y-58390000D01*
X72983400Y-58404858D01*
X72983389Y-58404860D01*
X72763682Y-58463730D01*
X72763673Y-58463734D01*
X72557517Y-58559865D01*
X72371179Y-58690342D01*
X72210342Y-58851179D01*
X72079865Y-59037517D01*
X71983734Y-59243673D01*
X71983730Y-59243682D01*
X71931127Y-59439999D01*
X70388872Y-59439999D01*
X70336269Y-59243682D01*
X70336265Y-59243673D01*
X70240134Y-59037517D01*
X70109657Y-58851179D01*
X69948820Y-58690342D01*
X69762482Y-58559865D01*
X69556326Y-58463734D01*
X69556317Y-58463730D01*
X69336610Y-58404860D01*
X69336599Y-58404858D01*
X69166766Y-58390000D01*
X68910000Y-58390000D01*
X68910000Y-59265000D01*
X68410000Y-59265000D01*
X68410000Y-58390000D01*
X68153233Y-58390000D01*
X67983400Y-58404858D01*
X67983389Y-58404860D01*
X67763682Y-58463730D01*
X67763673Y-58463734D01*
X67557517Y-58559865D01*
X67371179Y-58690342D01*
X67210342Y-58851179D01*
X67079865Y-59037517D01*
X66983734Y-59243673D01*
X66983730Y-59243682D01*
X66931127Y-59439999D01*
X46600500Y-59439999D01*
X46600500Y-56263500D01*
X46620185Y-56196461D01*
X46672989Y-56150706D01*
X46724500Y-56139500D01*
X76475500Y-56139500D01*
X76542539Y-56159185D01*
G37*
%TD.AperFunction*%
%TD*%
%TA.AperFunction,NonConductor*%
G36*
X67939210Y-154106199D02*
G01*
X67995143Y-154148071D01*
X68019560Y-154213535D01*
X68019876Y-154222381D01*
X68019876Y-155581867D01*
X68000191Y-155648906D01*
X67983557Y-155669548D01*
X67930181Y-155722924D01*
X67868858Y-155756409D01*
X67799166Y-155751425D01*
X67743233Y-155709553D01*
X67718816Y-155644089D01*
X67718500Y-155635243D01*
X67718500Y-154275757D01*
X67738185Y-154208718D01*
X67754819Y-154188076D01*
X67808195Y-154134700D01*
X67869518Y-154101215D01*
X67939210Y-154106199D01*
G37*
%TD.AperFunction*%
%TA.AperFunction,NonConductor*%
G36*
X64338703Y-94405053D02*
G01*
X64345181Y-94411085D01*
X64593870Y-94659774D01*
X64627355Y-94721097D01*
X64624754Y-94783764D01*
X64582188Y-94922758D01*
X64552816Y-95152135D01*
X64562630Y-95383172D01*
X64562630Y-95383178D01*
X64611351Y-95609240D01*
X64697572Y-95823809D01*
X64697574Y-95823813D01*
X64818821Y-96020730D01*
X64971602Y-96194324D01*
X64971605Y-96194327D01*
X65151517Y-96339595D01*
X65151521Y-96339598D01*
X65151524Y-96339600D01*
X65175565Y-96353030D01*
X65224491Y-96402908D01*
X65238685Y-96471320D01*
X65213639Y-96536547D01*
X65184530Y-96564019D01*
X65058482Y-96649213D01*
X65058477Y-96649217D01*
X64891523Y-96809228D01*
X64891518Y-96809234D01*
X64889364Y-96812147D01*
X64888136Y-96813076D01*
X64888044Y-96813182D01*
X64888022Y-96813163D01*
X64833672Y-96854338D01*
X64764010Y-96859722D01*
X64702496Y-96826589D01*
X64701992Y-96826088D01*
X64456308Y-96580404D01*
X64169819Y-96293914D01*
X64136334Y-96232591D01*
X64133500Y-96206233D01*
X64133500Y-94498766D01*
X64153185Y-94431727D01*
X64205989Y-94385972D01*
X64275147Y-94376028D01*
X64338703Y-94405053D01*
G37*
%TD.AperFunction*%
%TA.AperFunction,NonConductor*%
G36*
X58074719Y-111279842D02*
G01*
X58120474Y-111332646D01*
X58130418Y-111401804D01*
X58101393Y-111465360D01*
X58083466Y-111482302D01*
X57876472Y-111642137D01*
X57876462Y-111642147D01*
X57847401Y-111672289D01*
X57786699Y-111706888D01*
X57716928Y-111703176D01*
X57670453Y-111673904D01*
X57468387Y-111471838D01*
X57434902Y-111410515D01*
X57439886Y-111340823D01*
X57481758Y-111284890D01*
X57547222Y-111260473D01*
X57556068Y-111260157D01*
X58007680Y-111260157D01*
X58074719Y-111279842D01*
G37*
%TD.AperFunction*%
%TA.AperFunction,NonConductor*%
G36*
X57969456Y-119088500D02*
G01*
X60637500Y-119088500D01*
X60704539Y-119108185D01*
X60750294Y-119160989D01*
X60761500Y-119212500D01*
X60761500Y-123970583D01*
X60741815Y-124037622D01*
X60689011Y-124083377D01*
X60619853Y-124093321D01*
X60584868Y-124082859D01*
X60385685Y-123989486D01*
X60385679Y-123989484D01*
X60125186Y-123911113D01*
X60125172Y-123911110D01*
X60009037Y-123894018D01*
X59856025Y-123871500D01*
X59052080Y-123871500D01*
X59052061Y-123871500D01*
X58848676Y-123886387D01*
X58848666Y-123886388D01*
X58583140Y-123945537D01*
X58583135Y-123945539D01*
X58329034Y-124042724D01*
X58091798Y-124175868D01*
X58091793Y-124175871D01*
X57876472Y-124342137D01*
X57876462Y-124342146D01*
X57687651Y-124537984D01*
X57687649Y-124537986D01*
X57529355Y-124759241D01*
X57529352Y-124759246D01*
X57404968Y-125001172D01*
X57404961Y-125001190D01*
X57317124Y-125258656D01*
X57317121Y-125258670D01*
X57267708Y-125526190D01*
X57267707Y-125526197D01*
X57257771Y-125798056D01*
X57287527Y-126068471D01*
X57287528Y-126068481D01*
X57289547Y-126076202D01*
X57356337Y-126331678D01*
X57462737Y-126582058D01*
X57539568Y-126707951D01*
X57604455Y-126814273D01*
X57604456Y-126814274D01*
X57604458Y-126814277D01*
X57744533Y-126982594D01*
X57778485Y-127023392D01*
X57967232Y-127192509D01*
X57981096Y-127204931D01*
X58207984Y-127355039D01*
X58454311Y-127470512D01*
X58454313Y-127470512D01*
X58454314Y-127470513D01*
X58454320Y-127470515D01*
X58714813Y-127548886D01*
X58714820Y-127548887D01*
X58714825Y-127548889D01*
X58983975Y-127588500D01*
X58983980Y-127588500D01*
X59787918Y-127588500D01*
X59787920Y-127588500D01*
X59787924Y-127588499D01*
X59787938Y-127588499D01*
X59834361Y-127585101D01*
X59991324Y-127573613D01*
X60042202Y-127562279D01*
X60111913Y-127566915D01*
X60156843Y-127595631D01*
X60421031Y-127859819D01*
X60454516Y-127921142D01*
X60449532Y-127990834D01*
X60407660Y-128046767D01*
X60342196Y-128071184D01*
X60333350Y-128071500D01*
X57969448Y-128071500D01*
X57864791Y-128082193D01*
X57796098Y-128069424D01*
X57745213Y-128021544D01*
X57731947Y-127989135D01*
X57716957Y-127929642D01*
X57712680Y-127912666D01*
X57712677Y-127912658D01*
X57710834Y-127908601D01*
X57704201Y-127890306D01*
X57703015Y-127886010D01*
X57694495Y-127868319D01*
X57660599Y-127797933D01*
X57659430Y-127795434D01*
X57618994Y-127706409D01*
X57616450Y-127702737D01*
X57606658Y-127685922D01*
X57604725Y-127681907D01*
X57563248Y-127624819D01*
X57547256Y-127602808D01*
X57545646Y-127600538D01*
X57489992Y-127520206D01*
X57489989Y-127520202D01*
X57489986Y-127520198D01*
X57486832Y-127517044D01*
X57474197Y-127502251D01*
X57471572Y-127498639D01*
X57471573Y-127498639D01*
X57471571Y-127498637D01*
X57400864Y-127431034D01*
X57398920Y-127429132D01*
X56092087Y-126122299D01*
X56058602Y-126060976D01*
X56057831Y-126012097D01*
X56072292Y-125933810D01*
X56082228Y-125661942D01*
X56057573Y-125437879D01*
X56069807Y-125369092D01*
X56093145Y-125336641D01*
X57355001Y-124074785D01*
X57365351Y-124065536D01*
X57393218Y-124043314D01*
X57437107Y-123993077D01*
X57442810Y-123986978D01*
X57449845Y-123979943D01*
X57449845Y-123979942D01*
X57449861Y-123979927D01*
X57476233Y-123948336D01*
X57477895Y-123946390D01*
X57542263Y-123872718D01*
X57544546Y-123868897D01*
X57555817Y-123853013D01*
X57557282Y-123851256D01*
X57558671Y-123849594D01*
X57606943Y-123764518D01*
X57608259Y-123762258D01*
X57658453Y-123678250D01*
X57660021Y-123674069D01*
X57668269Y-123656439D01*
X57670467Y-123652567D01*
X57702765Y-123560262D01*
X57703655Y-123557805D01*
X57738051Y-123466161D01*
X57738848Y-123461765D01*
X57743815Y-123442952D01*
X57745287Y-123438746D01*
X57747483Y-123424876D01*
X57760584Y-123342163D01*
X57761042Y-123339461D01*
X57778500Y-123243267D01*
X57778500Y-123238807D01*
X57780028Y-123219402D01*
X57780725Y-123215002D01*
X57778531Y-123117244D01*
X57778500Y-123114462D01*
X57778500Y-119206305D01*
X57798185Y-119139266D01*
X57850989Y-119093511D01*
X57915103Y-119082947D01*
X57969456Y-119088500D01*
G37*
%TD.AperFunction*%
M02*
