%TF.GenerationSoftware,KiCad,Pcbnew,7.0.11+dfsg-1build4*%
%TF.CreationDate,2024-12-30T23:49:52+01:00*%
%TF.ProjectId,Z80-Backplane,5a38302d-4261-4636-9b70-6c616e652e6b,rev?*%
%TF.SameCoordinates,Original*%
%TF.FileFunction,Copper,L1,Top*%
%TF.FilePolarity,Positive*%
%FSLAX46Y46*%
G04 Gerber Fmt 4.6, Leading zero omitted, Abs format (unit mm)*
G04 Created by KiCad (PCBNEW 7.0.11+dfsg-1build4) date 2024-12-30 23:49:52*
%MOMM*%
%LPD*%
G01*
G04 APERTURE LIST*
G04 Aperture macros list*
%AMRoundRect*
0 Rectangle with rounded corners*
0 $1 Rounding radius*
0 $2 $3 $4 $5 $6 $7 $8 $9 X,Y pos of 4 corners*
0 Add a 4 corners polygon primitive as box body*
4,1,4,$2,$3,$4,$5,$6,$7,$8,$9,$2,$3,0*
0 Add four circle primitives for the rounded corners*
1,1,$1+$1,$2,$3*
1,1,$1+$1,$4,$5*
1,1,$1+$1,$6,$7*
1,1,$1+$1,$8,$9*
0 Add four rect primitives between the rounded corners*
20,1,$1+$1,$2,$3,$4,$5,0*
20,1,$1+$1,$4,$5,$6,$7,0*
20,1,$1+$1,$6,$7,$8,$9,0*
20,1,$1+$1,$8,$9,$2,$3,0*%
G04 Aperture macros list end*
%TA.AperFunction,ComponentPad*%
%ADD10C,1.600000*%
%TD*%
%TA.AperFunction,ComponentPad*%
%ADD11O,1.600000X1.600000*%
%TD*%
%TA.AperFunction,ComponentPad*%
%ADD12RoundRect,0.250000X0.725000X-0.600000X0.725000X0.600000X-0.725000X0.600000X-0.725000X-0.600000X0*%
%TD*%
%TA.AperFunction,ComponentPad*%
%ADD13O,1.950000X1.700000*%
%TD*%
%TA.AperFunction,ComponentPad*%
%ADD14O,2.500000X1.600000*%
%TD*%
%TA.AperFunction,ComponentPad*%
%ADD15C,4.700000*%
%TD*%
%TA.AperFunction,ComponentPad*%
%ADD16C,1.500000*%
%TD*%
%TA.AperFunction,ComponentPad*%
%ADD17RoundRect,0.250001X1.399999X-1.099999X1.399999X1.099999X-1.399999X1.099999X-1.399999X-1.099999X0*%
%TD*%
%TA.AperFunction,ComponentPad*%
%ADD18O,3.300000X2.700000*%
%TD*%
%TA.AperFunction,ViaPad*%
%ADD19C,0.800000*%
%TD*%
%TA.AperFunction,Conductor*%
%ADD20C,0.200000*%
%TD*%
%TA.AperFunction,Conductor*%
%ADD21C,0.250000*%
%TD*%
%TA.AperFunction,Conductor*%
%ADD22C,1.500000*%
%TD*%
G04 APERTURE END LIST*
D10*
%TO.P,R3,1*%
%TO.N,+5V*%
X54610000Y-87630000D03*
D11*
%TO.P,R3,2*%
%TO.N,Net-(J3-Pin_3)*%
X64770000Y-87630000D03*
%TD*%
D10*
%TO.P,R2,1*%
%TO.N,+12V*%
X54610000Y-83820000D03*
D11*
%TO.P,R2,2*%
%TO.N,Net-(J3-Pin_2)*%
X64770000Y-83820000D03*
%TD*%
D10*
%TO.P,R1,1*%
%TO.N,-12V*%
X54610000Y-80010000D03*
D11*
%TO.P,R1,2*%
%TO.N,Net-(J3-Pin_1)*%
X64770000Y-80010000D03*
%TD*%
D12*
%TO.P,J3,1,Pin_1*%
%TO.N,Net-(J3-Pin_1)*%
X66040000Y-100210000D03*
D13*
%TO.P,J3,2,Pin_2*%
%TO.N,Net-(J3-Pin_2)*%
X66040000Y-97710000D03*
%TO.P,J3,3,Pin_3*%
%TO.N,Net-(J3-Pin_3)*%
X66040000Y-95210000D03*
%TO.P,J3,4,Pin_4*%
%TO.N,GND*%
X66040000Y-92710000D03*
%TD*%
D14*
%TO.P,J5,1,Pin_1*%
%TO.N,+5V*%
X62056000Y-137160000D03*
X67056000Y-137160000D03*
%TD*%
D15*
%TO.P,H10,1,1*%
%TO.N,GND*%
X62200000Y-172500000D03*
%TD*%
D14*
%TO.P,J8,1,Pin_1*%
%TO.N,GND*%
X62056000Y-142240000D03*
X67056000Y-142240000D03*
%TD*%
%TO.P,J13,1,Pin_1*%
%TO.N,-12V*%
X62056000Y-152400000D03*
X67056000Y-152400000D03*
%TD*%
D15*
%TO.P,H11,1,1*%
%TO.N,GND*%
X62200000Y-50000000D03*
%TD*%
D14*
%TO.P,J11,1,Pin_1*%
%TO.N,+12V*%
X62056000Y-147320000D03*
X67056000Y-147320000D03*
%TD*%
%TO.P,J10,1,Pin_1*%
%TO.N,+12V*%
X73660000Y-157480000D03*
X68660000Y-157480000D03*
%TD*%
D16*
%TO.P,TP4,1,1*%
%TO.N,GND*%
X53340000Y-102610000D03*
%TD*%
D17*
%TO.P,J1,1,Pin_1*%
%TO.N,-12V*%
X59420000Y-117230000D03*
D18*
%TO.P,J1,2,Pin_2*%
%TO.N,+12V*%
X59420000Y-113030000D03*
%TO.P,J1,3,Pin_3*%
%TO.N,+5V*%
X53920000Y-117230000D03*
%TO.P,J1,4,Pin_4*%
%TO.N,GND*%
X53920000Y-113030000D03*
%TD*%
D16*
%TO.P,TP2,1,1*%
%TO.N,+12V*%
X53340000Y-95510000D03*
%TD*%
D14*
%TO.P,J12,1,Pin_1*%
%TO.N,-12V*%
X73660000Y-162560000D03*
X68660000Y-162560000D03*
%TD*%
%TO.P,J7,1,Pin_1*%
%TO.N,GND*%
X73660000Y-64770000D03*
X68660000Y-64770000D03*
%TD*%
%TO.P,J6,1,Pin_1*%
%TO.N,+5V*%
X73660000Y-59690000D03*
X68660000Y-59690000D03*
%TD*%
D17*
%TO.P,J2,1,Pin_1*%
%TO.N,-12V*%
X59420000Y-129930000D03*
D18*
%TO.P,J2,2,Pin_2*%
%TO.N,+12V*%
X59420000Y-125730000D03*
%TO.P,J2,3,Pin_3*%
%TO.N,+5V*%
X53920000Y-129930000D03*
%TO.P,J2,4,Pin_4*%
%TO.N,GND*%
X53920000Y-125730000D03*
%TD*%
D16*
%TO.P,TP1,1,1*%
%TO.N,-12V*%
X53340000Y-91960000D03*
%TD*%
%TO.P,TP3,1,1*%
%TO.N,+5V*%
X53340000Y-99060000D03*
%TD*%
D19*
%TO.N,+12V*%
X54610000Y-93980000D03*
%TO.N,GND*%
X56007000Y-141732000D03*
X56896000Y-133604000D03*
X56896000Y-141732000D03*
X56007000Y-142621000D03*
X56896000Y-142621000D03*
X56007000Y-134493000D03*
X70612000Y-164410000D03*
X56896000Y-134493000D03*
X56007000Y-133604000D03*
%TO.N,+12V*%
X62484000Y-134239000D03*
X61595000Y-135128000D03*
X61595000Y-134239000D03*
X62484000Y-135128000D03*
%TO.N,-12V*%
X63881000Y-116713000D03*
X63881000Y-117602000D03*
X64897000Y-129540000D03*
X64008000Y-129540000D03*
X64897000Y-130429000D03*
X64897000Y-135128000D03*
X64008000Y-135128000D03*
X64770000Y-116713000D03*
X64008000Y-130429000D03*
X64897000Y-134239000D03*
X64008000Y-134239000D03*
X64770000Y-117602000D03*
%TD*%
D20*
%TO.N,GND*%
X63246000Y-61468000D02*
X63246000Y-55499000D01*
D21*
%TO.N,+12V*%
X53340000Y-95250000D02*
X54610000Y-93980000D01*
X53340000Y-95510000D02*
X53340000Y-95250000D01*
D20*
%TO.N,GND*%
X66548000Y-64770000D02*
X63246000Y-61468000D01*
D22*
X56522521Y-135636000D02*
X56522521Y-134016340D01*
X56388000Y-135882479D02*
X56388000Y-142367000D01*
X56522521Y-142120521D02*
X56642000Y-142240000D01*
D20*
X68660000Y-64770000D02*
X66548000Y-64770000D01*
D22*
%TO.N,+12V*%
X59856000Y-136232000D02*
X61468000Y-134620000D01*
X62056000Y-147320000D02*
X59856000Y-145120000D01*
X61468000Y-134620000D02*
X61976000Y-134620000D01*
X59856000Y-145120000D02*
X59856000Y-136232000D01*
%TO.N,-12V*%
X59420000Y-129930000D02*
X64380000Y-129930000D01*
X64380000Y-129930000D02*
X64389000Y-129921000D01*
X64256000Y-150200000D02*
X64256000Y-134880000D01*
X59429000Y-117221000D02*
X59420000Y-117230000D01*
X64256000Y-134880000D02*
X64516000Y-134620000D01*
X64389000Y-117221000D02*
X59429000Y-117221000D01*
X62056000Y-152400000D02*
X64256000Y-150200000D01*
%TD*%
%TA.AperFunction,Conductor*%
%TO.N,GND*%
G36*
X62306000Y-143540000D02*
G01*
X62562764Y-143540000D01*
X62562766Y-143539999D01*
X62732599Y-143525141D01*
X62732606Y-143525140D01*
X62841406Y-143495987D01*
X62911256Y-143497650D01*
X62969119Y-143536812D01*
X62996623Y-143601040D01*
X62997500Y-143615762D01*
X62997500Y-145935438D01*
X62977815Y-146002477D01*
X62925011Y-146048232D01*
X62855853Y-146058176D01*
X62841407Y-146055213D01*
X62734092Y-146026458D01*
X62734082Y-146026456D01*
X62568811Y-146011997D01*
X62503743Y-145986544D01*
X62491938Y-145976150D01*
X61150819Y-144635031D01*
X61117334Y-144573708D01*
X61114500Y-144547350D01*
X61114500Y-143615762D01*
X61134185Y-143548723D01*
X61186989Y-143502968D01*
X61256147Y-143493024D01*
X61270594Y-143495987D01*
X61379393Y-143525140D01*
X61379400Y-143525141D01*
X61549233Y-143539999D01*
X61549236Y-143540000D01*
X61806000Y-143540000D01*
X61806000Y-142665000D01*
X62306000Y-142665000D01*
X62306000Y-143540000D01*
G37*
%TD.AperFunction*%
%TA.AperFunction,Conductor*%
G36*
X61270582Y-138424783D02*
G01*
X61377913Y-138453543D01*
X61548871Y-138468499D01*
X61548872Y-138468500D01*
X61548873Y-138468500D01*
X62563128Y-138468500D01*
X62563128Y-138468499D01*
X62734087Y-138453543D01*
X62841408Y-138424786D01*
X62911256Y-138426449D01*
X62969118Y-138465611D01*
X62996623Y-138529839D01*
X62997500Y-138544561D01*
X62997500Y-140864237D01*
X62977815Y-140931276D01*
X62925011Y-140977031D01*
X62855853Y-140986975D01*
X62841407Y-140984012D01*
X62732610Y-140954860D01*
X62732599Y-140954858D01*
X62562766Y-140940000D01*
X62306000Y-140940000D01*
X62306000Y-141815000D01*
X61806000Y-141815000D01*
X61806000Y-140940000D01*
X61549233Y-140940000D01*
X61379400Y-140954858D01*
X61379389Y-140954860D01*
X61270593Y-140984012D01*
X61200743Y-140982349D01*
X61142881Y-140943186D01*
X61115377Y-140878958D01*
X61114500Y-140864237D01*
X61114500Y-138544561D01*
X61134185Y-138477522D01*
X61186989Y-138431767D01*
X61256147Y-138421823D01*
X61270582Y-138424783D01*
G37*
%TD.AperFunction*%
%TA.AperFunction,Conductor*%
G36*
X76542539Y-55899685D02*
G01*
X76588294Y-55952489D01*
X76599500Y-56004000D01*
X76599500Y-166246000D01*
X76579815Y-166313039D01*
X76527011Y-166358794D01*
X76475500Y-166370000D01*
X46724500Y-166370000D01*
X46657461Y-166350315D01*
X46611706Y-166297511D01*
X46600500Y-166246000D01*
X46600500Y-162560001D01*
X66896502Y-162560001D01*
X66916456Y-162788081D01*
X66916457Y-162788089D01*
X66975714Y-163009238D01*
X66975718Y-163009249D01*
X67072475Y-163216745D01*
X67072477Y-163216749D01*
X67203802Y-163404300D01*
X67365700Y-163566198D01*
X67553251Y-163697523D01*
X67678091Y-163755736D01*
X67760750Y-163794281D01*
X67760752Y-163794281D01*
X67760757Y-163794284D01*
X67981913Y-163853543D01*
X68152871Y-163868499D01*
X68152872Y-163868500D01*
X68152873Y-163868500D01*
X69167128Y-163868500D01*
X69167128Y-163868499D01*
X69338087Y-163853543D01*
X69559243Y-163794284D01*
X69766749Y-163697523D01*
X69954300Y-163566198D01*
X70116198Y-163404300D01*
X70247523Y-163216749D01*
X70344284Y-163009243D01*
X70403543Y-162788087D01*
X70423498Y-162560001D01*
X71896502Y-162560001D01*
X71916456Y-162788081D01*
X71916457Y-162788089D01*
X71975714Y-163009238D01*
X71975718Y-163009249D01*
X72072475Y-163216745D01*
X72072477Y-163216749D01*
X72203802Y-163404300D01*
X72365700Y-163566198D01*
X72553251Y-163697523D01*
X72678091Y-163755736D01*
X72760750Y-163794281D01*
X72760752Y-163794281D01*
X72760757Y-163794284D01*
X72981913Y-163853543D01*
X73152871Y-163868499D01*
X73152872Y-163868500D01*
X73152873Y-163868500D01*
X74167128Y-163868500D01*
X74167128Y-163868499D01*
X74338087Y-163853543D01*
X74559243Y-163794284D01*
X74766749Y-163697523D01*
X74954300Y-163566198D01*
X75116198Y-163404300D01*
X75247523Y-163216749D01*
X75344284Y-163009243D01*
X75403543Y-162788087D01*
X75423498Y-162560000D01*
X75403543Y-162331913D01*
X75344284Y-162110757D01*
X75247523Y-161903251D01*
X75116198Y-161715700D01*
X74954300Y-161553802D01*
X74766749Y-161422477D01*
X74766745Y-161422475D01*
X74559249Y-161325718D01*
X74559238Y-161325714D01*
X74338089Y-161266457D01*
X74338081Y-161266456D01*
X74167130Y-161251500D01*
X74167127Y-161251500D01*
X73152873Y-161251500D01*
X73152869Y-161251500D01*
X72981918Y-161266456D01*
X72981910Y-161266457D01*
X72760761Y-161325714D01*
X72760750Y-161325718D01*
X72553254Y-161422475D01*
X72553252Y-161422476D01*
X72553251Y-161422477D01*
X72365700Y-161553802D01*
X72365698Y-161553803D01*
X72365695Y-161553806D01*
X72203806Y-161715695D01*
X72072476Y-161903252D01*
X72072475Y-161903254D01*
X71975718Y-162110750D01*
X71975714Y-162110761D01*
X71916457Y-162331910D01*
X71916456Y-162331918D01*
X71896502Y-162559998D01*
X71896502Y-162560001D01*
X70423498Y-162560001D01*
X70423498Y-162560000D01*
X70403543Y-162331913D01*
X70344284Y-162110757D01*
X70247523Y-161903251D01*
X70116198Y-161715700D01*
X69954300Y-161553802D01*
X69766749Y-161422477D01*
X69766745Y-161422475D01*
X69559249Y-161325718D01*
X69559238Y-161325714D01*
X69338089Y-161266457D01*
X69338081Y-161266456D01*
X69167130Y-161251500D01*
X69167127Y-161251500D01*
X68152873Y-161251500D01*
X68152869Y-161251500D01*
X67981918Y-161266456D01*
X67981910Y-161266457D01*
X67760761Y-161325714D01*
X67760750Y-161325718D01*
X67553254Y-161422475D01*
X67553252Y-161422476D01*
X67553251Y-161422477D01*
X67365700Y-161553802D01*
X67365698Y-161553803D01*
X67365695Y-161553806D01*
X67203806Y-161715695D01*
X67072476Y-161903252D01*
X67072475Y-161903254D01*
X66975718Y-162110750D01*
X66975714Y-162110761D01*
X66916457Y-162331910D01*
X66916456Y-162331918D01*
X66896502Y-162559998D01*
X66896502Y-162560001D01*
X46600500Y-162560001D01*
X46600500Y-157480001D01*
X66896502Y-157480001D01*
X66916456Y-157708081D01*
X66916457Y-157708089D01*
X66975714Y-157929238D01*
X66975718Y-157929249D01*
X67072475Y-158136745D01*
X67072477Y-158136749D01*
X67203802Y-158324300D01*
X67365700Y-158486198D01*
X67553251Y-158617523D01*
X67678091Y-158675736D01*
X67760750Y-158714281D01*
X67760752Y-158714281D01*
X67760757Y-158714284D01*
X67981913Y-158773543D01*
X68152871Y-158788499D01*
X68152872Y-158788500D01*
X68152873Y-158788500D01*
X69167128Y-158788500D01*
X69167128Y-158788499D01*
X69338087Y-158773543D01*
X69559243Y-158714284D01*
X69766749Y-158617523D01*
X69954300Y-158486198D01*
X70116198Y-158324300D01*
X70247523Y-158136749D01*
X70344284Y-157929243D01*
X70403543Y-157708087D01*
X70423498Y-157480001D01*
X71896502Y-157480001D01*
X71916456Y-157708081D01*
X71916457Y-157708089D01*
X71975714Y-157929238D01*
X71975718Y-157929249D01*
X72072475Y-158136745D01*
X72072477Y-158136749D01*
X72203802Y-158324300D01*
X72365700Y-158486198D01*
X72553251Y-158617523D01*
X72678091Y-158675736D01*
X72760750Y-158714281D01*
X72760752Y-158714281D01*
X72760757Y-158714284D01*
X72981913Y-158773543D01*
X73152871Y-158788499D01*
X73152872Y-158788500D01*
X73152873Y-158788500D01*
X74167128Y-158788500D01*
X74167128Y-158788499D01*
X74338087Y-158773543D01*
X74559243Y-158714284D01*
X74766749Y-158617523D01*
X74954300Y-158486198D01*
X75116198Y-158324300D01*
X75247523Y-158136749D01*
X75344284Y-157929243D01*
X75403543Y-157708087D01*
X75423498Y-157480000D01*
X75403543Y-157251913D01*
X75344284Y-157030757D01*
X75247523Y-156823251D01*
X75116198Y-156635700D01*
X74954300Y-156473802D01*
X74766749Y-156342477D01*
X74766745Y-156342475D01*
X74559249Y-156245718D01*
X74559238Y-156245714D01*
X74338089Y-156186457D01*
X74338081Y-156186456D01*
X74167130Y-156171500D01*
X74167127Y-156171500D01*
X73152873Y-156171500D01*
X73152869Y-156171500D01*
X72981918Y-156186456D01*
X72981910Y-156186457D01*
X72760761Y-156245714D01*
X72760750Y-156245718D01*
X72553254Y-156342475D01*
X72553252Y-156342476D01*
X72553251Y-156342477D01*
X72365700Y-156473802D01*
X72365698Y-156473803D01*
X72365695Y-156473806D01*
X72203806Y-156635695D01*
X72072476Y-156823252D01*
X72072475Y-156823254D01*
X71975718Y-157030750D01*
X71975714Y-157030761D01*
X71916457Y-157251910D01*
X71916456Y-157251918D01*
X71896502Y-157479998D01*
X71896502Y-157480001D01*
X70423498Y-157480001D01*
X70423498Y-157480000D01*
X70403543Y-157251913D01*
X70344284Y-157030757D01*
X70247523Y-156823251D01*
X70116198Y-156635700D01*
X69954300Y-156473802D01*
X69766749Y-156342477D01*
X69766745Y-156342475D01*
X69559249Y-156245718D01*
X69559238Y-156245714D01*
X69338089Y-156186457D01*
X69338081Y-156186456D01*
X69167130Y-156171500D01*
X69167127Y-156171500D01*
X68152873Y-156171500D01*
X68152869Y-156171500D01*
X67981918Y-156186456D01*
X67981910Y-156186457D01*
X67760761Y-156245714D01*
X67760750Y-156245718D01*
X67553254Y-156342475D01*
X67553252Y-156342476D01*
X67553251Y-156342477D01*
X67365700Y-156473802D01*
X67365698Y-156473803D01*
X67365695Y-156473806D01*
X67203806Y-156635695D01*
X67072476Y-156823252D01*
X67072475Y-156823254D01*
X66975718Y-157030750D01*
X66975714Y-157030761D01*
X66916457Y-157251910D01*
X66916456Y-157251918D01*
X66896502Y-157479998D01*
X66896502Y-157480001D01*
X46600500Y-157480001D01*
X46600500Y-145091651D01*
X58592730Y-145091651D01*
X58597219Y-145158212D01*
X58597500Y-145166554D01*
X58597500Y-145176529D01*
X58601175Y-145217372D01*
X58601393Y-145220138D01*
X58607970Y-145317666D01*
X58607972Y-145317681D01*
X58609061Y-145322002D01*
X58612317Y-145341162D01*
X58612718Y-145345617D01*
X58638725Y-145439854D01*
X58639434Y-145442542D01*
X58663318Y-145537329D01*
X58663324Y-145537346D01*
X58665168Y-145541405D01*
X58671797Y-145559686D01*
X58672986Y-145563993D01*
X58715403Y-145652074D01*
X58716565Y-145654558D01*
X58757002Y-145743584D01*
X58757003Y-145743585D01*
X58759543Y-145747251D01*
X58769340Y-145764075D01*
X58771270Y-145768084D01*
X58771273Y-145768088D01*
X58771275Y-145768093D01*
X58771278Y-145768097D01*
X58828728Y-145847170D01*
X58830338Y-145849439D01*
X58886014Y-145929802D01*
X58889168Y-145932956D01*
X58901801Y-145947746D01*
X58904427Y-145951361D01*
X58904428Y-145951362D01*
X58904429Y-145951363D01*
X58975135Y-146018965D01*
X58977078Y-146020866D01*
X60262149Y-147305937D01*
X60295634Y-147367260D01*
X60297996Y-147382810D01*
X60312456Y-147548082D01*
X60312457Y-147548089D01*
X60371714Y-147769238D01*
X60371718Y-147769249D01*
X60468475Y-147976745D01*
X60468477Y-147976749D01*
X60599802Y-148164300D01*
X60761700Y-148326198D01*
X60949251Y-148457523D01*
X61074091Y-148515736D01*
X61156750Y-148554281D01*
X61156752Y-148554281D01*
X61156757Y-148554284D01*
X61377913Y-148613543D01*
X61548871Y-148628499D01*
X61548872Y-148628500D01*
X61548873Y-148628500D01*
X62563128Y-148628500D01*
X62563128Y-148628499D01*
X62734087Y-148613543D01*
X62841408Y-148584786D01*
X62911256Y-148586449D01*
X62969118Y-148625611D01*
X62996623Y-148689839D01*
X62997500Y-148704561D01*
X62997500Y-149627350D01*
X62977815Y-149694389D01*
X62961181Y-149715031D01*
X61620061Y-151056150D01*
X61558738Y-151089635D01*
X61543188Y-151091997D01*
X61377917Y-151106456D01*
X61377910Y-151106457D01*
X61156761Y-151165714D01*
X61156750Y-151165718D01*
X60949254Y-151262475D01*
X60949252Y-151262476D01*
X60949251Y-151262477D01*
X60761700Y-151393802D01*
X60761698Y-151393803D01*
X60761695Y-151393806D01*
X60599806Y-151555695D01*
X60468476Y-151743252D01*
X60468475Y-151743254D01*
X60371718Y-151950750D01*
X60371714Y-151950761D01*
X60312457Y-152171910D01*
X60312456Y-152171918D01*
X60292502Y-152399998D01*
X60292502Y-152400001D01*
X60312456Y-152628081D01*
X60312457Y-152628089D01*
X60371714Y-152849238D01*
X60371718Y-152849249D01*
X60468475Y-153056745D01*
X60468477Y-153056749D01*
X60599802Y-153244300D01*
X60761700Y-153406198D01*
X60949251Y-153537523D01*
X61074091Y-153595736D01*
X61156750Y-153634281D01*
X61156752Y-153634281D01*
X61156757Y-153634284D01*
X61377913Y-153693543D01*
X61548871Y-153708499D01*
X61548872Y-153708500D01*
X61548873Y-153708500D01*
X62563128Y-153708500D01*
X62563128Y-153708499D01*
X62734087Y-153693543D01*
X62955243Y-153634284D01*
X63162749Y-153537523D01*
X63350300Y-153406198D01*
X63512198Y-153244300D01*
X63643523Y-153056749D01*
X63740284Y-152849243D01*
X63799543Y-152628087D01*
X63814002Y-152462809D01*
X63838570Y-152400001D01*
X65292502Y-152400001D01*
X65312456Y-152628081D01*
X65312457Y-152628089D01*
X65371714Y-152849238D01*
X65371718Y-152849249D01*
X65468475Y-153056745D01*
X65468477Y-153056749D01*
X65599802Y-153244300D01*
X65761700Y-153406198D01*
X65949251Y-153537523D01*
X66074091Y-153595736D01*
X66156750Y-153634281D01*
X66156752Y-153634281D01*
X66156757Y-153634284D01*
X66377913Y-153693543D01*
X66548871Y-153708499D01*
X66548872Y-153708500D01*
X66548873Y-153708500D01*
X67563128Y-153708500D01*
X67563128Y-153708499D01*
X67734087Y-153693543D01*
X67955243Y-153634284D01*
X68162749Y-153537523D01*
X68350300Y-153406198D01*
X68512198Y-153244300D01*
X68643523Y-153056749D01*
X68740284Y-152849243D01*
X68799543Y-152628087D01*
X68819498Y-152400000D01*
X68819300Y-152397742D01*
X68799543Y-152171918D01*
X68799543Y-152171913D01*
X68740284Y-151950757D01*
X68643523Y-151743251D01*
X68512198Y-151555700D01*
X68350300Y-151393802D01*
X68162749Y-151262477D01*
X68162745Y-151262475D01*
X67955249Y-151165718D01*
X67955238Y-151165714D01*
X67734089Y-151106457D01*
X67734081Y-151106456D01*
X67563130Y-151091500D01*
X67563127Y-151091500D01*
X66548873Y-151091500D01*
X66548869Y-151091500D01*
X66377918Y-151106456D01*
X66377910Y-151106457D01*
X66156761Y-151165714D01*
X66156750Y-151165718D01*
X65949254Y-151262475D01*
X65949252Y-151262476D01*
X65949251Y-151262477D01*
X65761700Y-151393802D01*
X65761698Y-151393803D01*
X65761695Y-151393806D01*
X65599806Y-151555695D01*
X65468476Y-151743252D01*
X65468475Y-151743254D01*
X65371718Y-151950750D01*
X65371714Y-151950761D01*
X65312457Y-152171910D01*
X65312456Y-152171918D01*
X65292502Y-152399998D01*
X65292502Y-152400001D01*
X63838570Y-152400001D01*
X63839454Y-152397742D01*
X63849841Y-152385945D01*
X65091001Y-151144785D01*
X65101351Y-151135536D01*
X65129218Y-151113314D01*
X65173107Y-151063077D01*
X65178810Y-151056978D01*
X65185844Y-151049944D01*
X65185844Y-151049943D01*
X65185861Y-151049927D01*
X65212186Y-151018393D01*
X65213917Y-151016366D01*
X65278263Y-150942718D01*
X65280549Y-150938891D01*
X65291818Y-150923010D01*
X65294671Y-150919593D01*
X65342904Y-150834586D01*
X65344296Y-150832196D01*
X65394453Y-150748250D01*
X65396019Y-150744075D01*
X65404271Y-150726438D01*
X65406468Y-150722567D01*
X65438757Y-150630284D01*
X65439665Y-150627777D01*
X65474051Y-150536161D01*
X65474846Y-150531775D01*
X65479817Y-150512945D01*
X65481287Y-150508745D01*
X65496602Y-150412045D01*
X65497022Y-150409574D01*
X65514500Y-150313267D01*
X65514500Y-150308805D01*
X65516027Y-150289407D01*
X65516724Y-150285005D01*
X65516725Y-150285000D01*
X65514531Y-150187244D01*
X65514500Y-150184462D01*
X65514500Y-148378360D01*
X65534185Y-148311321D01*
X65586989Y-148265566D01*
X65656147Y-148255622D01*
X65719703Y-148284647D01*
X65726181Y-148290679D01*
X65761700Y-148326198D01*
X65949251Y-148457523D01*
X66074091Y-148515736D01*
X66156750Y-148554281D01*
X66156752Y-148554281D01*
X66156757Y-148554284D01*
X66377913Y-148613543D01*
X66548871Y-148628499D01*
X66548872Y-148628500D01*
X66548873Y-148628500D01*
X67563128Y-148628500D01*
X67563128Y-148628499D01*
X67734087Y-148613543D01*
X67955243Y-148554284D01*
X68162749Y-148457523D01*
X68350300Y-148326198D01*
X68512198Y-148164300D01*
X68643523Y-147976749D01*
X68740284Y-147769243D01*
X68799543Y-147548087D01*
X68819498Y-147320000D01*
X68799543Y-147091913D01*
X68740284Y-146870757D01*
X68643523Y-146663251D01*
X68512198Y-146475700D01*
X68350300Y-146313802D01*
X68162749Y-146182477D01*
X68162745Y-146182475D01*
X67955249Y-146085718D01*
X67955238Y-146085714D01*
X67734089Y-146026457D01*
X67734081Y-146026456D01*
X67563130Y-146011500D01*
X67563127Y-146011500D01*
X66548873Y-146011500D01*
X66548869Y-146011500D01*
X66377918Y-146026456D01*
X66377910Y-146026457D01*
X66156761Y-146085714D01*
X66156750Y-146085718D01*
X65949254Y-146182475D01*
X65949252Y-146182476D01*
X65949251Y-146182477D01*
X65761700Y-146313802D01*
X65761698Y-146313803D01*
X65761695Y-146313806D01*
X65726181Y-146349321D01*
X65664858Y-146382806D01*
X65595166Y-146377822D01*
X65539233Y-146335950D01*
X65514816Y-146270486D01*
X65514500Y-146261640D01*
X65514500Y-143286340D01*
X65534185Y-143219301D01*
X65586989Y-143173546D01*
X65656147Y-143163602D01*
X65719703Y-143192627D01*
X65726181Y-143198659D01*
X65767179Y-143239657D01*
X65953517Y-143370134D01*
X66159673Y-143466265D01*
X66159682Y-143466269D01*
X66379389Y-143525139D01*
X66379400Y-143525141D01*
X66549233Y-143539999D01*
X66549236Y-143540000D01*
X66806000Y-143540000D01*
X66806000Y-142665000D01*
X67306000Y-142665000D01*
X67306000Y-143540000D01*
X67562764Y-143540000D01*
X67562766Y-143539999D01*
X67732599Y-143525141D01*
X67732610Y-143525139D01*
X67952317Y-143466269D01*
X67952326Y-143466265D01*
X68158482Y-143370134D01*
X68344820Y-143239657D01*
X68505657Y-143078820D01*
X68636134Y-142892482D01*
X68732265Y-142686326D01*
X68732269Y-142686317D01*
X68784872Y-142490000D01*
X67630607Y-142490000D01*
X67690238Y-142372969D01*
X67711298Y-142240000D01*
X67690238Y-142107031D01*
X67630607Y-141990000D01*
X68784872Y-141990000D01*
X68784872Y-141989999D01*
X68732269Y-141793682D01*
X68732265Y-141793673D01*
X68636134Y-141587517D01*
X68505657Y-141401179D01*
X68344820Y-141240342D01*
X68158482Y-141109865D01*
X67952326Y-141013734D01*
X67952317Y-141013730D01*
X67732610Y-140954860D01*
X67732599Y-140954858D01*
X67562766Y-140940000D01*
X67306000Y-140940000D01*
X67306000Y-141815000D01*
X66806000Y-141815000D01*
X66806000Y-140940000D01*
X66549233Y-140940000D01*
X66379400Y-140954858D01*
X66379389Y-140954860D01*
X66159682Y-141013730D01*
X66159673Y-141013734D01*
X65953517Y-141109865D01*
X65767179Y-141240342D01*
X65726181Y-141281341D01*
X65664858Y-141314826D01*
X65595166Y-141309842D01*
X65539233Y-141267970D01*
X65514816Y-141202506D01*
X65514500Y-141193660D01*
X65514500Y-138218360D01*
X65534185Y-138151321D01*
X65586989Y-138105566D01*
X65656147Y-138095622D01*
X65719703Y-138124647D01*
X65726181Y-138130679D01*
X65761700Y-138166198D01*
X65949251Y-138297523D01*
X66074091Y-138355736D01*
X66156750Y-138394281D01*
X66156752Y-138394281D01*
X66156757Y-138394284D01*
X66377913Y-138453543D01*
X66548871Y-138468499D01*
X66548872Y-138468500D01*
X66548873Y-138468500D01*
X67563128Y-138468500D01*
X67563128Y-138468499D01*
X67734087Y-138453543D01*
X67955243Y-138394284D01*
X68162749Y-138297523D01*
X68350300Y-138166198D01*
X68512198Y-138004300D01*
X68643523Y-137816749D01*
X68740284Y-137609243D01*
X68799543Y-137388087D01*
X68819498Y-137160000D01*
X68799543Y-136931913D01*
X68740284Y-136710757D01*
X68643523Y-136503251D01*
X68512198Y-136315700D01*
X68350300Y-136153802D01*
X68162749Y-136022477D01*
X68156961Y-136019778D01*
X67955249Y-135925718D01*
X67955238Y-135925714D01*
X67734089Y-135866457D01*
X67734081Y-135866456D01*
X67563130Y-135851500D01*
X67563127Y-135851500D01*
X66548873Y-135851500D01*
X66548869Y-135851500D01*
X66377918Y-135866456D01*
X66377910Y-135866457D01*
X66156761Y-135925714D01*
X66156750Y-135925718D01*
X65949254Y-136022475D01*
X65949252Y-136022476D01*
X65878856Y-136071767D01*
X65761700Y-136153802D01*
X65761698Y-136153803D01*
X65761695Y-136153806D01*
X65726181Y-136189321D01*
X65664858Y-136222806D01*
X65595166Y-136217822D01*
X65539233Y-136175950D01*
X65514816Y-136110486D01*
X65514500Y-136101640D01*
X65514500Y-135847526D01*
X65534185Y-135780487D01*
X65546343Y-135764560D01*
X65636040Y-135664944D01*
X65731527Y-135499556D01*
X65790542Y-135317928D01*
X65810504Y-135128000D01*
X65790542Y-134938072D01*
X65765633Y-134861414D01*
X65761092Y-134803699D01*
X65776725Y-134705000D01*
X65772293Y-134507599D01*
X65778332Y-134466502D01*
X65790542Y-134428928D01*
X65810504Y-134239000D01*
X65790542Y-134049072D01*
X65731527Y-133867444D01*
X65636040Y-133702056D01*
X65508253Y-133560134D01*
X65353752Y-133447882D01*
X65179288Y-133370206D01*
X65179286Y-133370205D01*
X64992487Y-133330500D01*
X64801513Y-133330500D01*
X64681183Y-133356076D01*
X64651442Y-133362398D01*
X64611780Y-133364327D01*
X64544359Y-133356731D01*
X64544346Y-133356730D01*
X64320569Y-133371818D01*
X64286447Y-133369389D01*
X64103487Y-133330500D01*
X63912513Y-133330500D01*
X63725714Y-133370205D01*
X63711986Y-133376317D01*
X63575717Y-133436988D01*
X63551246Y-133447883D01*
X63396747Y-133560133D01*
X63338150Y-133625213D01*
X63278663Y-133661861D01*
X63208806Y-133660530D01*
X63153850Y-133625213D01*
X63095252Y-133560133D01*
X63018002Y-133504008D01*
X62940752Y-133447882D01*
X62766288Y-133370206D01*
X62766286Y-133370205D01*
X62579487Y-133330500D01*
X62388513Y-133330500D01*
X62195911Y-133371439D01*
X62147989Y-133372156D01*
X62146126Y-133371818D01*
X62142959Y-133371243D01*
X62089270Y-133361500D01*
X62089267Y-133361500D01*
X61849361Y-133361500D01*
X61823580Y-133358790D01*
X61813893Y-133356731D01*
X61690487Y-133330500D01*
X61499513Y-133330500D01*
X61340367Y-133364327D01*
X61328878Y-133366769D01*
X61311444Y-133369197D01*
X61270330Y-133371970D01*
X61265988Y-133373064D01*
X61246837Y-133376317D01*
X61242380Y-133376718D01*
X61148112Y-133402733D01*
X61145425Y-133403442D01*
X61050663Y-133427320D01*
X61050653Y-133427324D01*
X61046585Y-133429172D01*
X61028311Y-133435798D01*
X61024006Y-133436986D01*
X61024001Y-133436988D01*
X60935970Y-133479382D01*
X60933450Y-133480561D01*
X60844407Y-133521006D01*
X60840734Y-133523552D01*
X60823935Y-133533334D01*
X60819907Y-133535275D01*
X60819905Y-133535276D01*
X60740848Y-133592714D01*
X60738581Y-133594322D01*
X60658197Y-133650014D01*
X60655029Y-133653182D01*
X60640259Y-133665796D01*
X60636645Y-133668421D01*
X60636630Y-133668435D01*
X60569054Y-133739112D01*
X60567110Y-133741100D01*
X59021006Y-135287204D01*
X59010641Y-135296468D01*
X58982783Y-135318684D01*
X58982777Y-135318690D01*
X58938890Y-135368923D01*
X58933201Y-135375010D01*
X58926134Y-135382077D01*
X58899834Y-135413579D01*
X58898030Y-135415691D01*
X58833737Y-135489281D01*
X58833732Y-135489287D01*
X58831446Y-135493114D01*
X58820199Y-135508967D01*
X58817328Y-135512405D01*
X58769089Y-135597420D01*
X58767690Y-135599822D01*
X58717552Y-135683740D01*
X58717543Y-135683758D01*
X58715971Y-135687947D01*
X58707739Y-135705543D01*
X58705532Y-135709433D01*
X58705531Y-135709434D01*
X58673234Y-135801731D01*
X58672287Y-135804343D01*
X58637950Y-135895835D01*
X58637948Y-135895841D01*
X58637149Y-135900245D01*
X58632188Y-135919037D01*
X58630714Y-135923249D01*
X58630713Y-135923252D01*
X58615424Y-136019778D01*
X58614959Y-136022517D01*
X58597500Y-136118733D01*
X58597500Y-136123192D01*
X58595973Y-136142595D01*
X58595274Y-136147001D01*
X58597469Y-136244754D01*
X58597500Y-136247536D01*
X58597500Y-145042360D01*
X58596720Y-145056245D01*
X58592731Y-145091644D01*
X58592730Y-145091651D01*
X46600500Y-145091651D01*
X46600500Y-129998056D01*
X51757771Y-129998056D01*
X51772708Y-130133802D01*
X51784291Y-130239068D01*
X51787527Y-130268471D01*
X51787528Y-130268481D01*
X51856335Y-130531672D01*
X51856337Y-130531678D01*
X51962737Y-130782058D01*
X52035175Y-130900753D01*
X52104455Y-131014273D01*
X52104456Y-131014274D01*
X52104458Y-131014277D01*
X52244533Y-131182594D01*
X52278485Y-131223392D01*
X52422845Y-131352738D01*
X52481096Y-131404931D01*
X52707984Y-131555039D01*
X52954311Y-131670512D01*
X52954313Y-131670512D01*
X52954314Y-131670513D01*
X52954320Y-131670515D01*
X53214813Y-131748886D01*
X53214820Y-131748887D01*
X53214825Y-131748889D01*
X53483975Y-131788500D01*
X53483980Y-131788500D01*
X54287918Y-131788500D01*
X54287920Y-131788500D01*
X54287924Y-131788499D01*
X54287938Y-131788499D01*
X54334361Y-131785101D01*
X54491324Y-131773613D01*
X54756864Y-131714461D01*
X55010963Y-131617277D01*
X55248203Y-131484131D01*
X55463529Y-131317861D01*
X55652352Y-131122012D01*
X55682015Y-131080551D01*
X57261500Y-131080551D01*
X57272113Y-131184428D01*
X57327883Y-131352735D01*
X57327884Y-131352738D01*
X57420967Y-131503647D01*
X57420970Y-131503651D01*
X57546348Y-131629029D01*
X57546352Y-131629032D01*
X57697261Y-131722115D01*
X57697264Y-131722116D01*
X57865571Y-131777886D01*
X57865572Y-131777886D01*
X57865575Y-131777887D01*
X57969456Y-131788500D01*
X57969461Y-131788500D01*
X60870539Y-131788500D01*
X60870544Y-131788500D01*
X60974425Y-131777887D01*
X61142738Y-131722115D01*
X61293651Y-131629030D01*
X61419030Y-131503651D01*
X61512115Y-131352738D01*
X61538372Y-131273496D01*
X61578144Y-131216052D01*
X61642659Y-131189228D01*
X61656078Y-131188500D01*
X63467439Y-131188500D01*
X63534478Y-131208185D01*
X63540320Y-131212178D01*
X63551248Y-131220118D01*
X63725712Y-131297794D01*
X63912513Y-131337500D01*
X64103487Y-131337500D01*
X64290288Y-131297794D01*
X64402066Y-131248026D01*
X64471313Y-131238741D01*
X64502929Y-131248024D01*
X64614712Y-131297794D01*
X64801513Y-131337500D01*
X64992487Y-131337500D01*
X65179288Y-131297794D01*
X65353752Y-131220118D01*
X65508253Y-131107866D01*
X65636040Y-130965944D01*
X65731527Y-130800556D01*
X65790542Y-130618928D01*
X65810504Y-130429000D01*
X65790542Y-130239072D01*
X65731527Y-130057444D01*
X65725209Y-130046501D01*
X65708735Y-129978604D01*
X65725209Y-129922498D01*
X65731527Y-129911556D01*
X65790542Y-129729928D01*
X65810504Y-129540000D01*
X65790542Y-129350072D01*
X65731527Y-129168444D01*
X65636040Y-129003056D01*
X65508253Y-128861134D01*
X65353752Y-128748882D01*
X65179288Y-128671206D01*
X65179286Y-128671205D01*
X64992487Y-128631500D01*
X64801513Y-128631500D01*
X64614712Y-128671206D01*
X64614711Y-128671206D01*
X64608357Y-128672557D01*
X64607957Y-128670676D01*
X64568017Y-128674706D01*
X64417358Y-128657731D01*
X64417347Y-128657730D01*
X64289987Y-128666317D01*
X64255866Y-128663888D01*
X64103487Y-128631500D01*
X63912513Y-128631500D01*
X63737077Y-128668790D01*
X63711296Y-128671500D01*
X61656078Y-128671500D01*
X61589039Y-128651815D01*
X61543284Y-128599011D01*
X61538372Y-128586503D01*
X61512116Y-128507266D01*
X61512115Y-128507262D01*
X61512111Y-128507256D01*
X61512110Y-128507253D01*
X61419032Y-128356352D01*
X61419029Y-128356348D01*
X61293651Y-128230970D01*
X61293647Y-128230967D01*
X61142738Y-128137884D01*
X61142735Y-128137883D01*
X60974428Y-128082113D01*
X60870551Y-128071500D01*
X60870544Y-128071500D01*
X57969456Y-128071500D01*
X57969448Y-128071500D01*
X57865571Y-128082113D01*
X57697264Y-128137883D01*
X57697261Y-128137884D01*
X57546352Y-128230967D01*
X57546348Y-128230970D01*
X57420970Y-128356348D01*
X57420967Y-128356352D01*
X57327884Y-128507261D01*
X57327883Y-128507264D01*
X57272113Y-128675571D01*
X57261500Y-128779448D01*
X57261500Y-131080551D01*
X55682015Y-131080551D01*
X55810646Y-130900757D01*
X55884954Y-130756224D01*
X55935031Y-130658827D01*
X55935033Y-130658821D01*
X55935038Y-130658812D01*
X56022878Y-130401334D01*
X56072292Y-130133810D01*
X56082228Y-129861942D01*
X56052473Y-129591525D01*
X55983663Y-129328322D01*
X55877263Y-129077942D01*
X55735542Y-128845723D01*
X55561519Y-128636613D01*
X55561518Y-128636612D01*
X55561514Y-128636607D01*
X55358904Y-128455069D01*
X55239193Y-128375869D01*
X55132016Y-128304961D01*
X54885689Y-128189488D01*
X54885685Y-128189486D01*
X54885679Y-128189484D01*
X54625186Y-128111113D01*
X54625172Y-128111110D01*
X54509037Y-128094018D01*
X54356025Y-128071500D01*
X53552080Y-128071500D01*
X53552061Y-128071500D01*
X53348676Y-128086387D01*
X53348666Y-128086388D01*
X53083140Y-128145537D01*
X53083135Y-128145539D01*
X52829034Y-128242724D01*
X52591798Y-128375868D01*
X52591793Y-128375871D01*
X52376472Y-128542137D01*
X52376462Y-128542146D01*
X52187651Y-128737984D01*
X52187649Y-128737986D01*
X52029355Y-128959241D01*
X52029352Y-128959246D01*
X51904968Y-129201172D01*
X51904961Y-129201190D01*
X51817124Y-129458656D01*
X51817121Y-129458670D01*
X51767708Y-129726190D01*
X51767707Y-129726197D01*
X51757771Y-129998056D01*
X46600500Y-129998056D01*
X46600500Y-125479999D01*
X51784883Y-125479999D01*
X51784884Y-125480000D01*
X53260671Y-125480000D01*
X53220000Y-125645005D01*
X53220000Y-125814995D01*
X53260671Y-125980000D01*
X51786343Y-125980000D01*
X51795908Y-126066923D01*
X51795909Y-126066933D01*
X51864401Y-126328920D01*
X51970317Y-126578160D01*
X52111387Y-126809313D01*
X52111388Y-126809315D01*
X52284617Y-127017474D01*
X52486304Y-127198184D01*
X52712152Y-127347604D01*
X52957364Y-127462554D01*
X53216666Y-127540567D01*
X53216680Y-127540570D01*
X53484601Y-127579999D01*
X53484602Y-127580000D01*
X53670000Y-127580000D01*
X53670000Y-126383837D01*
X53751249Y-126414651D01*
X53877660Y-126430000D01*
X53962340Y-126430000D01*
X54088751Y-126414651D01*
X54170000Y-126383837D01*
X54170000Y-127580000D01*
X54287604Y-127580000D01*
X54287624Y-127579999D01*
X54490082Y-127565180D01*
X54490092Y-127565179D01*
X54754404Y-127506300D01*
X54754409Y-127506298D01*
X55007347Y-127409557D01*
X55243498Y-127277023D01*
X55243501Y-127277021D01*
X55457842Y-127111513D01*
X55645791Y-126916569D01*
X55645797Y-126916562D01*
X55803369Y-126696318D01*
X55803372Y-126696313D01*
X55927187Y-126455494D01*
X55927194Y-126455476D01*
X56014629Y-126199187D01*
X56014632Y-126199173D01*
X56055116Y-125980000D01*
X54579329Y-125980000D01*
X54620000Y-125814995D01*
X54620000Y-125798056D01*
X57257771Y-125798056D01*
X57272708Y-125933802D01*
X57287357Y-126066933D01*
X57287527Y-126068471D01*
X57287528Y-126068481D01*
X57322263Y-126201343D01*
X57356337Y-126331678D01*
X57414825Y-126469312D01*
X57461080Y-126578160D01*
X57462737Y-126582058D01*
X57532466Y-126696313D01*
X57604455Y-126814273D01*
X57604456Y-126814274D01*
X57604458Y-126814277D01*
X57744533Y-126982594D01*
X57778485Y-127023392D01*
X57883921Y-127117862D01*
X57981096Y-127204931D01*
X58207984Y-127355039D01*
X58454311Y-127470512D01*
X58454313Y-127470512D01*
X58454314Y-127470513D01*
X58454320Y-127470515D01*
X58714813Y-127548886D01*
X58714820Y-127548887D01*
X58714825Y-127548889D01*
X58983975Y-127588500D01*
X58983980Y-127588500D01*
X59787918Y-127588500D01*
X59787920Y-127588500D01*
X59787924Y-127588499D01*
X59787938Y-127588499D01*
X59834361Y-127585101D01*
X59991324Y-127573613D01*
X60256864Y-127514461D01*
X60510963Y-127417277D01*
X60748203Y-127284131D01*
X60963529Y-127117861D01*
X60969650Y-127111513D01*
X61054609Y-127023392D01*
X61152352Y-126922012D01*
X61310646Y-126700757D01*
X61384954Y-126556224D01*
X61435031Y-126458827D01*
X61435033Y-126458821D01*
X61435038Y-126458812D01*
X61522878Y-126201334D01*
X61572292Y-125933810D01*
X61582228Y-125661942D01*
X61552473Y-125391525D01*
X61483663Y-125128322D01*
X61377263Y-124877942D01*
X61235542Y-124645723D01*
X61061519Y-124436613D01*
X61061518Y-124436612D01*
X61061514Y-124436607D01*
X60858904Y-124255069D01*
X60632016Y-124104961D01*
X60385689Y-123989488D01*
X60385685Y-123989486D01*
X60385679Y-123989484D01*
X60125186Y-123911113D01*
X60125172Y-123911110D01*
X60009037Y-123894018D01*
X59856025Y-123871500D01*
X59052080Y-123871500D01*
X59052061Y-123871500D01*
X58848676Y-123886387D01*
X58848666Y-123886388D01*
X58583140Y-123945537D01*
X58583135Y-123945539D01*
X58329034Y-124042724D01*
X58091798Y-124175868D01*
X58091793Y-124175871D01*
X57876472Y-124342137D01*
X57876462Y-124342146D01*
X57687651Y-124537984D01*
X57687649Y-124537986D01*
X57529355Y-124759241D01*
X57529352Y-124759246D01*
X57404968Y-125001172D01*
X57404961Y-125001190D01*
X57317124Y-125258656D01*
X57317121Y-125258670D01*
X57267708Y-125526190D01*
X57267707Y-125526197D01*
X57257771Y-125798056D01*
X54620000Y-125798056D01*
X54620000Y-125645005D01*
X54579329Y-125480000D01*
X56053656Y-125480000D01*
X56044091Y-125393076D01*
X56044090Y-125393066D01*
X55975598Y-125131079D01*
X55869682Y-124881839D01*
X55728612Y-124650686D01*
X55728611Y-124650684D01*
X55555382Y-124442525D01*
X55353695Y-124261815D01*
X55127847Y-124112395D01*
X54882635Y-123997445D01*
X54623333Y-123919432D01*
X54623319Y-123919429D01*
X54355398Y-123880000D01*
X54170000Y-123880000D01*
X54170000Y-125076162D01*
X54088751Y-125045349D01*
X53962340Y-125030000D01*
X53877660Y-125030000D01*
X53751249Y-125045349D01*
X53670000Y-125076162D01*
X53670000Y-123880000D01*
X53552375Y-123880000D01*
X53349917Y-123894819D01*
X53349907Y-123894820D01*
X53085595Y-123953699D01*
X53085590Y-123953701D01*
X52832652Y-124050442D01*
X52596501Y-124182976D01*
X52596498Y-124182978D01*
X52382157Y-124348486D01*
X52194208Y-124543430D01*
X52194202Y-124543437D01*
X52036630Y-124763681D01*
X52036627Y-124763686D01*
X51912812Y-125004505D01*
X51912805Y-125004523D01*
X51825370Y-125260812D01*
X51825367Y-125260826D01*
X51784883Y-125479999D01*
X46600500Y-125479999D01*
X46600500Y-117298056D01*
X51757771Y-117298056D01*
X51787527Y-117568471D01*
X51787528Y-117568481D01*
X51856335Y-117831672D01*
X51856337Y-117831678D01*
X51962737Y-118082058D01*
X51997453Y-118138942D01*
X52104455Y-118314273D01*
X52104456Y-118314274D01*
X52104458Y-118314277D01*
X52234713Y-118470794D01*
X52278485Y-118523392D01*
X52422845Y-118652738D01*
X52481096Y-118704931D01*
X52707984Y-118855039D01*
X52954311Y-118970512D01*
X52954313Y-118970512D01*
X52954314Y-118970513D01*
X52954320Y-118970515D01*
X53214813Y-119048886D01*
X53214820Y-119048887D01*
X53214825Y-119048889D01*
X53483975Y-119088500D01*
X53483980Y-119088500D01*
X54287918Y-119088500D01*
X54287920Y-119088500D01*
X54287924Y-119088499D01*
X54287938Y-119088499D01*
X54334361Y-119085101D01*
X54491324Y-119073613D01*
X54756864Y-119014461D01*
X55010963Y-118917277D01*
X55248203Y-118784131D01*
X55463529Y-118617861D01*
X55652352Y-118422012D01*
X55682015Y-118380551D01*
X57261500Y-118380551D01*
X57272113Y-118484428D01*
X57327883Y-118652735D01*
X57327884Y-118652738D01*
X57420967Y-118803647D01*
X57420970Y-118803651D01*
X57546348Y-118929029D01*
X57546352Y-118929032D01*
X57697261Y-119022115D01*
X57697264Y-119022116D01*
X57865571Y-119077886D01*
X57865572Y-119077886D01*
X57865575Y-119077887D01*
X57969456Y-119088500D01*
X57969461Y-119088500D01*
X60870539Y-119088500D01*
X60870544Y-119088500D01*
X60974425Y-119077887D01*
X61142738Y-119022115D01*
X61293651Y-118929030D01*
X61419030Y-118803651D01*
X61512115Y-118652738D01*
X61512116Y-118652735D01*
X61541355Y-118564497D01*
X61581127Y-118507052D01*
X61645642Y-118480228D01*
X61659061Y-118479500D01*
X63626639Y-118479500D01*
X63652419Y-118482209D01*
X63785513Y-118510500D01*
X63976487Y-118510500D01*
X64109580Y-118482209D01*
X64135361Y-118479500D01*
X64445515Y-118479500D01*
X64445522Y-118479500D01*
X64485324Y-118475917D01*
X64522217Y-118478127D01*
X64674513Y-118510500D01*
X64674514Y-118510500D01*
X64865487Y-118510500D01*
X65052288Y-118470794D01*
X65226752Y-118393118D01*
X65381253Y-118280866D01*
X65509040Y-118138944D01*
X65604527Y-117973556D01*
X65663542Y-117791928D01*
X65683504Y-117602000D01*
X65663542Y-117412072D01*
X65649976Y-117370324D01*
X65644032Y-117326444D01*
X65651315Y-117164309D01*
X65633722Y-117034438D01*
X65638669Y-116979476D01*
X65663542Y-116902928D01*
X65683504Y-116713000D01*
X65663542Y-116523072D01*
X65604527Y-116341444D01*
X65509040Y-116176056D01*
X65381253Y-116034134D01*
X65226752Y-115921882D01*
X65052288Y-115844206D01*
X65052286Y-115844205D01*
X64865487Y-115804500D01*
X64674513Y-115804500D01*
X64487714Y-115844205D01*
X64375935Y-115893972D01*
X64306685Y-115903256D01*
X64275065Y-115893972D01*
X64238072Y-115877502D01*
X64163288Y-115844206D01*
X64163286Y-115844205D01*
X63976487Y-115804500D01*
X63785513Y-115804500D01*
X63598714Y-115844205D01*
X63424249Y-115921880D01*
X63405732Y-115935334D01*
X63403973Y-115936613D01*
X63400938Y-115938818D01*
X63335131Y-115962298D01*
X63328052Y-115962500D01*
X61653096Y-115962500D01*
X61586057Y-115942815D01*
X61540302Y-115890011D01*
X61535389Y-115877502D01*
X61524356Y-115844206D01*
X61512115Y-115807262D01*
X61510411Y-115804500D01*
X61419032Y-115656352D01*
X61419029Y-115656348D01*
X61293651Y-115530970D01*
X61293647Y-115530967D01*
X61142738Y-115437884D01*
X61142735Y-115437883D01*
X60974428Y-115382113D01*
X60870551Y-115371500D01*
X60870544Y-115371500D01*
X57969456Y-115371500D01*
X57969448Y-115371500D01*
X57865571Y-115382113D01*
X57697264Y-115437883D01*
X57697261Y-115437884D01*
X57546352Y-115530967D01*
X57546348Y-115530970D01*
X57420970Y-115656348D01*
X57420967Y-115656352D01*
X57327884Y-115807261D01*
X57327883Y-115807264D01*
X57272113Y-115975571D01*
X57261500Y-116079448D01*
X57261500Y-118380551D01*
X55682015Y-118380551D01*
X55810646Y-118200757D01*
X55927458Y-117973556D01*
X55935031Y-117958827D01*
X55935033Y-117958821D01*
X55935038Y-117958812D01*
X56022878Y-117701334D01*
X56072292Y-117433810D01*
X56082228Y-117161942D01*
X56052473Y-116891525D01*
X55983663Y-116628322D01*
X55877263Y-116377942D01*
X55735542Y-116145723D01*
X55561519Y-115936613D01*
X55561518Y-115936612D01*
X55561514Y-115936607D01*
X55358904Y-115755069D01*
X55239193Y-115675869D01*
X55132016Y-115604961D01*
X54885689Y-115489488D01*
X54885685Y-115489486D01*
X54885679Y-115489484D01*
X54625186Y-115411113D01*
X54625172Y-115411110D01*
X54509037Y-115394018D01*
X54356025Y-115371500D01*
X53552080Y-115371500D01*
X53552061Y-115371500D01*
X53348676Y-115386387D01*
X53348666Y-115386388D01*
X53083140Y-115445537D01*
X53083135Y-115445539D01*
X52829034Y-115542724D01*
X52591798Y-115675868D01*
X52591793Y-115675871D01*
X52376472Y-115842137D01*
X52376462Y-115842146D01*
X52187651Y-116037984D01*
X52187649Y-116037986D01*
X52029355Y-116259241D01*
X52029352Y-116259246D01*
X51904968Y-116501172D01*
X51904961Y-116501190D01*
X51817124Y-116758656D01*
X51817121Y-116758670D01*
X51767708Y-117026190D01*
X51767707Y-117026197D01*
X51757771Y-117298056D01*
X46600500Y-117298056D01*
X46600500Y-112779999D01*
X51784883Y-112779999D01*
X51784884Y-112780000D01*
X53260671Y-112780000D01*
X53220000Y-112945005D01*
X53220000Y-113114995D01*
X53260671Y-113280000D01*
X51786343Y-113280000D01*
X51795908Y-113366923D01*
X51795909Y-113366933D01*
X51864401Y-113628920D01*
X51970317Y-113878160D01*
X52111387Y-114109313D01*
X52111388Y-114109315D01*
X52284617Y-114317474D01*
X52486304Y-114498184D01*
X52712152Y-114647604D01*
X52957364Y-114762554D01*
X53216666Y-114840567D01*
X53216680Y-114840570D01*
X53484601Y-114879999D01*
X53484602Y-114880000D01*
X53670000Y-114880000D01*
X53670000Y-113683837D01*
X53751249Y-113714651D01*
X53877660Y-113730000D01*
X53962340Y-113730000D01*
X54088751Y-113714651D01*
X54170000Y-113683837D01*
X54170000Y-114880000D01*
X54287604Y-114880000D01*
X54287624Y-114879999D01*
X54490082Y-114865180D01*
X54490092Y-114865179D01*
X54754404Y-114806300D01*
X54754409Y-114806298D01*
X55007347Y-114709557D01*
X55243498Y-114577023D01*
X55243501Y-114577021D01*
X55457842Y-114411513D01*
X55645791Y-114216569D01*
X55645797Y-114216562D01*
X55803369Y-113996318D01*
X55803372Y-113996313D01*
X55927187Y-113755494D01*
X55927194Y-113755476D01*
X56014629Y-113499187D01*
X56014632Y-113499173D01*
X56055116Y-113280000D01*
X54579329Y-113280000D01*
X54620000Y-113114995D01*
X54620000Y-113098056D01*
X57257771Y-113098056D01*
X57272708Y-113233802D01*
X57287357Y-113366933D01*
X57287527Y-113368471D01*
X57287528Y-113368481D01*
X57322263Y-113501343D01*
X57356337Y-113631678D01*
X57414825Y-113769312D01*
X57461080Y-113878160D01*
X57462737Y-113882058D01*
X57532466Y-113996313D01*
X57604455Y-114114273D01*
X57604456Y-114114274D01*
X57604458Y-114114277D01*
X57744533Y-114282594D01*
X57778485Y-114323392D01*
X57883921Y-114417862D01*
X57981096Y-114504931D01*
X58207984Y-114655039D01*
X58454311Y-114770512D01*
X58454313Y-114770512D01*
X58454314Y-114770513D01*
X58454320Y-114770515D01*
X58714813Y-114848886D01*
X58714820Y-114848887D01*
X58714825Y-114848889D01*
X58983975Y-114888500D01*
X58983980Y-114888500D01*
X59787918Y-114888500D01*
X59787920Y-114888500D01*
X59787924Y-114888499D01*
X59787938Y-114888499D01*
X59834361Y-114885101D01*
X59991324Y-114873613D01*
X60256864Y-114814461D01*
X60510963Y-114717277D01*
X60748203Y-114584131D01*
X60963529Y-114417861D01*
X60969650Y-114411513D01*
X61054609Y-114323392D01*
X61152352Y-114222012D01*
X61310646Y-114000757D01*
X61384954Y-113856224D01*
X61435031Y-113758827D01*
X61435033Y-113758821D01*
X61435038Y-113758812D01*
X61522878Y-113501334D01*
X61572292Y-113233810D01*
X61582228Y-112961942D01*
X61552473Y-112691525D01*
X61483663Y-112428322D01*
X61377263Y-112177942D01*
X61235542Y-111945723D01*
X61061519Y-111736613D01*
X61061518Y-111736612D01*
X61061514Y-111736607D01*
X60858904Y-111555069D01*
X60632016Y-111404961D01*
X60385689Y-111289488D01*
X60385685Y-111289486D01*
X60385679Y-111289484D01*
X60125186Y-111211113D01*
X60125172Y-111211110D01*
X60009037Y-111194018D01*
X59856025Y-111171500D01*
X59052080Y-111171500D01*
X59052061Y-111171500D01*
X58848676Y-111186387D01*
X58848666Y-111186388D01*
X58583140Y-111245537D01*
X58583135Y-111245539D01*
X58329034Y-111342724D01*
X58091798Y-111475868D01*
X58091793Y-111475871D01*
X57876472Y-111642137D01*
X57876462Y-111642146D01*
X57687651Y-111837984D01*
X57687649Y-111837986D01*
X57529355Y-112059241D01*
X57529352Y-112059246D01*
X57404968Y-112301172D01*
X57404961Y-112301190D01*
X57317124Y-112558656D01*
X57317121Y-112558670D01*
X57267708Y-112826190D01*
X57267707Y-112826197D01*
X57257771Y-113098056D01*
X54620000Y-113098056D01*
X54620000Y-112945005D01*
X54579329Y-112780000D01*
X56053656Y-112780000D01*
X56044091Y-112693076D01*
X56044090Y-112693066D01*
X55975598Y-112431079D01*
X55869682Y-112181839D01*
X55728612Y-111950686D01*
X55728611Y-111950684D01*
X55555382Y-111742525D01*
X55353695Y-111561815D01*
X55127847Y-111412395D01*
X54882635Y-111297445D01*
X54623333Y-111219432D01*
X54623319Y-111219429D01*
X54355398Y-111180000D01*
X54170000Y-111180000D01*
X54170000Y-112376162D01*
X54088751Y-112345349D01*
X53962340Y-112330000D01*
X53877660Y-112330000D01*
X53751249Y-112345349D01*
X53670000Y-112376162D01*
X53670000Y-111180000D01*
X53552375Y-111180000D01*
X53349917Y-111194819D01*
X53349907Y-111194820D01*
X53085595Y-111253699D01*
X53085590Y-111253701D01*
X52832652Y-111350442D01*
X52596501Y-111482976D01*
X52596498Y-111482978D01*
X52382157Y-111648486D01*
X52194208Y-111843430D01*
X52194202Y-111843437D01*
X52036630Y-112063681D01*
X52036627Y-112063686D01*
X51912812Y-112304505D01*
X51912805Y-112304523D01*
X51825370Y-112560812D01*
X51825367Y-112560826D01*
X51784883Y-112779999D01*
X46600500Y-112779999D01*
X46600500Y-103653124D01*
X52650427Y-103653124D01*
X52712612Y-103696666D01*
X52910840Y-103789101D01*
X52910849Y-103789105D01*
X53122105Y-103845710D01*
X53122115Y-103845712D01*
X53339999Y-103864775D01*
X53340001Y-103864775D01*
X53557884Y-103845712D01*
X53557894Y-103845710D01*
X53769150Y-103789105D01*
X53769164Y-103789100D01*
X53967383Y-103696669D01*
X53967385Y-103696668D01*
X54029571Y-103653124D01*
X53340001Y-102963553D01*
X53340000Y-102963553D01*
X52650427Y-103653124D01*
X46600500Y-103653124D01*
X46600500Y-102610000D01*
X52085225Y-102610000D01*
X52104287Y-102827884D01*
X52104289Y-102827894D01*
X52160894Y-103039150D01*
X52160898Y-103039159D01*
X52253333Y-103237387D01*
X52296874Y-103299571D01*
X52957144Y-102639302D01*
X52986372Y-102639302D01*
X53015047Y-102752538D01*
X53078936Y-102850327D01*
X53171115Y-102922072D01*
X53281595Y-102960000D01*
X53369005Y-102960000D01*
X53455216Y-102945614D01*
X53557947Y-102890019D01*
X53637060Y-102804079D01*
X53683982Y-102697108D01*
X53691200Y-102610000D01*
X53693553Y-102610000D01*
X54383124Y-103299570D01*
X54426668Y-103237385D01*
X54426669Y-103237383D01*
X54519100Y-103039164D01*
X54519105Y-103039150D01*
X54575710Y-102827894D01*
X54575712Y-102827884D01*
X54594775Y-102610000D01*
X54594775Y-102609999D01*
X54575712Y-102392115D01*
X54575710Y-102392105D01*
X54519105Y-102180849D01*
X54519101Y-102180840D01*
X54426667Y-101982614D01*
X54426666Y-101982612D01*
X54383124Y-101920428D01*
X54383124Y-101920427D01*
X53693553Y-102609999D01*
X53693553Y-102610000D01*
X53691200Y-102610000D01*
X53693628Y-102580698D01*
X53664953Y-102467462D01*
X53601064Y-102369673D01*
X53508885Y-102297928D01*
X53398405Y-102260000D01*
X53310995Y-102260000D01*
X53224784Y-102274386D01*
X53122053Y-102329981D01*
X53042940Y-102415921D01*
X52996018Y-102522892D01*
X52986372Y-102639302D01*
X52957144Y-102639302D01*
X52986446Y-102610000D01*
X52296874Y-101920428D01*
X52253333Y-101982613D01*
X52160898Y-102180840D01*
X52160894Y-102180849D01*
X52104289Y-102392105D01*
X52104287Y-102392115D01*
X52085225Y-102609999D01*
X52085225Y-102610000D01*
X46600500Y-102610000D01*
X46600500Y-101566874D01*
X52650428Y-101566874D01*
X53340000Y-102256446D01*
X53340001Y-102256446D01*
X54029571Y-101566874D01*
X53967387Y-101523333D01*
X53769159Y-101430898D01*
X53769150Y-101430894D01*
X53557894Y-101374289D01*
X53557884Y-101374287D01*
X53340001Y-101355225D01*
X53339999Y-101355225D01*
X53122115Y-101374287D01*
X53122105Y-101374289D01*
X52910849Y-101430894D01*
X52910840Y-101430898D01*
X52712613Y-101523333D01*
X52650428Y-101566874D01*
X46600500Y-101566874D01*
X46600500Y-99060002D01*
X52076693Y-99060002D01*
X52095884Y-99279365D01*
X52095885Y-99279372D01*
X52097999Y-99287262D01*
X52152880Y-99492076D01*
X52152881Y-99492079D01*
X52152882Y-99492081D01*
X52184302Y-99559462D01*
X52245944Y-99691654D01*
X52372251Y-99872038D01*
X52527962Y-100027749D01*
X52708346Y-100154056D01*
X52907924Y-100247120D01*
X53120629Y-100304115D01*
X53277322Y-100317823D01*
X53339998Y-100323307D01*
X53340000Y-100323307D01*
X53340002Y-100323307D01*
X53394842Y-100318509D01*
X53559371Y-100304115D01*
X53772076Y-100247120D01*
X53971654Y-100154056D01*
X54152038Y-100027749D01*
X54307749Y-99872038D01*
X54434056Y-99691654D01*
X54527120Y-99492076D01*
X54584115Y-99279371D01*
X54603307Y-99060000D01*
X54584115Y-98840629D01*
X54527120Y-98627924D01*
X54434056Y-98428347D01*
X54434054Y-98428344D01*
X54434053Y-98428342D01*
X54360858Y-98323809D01*
X54307749Y-98247962D01*
X54152038Y-98092251D01*
X53971654Y-97965944D01*
X53971650Y-97965942D01*
X53772081Y-97872882D01*
X53772079Y-97872881D01*
X53772076Y-97872880D01*
X53620777Y-97832339D01*
X53559372Y-97815885D01*
X53559365Y-97815884D01*
X53340002Y-97796693D01*
X53339998Y-97796693D01*
X53120634Y-97815884D01*
X53120627Y-97815885D01*
X52907920Y-97872881D01*
X52708346Y-97965944D01*
X52708342Y-97965946D01*
X52527967Y-98092247D01*
X52527960Y-98092252D01*
X52372252Y-98247960D01*
X52372247Y-98247967D01*
X52245946Y-98428342D01*
X52245944Y-98428346D01*
X52152881Y-98627920D01*
X52095885Y-98840627D01*
X52095884Y-98840634D01*
X52076693Y-99059997D01*
X52076693Y-99060002D01*
X46600500Y-99060002D01*
X46600500Y-97652135D01*
X64552816Y-97652135D01*
X64562630Y-97883172D01*
X64562630Y-97883178D01*
X64611351Y-98109240D01*
X64697572Y-98323809D01*
X64697574Y-98323813D01*
X64818821Y-98520730D01*
X64971599Y-98694321D01*
X64971600Y-98694322D01*
X65001222Y-98718240D01*
X65041014Y-98775671D01*
X65043440Y-98845499D01*
X65007730Y-98905553D01*
X64988419Y-98920254D01*
X64841351Y-99010967D01*
X64841347Y-99010970D01*
X64715971Y-99136346D01*
X64622886Y-99287259D01*
X64622884Y-99287264D01*
X64567113Y-99455572D01*
X64556500Y-99559447D01*
X64556500Y-100860537D01*
X64556501Y-100860553D01*
X64567113Y-100964426D01*
X64622885Y-101132738D01*
X64715970Y-101283652D01*
X64841348Y-101409030D01*
X64992262Y-101502115D01*
X65160574Y-101557887D01*
X65264455Y-101568500D01*
X66815544Y-101568499D01*
X66919426Y-101557887D01*
X67087738Y-101502115D01*
X67238652Y-101409030D01*
X67364030Y-101283652D01*
X67457115Y-101132738D01*
X67512887Y-100964426D01*
X67523500Y-100860545D01*
X67523499Y-99559456D01*
X67512887Y-99455574D01*
X67457115Y-99287262D01*
X67364030Y-99136348D01*
X67238652Y-99010970D01*
X67238648Y-99010967D01*
X67090492Y-98919583D01*
X67043767Y-98867635D01*
X67032546Y-98798673D01*
X67060389Y-98734591D01*
X67069771Y-98724540D01*
X67188476Y-98610772D01*
X67325985Y-98424847D01*
X67430095Y-98218357D01*
X67497811Y-97997243D01*
X67527184Y-97767865D01*
X67517369Y-97536822D01*
X67468649Y-97310762D01*
X67382426Y-97096187D01*
X67261179Y-96899270D01*
X67108398Y-96725676D01*
X67108396Y-96725674D01*
X67108394Y-96725672D01*
X66928482Y-96580404D01*
X66928476Y-96580400D01*
X66904431Y-96566967D01*
X66855506Y-96517086D01*
X66841314Y-96448673D01*
X66866363Y-96383448D01*
X66895466Y-96355982D01*
X67021523Y-96270783D01*
X67188476Y-96110772D01*
X67325985Y-95924847D01*
X67430095Y-95718357D01*
X67497811Y-95497243D01*
X67527184Y-95267865D01*
X67517369Y-95036822D01*
X67468649Y-94810762D01*
X67382426Y-94596187D01*
X67261179Y-94399270D01*
X67108398Y-94225676D01*
X67108396Y-94225674D01*
X67108394Y-94225672D01*
X66928482Y-94080404D01*
X66928471Y-94080397D01*
X66896969Y-94062798D01*
X66848043Y-94012918D01*
X66833851Y-93944505D01*
X66858899Y-93879279D01*
X66886321Y-93852970D01*
X67036073Y-93748113D01*
X67036079Y-93748108D01*
X67203105Y-93581082D01*
X67338600Y-93387578D01*
X67438429Y-93173492D01*
X67438432Y-93173486D01*
X67495636Y-92960000D01*
X66443969Y-92960000D01*
X66476519Y-92909351D01*
X66515000Y-92778295D01*
X66515000Y-92641705D01*
X66476519Y-92510649D01*
X66443969Y-92460000D01*
X67495636Y-92460000D01*
X67495635Y-92459999D01*
X67438432Y-92246513D01*
X67438429Y-92246507D01*
X67338600Y-92032422D01*
X67338599Y-92032420D01*
X67203113Y-91838926D01*
X67203108Y-91838920D01*
X67036079Y-91671891D01*
X67036073Y-91671886D01*
X66842579Y-91536400D01*
X66842577Y-91536399D01*
X66628492Y-91436570D01*
X66628483Y-91436566D01*
X66400326Y-91375432D01*
X66400316Y-91375430D01*
X66290000Y-91365778D01*
X66290000Y-92301981D01*
X66175199Y-92249554D01*
X66073975Y-92235000D01*
X66006025Y-92235000D01*
X65904801Y-92249554D01*
X65790000Y-92301981D01*
X65790000Y-91365778D01*
X65679683Y-91375430D01*
X65679673Y-91375432D01*
X65451516Y-91436566D01*
X65451507Y-91436570D01*
X65237422Y-91536399D01*
X65237420Y-91536400D01*
X65043926Y-91671886D01*
X65043920Y-91671891D01*
X64876894Y-91838917D01*
X64741399Y-92032421D01*
X64641570Y-92246507D01*
X64641567Y-92246513D01*
X64584364Y-92459999D01*
X64584364Y-92460000D01*
X65636031Y-92460000D01*
X65603481Y-92510649D01*
X65565000Y-92641705D01*
X65565000Y-92778295D01*
X65603481Y-92909351D01*
X65636031Y-92960000D01*
X64584364Y-92960000D01*
X64641567Y-93173486D01*
X64641570Y-93173492D01*
X64741399Y-93387577D01*
X64741400Y-93387579D01*
X64876886Y-93581073D01*
X64876891Y-93581079D01*
X65043920Y-93748108D01*
X65043926Y-93748113D01*
X65194910Y-93853833D01*
X65238535Y-93908410D01*
X65245729Y-93977908D01*
X65214206Y-94040263D01*
X65193224Y-94058143D01*
X65058487Y-94149209D01*
X65058477Y-94149217D01*
X64891528Y-94309223D01*
X64891525Y-94309227D01*
X64891524Y-94309228D01*
X64841052Y-94377470D01*
X64754013Y-94495155D01*
X64649905Y-94701641D01*
X64582188Y-94922759D01*
X64552816Y-95152135D01*
X64562630Y-95383172D01*
X64562630Y-95383178D01*
X64611351Y-95609240D01*
X64697572Y-95823809D01*
X64697574Y-95823813D01*
X64818821Y-96020730D01*
X64971602Y-96194324D01*
X64971605Y-96194327D01*
X65151517Y-96339595D01*
X65151521Y-96339598D01*
X65151524Y-96339600D01*
X65175565Y-96353030D01*
X65224491Y-96402908D01*
X65238685Y-96471320D01*
X65213639Y-96536547D01*
X65184530Y-96564019D01*
X65058482Y-96649213D01*
X65058477Y-96649217D01*
X64891528Y-96809223D01*
X64754013Y-96995155D01*
X64649905Y-97201641D01*
X64582188Y-97422759D01*
X64552816Y-97652135D01*
X46600500Y-97652135D01*
X46600500Y-95510002D01*
X52076693Y-95510002D01*
X52094921Y-95718358D01*
X52095885Y-95729371D01*
X52152880Y-95942076D01*
X52152881Y-95942079D01*
X52152882Y-95942081D01*
X52231545Y-96110776D01*
X52245944Y-96141654D01*
X52372251Y-96322038D01*
X52527962Y-96477749D01*
X52708346Y-96604056D01*
X52907924Y-96697120D01*
X53120629Y-96754115D01*
X53277322Y-96767823D01*
X53339998Y-96773307D01*
X53340000Y-96773307D01*
X53340002Y-96773307D01*
X53394842Y-96768509D01*
X53559371Y-96754115D01*
X53772076Y-96697120D01*
X53971654Y-96604056D01*
X54152038Y-96477749D01*
X54307749Y-96322038D01*
X54434056Y-96141654D01*
X54527120Y-95942076D01*
X54584115Y-95729371D01*
X54603307Y-95510000D01*
X54584115Y-95290629D01*
X54527120Y-95077924D01*
X54525925Y-95075363D01*
X54525737Y-95074124D01*
X54525267Y-95072831D01*
X54525526Y-95072736D01*
X54515434Y-95006286D01*
X54543953Y-94942502D01*
X54550631Y-94935273D01*
X54561090Y-94924815D01*
X54622415Y-94891333D01*
X54648767Y-94888500D01*
X54705487Y-94888500D01*
X54892288Y-94848794D01*
X55066752Y-94771118D01*
X55221253Y-94658866D01*
X55349040Y-94516944D01*
X55444527Y-94351556D01*
X55503542Y-94169928D01*
X55523504Y-93980000D01*
X55503542Y-93790072D01*
X55444527Y-93608444D01*
X55349040Y-93443056D01*
X55221253Y-93301134D01*
X55066752Y-93188882D01*
X54892288Y-93111206D01*
X54892286Y-93111205D01*
X54705487Y-93071500D01*
X54514513Y-93071500D01*
X54327714Y-93111205D01*
X54291561Y-93127301D01*
X54222311Y-93136584D01*
X54159035Y-93106954D01*
X54121823Y-93047818D01*
X54122489Y-92977952D01*
X54153444Y-92926342D01*
X54307749Y-92772038D01*
X54434056Y-92591654D01*
X54527120Y-92392076D01*
X54584115Y-92179371D01*
X54603307Y-91960000D01*
X54584115Y-91740629D01*
X54527120Y-91527924D01*
X54434056Y-91328347D01*
X54434054Y-91328344D01*
X54434053Y-91328342D01*
X54370902Y-91238154D01*
X54307749Y-91147962D01*
X54152038Y-90992251D01*
X53971654Y-90865944D01*
X53971650Y-90865942D01*
X53772081Y-90772882D01*
X53772079Y-90772881D01*
X53772076Y-90772880D01*
X53620777Y-90732339D01*
X53559372Y-90715885D01*
X53559365Y-90715884D01*
X53340002Y-90696693D01*
X53339998Y-90696693D01*
X53120634Y-90715884D01*
X53120627Y-90715885D01*
X52907920Y-90772881D01*
X52708346Y-90865944D01*
X52708342Y-90865946D01*
X52527967Y-90992247D01*
X52527960Y-90992252D01*
X52372252Y-91147960D01*
X52372247Y-91147967D01*
X52245946Y-91328342D01*
X52245944Y-91328346D01*
X52152881Y-91527920D01*
X52095885Y-91740627D01*
X52095884Y-91740634D01*
X52076693Y-91959997D01*
X52076693Y-91960002D01*
X52083028Y-92032420D01*
X52095885Y-92179371D01*
X52152880Y-92392076D01*
X52152881Y-92392079D01*
X52152882Y-92392081D01*
X52184553Y-92460000D01*
X52245944Y-92591654D01*
X52372251Y-92772038D01*
X52527962Y-92927749D01*
X52708346Y-93054056D01*
X52907924Y-93147120D01*
X53120629Y-93204115D01*
X53277322Y-93217823D01*
X53339998Y-93223307D01*
X53340000Y-93223307D01*
X53340002Y-93223307D01*
X53394842Y-93218509D01*
X53559371Y-93204115D01*
X53772076Y-93147120D01*
X53849461Y-93111034D01*
X53918538Y-93100543D01*
X53982322Y-93129063D01*
X54020561Y-93187539D01*
X54021116Y-93257407D01*
X53994015Y-93306389D01*
X53870959Y-93443057D01*
X53775473Y-93608443D01*
X53775470Y-93608450D01*
X53730093Y-93748108D01*
X53716458Y-93790072D01*
X53709757Y-93853833D01*
X53699019Y-93955995D01*
X53672434Y-94020609D01*
X53663379Y-94030714D01*
X53479647Y-94214446D01*
X53418324Y-94247931D01*
X53381161Y-94250293D01*
X53340005Y-94246693D01*
X53339998Y-94246693D01*
X53120634Y-94265884D01*
X53120627Y-94265885D01*
X52907920Y-94322881D01*
X52708346Y-94415944D01*
X52708342Y-94415946D01*
X52527967Y-94542247D01*
X52527960Y-94542252D01*
X52372252Y-94697960D01*
X52372247Y-94697967D01*
X52245946Y-94878342D01*
X52245944Y-94878346D01*
X52152881Y-95077920D01*
X52095885Y-95290627D01*
X52095884Y-95290634D01*
X52076693Y-95509997D01*
X52076693Y-95510002D01*
X46600500Y-95510002D01*
X46600500Y-87630001D01*
X53296502Y-87630001D01*
X53316456Y-87858081D01*
X53316457Y-87858089D01*
X53375714Y-88079238D01*
X53375718Y-88079249D01*
X53472475Y-88286745D01*
X53472477Y-88286749D01*
X53603802Y-88474300D01*
X53765700Y-88636198D01*
X53953251Y-88767523D01*
X54078091Y-88825736D01*
X54160750Y-88864281D01*
X54160752Y-88864281D01*
X54160757Y-88864284D01*
X54381913Y-88923543D01*
X54544832Y-88937796D01*
X54609998Y-88943498D01*
X54610000Y-88943498D01*
X54610002Y-88943498D01*
X54667021Y-88938509D01*
X54838087Y-88923543D01*
X55059243Y-88864284D01*
X55266749Y-88767523D01*
X55454300Y-88636198D01*
X55616198Y-88474300D01*
X55747523Y-88286749D01*
X55844284Y-88079243D01*
X55903543Y-87858087D01*
X55923498Y-87630001D01*
X63456502Y-87630001D01*
X63476456Y-87858081D01*
X63476457Y-87858089D01*
X63535714Y-88079238D01*
X63535718Y-88079249D01*
X63632475Y-88286745D01*
X63632477Y-88286749D01*
X63763802Y-88474300D01*
X63925700Y-88636198D01*
X64113251Y-88767523D01*
X64238091Y-88825736D01*
X64320750Y-88864281D01*
X64320752Y-88864281D01*
X64320757Y-88864284D01*
X64541913Y-88923543D01*
X64704832Y-88937796D01*
X64769998Y-88943498D01*
X64770000Y-88943498D01*
X64770002Y-88943498D01*
X64827021Y-88938509D01*
X64998087Y-88923543D01*
X65219243Y-88864284D01*
X65426749Y-88767523D01*
X65614300Y-88636198D01*
X65776198Y-88474300D01*
X65907523Y-88286749D01*
X66004284Y-88079243D01*
X66063543Y-87858087D01*
X66083498Y-87630000D01*
X66063543Y-87401913D01*
X66004284Y-87180757D01*
X65907523Y-86973251D01*
X65776198Y-86785700D01*
X65614300Y-86623802D01*
X65426749Y-86492477D01*
X65426745Y-86492475D01*
X65219249Y-86395718D01*
X65219238Y-86395714D01*
X64998089Y-86336457D01*
X64998081Y-86336456D01*
X64770002Y-86316502D01*
X64769998Y-86316502D01*
X64541918Y-86336456D01*
X64541910Y-86336457D01*
X64320761Y-86395714D01*
X64320750Y-86395718D01*
X64113254Y-86492475D01*
X64113252Y-86492476D01*
X64113251Y-86492477D01*
X63925700Y-86623802D01*
X63925698Y-86623803D01*
X63925695Y-86623806D01*
X63763806Y-86785695D01*
X63632476Y-86973252D01*
X63632475Y-86973254D01*
X63535718Y-87180750D01*
X63535714Y-87180761D01*
X63476457Y-87401910D01*
X63476456Y-87401918D01*
X63456502Y-87629998D01*
X63456502Y-87630001D01*
X55923498Y-87630001D01*
X55923498Y-87630000D01*
X55903543Y-87401913D01*
X55844284Y-87180757D01*
X55747523Y-86973251D01*
X55616198Y-86785700D01*
X55454300Y-86623802D01*
X55266749Y-86492477D01*
X55266745Y-86492475D01*
X55059249Y-86395718D01*
X55059238Y-86395714D01*
X54838089Y-86336457D01*
X54838081Y-86336456D01*
X54610002Y-86316502D01*
X54609998Y-86316502D01*
X54381918Y-86336456D01*
X54381910Y-86336457D01*
X54160761Y-86395714D01*
X54160750Y-86395718D01*
X53953254Y-86492475D01*
X53953252Y-86492476D01*
X53953251Y-86492477D01*
X53765700Y-86623802D01*
X53765698Y-86623803D01*
X53765695Y-86623806D01*
X53603806Y-86785695D01*
X53472476Y-86973252D01*
X53472475Y-86973254D01*
X53375718Y-87180750D01*
X53375714Y-87180761D01*
X53316457Y-87401910D01*
X53316456Y-87401918D01*
X53296502Y-87629998D01*
X53296502Y-87630001D01*
X46600500Y-87630001D01*
X46600500Y-83820001D01*
X53296502Y-83820001D01*
X53316456Y-84048081D01*
X53316457Y-84048089D01*
X53375714Y-84269238D01*
X53375718Y-84269249D01*
X53472475Y-84476745D01*
X53472477Y-84476749D01*
X53603802Y-84664300D01*
X53765700Y-84826198D01*
X53953251Y-84957523D01*
X54078091Y-85015736D01*
X54160750Y-85054281D01*
X54160752Y-85054281D01*
X54160757Y-85054284D01*
X54381913Y-85113543D01*
X54544832Y-85127796D01*
X54609998Y-85133498D01*
X54610000Y-85133498D01*
X54610002Y-85133498D01*
X54667021Y-85128509D01*
X54838087Y-85113543D01*
X55059243Y-85054284D01*
X55266749Y-84957523D01*
X55454300Y-84826198D01*
X55616198Y-84664300D01*
X55747523Y-84476749D01*
X55844284Y-84269243D01*
X55903543Y-84048087D01*
X55923498Y-83820001D01*
X63456502Y-83820001D01*
X63476456Y-84048081D01*
X63476457Y-84048089D01*
X63535714Y-84269238D01*
X63535718Y-84269249D01*
X63632475Y-84476745D01*
X63632477Y-84476749D01*
X63763802Y-84664300D01*
X63925700Y-84826198D01*
X64113251Y-84957523D01*
X64238091Y-85015736D01*
X64320750Y-85054281D01*
X64320752Y-85054281D01*
X64320757Y-85054284D01*
X64541913Y-85113543D01*
X64704832Y-85127796D01*
X64769998Y-85133498D01*
X64770000Y-85133498D01*
X64770002Y-85133498D01*
X64827021Y-85128509D01*
X64998087Y-85113543D01*
X65219243Y-85054284D01*
X65426749Y-84957523D01*
X65614300Y-84826198D01*
X65776198Y-84664300D01*
X65907523Y-84476749D01*
X66004284Y-84269243D01*
X66063543Y-84048087D01*
X66083498Y-83820000D01*
X66063543Y-83591913D01*
X66004284Y-83370757D01*
X65907523Y-83163251D01*
X65776198Y-82975700D01*
X65614300Y-82813802D01*
X65426749Y-82682477D01*
X65426745Y-82682475D01*
X65219249Y-82585718D01*
X65219238Y-82585714D01*
X64998089Y-82526457D01*
X64998081Y-82526456D01*
X64770002Y-82506502D01*
X64769998Y-82506502D01*
X64541918Y-82526456D01*
X64541910Y-82526457D01*
X64320761Y-82585714D01*
X64320750Y-82585718D01*
X64113254Y-82682475D01*
X64113252Y-82682476D01*
X64113251Y-82682477D01*
X63925700Y-82813802D01*
X63925698Y-82813803D01*
X63925695Y-82813806D01*
X63763806Y-82975695D01*
X63632476Y-83163252D01*
X63632475Y-83163254D01*
X63535718Y-83370750D01*
X63535714Y-83370761D01*
X63476457Y-83591910D01*
X63476456Y-83591918D01*
X63456502Y-83819998D01*
X63456502Y-83820001D01*
X55923498Y-83820001D01*
X55923498Y-83820000D01*
X55903543Y-83591913D01*
X55844284Y-83370757D01*
X55747523Y-83163251D01*
X55616198Y-82975700D01*
X55454300Y-82813802D01*
X55266749Y-82682477D01*
X55266745Y-82682475D01*
X55059249Y-82585718D01*
X55059238Y-82585714D01*
X54838089Y-82526457D01*
X54838081Y-82526456D01*
X54610002Y-82506502D01*
X54609998Y-82506502D01*
X54381918Y-82526456D01*
X54381910Y-82526457D01*
X54160761Y-82585714D01*
X54160750Y-82585718D01*
X53953254Y-82682475D01*
X53953252Y-82682476D01*
X53953251Y-82682477D01*
X53765700Y-82813802D01*
X53765698Y-82813803D01*
X53765695Y-82813806D01*
X53603806Y-82975695D01*
X53472476Y-83163252D01*
X53472475Y-83163254D01*
X53375718Y-83370750D01*
X53375714Y-83370761D01*
X53316457Y-83591910D01*
X53316456Y-83591918D01*
X53296502Y-83819998D01*
X53296502Y-83820001D01*
X46600500Y-83820001D01*
X46600500Y-80010001D01*
X53296502Y-80010001D01*
X53316456Y-80238081D01*
X53316457Y-80238089D01*
X53375714Y-80459238D01*
X53375718Y-80459249D01*
X53472475Y-80666745D01*
X53472477Y-80666749D01*
X53603802Y-80854300D01*
X53765700Y-81016198D01*
X53953251Y-81147523D01*
X54078091Y-81205736D01*
X54160750Y-81244281D01*
X54160752Y-81244281D01*
X54160757Y-81244284D01*
X54381913Y-81303543D01*
X54544832Y-81317796D01*
X54609998Y-81323498D01*
X54610000Y-81323498D01*
X54610002Y-81323498D01*
X54667021Y-81318509D01*
X54838087Y-81303543D01*
X55059243Y-81244284D01*
X55266749Y-81147523D01*
X55454300Y-81016198D01*
X55616198Y-80854300D01*
X55747523Y-80666749D01*
X55844284Y-80459243D01*
X55903543Y-80238087D01*
X55923498Y-80010001D01*
X63456502Y-80010001D01*
X63476456Y-80238081D01*
X63476457Y-80238089D01*
X63535714Y-80459238D01*
X63535718Y-80459249D01*
X63632475Y-80666745D01*
X63632477Y-80666749D01*
X63763802Y-80854300D01*
X63925700Y-81016198D01*
X64113251Y-81147523D01*
X64238091Y-81205736D01*
X64320750Y-81244281D01*
X64320752Y-81244281D01*
X64320757Y-81244284D01*
X64541913Y-81303543D01*
X64704832Y-81317796D01*
X64769998Y-81323498D01*
X64770000Y-81323498D01*
X64770002Y-81323498D01*
X64827021Y-81318509D01*
X64998087Y-81303543D01*
X65219243Y-81244284D01*
X65426749Y-81147523D01*
X65614300Y-81016198D01*
X65776198Y-80854300D01*
X65907523Y-80666749D01*
X66004284Y-80459243D01*
X66063543Y-80238087D01*
X66083498Y-80010000D01*
X66063543Y-79781913D01*
X66004284Y-79560757D01*
X65907523Y-79353251D01*
X65776198Y-79165700D01*
X65614300Y-79003802D01*
X65426749Y-78872477D01*
X65426745Y-78872475D01*
X65219249Y-78775718D01*
X65219238Y-78775714D01*
X64998089Y-78716457D01*
X64998081Y-78716456D01*
X64770002Y-78696502D01*
X64769998Y-78696502D01*
X64541918Y-78716456D01*
X64541910Y-78716457D01*
X64320761Y-78775714D01*
X64320750Y-78775718D01*
X64113254Y-78872475D01*
X64113252Y-78872476D01*
X64113251Y-78872477D01*
X63925700Y-79003802D01*
X63925698Y-79003803D01*
X63925695Y-79003806D01*
X63763806Y-79165695D01*
X63632476Y-79353252D01*
X63632475Y-79353254D01*
X63535718Y-79560750D01*
X63535714Y-79560761D01*
X63476457Y-79781910D01*
X63476456Y-79781918D01*
X63456502Y-80009998D01*
X63456502Y-80010001D01*
X55923498Y-80010001D01*
X55923498Y-80010000D01*
X55903543Y-79781913D01*
X55844284Y-79560757D01*
X55747523Y-79353251D01*
X55616198Y-79165700D01*
X55454300Y-79003802D01*
X55266749Y-78872477D01*
X55266745Y-78872475D01*
X55059249Y-78775718D01*
X55059238Y-78775714D01*
X54838089Y-78716457D01*
X54838081Y-78716456D01*
X54610002Y-78696502D01*
X54609998Y-78696502D01*
X54381918Y-78716456D01*
X54381910Y-78716457D01*
X54160761Y-78775714D01*
X54160750Y-78775718D01*
X53953254Y-78872475D01*
X53953252Y-78872476D01*
X53953251Y-78872477D01*
X53765700Y-79003802D01*
X53765698Y-79003803D01*
X53765695Y-79003806D01*
X53603806Y-79165695D01*
X53472476Y-79353252D01*
X53472475Y-79353254D01*
X53375718Y-79560750D01*
X53375714Y-79560761D01*
X53316457Y-79781910D01*
X53316456Y-79781918D01*
X53296502Y-80009998D01*
X53296502Y-80010001D01*
X46600500Y-80010001D01*
X46600500Y-64519999D01*
X66931127Y-64519999D01*
X66931128Y-64520000D01*
X68085393Y-64520000D01*
X68025762Y-64637031D01*
X68004702Y-64770000D01*
X68025762Y-64902969D01*
X68085393Y-65020000D01*
X66931128Y-65020000D01*
X66983730Y-65216317D01*
X66983734Y-65216326D01*
X67079865Y-65422482D01*
X67210342Y-65608820D01*
X67371179Y-65769657D01*
X67557517Y-65900134D01*
X67763673Y-65996265D01*
X67763682Y-65996269D01*
X67983389Y-66055139D01*
X67983400Y-66055141D01*
X68153233Y-66069999D01*
X68153236Y-66070000D01*
X68410000Y-66070000D01*
X68410000Y-65195000D01*
X68910000Y-65195000D01*
X68910000Y-66070000D01*
X69166764Y-66070000D01*
X69166766Y-66069999D01*
X69336599Y-66055141D01*
X69336610Y-66055139D01*
X69556317Y-65996269D01*
X69556326Y-65996265D01*
X69762482Y-65900134D01*
X69948820Y-65769657D01*
X70109657Y-65608820D01*
X70240134Y-65422482D01*
X70336265Y-65216326D01*
X70336269Y-65216317D01*
X70388872Y-65020000D01*
X69234607Y-65020000D01*
X69294238Y-64902969D01*
X69315298Y-64770000D01*
X69294238Y-64637031D01*
X69234607Y-64520000D01*
X70388872Y-64520000D01*
X70388872Y-64519999D01*
X71931127Y-64519999D01*
X71931128Y-64520000D01*
X73085393Y-64520000D01*
X73025762Y-64637031D01*
X73004702Y-64770000D01*
X73025762Y-64902969D01*
X73085393Y-65020000D01*
X71931128Y-65020000D01*
X71983730Y-65216317D01*
X71983734Y-65216326D01*
X72079865Y-65422482D01*
X72210342Y-65608820D01*
X72371179Y-65769657D01*
X72557517Y-65900134D01*
X72763673Y-65996265D01*
X72763682Y-65996269D01*
X72983389Y-66055139D01*
X72983400Y-66055141D01*
X73153233Y-66069999D01*
X73153236Y-66070000D01*
X73410000Y-66070000D01*
X73410000Y-65195000D01*
X73910000Y-65195000D01*
X73910000Y-66070000D01*
X74166764Y-66070000D01*
X74166766Y-66069999D01*
X74336599Y-66055141D01*
X74336610Y-66055139D01*
X74556317Y-65996269D01*
X74556326Y-65996265D01*
X74762482Y-65900134D01*
X74948820Y-65769657D01*
X75109657Y-65608820D01*
X75240134Y-65422482D01*
X75336265Y-65216326D01*
X75336269Y-65216317D01*
X75388872Y-65020000D01*
X74234607Y-65020000D01*
X74294238Y-64902969D01*
X74315298Y-64770000D01*
X74294238Y-64637031D01*
X74234607Y-64520000D01*
X75388872Y-64520000D01*
X75388872Y-64519999D01*
X75336269Y-64323682D01*
X75336265Y-64323673D01*
X75240134Y-64117517D01*
X75109657Y-63931179D01*
X74948820Y-63770342D01*
X74762482Y-63639865D01*
X74556326Y-63543734D01*
X74556317Y-63543730D01*
X74336610Y-63484860D01*
X74336599Y-63484858D01*
X74166766Y-63470000D01*
X73910000Y-63470000D01*
X73910000Y-64345000D01*
X73410000Y-64345000D01*
X73410000Y-63470000D01*
X73153233Y-63470000D01*
X72983400Y-63484858D01*
X72983389Y-63484860D01*
X72763682Y-63543730D01*
X72763673Y-63543734D01*
X72557517Y-63639865D01*
X72371179Y-63770342D01*
X72210342Y-63931179D01*
X72079865Y-64117517D01*
X71983734Y-64323673D01*
X71983730Y-64323682D01*
X71931127Y-64519999D01*
X70388872Y-64519999D01*
X70336269Y-64323682D01*
X70336265Y-64323673D01*
X70240134Y-64117517D01*
X70109657Y-63931179D01*
X69948820Y-63770342D01*
X69762482Y-63639865D01*
X69556326Y-63543734D01*
X69556317Y-63543730D01*
X69336610Y-63484860D01*
X69336599Y-63484858D01*
X69166766Y-63470000D01*
X68910000Y-63470000D01*
X68910000Y-64345000D01*
X68410000Y-64345000D01*
X68410000Y-63470000D01*
X68153233Y-63470000D01*
X67983400Y-63484858D01*
X67983389Y-63484860D01*
X67763682Y-63543730D01*
X67763673Y-63543734D01*
X67557517Y-63639865D01*
X67371179Y-63770342D01*
X67210342Y-63931179D01*
X67079865Y-64117517D01*
X66983734Y-64323673D01*
X66983730Y-64323682D01*
X66931127Y-64519999D01*
X46600500Y-64519999D01*
X46600500Y-59690001D01*
X66896502Y-59690001D01*
X66916456Y-59918081D01*
X66916457Y-59918089D01*
X66975714Y-60139238D01*
X66975718Y-60139249D01*
X67072475Y-60346745D01*
X67072477Y-60346749D01*
X67203802Y-60534300D01*
X67365700Y-60696198D01*
X67553251Y-60827523D01*
X67678091Y-60885736D01*
X67760750Y-60924281D01*
X67760752Y-60924281D01*
X67760757Y-60924284D01*
X67981913Y-60983543D01*
X68152871Y-60998499D01*
X68152872Y-60998500D01*
X68152873Y-60998500D01*
X69167128Y-60998500D01*
X69167128Y-60998499D01*
X69338087Y-60983543D01*
X69559243Y-60924284D01*
X69766749Y-60827523D01*
X69954300Y-60696198D01*
X70116198Y-60534300D01*
X70247523Y-60346749D01*
X70344284Y-60139243D01*
X70403543Y-59918087D01*
X70423498Y-59690001D01*
X71896502Y-59690001D01*
X71916456Y-59918081D01*
X71916457Y-59918089D01*
X71975714Y-60139238D01*
X71975718Y-60139249D01*
X72072475Y-60346745D01*
X72072477Y-60346749D01*
X72203802Y-60534300D01*
X72365700Y-60696198D01*
X72553251Y-60827523D01*
X72678091Y-60885736D01*
X72760750Y-60924281D01*
X72760752Y-60924281D01*
X72760757Y-60924284D01*
X72981913Y-60983543D01*
X73152871Y-60998499D01*
X73152872Y-60998500D01*
X73152873Y-60998500D01*
X74167128Y-60998500D01*
X74167128Y-60998499D01*
X74338087Y-60983543D01*
X74559243Y-60924284D01*
X74766749Y-60827523D01*
X74954300Y-60696198D01*
X75116198Y-60534300D01*
X75247523Y-60346749D01*
X75344284Y-60139243D01*
X75403543Y-59918087D01*
X75423498Y-59690000D01*
X75403543Y-59461913D01*
X75344284Y-59240757D01*
X75247523Y-59033251D01*
X75116198Y-58845700D01*
X74954300Y-58683802D01*
X74766749Y-58552477D01*
X74766745Y-58552475D01*
X74559249Y-58455718D01*
X74559238Y-58455714D01*
X74338089Y-58396457D01*
X74338081Y-58396456D01*
X74167130Y-58381500D01*
X74167127Y-58381500D01*
X73152873Y-58381500D01*
X73152869Y-58381500D01*
X72981918Y-58396456D01*
X72981910Y-58396457D01*
X72760761Y-58455714D01*
X72760750Y-58455718D01*
X72553254Y-58552475D01*
X72553252Y-58552476D01*
X72553251Y-58552477D01*
X72365700Y-58683802D01*
X72365698Y-58683803D01*
X72365695Y-58683806D01*
X72203806Y-58845695D01*
X72072476Y-59033252D01*
X72072475Y-59033254D01*
X71975718Y-59240750D01*
X71975714Y-59240761D01*
X71916457Y-59461910D01*
X71916456Y-59461918D01*
X71896502Y-59689998D01*
X71896502Y-59690001D01*
X70423498Y-59690001D01*
X70423498Y-59690000D01*
X70403543Y-59461913D01*
X70344284Y-59240757D01*
X70247523Y-59033251D01*
X70116198Y-58845700D01*
X69954300Y-58683802D01*
X69766749Y-58552477D01*
X69766745Y-58552475D01*
X69559249Y-58455718D01*
X69559238Y-58455714D01*
X69338089Y-58396457D01*
X69338081Y-58396456D01*
X69167130Y-58381500D01*
X69167127Y-58381500D01*
X68152873Y-58381500D01*
X68152869Y-58381500D01*
X67981918Y-58396456D01*
X67981910Y-58396457D01*
X67760761Y-58455714D01*
X67760750Y-58455718D01*
X67553254Y-58552475D01*
X67553252Y-58552476D01*
X67553251Y-58552477D01*
X67365700Y-58683802D01*
X67365698Y-58683803D01*
X67365695Y-58683806D01*
X67203806Y-58845695D01*
X67072476Y-59033252D01*
X67072475Y-59033254D01*
X66975718Y-59240750D01*
X66975714Y-59240761D01*
X66916457Y-59461910D01*
X66916456Y-59461918D01*
X66896502Y-59689998D01*
X66896502Y-59690001D01*
X46600500Y-59690001D01*
X46600500Y-56004000D01*
X46620185Y-55936961D01*
X46672989Y-55891206D01*
X46724500Y-55880000D01*
X76475500Y-55880000D01*
X76542539Y-55899685D01*
G37*
%TD.AperFunction*%
%TD*%
%TA.AperFunction,Conductor*%
%TO.N,GND*%
G36*
X76542539Y-167151685D02*
G01*
X76588294Y-167204489D01*
X76599500Y-167256000D01*
X76599500Y-175075500D01*
X76579815Y-175142539D01*
X76527011Y-175188294D01*
X76475500Y-175199500D01*
X63696247Y-175199500D01*
X63629208Y-175179815D01*
X63583453Y-175127011D01*
X63573509Y-175057853D01*
X63602534Y-174994297D01*
X63628108Y-174971900D01*
X63904780Y-174789929D01*
X63904788Y-174789923D01*
X64030708Y-174684263D01*
X64030709Y-174684262D01*
X62961373Y-173614925D01*
X63071078Y-173538110D01*
X63238110Y-173371078D01*
X63314926Y-173261373D01*
X64387641Y-174334088D01*
X64585175Y-174068756D01*
X64628233Y-173994177D01*
X65617529Y-173994177D01*
X66324852Y-174701500D01*
X67034356Y-174701500D01*
X67741679Y-173994177D01*
X68445957Y-173994177D01*
X69153280Y-174701500D01*
X69862784Y-174701500D01*
X70570106Y-173994177D01*
X71274384Y-173994177D01*
X71981707Y-174701500D01*
X72691211Y-174701500D01*
X73398534Y-173994177D01*
X74102811Y-173994177D01*
X74810134Y-174701500D01*
X75519638Y-174701500D01*
X76084000Y-174137138D01*
X76084000Y-173851216D01*
X75164886Y-172932102D01*
X74102811Y-173994177D01*
X73398534Y-173994177D01*
X72336459Y-172932102D01*
X71274384Y-173994177D01*
X70570106Y-173994177D01*
X69508031Y-172932102D01*
X68445957Y-173994177D01*
X67741679Y-173994177D01*
X66679604Y-172932102D01*
X65617529Y-173994177D01*
X64628233Y-173994177D01*
X64751166Y-173781249D01*
X64751172Y-173781236D01*
X64865104Y-173517113D01*
X65390315Y-173517113D01*
X66327465Y-172579963D01*
X67031743Y-172579963D01*
X68093818Y-173642038D01*
X69155892Y-172579963D01*
X69860170Y-172579963D01*
X70922245Y-173642038D01*
X71984319Y-172579963D01*
X72688597Y-172579963D01*
X73750672Y-173642038D01*
X74812746Y-172579963D01*
X73750672Y-171517889D01*
X72688597Y-172579963D01*
X71984319Y-172579963D01*
X70922245Y-171517889D01*
X69860170Y-172579963D01*
X69155892Y-172579963D01*
X68093818Y-171517889D01*
X67031743Y-172579963D01*
X66327465Y-172579963D01*
X65458494Y-171710992D01*
X65459893Y-171716210D01*
X65460771Y-171719689D01*
X65464115Y-171733787D01*
X65464902Y-171737331D01*
X65466376Y-171744470D01*
X65467053Y-171748012D01*
X65527220Y-172089238D01*
X65527794Y-172092795D01*
X65528850Y-172100003D01*
X65529324Y-172103600D01*
X65531004Y-172117991D01*
X65531368Y-172121558D01*
X65532001Y-172128791D01*
X65532263Y-172132392D01*
X65552408Y-172478276D01*
X65552565Y-172481872D01*
X65552777Y-172489142D01*
X65552830Y-172492756D01*
X65552830Y-172507244D01*
X65552777Y-172510858D01*
X65552565Y-172518128D01*
X65552408Y-172521724D01*
X65532263Y-172867608D01*
X65532001Y-172871209D01*
X65531368Y-172878442D01*
X65531004Y-172882009D01*
X65529324Y-172896400D01*
X65528850Y-172899997D01*
X65527794Y-172907205D01*
X65527220Y-172910762D01*
X65467053Y-173251988D01*
X65466376Y-173255530D01*
X65464902Y-173262669D01*
X65464115Y-173266213D01*
X65460771Y-173280311D01*
X65459893Y-173283790D01*
X65458015Y-173290798D01*
X65457032Y-173294264D01*
X65390315Y-173517113D01*
X64865104Y-173517113D01*
X64882663Y-173476408D01*
X64977878Y-173158365D01*
X64977881Y-173158351D01*
X65035525Y-172831437D01*
X65035526Y-172831426D01*
X65054830Y-172500003D01*
X65054830Y-172499996D01*
X65035526Y-172168573D01*
X65035525Y-172168562D01*
X64977881Y-171841648D01*
X64977878Y-171841634D01*
X64882663Y-171523591D01*
X64751172Y-171218763D01*
X64751166Y-171218750D01*
X64720567Y-171165750D01*
X65617529Y-171165750D01*
X66679604Y-172227824D01*
X67741679Y-171165750D01*
X68445957Y-171165750D01*
X69508031Y-172227824D01*
X70570106Y-171165750D01*
X71274384Y-171165750D01*
X72336459Y-172227825D01*
X73398534Y-171165750D01*
X74102811Y-171165750D01*
X75164886Y-172227825D01*
X76084000Y-171308711D01*
X76084000Y-171022789D01*
X75164886Y-170103675D01*
X74102811Y-171165750D01*
X73398534Y-171165750D01*
X72336459Y-170103675D01*
X71274384Y-171165750D01*
X70570106Y-171165750D01*
X69508031Y-170103675D01*
X68445957Y-171165750D01*
X67741679Y-171165750D01*
X66679604Y-170103675D01*
X65617529Y-171165750D01*
X64720567Y-171165750D01*
X64585172Y-170931239D01*
X64387642Y-170665910D01*
X63314925Y-171738626D01*
X63238110Y-171628922D01*
X63071078Y-171461890D01*
X62961372Y-171385073D01*
X64030709Y-170315736D01*
X64030709Y-170315735D01*
X63904784Y-170210074D01*
X63627411Y-170027643D01*
X63330747Y-169878652D01*
X63330741Y-169878649D01*
X63018786Y-169765107D01*
X63018765Y-169765100D01*
X62961535Y-169751536D01*
X64203316Y-169751536D01*
X65265391Y-170813611D01*
X66327465Y-169751536D01*
X67031743Y-169751536D01*
X68093818Y-170813611D01*
X69155892Y-169751536D01*
X69860170Y-169751536D01*
X70922245Y-170813611D01*
X71984319Y-169751536D01*
X72688597Y-169751536D01*
X73750672Y-170813611D01*
X74812746Y-169751536D01*
X73750672Y-168689461D01*
X72688597Y-169751536D01*
X71984319Y-169751536D01*
X70922245Y-168689461D01*
X69860170Y-169751536D01*
X69155892Y-169751536D01*
X68093818Y-168689461D01*
X67031743Y-169751536D01*
X66327465Y-169751536D01*
X65265391Y-168689461D01*
X64203316Y-169751536D01*
X62961535Y-169751536D01*
X62695751Y-169688543D01*
X62695736Y-169688541D01*
X62365987Y-169650000D01*
X62034013Y-169650000D01*
X61704263Y-169688541D01*
X61704248Y-169688543D01*
X61381234Y-169765100D01*
X61381213Y-169765107D01*
X61069258Y-169878649D01*
X61069252Y-169878652D01*
X60772581Y-170027646D01*
X60495220Y-170210070D01*
X60495213Y-170210075D01*
X60369289Y-170315735D01*
X61438627Y-171385073D01*
X61328922Y-171461890D01*
X61161890Y-171628922D01*
X61085073Y-171738627D01*
X60012357Y-170665911D01*
X60012356Y-170665911D01*
X59814829Y-170931236D01*
X59814825Y-170931242D01*
X59648833Y-171218750D01*
X59648827Y-171218763D01*
X59517336Y-171523591D01*
X59422121Y-171841634D01*
X59422118Y-171841648D01*
X59364474Y-172168562D01*
X59364473Y-172168573D01*
X59345170Y-172499996D01*
X59345170Y-172500003D01*
X59364473Y-172831426D01*
X59364474Y-172831437D01*
X59422118Y-173158351D01*
X59422121Y-173158365D01*
X59517336Y-173476408D01*
X59648827Y-173781236D01*
X59648833Y-173781249D01*
X59814824Y-174068755D01*
X60012357Y-174334087D01*
X61085073Y-173261372D01*
X61161890Y-173371078D01*
X61328922Y-173538110D01*
X61438626Y-173614925D01*
X60369289Y-174684263D01*
X60495218Y-174789928D01*
X60495223Y-174789932D01*
X60771892Y-174971900D01*
X60817086Y-175025185D01*
X60826297Y-175094444D01*
X60796602Y-175157689D01*
X60737427Y-175194840D01*
X60703753Y-175199500D01*
X46724500Y-175199500D01*
X46657461Y-175179815D01*
X46611706Y-175127011D01*
X46600500Y-175075500D01*
X46600500Y-173157487D01*
X47106000Y-173157487D01*
X47106000Y-174701500D01*
X47235367Y-174701500D01*
X47942689Y-173994177D01*
X48646967Y-173994177D01*
X49354290Y-174701500D01*
X50063794Y-174701500D01*
X50771117Y-173994177D01*
X51475394Y-173994177D01*
X52182717Y-174701500D01*
X52892221Y-174701500D01*
X53599544Y-173994177D01*
X54303821Y-173994177D01*
X55011144Y-174701500D01*
X55720648Y-174701500D01*
X56427971Y-173994177D01*
X57132248Y-173994177D01*
X57839571Y-174701500D01*
X58549075Y-174701500D01*
X59218567Y-174032006D01*
X59213931Y-174023975D01*
X59212176Y-174020832D01*
X59208729Y-174014440D01*
X59207065Y-174011243D01*
X59200562Y-173998297D01*
X59198992Y-173995054D01*
X59195913Y-173988453D01*
X59194430Y-173985150D01*
X59154269Y-173892048D01*
X58194323Y-172932102D01*
X57132248Y-173994177D01*
X56427971Y-173994177D01*
X55365896Y-172932102D01*
X54303821Y-173994177D01*
X53599544Y-173994177D01*
X52537469Y-172932102D01*
X51475394Y-173994177D01*
X50771117Y-173994177D01*
X49709042Y-172932102D01*
X48646967Y-173994177D01*
X47942689Y-173994177D01*
X47106000Y-173157487D01*
X46600500Y-173157487D01*
X46600500Y-172579963D01*
X47232753Y-172579963D01*
X48294828Y-173642038D01*
X49356902Y-172579963D01*
X50061180Y-172579963D01*
X51123255Y-173642038D01*
X52185329Y-172579963D01*
X52889607Y-172579963D01*
X53951682Y-173642038D01*
X55013756Y-172579963D01*
X55718035Y-172579963D01*
X56780109Y-173642038D01*
X57842184Y-172579963D01*
X56780109Y-171517889D01*
X55718035Y-172579963D01*
X55013756Y-172579963D01*
X53951682Y-171517889D01*
X52889607Y-172579963D01*
X52185329Y-172579963D01*
X51123255Y-171517889D01*
X50061180Y-172579963D01*
X49356902Y-172579963D01*
X48294828Y-171517889D01*
X47232753Y-172579963D01*
X46600500Y-172579963D01*
X46600500Y-170329060D01*
X47106000Y-170329060D01*
X47106000Y-172002439D01*
X47942688Y-171165750D01*
X48646967Y-171165750D01*
X49709042Y-172227825D01*
X50771117Y-171165750D01*
X51475394Y-171165750D01*
X52537469Y-172227825D01*
X53599544Y-171165750D01*
X54303821Y-171165750D01*
X55365896Y-172227825D01*
X56427971Y-171165750D01*
X57132248Y-171165750D01*
X58194322Y-172227824D01*
X59039777Y-171382369D01*
X59042336Y-171373823D01*
X59043418Y-171370391D01*
X59045705Y-171363488D01*
X59046893Y-171360070D01*
X59051849Y-171346455D01*
X59053124Y-171343103D01*
X59055809Y-171336342D01*
X59057195Y-171332995D01*
X59167629Y-171076981D01*
X58194323Y-170103675D01*
X57132248Y-171165750D01*
X56427971Y-171165750D01*
X55365896Y-170103675D01*
X54303821Y-171165750D01*
X53599544Y-171165750D01*
X52537469Y-170103675D01*
X51475394Y-171165750D01*
X50771117Y-171165750D01*
X49709042Y-170103675D01*
X48646967Y-171165750D01*
X47942688Y-171165750D01*
X47942689Y-171165749D01*
X47106000Y-170329060D01*
X46600500Y-170329060D01*
X46600500Y-169751536D01*
X47232753Y-169751536D01*
X48294828Y-170813611D01*
X49356902Y-169751536D01*
X50061180Y-169751536D01*
X51123255Y-170813611D01*
X52185329Y-169751536D01*
X52889607Y-169751536D01*
X53951682Y-170813610D01*
X55013756Y-169751536D01*
X55718035Y-169751536D01*
X56780109Y-170813610D01*
X57842184Y-169751536D01*
X58546462Y-169751536D01*
X59421093Y-170626167D01*
X59679302Y-170279333D01*
X59719122Y-170244666D01*
X59814634Y-170192266D01*
X59865266Y-170177308D01*
X59879176Y-170176294D01*
X59889107Y-170137547D01*
X59935610Y-170043250D01*
X59967117Y-170003105D01*
X60180658Y-169823926D01*
X60183455Y-169821647D01*
X60189159Y-169817137D01*
X60192022Y-169814941D01*
X60203643Y-169806290D01*
X60206555Y-169804187D01*
X60212512Y-169800015D01*
X60215506Y-169797983D01*
X60504984Y-169607590D01*
X60508035Y-169605646D01*
X60514231Y-169601825D01*
X60517327Y-169599978D01*
X60518421Y-169599345D01*
X59608537Y-168689461D01*
X58546462Y-169751536D01*
X57842184Y-169751536D01*
X56780109Y-168689461D01*
X55718035Y-169751536D01*
X55013756Y-169751536D01*
X53951682Y-168689461D01*
X52889607Y-169751536D01*
X52185329Y-169751536D01*
X51123255Y-168689461D01*
X50061180Y-169751536D01*
X49356902Y-169751536D01*
X48294828Y-168689461D01*
X47232753Y-169751536D01*
X46600500Y-169751536D01*
X46600500Y-167756000D01*
X47106000Y-167756000D01*
X47106000Y-169174012D01*
X47942688Y-168337323D01*
X48646967Y-168337323D01*
X49709042Y-169399398D01*
X50771117Y-168337323D01*
X51475394Y-168337323D01*
X52537469Y-169399398D01*
X53599544Y-168337323D01*
X54303821Y-168337323D01*
X55365896Y-169399398D01*
X56427971Y-168337323D01*
X57132248Y-168337323D01*
X58194323Y-169399398D01*
X59256398Y-168337323D01*
X59960675Y-168337323D01*
X60997982Y-169374630D01*
X61075862Y-169346284D01*
X62084823Y-168337323D01*
X62789102Y-168337323D01*
X63851177Y-169399398D01*
X64913252Y-168337323D01*
X64913251Y-168337322D01*
X65617529Y-168337322D01*
X66679604Y-169399397D01*
X67741679Y-168337323D01*
X68445957Y-168337323D01*
X69508031Y-169399397D01*
X70570105Y-168337323D01*
X71274384Y-168337323D01*
X72336459Y-169399398D01*
X73398534Y-168337323D01*
X74102811Y-168337323D01*
X75164886Y-169399398D01*
X76084000Y-168480284D01*
X76084000Y-168194362D01*
X75645638Y-167756000D01*
X74684134Y-167756000D01*
X74102811Y-168337323D01*
X73398534Y-168337323D01*
X72817211Y-167756000D01*
X71855707Y-167756000D01*
X71274384Y-168337323D01*
X70570105Y-168337323D01*
X70570106Y-168337322D01*
X69988784Y-167756000D01*
X69027280Y-167756000D01*
X68445957Y-168337323D01*
X67741679Y-168337323D01*
X67160356Y-167756000D01*
X66198852Y-167756000D01*
X65617529Y-168337322D01*
X64913251Y-168337322D01*
X64331929Y-167756000D01*
X63370425Y-167756000D01*
X62789102Y-168337323D01*
X62084823Y-168337323D01*
X62084824Y-168337322D01*
X61503502Y-167756000D01*
X60541998Y-167756000D01*
X59960675Y-168337323D01*
X59256398Y-168337323D01*
X58675075Y-167756000D01*
X57713571Y-167756000D01*
X57132248Y-168337323D01*
X56427971Y-168337323D01*
X55846648Y-167756000D01*
X54885144Y-167756000D01*
X54303821Y-168337323D01*
X53599544Y-168337323D01*
X53018221Y-167756000D01*
X52056717Y-167756000D01*
X51475394Y-168337323D01*
X50771117Y-168337323D01*
X50189794Y-167756000D01*
X49228290Y-167756000D01*
X48646967Y-168337323D01*
X47942688Y-168337323D01*
X47942689Y-168337322D01*
X47361367Y-167756000D01*
X47106000Y-167756000D01*
X46600500Y-167756000D01*
X46600500Y-167256000D01*
X46620185Y-167188961D01*
X46672989Y-167143206D01*
X46724500Y-167132000D01*
X76475500Y-167132000D01*
X76542539Y-167151685D01*
G37*
%TD.AperFunction*%
%TD*%
%TA.AperFunction,Conductor*%
%TO.N,GND*%
G36*
X60618750Y-47420185D02*
G01*
X60664505Y-47472989D01*
X60674449Y-47542147D01*
X60645424Y-47605703D01*
X60619850Y-47628100D01*
X60495220Y-47710070D01*
X60495213Y-47710075D01*
X60369289Y-47815735D01*
X61438627Y-48885073D01*
X61328922Y-48961890D01*
X61161890Y-49128922D01*
X61085073Y-49238627D01*
X60012357Y-48165911D01*
X60012356Y-48165911D01*
X59814829Y-48431236D01*
X59814825Y-48431242D01*
X59648833Y-48718750D01*
X59648827Y-48718763D01*
X59517336Y-49023591D01*
X59422121Y-49341634D01*
X59422118Y-49341648D01*
X59364474Y-49668562D01*
X59364473Y-49668573D01*
X59345170Y-49999996D01*
X59345170Y-50000003D01*
X59364473Y-50331426D01*
X59364474Y-50331437D01*
X59422118Y-50658351D01*
X59422121Y-50658365D01*
X59517336Y-50976408D01*
X59648827Y-51281236D01*
X59648833Y-51281249D01*
X59814824Y-51568755D01*
X60012357Y-51834087D01*
X61085073Y-50761372D01*
X61161890Y-50871078D01*
X61328922Y-51038110D01*
X61438626Y-51114925D01*
X60369289Y-52184263D01*
X60495215Y-52289925D01*
X60772588Y-52472356D01*
X61069252Y-52621347D01*
X61069258Y-52621350D01*
X61381213Y-52734892D01*
X61381234Y-52734899D01*
X61704248Y-52811456D01*
X61704263Y-52811458D01*
X62034012Y-52849999D01*
X62034013Y-52850000D01*
X62365987Y-52850000D01*
X62365987Y-52849999D01*
X62695736Y-52811458D01*
X62695751Y-52811456D01*
X63018765Y-52734899D01*
X63018786Y-52734892D01*
X63330741Y-52621350D01*
X63330747Y-52621347D01*
X63627411Y-52472356D01*
X63904789Y-52289922D01*
X64030708Y-52184263D01*
X64030709Y-52184262D01*
X62961373Y-51114925D01*
X63071078Y-51038110D01*
X63238110Y-50871078D01*
X63314926Y-50761373D01*
X64387641Y-51834088D01*
X64585175Y-51568756D01*
X64617221Y-51513250D01*
X65538529Y-51513250D01*
X66600604Y-52575325D01*
X67662679Y-51513250D01*
X68366956Y-51513250D01*
X69429031Y-52575325D01*
X70491106Y-51513250D01*
X71195383Y-51513250D01*
X72257458Y-52575325D01*
X73319533Y-51513250D01*
X74023810Y-51513250D01*
X75085885Y-52575325D01*
X76084000Y-51577210D01*
X76084000Y-51449290D01*
X75085885Y-50451175D01*
X74023810Y-51513250D01*
X73319533Y-51513250D01*
X72257458Y-50451175D01*
X71195383Y-51513250D01*
X70491106Y-51513250D01*
X69429031Y-50451175D01*
X68366956Y-51513250D01*
X67662679Y-51513250D01*
X66600604Y-50451175D01*
X65538529Y-51513250D01*
X64617221Y-51513250D01*
X64751166Y-51281249D01*
X64751172Y-51281236D01*
X64882663Y-50976408D01*
X64896084Y-50931578D01*
X65415923Y-50931578D01*
X66248464Y-50099036D01*
X66952742Y-50099036D01*
X68014817Y-51161111D01*
X69076891Y-50099036D01*
X69781169Y-50099036D01*
X70843244Y-51161111D01*
X71905318Y-50099036D01*
X72609597Y-50099036D01*
X73671671Y-51161111D01*
X74733746Y-50099036D01*
X73671671Y-49036962D01*
X72609597Y-50099036D01*
X71905318Y-50099036D01*
X70843244Y-49036962D01*
X69781169Y-50099036D01*
X69076891Y-50099036D01*
X68014817Y-49036962D01*
X66952742Y-50099036D01*
X66248464Y-50099036D01*
X65481955Y-49332527D01*
X65527220Y-49589238D01*
X65527794Y-49592795D01*
X65528850Y-49600003D01*
X65529324Y-49603600D01*
X65531004Y-49617991D01*
X65531368Y-49621558D01*
X65532001Y-49628791D01*
X65532263Y-49632392D01*
X65552408Y-49978276D01*
X65552565Y-49981872D01*
X65552777Y-49989142D01*
X65552830Y-49992756D01*
X65552830Y-50007244D01*
X65552777Y-50010858D01*
X65552565Y-50018128D01*
X65552408Y-50021724D01*
X65532263Y-50367608D01*
X65532001Y-50371209D01*
X65531368Y-50378442D01*
X65531004Y-50382009D01*
X65529324Y-50396400D01*
X65528850Y-50399997D01*
X65527794Y-50407205D01*
X65527220Y-50410762D01*
X65467053Y-50751988D01*
X65466376Y-50755530D01*
X65464902Y-50762669D01*
X65464115Y-50766213D01*
X65460771Y-50780311D01*
X65459893Y-50783790D01*
X65458015Y-50790798D01*
X65457032Y-50794264D01*
X65415923Y-50931578D01*
X64896084Y-50931578D01*
X64977878Y-50658365D01*
X64977881Y-50658351D01*
X65035525Y-50331437D01*
X65035526Y-50331426D01*
X65054830Y-50000003D01*
X65054830Y-49999996D01*
X65035526Y-49668573D01*
X65035525Y-49668562D01*
X64977881Y-49341648D01*
X64977878Y-49341634D01*
X64882663Y-49023591D01*
X64751172Y-48718763D01*
X64751166Y-48718750D01*
X64731578Y-48684823D01*
X65538529Y-48684823D01*
X66600604Y-49746898D01*
X67662679Y-48684823D01*
X68366956Y-48684823D01*
X69429031Y-49746898D01*
X70491106Y-48684823D01*
X71195383Y-48684823D01*
X72257458Y-49746898D01*
X73319533Y-48684823D01*
X74023810Y-48684823D01*
X75085885Y-49746898D01*
X76084000Y-48748783D01*
X76084000Y-48620863D01*
X75361637Y-47898500D01*
X74810133Y-47898500D01*
X74023810Y-48684823D01*
X73319533Y-48684823D01*
X72533210Y-47898500D01*
X71981706Y-47898500D01*
X71195383Y-48684823D01*
X70491106Y-48684823D01*
X69704783Y-47898500D01*
X69153279Y-47898500D01*
X68366956Y-48684823D01*
X67662679Y-48684823D01*
X66876356Y-47898500D01*
X66324852Y-47898500D01*
X65538529Y-48684823D01*
X64731578Y-48684823D01*
X64585172Y-48431239D01*
X64387642Y-48165910D01*
X63314925Y-49238626D01*
X63238110Y-49128922D01*
X63071078Y-48961890D01*
X62961372Y-48885073D01*
X64030709Y-47815736D01*
X64030709Y-47815735D01*
X63904781Y-47710071D01*
X63904776Y-47710067D01*
X63780151Y-47628100D01*
X63734957Y-47574815D01*
X63725746Y-47505555D01*
X63755441Y-47442310D01*
X63814616Y-47405160D01*
X63848290Y-47400500D01*
X76475500Y-47400500D01*
X76542539Y-47420185D01*
X76588294Y-47472989D01*
X76599500Y-47524500D01*
X76599500Y-55502000D01*
X76579815Y-55569039D01*
X76527011Y-55614794D01*
X76475500Y-55626000D01*
X46724500Y-55626000D01*
X46657461Y-55606315D01*
X46611706Y-55553511D01*
X46600500Y-55502000D01*
X46600500Y-53583988D01*
X47106000Y-53583988D01*
X47106000Y-55002000D01*
X47203366Y-55002000D01*
X47863689Y-54341677D01*
X48567966Y-54341677D01*
X49228289Y-55002000D01*
X50031793Y-55002000D01*
X50692116Y-54341677D01*
X51396393Y-54341677D01*
X52056716Y-55002000D01*
X52860220Y-55002000D01*
X53520543Y-54341677D01*
X54224820Y-54341677D01*
X54885143Y-55002000D01*
X55688647Y-55002000D01*
X56348970Y-54341677D01*
X57053247Y-54341677D01*
X57713570Y-55002000D01*
X58517074Y-55002000D01*
X59177397Y-54341677D01*
X59881674Y-54341677D01*
X60541997Y-55002000D01*
X61345501Y-55002000D01*
X62005824Y-54341677D01*
X62710102Y-54341677D01*
X63370425Y-55002000D01*
X64173929Y-55002000D01*
X64834251Y-54341677D01*
X65538529Y-54341677D01*
X66198852Y-55002000D01*
X67002356Y-55002000D01*
X67662679Y-54341677D01*
X68366956Y-54341677D01*
X69027279Y-55002000D01*
X69830783Y-55002000D01*
X70491106Y-54341677D01*
X71195383Y-54341677D01*
X71855706Y-55002000D01*
X72659210Y-55002000D01*
X73319533Y-54341677D01*
X74023810Y-54341677D01*
X74684133Y-55002000D01*
X75487637Y-55002000D01*
X76084000Y-54405637D01*
X76084000Y-54277717D01*
X75085885Y-53279602D01*
X74023810Y-54341677D01*
X73319533Y-54341677D01*
X72257458Y-53279602D01*
X71195383Y-54341677D01*
X70491106Y-54341677D01*
X69429031Y-53279602D01*
X68366956Y-54341677D01*
X67662679Y-54341677D01*
X66600604Y-53279602D01*
X65538529Y-54341677D01*
X64834251Y-54341677D01*
X63772176Y-53279602D01*
X62710102Y-54341677D01*
X62005824Y-54341677D01*
X60973954Y-53309807D01*
X61678231Y-53309807D01*
X62357963Y-53989539D01*
X63126292Y-53221209D01*
X62803534Y-53297706D01*
X62800009Y-53298488D01*
X62792884Y-53299959D01*
X62789343Y-53300636D01*
X62775073Y-53303152D01*
X62771517Y-53303726D01*
X62764323Y-53304780D01*
X62760743Y-53305252D01*
X62416615Y-53345473D01*
X62413042Y-53345838D01*
X62405805Y-53346472D01*
X62402198Y-53346735D01*
X62387734Y-53347578D01*
X62384130Y-53347735D01*
X62376853Y-53347947D01*
X62373242Y-53348000D01*
X62026758Y-53348000D01*
X62023147Y-53347947D01*
X62015870Y-53347735D01*
X62012266Y-53347578D01*
X61997802Y-53346735D01*
X61994195Y-53346472D01*
X61986958Y-53345838D01*
X61983385Y-53345473D01*
X61678231Y-53309807D01*
X60973954Y-53309807D01*
X60943749Y-53279602D01*
X59881674Y-54341677D01*
X59177397Y-54341677D01*
X58115322Y-53279602D01*
X57053247Y-54341677D01*
X56348970Y-54341677D01*
X55286895Y-53279602D01*
X54224820Y-54341677D01*
X53520543Y-54341677D01*
X52458468Y-53279602D01*
X51396393Y-54341677D01*
X50692116Y-54341677D01*
X49630041Y-53279602D01*
X48567966Y-54341677D01*
X47863689Y-54341677D01*
X47106000Y-53583988D01*
X46600500Y-53583988D01*
X46600500Y-52927463D01*
X47153752Y-52927463D01*
X48215827Y-53989538D01*
X49277902Y-52927464D01*
X49982180Y-52927464D01*
X51044254Y-53989538D01*
X52106329Y-52927464D01*
X52810607Y-52927464D01*
X53872681Y-53989538D01*
X54934756Y-52927464D01*
X55639034Y-52927464D01*
X56701109Y-53989539D01*
X57763184Y-52927464D01*
X57763183Y-52927463D01*
X58467460Y-52927463D01*
X59529536Y-53989539D01*
X60584103Y-52934971D01*
X60569156Y-52927464D01*
X64124315Y-52927464D01*
X65186390Y-53989539D01*
X66248465Y-52927464D01*
X66952742Y-52927464D01*
X68014817Y-53989539D01*
X69076892Y-52927464D01*
X69781169Y-52927464D01*
X70843244Y-53989538D01*
X71905319Y-52927464D01*
X72609597Y-52927464D01*
X73671671Y-53989538D01*
X74733746Y-52927464D01*
X73671671Y-51865389D01*
X72609597Y-52927464D01*
X71905319Y-52927464D01*
X70843244Y-51865389D01*
X69781169Y-52927464D01*
X69076892Y-52927464D01*
X68014817Y-51865389D01*
X66952742Y-52927464D01*
X66248465Y-52927464D01*
X65186390Y-51865389D01*
X64124315Y-52927464D01*
X60569156Y-52927464D01*
X60542612Y-52914133D01*
X60539415Y-52912469D01*
X60533020Y-52909021D01*
X60529876Y-52907266D01*
X60517327Y-52900022D01*
X60514224Y-52898170D01*
X60508029Y-52894349D01*
X60504985Y-52892411D01*
X60215501Y-52702015D01*
X60212502Y-52699979D01*
X60206537Y-52695801D01*
X60203621Y-52693694D01*
X60192001Y-52685042D01*
X60189144Y-52682850D01*
X60183448Y-52678346D01*
X60180654Y-52676070D01*
X59967116Y-52496893D01*
X59935609Y-52456747D01*
X59889107Y-52362451D01*
X59879176Y-52323704D01*
X59865267Y-52322691D01*
X59814635Y-52307733D01*
X59719124Y-52255334D01*
X59679303Y-52220668D01*
X59463768Y-51931155D01*
X58467460Y-52927463D01*
X57763183Y-52927463D01*
X56701109Y-51865389D01*
X55639034Y-52927464D01*
X54934756Y-52927464D01*
X53872681Y-51865389D01*
X52810607Y-52927464D01*
X52106329Y-52927464D01*
X51044254Y-51865389D01*
X49982180Y-52927464D01*
X49277902Y-52927464D01*
X48215827Y-51865389D01*
X47153752Y-52927463D01*
X46600500Y-52927463D01*
X46600500Y-50755561D01*
X47106000Y-50755561D01*
X47106000Y-52270939D01*
X47863689Y-51513250D01*
X48567966Y-51513250D01*
X49630041Y-52575325D01*
X50692116Y-51513250D01*
X51396393Y-51513250D01*
X52458468Y-52575325D01*
X53520543Y-51513250D01*
X54224820Y-51513250D01*
X55286895Y-52575325D01*
X56348970Y-51513250D01*
X57053247Y-51513250D01*
X58115321Y-52575324D01*
X59177396Y-51513249D01*
X58115322Y-50451175D01*
X57053247Y-51513250D01*
X56348970Y-51513250D01*
X55286895Y-50451175D01*
X54224820Y-51513250D01*
X53520543Y-51513250D01*
X52458468Y-50451175D01*
X51396393Y-51513250D01*
X50692116Y-51513250D01*
X49630041Y-50451175D01*
X48567966Y-51513250D01*
X47863689Y-51513250D01*
X47106000Y-50755561D01*
X46600500Y-50755561D01*
X46600500Y-50099036D01*
X47153752Y-50099036D01*
X48215827Y-51161111D01*
X49277901Y-50099036D01*
X49982180Y-50099036D01*
X51044254Y-51161111D01*
X52106329Y-50099036D01*
X52810607Y-50099036D01*
X53872681Y-51161111D01*
X54934756Y-50099036D01*
X55639034Y-50099036D01*
X56701109Y-51161111D01*
X57763183Y-50099036D01*
X56701109Y-49036962D01*
X55639034Y-50099036D01*
X54934756Y-50099036D01*
X53872681Y-49036962D01*
X52810607Y-50099036D01*
X52106329Y-50099036D01*
X51044254Y-49036962D01*
X49982180Y-50099036D01*
X49277901Y-50099036D01*
X48215827Y-49036962D01*
X47153752Y-50099036D01*
X46600500Y-50099036D01*
X46600500Y-47927134D01*
X47106000Y-47927134D01*
X47106000Y-49442512D01*
X47863689Y-48684823D01*
X48567966Y-48684823D01*
X49630041Y-49746898D01*
X50692116Y-48684823D01*
X51396393Y-48684823D01*
X52458468Y-49746898D01*
X53520543Y-48684823D01*
X54224820Y-48684823D01*
X55286895Y-49746898D01*
X56348970Y-48684823D01*
X57053247Y-48684823D01*
X58115321Y-49746897D01*
X59078412Y-48783806D01*
X59138072Y-48645498D01*
X58391074Y-47898500D01*
X57839570Y-47898500D01*
X57053247Y-48684823D01*
X56348970Y-48684823D01*
X55562647Y-47898500D01*
X55011143Y-47898500D01*
X54224820Y-48684823D01*
X53520543Y-48684823D01*
X52734220Y-47898500D01*
X52182716Y-47898500D01*
X51396393Y-48684823D01*
X50692116Y-48684823D01*
X49905793Y-47898500D01*
X49354289Y-47898500D01*
X48567966Y-48684823D01*
X47863689Y-48684823D01*
X47106000Y-47927134D01*
X46600500Y-47927134D01*
X46600500Y-47524500D01*
X46620185Y-47457461D01*
X46672989Y-47411706D01*
X46724500Y-47400500D01*
X60551711Y-47400500D01*
X60618750Y-47420185D01*
G37*
%TD.AperFunction*%
%TD*%
M02*
