%TF.GenerationSoftware,KiCad,Pcbnew,7.0.11+dfsg-1build4*%
%TF.CreationDate,2024-12-30T23:49:52+01:00*%
%TF.ProjectId,Z80-Backplane,5a38302d-4261-4636-9b70-6c616e652e6b,rev?*%
%TF.SameCoordinates,Original*%
%TF.FileFunction,Soldermask,Bot*%
%TF.FilePolarity,Negative*%
%FSLAX46Y46*%
G04 Gerber Fmt 4.6, Leading zero omitted, Abs format (unit mm)*
G04 Created by KiCad (PCBNEW 7.0.11+dfsg-1build4) date 2024-12-30 23:49:52*
%MOMM*%
%LPD*%
G01*
G04 APERTURE LIST*
G04 Aperture macros list*
%AMRoundRect*
0 Rectangle with rounded corners*
0 $1 Rounding radius*
0 $2 $3 $4 $5 $6 $7 $8 $9 X,Y pos of 4 corners*
0 Add a 4 corners polygon primitive as box body*
4,1,4,$2,$3,$4,$5,$6,$7,$8,$9,$2,$3,0*
0 Add four circle primitives for the rounded corners*
1,1,$1+$1,$2,$3*
1,1,$1+$1,$4,$5*
1,1,$1+$1,$6,$7*
1,1,$1+$1,$8,$9*
0 Add four rect primitives between the rounded corners*
20,1,$1+$1,$2,$3,$4,$5,0*
20,1,$1+$1,$4,$5,$6,$7,0*
20,1,$1+$1,$6,$7,$8,$9,0*
20,1,$1+$1,$8,$9,$2,$3,0*%
G04 Aperture macros list end*
%ADD10C,0.150000*%
%ADD11C,1.600000*%
%ADD12O,1.600000X1.600000*%
%ADD13RoundRect,0.250000X0.725000X-0.600000X0.725000X0.600000X-0.725000X0.600000X-0.725000X-0.600000X0*%
%ADD14O,1.950000X1.700000*%
%ADD15O,2.500000X1.600000*%
%ADD16C,4.700000*%
%ADD17C,1.500000*%
%ADD18RoundRect,0.250001X1.399999X-1.099999X1.399999X1.099999X-1.399999X1.099999X-1.399999X-1.099999X0*%
%ADD19O,3.300000X2.700000*%
G04 APERTURE END LIST*
D10*
X44450000Y-46990000D02*
X228600000Y-46990000D01*
X228600000Y-55880000D01*
X44450000Y-55880000D01*
X44450000Y-46990000D01*
G36*
X44450000Y-46990000D02*
G01*
X228600000Y-46990000D01*
X228600000Y-55880000D01*
X44450000Y-55880000D01*
X44450000Y-46990000D01*
G37*
X45720000Y-166370000D02*
X228600000Y-166370000D01*
X228600000Y-175260000D01*
X45720000Y-175260000D01*
X45720000Y-166370000D01*
G36*
X45720000Y-166370000D02*
G01*
X228600000Y-166370000D01*
X228600000Y-175260000D01*
X45720000Y-175260000D01*
X45720000Y-166370000D01*
G37*
D11*
%TO.C,R3*%
X54610000Y-87630000D03*
D12*
X64770000Y-87630000D03*
%TD*%
D11*
%TO.C,R2*%
X54610000Y-83820000D03*
D12*
X64770000Y-83820000D03*
%TD*%
D11*
%TO.C,R1*%
X54610000Y-80010000D03*
D12*
X64770000Y-80010000D03*
%TD*%
D13*
%TO.C,J3*%
X66040000Y-100210000D03*
D14*
X66040000Y-97710000D03*
X66040000Y-95210000D03*
X66040000Y-92710000D03*
%TD*%
D15*
%TO.C,J5*%
X62056000Y-137160000D03*
X67056000Y-137160000D03*
%TD*%
D16*
%TO.C,H10*%
X62200000Y-172500000D03*
%TD*%
D15*
%TO.C,J8*%
X62056000Y-142240000D03*
X67056000Y-142240000D03*
%TD*%
%TO.C,J13*%
X62056000Y-152400000D03*
X67056000Y-152400000D03*
%TD*%
D16*
%TO.C,H11*%
X62200000Y-50000000D03*
%TD*%
D15*
%TO.C,J11*%
X62056000Y-147320000D03*
X67056000Y-147320000D03*
%TD*%
%TO.C,J10*%
X73660000Y-157480000D03*
X68660000Y-157480000D03*
%TD*%
D17*
%TO.C,TP4*%
X53340000Y-102610000D03*
%TD*%
D18*
%TO.C,J1*%
X59420000Y-117230000D03*
D19*
X59420000Y-113030000D03*
X53920000Y-117230000D03*
X53920000Y-113030000D03*
%TD*%
D17*
%TO.C,TP2*%
X53340000Y-95510000D03*
%TD*%
D15*
%TO.C,J12*%
X73660000Y-162560000D03*
X68660000Y-162560000D03*
%TD*%
%TO.C,J7*%
X73660000Y-64770000D03*
X68660000Y-64770000D03*
%TD*%
%TO.C,J6*%
X73660000Y-59690000D03*
X68660000Y-59690000D03*
%TD*%
D18*
%TO.C,J2*%
X59420000Y-129930000D03*
D19*
X59420000Y-125730000D03*
X53920000Y-129930000D03*
X53920000Y-125730000D03*
%TD*%
D17*
%TO.C,TP1*%
X53340000Y-91960000D03*
%TD*%
%TO.C,TP3*%
X53340000Y-99060000D03*
%TD*%
M02*
