%TF.GenerationSoftware,KiCad,Pcbnew,7.0.9-7.0.9~ubuntu22.04.1*%
%TF.CreationDate,2023-12-27T15:34:34+01:00*%
%TF.ProjectId,Z80-VDP,5a38302d-5644-4502-9e6b-696361645f70,rev?*%
%TF.SameCoordinates,Original*%
%TF.FileFunction,Copper,L2,Inr*%
%TF.FilePolarity,Positive*%
%FSLAX46Y46*%
G04 Gerber Fmt 4.6, Leading zero omitted, Abs format (unit mm)*
G04 Created by KiCad (PCBNEW 7.0.9-7.0.9~ubuntu22.04.1) date 2023-12-27 15:34:34*
%MOMM*%
%LPD*%
G01*
G04 APERTURE LIST*
G04 Aperture macros list*
%AMRoundRect*
0 Rectangle with rounded corners*
0 $1 Rounding radius*
0 $2 $3 $4 $5 $6 $7 $8 $9 X,Y pos of 4 corners*
0 Add a 4 corners polygon primitive as box body*
4,1,4,$2,$3,$4,$5,$6,$7,$8,$9,$2,$3,0*
0 Add four circle primitives for the rounded corners*
1,1,$1+$1,$2,$3*
1,1,$1+$1,$4,$5*
1,1,$1+$1,$6,$7*
1,1,$1+$1,$8,$9*
0 Add four rect primitives between the rounded corners*
20,1,$1+$1,$2,$3,$4,$5,0*
20,1,$1+$1,$4,$5,$6,$7,0*
20,1,$1+$1,$6,$7,$8,$9,0*
20,1,$1+$1,$8,$9,$2,$3,0*%
G04 Aperture macros list end*
%TA.AperFunction,ComponentPad*%
%ADD10R,2.400000X1.600000*%
%TD*%
%TA.AperFunction,ComponentPad*%
%ADD11O,2.400000X1.600000*%
%TD*%
%TA.AperFunction,ComponentPad*%
%ADD12R,1.700000X1.700000*%
%TD*%
%TA.AperFunction,ComponentPad*%
%ADD13O,1.700000X1.700000*%
%TD*%
%TA.AperFunction,ComponentPad*%
%ADD14R,1.600000X1.600000*%
%TD*%
%TA.AperFunction,ComponentPad*%
%ADD15O,1.600000X1.600000*%
%TD*%
%TA.AperFunction,ComponentPad*%
%ADD16O,1.324000X2.124000*%
%TD*%
%TA.AperFunction,ComponentPad*%
%ADD17O,2.524000X1.324000*%
%TD*%
%TA.AperFunction,ComponentPad*%
%ADD18O,1.324000X2.524000*%
%TD*%
%TA.AperFunction,ComponentPad*%
%ADD19C,1.600000*%
%TD*%
%TA.AperFunction,ComponentPad*%
%ADD20C,1.400000*%
%TD*%
%TA.AperFunction,ComponentPad*%
%ADD21O,1.400000X1.400000*%
%TD*%
%TA.AperFunction,ComponentPad*%
%ADD22R,2.400000X2.400000*%
%TD*%
%TA.AperFunction,ComponentPad*%
%ADD23O,2.400000X2.400000*%
%TD*%
%TA.AperFunction,ComponentPad*%
%ADD24C,5.600000*%
%TD*%
%TA.AperFunction,ComponentPad*%
%ADD25R,1.200000X1.700000*%
%TD*%
%TA.AperFunction,ComponentPad*%
%ADD26O,1.200000X1.700000*%
%TD*%
%TA.AperFunction,ComponentPad*%
%ADD27C,2.300000*%
%TD*%
%TA.AperFunction,ComponentPad*%
%ADD28C,2.400000*%
%TD*%
%TA.AperFunction,ComponentPad*%
%ADD29R,1.905000X2.000000*%
%TD*%
%TA.AperFunction,ComponentPad*%
%ADD30C,3.000000*%
%TD*%
%TA.AperFunction,ComponentPad*%
%ADD31O,1.905000X2.000000*%
%TD*%
%TA.AperFunction,ComponentPad*%
%ADD32RoundRect,0.550000X0.950000X-0.550000X0.950000X0.550000X-0.950000X0.550000X-0.950000X-0.550000X0*%
%TD*%
%TA.AperFunction,ComponentPad*%
%ADD33O,2.000000X3.500000*%
%TD*%
%TA.AperFunction,ComponentPad*%
%ADD34RoundRect,0.249999X-0.525001X0.525001X-0.525001X-0.525001X0.525001X-0.525001X0.525001X0.525001X0*%
%TD*%
%TA.AperFunction,ComponentPad*%
%ADD35C,1.550000*%
%TD*%
%TA.AperFunction,ViaPad*%
%ADD36C,0.500000*%
%TD*%
%TA.AperFunction,ViaPad*%
%ADD37C,0.700000*%
%TD*%
%TA.AperFunction,ViaPad*%
%ADD38C,0.600000*%
%TD*%
G04 APERTURE END LIST*
D10*
%TO.N,GND*%
%TO.C,U2*%
X186675000Y-91445000D03*
D11*
%TO.N,/~{#IOREQ}*%
X186675000Y-93985000D03*
%TO.N,Net-(RN1-R8)*%
X186675000Y-96525000D03*
%TO.N,/~{#IOREQ}*%
X186675000Y-99065000D03*
%TO.N,Net-(RN1-R7)*%
X186675000Y-101605000D03*
%TO.N,/#A2*%
X186675000Y-104145000D03*
%TO.N,Net-(JP1-Pin_2)*%
X186675000Y-106685000D03*
%TO.N,/#A3*%
X186675000Y-109225000D03*
%TO.N,Net-(JP1-Pin_4)*%
X186675000Y-111765000D03*
%TO.N,GND*%
X186675000Y-114305000D03*
%TO.N,/#A4*%
X194295000Y-114305000D03*
%TO.N,Net-(JP1-Pin_6)*%
X194295000Y-111765000D03*
%TO.N,/#A5*%
X194295000Y-109225000D03*
%TO.N,Net-(JP1-Pin_8)*%
X194295000Y-106685000D03*
%TO.N,/#A6*%
X194295000Y-104145000D03*
%TO.N,Net-(JP1-Pin_10)*%
X194295000Y-101605000D03*
%TO.N,/#A7*%
X194295000Y-99065000D03*
%TO.N,Net-(JP1-Pin_12)*%
X194295000Y-96525000D03*
%TO.N,Net-(U2-P=R)*%
X194295000Y-93985000D03*
%TO.N,+5V*%
X194295000Y-91445000D03*
%TD*%
D12*
%TO.N,Net-(JP2-Pad1)*%
%TO.C,JP2*%
X182880000Y-134620000D03*
D13*
%TO.N,/~{WAIT}*%
X180340000Y-134620000D03*
%TD*%
D14*
%TO.N,GND*%
%TO.C,U10*%
X165100000Y-91440000D03*
D15*
%TO.N,/RD4*%
X165100000Y-93980000D03*
%TO.N,/RD5*%
X165100000Y-96520000D03*
%TO.N,/R{slash}W*%
X165100000Y-99060000D03*
%TO.N,/{slash}CAS0*%
X165100000Y-101600000D03*
%TO.N,/AD6*%
X165100000Y-104140000D03*
%TO.N,/AD5*%
X165100000Y-106680000D03*
%TO.N,/AD4*%
X165100000Y-109220000D03*
%TO.N,+5V*%
X165100000Y-111760000D03*
%TO.N,/AD7*%
X172720000Y-111760000D03*
%TO.N,/AD3*%
X172720000Y-109220000D03*
%TO.N,/AD2*%
X172720000Y-106680000D03*
%TO.N,/AD1*%
X172720000Y-104140000D03*
%TO.N,/AD0*%
X172720000Y-101600000D03*
%TO.N,/RD6*%
X172720000Y-99060000D03*
%TO.N,/{slash}RAS*%
X172720000Y-96520000D03*
%TO.N,/RD7*%
X172720000Y-93980000D03*
%TO.N,GND*%
X172720000Y-91440000D03*
%TD*%
D16*
%TO.N,/VO_GREEN*%
%TO.C,J8*%
X74810000Y-102870000D03*
D17*
%TO.N,GNDA*%
X76010000Y-97470000D03*
D18*
X67310000Y-102870000D03*
D17*
X76010000Y-108270000D03*
%TD*%
D19*
%TO.N,+5V*%
%TO.C,C28*%
X194310000Y-58166000D03*
%TO.N,GND*%
X189310000Y-58166000D03*
%TD*%
%TO.N,+5V*%
%TO.C,C32*%
X209550000Y-119126000D03*
%TO.N,GND*%
X204550000Y-119126000D03*
%TD*%
D14*
%TO.N,GND*%
%TO.C,U9*%
X165100000Y-60960000D03*
D15*
%TO.N,/RD0*%
X165100000Y-63500000D03*
%TO.N,/RD1*%
X165100000Y-66040000D03*
%TO.N,/R{slash}W*%
X165100000Y-68580000D03*
%TO.N,/{slash}CAS0*%
X165100000Y-71120000D03*
%TO.N,/AD6*%
X165100000Y-73660000D03*
%TO.N,/AD5*%
X165100000Y-76200000D03*
%TO.N,/AD4*%
X165100000Y-78740000D03*
%TO.N,+5V*%
X165100000Y-81280000D03*
%TO.N,/AD7*%
X172720000Y-81280000D03*
%TO.N,/AD3*%
X172720000Y-78740000D03*
%TO.N,/AD2*%
X172720000Y-76200000D03*
%TO.N,/AD1*%
X172720000Y-73660000D03*
%TO.N,/AD0*%
X172720000Y-71120000D03*
%TO.N,/RD2*%
X172720000Y-68580000D03*
%TO.N,/{slash}RAS*%
X172720000Y-66040000D03*
%TO.N,/RD3*%
X172720000Y-63500000D03*
%TO.N,GND*%
X172720000Y-60960000D03*
%TD*%
D19*
%TO.N,+5V*%
%TO.C,C31*%
X209550000Y-88646000D03*
%TO.N,GND*%
X204550000Y-88646000D03*
%TD*%
D20*
%TO.N,GNDA*%
%TO.C,R1*%
X93980000Y-137795000D03*
D21*
%TO.N,Net-(J2-Pin_6)*%
X101600000Y-137795000D03*
%TD*%
D19*
%TO.N,+5V*%
%TO.C,C29*%
X194310000Y-88646000D03*
%TO.N,GND*%
X189310000Y-88646000D03*
%TD*%
D14*
%TO.N,GNDA*%
%TO.C,C14*%
X85090000Y-108625000D03*
D19*
%TO.N,+5VA*%
X85090000Y-111125000D03*
%TD*%
D14*
%TO.N,GNDA*%
%TO.C,C13*%
X85090000Y-121920000D03*
D19*
%TO.N,+5VA*%
X85090000Y-119420000D03*
%TD*%
D20*
%TO.N,Net-(U11-GOUT)*%
%TO.C,R7*%
X93218000Y-106045000D03*
D21*
%TO.N,Net-(C20-Pad1)*%
X93218000Y-98425000D03*
%TD*%
D14*
%TO.N,/~{#WAIT}*%
%TO.C,U6*%
X186690000Y-129540000D03*
D15*
%TO.N,GND*%
X186690000Y-132080000D03*
%TO.N,Net-(JP2-Pad1)*%
X186690000Y-134620000D03*
%TO.N,GND*%
X186690000Y-137160000D03*
X186690000Y-139700000D03*
%TO.N,unconnected-(U6-Pad6)*%
X186690000Y-142240000D03*
%TO.N,GND*%
X186690000Y-144780000D03*
%TO.N,unconnected-(U6-Pad8)*%
X194310000Y-144780000D03*
%TO.N,GND*%
X194310000Y-142240000D03*
X194310000Y-139700000D03*
%TO.N,unconnected-(U6-Pad11)*%
X194310000Y-137160000D03*
%TO.N,GND*%
X194310000Y-134620000D03*
X194310000Y-132080000D03*
%TO.N,+5V*%
X194310000Y-129540000D03*
%TD*%
D22*
%TO.N,+5VA*%
%TO.C,C34*%
X100965000Y-65405000D03*
D23*
%TO.N,GNDA*%
X100965000Y-91405000D03*
%TD*%
D24*
%TO.N,GND*%
%TO.C,*%
X97790000Y-147574000D03*
%TD*%
D25*
%TO.N,GND*%
%TO.C,U8*%
X117825000Y-146075400D03*
D26*
%TO.N,N/C*%
X119605000Y-146075400D03*
X121385000Y-146075400D03*
%TO.N,+5V*%
X123165000Y-146075400D03*
%TO.N,/HSYNC*%
X124945000Y-146075400D03*
%TO.N,/CSYNC*%
X126725000Y-146075400D03*
%TO.N,N/C*%
X128505000Y-146075400D03*
%TO.N,unconnected-(U8-CPUCLK{slash}VDS-Pad8)*%
X130285000Y-146075400D03*
%TO.N,/~{#RESET}*%
X132065000Y-146075400D03*
%TO.N,N/C*%
X133845000Y-146075400D03*
X135625000Y-146075400D03*
X137405000Y-146075400D03*
X139185000Y-146075400D03*
X140965000Y-146075400D03*
X142745000Y-146075400D03*
X144525000Y-146075400D03*
X146305000Y-146075400D03*
X148085000Y-146075400D03*
X149865000Y-146075400D03*
%TO.N,GNDA*%
X151645000Y-146075400D03*
%TO.N,+5VA*%
X153425000Y-146075400D03*
%TO.N,/RGB_G*%
X155205000Y-146075400D03*
%TO.N,/RGB_R*%
X156985000Y-146075400D03*
%TO.N,/RGB_B*%
X158765000Y-146075400D03*
%TO.N,/~{IRQ_OUT}*%
X160545000Y-146075400D03*
%TO.N,/~{#WAIT}*%
X162325000Y-146075400D03*
%TO.N,+5V*%
X164105000Y-146075400D03*
%TO.N,/#A1*%
X165885000Y-146075400D03*
%TO.N,/#A0*%
X167665000Y-146075400D03*
%TO.N,/~{VDP_WR}*%
X169445000Y-146075400D03*
%TO.N,/~{VDP_RD}*%
X171225000Y-146075400D03*
%TO.N,/#D7*%
X173005000Y-146075400D03*
%TO.N,unconnected-(U8-VBB-Pad33)*%
X173005000Y-126974600D03*
%TO.N,/#D6*%
X171225000Y-126974600D03*
%TO.N,/#D5*%
X169445000Y-126974600D03*
%TO.N,/#D4*%
X167665000Y-126974600D03*
%TO.N,/#D3*%
X165885000Y-126974600D03*
%TO.N,/#D2*%
X164105000Y-126974600D03*
%TO.N,/#D1*%
X162325000Y-126974600D03*
%TO.N,/#D0*%
X160545000Y-126974600D03*
%TO.N,/RD0*%
X158765000Y-126974600D03*
%TO.N,/RD1*%
X156985000Y-126974600D03*
%TO.N,/RD2*%
X155205000Y-126974600D03*
%TO.N,/RD3*%
X153425000Y-126974600D03*
%TO.N,/RD4*%
X151645000Y-126974600D03*
%TO.N,/RD5*%
X149865000Y-126974600D03*
%TO.N,/RD6*%
X148085000Y-126974600D03*
%TO.N,/RD7*%
X146305000Y-126974600D03*
%TO.N,/AD0*%
X144525000Y-126974600D03*
%TO.N,/AD1*%
X142745000Y-126974600D03*
%TO.N,/AD2*%
X140965000Y-126974600D03*
%TO.N,/AD3*%
X139185000Y-126974600D03*
%TO.N,/AD4*%
X137405000Y-126974600D03*
%TO.N,/AD5*%
X135625000Y-126974600D03*
%TO.N,/AD6*%
X133845000Y-126974600D03*
%TO.N,/AD7*%
X132065000Y-126974600D03*
%TO.N,/R{slash}W*%
X130285000Y-126974600D03*
%TO.N,+5V*%
X128505000Y-126974600D03*
%TO.N,/{slash}CASX*%
X126725000Y-126974600D03*
%TO.N,/{slash}CAS1*%
X124945000Y-126974600D03*
%TO.N,/{slash}CAS0*%
X123165000Y-126974600D03*
%TO.N,/{slash}RAS*%
X121385000Y-126974600D03*
%TO.N,Net-(U8-XTAL1)*%
X119605000Y-126974600D03*
%TO.N,Net-(U8-XTAL2)*%
X117825000Y-126974600D03*
%TD*%
D14*
%TO.N,GND*%
%TO.C,RN1*%
X182880000Y-91440000D03*
D15*
%TO.N,Net-(JP1-Pin_12)*%
X182880000Y-93980000D03*
%TO.N,Net-(JP1-Pin_10)*%
X182880000Y-96520000D03*
%TO.N,Net-(JP1-Pin_8)*%
X182880000Y-99060000D03*
%TO.N,Net-(JP1-Pin_6)*%
X182880000Y-101600000D03*
%TO.N,Net-(JP1-Pin_4)*%
X182880000Y-104140000D03*
%TO.N,Net-(JP1-Pin_2)*%
X182880000Y-106680000D03*
%TO.N,Net-(RN1-R7)*%
X182880000Y-109220000D03*
%TO.N,Net-(RN1-R8)*%
X182880000Y-111760000D03*
%TD*%
D19*
%TO.N,+5VA*%
%TO.C,C12*%
X95805000Y-108585000D03*
%TO.N,GNDA*%
X90805000Y-108585000D03*
%TD*%
D14*
%TO.N,Net-(C19-Pad1)*%
%TO.C,C19*%
X87542380Y-137795000D03*
D19*
%TO.N,Net-(C19-Pad2)*%
X85042380Y-137795000D03*
%TD*%
%TO.N,Net-(J2-Pin_6)*%
%TO.C,C9*%
X97155000Y-133985000D03*
%TO.N,Net-(U11-GIN)*%
X97155000Y-128985000D03*
%TD*%
D16*
%TO.N,/VO_BLUE*%
%TO.C,J9*%
X74810000Y-86995000D03*
D17*
%TO.N,GNDA*%
X76010000Y-81595000D03*
D18*
X67310000Y-86995000D03*
D17*
X76010000Y-92395000D03*
%TD*%
D20*
%TO.N,Net-(U11-BOUT)*%
%TO.C,R8*%
X95758000Y-106045000D03*
D21*
%TO.N,Net-(C21-Pad1)*%
X95758000Y-98425000D03*
%TD*%
D19*
%TO.N,Net-(J2-Pin_4)*%
%TO.C,C10*%
X93980000Y-133985000D03*
%TO.N,Net-(U11-RIN)*%
X93980000Y-128985000D03*
%TD*%
%TO.N,+5V*%
%TO.C,C25*%
X165100000Y-114300000D03*
%TO.N,GND*%
X170100000Y-114300000D03*
%TD*%
D20*
%TO.N,Net-(U11-COUT)*%
%TO.C,R12*%
X108458000Y-106045000D03*
D21*
%TO.N,Net-(C17-Pad1)*%
X108458000Y-98425000D03*
%TD*%
D27*
%TO.N,Net-(U8-XTAL1)*%
%TO.C,Y1*%
X121285000Y-123190000D03*
%TO.N,Net-(U8-XTAL2)*%
X116385000Y-123190000D03*
%TD*%
D20*
%TO.N,GNDA*%
%TO.C,R2*%
X93980000Y-140335000D03*
D21*
%TO.N,Net-(J2-Pin_4)*%
X101600000Y-140335000D03*
%TD*%
D14*
%TO.N,Net-(C24-Pad1)*%
%TO.C,C24*%
X86995000Y-76708000D03*
D19*
%TO.N,/VO_COM*%
X84495000Y-76708000D03*
%TD*%
D14*
%TO.N,Net-(C18-Pad1)*%
%TO.C,C18*%
X86995000Y-98044000D03*
D19*
%TO.N,/VO_RED*%
X84495000Y-98044000D03*
%TD*%
D20*
%TO.N,Net-(U11-YTRAP)*%
%TO.C,R10*%
X103378000Y-106045000D03*
D21*
%TO.N,+5VA*%
X103378000Y-98425000D03*
%TD*%
D19*
%TO.N,+5VA*%
%TO.C,C2*%
X113070000Y-86360000D03*
%TO.N,GNDA*%
X118070000Y-86360000D03*
%TD*%
D10*
%TO.N,BUSDIR*%
%TO.C,U3*%
X201930000Y-60960000D03*
D11*
%TO.N,/#D0*%
X201930000Y-63500000D03*
%TO.N,/#D1*%
X201930000Y-66040000D03*
%TO.N,/#D2*%
X201930000Y-68580000D03*
%TO.N,/#D3*%
X201930000Y-71120000D03*
%TO.N,/#D4*%
X201930000Y-73660000D03*
%TO.N,/#D5*%
X201930000Y-76200000D03*
%TO.N,/#D6*%
X201930000Y-78740000D03*
%TO.N,/#D7*%
X201930000Y-81280000D03*
%TO.N,GND*%
X201930000Y-83820000D03*
%TO.N,/D7*%
X209550000Y-83820000D03*
%TO.N,/D6*%
X209550000Y-81280000D03*
%TO.N,/D5*%
X209550000Y-78740000D03*
%TO.N,/D4*%
X209550000Y-76200000D03*
%TO.N,/D3*%
X209550000Y-73660000D03*
%TO.N,/D2*%
X209550000Y-71120000D03*
%TO.N,/D1*%
X209550000Y-68580000D03*
%TO.N,/D0*%
X209550000Y-66040000D03*
%TO.N,GND*%
X209550000Y-63500000D03*
%TO.N,+5V*%
X209550000Y-60960000D03*
%TD*%
D19*
%TO.N,+5VA*%
%TO.C,C11*%
X104100000Y-124460000D03*
%TO.N,GNDA*%
X99100000Y-124460000D03*
%TD*%
%TO.N,GND*%
%TO.C,C6*%
X116205000Y-113745000D03*
%TO.N,Net-(U8-XTAL2)*%
X116205000Y-118745000D03*
%TD*%
D20*
%TO.N,Net-(U11-CVOUT)*%
%TO.C,R9*%
X98298000Y-106045000D03*
D21*
%TO.N,Net-(C24-Pad1)*%
X98298000Y-98425000D03*
%TD*%
D10*
%TO.N,GND*%
%TO.C,U4*%
X201915000Y-91440000D03*
D11*
%TO.N,/#A0*%
X201915000Y-93980000D03*
%TO.N,/#A1*%
X201915000Y-96520000D03*
%TO.N,/#A2*%
X201915000Y-99060000D03*
%TO.N,/#A3*%
X201915000Y-101600000D03*
%TO.N,/#A4*%
X201915000Y-104140000D03*
%TO.N,/#A5*%
X201915000Y-106680000D03*
%TO.N,/#A6*%
X201915000Y-109220000D03*
%TO.N,/#A7*%
X201915000Y-111760000D03*
%TO.N,GND*%
X201915000Y-114300000D03*
%TO.N,/A7*%
X209535000Y-114300000D03*
%TO.N,/A6*%
X209535000Y-111760000D03*
%TO.N,/A5*%
X209535000Y-109220000D03*
%TO.N,/A4*%
X209535000Y-106680000D03*
%TO.N,/A3*%
X209535000Y-104140000D03*
%TO.N,/A2*%
X209535000Y-101600000D03*
%TO.N,/A1*%
X209535000Y-99060000D03*
%TO.N,/A0*%
X209535000Y-96520000D03*
%TO.N,GND*%
X209535000Y-93980000D03*
%TO.N,+5V*%
X209535000Y-91440000D03*
%TD*%
D19*
%TO.N,+5V*%
%TO.C,C22*%
X151765000Y-83820000D03*
%TO.N,GND*%
X156765000Y-83820000D03*
%TD*%
D28*
%TO.N,Net-(U1-OUT)*%
%TO.C,FB2*%
X112395000Y-67945000D03*
D23*
%TO.N,+5VA*%
X112395000Y-83185000D03*
%TD*%
D20*
%TO.N,Net-(U11-YOUT)*%
%TO.C,R11*%
X105918000Y-106045000D03*
D21*
%TO.N,Net-(C19-Pad1)*%
X105918000Y-98425000D03*
%TD*%
D14*
%TO.N,GND*%
%TO.C,U13*%
X151765000Y-91440000D03*
D15*
%TO.N,/RD4*%
X151765000Y-93980000D03*
%TO.N,/RD5*%
X151765000Y-96520000D03*
%TO.N,/R{slash}W*%
X151765000Y-99060000D03*
%TO.N,/{slash}CAS1*%
X151765000Y-101600000D03*
%TO.N,/AD6*%
X151765000Y-104140000D03*
%TO.N,/AD5*%
X151765000Y-106680000D03*
%TO.N,/AD4*%
X151765000Y-109220000D03*
%TO.N,+5V*%
X151765000Y-111760000D03*
%TO.N,/AD7*%
X159385000Y-111760000D03*
%TO.N,/AD3*%
X159385000Y-109220000D03*
%TO.N,/AD2*%
X159385000Y-106680000D03*
%TO.N,/AD1*%
X159385000Y-104140000D03*
%TO.N,/AD0*%
X159385000Y-101600000D03*
%TO.N,/RD6*%
X159385000Y-99060000D03*
%TO.N,/{slash}RAS*%
X159385000Y-96520000D03*
%TO.N,/RD7*%
X159385000Y-93980000D03*
%TO.N,GND*%
X159385000Y-91440000D03*
%TD*%
D19*
%TO.N,+5V*%
%TO.C,C27*%
X194310000Y-126746000D03*
%TO.N,GND*%
X189310000Y-126746000D03*
%TD*%
D14*
%TO.N,GND*%
%TO.C,U15*%
X137795000Y-91440000D03*
D15*
%TO.N,/RD4*%
X137795000Y-93980000D03*
%TO.N,/RD5*%
X137795000Y-96520000D03*
%TO.N,/R{slash}W*%
X137795000Y-99060000D03*
%TO.N,/{slash}CASX*%
X137795000Y-101600000D03*
%TO.N,/AD6*%
X137795000Y-104140000D03*
%TO.N,/AD5*%
X137795000Y-106680000D03*
%TO.N,/AD4*%
X137795000Y-109220000D03*
%TO.N,+5V*%
X137795000Y-111760000D03*
%TO.N,/AD7*%
X145415000Y-111760000D03*
%TO.N,/AD3*%
X145415000Y-109220000D03*
%TO.N,/AD2*%
X145415000Y-106680000D03*
%TO.N,/AD1*%
X145415000Y-104140000D03*
%TO.N,/AD0*%
X145415000Y-101600000D03*
%TO.N,/RD6*%
X145415000Y-99060000D03*
%TO.N,/{slash}RAS*%
X145415000Y-96520000D03*
%TO.N,/RD7*%
X145415000Y-93980000D03*
%TO.N,GND*%
X145415000Y-91440000D03*
%TD*%
D29*
%TO.N,+12V*%
%TO.C,U1*%
X124460000Y-83185000D03*
D30*
%TO.N,GND*%
X127000000Y-62525000D03*
D31*
X127000000Y-83185000D03*
%TO.N,Net-(U1-OUT)*%
X129540000Y-83185000D03*
%TD*%
D14*
%TO.N,Net-(U7-Pad1)*%
%TO.C,U7*%
X186690000Y-60960000D03*
D15*
%TO.N,Net-(U2-P=R)*%
X186690000Y-63500000D03*
%TO.N,/~{#WR}*%
X186690000Y-66040000D03*
%TO.N,/~{VDP_WR}*%
X186690000Y-68580000D03*
%TO.N,Net-(U7-Pad1)*%
X186690000Y-71120000D03*
X186690000Y-73660000D03*
%TO.N,GND*%
X186690000Y-76200000D03*
%TO.N,Net-(U2-P=R)*%
X194310000Y-76200000D03*
%TO.N,/~{#RD}*%
X194310000Y-73660000D03*
%TO.N,BUSDIR*%
X194310000Y-71120000D03*
X194310000Y-68580000D03*
X194310000Y-66040000D03*
%TO.N,/~{VDP_RD}*%
X194310000Y-63500000D03*
%TO.N,+5V*%
X194310000Y-60960000D03*
%TD*%
D14*
%TO.N,Net-(U1-OUT)*%
%TO.C,C1*%
X127000000Y-91695651D03*
D19*
%TO.N,GND*%
X127000000Y-88195651D03*
%TD*%
%TO.N,+5V*%
%TO.C,C3*%
X123150000Y-149225000D03*
%TO.N,GND*%
X118150000Y-149225000D03*
%TD*%
%TO.N,GNDA*%
%TO.C,J4*%
X74540000Y-138005000D03*
X74540000Y-131205000D03*
%TO.N,Net-(C19-Pad2)*%
X77040000Y-138005000D03*
%TO.N,Net-(C17-Pad2)*%
X77040000Y-131205000D03*
D32*
%TO.N,GNDA*%
X71540000Y-141605000D03*
D33*
X70745000Y-134620000D03*
D32*
X71540000Y-127605000D03*
%TD*%
D20*
%TO.N,GNDA*%
%TO.C,R3*%
X93980000Y-142875000D03*
D21*
%TO.N,Net-(J2-Pin_2)*%
X101600000Y-142875000D03*
%TD*%
D19*
%TO.N,+5V*%
%TO.C,C16*%
X137795000Y-83820000D03*
%TO.N,GND*%
X142795000Y-83820000D03*
%TD*%
D12*
%TO.N,+5V*%
%TO.C,JP3*%
X115575000Y-62230000D03*
D13*
%TO.N,+5VA*%
X113035000Y-62230000D03*
%TD*%
D20*
%TO.N,GNDA*%
%TO.C,R13*%
X100838000Y-106045000D03*
D21*
%TO.N,Net-(C24-Pad1)*%
X100838000Y-98425000D03*
%TD*%
D28*
%TO.N,GND*%
%TO.C,FB1*%
X117348000Y-67945000D03*
D23*
%TO.N,GNDA*%
X117348000Y-83185000D03*
%TD*%
D16*
%TO.N,/VO_RED*%
%TO.C,J7*%
X74810000Y-118745000D03*
D17*
%TO.N,GNDA*%
X76010000Y-113345000D03*
D18*
X67310000Y-118745000D03*
D17*
X76010000Y-124145000D03*
%TD*%
D14*
%TO.N,GND*%
%TO.C,U12*%
X151765000Y-60960000D03*
D15*
%TO.N,/RD0*%
X151765000Y-63500000D03*
%TO.N,/RD1*%
X151765000Y-66040000D03*
%TO.N,/R{slash}W*%
X151765000Y-68580000D03*
%TO.N,/{slash}CAS1*%
X151765000Y-71120000D03*
%TO.N,/AD6*%
X151765000Y-73660000D03*
%TO.N,/AD5*%
X151765000Y-76200000D03*
%TO.N,/AD4*%
X151765000Y-78740000D03*
%TO.N,+5V*%
X151765000Y-81280000D03*
%TO.N,/AD7*%
X159385000Y-81280000D03*
%TO.N,/AD3*%
X159385000Y-78740000D03*
%TO.N,/AD2*%
X159385000Y-76200000D03*
%TO.N,/AD1*%
X159385000Y-73660000D03*
%TO.N,/AD0*%
X159385000Y-71120000D03*
%TO.N,/RD2*%
X159385000Y-68580000D03*
%TO.N,/{slash}RAS*%
X159385000Y-66040000D03*
%TO.N,/RD3*%
X159385000Y-63500000D03*
%TO.N,GND*%
X159385000Y-60960000D03*
%TD*%
D19*
%TO.N,+5V*%
%TO.C,C15*%
X165100000Y-83820000D03*
%TO.N,GND*%
X170100000Y-83820000D03*
%TD*%
D14*
%TO.N,Net-(C20-Pad1)*%
%TO.C,C20*%
X86995000Y-90932000D03*
D19*
%TO.N,/VO_GREEN*%
X84495000Y-90932000D03*
%TD*%
%TO.N,Net-(U8-XTAL1)*%
%TO.C,C5*%
X119380000Y-118745000D03*
%TO.N,GND*%
X119380000Y-113745000D03*
%TD*%
D20*
%TO.N,Net-(X1-OUT)*%
%TO.C,R4*%
X108585000Y-113665000D03*
D21*
%TO.N,Net-(U11-SCIN)*%
X108585000Y-121285000D03*
%TD*%
D20*
%TO.N,Net-(J2-Pin_8)*%
%TO.C,R5*%
X111125000Y-113665000D03*
D21*
%TO.N,Net-(U11-SYNCIN)*%
X111125000Y-121285000D03*
%TD*%
D10*
%TO.N,GND*%
%TO.C,U5*%
X201930000Y-121920000D03*
D11*
%TO.N,/~{#RD}*%
X201930000Y-124460000D03*
%TO.N,/~{#WR}*%
X201930000Y-127000000D03*
%TO.N,/#CLK_CPU*%
X201930000Y-129540000D03*
%TO.N,/~{#IOREQ}*%
X201930000Y-132080000D03*
%TO.N,unconnected-(U5-A4-Pad6)*%
X201930000Y-134620000D03*
%TO.N,unconnected-(U5-A5-Pad7)*%
X201930000Y-137160000D03*
%TO.N,/~{#M1}*%
X201930000Y-139700000D03*
%TO.N,/~{#RESET}*%
X201930000Y-142240000D03*
%TO.N,GND*%
X201930000Y-144780000D03*
%TO.N,/~{RESET}*%
X209550000Y-144780000D03*
%TO.N,/~{M1}*%
X209550000Y-142240000D03*
%TO.N,GND*%
X209550000Y-139700000D03*
X209550000Y-137160000D03*
%TO.N,/~{IOREQ}*%
X209550000Y-134620000D03*
%TO.N,/CLK_CPU*%
X209550000Y-132080000D03*
%TO.N,/~{WR}*%
X209550000Y-129540000D03*
%TO.N,/~{RD}*%
X209550000Y-127000000D03*
%TO.N,GND*%
X209550000Y-124460000D03*
%TO.N,+5V*%
X209550000Y-121920000D03*
%TD*%
D14*
%TO.N,Net-(C17-Pad1)*%
%TO.C,C17*%
X87542380Y-130810000D03*
D19*
%TO.N,Net-(C17-Pad2)*%
X85042380Y-130810000D03*
%TD*%
D24*
%TO.N,GND*%
%TO.C,J3*%
X71975000Y-58293000D03*
X71975000Y-147447000D03*
D34*
X220980000Y-63500000D03*
D35*
X220980000Y-66040000D03*
X220980000Y-68580000D03*
X220980000Y-71120000D03*
%TO.N,/MEMAQ*%
X220980000Y-73660000D03*
%TO.N,/~{INT3}*%
X220980000Y-76200000D03*
%TO.N,/A0*%
X220980000Y-78740000D03*
%TO.N,/A1*%
X220980000Y-81280000D03*
%TO.N,/A2*%
X220980000Y-83820000D03*
%TO.N,/A3*%
X220980000Y-86360000D03*
%TO.N,/A4*%
X220980000Y-88900000D03*
%TO.N,/A5*%
X220980000Y-91440000D03*
%TO.N,/A6*%
X220980000Y-93980000D03*
%TO.N,/A7*%
X220980000Y-96520000D03*
%TO.N,/A8*%
X220980000Y-99060000D03*
%TO.N,/A9*%
X220980000Y-101600000D03*
%TO.N,/A10*%
X220980000Y-104140000D03*
%TO.N,/A11*%
X220980000Y-106680000D03*
%TO.N,/A12*%
X220980000Y-109220000D03*
%TO.N,/A13*%
X220980000Y-111760000D03*
%TO.N,/A14*%
X220980000Y-114300000D03*
%TO.N,/A15*%
X220980000Y-116840000D03*
%TO.N,/~{BUSREQ}*%
X220980000Y-119380000D03*
%TO.N,/~{BUSACK}*%
X220980000Y-121920000D03*
%TO.N,/A16*%
X220980000Y-124460000D03*
%TO.N,/A17*%
X220980000Y-127000000D03*
%TO.N,/A18*%
X220980000Y-129540000D03*
%TO.N,/A19*%
X220980000Y-132080000D03*
%TO.N,/A20*%
X220980000Y-134620000D03*
%TO.N,/A21*%
X220980000Y-137160000D03*
%TO.N,/A22{slash}SCL*%
X220980000Y-139700000D03*
%TO.N,/A23{slash}SDA*%
X220980000Y-142240000D03*
%TO.N,+5V*%
X218440000Y-63500000D03*
X218440000Y-66040000D03*
X218440000Y-68580000D03*
%TO.N,/~{INT0}*%
X218440000Y-71120000D03*
%TO.N,/~{INT1}*%
X218440000Y-73660000D03*
%TO.N,/~{INT2}*%
X218440000Y-76200000D03*
%TO.N,/D0*%
X218440000Y-78740000D03*
%TO.N,/D1*%
X218440000Y-81280000D03*
%TO.N,/D2*%
X218440000Y-83820000D03*
%TO.N,/D3*%
X218440000Y-86360000D03*
%TO.N,/D4*%
X218440000Y-88900000D03*
%TO.N,/D5*%
X218440000Y-91440000D03*
%TO.N,/D6*%
X218440000Y-93980000D03*
%TO.N,/D7*%
X218440000Y-96520000D03*
%TO.N,/~{RESET}*%
X218440000Y-99060000D03*
%TO.N,/CLK_CPU*%
X218440000Y-101600000D03*
%TO.N,/~{INT}*%
X218440000Y-104140000D03*
%TO.N,/~{NMI}*%
X218440000Y-106680000D03*
%TO.N,/~{M1}*%
X218440000Y-109220000D03*
%TO.N,/~{WAIT}*%
X218440000Y-111760000D03*
%TO.N,/~{HALT}*%
X218440000Y-114300000D03*
%TO.N,/~{RD}*%
X218440000Y-116840000D03*
%TO.N,/~{WR}*%
X218440000Y-119380000D03*
%TO.N,/~{MREQ}*%
X218440000Y-121920000D03*
%TO.N,/~{IOREQ}*%
X218440000Y-124460000D03*
%TO.N,Net-(J3-IEI)*%
X218440000Y-127000000D03*
X218440000Y-129540000D03*
%TO.N,+12V*%
X218440000Y-132080000D03*
%TO.N,-12V*%
X218440000Y-134620000D03*
%TO.N,unconnected-(J3-SPARE-Padb30)*%
X218440000Y-137160000D03*
%TO.N,unconnected-(J3-SPARE-Padb31)*%
X218440000Y-139700000D03*
%TO.N,GND*%
X218440000Y-142240000D03*
%TD*%
D12*
%TO.N,/RGB_B*%
%TO.C,J2*%
X106680000Y-142875000D03*
D13*
%TO.N,Net-(J2-Pin_2)*%
X104140000Y-142875000D03*
%TO.N,/RGB_R*%
X106680000Y-140335000D03*
%TO.N,Net-(J2-Pin_4)*%
X104140000Y-140335000D03*
%TO.N,/RGB_G*%
X106680000Y-137795000D03*
%TO.N,Net-(J2-Pin_6)*%
X104140000Y-137795000D03*
%TO.N,/CSYNC*%
X106680000Y-135255000D03*
%TO.N,Net-(J2-Pin_8)*%
X104140000Y-135255000D03*
%TO.N,/HSYNC*%
X106680000Y-132715000D03*
%TO.N,unconnected-(J2-Pin_10-Pad10)*%
X104140000Y-132715000D03*
%TO.N,+5VA*%
X106680000Y-130175000D03*
%TO.N,GNDA*%
X104140000Y-130175000D03*
%TD*%
D24*
%TO.N,GND*%
%TO.C,*%
X97790000Y-58420000D03*
%TD*%
D19*
%TO.N,+5V*%
%TO.C,C26*%
X137795000Y-114300000D03*
%TO.N,GND*%
X142795000Y-114300000D03*
%TD*%
%TO.N,+5V*%
%TO.C,C23*%
X151765000Y-114300000D03*
%TO.N,GND*%
X156765000Y-114300000D03*
%TD*%
D14*
%TO.N,unconnected-(X1-NC-Pad1)*%
%TO.C,X1*%
X130175000Y-98425000D03*
D19*
%TO.N,GNDA*%
X114935000Y-98425000D03*
%TO.N,Net-(X1-OUT)*%
X114935000Y-106045000D03*
%TO.N,+5VA*%
X130175000Y-106045000D03*
%TD*%
%TO.N,Net-(J2-Pin_2)*%
%TO.C,C8*%
X100330000Y-133985000D03*
%TO.N,Net-(U11-BIN)*%
X100330000Y-128985000D03*
%TD*%
D20*
%TO.N,Net-(U11-ROUT)*%
%TO.C,R6*%
X90678000Y-106045000D03*
D21*
%TO.N,Net-(C18-Pad1)*%
X90678000Y-98425000D03*
%TD*%
D19*
%TO.N,+5V*%
%TO.C,C30*%
X209550000Y-58166000D03*
%TO.N,GND*%
X204550000Y-58166000D03*
%TD*%
%TO.N,+5V*%
%TO.C,C4*%
X128350000Y-123825000D03*
%TO.N,GND*%
X133350000Y-123825000D03*
%TD*%
D16*
%TO.N,/VO_COM*%
%TO.C,J6*%
X74810000Y-71120000D03*
D17*
%TO.N,GNDA*%
X76010000Y-65720000D03*
D18*
X67310000Y-71120000D03*
D17*
X76010000Y-76520000D03*
%TD*%
D19*
%TO.N,+5V*%
%TO.C,C33*%
X163750000Y-149225000D03*
%TO.N,GND*%
X158750000Y-149225000D03*
%TD*%
D14*
%TO.N,GND*%
%TO.C,U14*%
X137795000Y-60960000D03*
D15*
%TO.N,/RD0*%
X137795000Y-63500000D03*
%TO.N,/RD1*%
X137795000Y-66040000D03*
%TO.N,/R{slash}W*%
X137795000Y-68580000D03*
%TO.N,/{slash}CASX*%
X137795000Y-71120000D03*
%TO.N,/AD6*%
X137795000Y-73660000D03*
%TO.N,/AD5*%
X137795000Y-76200000D03*
%TO.N,/AD4*%
X137795000Y-78740000D03*
%TO.N,+5V*%
X137795000Y-81280000D03*
%TO.N,/AD7*%
X145415000Y-81280000D03*
%TO.N,/AD3*%
X145415000Y-78740000D03*
%TO.N,/AD2*%
X145415000Y-76200000D03*
%TO.N,/AD1*%
X145415000Y-73660000D03*
%TO.N,/AD0*%
X145415000Y-71120000D03*
%TO.N,/RD2*%
X145415000Y-68580000D03*
%TO.N,/{slash}RAS*%
X145415000Y-66040000D03*
%TO.N,/RD3*%
X145415000Y-63500000D03*
%TO.N,GND*%
X145415000Y-60960000D03*
%TD*%
D12*
%TO.N,/~{INT0}*%
%TO.C,J1*%
X181610000Y-68580000D03*
D13*
%TO.N,/~{IRQ_OUT}*%
X179070000Y-68580000D03*
%TO.N,/~{INT1}*%
X181610000Y-66040000D03*
%TO.N,/~{IRQ_OUT}*%
X179070000Y-66040000D03*
%TO.N,/~{INT2}*%
X181610000Y-63500000D03*
%TO.N,/~{IRQ_OUT}*%
X179070000Y-63500000D03*
%TO.N,/~{INT3}*%
X181610000Y-60960000D03*
%TO.N,/~{IRQ_OUT}*%
X179070000Y-60960000D03*
%TD*%
D19*
%TO.N,+5VA*%
%TO.C,C7*%
X130135000Y-110490000D03*
%TO.N,GNDA*%
X125135000Y-110490000D03*
%TD*%
D12*
%TO.N,+5V*%
%TO.C,JP1*%
X196850000Y-119375000D03*
D13*
%TO.N,Net-(JP1-Pin_2)*%
X196850000Y-121915000D03*
%TO.N,+5V*%
X194310000Y-119375000D03*
%TO.N,Net-(JP1-Pin_4)*%
X194310000Y-121915000D03*
%TO.N,+5V*%
X191770000Y-119375000D03*
%TO.N,Net-(JP1-Pin_6)*%
X191770000Y-121915000D03*
%TO.N,+5V*%
X189230000Y-119375000D03*
%TO.N,Net-(JP1-Pin_8)*%
X189230000Y-121915000D03*
%TO.N,+5V*%
X186690000Y-119375000D03*
%TO.N,Net-(JP1-Pin_10)*%
X186690000Y-121915000D03*
%TO.N,+5V*%
X184150000Y-119375000D03*
%TO.N,Net-(JP1-Pin_12)*%
X184150000Y-121915000D03*
%TD*%
D14*
%TO.N,Net-(C21-Pad1)*%
%TO.C,C21*%
X86995000Y-83820000D03*
D19*
%TO.N,/VO_BLUE*%
X84495000Y-83820000D03*
%TD*%
D36*
%TO.N,+5V*%
X155575000Y-116205000D03*
X155321000Y-113792000D03*
X134874000Y-84074000D03*
%TO.N,/#D2*%
X184277000Y-69570500D03*
D37*
%TO.N,GND*%
X204550000Y-63373000D03*
%TO.N,+5VA*%
X108966000Y-132842000D03*
D36*
%TO.N,/AD0*%
X156464000Y-70133811D03*
D38*
%TO.N,GND*%
X125857000Y-67183000D03*
D36*
%TO.N,Net-(JP1-Pin_2)*%
X198230685Y-116045037D03*
X182880000Y-116078000D03*
%TO.N,/~{#IOREQ}*%
X199771000Y-123190000D03*
X181864000Y-122936000D03*
X199898000Y-132080000D03*
X186563000Y-116332000D03*
X182435500Y-117030500D03*
%TO.N,Net-(RN1-R7)*%
X184658000Y-101727000D03*
X184658000Y-109220000D03*
D38*
%TO.N,GND*%
X146573303Y-115427697D03*
X114300000Y-148590000D03*
X114300000Y-133350000D03*
X99695000Y-54610000D03*
X114300000Y-146050000D03*
X92710000Y-148590000D03*
%TO.N,+5VA*%
X151130000Y-136525000D03*
D36*
X97790000Y-108585000D03*
D38*
X105410000Y-118110000D03*
X115951000Y-136271000D03*
X115824000Y-138049000D03*
X107950000Y-124460000D03*
%TO.N,GNDA*%
X102235000Y-135255000D03*
X93980000Y-135890000D03*
X91440000Y-119380000D03*
X150495000Y-137160000D03*
X99060000Y-119380000D03*
%TO.N,+5V*%
X135509000Y-116967000D03*
D36*
%TO.N,Net-(J2-Pin_6)*%
X97790000Y-137795000D03*
%TO.N,Net-(C17-Pad1)*%
X99060000Y-100330000D03*
%TO.N,Net-(C19-Pad1)*%
X97541529Y-100831900D03*
%TO.N,Net-(C20-Pad1)*%
X88900000Y-97155000D03*
%TO.N,Net-(C21-Pad1)*%
X89535000Y-96520000D03*
%TO.N,Net-(C24-Pad1)*%
X90036900Y-95961444D03*
%TO.N,+12V*%
X219202000Y-150495000D03*
X112903000Y-131826000D03*
X113538000Y-150495000D03*
X121539000Y-102997000D03*
X175260000Y-151638000D03*
%TO.N,/~{IRQ_OUT}*%
X160147000Y-116459000D03*
X179426500Y-114808000D03*
%TO.N,/~{IOREQ}*%
X212598000Y-134620000D03*
X212638705Y-124460000D03*
%TO.N,/~{WR}*%
X213342545Y-129540000D03*
X212840645Y-119380000D03*
%TO.N,/~{RD}*%
X213342545Y-116840000D03*
X213106000Y-127000000D03*
%TO.N,/~{WAIT}*%
X214698265Y-135890000D03*
X180340000Y-135890000D03*
%TO.N,/~{M1}*%
X214376000Y-142240000D03*
%TO.N,/CLK_CPU*%
X214376000Y-132080000D03*
%TO.N,/~{RESET}*%
X213360000Y-144780000D03*
%TO.N,/D7*%
X213393660Y-83312000D03*
X211328000Y-96520000D03*
%TO.N,/D6*%
X213346312Y-82345093D03*
X211328000Y-93980000D03*
%TO.N,/D5*%
X211328000Y-91440000D03*
X213266660Y-78232000D03*
%TO.N,/D4*%
X212709560Y-76200000D03*
X211328000Y-88900000D03*
%TO.N,/D3*%
X212357640Y-73660000D03*
X211328000Y-86360000D03*
%TO.N,/D2*%
X212005720Y-71120000D03*
X211151900Y-83820000D03*
%TO.N,/D1*%
X211653800Y-68580000D03*
X211559020Y-80772000D03*
%TO.N,/D0*%
X211151900Y-78740000D03*
%TO.N,/~{INT2}*%
X216536200Y-75946000D03*
X216536200Y-64897000D03*
%TO.N,/~{INT1}*%
X216183800Y-73660000D03*
X216074511Y-65357239D03*
%TO.N,/A7*%
X216735420Y-95504000D03*
X212090000Y-114300000D03*
%TO.N,/A6*%
X216383500Y-93052283D03*
X212090000Y-111760000D03*
%TO.N,/A5*%
X216031580Y-90424000D03*
X212090000Y-109220000D03*
%TO.N,/A4*%
X211328000Y-106680000D03*
X215679660Y-87630000D03*
%TO.N,/A3*%
X211328000Y-104140000D03*
X215327740Y-85100284D03*
%TO.N,/A2*%
X211328000Y-101600000D03*
X214975820Y-83058000D03*
%TO.N,/A1*%
X213106000Y-99060000D03*
X214623900Y-80264000D03*
%TO.N,/A0*%
X213106000Y-96012000D03*
X213868000Y-77470000D03*
%TO.N,/~{INT3}*%
X217038100Y-59690000D03*
X216916000Y-76968100D03*
%TO.N,/RGB_B*%
X110617000Y-139573000D03*
X151765000Y-139573000D03*
%TO.N,/RGB_R*%
X151765000Y-140335000D03*
%TO.N,/RGB_G*%
X109982000Y-141097000D03*
X151765000Y-141097000D03*
%TO.N,Net-(J2-Pin_4)*%
X95250000Y-139700000D03*
%TO.N,Net-(JP1-Pin_4)*%
X195834000Y-112776000D03*
X189230000Y-105664000D03*
X189230000Y-111760000D03*
%TO.N,Net-(JP1-Pin_6)*%
X196342000Y-110998000D03*
X196342000Y-102591180D03*
X191889260Y-111760000D03*
%TO.N,Net-(JP1-Pin_8)*%
X191889260Y-100051180D03*
X190277257Y-109950743D03*
X192241180Y-106680000D03*
%TO.N,Net-(JP1-Pin_10)*%
X191739280Y-96012000D03*
X197104000Y-101600000D03*
X196342000Y-117348000D03*
X192241180Y-101600000D03*
X186690000Y-117856000D03*
%TO.N,Net-(JP1-Pin_12)*%
X197605900Y-116231103D03*
X192241180Y-96520000D03*
X192241180Y-93726000D03*
X197358000Y-96520000D03*
X183896000Y-117602000D03*
%TO.N,Net-(X1-OUT)*%
X110490000Y-106045000D03*
%TO.N,Net-(U11-SCIN)*%
X97790000Y-120015000D03*
%TO.N,Net-(U11-SYNCIN)*%
X102870000Y-120015000D03*
%TO.N,/#A3*%
X189230000Y-100584000D03*
X188728820Y-109220000D03*
%TO.N,/#A4*%
X192241180Y-114305000D03*
X189961080Y-103093080D03*
%TO.N,/#A5*%
X191267000Y-109225000D03*
X190276920Y-105633080D03*
%TO.N,/#A6*%
X191001900Y-104140000D03*
X190754000Y-108204000D03*
%TO.N,/#A7*%
X195834000Y-99060000D03*
X196342000Y-111760000D03*
%TO.N,BUSDIR*%
X199771000Y-65913000D03*
%TO.N,/#D0*%
X174625000Y-115570000D03*
X174498000Y-63500000D03*
X160971180Y-116840000D03*
%TO.N,/#D1*%
X174879000Y-116205000D03*
X200279000Y-69571180D03*
X175262562Y-71342891D03*
X162560000Y-117341900D03*
%TO.N,/#D2*%
X175895000Y-71501000D03*
X183642000Y-70993000D03*
X174920017Y-117058321D03*
X165383100Y-118618000D03*
%TO.N,/#D3*%
X175417805Y-117631627D03*
X165862000Y-118045740D03*
X176563910Y-72111180D03*
%TO.N,/#D4*%
X175938254Y-118151642D03*
X176055660Y-72771000D03*
X166386900Y-118547391D03*
%TO.N,/#D5*%
X170561000Y-119380000D03*
X176612195Y-117848922D03*
X176407580Y-76962000D03*
%TO.N,/#D6*%
X176763298Y-77758820D03*
X171196000Y-119126000D03*
X176110497Y-119246900D03*
%TO.N,/#D7*%
X176911000Y-146050000D03*
X177111420Y-80391000D03*
%TO.N,/#A0*%
X167640000Y-144272000D03*
X178181000Y-144229989D03*
X177543085Y-92710000D03*
%TO.N,/#A1*%
X178054000Y-144907000D03*
X165862000Y-144780000D03*
X177463340Y-95123000D03*
%TO.N,/#A2*%
X188976000Y-98425000D03*
X188728820Y-104394000D03*
%TO.N,/~{#RD}*%
X200279000Y-117475000D03*
X206248000Y-74549000D03*
X206241900Y-90170000D03*
X205105000Y-117348000D03*
X204216000Y-90297000D03*
%TO.N,/~{#WR}*%
X205105000Y-67183000D03*
X204724000Y-127000000D03*
X199390000Y-67031180D03*
X198967703Y-65065297D03*
%TO.N,/~{#RESET}*%
X132334000Y-144526000D03*
%TO.N,/~{VDP_WR}*%
X178555900Y-71758780D03*
X184785000Y-68580000D03*
X170180000Y-142240000D03*
X179074580Y-142113000D03*
X184493603Y-70701603D03*
%TO.N,/~{VDP_RD}*%
X171196000Y-142874269D03*
X179197000Y-70402080D03*
X183603254Y-69559951D03*
X178722660Y-142823063D03*
X184023000Y-64897000D03*
%TO.N,/RD0*%
X154467911Y-64486189D03*
%TO.N,/RD1*%
X154213911Y-67026189D03*
%TO.N,/R{slash}W*%
X130302000Y-125442383D03*
X148906740Y-69566189D03*
X139348811Y-100203000D03*
X148566346Y-100071975D03*
X137378820Y-125095000D03*
%TO.N,/{slash}CAS0*%
X161925000Y-101600000D03*
X161163000Y-128397000D03*
X123190000Y-128524000D03*
%TO.N,/AD6*%
X135417180Y-103505000D03*
%TO.N,/AD5*%
X136271000Y-106680000D03*
X136241189Y-76581000D03*
%TO.N,/AD4*%
X135769100Y-79035100D03*
X142805429Y-110297697D03*
X135763000Y-109220000D03*
%TO.N,/AD7*%
X132461000Y-126111000D03*
X134259272Y-125812359D03*
X147008686Y-110799597D03*
X147068811Y-80391000D03*
X135671180Y-110683477D03*
%TO.N,/AD3*%
X147510586Y-108259597D03*
X147068811Y-77753811D03*
X143157349Y-109220000D03*
%TO.N,/AD2*%
X143509269Y-106553000D03*
X147157089Y-75213811D03*
X147862506Y-105719597D03*
%TO.N,/AD1*%
X148214426Y-103113875D03*
X147068811Y-72771000D03*
X143861189Y-104267000D03*
%TO.N,/RD2*%
X153670731Y-67593811D03*
%TO.N,/{slash}RAS*%
X122428000Y-125603000D03*
X147068811Y-65151000D03*
X135203557Y-124408557D03*
X148566346Y-95559597D03*
X135417180Y-96520000D03*
%TO.N,/RD3*%
X153197911Y-62448089D03*
%TO.N,/RD4*%
X153318811Y-94991975D03*
%TO.N,/RD5*%
X150652964Y-97531975D03*
%TO.N,/RD6*%
X149980900Y-98099597D03*
%TO.N,/RD7*%
X149270186Y-92985756D03*
%TO.N,/{slash}CAS1*%
X124968000Y-128397000D03*
X150241000Y-128270000D03*
%TO.N,/{slash}CASX*%
X136398000Y-127895100D03*
X126746000Y-128178180D03*
%TO.N,/~{#WAIT}*%
X162433000Y-143226189D03*
X188858253Y-130692253D03*
X188343811Y-143226189D03*
%TO.N,/CSYNC*%
X110998000Y-138938000D03*
X126492000Y-139065000D03*
%TO.N,Net-(RN1-R8)*%
X184721180Y-111760000D03*
X184658000Y-96520000D03*
%TO.N,Net-(U2-P=R)*%
X185801000Y-78110740D03*
X194183000Y-78110740D03*
X196589900Y-78110740D03*
X196335900Y-93980000D03*
%TO.N,/HSYNC*%
X111608596Y-141598900D03*
X124841000Y-141598900D03*
%TD*%
M02*
