M48
; DRILL file {KiCad 7.0.9-7.0.9~ubuntu22.04.1} date Mi 27 Dez 2023 15:34:39 CET
; FORMAT={-:-/ absolute / inch / decimal}
; #@! TF.CreationDate,2023-12-27T15:34:39+01:00
; #@! TF.GenerationSoftware,Kicad,Pcbnew,7.0.9-7.0.9~ubuntu22.04.1
; #@! TF.FileFunction,Plated,1,4,PTH
FMAT,2
INCH
; #@! TA.AperFunction,Plated,PTH,ViaDrill
T1C0.0118
; #@! TA.AperFunction,Plated,PTH,ViaDrill
T2C0.0157
; #@! TA.AperFunction,Plated,PTH,ComponentDrill
T3C0.0236
; #@! TA.AperFunction,Plated,PTH,ComponentDrill
T4C0.0276
; #@! TA.AperFunction,Plated,PTH,ComponentDrill
T5C0.0315
; #@! TA.AperFunction,Plated,PTH,ComponentDrill
T6C0.0394
; #@! TA.AperFunction,Plated,PTH,ComponentDrill
T7C0.0433
; #@! TA.AperFunction,Plated,PTH,ComponentDrill
T8C0.0472
; #@! TA.AperFunction,Plated,PTH,ComponentDrill
T9C0.0591
; #@! TA.AperFunction,Plated,PTH,ComponentDrill
T10C0.0787
; #@! TA.AperFunction,Plated,PTH,ComponentDrill
T11C0.1260
%
G90
G05
T1
X3.5Y-3.825
X3.525Y-3.8
X3.5448Y-3.778
X3.75Y-5.5
X3.8402Y-3.9698
X3.85Y-4.275
X3.85Y-4.725
X3.85Y-5.425
X3.9Y-3.95
X4.05Y-4.725
X4.29Y-5.23
X4.33Y-5.555
X4.35Y-4.175
X4.355Y-5.495
X4.37Y-5.47
X4.394Y-5.5748
X4.445Y-5.19
X4.47Y-5.925
X4.785Y-4.055
X4.82Y-4.945
X4.85Y-5.06
X4.915Y-5.5748
X4.92Y-5.055
X4.98Y-5.475
X4.99Y-5.0464
X5.13Y-4.9387
X5.21Y-5.69
X5.215Y-4.965
X5.2858Y-4.9532
X5.31Y-3.31
X5.323Y-4.898
X5.3314Y-3.8
X5.3314Y-4.075
X5.3414Y-4.3576
X5.345Y-4.3
X5.3452Y-3.1116
X5.3638Y-3.015
X5.365Y-4.2
X5.37Y-5.0352
X5.4086Y-4.925
X5.4862Y-3.945
X5.6223Y-4.3424
X5.6361Y-4.3
X5.65Y-4.195
X5.6638Y-4.105
X5.7877Y-4.3622
X5.7901Y-2.565
X5.7901Y-2.865
X5.7901Y-3.0612
X5.7901Y-3.165
X5.7936Y-2.9612
X5.8075Y-4.2622
X5.8214Y-4.1622
X5.8352Y-4.0596
X5.8491Y-3.7622
X5.8491Y-3.9398
X5.8625Y-2.7388
X5.8768Y-3.6609
X5.9048Y-3.8622
X5.915Y-5.05
X5.9312Y-3.8398
X5.975Y-5.495
X5.975Y-5.525
X5.975Y-5.555
X6.0314Y-2.4586
X6.0362Y-3.7398
X6.05Y-2.6612
X6.0714Y-2.6388
X6.0814Y-2.5388
X6.115Y-4.48
X6.125Y-4.575
X6.16Y-2.7612
X6.305Y-4.585
X6.3374Y-4.6
X6.345Y-5.055
X6.375Y-4.0
X6.395Y-5.6388
X6.4Y-4.6198
X6.5111Y-4.67
X6.53Y-4.6475
X6.53Y-5.7
X6.5507Y-4.6672
X6.6Y-5.68
X6.7Y-5.6
X6.715Y-4.7
X6.74Y-4.69
X6.74Y-5.625
X6.87Y-2.5
X6.875Y-4.55
X6.885Y-4.575
X6.8866Y-4.6086
X6.9Y-5.97
X6.9001Y-2.8088
X6.9062Y-4.6312
X6.925Y-2.815
X6.9267Y-4.6516
X6.9313Y-2.865
X6.9335Y-4.6948
X6.9452Y-3.03
X6.9513Y-2.839
X6.9532Y-4.6397
X6.9592Y-3.0614
X6.965Y-5.75
X6.9729Y-3.165
X6.9867Y-3.745
X6.9899Y-3.65
X7.01Y-5.705
X7.015Y-5.6783
X7.0298Y-2.8251
X7.0363Y-5.623
X7.0502Y-5.595
X7.055Y-2.7717
X7.064Y-4.52
X7.1Y-5.35
X7.16Y-4.84
X7.1825Y-4.6075
X7.2Y-4.57
X7.2285Y-2.7386
X7.23Y-2.795
X7.24Y-4.63
X7.245Y-2.555
X7.255Y-2.739
X7.2635Y-2.7835
X7.27Y-3.8
X7.27Y-4.005
X7.27Y-4.3
X7.2725Y-4.4
X7.275Y-2.7
X7.315Y-3.0752
X7.345Y-4.58
X7.35Y-4.64
X7.4151Y-5.6388
X7.4303Y-4.11
X7.4303Y-4.3
X7.4354Y-5.1454
X7.44Y-3.875
X7.45Y-3.96
X7.45Y-4.16
X7.45Y-4.4
X7.4788Y-4.0588
X7.4912Y-4.1588
X7.4912Y-4.3288
X7.51Y-4.26
X7.5198Y-4.1
X7.5302Y-4.3002
X7.5488Y-3.78
X7.5547Y-3.939
X7.5547Y-4.4
X7.5686Y-3.69
X7.5686Y-3.8
X7.5686Y-4.0
X7.5686Y-4.2
X7.5686Y-4.5002
X7.645Y-3.0752
X7.71Y-3.9
X7.71Y-4.44
X7.7298Y-3.7
X7.73Y-4.039
X7.73Y-4.37
X7.73Y-4.4
X7.73Y-4.62
X7.7398Y-3.0752
X7.76Y-4.0
X7.77Y-3.8
X7.7798Y-4.576
X7.8044Y-4.5687
X7.8334Y-2.5616
X7.85Y-2.639
X7.865Y-2.595
X7.865Y-4.85
X7.87Y-5.2
X7.885Y-2.739
X7.885Y-4.625
X8.04Y-3.555
X8.0531Y-2.495
X8.06Y-5.0
X8.075Y-2.645
X8.075Y-4.62
X8.1198Y-3.55
X8.12Y-2.935
X8.3131Y-3.1
X8.3131Y-3.3
X8.32Y-3.4
X8.32Y-3.5
X8.32Y-3.6
X8.32Y-3.7
X8.32Y-3.8
X8.32Y-4.0
X8.32Y-4.1
X8.32Y-4.2
X8.3291Y-3.18
X8.3328Y-2.7
X8.3467Y-2.8
X8.35Y-4.3
X8.35Y-4.4
X8.35Y-4.5
X8.3605Y-2.9
X8.37Y-5.3
X8.3716Y-4.9
X8.3744Y-3.0
X8.3796Y-4.7
X8.39Y-3.78
X8.39Y-3.9
X8.39Y-5.0
X8.3963Y-3.08
X8.3993Y-4.6
X8.3993Y-5.1
X8.3995Y-3.2419
X8.4Y-5.7
X8.4013Y-3.28
X8.42Y-3.05
X8.44Y-5.2
X8.44Y-5.6
X8.4498Y-3.16
X8.4527Y-5.35
X8.4636Y-3.27
X8.4775Y-3.3504
X8.4913Y-3.45
X8.5052Y-3.56
X8.5069Y-2.5731
X8.5112Y-2.9
X8.519Y-3.6635
X8.525Y-2.555
X8.525Y-2.99
X8.5329Y-3.76
X8.54Y-3.0302
X8.5448Y-2.35
X8.63Y-5.925
T2
X3.6Y-4.7
X3.65Y-5.85
X3.7Y-5.35
X3.9Y-4.7
X3.925Y-2.15
X4.025Y-5.325
X4.15Y-4.65
X4.25Y-4.9
X4.5Y-5.25
X4.5Y-5.75
X4.5Y-5.85
X4.56Y-5.435
X4.565Y-5.365
X4.955Y-2.645
X5.335Y-4.605
X5.7706Y-4.5444
X5.925Y-5.4
X5.95Y-5.375
T4
X3.57Y-3.875
X3.57Y-4.175
X3.67Y-3.875
X3.67Y-4.175
X3.7Y-5.425
X3.7Y-5.525
X3.7Y-5.625
X3.77Y-3.875
X3.77Y-4.175
X3.87Y-3.875
X3.87Y-4.175
X3.97Y-3.875
X3.97Y-4.175
X4.0Y-5.425
X4.0Y-5.525
X4.0Y-5.625
X4.07Y-3.875
X4.07Y-4.175
X4.17Y-3.875
X4.17Y-4.175
X4.27Y-3.875
X4.27Y-4.175
X4.275Y-4.475
X4.275Y-4.775
X4.375Y-4.475
X4.375Y-4.775
X4.6388Y-4.999
X4.6388Y-5.751
X4.7089Y-4.999
X4.7089Y-5.751
X4.7789Y-4.999
X4.7789Y-5.751
X4.849Y-4.999
X4.849Y-5.751
X4.9191Y-4.999
X4.9191Y-5.751
X4.9892Y-4.999
X4.9892Y-5.751
X5.0593Y-4.999
X5.0593Y-5.751
X5.1293Y-4.999
X5.1293Y-5.751
X5.1994Y-4.999
X5.1994Y-5.751
X5.2695Y-4.999
X5.2695Y-5.751
X5.3396Y-4.999
X5.3396Y-5.751
X5.4096Y-4.999
X5.4096Y-5.751
X5.4797Y-4.999
X5.4797Y-5.751
X5.5498Y-4.999
X5.5498Y-5.751
X5.6199Y-4.999
X5.6199Y-5.751
X5.69Y-4.999
X5.69Y-5.751
X5.76Y-4.999
X5.76Y-5.751
X5.8301Y-4.999
X5.8301Y-5.751
X5.9002Y-4.999
X5.9002Y-5.751
X5.9703Y-4.999
X5.9703Y-5.751
X6.0404Y-4.999
X6.0404Y-5.751
X6.1104Y-4.999
X6.1104Y-5.751
X6.1805Y-4.999
X6.1805Y-5.751
X6.2506Y-4.999
X6.2506Y-5.751
X6.3207Y-4.999
X6.3207Y-5.751
X6.3907Y-4.999
X6.3907Y-5.751
X6.4608Y-4.999
X6.4608Y-5.751
X6.5309Y-4.999
X6.5309Y-5.751
X6.601Y-4.999
X6.601Y-5.751
X6.6711Y-4.999
X6.6711Y-5.751
X6.7411Y-4.999
X6.7411Y-5.751
X6.8112Y-4.999
X6.8112Y-5.751
T5
X3.3266Y-3.02
X3.3266Y-3.3
X3.3266Y-3.58
X3.3266Y-3.86
X3.3481Y-5.15
X3.3481Y-5.425
X3.35Y-4.2766
X3.35Y-4.375
X3.35Y-4.7016
X3.35Y-4.8
X3.425Y-3.02
X3.425Y-3.3
X3.425Y-3.58
X3.425Y-3.86
X3.4466Y-5.15
X3.4466Y-5.425
X3.575Y-4.275
X3.7Y-5.0781
X3.7Y-5.275
X3.7719Y-4.275
X3.825Y-5.0781
X3.825Y-5.275
X3.9016Y-4.9
X3.95Y-5.0781
X3.95Y-5.275
X4.0984Y-4.9
X4.4516Y-3.4
X4.525Y-3.875
X4.525Y-4.175
X4.575Y-4.4781
X4.575Y-4.675
X4.6484Y-3.4
X4.6516Y-5.875
X4.7Y-4.4781
X4.7Y-4.675
X4.8484Y-5.875
X4.9266Y-4.35
X5.0Y-3.4723
X5.0Y-3.6101
X5.0531Y-4.875
X5.1234Y-4.35
X5.125Y-3.875
X5.125Y-4.175
X5.25Y-4.875
X5.425Y-2.4
X5.425Y-2.5
X5.425Y-2.6
X5.425Y-2.7
X5.425Y-2.8
X5.425Y-2.9
X5.425Y-3.0
X5.425Y-3.1
X5.425Y-3.2
X5.425Y-3.3
X5.425Y-3.6
X5.425Y-3.7
X5.425Y-3.8
X5.425Y-3.9
X5.425Y-4.0
X5.425Y-4.1
X5.425Y-4.2
X5.425Y-4.3
X5.425Y-4.4
X5.425Y-4.5
X5.6219Y-3.3
X5.6219Y-4.5
X5.725Y-2.4
X5.725Y-2.5
X5.725Y-2.6
X5.725Y-2.7
X5.725Y-2.8
X5.725Y-2.9
X5.725Y-3.0
X5.725Y-3.1
X5.725Y-3.2
X5.725Y-3.6
X5.725Y-3.7
X5.725Y-3.8
X5.725Y-3.9
X5.725Y-4.0
X5.725Y-4.1
X5.725Y-4.2
X5.725Y-4.3
X5.725Y-4.4
X5.975Y-2.4
X5.975Y-2.5
X5.975Y-2.6
X5.975Y-2.7
X5.975Y-2.8
X5.975Y-2.9
X5.975Y-3.0
X5.975Y-3.1
X5.975Y-3.2
X5.975Y-3.3
X5.975Y-3.6
X5.975Y-3.7
X5.975Y-3.8
X5.975Y-3.9
X5.975Y-4.0
X5.975Y-4.1
X5.975Y-4.2
X5.975Y-4.3
X5.975Y-4.4
X5.975Y-4.5
X6.1719Y-3.3
X6.1719Y-4.5
X6.25Y-5.875
X6.275Y-2.4
X6.275Y-2.5
X6.275Y-2.6
X6.275Y-2.7
X6.275Y-2.8
X6.275Y-2.9
X6.275Y-3.0
X6.275Y-3.1
X6.275Y-3.2
X6.275Y-3.6
X6.275Y-3.7
X6.275Y-3.8
X6.275Y-3.9
X6.275Y-4.0
X6.275Y-4.1
X6.275Y-4.2
X6.275Y-4.3
X6.275Y-4.4
X6.4469Y-5.875
X6.5Y-2.4
X6.5Y-2.5
X6.5Y-2.6
X6.5Y-2.7
X6.5Y-2.8
X6.5Y-2.9
X6.5Y-3.0
X6.5Y-3.1
X6.5Y-3.2
X6.5Y-3.3
X6.5Y-3.6
X6.5Y-3.7
X6.5Y-3.8
X6.5Y-3.9
X6.5Y-4.0
X6.5Y-4.1
X6.5Y-4.2
X6.5Y-4.3
X6.5Y-4.4
X6.5Y-4.5
X6.6969Y-3.3
X6.6969Y-4.5
X6.8Y-2.4
X6.8Y-2.5
X6.8Y-2.6
X6.8Y-2.7
X6.8Y-2.8
X6.8Y-2.9
X6.8Y-3.0
X6.8Y-3.1
X6.8Y-3.2
X6.8Y-3.6
X6.8Y-3.7
X6.8Y-3.8
X6.8Y-3.9
X6.8Y-4.0
X6.8Y-4.1
X6.8Y-4.2
X6.8Y-4.3
X6.8Y-4.4
X7.2Y-3.6
X7.2Y-3.7
X7.2Y-3.8
X7.2Y-3.9
X7.2Y-4.0
X7.2Y-4.1
X7.2Y-4.2
X7.2Y-4.3
X7.2Y-4.4
X7.3494Y-3.6002
X7.3494Y-3.7002
X7.3494Y-3.8002
X7.3494Y-3.9002
X7.3494Y-4.0002
X7.3494Y-4.1002
X7.3494Y-4.2002
X7.3494Y-4.3002
X7.3494Y-4.4002
X7.3494Y-4.5002
X7.35Y-2.4
X7.35Y-2.5
X7.35Y-2.6
X7.35Y-2.7
X7.35Y-2.8
X7.35Y-2.9
X7.35Y-3.0
X7.35Y-5.1
X7.35Y-5.2
X7.35Y-5.3
X7.35Y-5.4
X7.35Y-5.5
X7.35Y-5.6
X7.35Y-5.7
X7.4531Y-2.29
X7.4531Y-3.49
X7.4531Y-4.99
X7.6494Y-3.6002
X7.6494Y-3.7002
X7.6494Y-3.8002
X7.6494Y-3.9002
X7.6494Y-4.0002
X7.6494Y-4.1002
X7.6494Y-4.2002
X7.6494Y-4.3002
X7.6494Y-4.4002
X7.6494Y-4.5002
X7.65Y-2.29
X7.65Y-2.4
X7.65Y-2.5
X7.65Y-2.6
X7.65Y-2.7
X7.65Y-2.8
X7.65Y-2.9
X7.65Y-3.0
X7.65Y-3.49
X7.65Y-4.99
X7.65Y-5.1
X7.65Y-5.2
X7.65Y-5.3
X7.65Y-5.4
X7.65Y-5.5
X7.65Y-5.6
X7.65Y-5.7
X7.9494Y-3.6
X7.9494Y-3.7
X7.9494Y-3.8
X7.9494Y-3.9
X7.9494Y-4.0
X7.9494Y-4.1
X7.9494Y-4.2
X7.9494Y-4.3
X7.9494Y-4.4
X7.9494Y-4.5
X7.95Y-2.4
X7.95Y-2.5
X7.95Y-2.6
X7.95Y-2.7
X7.95Y-2.8
X7.95Y-2.9
X7.95Y-3.0
X7.95Y-3.1
X7.95Y-3.2
X7.95Y-3.3
X7.95Y-4.8
X7.95Y-4.9
X7.95Y-5.0
X7.95Y-5.1
X7.95Y-5.2
X7.95Y-5.3
X7.95Y-5.4
X7.95Y-5.5
X7.95Y-5.6
X7.95Y-5.7
X8.0531Y-2.29
X8.0531Y-3.49
X8.0531Y-4.69
X8.2494Y-3.6
X8.2494Y-3.7
X8.2494Y-3.8
X8.2494Y-3.9
X8.2494Y-4.0
X8.2494Y-4.1
X8.2494Y-4.2
X8.2494Y-4.3
X8.2494Y-4.4
X8.2494Y-4.5
X8.25Y-2.29
X8.25Y-2.4
X8.25Y-2.5
X8.25Y-2.6
X8.25Y-2.7
X8.25Y-2.8
X8.25Y-2.9
X8.25Y-3.0
X8.25Y-3.1
X8.25Y-3.2
X8.25Y-3.3
X8.25Y-3.49
X8.25Y-4.69
X8.25Y-4.8
X8.25Y-4.9
X8.25Y-5.0
X8.25Y-5.1
X8.25Y-5.2
X8.25Y-5.3
X8.25Y-5.4
X8.25Y-5.5
X8.25Y-5.6
X8.25Y-5.7
T6
X4.1Y-5.125
X4.1Y-5.225
X4.1Y-5.325
X4.1Y-5.425
X4.1Y-5.525
X4.1Y-5.625
X4.2Y-5.125
X4.2Y-5.225
X4.2Y-5.325
X4.2Y-5.425
X4.2Y-5.525
X4.2Y-5.625
X4.4502Y-2.45
X4.5502Y-2.45
X7.05Y-2.4
X7.05Y-2.5
X7.05Y-2.6
X7.05Y-2.7
X7.1Y-5.3
X7.15Y-2.4
X7.15Y-2.5
X7.15Y-2.6
X7.15Y-2.7
X7.2Y-5.3
X7.25Y-4.6998
X7.25Y-4.7998
X7.35Y-4.6998
X7.35Y-4.7998
X7.45Y-4.6998
X7.45Y-4.7998
X7.55Y-4.6998
X7.55Y-4.7998
X7.65Y-4.6998
X7.65Y-4.7998
X7.75Y-4.6998
X7.75Y-4.7998
X8.6Y-2.5
X8.6Y-2.6
X8.6Y-2.7
X8.6Y-2.8
X8.6Y-2.9
X8.6Y-3.0
X8.6Y-3.1
X8.6Y-3.2
X8.6Y-3.3
X8.6Y-3.4
X8.6Y-3.5
X8.6Y-3.6
X8.6Y-3.7
X8.6Y-3.8
X8.6Y-3.9
X8.6Y-4.0
X8.6Y-4.1
X8.6Y-4.2
X8.6Y-4.3
X8.6Y-4.4
X8.6Y-4.5
X8.6Y-4.6
X8.6Y-4.7
X8.6Y-4.8
X8.6Y-4.9
X8.6Y-5.0
X8.6Y-5.1
X8.6Y-5.2
X8.6Y-5.3
X8.6Y-5.4
X8.6Y-5.5
X8.6Y-5.6
X8.7Y-2.5
X8.7Y-2.6
X8.7Y-2.7
X8.7Y-2.8
X8.7Y-2.9
X8.7Y-3.0
X8.7Y-3.1
X8.7Y-3.2
X8.7Y-3.3
X8.7Y-3.4
X8.7Y-3.5
X8.7Y-3.6
X8.7Y-3.7
X8.7Y-3.8
X8.7Y-3.9
X8.7Y-4.0
X8.7Y-4.1
X8.7Y-4.2
X8.7Y-4.3
X8.7Y-4.4
X8.7Y-4.5
X8.7Y-4.6
X8.7Y-4.7
X8.7Y-4.8
X8.7Y-4.9
X8.7Y-5.0
X8.7Y-5.1
X8.7Y-5.2
X8.7Y-5.3
X8.7Y-5.4
X8.7Y-5.5
X8.7Y-5.6
T7
X4.9Y-3.275
X5.0Y-3.275
X5.1Y-3.275
T8
X3.975Y-2.575
X3.975Y-3.5986
X4.425Y-2.675
X4.425Y-3.275
X4.62Y-2.675
X4.62Y-3.275
T9
X4.5821Y-4.85
X4.775Y-4.85
T10
X5.0Y-2.4616
T11
X2.8337Y-2.295
X2.8337Y-5.805
X3.85Y-2.3
X3.85Y-5.81
T3
G00X2.65Y-2.7764
M15
G01X2.65Y-2.8236
M16
G05
G00X2.65Y-3.4014
M15
G01X2.65Y-3.4486
M16
G05
G00X2.65Y-4.0264
M15
G01X2.65Y-4.0736
M16
G05
G00X2.65Y-4.6514
M15
G01X2.65Y-4.6986
M16
G05
G00X2.9453Y-2.785
M15
G01X2.9453Y-2.815
M16
G05
G00X2.9453Y-3.41
M15
G01X2.9453Y-3.44
M16
G05
G00X2.9453Y-4.035
M15
G01X2.9453Y-4.065
M16
G05
G00X2.9453Y-4.66
M15
G01X2.9453Y-4.69
M16
G05
G00X3.0161Y-2.5874
M15
G01X2.9689Y-2.5874
M16
G05
G00X3.0161Y-3.0126
M15
G01X2.9689Y-3.0126
M16
G05
G00X3.0161Y-3.2124
M15
G01X2.9689Y-3.2124
M16
G05
G00X3.0161Y-3.6376
M15
G01X2.9689Y-3.6376
M16
G05
G00X3.0161Y-3.8374
M15
G01X2.9689Y-3.8374
M16
G05
G00X3.0161Y-4.2626
M15
G01X2.9689Y-4.2626
M16
G05
G00X3.0161Y-4.4624
M15
G01X2.9689Y-4.4624
M16
G05
G00X3.0161Y-4.8876
M15
G01X2.9689Y-4.8876
M16
G05
T6
G00X2.7852Y-5.3295
M15
G01X2.7852Y-5.2705
M16
G05
G00X2.9346Y-5.1656
M15
G01X2.9346Y-5.1656
M16
G05
G00X2.9346Y-5.4333
M15
G01X2.9346Y-5.4333
M16
G05
G00X3.0331Y-5.1656
M15
G01X3.0331Y-5.1656
M16
G05
G00X3.0331Y-5.4333
M15
G01X3.0331Y-5.4333
M16
G05
T8
G00X2.7969Y-5.0238
M15
G01X2.8362Y-5.0238
M16
G05
G00X2.7969Y-5.575
M15
G01X2.8362Y-5.575
M16
G05
T0
M30
