%TF.GenerationSoftware,KiCad,Pcbnew,7.0.9-7.0.9~ubuntu22.04.1*%
%TF.CreationDate,2023-12-27T15:34:40+01:00*%
%TF.ProjectId,Z80-VDP,5a38302d-5644-4502-9e6b-696361645f70,rev?*%
%TF.SameCoordinates,Original*%
%TF.FileFunction,Drillmap*%
%TF.FilePolarity,Positive*%
%FSLAX45Y45*%
G04 Gerber Fmt 4.5, Leading zero omitted, Abs format (unit mm)*
G04 Created by KiCad (PCBNEW 7.0.9-7.0.9~ubuntu22.04.1) date 2023-12-27 15:34:40*
%MOMM*%
%LPD*%
G01*
G04 APERTURE LIST*
%ADD10C,0.200000*%
%ADD11C,0.285000*%
G04 APERTURE END LIST*
D10*
D11*
X22209500Y-5699500D02*
X22494500Y-5984500D01*
X22494500Y-5699500D02*
X22209500Y-5984500D01*
X22209500Y-14589500D02*
X22494500Y-14874500D01*
X22494500Y-14589500D02*
X22209500Y-14874500D01*
D10*
X6881777Y-15619984D02*
X6881777Y-15419984D01*
X6881777Y-15419984D02*
X6929396Y-15419984D01*
X6929396Y-15419984D02*
X6957967Y-15429508D01*
X6957967Y-15429508D02*
X6977015Y-15448555D01*
X6977015Y-15448555D02*
X6986539Y-15467603D01*
X6986539Y-15467603D02*
X6996062Y-15505698D01*
X6996062Y-15505698D02*
X6996062Y-15534269D01*
X6996062Y-15534269D02*
X6986539Y-15572365D01*
X6986539Y-15572365D02*
X6977015Y-15591412D01*
X6977015Y-15591412D02*
X6957967Y-15610460D01*
X6957967Y-15610460D02*
X6929396Y-15619984D01*
X6929396Y-15619984D02*
X6881777Y-15619984D01*
X7081777Y-15619984D02*
X7081777Y-15486650D01*
X7081777Y-15524746D02*
X7091301Y-15505698D01*
X7091301Y-15505698D02*
X7100824Y-15496174D01*
X7100824Y-15496174D02*
X7119872Y-15486650D01*
X7119872Y-15486650D02*
X7138920Y-15486650D01*
X7205586Y-15619984D02*
X7205586Y-15486650D01*
X7205586Y-15419984D02*
X7196062Y-15429508D01*
X7196062Y-15429508D02*
X7205586Y-15439031D01*
X7205586Y-15439031D02*
X7215110Y-15429508D01*
X7215110Y-15429508D02*
X7205586Y-15419984D01*
X7205586Y-15419984D02*
X7205586Y-15439031D01*
X7329396Y-15619984D02*
X7310348Y-15610460D01*
X7310348Y-15610460D02*
X7300824Y-15591412D01*
X7300824Y-15591412D02*
X7300824Y-15419984D01*
X7434158Y-15619984D02*
X7415110Y-15610460D01*
X7415110Y-15610460D02*
X7405586Y-15591412D01*
X7405586Y-15591412D02*
X7405586Y-15419984D01*
X7662729Y-15619984D02*
X7662729Y-15419984D01*
X7662729Y-15419984D02*
X7729396Y-15562841D01*
X7729396Y-15562841D02*
X7796062Y-15419984D01*
X7796062Y-15419984D02*
X7796062Y-15619984D01*
X7977015Y-15619984D02*
X7977015Y-15515222D01*
X7977015Y-15515222D02*
X7967491Y-15496174D01*
X7967491Y-15496174D02*
X7948443Y-15486650D01*
X7948443Y-15486650D02*
X7910348Y-15486650D01*
X7910348Y-15486650D02*
X7891301Y-15496174D01*
X7977015Y-15610460D02*
X7957967Y-15619984D01*
X7957967Y-15619984D02*
X7910348Y-15619984D01*
X7910348Y-15619984D02*
X7891301Y-15610460D01*
X7891301Y-15610460D02*
X7881777Y-15591412D01*
X7881777Y-15591412D02*
X7881777Y-15572365D01*
X7881777Y-15572365D02*
X7891301Y-15553317D01*
X7891301Y-15553317D02*
X7910348Y-15543793D01*
X7910348Y-15543793D02*
X7957967Y-15543793D01*
X7957967Y-15543793D02*
X7977015Y-15534269D01*
X8072253Y-15486650D02*
X8072253Y-15686650D01*
X8072253Y-15496174D02*
X8091301Y-15486650D01*
X8091301Y-15486650D02*
X8129396Y-15486650D01*
X8129396Y-15486650D02*
X8148443Y-15496174D01*
X8148443Y-15496174D02*
X8157967Y-15505698D01*
X8157967Y-15505698D02*
X8167491Y-15524746D01*
X8167491Y-15524746D02*
X8167491Y-15581888D01*
X8167491Y-15581888D02*
X8157967Y-15600936D01*
X8157967Y-15600936D02*
X8148443Y-15610460D01*
X8148443Y-15610460D02*
X8129396Y-15619984D01*
X8129396Y-15619984D02*
X8091301Y-15619984D01*
X8091301Y-15619984D02*
X8072253Y-15610460D01*
X8253205Y-15600936D02*
X8262729Y-15610460D01*
X8262729Y-15610460D02*
X8253205Y-15619984D01*
X8253205Y-15619984D02*
X8243682Y-15610460D01*
X8243682Y-15610460D02*
X8253205Y-15600936D01*
X8253205Y-15600936D02*
X8253205Y-15619984D01*
X8253205Y-15496174D02*
X8262729Y-15505698D01*
X8262729Y-15505698D02*
X8253205Y-15515222D01*
X8253205Y-15515222D02*
X8243682Y-15505698D01*
X8243682Y-15505698D02*
X8253205Y-15496174D01*
X8253205Y-15496174D02*
X8253205Y-15515222D01*
X6421000Y-15848500D02*
X6621000Y-16048500D01*
X6621000Y-15848500D02*
X6421000Y-16048500D01*
X6872253Y-15859031D02*
X6881777Y-15849508D01*
X6881777Y-15849508D02*
X6900824Y-15839984D01*
X6900824Y-15839984D02*
X6948443Y-15839984D01*
X6948443Y-15839984D02*
X6967491Y-15849508D01*
X6967491Y-15849508D02*
X6977015Y-15859031D01*
X6977015Y-15859031D02*
X6986539Y-15878079D01*
X6986539Y-15878079D02*
X6986539Y-15897127D01*
X6986539Y-15897127D02*
X6977015Y-15925698D01*
X6977015Y-15925698D02*
X6862729Y-16039984D01*
X6862729Y-16039984D02*
X6986539Y-16039984D01*
X7072253Y-16020936D02*
X7081777Y-16030460D01*
X7081777Y-16030460D02*
X7072253Y-16039984D01*
X7072253Y-16039984D02*
X7062729Y-16030460D01*
X7062729Y-16030460D02*
X7072253Y-16020936D01*
X7072253Y-16020936D02*
X7072253Y-16039984D01*
X7196062Y-15925698D02*
X7177015Y-15916174D01*
X7177015Y-15916174D02*
X7167491Y-15906650D01*
X7167491Y-15906650D02*
X7157967Y-15887603D01*
X7157967Y-15887603D02*
X7157967Y-15878079D01*
X7157967Y-15878079D02*
X7167491Y-15859031D01*
X7167491Y-15859031D02*
X7177015Y-15849508D01*
X7177015Y-15849508D02*
X7196062Y-15839984D01*
X7196062Y-15839984D02*
X7234158Y-15839984D01*
X7234158Y-15839984D02*
X7253205Y-15849508D01*
X7253205Y-15849508D02*
X7262729Y-15859031D01*
X7262729Y-15859031D02*
X7272253Y-15878079D01*
X7272253Y-15878079D02*
X7272253Y-15887603D01*
X7272253Y-15887603D02*
X7262729Y-15906650D01*
X7262729Y-15906650D02*
X7253205Y-15916174D01*
X7253205Y-15916174D02*
X7234158Y-15925698D01*
X7234158Y-15925698D02*
X7196062Y-15925698D01*
X7196062Y-15925698D02*
X7177015Y-15935222D01*
X7177015Y-15935222D02*
X7167491Y-15944746D01*
X7167491Y-15944746D02*
X7157967Y-15963793D01*
X7157967Y-15963793D02*
X7157967Y-16001888D01*
X7157967Y-16001888D02*
X7167491Y-16020936D01*
X7167491Y-16020936D02*
X7177015Y-16030460D01*
X7177015Y-16030460D02*
X7196062Y-16039984D01*
X7196062Y-16039984D02*
X7234158Y-16039984D01*
X7234158Y-16039984D02*
X7253205Y-16030460D01*
X7253205Y-16030460D02*
X7262729Y-16020936D01*
X7262729Y-16020936D02*
X7272253Y-16001888D01*
X7272253Y-16001888D02*
X7272253Y-15963793D01*
X7272253Y-15963793D02*
X7262729Y-15944746D01*
X7262729Y-15944746D02*
X7253205Y-15935222D01*
X7253205Y-15935222D02*
X7234158Y-15925698D01*
X7453205Y-15839984D02*
X7357967Y-15839984D01*
X7357967Y-15839984D02*
X7348443Y-15935222D01*
X7348443Y-15935222D02*
X7357967Y-15925698D01*
X7357967Y-15925698D02*
X7377015Y-15916174D01*
X7377015Y-15916174D02*
X7424634Y-15916174D01*
X7424634Y-15916174D02*
X7443682Y-15925698D01*
X7443682Y-15925698D02*
X7453205Y-15935222D01*
X7453205Y-15935222D02*
X7462729Y-15954269D01*
X7462729Y-15954269D02*
X7462729Y-16001888D01*
X7462729Y-16001888D02*
X7453205Y-16020936D01*
X7453205Y-16020936D02*
X7443682Y-16030460D01*
X7443682Y-16030460D02*
X7424634Y-16039984D01*
X7424634Y-16039984D02*
X7377015Y-16039984D01*
X7377015Y-16039984D02*
X7357967Y-16030460D01*
X7357967Y-16030460D02*
X7348443Y-16020936D01*
X7586539Y-15839984D02*
X7605586Y-15839984D01*
X7605586Y-15839984D02*
X7624634Y-15849508D01*
X7624634Y-15849508D02*
X7634158Y-15859031D01*
X7634158Y-15859031D02*
X7643682Y-15878079D01*
X7643682Y-15878079D02*
X7653205Y-15916174D01*
X7653205Y-15916174D02*
X7653205Y-15963793D01*
X7653205Y-15963793D02*
X7643682Y-16001888D01*
X7643682Y-16001888D02*
X7634158Y-16020936D01*
X7634158Y-16020936D02*
X7624634Y-16030460D01*
X7624634Y-16030460D02*
X7605586Y-16039984D01*
X7605586Y-16039984D02*
X7586539Y-16039984D01*
X7586539Y-16039984D02*
X7567491Y-16030460D01*
X7567491Y-16030460D02*
X7557967Y-16020936D01*
X7557967Y-16020936D02*
X7548443Y-16001888D01*
X7548443Y-16001888D02*
X7538920Y-15963793D01*
X7538920Y-15963793D02*
X7538920Y-15916174D01*
X7538920Y-15916174D02*
X7548443Y-15878079D01*
X7548443Y-15878079D02*
X7557967Y-15859031D01*
X7557967Y-15859031D02*
X7567491Y-15849508D01*
X7567491Y-15849508D02*
X7586539Y-15839984D01*
X7738920Y-16039984D02*
X7738920Y-15906650D01*
X7738920Y-15925698D02*
X7748443Y-15916174D01*
X7748443Y-15916174D02*
X7767491Y-15906650D01*
X7767491Y-15906650D02*
X7796063Y-15906650D01*
X7796063Y-15906650D02*
X7815110Y-15916174D01*
X7815110Y-15916174D02*
X7824634Y-15935222D01*
X7824634Y-15935222D02*
X7824634Y-16039984D01*
X7824634Y-15935222D02*
X7834158Y-15916174D01*
X7834158Y-15916174D02*
X7853205Y-15906650D01*
X7853205Y-15906650D02*
X7881777Y-15906650D01*
X7881777Y-15906650D02*
X7900824Y-15916174D01*
X7900824Y-15916174D02*
X7910348Y-15935222D01*
X7910348Y-15935222D02*
X7910348Y-16039984D01*
X8005586Y-16039984D02*
X8005586Y-15906650D01*
X8005586Y-15925698D02*
X8015110Y-15916174D01*
X8015110Y-15916174D02*
X8034158Y-15906650D01*
X8034158Y-15906650D02*
X8062729Y-15906650D01*
X8062729Y-15906650D02*
X8081777Y-15916174D01*
X8081777Y-15916174D02*
X8091301Y-15935222D01*
X8091301Y-15935222D02*
X8091301Y-16039984D01*
X8091301Y-15935222D02*
X8100824Y-15916174D01*
X8100824Y-15916174D02*
X8119872Y-15906650D01*
X8119872Y-15906650D02*
X8148443Y-15906650D01*
X8148443Y-15906650D02*
X8167491Y-15916174D01*
X8167491Y-15916174D02*
X8177015Y-15935222D01*
X8177015Y-15935222D02*
X8177015Y-16039984D01*
X8567491Y-15830460D02*
X8396063Y-16087603D01*
X8824634Y-15839984D02*
X8843682Y-15839984D01*
X8843682Y-15839984D02*
X8862729Y-15849508D01*
X8862729Y-15849508D02*
X8872253Y-15859031D01*
X8872253Y-15859031D02*
X8881777Y-15878079D01*
X8881777Y-15878079D02*
X8891301Y-15916174D01*
X8891301Y-15916174D02*
X8891301Y-15963793D01*
X8891301Y-15963793D02*
X8881777Y-16001888D01*
X8881777Y-16001888D02*
X8872253Y-16020936D01*
X8872253Y-16020936D02*
X8862729Y-16030460D01*
X8862729Y-16030460D02*
X8843682Y-16039984D01*
X8843682Y-16039984D02*
X8824634Y-16039984D01*
X8824634Y-16039984D02*
X8805587Y-16030460D01*
X8805587Y-16030460D02*
X8796063Y-16020936D01*
X8796063Y-16020936D02*
X8786539Y-16001888D01*
X8786539Y-16001888D02*
X8777015Y-15963793D01*
X8777015Y-15963793D02*
X8777015Y-15916174D01*
X8777015Y-15916174D02*
X8786539Y-15878079D01*
X8786539Y-15878079D02*
X8796063Y-15859031D01*
X8796063Y-15859031D02*
X8805587Y-15849508D01*
X8805587Y-15849508D02*
X8824634Y-15839984D01*
X8977015Y-16020936D02*
X8986539Y-16030460D01*
X8986539Y-16030460D02*
X8977015Y-16039984D01*
X8977015Y-16039984D02*
X8967491Y-16030460D01*
X8967491Y-16030460D02*
X8977015Y-16020936D01*
X8977015Y-16020936D02*
X8977015Y-16039984D01*
X9177015Y-16039984D02*
X9062729Y-16039984D01*
X9119872Y-16039984D02*
X9119872Y-15839984D01*
X9119872Y-15839984D02*
X9100825Y-15868555D01*
X9100825Y-15868555D02*
X9081777Y-15887603D01*
X9081777Y-15887603D02*
X9062729Y-15897127D01*
X9367491Y-16039984D02*
X9253206Y-16039984D01*
X9310348Y-16039984D02*
X9310348Y-15839984D01*
X9310348Y-15839984D02*
X9291301Y-15868555D01*
X9291301Y-15868555D02*
X9272253Y-15887603D01*
X9272253Y-15887603D02*
X9253206Y-15897127D01*
X9443682Y-15859031D02*
X9453206Y-15849508D01*
X9453206Y-15849508D02*
X9472253Y-15839984D01*
X9472253Y-15839984D02*
X9519872Y-15839984D01*
X9519872Y-15839984D02*
X9538920Y-15849508D01*
X9538920Y-15849508D02*
X9548444Y-15859031D01*
X9548444Y-15859031D02*
X9557968Y-15878079D01*
X9557968Y-15878079D02*
X9557968Y-15897127D01*
X9557968Y-15897127D02*
X9548444Y-15925698D01*
X9548444Y-15925698D02*
X9434158Y-16039984D01*
X9434158Y-16039984D02*
X9557968Y-16039984D01*
X9634158Y-15859031D02*
X9643682Y-15849508D01*
X9643682Y-15849508D02*
X9662729Y-15839984D01*
X9662729Y-15839984D02*
X9710349Y-15839984D01*
X9710349Y-15839984D02*
X9729396Y-15849508D01*
X9729396Y-15849508D02*
X9738920Y-15859031D01*
X9738920Y-15859031D02*
X9748444Y-15878079D01*
X9748444Y-15878079D02*
X9748444Y-15897127D01*
X9748444Y-15897127D02*
X9738920Y-15925698D01*
X9738920Y-15925698D02*
X9624634Y-16039984D01*
X9624634Y-16039984D02*
X9748444Y-16039984D01*
X9824634Y-15839984D02*
X9824634Y-15878079D01*
X9900825Y-15839984D02*
X9900825Y-15878079D01*
X10196063Y-16116174D02*
X10186539Y-16106650D01*
X10186539Y-16106650D02*
X10167491Y-16078079D01*
X10167491Y-16078079D02*
X10157968Y-16059031D01*
X10157968Y-16059031D02*
X10148444Y-16030460D01*
X10148444Y-16030460D02*
X10138920Y-15982841D01*
X10138920Y-15982841D02*
X10138920Y-15944746D01*
X10138920Y-15944746D02*
X10148444Y-15897127D01*
X10148444Y-15897127D02*
X10157968Y-15868555D01*
X10157968Y-15868555D02*
X10167491Y-15849508D01*
X10167491Y-15849508D02*
X10186539Y-15820936D01*
X10186539Y-15820936D02*
X10196063Y-15811412D01*
X10262730Y-15859031D02*
X10272253Y-15849508D01*
X10272253Y-15849508D02*
X10291301Y-15839984D01*
X10291301Y-15839984D02*
X10338920Y-15839984D01*
X10338920Y-15839984D02*
X10357968Y-15849508D01*
X10357968Y-15849508D02*
X10367491Y-15859031D01*
X10367491Y-15859031D02*
X10377015Y-15878079D01*
X10377015Y-15878079D02*
X10377015Y-15897127D01*
X10377015Y-15897127D02*
X10367491Y-15925698D01*
X10367491Y-15925698D02*
X10253206Y-16039984D01*
X10253206Y-16039984D02*
X10377015Y-16039984D01*
X10615111Y-16039984D02*
X10615111Y-15839984D01*
X10700825Y-16039984D02*
X10700825Y-15935222D01*
X10700825Y-15935222D02*
X10691301Y-15916174D01*
X10691301Y-15916174D02*
X10672253Y-15906650D01*
X10672253Y-15906650D02*
X10643682Y-15906650D01*
X10643682Y-15906650D02*
X10624634Y-15916174D01*
X10624634Y-15916174D02*
X10615111Y-15925698D01*
X10824634Y-16039984D02*
X10805587Y-16030460D01*
X10805587Y-16030460D02*
X10796063Y-16020936D01*
X10796063Y-16020936D02*
X10786539Y-16001888D01*
X10786539Y-16001888D02*
X10786539Y-15944746D01*
X10786539Y-15944746D02*
X10796063Y-15925698D01*
X10796063Y-15925698D02*
X10805587Y-15916174D01*
X10805587Y-15916174D02*
X10824634Y-15906650D01*
X10824634Y-15906650D02*
X10853206Y-15906650D01*
X10853206Y-15906650D02*
X10872253Y-15916174D01*
X10872253Y-15916174D02*
X10881777Y-15925698D01*
X10881777Y-15925698D02*
X10891301Y-15944746D01*
X10891301Y-15944746D02*
X10891301Y-16001888D01*
X10891301Y-16001888D02*
X10881777Y-16020936D01*
X10881777Y-16020936D02*
X10872253Y-16030460D01*
X10872253Y-16030460D02*
X10853206Y-16039984D01*
X10853206Y-16039984D02*
X10824634Y-16039984D01*
X11005587Y-16039984D02*
X10986539Y-16030460D01*
X10986539Y-16030460D02*
X10977015Y-16011412D01*
X10977015Y-16011412D02*
X10977015Y-15839984D01*
X11157968Y-16030460D02*
X11138920Y-16039984D01*
X11138920Y-16039984D02*
X11100825Y-16039984D01*
X11100825Y-16039984D02*
X11081777Y-16030460D01*
X11081777Y-16030460D02*
X11072253Y-16011412D01*
X11072253Y-16011412D02*
X11072253Y-15935222D01*
X11072253Y-15935222D02*
X11081777Y-15916174D01*
X11081777Y-15916174D02*
X11100825Y-15906650D01*
X11100825Y-15906650D02*
X11138920Y-15906650D01*
X11138920Y-15906650D02*
X11157968Y-15916174D01*
X11157968Y-15916174D02*
X11167492Y-15935222D01*
X11167492Y-15935222D02*
X11167492Y-15954269D01*
X11167492Y-15954269D02*
X11072253Y-15973317D01*
X11243682Y-16030460D02*
X11262730Y-16039984D01*
X11262730Y-16039984D02*
X11300825Y-16039984D01*
X11300825Y-16039984D02*
X11319872Y-16030460D01*
X11319872Y-16030460D02*
X11329396Y-16011412D01*
X11329396Y-16011412D02*
X11329396Y-16001888D01*
X11329396Y-16001888D02*
X11319872Y-15982841D01*
X11319872Y-15982841D02*
X11300825Y-15973317D01*
X11300825Y-15973317D02*
X11272253Y-15973317D01*
X11272253Y-15973317D02*
X11253206Y-15963793D01*
X11253206Y-15963793D02*
X11243682Y-15944746D01*
X11243682Y-15944746D02*
X11243682Y-15935222D01*
X11243682Y-15935222D02*
X11253206Y-15916174D01*
X11253206Y-15916174D02*
X11272253Y-15906650D01*
X11272253Y-15906650D02*
X11300825Y-15906650D01*
X11300825Y-15906650D02*
X11319872Y-15916174D01*
X11396063Y-16116174D02*
X11405587Y-16106650D01*
X11405587Y-16106650D02*
X11424634Y-16078079D01*
X11424634Y-16078079D02*
X11434158Y-16059031D01*
X11434158Y-16059031D02*
X11443682Y-16030460D01*
X11443682Y-16030460D02*
X11453206Y-15982841D01*
X11453206Y-15982841D02*
X11453206Y-15944746D01*
X11453206Y-15944746D02*
X11443682Y-15897127D01*
X11443682Y-15897127D02*
X11434158Y-15868555D01*
X11434158Y-15868555D02*
X11424634Y-15849508D01*
X11424634Y-15849508D02*
X11405587Y-15820936D01*
X11405587Y-15820936D02*
X11396063Y-15811412D01*
X11757968Y-16116174D02*
X11748444Y-16106650D01*
X11748444Y-16106650D02*
X11729396Y-16078079D01*
X11729396Y-16078079D02*
X11719872Y-16059031D01*
X11719872Y-16059031D02*
X11710349Y-16030460D01*
X11710349Y-16030460D02*
X11700825Y-15982841D01*
X11700825Y-15982841D02*
X11700825Y-15944746D01*
X11700825Y-15944746D02*
X11710349Y-15897127D01*
X11710349Y-15897127D02*
X11719872Y-15868555D01*
X11719872Y-15868555D02*
X11729396Y-15849508D01*
X11729396Y-15849508D02*
X11748444Y-15820936D01*
X11748444Y-15820936D02*
X11757968Y-15811412D01*
X11834158Y-15906650D02*
X11834158Y-16039984D01*
X11834158Y-15925698D02*
X11843682Y-15916174D01*
X11843682Y-15916174D02*
X11862730Y-15906650D01*
X11862730Y-15906650D02*
X11891301Y-15906650D01*
X11891301Y-15906650D02*
X11910349Y-15916174D01*
X11910349Y-15916174D02*
X11919872Y-15935222D01*
X11919872Y-15935222D02*
X11919872Y-16039984D01*
X12043682Y-16039984D02*
X12024634Y-16030460D01*
X12024634Y-16030460D02*
X12015111Y-16020936D01*
X12015111Y-16020936D02*
X12005587Y-16001888D01*
X12005587Y-16001888D02*
X12005587Y-15944746D01*
X12005587Y-15944746D02*
X12015111Y-15925698D01*
X12015111Y-15925698D02*
X12024634Y-15916174D01*
X12024634Y-15916174D02*
X12043682Y-15906650D01*
X12043682Y-15906650D02*
X12072253Y-15906650D01*
X12072253Y-15906650D02*
X12091301Y-15916174D01*
X12091301Y-15916174D02*
X12100825Y-15925698D01*
X12100825Y-15925698D02*
X12110349Y-15944746D01*
X12110349Y-15944746D02*
X12110349Y-16001888D01*
X12110349Y-16001888D02*
X12100825Y-16020936D01*
X12100825Y-16020936D02*
X12091301Y-16030460D01*
X12091301Y-16030460D02*
X12072253Y-16039984D01*
X12072253Y-16039984D02*
X12043682Y-16039984D01*
X12167492Y-15906650D02*
X12243682Y-15906650D01*
X12196063Y-15839984D02*
X12196063Y-16011412D01*
X12196063Y-16011412D02*
X12205587Y-16030460D01*
X12205587Y-16030460D02*
X12224634Y-16039984D01*
X12224634Y-16039984D02*
X12243682Y-16039984D01*
X12462730Y-15906650D02*
X12462730Y-16106650D01*
X12462730Y-15916174D02*
X12481777Y-15906650D01*
X12481777Y-15906650D02*
X12519873Y-15906650D01*
X12519873Y-15906650D02*
X12538920Y-15916174D01*
X12538920Y-15916174D02*
X12548444Y-15925698D01*
X12548444Y-15925698D02*
X12557968Y-15944746D01*
X12557968Y-15944746D02*
X12557968Y-16001888D01*
X12557968Y-16001888D02*
X12548444Y-16020936D01*
X12548444Y-16020936D02*
X12538920Y-16030460D01*
X12538920Y-16030460D02*
X12519873Y-16039984D01*
X12519873Y-16039984D02*
X12481777Y-16039984D01*
X12481777Y-16039984D02*
X12462730Y-16030460D01*
X12672253Y-16039984D02*
X12653206Y-16030460D01*
X12653206Y-16030460D02*
X12643682Y-16011412D01*
X12643682Y-16011412D02*
X12643682Y-15839984D01*
X12834158Y-16039984D02*
X12834158Y-15935222D01*
X12834158Y-15935222D02*
X12824634Y-15916174D01*
X12824634Y-15916174D02*
X12805587Y-15906650D01*
X12805587Y-15906650D02*
X12767492Y-15906650D01*
X12767492Y-15906650D02*
X12748444Y-15916174D01*
X12834158Y-16030460D02*
X12815111Y-16039984D01*
X12815111Y-16039984D02*
X12767492Y-16039984D01*
X12767492Y-16039984D02*
X12748444Y-16030460D01*
X12748444Y-16030460D02*
X12738920Y-16011412D01*
X12738920Y-16011412D02*
X12738920Y-15992365D01*
X12738920Y-15992365D02*
X12748444Y-15973317D01*
X12748444Y-15973317D02*
X12767492Y-15963793D01*
X12767492Y-15963793D02*
X12815111Y-15963793D01*
X12815111Y-15963793D02*
X12834158Y-15954269D01*
X12900825Y-15906650D02*
X12977015Y-15906650D01*
X12929396Y-15839984D02*
X12929396Y-16011412D01*
X12929396Y-16011412D02*
X12938920Y-16030460D01*
X12938920Y-16030460D02*
X12957968Y-16039984D01*
X12957968Y-16039984D02*
X12977015Y-16039984D01*
X13119873Y-16030460D02*
X13100825Y-16039984D01*
X13100825Y-16039984D02*
X13062730Y-16039984D01*
X13062730Y-16039984D02*
X13043682Y-16030460D01*
X13043682Y-16030460D02*
X13034158Y-16011412D01*
X13034158Y-16011412D02*
X13034158Y-15935222D01*
X13034158Y-15935222D02*
X13043682Y-15916174D01*
X13043682Y-15916174D02*
X13062730Y-15906650D01*
X13062730Y-15906650D02*
X13100825Y-15906650D01*
X13100825Y-15906650D02*
X13119873Y-15916174D01*
X13119873Y-15916174D02*
X13129396Y-15935222D01*
X13129396Y-15935222D02*
X13129396Y-15954269D01*
X13129396Y-15954269D02*
X13034158Y-15973317D01*
X13300825Y-16039984D02*
X13300825Y-15839984D01*
X13300825Y-16030460D02*
X13281777Y-16039984D01*
X13281777Y-16039984D02*
X13243682Y-16039984D01*
X13243682Y-16039984D02*
X13224634Y-16030460D01*
X13224634Y-16030460D02*
X13215111Y-16020936D01*
X13215111Y-16020936D02*
X13205587Y-16001888D01*
X13205587Y-16001888D02*
X13205587Y-15944746D01*
X13205587Y-15944746D02*
X13215111Y-15925698D01*
X13215111Y-15925698D02*
X13224634Y-15916174D01*
X13224634Y-15916174D02*
X13243682Y-15906650D01*
X13243682Y-15906650D02*
X13281777Y-15906650D01*
X13281777Y-15906650D02*
X13300825Y-15916174D01*
X13377015Y-16116174D02*
X13386539Y-16106650D01*
X13386539Y-16106650D02*
X13405587Y-16078079D01*
X13405587Y-16078079D02*
X13415111Y-16059031D01*
X13415111Y-16059031D02*
X13424634Y-16030460D01*
X13424634Y-16030460D02*
X13434158Y-15982841D01*
X13434158Y-15982841D02*
X13434158Y-15944746D01*
X13434158Y-15944746D02*
X13424634Y-15897127D01*
X13424634Y-15897127D02*
X13415111Y-15868555D01*
X13415111Y-15868555D02*
X13405587Y-15849508D01*
X13405587Y-15849508D02*
X13386539Y-15820936D01*
X13386539Y-15820936D02*
X13377015Y-15811412D01*
M02*
