%TF.GenerationSoftware,KiCad,Pcbnew,(6.0.4)*%
%TF.CreationDate,2022-10-24T21:32:19+02:00*%
%TF.ProjectId,Z80-MIO,5a38302d-4d49-44f2-9e6b-696361645f70,rev?*%
%TF.SameCoordinates,Original*%
%TF.FileFunction,Soldermask,Top*%
%TF.FilePolarity,Negative*%
%FSLAX46Y46*%
G04 Gerber Fmt 4.6, Leading zero omitted, Abs format (unit mm)*
G04 Created by KiCad (PCBNEW (6.0.4)) date 2022-10-24 21:32:19*
%MOMM*%
%LPD*%
G01*
G04 APERTURE LIST*
G04 Aperture macros list*
%AMRoundRect*
0 Rectangle with rounded corners*
0 $1 Rounding radius*
0 $2 $3 $4 $5 $6 $7 $8 $9 X,Y pos of 4 corners*
0 Add a 4 corners polygon primitive as box body*
4,1,4,$2,$3,$4,$5,$6,$7,$8,$9,$2,$3,0*
0 Add four circle primitives for the rounded corners*
1,1,$1+$1,$2,$3*
1,1,$1+$1,$4,$5*
1,1,$1+$1,$6,$7*
1,1,$1+$1,$8,$9*
0 Add four rect primitives between the rounded corners*
20,1,$1+$1,$2,$3,$4,$5,0*
20,1,$1+$1,$4,$5,$6,$7,0*
20,1,$1+$1,$6,$7,$8,$9,0*
20,1,$1+$1,$8,$9,$2,$3,0*%
G04 Aperture macros list end*
%ADD10R,2.170000X2.170000*%
%ADD11C,2.500000*%
%ADD12R,1.500000X1.500000*%
%ADD13O,1.500000X1.500000*%
%ADD14C,1.600000*%
%ADD15C,5.600000*%
%ADD16C,1.400000*%
%ADD17O,1.400000X1.400000*%
%ADD18R,1.600000X1.600000*%
%ADD19O,1.600000X1.600000*%
%ADD20R,2.400000X1.600000*%
%ADD21O,2.400000X1.600000*%
%ADD22R,1.050000X1.500000*%
%ADD23O,1.050000X1.500000*%
%ADD24R,1.700000X1.700000*%
%ADD25O,1.700000X1.700000*%
%ADD26RoundRect,0.550000X0.950000X-0.550000X0.950000X0.550000X-0.950000X0.550000X-0.950000X-0.550000X0*%
%ADD27R,1.850000X1.850000*%
%ADD28C,1.850000*%
%ADD29C,1.000000*%
%ADD30R,1.600000X2.400000*%
%ADD31O,1.600000X2.400000*%
%ADD32C,2.850000*%
%ADD33RoundRect,0.249999X-0.525001X0.525001X-0.525001X-0.525001X0.525001X-0.525001X0.525001X0.525001X0*%
%ADD34C,1.550000*%
%ADD35RoundRect,0.250000X0.600000X0.600000X-0.600000X0.600000X-0.600000X-0.600000X0.600000X-0.600000X0*%
%ADD36C,1.700000*%
G04 APERTURE END LIST*
D10*
%TO.C,BT1*%
X153276300Y-100330000D03*
D11*
X173276300Y-100330000D03*
%TD*%
D12*
%TO.C,D8*%
X66543000Y-109220000D03*
D13*
X74163000Y-109220000D03*
%TD*%
D14*
%TO.C,C2*%
X75078011Y-61045989D03*
X72578011Y-61045989D03*
%TD*%
%TO.C,C16*%
X170856011Y-55457989D03*
X165856011Y-55457989D03*
%TD*%
D15*
%TO.C,H2*%
X48768000Y-143002000D03*
%TD*%
D16*
%TO.C,R19*%
X105156000Y-105918000D03*
D17*
X112776000Y-105918000D03*
%TD*%
D12*
%TO.C,D4*%
X66543000Y-117348000D03*
D13*
X74163000Y-117348000D03*
%TD*%
D16*
%TO.C,R13*%
X64516000Y-111252000D03*
D17*
X56896000Y-111252000D03*
%TD*%
D18*
%TO.C,U7*%
X78156011Y-58495989D03*
D19*
X78156011Y-61035989D03*
X78156011Y-63575989D03*
X78156011Y-66115989D03*
X78156011Y-68655989D03*
X78156011Y-71195989D03*
X78156011Y-73735989D03*
X85776011Y-73735989D03*
X85776011Y-71195989D03*
X85776011Y-68655989D03*
X85776011Y-66115989D03*
X85776011Y-63575989D03*
X85776011Y-61035989D03*
X85776011Y-58495989D03*
%TD*%
D16*
%TO.C,R5*%
X64516000Y-121412000D03*
D17*
X56896000Y-121412000D03*
%TD*%
D12*
%TO.C,D10*%
X66543000Y-127508000D03*
D13*
X74163000Y-127508000D03*
%TD*%
D16*
%TO.C,R2*%
X133604000Y-113284000D03*
D17*
X141224000Y-113284000D03*
%TD*%
D16*
%TO.C,R16*%
X84074000Y-84582000D03*
D17*
X84074000Y-76962000D03*
%TD*%
D20*
%TO.C,U1*%
X163236011Y-58251989D03*
D21*
X163236011Y-60791989D03*
X163236011Y-63331989D03*
X163236011Y-65871989D03*
X163236011Y-68411989D03*
X163236011Y-70951989D03*
X163236011Y-73491989D03*
X163236011Y-76031989D03*
X163236011Y-78571989D03*
X163236011Y-81111989D03*
X170856011Y-81111989D03*
X170856011Y-78571989D03*
X170856011Y-76031989D03*
X170856011Y-73491989D03*
X170856011Y-70951989D03*
X170856011Y-68411989D03*
X170856011Y-65871989D03*
X170856011Y-63331989D03*
X170856011Y-60791989D03*
X170856011Y-58251989D03*
%TD*%
D14*
%TO.C,C4*%
X88834011Y-73745989D03*
X91334011Y-73745989D03*
%TD*%
%TO.C,C14*%
X184572011Y-55457989D03*
X179572011Y-55457989D03*
%TD*%
D16*
%TO.C,R9*%
X133518011Y-118195989D03*
D17*
X141138011Y-118195989D03*
%TD*%
D14*
%TO.C,C7*%
X170816011Y-113115989D03*
X165816011Y-113115989D03*
%TD*%
D22*
%TO.C,Q1*%
X58928000Y-83058000D03*
D23*
X60198000Y-83058000D03*
X61468000Y-83058000D03*
%TD*%
D18*
%TO.C,U6*%
X95164011Y-98637989D03*
D19*
X97704011Y-98637989D03*
X100244011Y-98637989D03*
X102784011Y-98637989D03*
X105324011Y-98637989D03*
X107864011Y-98637989D03*
X110404011Y-98637989D03*
X112944011Y-98637989D03*
X115484011Y-98637989D03*
X118024011Y-98637989D03*
X120564011Y-98637989D03*
X123104011Y-98637989D03*
X125644011Y-98637989D03*
X128184011Y-98637989D03*
X130724011Y-98637989D03*
X133264011Y-98637989D03*
X135804011Y-98637989D03*
X138344011Y-98637989D03*
X140884011Y-98637989D03*
X143424011Y-98637989D03*
X143424011Y-83397989D03*
X140884011Y-83397989D03*
X138344011Y-83397989D03*
X135804011Y-83397989D03*
X133264011Y-83397989D03*
X130724011Y-83397989D03*
X128184011Y-83397989D03*
X125644011Y-83397989D03*
X123104011Y-83397989D03*
X120564011Y-83397989D03*
X118024011Y-83397989D03*
X115484011Y-83397989D03*
X112944011Y-83397989D03*
X110404011Y-83397989D03*
X107864011Y-83397989D03*
X105324011Y-83397989D03*
X102784011Y-83397989D03*
X100244011Y-83397989D03*
X97704011Y-83397989D03*
X95164011Y-83397989D03*
%TD*%
D16*
%TO.C,R10*%
X64516000Y-109220000D03*
D17*
X56896000Y-109220000D03*
%TD*%
D16*
%TO.C,R18*%
X93980000Y-113792000D03*
D17*
X101600000Y-113792000D03*
%TD*%
D16*
%TO.C,R4*%
X64516000Y-123444000D03*
D17*
X56896000Y-123444000D03*
%TD*%
D24*
%TO.C,J1*%
X158156011Y-68660989D03*
D25*
X155616011Y-68660989D03*
X158156011Y-66120989D03*
X155616011Y-66120989D03*
X158156011Y-63580989D03*
X155616011Y-63580989D03*
X158156011Y-61040989D03*
X155616011Y-61040989D03*
X158156011Y-58500989D03*
X155616011Y-58500989D03*
%TD*%
D24*
%TO.C,J3*%
X138085011Y-122508989D03*
D25*
X140625011Y-122508989D03*
X138085011Y-125048989D03*
X140625011Y-125048989D03*
%TD*%
D16*
%TO.C,R1*%
X77216000Y-76962000D03*
D17*
X77216000Y-84582000D03*
%TD*%
D12*
%TO.C,D3*%
X66543000Y-119380000D03*
D13*
X74163000Y-119380000D03*
%TD*%
D20*
%TO.C,U11*%
X94234000Y-120904000D03*
D21*
X94234000Y-123444000D03*
X94234000Y-125984000D03*
X94234000Y-128524000D03*
X94234000Y-131064000D03*
X94234000Y-133604000D03*
X94234000Y-136144000D03*
X94234000Y-138684000D03*
X101854000Y-138684000D03*
X101854000Y-136144000D03*
X101854000Y-133604000D03*
X101854000Y-131064000D03*
X101854000Y-128524000D03*
X101854000Y-125984000D03*
X101854000Y-123444000D03*
X101854000Y-120904000D03*
%TD*%
D16*
%TO.C,R3*%
X123104011Y-100923989D03*
D17*
X123104011Y-108543989D03*
%TD*%
D14*
%TO.C,C3*%
X75078011Y-71205989D03*
X72578011Y-71205989D03*
%TD*%
D12*
%TO.C,D2*%
X66543000Y-121412000D03*
D13*
X74163000Y-121412000D03*
%TD*%
D16*
%TO.C,R6*%
X64516000Y-119380000D03*
D17*
X56896000Y-119380000D03*
%TD*%
D20*
%TO.C,U3*%
X176952011Y-87207989D03*
D21*
X176952011Y-89747989D03*
X176952011Y-92287989D03*
X176952011Y-94827989D03*
X176952011Y-97367989D03*
X176952011Y-99907989D03*
X176952011Y-102447989D03*
X176952011Y-104987989D03*
X176952011Y-107527989D03*
X176952011Y-110067989D03*
X184572011Y-110067989D03*
X184572011Y-107527989D03*
X184572011Y-104987989D03*
X184572011Y-102447989D03*
X184572011Y-99907989D03*
X184572011Y-97367989D03*
X184572011Y-94827989D03*
X184572011Y-92287989D03*
X184572011Y-89747989D03*
X184572011Y-87207989D03*
%TD*%
D12*
%TO.C,D5*%
X66543000Y-115316000D03*
D13*
X74163000Y-115316000D03*
%TD*%
D18*
%TO.C,RN1*%
X151552011Y-58236989D03*
D19*
X151552011Y-60776989D03*
X151552011Y-63316989D03*
X151552011Y-65856989D03*
X151552011Y-68396989D03*
X151552011Y-70936989D03*
X151552011Y-73476989D03*
X151552011Y-76016989D03*
X151552011Y-78556989D03*
%TD*%
D18*
%TO.C,U10*%
X135296011Y-131159989D03*
D19*
X135296011Y-133699989D03*
X135296011Y-136239989D03*
X135296011Y-138779989D03*
X142916011Y-138779989D03*
X142916011Y-136239989D03*
X142916011Y-133699989D03*
X142916011Y-131159989D03*
%TD*%
D14*
%TO.C,J6*%
X51929000Y-80229000D03*
X51929000Y-82829000D03*
X51929000Y-78129000D03*
D26*
X48929000Y-88529000D03*
X48929000Y-74529000D03*
D14*
X51929000Y-84929000D03*
X54429000Y-78129000D03*
X54429000Y-84929000D03*
%TD*%
D12*
%TO.C,D1*%
X66543000Y-123444000D03*
D13*
X74163000Y-123444000D03*
%TD*%
D16*
%TO.C,R17*%
X86106000Y-84582000D03*
D17*
X86106000Y-76962000D03*
%TD*%
D20*
%TO.C,U4*%
X176952011Y-58251989D03*
D21*
X176952011Y-60791989D03*
X176952011Y-63331989D03*
X176952011Y-65871989D03*
X176952011Y-68411989D03*
X176952011Y-70951989D03*
X176952011Y-73491989D03*
X176952011Y-76031989D03*
X176952011Y-78571989D03*
X176952011Y-81111989D03*
X184572011Y-81111989D03*
X184572011Y-78571989D03*
X184572011Y-76031989D03*
X184572011Y-73491989D03*
X184572011Y-70951989D03*
X184572011Y-68411989D03*
X184572011Y-65871989D03*
X184572011Y-63331989D03*
X184572011Y-60791989D03*
X184572011Y-58251989D03*
%TD*%
D24*
%TO.C,J9*%
X87625000Y-125994000D03*
D25*
X90165000Y-125994000D03*
X87625000Y-128534000D03*
X90165000Y-128534000D03*
X87625000Y-131074000D03*
X90165000Y-131074000D03*
X87625000Y-133614000D03*
X90165000Y-133614000D03*
%TD*%
D12*
%TO.C,D9*%
X56891000Y-127508000D03*
D13*
X64511000Y-127508000D03*
%TD*%
D27*
%TO.C,LS1*%
X57658000Y-94274000D03*
D28*
X57658000Y-99274000D03*
%TD*%
D29*
%TO.C,Y1*%
X127900011Y-131257989D03*
X130440011Y-131257989D03*
%TD*%
D30*
%TO.C,U9*%
X95164011Y-73720989D03*
D31*
X97704011Y-73720989D03*
X100244011Y-73720989D03*
X102784011Y-73720989D03*
X105324011Y-73720989D03*
X107864011Y-73720989D03*
X110404011Y-73720989D03*
X112944011Y-73720989D03*
X115484011Y-73720989D03*
X118024011Y-73720989D03*
X120564011Y-73720989D03*
X123104011Y-73720989D03*
X125644011Y-73720989D03*
X128184011Y-73720989D03*
X130724011Y-73720989D03*
X133264011Y-73720989D03*
X135804011Y-73720989D03*
X138344011Y-73720989D03*
X140884011Y-73720989D03*
X143424011Y-73720989D03*
X143424011Y-58480989D03*
X140884011Y-58480989D03*
X138344011Y-58480989D03*
X135804011Y-58480989D03*
X133264011Y-58480989D03*
X130724011Y-58480989D03*
X128184011Y-58480989D03*
X125644011Y-58480989D03*
X123104011Y-58480989D03*
X120564011Y-58480989D03*
X118024011Y-58480989D03*
X115484011Y-58480989D03*
X112944011Y-58480989D03*
X110404011Y-58480989D03*
X107864011Y-58480989D03*
X105324011Y-58480989D03*
X102784011Y-58480989D03*
X100244011Y-58480989D03*
X97704011Y-58480989D03*
X95164011Y-58480989D03*
%TD*%
D15*
%TO.C,H1*%
X48768000Y-53848000D03*
%TD*%
D14*
%TO.C,C5*%
X112990000Y-107950000D03*
X107990000Y-107950000D03*
%TD*%
D20*
%TO.C,U5*%
X176952011Y-115904989D03*
D21*
X176952011Y-118444989D03*
X176952011Y-120984989D03*
X176952011Y-123524989D03*
X176952011Y-126064989D03*
X176952011Y-128604989D03*
X176952011Y-131144989D03*
X176952011Y-133684989D03*
X176952011Y-136224989D03*
X176952011Y-138764989D03*
X184572011Y-138764989D03*
X184572011Y-136224989D03*
X184572011Y-133684989D03*
X184572011Y-131144989D03*
X184572011Y-128604989D03*
X184572011Y-126064989D03*
X184572011Y-123524989D03*
X184572011Y-120984989D03*
X184572011Y-118444989D03*
X184572011Y-115904989D03*
%TD*%
D12*
%TO.C,D7*%
X66543000Y-111252000D03*
D13*
X74163000Y-111252000D03*
%TD*%
D32*
%TO.C,J2*%
X200406000Y-143002000D03*
X200406000Y-54102000D03*
D33*
X197866000Y-59182000D03*
D34*
X197866000Y-61722000D03*
X197866000Y-64262000D03*
X197866000Y-66802000D03*
X197866000Y-69342000D03*
X197866000Y-71882000D03*
X197866000Y-74422000D03*
X197866000Y-76962000D03*
X197866000Y-79502000D03*
X197866000Y-82042000D03*
X197866000Y-84582000D03*
X197866000Y-87122000D03*
X197866000Y-89662000D03*
X197866000Y-92202000D03*
X197866000Y-94742000D03*
X197866000Y-97282000D03*
X197866000Y-99822000D03*
X197866000Y-102362000D03*
X197866000Y-104902000D03*
X197866000Y-107442000D03*
X197866000Y-109982000D03*
X197866000Y-112522000D03*
X197866000Y-115062000D03*
X197866000Y-117602000D03*
X197866000Y-120142000D03*
X197866000Y-122682000D03*
X197866000Y-125222000D03*
X197866000Y-127762000D03*
X197866000Y-130302000D03*
X197866000Y-132842000D03*
X197866000Y-135382000D03*
X197866000Y-137922000D03*
X195326000Y-59182000D03*
X195326000Y-61722000D03*
X195326000Y-64262000D03*
X195326000Y-66802000D03*
X195326000Y-69342000D03*
X195326000Y-71882000D03*
X195326000Y-74422000D03*
X195326000Y-76962000D03*
X195326000Y-79502000D03*
X195326000Y-82042000D03*
X195326000Y-84582000D03*
X195326000Y-87122000D03*
X195326000Y-89662000D03*
X195326000Y-92202000D03*
X195326000Y-94742000D03*
X195326000Y-97282000D03*
X195326000Y-99822000D03*
X195326000Y-102362000D03*
X195326000Y-104902000D03*
X195326000Y-107442000D03*
X195326000Y-109982000D03*
X195326000Y-112522000D03*
X195326000Y-115062000D03*
X195326000Y-117602000D03*
X195326000Y-120142000D03*
X195326000Y-122682000D03*
X195326000Y-125222000D03*
X195326000Y-127762000D03*
X195326000Y-130302000D03*
X195326000Y-132842000D03*
X195326000Y-135382000D03*
X195326000Y-137922000D03*
%TD*%
D12*
%TO.C,D6*%
X66543000Y-113284000D03*
D13*
X74163000Y-113284000D03*
%TD*%
D12*
%TO.C,D13*%
X66543000Y-125476000D03*
D13*
X74163000Y-125476000D03*
%TD*%
D14*
%TO.C,C15*%
X105324011Y-76539989D03*
X110324011Y-76539989D03*
%TD*%
D16*
%TO.C,R20*%
X93980000Y-115824000D03*
D17*
X101600000Y-115824000D03*
%TD*%
D24*
%TO.C,J8*%
X137150000Y-108199000D03*
D25*
X137150000Y-110739000D03*
X134610000Y-108199000D03*
X134610000Y-110739000D03*
X132070000Y-108199000D03*
X132070000Y-110739000D03*
X129530000Y-108199000D03*
X129530000Y-110739000D03*
%TD*%
D14*
%TO.C,C10*%
X184532011Y-113115989D03*
X179532011Y-113115989D03*
%TD*%
%TO.C,C11*%
X130764011Y-81111989D03*
X135764011Y-81111989D03*
%TD*%
D24*
%TO.C,J7*%
X114300000Y-143510000D03*
D25*
X116840000Y-143510000D03*
%TD*%
D14*
%TO.C,C13*%
X157226000Y-113284000D03*
X152226000Y-113284000D03*
%TD*%
%TO.C,C6*%
X101560000Y-118110000D03*
X96560000Y-118110000D03*
%TD*%
%TO.C,C9*%
X142876011Y-128355989D03*
X137876011Y-128355989D03*
%TD*%
D16*
%TO.C,R14*%
X80010000Y-84582000D03*
D17*
X80010000Y-76962000D03*
%TD*%
D16*
%TO.C,R12*%
X64516000Y-113284000D03*
D17*
X56896000Y-113284000D03*
%TD*%
D14*
%TO.C,C8*%
X85766011Y-55711989D03*
X80766011Y-55711989D03*
%TD*%
%TO.C,C12*%
X184572011Y-84413989D03*
X179572011Y-84413989D03*
%TD*%
D16*
%TO.C,R15*%
X82042000Y-84582000D03*
D17*
X82042000Y-76962000D03*
%TD*%
D35*
%TO.C,J4*%
X49022000Y-120142000D03*
D36*
X46482000Y-120142000D03*
X49022000Y-117602000D03*
X46482000Y-117602000D03*
X49022000Y-115062000D03*
X46482000Y-115062000D03*
X49022000Y-112522000D03*
X46482000Y-112522000D03*
X49022000Y-109982000D03*
X46482000Y-109982000D03*
X49022000Y-107442000D03*
X46482000Y-107442000D03*
%TD*%
D16*
%TO.C,R11*%
X64516000Y-115316000D03*
D17*
X56896000Y-115316000D03*
%TD*%
D20*
%TO.C,U12*%
X107950000Y-110744000D03*
D21*
X107950000Y-113284000D03*
X107950000Y-115824000D03*
X107950000Y-118364000D03*
X107950000Y-120904000D03*
X107950000Y-123444000D03*
X107950000Y-125984000D03*
X107950000Y-128524000D03*
X107950000Y-131064000D03*
X107950000Y-133604000D03*
X107950000Y-136144000D03*
X107950000Y-138684000D03*
X123190000Y-138684000D03*
X123190000Y-136144000D03*
X123190000Y-133604000D03*
X123190000Y-131064000D03*
X123190000Y-128524000D03*
X123190000Y-125984000D03*
X123190000Y-123444000D03*
X123190000Y-120904000D03*
X123190000Y-118364000D03*
X123190000Y-115824000D03*
X123190000Y-113284000D03*
X123190000Y-110744000D03*
%TD*%
D20*
%TO.C,U2*%
X163236011Y-115904989D03*
D21*
X163236011Y-118444989D03*
X163236011Y-120984989D03*
X163236011Y-123524989D03*
X163236011Y-126064989D03*
X163236011Y-128604989D03*
X163236011Y-131144989D03*
X163236011Y-133684989D03*
X163236011Y-136224989D03*
X163236011Y-138764989D03*
X170856011Y-138764989D03*
X170856011Y-136224989D03*
X170856011Y-133684989D03*
X170856011Y-131144989D03*
X170856011Y-128604989D03*
X170856011Y-126064989D03*
X170856011Y-123524989D03*
X170856011Y-120984989D03*
X170856011Y-118444989D03*
X170856011Y-115904989D03*
%TD*%
D12*
%TO.C,D11*%
X56896000Y-129540000D03*
D13*
X64516000Y-129540000D03*
%TD*%
D16*
%TO.C,R8*%
X133518011Y-115655989D03*
D17*
X141138011Y-115655989D03*
%TD*%
D12*
%TO.C,D12*%
X66548000Y-129540000D03*
D13*
X74168000Y-129540000D03*
%TD*%
D14*
%TO.C,J5*%
X51929000Y-63465000D03*
X51929000Y-66065000D03*
D26*
X48929000Y-71765000D03*
X48929000Y-57765000D03*
D14*
X51929000Y-61365000D03*
X51929000Y-68165000D03*
X54429000Y-61365000D03*
X54429000Y-68165000D03*
%TD*%
D20*
%TO.C,U8*%
X149520011Y-115904989D03*
D21*
X149520011Y-118444989D03*
X149520011Y-120984989D03*
X149520011Y-123524989D03*
X149520011Y-126064989D03*
X149520011Y-128604989D03*
X149520011Y-131144989D03*
X149520011Y-133684989D03*
X149520011Y-136224989D03*
X149520011Y-138764989D03*
X157140011Y-138764989D03*
X157140011Y-136224989D03*
X157140011Y-133684989D03*
X157140011Y-131144989D03*
X157140011Y-128604989D03*
X157140011Y-126064989D03*
X157140011Y-123524989D03*
X157140011Y-120984989D03*
X157140011Y-118444989D03*
X157140011Y-115904989D03*
%TD*%
D16*
%TO.C,R7*%
X64516000Y-117348000D03*
D17*
X56896000Y-117348000D03*
%TD*%
D14*
%TO.C,C1*%
X75078011Y-66125989D03*
X72578011Y-66125989D03*
%TD*%
M02*
