M48
; DRILL file {KiCad (6.0.4)} date Mon Oct 24 21:32:30 2022
; FORMAT={-:-/ absolute / inch / decimal}
; #@! TF.CreationDate,2022-10-24T21:32:30+02:00
; #@! TF.GenerationSoftware,Kicad,Pcbnew,(6.0.4)
; #@! TF.FileFunction,Plated,1,2,PTH
FMAT,2
INCH
; #@! TA.AperFunction,Plated,PTH,ViaDrill
T1C0.0157
; #@! TA.AperFunction,Plated,PTH,ComponentDrill
T2C0.0197
; #@! TA.AperFunction,Plated,PTH,ComponentDrill
T3C0.0276
; #@! TA.AperFunction,Plated,PTH,ComponentDrill
T4C0.0295
; #@! TA.AperFunction,Plated,PTH,ComponentDrill
T5C0.0315
; #@! TA.AperFunction,Plated,PTH,ComponentDrill
T6C0.0335
; #@! TA.AperFunction,Plated,PTH,ComponentDrill
T7C0.0394
; #@! TA.AperFunction,Plated,PTH,ComponentDrill
T8C0.0461
; #@! TA.AperFunction,Plated,PTH,ComponentDrill
T9C0.0472
; #@! TA.AperFunction,Plated,PTH,ComponentDrill
T10C0.0591
; #@! TA.AperFunction,Plated,PTH,ComponentDrill
T11C0.1260
%
G90
G05
T1
X1.9Y-3.21
X2.07Y-4.25
X2.15Y-4.21
X2.1534Y-4.53
X2.18Y-4.43
X2.67Y-4.62
X2.6966Y-4.38
X2.7105Y-4.3
X2.72Y-3.39
X2.73Y-3.43
X2.75Y-3.98
X2.7578Y-3.4578
X2.79Y-3.98
X2.7902Y-3.4802
X2.812Y-3.513
X2.83Y-3.99
X3.1365Y-2.71
X3.28Y-2.67
X3.4Y-2.03
X3.72Y-3.64
X3.77Y-3.6
X3.8Y-5.35
X3.81Y-3.22
X3.85Y-3.73
X3.8976Y-4.7176
X3.91Y-3.65
X3.94Y-3.6766
X3.9466Y-2.7434
X3.95Y-3.72
X4.0Y-3.21
X4.02Y-5.72
X4.0566Y-2.8034
X4.0651Y-4.4249
X4.07Y-3.35
X4.13Y-4.51
X4.1449Y-4.4249
X4.15Y-3.5
X4.18Y-4.79
X4.23Y-3.2
X4.2466Y-2.5872
X4.26Y-3.7732
X4.32Y-3.3766
X4.39Y-3.2
X4.4Y-4.87
X4.4162Y-3.8266
X4.42Y-4.76
X4.43Y-3.2091
X4.4382Y-3.4227
X4.45Y-2.65
X4.45Y-4.45
X4.46Y-3.14
X4.46Y-3.39
X4.48Y-3.7732
X4.49Y-2.83
X4.54Y-3.42
X4.54Y-4.18
X4.57Y-3.11
X4.6Y-4.15
X4.6Y-5.091
X4.6309Y-3.4966
X4.64Y-2.38
X4.64Y-4.2066
X4.65Y-3.0
X4.65Y-3.05
X4.6666Y-3.513
X4.7Y-3.94
X4.7034Y-4.56
X4.7034Y-4.7
X4.73Y-4.9
X4.75Y-5.63
X4.77Y-4.46
X4.81Y-3.56
X4.84Y-5.65
X4.88Y-3.5334
X4.88Y-5.64
X4.9Y-4.08
X4.92Y-5.38
X4.92Y-5.56
X4.9238Y-4.5962
X4.93Y-4.88
X4.93Y-5.28
X4.93Y-5.61
X4.94Y-4.73
X4.9466Y-2.572
X4.95Y-2.72
X4.96Y-4.08
X4.98Y-4.84
X5.02Y-3.5934
X5.02Y-4.8409
X5.0466Y-2.7634
X5.05Y-3.8266
X5.05Y-4.95
X5.05Y-5.65
X5.09Y-3.6232
X5.12Y-3.13
X5.15Y-3.38
X5.2Y-3.65
X5.24Y-2.03
X5.26Y-5.4795
X5.27Y-5.56
X5.2766Y-5.0934
X5.2973Y-3.6827
X5.34Y-2.2
X5.38Y-3.71
X5.4Y-3.98
X5.4251Y-3.1851
X5.43Y-3.05
X5.4466Y-2.5334
X5.49Y-2.98
X5.49Y-3.75
X5.5Y-4.0733
X5.5166Y-3.14
X5.52Y-3.38
X5.5401Y-3.0701
X5.55Y-3.55
X5.55Y-5.39
X5.6Y-2.6
X5.6Y-2.8
X5.6217Y-4.66
X5.64Y-4.75
X5.65Y-3.5068
X5.65Y-3.57
X5.65Y-4.94
X5.68Y-4.84
X5.69Y-5.73
X5.71Y-3.35
X5.7319Y-3.3166
X5.7333Y-5.46
X5.7468Y-3.94
X5.76Y-4.99
X5.77Y-3.83
X5.77Y-4.94
X5.77Y-5.4328
X5.7734Y-4.8322
X5.78Y-5.31
X5.8Y-4.62
X5.8Y-5.04
X5.8173Y-2.3473
X5.8366Y-3.5934
X5.85Y-2.9
X5.87Y-3.89
X5.9334Y-3.5334
X5.97Y-3.56
X5.99Y-3.23
X6.0266Y-4.57
X6.03Y-5.21
X6.05Y-5.34
X6.06Y-4.69
X6.08Y-3.6232
X6.11Y-3.65
X6.1373Y-3.6827
X6.18Y-3.05
X6.23Y-2.013
X6.25Y-5.53
X6.26Y-5.36
X6.28Y-2.8
X6.28Y-4.67
X6.28Y-5.16
X6.2827Y-5.5518
X6.29Y-5.28
X6.3Y-3.12
X6.31Y-3.75
X6.32Y-5.08
X6.32Y-5.57
X6.33Y-5.61
X6.34Y-2.98
X6.34Y-3.09
X6.35Y-3.71
X6.4947Y-5.09
X6.5207Y-3.1588
X6.5332Y-3.5068
X6.56Y-3.16
X6.5616Y-5.2322
X6.5632Y-2.35
X6.5632Y-2.56
X6.5632Y-2.9
X6.57Y-2.45
X6.59Y-2.69
X6.59Y-3.32
X6.59Y-4.9322
X6.6Y-2.49
X6.62Y-3.29
X6.63Y-4.8322
X6.64Y-2.76
X6.64Y-3.21
X6.66Y-5.11
X6.69Y-3.5068
X6.69Y-3.8
X6.73Y-2.03
X6.73Y-3.74
X6.75Y-5.65
X6.7668Y-3.7126
X6.7934Y-3.6827
X6.8Y-2.79
X6.8Y-5.1
X6.81Y-2.6
X6.82Y-3.65
X6.8266Y-2.98
X6.83Y-3.09
X6.8373Y-2.7668
X6.8497Y-3.6237
X6.87Y-3.59
X6.88Y-3.81
X6.89Y-3.72
X6.89Y-4.57
X6.8959Y-5.3597
X6.96Y-4.4
X7.0363Y-3.14
X7.06Y-3.53
X7.0682Y-4.5682
X7.0682Y-4.6682
X7.0698Y-2.3902
X7.1Y-4.36
X7.1032Y-3.45
X7.26Y-2.03
X7.3847Y-2.89
X7.3847Y-3.21
X7.39Y-2.52
X7.39Y-2.6
X7.39Y-2.71
X7.39Y-3.01
X7.39Y-3.11
X7.39Y-3.58
X7.4Y-2.8
X7.42Y-3.49
X7.42Y-3.77
X7.4437Y-3.67
X7.4466Y-3.38
X7.45Y-4.33
X7.4703Y-3.53
X7.4732Y-3.29
X7.4969Y-3.42
X7.5Y-3.17
X7.51Y-4.17
X7.5235Y-3.33
X7.5266Y-3.08
X7.5502Y-3.23
X7.5532Y-2.97
X7.5768Y-3.13
X7.58Y-2.87
X7.59Y-4.72
X7.6Y-3.03
X7.61Y-3.82
X7.61Y-3.92
X7.61Y-4.02
X7.61Y-4.12
X7.61Y-4.22
X7.61Y-4.86
X7.61Y-5.26
X7.61Y-5.36
X7.61Y-5.45
X7.62Y-4.75
X7.62Y-5.05
X7.63Y-3.62
X7.63Y-3.72
X7.76Y-5.62
T2
X5.0354Y-5.1676
X5.1354Y-5.1676
T3
X2.24Y-4.3
X2.24Y-4.38
X2.24Y-4.46
X2.24Y-4.54
X2.24Y-4.62
X2.24Y-4.7
X2.24Y-4.78
X2.24Y-4.86
X2.54Y-4.3
X2.54Y-4.38
X2.54Y-4.46
X2.54Y-4.54
X2.54Y-4.62
X2.54Y-4.7
X2.54Y-4.78
X2.54Y-4.86
X3.04Y-3.03
X3.04Y-3.33
X3.15Y-3.03
X3.15Y-3.33
X3.23Y-3.03
X3.23Y-3.33
X3.31Y-3.03
X3.31Y-3.33
X3.39Y-3.03
X3.39Y-3.33
X3.7Y-4.48
X3.7Y-4.56
X4.0Y-4.48
X4.0Y-4.56
X4.14Y-4.17
X4.44Y-4.17
X4.8466Y-3.9734
X4.8466Y-4.2734
X5.2566Y-4.5534
X5.2566Y-4.6534
X5.26Y-4.46
X5.5566Y-4.5534
X5.5566Y-4.6534
X5.56Y-4.46
T4
X2.2398Y-5.02
X2.24Y-5.1
X2.32Y-3.27
X2.37Y-3.27
X2.42Y-3.27
X2.5398Y-5.02
X2.54Y-5.1
X2.6198Y-4.3
X2.6198Y-4.38
X2.6198Y-4.46
X2.6198Y-4.54
X2.6198Y-4.62
X2.6198Y-4.7
X2.6198Y-4.78
X2.6198Y-4.86
X2.6198Y-4.94
X2.6198Y-5.02
X2.62Y-5.1
X2.9198Y-4.3
X2.9198Y-4.38
X2.9198Y-4.46
X2.9198Y-4.54
X2.9198Y-4.62
X2.9198Y-4.7
X2.9198Y-4.78
X2.9198Y-4.86
X2.9198Y-4.94
X2.9198Y-5.02
X2.92Y-5.1
T5
X2.8574Y-2.4034
X2.8574Y-2.6034
X2.8574Y-2.8034
X2.9558Y-2.4034
X2.9558Y-2.6034
X2.9558Y-2.8034
X3.077Y-2.303
X3.077Y-2.403
X3.077Y-2.503
X3.077Y-2.603
X3.077Y-2.703
X3.077Y-2.803
X3.077Y-2.903
X3.1798Y-2.1934
X3.3766Y-2.1934
X3.377Y-2.303
X3.377Y-2.403
X3.377Y-2.503
X3.377Y-2.603
X3.377Y-2.703
X3.377Y-2.803
X3.377Y-2.903
X3.4974Y-2.9034
X3.5958Y-2.9034
X3.71Y-4.76
X3.71Y-4.86
X3.71Y-4.96
X3.71Y-5.06
X3.71Y-5.16
X3.71Y-5.26
X3.71Y-5.36
X3.71Y-5.46
X3.7466Y-2.3024
X3.7466Y-2.9024
X3.7466Y-3.2834
X3.7466Y-3.8834
X3.8016Y-4.65
X3.8466Y-2.3024
X3.8466Y-2.9024
X3.8466Y-3.2834
X3.8466Y-3.8834
X3.9466Y-2.3024
X3.9466Y-2.9024
X3.9466Y-3.2834
X3.9466Y-3.8834
X3.9984Y-4.65
X4.01Y-4.76
X4.01Y-4.86
X4.01Y-4.96
X4.01Y-5.06
X4.01Y-5.16
X4.01Y-5.26
X4.01Y-5.36
X4.01Y-5.46
X4.0466Y-2.3024
X4.0466Y-2.9024
X4.0466Y-3.2834
X4.0466Y-3.8834
X4.1466Y-2.3024
X4.1466Y-2.9024
X4.1466Y-3.0134
X4.1466Y-3.2834
X4.1466Y-3.8834
X4.2466Y-2.3024
X4.2466Y-2.9024
X4.2466Y-3.2834
X4.2466Y-3.8834
X4.25Y-4.36
X4.25Y-4.46
X4.25Y-4.56
X4.25Y-4.66
X4.25Y-4.76
X4.25Y-4.86
X4.25Y-4.96
X4.25Y-5.06
X4.25Y-5.16
X4.25Y-5.26
X4.25Y-5.36
X4.25Y-5.46
X4.2516Y-4.25
X4.3435Y-3.0134
X4.3466Y-2.3024
X4.3466Y-2.9024
X4.3466Y-3.2834
X4.3466Y-3.8834
X4.4466Y-2.3024
X4.4466Y-2.9024
X4.4466Y-3.2834
X4.4466Y-3.8834
X4.4484Y-4.25
X4.5466Y-2.3024
X4.5466Y-2.9024
X4.5466Y-3.2834
X4.5466Y-3.8834
X4.6466Y-2.3024
X4.6466Y-2.9024
X4.6466Y-3.2834
X4.6466Y-3.8834
X4.7466Y-2.3024
X4.7466Y-2.9024
X4.7466Y-3.2834
X4.7466Y-3.8834
X4.8466Y-2.3024
X4.8466Y-2.9024
X4.8466Y-3.2834
X4.8466Y-3.8834
X4.85Y-4.36
X4.85Y-4.46
X4.85Y-4.56
X4.85Y-4.66
X4.85Y-4.76
X4.85Y-4.86
X4.85Y-4.96
X4.85Y-5.06
X4.85Y-5.16
X4.85Y-5.26
X4.85Y-5.36
X4.85Y-5.46
X4.9466Y-2.3024
X4.9466Y-2.9024
X4.9466Y-3.2834
X4.9466Y-3.8834
X5.0466Y-2.3024
X5.0466Y-2.9024
X5.0466Y-3.2834
X5.0466Y-3.8834
X5.1466Y-2.3024
X5.1466Y-2.9024
X5.1466Y-3.2834
X5.1466Y-3.8834
X5.1482Y-3.1934
X5.2466Y-2.3024
X5.2466Y-2.9024
X5.2466Y-3.2834
X5.2466Y-3.8834
X5.3266Y-5.1638
X5.3266Y-5.2638
X5.3266Y-5.3638
X5.3266Y-5.4638
X5.345Y-3.1934
X5.3466Y-2.3024
X5.3466Y-2.9024
X5.3466Y-3.2834
X5.3466Y-3.8834
X5.4282Y-5.0534
X5.4466Y-2.3024
X5.4466Y-2.9024
X5.4466Y-3.2834
X5.4466Y-3.8834
X5.5466Y-2.3024
X5.5466Y-2.9024
X5.5466Y-3.2834
X5.5466Y-3.8834
X5.625Y-5.0534
X5.6266Y-5.1638
X5.6266Y-5.2638
X5.6266Y-5.3638
X5.6266Y-5.4638
X5.6466Y-2.3024
X5.6466Y-2.9024
X5.6466Y-3.2834
X5.6466Y-3.8834
X5.8866Y-4.5632
X5.8866Y-4.6632
X5.8866Y-4.7632
X5.8866Y-4.8632
X5.8866Y-4.9632
X5.8866Y-5.0632
X5.8866Y-5.1632
X5.8866Y-5.2632
X5.8866Y-5.3632
X5.8866Y-5.4632
X5.9666Y-2.2928
X5.9666Y-2.3928
X5.9666Y-2.4928
X5.9666Y-2.5928
X5.9666Y-2.6928
X5.9666Y-2.7928
X5.9666Y-2.8928
X5.9666Y-2.9928
X5.9666Y-3.0928
X5.9931Y-4.46
X6.1866Y-4.5632
X6.1866Y-4.6632
X6.1866Y-4.7632
X6.1866Y-4.8632
X6.1866Y-4.9632
X6.1866Y-5.0632
X6.1866Y-5.1632
X6.1866Y-5.2632
X6.1866Y-5.3632
X6.1866Y-5.4632
X6.19Y-4.46
X6.4266Y-2.2934
X6.4266Y-2.3934
X6.4266Y-2.4934
X6.4266Y-2.5934
X6.4266Y-2.6934
X6.4266Y-2.7934
X6.4266Y-2.8934
X6.4266Y-2.9934
X6.4266Y-3.0934
X6.4266Y-3.1934
X6.4266Y-4.5632
X6.4266Y-4.6632
X6.4266Y-4.7632
X6.4266Y-4.8632
X6.4266Y-4.9632
X6.4266Y-5.0632
X6.4266Y-5.1632
X6.4266Y-5.2632
X6.4266Y-5.3632
X6.4266Y-5.4632
X6.5282Y-4.4534
X6.5298Y-2.1834
X6.725Y-4.4534
X6.7266Y-2.1834
X6.7266Y-2.2934
X6.7266Y-2.3934
X6.7266Y-2.4934
X6.7266Y-2.5934
X6.7266Y-2.6934
X6.7266Y-2.7934
X6.7266Y-2.8934
X6.7266Y-2.9934
X6.7266Y-3.0934
X6.7266Y-3.1934
X6.7266Y-4.5632
X6.7266Y-4.6632
X6.7266Y-4.7632
X6.7266Y-4.8632
X6.7266Y-4.9632
X6.7266Y-5.0632
X6.7266Y-5.1632
X6.7266Y-5.2632
X6.7266Y-5.3632
X6.7266Y-5.4632
X6.9666Y-2.2934
X6.9666Y-2.3934
X6.9666Y-2.4934
X6.9666Y-2.5934
X6.9666Y-2.6934
X6.9666Y-2.7934
X6.9666Y-2.8934
X6.9666Y-2.9934
X6.9666Y-3.0934
X6.9666Y-3.1934
X6.9666Y-3.4334
X6.9666Y-3.5334
X6.9666Y-3.6334
X6.9666Y-3.7334
X6.9666Y-3.8334
X6.9666Y-3.9334
X6.9666Y-4.0334
X6.9666Y-4.1334
X6.9666Y-4.2334
X6.9666Y-4.3334
X6.9666Y-4.5632
X6.9666Y-4.6632
X6.9666Y-4.7632
X6.9666Y-4.8632
X6.9666Y-4.9632
X6.9666Y-5.0632
X6.9666Y-5.1632
X6.9666Y-5.2632
X6.9666Y-5.3632
X6.9666Y-5.4632
X7.0682Y-4.4534
X7.0698Y-2.1834
X7.0698Y-3.3234
X7.265Y-4.4534
X7.2666Y-2.1834
X7.2666Y-2.2934
X7.2666Y-2.3934
X7.2666Y-2.4934
X7.2666Y-2.5934
X7.2666Y-2.6934
X7.2666Y-2.7934
X7.2666Y-2.8934
X7.2666Y-2.9934
X7.2666Y-3.0934
X7.2666Y-3.1934
X7.2666Y-3.3234
X7.2666Y-3.4334
X7.2666Y-3.5334
X7.2666Y-3.6334
X7.2666Y-3.7334
X7.2666Y-3.8334
X7.2666Y-3.9334
X7.2666Y-4.0334
X7.2666Y-4.1334
X7.2666Y-4.2334
X7.2666Y-4.3334
X7.2666Y-4.5632
X7.2666Y-4.6632
X7.2666Y-4.7632
X7.2666Y-4.8632
X7.2666Y-4.9632
X7.2666Y-5.0632
X7.2666Y-5.1632
X7.2666Y-5.2632
X7.2666Y-5.3632
X7.2666Y-5.4632
T6
X2.27Y-3.7116
X2.27Y-3.9084
T7
X1.83Y-4.23
X1.83Y-4.33
X1.83Y-4.43
X1.83Y-4.53
X1.83Y-4.63
X1.83Y-4.73
X1.93Y-4.23
X1.93Y-4.33
X1.93Y-4.43
X1.93Y-4.53
X1.93Y-4.63
X1.93Y-4.73
X3.4498Y-4.9604
X3.4498Y-5.0604
X3.4498Y-5.1604
X3.4498Y-5.2604
X3.5498Y-4.9604
X3.5498Y-5.0604
X3.5498Y-5.1604
X3.5498Y-5.2604
X4.5Y-5.65
X4.6Y-5.65
X5.0996Y-4.2598
X5.0996Y-4.3598
X5.1996Y-4.2598
X5.1996Y-4.3598
X5.2996Y-4.2598
X5.2996Y-4.3598
X5.3996Y-4.2598
X5.3996Y-4.3598
X5.4364Y-4.8232
X5.4364Y-4.9232
X5.5364Y-4.8232
X5.5364Y-4.9232
X6.1266Y-2.3032
X6.1266Y-2.4032
X6.1266Y-2.5032
X6.1266Y-2.6032
X6.1266Y-2.7032
X6.2266Y-2.3032
X6.2266Y-2.4032
X6.2266Y-2.5032
X6.2266Y-2.6032
X6.2266Y-2.7032
X7.69Y-2.33
X7.69Y-2.43
X7.69Y-2.53
X7.69Y-2.63
X7.69Y-2.73
X7.69Y-2.83
X7.69Y-2.93
X7.69Y-3.03
X7.69Y-3.13
X7.69Y-3.23
X7.69Y-3.33
X7.69Y-3.43
X7.69Y-3.53
X7.69Y-3.63
X7.69Y-3.73
X7.69Y-3.83
X7.69Y-3.93
X7.69Y-4.03
X7.69Y-4.13
X7.69Y-4.23
X7.69Y-4.33
X7.69Y-4.43
X7.69Y-4.53
X7.69Y-4.63
X7.69Y-4.73
X7.69Y-4.83
X7.69Y-4.93
X7.69Y-5.03
X7.69Y-5.13
X7.69Y-5.23
X7.69Y-5.33
X7.69Y-5.43
X7.79Y-2.33
X7.79Y-2.43
X7.79Y-2.53
X7.79Y-2.63
X7.79Y-2.73
X7.79Y-2.83
X7.79Y-2.93
X7.79Y-3.03
X7.79Y-3.13
X7.79Y-3.23
X7.79Y-3.33
X7.79Y-3.43
X7.79Y-3.53
X7.79Y-3.63
X7.79Y-3.73
X7.79Y-3.83
X7.79Y-3.93
X7.79Y-4.03
X7.79Y-4.13
X7.79Y-4.23
X7.79Y-4.33
X7.79Y-4.43
X7.79Y-4.53
X7.79Y-4.63
X7.79Y-4.73
X7.79Y-4.83
X7.79Y-4.93
X7.79Y-5.03
X7.79Y-5.13
X7.79Y-5.23
X7.79Y-5.33
X7.79Y-5.43
T8
X6.0345Y-3.95
T10
X6.8219Y-3.95
T11
X1.92Y-2.12
X1.92Y-5.63
T7
G00X2.0444Y-2.4159
M15
G01X2.0444Y-2.4159
M16
G05
G00X2.0444Y-2.4986
M15
G01X2.0444Y-2.4986
M16
G05
G00X2.0444Y-2.601
M15
G01X2.0444Y-2.601
M16
G05
G00X2.0444Y-2.6837
M15
G01X2.0444Y-2.6837
M16
G05
G00X2.0444Y-3.0759
M15
G01X2.0444Y-3.0759
M16
G05
G00X2.0444Y-3.1586
M15
G01X2.0444Y-3.1586
M16
G05
G00X2.0444Y-3.261
M15
G01X2.0444Y-3.261
M16
G05
G00X2.0444Y-3.3437
M15
G01X2.0444Y-3.3437
M16
G05
G00X2.1429Y-2.4159
M15
G01X2.1429Y-2.4159
M16
G05
G00X2.1429Y-2.6837
M15
G01X2.1429Y-2.6837
M16
G05
G00X2.1429Y-3.0759
M15
G01X2.1429Y-3.0759
M16
G05
G00X2.1429Y-3.3437
M15
G01X2.1429Y-3.3437
M16
G05
T9
G00X1.9067Y-2.2742
M15
G01X1.946Y-2.2742
M16
G05
G00X1.9067Y-2.8254
M15
G01X1.946Y-2.8254
M16
G05
G00X1.9067Y-2.9342
M15
G01X1.946Y-2.9342
M16
G05
G00X1.9067Y-3.4854
M15
G01X1.946Y-3.4854
M16
G05
T0
M30
