%TF.GenerationSoftware,KiCad,Pcbnew,(6.0.4)*%
%TF.CreationDate,2022-10-24T21:41:38+02:00*%
%TF.ProjectId,Z80-IDE,5a38302d-4944-4452-9e6b-696361645f70,rev?*%
%TF.SameCoordinates,Original*%
%TF.FileFunction,Legend,Top*%
%TF.FilePolarity,Positive*%
%FSLAX46Y46*%
G04 Gerber Fmt 4.6, Leading zero omitted, Abs format (unit mm)*
G04 Created by KiCad (PCBNEW (6.0.4)) date 2022-10-24 21:41:38*
%MOMM*%
%LPD*%
G01*
G04 APERTURE LIST*
%ADD10C,0.200000*%
%ADD11C,0.300000*%
%ADD12C,0.150000*%
%ADD13C,0.120000*%
G04 APERTURE END LIST*
D10*
X72535809Y-90298380D02*
X72535809Y-91012666D01*
X72488190Y-91155523D01*
X72392952Y-91250761D01*
X72250095Y-91298380D01*
X72154857Y-91298380D01*
X73012000Y-91298380D02*
X73012000Y-90298380D01*
X73392952Y-90298380D01*
X73488190Y-90346000D01*
X73535809Y-90393619D01*
X73583428Y-90488857D01*
X73583428Y-90631714D01*
X73535809Y-90726952D01*
X73488190Y-90774571D01*
X73392952Y-90822190D01*
X73012000Y-90822190D01*
X74488190Y-90298380D02*
X74012000Y-90298380D01*
X73964380Y-90774571D01*
X74012000Y-90726952D01*
X74107238Y-90679333D01*
X74345333Y-90679333D01*
X74440571Y-90726952D01*
X74488190Y-90774571D01*
X74535809Y-90869809D01*
X74535809Y-91107904D01*
X74488190Y-91203142D01*
X74440571Y-91250761D01*
X74345333Y-91298380D01*
X74107238Y-91298380D01*
X74012000Y-91250761D01*
X73964380Y-91203142D01*
X76297714Y-91203142D02*
X76250095Y-91250761D01*
X76107238Y-91298380D01*
X76012000Y-91298380D01*
X75869142Y-91250761D01*
X75773904Y-91155523D01*
X75726285Y-91060285D01*
X75678666Y-90869809D01*
X75678666Y-90726952D01*
X75726285Y-90536476D01*
X75773904Y-90441238D01*
X75869142Y-90346000D01*
X76012000Y-90298380D01*
X76107238Y-90298380D01*
X76250095Y-90346000D01*
X76297714Y-90393619D01*
X77059619Y-90774571D02*
X76726285Y-90774571D01*
X76726285Y-91298380D02*
X76726285Y-90298380D01*
X77202476Y-90298380D01*
X78916761Y-91203142D02*
X78869142Y-91250761D01*
X78726285Y-91298380D01*
X78631047Y-91298380D01*
X78488190Y-91250761D01*
X78392952Y-91155523D01*
X78345333Y-91060285D01*
X78297714Y-90869809D01*
X78297714Y-90726952D01*
X78345333Y-90536476D01*
X78392952Y-90441238D01*
X78488190Y-90346000D01*
X78631047Y-90298380D01*
X78726285Y-90298380D01*
X78869142Y-90346000D01*
X78916761Y-90393619D01*
X79297714Y-91250761D02*
X79440571Y-91298380D01*
X79678666Y-91298380D01*
X79773904Y-91250761D01*
X79821523Y-91203142D01*
X79869142Y-91107904D01*
X79869142Y-91012666D01*
X79821523Y-90917428D01*
X79773904Y-90869809D01*
X79678666Y-90822190D01*
X79488190Y-90774571D01*
X79392952Y-90726952D01*
X79345333Y-90679333D01*
X79297714Y-90584095D01*
X79297714Y-90488857D01*
X79345333Y-90393619D01*
X79392952Y-90346000D01*
X79488190Y-90298380D01*
X79726285Y-90298380D01*
X79869142Y-90346000D01*
X74297714Y-92908380D02*
X73726285Y-92908380D01*
X74012000Y-92908380D02*
X74012000Y-91908380D01*
X73916761Y-92051238D01*
X73821523Y-92146476D01*
X73726285Y-92194095D01*
X74726285Y-92527428D02*
X75488190Y-92527428D01*
X75916761Y-92003619D02*
X75964380Y-91956000D01*
X76059619Y-91908380D01*
X76297714Y-91908380D01*
X76392952Y-91956000D01*
X76440571Y-92003619D01*
X76488190Y-92098857D01*
X76488190Y-92194095D01*
X76440571Y-92336952D01*
X75869142Y-92908380D01*
X76488190Y-92908380D01*
X78154857Y-92908380D02*
X77678666Y-92908380D01*
X77678666Y-91908380D01*
X78678666Y-91908380D02*
X78869142Y-91908380D01*
X78964380Y-91956000D01*
X79059619Y-92051238D01*
X79107238Y-92241714D01*
X79107238Y-92575047D01*
X79059619Y-92765523D01*
X78964380Y-92860761D01*
X78869142Y-92908380D01*
X78678666Y-92908380D01*
X78583428Y-92860761D01*
X78488190Y-92765523D01*
X78440571Y-92575047D01*
X78440571Y-92241714D01*
X78488190Y-92051238D01*
X78583428Y-91956000D01*
X78678666Y-91908380D01*
X79440571Y-91908380D02*
X79678666Y-92908380D01*
X79869142Y-92194095D01*
X80059619Y-92908380D01*
X80297714Y-91908380D01*
X73726285Y-93613619D02*
X73773904Y-93566000D01*
X73869142Y-93518380D01*
X74107238Y-93518380D01*
X74202476Y-93566000D01*
X74250095Y-93613619D01*
X74297714Y-93708857D01*
X74297714Y-93804095D01*
X74250095Y-93946952D01*
X73678666Y-94518380D01*
X74297714Y-94518380D01*
X74726285Y-94137428D02*
X75488190Y-94137428D01*
X75869142Y-93518380D02*
X76488190Y-93518380D01*
X76154857Y-93899333D01*
X76297714Y-93899333D01*
X76392952Y-93946952D01*
X76440571Y-93994571D01*
X76488190Y-94089809D01*
X76488190Y-94327904D01*
X76440571Y-94423142D01*
X76392952Y-94470761D01*
X76297714Y-94518380D01*
X76012000Y-94518380D01*
X75916761Y-94470761D01*
X75869142Y-94423142D01*
X77678666Y-94518380D02*
X77678666Y-93518380D01*
X77678666Y-93994571D02*
X78250095Y-93994571D01*
X78250095Y-94518380D02*
X78250095Y-93518380D01*
X78726285Y-94518380D02*
X78726285Y-93518380D01*
X79726285Y-93566000D02*
X79631047Y-93518380D01*
X79488190Y-93518380D01*
X79345333Y-93566000D01*
X79250095Y-93661238D01*
X79202476Y-93756476D01*
X79154857Y-93946952D01*
X79154857Y-94089809D01*
X79202476Y-94280285D01*
X79250095Y-94375523D01*
X79345333Y-94470761D01*
X79488190Y-94518380D01*
X79583428Y-94518380D01*
X79726285Y-94470761D01*
X79773904Y-94423142D01*
X79773904Y-94089809D01*
X79583428Y-94089809D01*
X80202476Y-94518380D02*
X80202476Y-93518380D01*
X80202476Y-93994571D02*
X80773904Y-93994571D01*
X80773904Y-94518380D02*
X80773904Y-93518380D01*
X135273809Y-97492380D02*
X135273809Y-98206666D01*
X135226190Y-98349523D01*
X135130952Y-98444761D01*
X134988095Y-98492380D01*
X134892857Y-98492380D01*
X135750000Y-98492380D02*
X135750000Y-97492380D01*
X136130952Y-97492380D01*
X136226190Y-97540000D01*
X136273809Y-97587619D01*
X136321428Y-97682857D01*
X136321428Y-97825714D01*
X136273809Y-97920952D01*
X136226190Y-97968571D01*
X136130952Y-98016190D01*
X135750000Y-98016190D01*
X137273809Y-98492380D02*
X136702380Y-98492380D01*
X136988095Y-98492380D02*
X136988095Y-97492380D01*
X136892857Y-97635238D01*
X136797619Y-97730476D01*
X136702380Y-97778095D01*
X138797619Y-97968571D02*
X138940476Y-98016190D01*
X138988095Y-98063809D01*
X139035714Y-98159047D01*
X139035714Y-98301904D01*
X138988095Y-98397142D01*
X138940476Y-98444761D01*
X138845238Y-98492380D01*
X138464285Y-98492380D01*
X138464285Y-97492380D01*
X138797619Y-97492380D01*
X138892857Y-97540000D01*
X138940476Y-97587619D01*
X138988095Y-97682857D01*
X138988095Y-97778095D01*
X138940476Y-97873333D01*
X138892857Y-97920952D01*
X138797619Y-97968571D01*
X138464285Y-97968571D01*
X139416666Y-98206666D02*
X139892857Y-98206666D01*
X139321428Y-98492380D02*
X139654761Y-97492380D01*
X139988095Y-98492380D01*
X140273809Y-98444761D02*
X140416666Y-98492380D01*
X140654761Y-98492380D01*
X140750000Y-98444761D01*
X140797619Y-98397142D01*
X140845238Y-98301904D01*
X140845238Y-98206666D01*
X140797619Y-98111428D01*
X140750000Y-98063809D01*
X140654761Y-98016190D01*
X140464285Y-97968571D01*
X140369047Y-97920952D01*
X140321428Y-97873333D01*
X140273809Y-97778095D01*
X140273809Y-97682857D01*
X140321428Y-97587619D01*
X140369047Y-97540000D01*
X140464285Y-97492380D01*
X140702380Y-97492380D01*
X140845238Y-97540000D01*
X141273809Y-97968571D02*
X141607142Y-97968571D01*
X141750000Y-98492380D02*
X141273809Y-98492380D01*
X141273809Y-97492380D01*
X141750000Y-97492380D01*
X142892857Y-98206666D02*
X143369047Y-98206666D01*
X142797619Y-98492380D02*
X143130952Y-97492380D01*
X143464285Y-98492380D01*
X143797619Y-98492380D02*
X143797619Y-97492380D01*
X144035714Y-97492380D01*
X144178571Y-97540000D01*
X144273809Y-97635238D01*
X144321428Y-97730476D01*
X144369047Y-97920952D01*
X144369047Y-98063809D01*
X144321428Y-98254285D01*
X144273809Y-98349523D01*
X144178571Y-98444761D01*
X144035714Y-98492380D01*
X143797619Y-98492380D01*
X144797619Y-98492380D02*
X144797619Y-97492380D01*
X145035714Y-97492380D01*
X145178571Y-97540000D01*
X145273809Y-97635238D01*
X145321428Y-97730476D01*
X145369047Y-97920952D01*
X145369047Y-98063809D01*
X145321428Y-98254285D01*
X145273809Y-98349523D01*
X145178571Y-98444761D01*
X145035714Y-98492380D01*
X144797619Y-98492380D01*
X146369047Y-98492380D02*
X146035714Y-98016190D01*
X145797619Y-98492380D02*
X145797619Y-97492380D01*
X146178571Y-97492380D01*
X146273809Y-97540000D01*
X146321428Y-97587619D01*
X146369047Y-97682857D01*
X146369047Y-97825714D01*
X146321428Y-97920952D01*
X146273809Y-97968571D01*
X146178571Y-98016190D01*
X145797619Y-98016190D01*
X135511904Y-100102380D02*
X134940476Y-100102380D01*
X135226190Y-100102380D02*
X135226190Y-99102380D01*
X135130952Y-99245238D01*
X135035714Y-99340476D01*
X134940476Y-99388095D01*
X135940476Y-99721428D02*
X136702380Y-99721428D01*
X137130952Y-99197619D02*
X137178571Y-99150000D01*
X137273809Y-99102380D01*
X137511904Y-99102380D01*
X137607142Y-99150000D01*
X137654761Y-99197619D01*
X137702380Y-99292857D01*
X137702380Y-99388095D01*
X137654761Y-99530952D01*
X137083333Y-100102380D01*
X137702380Y-100102380D01*
X140416666Y-100102380D02*
X140416666Y-99102380D01*
X140988095Y-100102380D01*
X140988095Y-99102380D01*
X141464285Y-100007142D02*
X141511904Y-100054761D01*
X141464285Y-100102380D01*
X141416666Y-100054761D01*
X141464285Y-100007142D01*
X141464285Y-100102380D01*
X142511904Y-100007142D02*
X142464285Y-100054761D01*
X142321428Y-100102380D01*
X142226190Y-100102380D01*
X142083333Y-100054761D01*
X141988095Y-99959523D01*
X141940476Y-99864285D01*
X141892857Y-99673809D01*
X141892857Y-99530952D01*
X141940476Y-99340476D01*
X141988095Y-99245238D01*
X142083333Y-99150000D01*
X142226190Y-99102380D01*
X142321428Y-99102380D01*
X142464285Y-99150000D01*
X142511904Y-99197619D01*
X142940476Y-100007142D02*
X142988095Y-100054761D01*
X142940476Y-100102380D01*
X142892857Y-100054761D01*
X142940476Y-100007142D01*
X142940476Y-100102380D01*
X134892857Y-100712380D02*
X135511904Y-100712380D01*
X135178571Y-101093333D01*
X135321428Y-101093333D01*
X135416666Y-101140952D01*
X135464285Y-101188571D01*
X135511904Y-101283809D01*
X135511904Y-101521904D01*
X135464285Y-101617142D01*
X135416666Y-101664761D01*
X135321428Y-101712380D01*
X135035714Y-101712380D01*
X134940476Y-101664761D01*
X134892857Y-101617142D01*
X135940476Y-101331428D02*
X136702380Y-101331428D01*
X137607142Y-101045714D02*
X137607142Y-101712380D01*
X137369047Y-100664761D02*
X137130952Y-101379047D01*
X137750000Y-101379047D01*
X140369047Y-101426666D02*
X140845238Y-101426666D01*
X140273809Y-101712380D02*
X140607142Y-100712380D01*
X140940476Y-101712380D01*
X141178571Y-100712380D02*
X141797619Y-100712380D01*
X141464285Y-101093333D01*
X141607142Y-101093333D01*
X141702380Y-101140952D01*
X141750000Y-101188571D01*
X141797619Y-101283809D01*
X141797619Y-101521904D01*
X141750000Y-101617142D01*
X141702380Y-101664761D01*
X141607142Y-101712380D01*
X141321428Y-101712380D01*
X141226190Y-101664761D01*
X141178571Y-101617142D01*
X135464285Y-102322380D02*
X134988095Y-102322380D01*
X134940476Y-102798571D01*
X134988095Y-102750952D01*
X135083333Y-102703333D01*
X135321428Y-102703333D01*
X135416666Y-102750952D01*
X135464285Y-102798571D01*
X135511904Y-102893809D01*
X135511904Y-103131904D01*
X135464285Y-103227142D01*
X135416666Y-103274761D01*
X135321428Y-103322380D01*
X135083333Y-103322380D01*
X134988095Y-103274761D01*
X134940476Y-103227142D01*
X135940476Y-102941428D02*
X136702380Y-102941428D01*
X137607142Y-102322380D02*
X137416666Y-102322380D01*
X137321428Y-102370000D01*
X137273809Y-102417619D01*
X137178571Y-102560476D01*
X137130952Y-102750952D01*
X137130952Y-103131904D01*
X137178571Y-103227142D01*
X137226190Y-103274761D01*
X137321428Y-103322380D01*
X137511904Y-103322380D01*
X137607142Y-103274761D01*
X137654761Y-103227142D01*
X137702380Y-103131904D01*
X137702380Y-102893809D01*
X137654761Y-102798571D01*
X137607142Y-102750952D01*
X137511904Y-102703333D01*
X137321428Y-102703333D01*
X137226190Y-102750952D01*
X137178571Y-102798571D01*
X137130952Y-102893809D01*
X140369047Y-103036666D02*
X140845238Y-103036666D01*
X140273809Y-103322380D02*
X140607142Y-102322380D01*
X140940476Y-103322380D01*
X141702380Y-102655714D02*
X141702380Y-103322380D01*
X141464285Y-102274761D02*
X141226190Y-102989047D01*
X141845238Y-102989047D01*
X134892857Y-103932380D02*
X135559523Y-103932380D01*
X135130952Y-104932380D01*
X135940476Y-104551428D02*
X136702380Y-104551428D01*
X137321428Y-104360952D02*
X137226190Y-104313333D01*
X137178571Y-104265714D01*
X137130952Y-104170476D01*
X137130952Y-104122857D01*
X137178571Y-104027619D01*
X137226190Y-103980000D01*
X137321428Y-103932380D01*
X137511904Y-103932380D01*
X137607142Y-103980000D01*
X137654761Y-104027619D01*
X137702380Y-104122857D01*
X137702380Y-104170476D01*
X137654761Y-104265714D01*
X137607142Y-104313333D01*
X137511904Y-104360952D01*
X137321428Y-104360952D01*
X137226190Y-104408571D01*
X137178571Y-104456190D01*
X137130952Y-104551428D01*
X137130952Y-104741904D01*
X137178571Y-104837142D01*
X137226190Y-104884761D01*
X137321428Y-104932380D01*
X137511904Y-104932380D01*
X137607142Y-104884761D01*
X137654761Y-104837142D01*
X137702380Y-104741904D01*
X137702380Y-104551428D01*
X137654761Y-104456190D01*
X137607142Y-104408571D01*
X137511904Y-104360952D01*
X140369047Y-104646666D02*
X140845238Y-104646666D01*
X140273809Y-104932380D02*
X140607142Y-103932380D01*
X140940476Y-104932380D01*
X141750000Y-103932380D02*
X141273809Y-103932380D01*
X141226190Y-104408571D01*
X141273809Y-104360952D01*
X141369047Y-104313333D01*
X141607142Y-104313333D01*
X141702380Y-104360952D01*
X141750000Y-104408571D01*
X141797619Y-104503809D01*
X141797619Y-104741904D01*
X141750000Y-104837142D01*
X141702380Y-104884761D01*
X141607142Y-104932380D01*
X141369047Y-104932380D01*
X141273809Y-104884761D01*
X141226190Y-104837142D01*
X135035714Y-106542380D02*
X135226190Y-106542380D01*
X135321428Y-106494761D01*
X135369047Y-106447142D01*
X135464285Y-106304285D01*
X135511904Y-106113809D01*
X135511904Y-105732857D01*
X135464285Y-105637619D01*
X135416666Y-105590000D01*
X135321428Y-105542380D01*
X135130952Y-105542380D01*
X135035714Y-105590000D01*
X134988095Y-105637619D01*
X134940476Y-105732857D01*
X134940476Y-105970952D01*
X134988095Y-106066190D01*
X135035714Y-106113809D01*
X135130952Y-106161428D01*
X135321428Y-106161428D01*
X135416666Y-106113809D01*
X135464285Y-106066190D01*
X135511904Y-105970952D01*
X135940476Y-106161428D02*
X136702380Y-106161428D01*
X137702380Y-106542380D02*
X137130952Y-106542380D01*
X137416666Y-106542380D02*
X137416666Y-105542380D01*
X137321428Y-105685238D01*
X137226190Y-105780476D01*
X137130952Y-105828095D01*
X138321428Y-105542380D02*
X138416666Y-105542380D01*
X138511904Y-105590000D01*
X138559523Y-105637619D01*
X138607142Y-105732857D01*
X138654761Y-105923333D01*
X138654761Y-106161428D01*
X138607142Y-106351904D01*
X138559523Y-106447142D01*
X138511904Y-106494761D01*
X138416666Y-106542380D01*
X138321428Y-106542380D01*
X138226190Y-106494761D01*
X138178571Y-106447142D01*
X138130952Y-106351904D01*
X138083333Y-106161428D01*
X138083333Y-105923333D01*
X138130952Y-105732857D01*
X138178571Y-105637619D01*
X138226190Y-105590000D01*
X138321428Y-105542380D01*
X140559523Y-106256666D02*
X141035714Y-106256666D01*
X140464285Y-106542380D02*
X140797619Y-105542380D01*
X141130952Y-106542380D01*
X141892857Y-105542380D02*
X141702380Y-105542380D01*
X141607142Y-105590000D01*
X141559523Y-105637619D01*
X141464285Y-105780476D01*
X141416666Y-105970952D01*
X141416666Y-106351904D01*
X141464285Y-106447142D01*
X141511904Y-106494761D01*
X141607142Y-106542380D01*
X141797619Y-106542380D01*
X141892857Y-106494761D01*
X141940476Y-106447142D01*
X141988095Y-106351904D01*
X141988095Y-106113809D01*
X141940476Y-106018571D01*
X141892857Y-105970952D01*
X141797619Y-105923333D01*
X141607142Y-105923333D01*
X141511904Y-105970952D01*
X141464285Y-106018571D01*
X141416666Y-106113809D01*
X135511904Y-108152380D02*
X134940476Y-108152380D01*
X135226190Y-108152380D02*
X135226190Y-107152380D01*
X135130952Y-107295238D01*
X135035714Y-107390476D01*
X134940476Y-107438095D01*
X136464285Y-108152380D02*
X135892857Y-108152380D01*
X136178571Y-108152380D02*
X136178571Y-107152380D01*
X136083333Y-107295238D01*
X135988095Y-107390476D01*
X135892857Y-107438095D01*
X136892857Y-107771428D02*
X137654761Y-107771428D01*
X138654761Y-108152380D02*
X138083333Y-108152380D01*
X138369047Y-108152380D02*
X138369047Y-107152380D01*
X138273809Y-107295238D01*
X138178571Y-107390476D01*
X138083333Y-107438095D01*
X139035714Y-107247619D02*
X139083333Y-107200000D01*
X139178571Y-107152380D01*
X139416666Y-107152380D01*
X139511904Y-107200000D01*
X139559523Y-107247619D01*
X139607142Y-107342857D01*
X139607142Y-107438095D01*
X139559523Y-107580952D01*
X138988095Y-108152380D01*
X139607142Y-108152380D01*
X140750000Y-107866666D02*
X141226190Y-107866666D01*
X140654761Y-108152380D02*
X140988095Y-107152380D01*
X141321428Y-108152380D01*
X141559523Y-107152380D02*
X142226190Y-107152380D01*
X141797619Y-108152380D01*
D11*
X99108514Y-81830171D02*
X100108514Y-81830171D01*
X99108514Y-83330171D01*
X100108514Y-83330171D01*
X100894228Y-82473028D02*
X100751371Y-82401600D01*
X100679942Y-82330171D01*
X100608514Y-82187314D01*
X100608514Y-82115885D01*
X100679942Y-81973028D01*
X100751371Y-81901600D01*
X100894228Y-81830171D01*
X101179942Y-81830171D01*
X101322800Y-81901600D01*
X101394228Y-81973028D01*
X101465657Y-82115885D01*
X101465657Y-82187314D01*
X101394228Y-82330171D01*
X101322800Y-82401600D01*
X101179942Y-82473028D01*
X100894228Y-82473028D01*
X100751371Y-82544457D01*
X100679942Y-82615885D01*
X100608514Y-82758742D01*
X100608514Y-83044457D01*
X100679942Y-83187314D01*
X100751371Y-83258742D01*
X100894228Y-83330171D01*
X101179942Y-83330171D01*
X101322800Y-83258742D01*
X101394228Y-83187314D01*
X101465657Y-83044457D01*
X101465657Y-82758742D01*
X101394228Y-82615885D01*
X101322800Y-82544457D01*
X101179942Y-82473028D01*
X102965657Y-83187314D02*
X102894228Y-83258742D01*
X102679942Y-83330171D01*
X102537085Y-83330171D01*
X102322800Y-83258742D01*
X102179942Y-83115885D01*
X102108514Y-82973028D01*
X102037085Y-82687314D01*
X102037085Y-82473028D01*
X102108514Y-82187314D01*
X102179942Y-82044457D01*
X102322800Y-81901600D01*
X102537085Y-81830171D01*
X102679942Y-81830171D01*
X102894228Y-81901600D01*
X102965657Y-81973028D01*
X104751371Y-83330171D02*
X104751371Y-81830171D01*
X104751371Y-82544457D02*
X105608514Y-82544457D01*
X105608514Y-83330171D02*
X105608514Y-81830171D01*
X106537085Y-83330171D02*
X106394228Y-83258742D01*
X106322800Y-83187314D01*
X106251371Y-83044457D01*
X106251371Y-82615885D01*
X106322800Y-82473028D01*
X106394228Y-82401600D01*
X106537085Y-82330171D01*
X106751371Y-82330171D01*
X106894228Y-82401600D01*
X106965657Y-82473028D01*
X107037085Y-82615885D01*
X107037085Y-83044457D01*
X106965657Y-83187314D01*
X106894228Y-83258742D01*
X106751371Y-83330171D01*
X106537085Y-83330171D01*
X107679942Y-83330171D02*
X107679942Y-82330171D01*
X107679942Y-82473028D02*
X107751371Y-82401600D01*
X107894228Y-82330171D01*
X108108514Y-82330171D01*
X108251371Y-82401600D01*
X108322800Y-82544457D01*
X108322800Y-83330171D01*
X108322800Y-82544457D02*
X108394228Y-82401600D01*
X108537085Y-82330171D01*
X108751371Y-82330171D01*
X108894228Y-82401600D01*
X108965657Y-82544457D01*
X108965657Y-83330171D01*
X109679942Y-83330171D02*
X109679942Y-81830171D01*
X109679942Y-82401600D02*
X109822800Y-82330171D01*
X110108514Y-82330171D01*
X110251371Y-82401600D01*
X110322800Y-82473028D01*
X110394228Y-82615885D01*
X110394228Y-83044457D01*
X110322800Y-83187314D01*
X110251371Y-83258742D01*
X110108514Y-83330171D01*
X109822800Y-83330171D01*
X109679942Y-83258742D01*
X111037085Y-83330171D02*
X111037085Y-82330171D01*
X111037085Y-82615885D02*
X111108514Y-82473028D01*
X111179942Y-82401600D01*
X111322800Y-82330171D01*
X111465657Y-82330171D01*
X112537085Y-83258742D02*
X112394228Y-83330171D01*
X112108514Y-83330171D01*
X111965657Y-83258742D01*
X111894228Y-83115885D01*
X111894228Y-82544457D01*
X111965657Y-82401600D01*
X112108514Y-82330171D01*
X112394228Y-82330171D01*
X112537085Y-82401600D01*
X112608514Y-82544457D01*
X112608514Y-82687314D01*
X111894228Y-82830171D01*
X113108514Y-82330171D02*
X113394228Y-83330171D01*
X113679942Y-82615885D01*
X113965657Y-83330171D01*
X114251371Y-82330171D01*
X116822800Y-83187314D02*
X116751371Y-83258742D01*
X116537085Y-83330171D01*
X116394228Y-83330171D01*
X116179942Y-83258742D01*
X116037085Y-83115885D01*
X115965657Y-82973028D01*
X115894228Y-82687314D01*
X115894228Y-82473028D01*
X115965657Y-82187314D01*
X116037085Y-82044457D01*
X116179942Y-81901600D01*
X116394228Y-81830171D01*
X116537085Y-81830171D01*
X116751371Y-81901600D01*
X116822800Y-81973028D01*
X117679942Y-83330171D02*
X117537085Y-83258742D01*
X117465657Y-83187314D01*
X117394228Y-83044457D01*
X117394228Y-82615885D01*
X117465657Y-82473028D01*
X117537085Y-82401600D01*
X117679942Y-82330171D01*
X117894228Y-82330171D01*
X118037085Y-82401600D01*
X118108514Y-82473028D01*
X118179942Y-82615885D01*
X118179942Y-83044457D01*
X118108514Y-83187314D01*
X118037085Y-83258742D01*
X117894228Y-83330171D01*
X117679942Y-83330171D01*
X118822800Y-83330171D02*
X118822800Y-82330171D01*
X118822800Y-82473028D02*
X118894228Y-82401600D01*
X119037085Y-82330171D01*
X119251371Y-82330171D01*
X119394228Y-82401600D01*
X119465657Y-82544457D01*
X119465657Y-83330171D01*
X119465657Y-82544457D02*
X119537085Y-82401600D01*
X119679942Y-82330171D01*
X119894228Y-82330171D01*
X120037085Y-82401600D01*
X120108514Y-82544457D01*
X120108514Y-83330171D01*
X120822800Y-82330171D02*
X120822800Y-83830171D01*
X120822800Y-82401600D02*
X120965657Y-82330171D01*
X121251371Y-82330171D01*
X121394228Y-82401600D01*
X121465657Y-82473028D01*
X121537085Y-82615885D01*
X121537085Y-83044457D01*
X121465657Y-83187314D01*
X121394228Y-83258742D01*
X121251371Y-83330171D01*
X120965657Y-83330171D01*
X120822800Y-83258742D01*
X122822800Y-82330171D02*
X122822800Y-83330171D01*
X122179942Y-82330171D02*
X122179942Y-83115885D01*
X122251371Y-83258742D01*
X122394228Y-83330171D01*
X122608514Y-83330171D01*
X122751371Y-83258742D01*
X122822800Y-83187314D01*
X123322800Y-82330171D02*
X123894228Y-82330171D01*
X123537085Y-81830171D02*
X123537085Y-83115885D01*
X123608514Y-83258742D01*
X123751371Y-83330171D01*
X123894228Y-83330171D01*
X124965657Y-83258742D02*
X124822800Y-83330171D01*
X124537085Y-83330171D01*
X124394228Y-83258742D01*
X124322800Y-83115885D01*
X124322800Y-82544457D01*
X124394228Y-82401600D01*
X124537085Y-82330171D01*
X124822800Y-82330171D01*
X124965657Y-82401600D01*
X125037085Y-82544457D01*
X125037085Y-82687314D01*
X124322800Y-82830171D01*
X125679942Y-83330171D02*
X125679942Y-82330171D01*
X125679942Y-82615885D02*
X125751371Y-82473028D01*
X125822800Y-82401600D01*
X125965657Y-82330171D01*
X126108514Y-82330171D01*
D10*
X135146809Y-82725180D02*
X135146809Y-83439466D01*
X135099190Y-83582323D01*
X135003952Y-83677561D01*
X134861095Y-83725180D01*
X134765857Y-83725180D01*
X135623000Y-83725180D02*
X135623000Y-82725180D01*
X136003952Y-82725180D01*
X136099190Y-82772800D01*
X136146809Y-82820419D01*
X136194428Y-82915657D01*
X136194428Y-83058514D01*
X136146809Y-83153752D01*
X136099190Y-83201371D01*
X136003952Y-83248990D01*
X135623000Y-83248990D01*
X136575380Y-82820419D02*
X136623000Y-82772800D01*
X136718238Y-82725180D01*
X136956333Y-82725180D01*
X137051571Y-82772800D01*
X137099190Y-82820419D01*
X137146809Y-82915657D01*
X137146809Y-83010895D01*
X137099190Y-83153752D01*
X136527761Y-83725180D01*
X137146809Y-83725180D01*
X138670619Y-83201371D02*
X138337285Y-83201371D01*
X138337285Y-83725180D02*
X138337285Y-82725180D01*
X138813476Y-82725180D01*
X139194428Y-83725180D02*
X139194428Y-82725180D01*
X139432523Y-82725180D01*
X139575380Y-82772800D01*
X139670619Y-82868038D01*
X139718238Y-82963276D01*
X139765857Y-83153752D01*
X139765857Y-83296609D01*
X139718238Y-83487085D01*
X139670619Y-83582323D01*
X139575380Y-83677561D01*
X139432523Y-83725180D01*
X139194428Y-83725180D01*
X140765857Y-83629942D02*
X140718238Y-83677561D01*
X140575380Y-83725180D01*
X140480142Y-83725180D01*
X140337285Y-83677561D01*
X140242047Y-83582323D01*
X140194428Y-83487085D01*
X140146809Y-83296609D01*
X140146809Y-83153752D01*
X140194428Y-82963276D01*
X140242047Y-82868038D01*
X140337285Y-82772800D01*
X140480142Y-82725180D01*
X140575380Y-82725180D01*
X140718238Y-82772800D01*
X140765857Y-82820419D01*
X141861095Y-82725180D02*
X142099190Y-83725180D01*
X142289666Y-83010895D01*
X142480142Y-83725180D01*
X142718238Y-82725180D01*
X143051571Y-83439466D02*
X143527761Y-83439466D01*
X142956333Y-83725180D02*
X143289666Y-82725180D01*
X143623000Y-83725180D01*
X143956333Y-83725180D02*
X143956333Y-82725180D01*
X144289666Y-82725180D02*
X144861095Y-82725180D01*
X144575380Y-83725180D02*
X144575380Y-82725180D01*
X135146809Y-84335180D02*
X135146809Y-85049466D01*
X135099190Y-85192323D01*
X135003952Y-85287561D01*
X134861095Y-85335180D01*
X134765857Y-85335180D01*
X135623000Y-85335180D02*
X135623000Y-84335180D01*
X136003952Y-84335180D01*
X136099190Y-84382800D01*
X136146809Y-84430419D01*
X136194428Y-84525657D01*
X136194428Y-84668514D01*
X136146809Y-84763752D01*
X136099190Y-84811371D01*
X136003952Y-84858990D01*
X135623000Y-84858990D01*
X136527761Y-84335180D02*
X137146809Y-84335180D01*
X136813476Y-84716133D01*
X136956333Y-84716133D01*
X137051571Y-84763752D01*
X137099190Y-84811371D01*
X137146809Y-84906609D01*
X137146809Y-85144704D01*
X137099190Y-85239942D01*
X137051571Y-85287561D01*
X136956333Y-85335180D01*
X136670619Y-85335180D01*
X136575380Y-85287561D01*
X136527761Y-85239942D01*
X138670619Y-84811371D02*
X138337285Y-84811371D01*
X138337285Y-85335180D02*
X138337285Y-84335180D01*
X138813476Y-84335180D01*
X139194428Y-85335180D02*
X139194428Y-84335180D01*
X139432523Y-84335180D01*
X139575380Y-84382800D01*
X139670619Y-84478038D01*
X139718238Y-84573276D01*
X139765857Y-84763752D01*
X139765857Y-84906609D01*
X139718238Y-85097085D01*
X139670619Y-85192323D01*
X139575380Y-85287561D01*
X139432523Y-85335180D01*
X139194428Y-85335180D01*
X140765857Y-85239942D02*
X140718238Y-85287561D01*
X140575380Y-85335180D01*
X140480142Y-85335180D01*
X140337285Y-85287561D01*
X140242047Y-85192323D01*
X140194428Y-85097085D01*
X140146809Y-84906609D01*
X140146809Y-84763752D01*
X140194428Y-84573276D01*
X140242047Y-84478038D01*
X140337285Y-84382800D01*
X140480142Y-84335180D01*
X140575380Y-84335180D01*
X140718238Y-84382800D01*
X140765857Y-84430419D01*
X142289666Y-84811371D02*
X141956333Y-84811371D01*
X141956333Y-85335180D02*
X141956333Y-84335180D01*
X142432523Y-84335180D01*
X142765857Y-85049466D02*
X143242047Y-85049466D01*
X142670619Y-85335180D02*
X143003952Y-84335180D01*
X143337285Y-85335180D01*
X143670619Y-84335180D02*
X143670619Y-85144704D01*
X143718238Y-85239942D01*
X143765857Y-85287561D01*
X143861095Y-85335180D01*
X144051571Y-85335180D01*
X144146809Y-85287561D01*
X144194428Y-85239942D01*
X144242047Y-85144704D01*
X144242047Y-84335180D01*
X145194428Y-85335180D02*
X144718238Y-85335180D01*
X144718238Y-84335180D01*
X145384904Y-84335180D02*
X145956333Y-84335180D01*
X145670619Y-85335180D02*
X145670619Y-84335180D01*
X135146809Y-85945180D02*
X135146809Y-86659466D01*
X135099190Y-86802323D01*
X135003952Y-86897561D01*
X134861095Y-86945180D01*
X134765857Y-86945180D01*
X135623000Y-86945180D02*
X135623000Y-85945180D01*
X136003952Y-85945180D01*
X136099190Y-85992800D01*
X136146809Y-86040419D01*
X136194428Y-86135657D01*
X136194428Y-86278514D01*
X136146809Y-86373752D01*
X136099190Y-86421371D01*
X136003952Y-86468990D01*
X135623000Y-86468990D01*
X137051571Y-86278514D02*
X137051571Y-86945180D01*
X136813476Y-85897561D02*
X136575380Y-86611847D01*
X137194428Y-86611847D01*
X138670619Y-86421371D02*
X138337285Y-86421371D01*
X138337285Y-86945180D02*
X138337285Y-85945180D01*
X138813476Y-85945180D01*
X139194428Y-86945180D02*
X139194428Y-85945180D01*
X139432523Y-85945180D01*
X139575380Y-85992800D01*
X139670619Y-86088038D01*
X139718238Y-86183276D01*
X139765857Y-86373752D01*
X139765857Y-86516609D01*
X139718238Y-86707085D01*
X139670619Y-86802323D01*
X139575380Y-86897561D01*
X139432523Y-86945180D01*
X139194428Y-86945180D01*
X140765857Y-86849942D02*
X140718238Y-86897561D01*
X140575380Y-86945180D01*
X140480142Y-86945180D01*
X140337285Y-86897561D01*
X140242047Y-86802323D01*
X140194428Y-86707085D01*
X140146809Y-86516609D01*
X140146809Y-86373752D01*
X140194428Y-86183276D01*
X140242047Y-86088038D01*
X140337285Y-85992800D01*
X140480142Y-85945180D01*
X140575380Y-85945180D01*
X140718238Y-85992800D01*
X140765857Y-86040419D01*
X141813476Y-85945180D02*
X142384904Y-85945180D01*
X142099190Y-86945180D02*
X142099190Y-85945180D01*
X142670619Y-86897561D02*
X142813476Y-86945180D01*
X143051571Y-86945180D01*
X143146809Y-86897561D01*
X143194428Y-86849942D01*
X143242047Y-86754704D01*
X143242047Y-86659466D01*
X143194428Y-86564228D01*
X143146809Y-86516609D01*
X143051571Y-86468990D01*
X142861095Y-86421371D01*
X142765857Y-86373752D01*
X142718238Y-86326133D01*
X142670619Y-86230895D01*
X142670619Y-86135657D01*
X142718238Y-86040419D01*
X142765857Y-85992800D01*
X142861095Y-85945180D01*
X143099190Y-85945180D01*
X143242047Y-85992800D01*
X135146809Y-87555180D02*
X135146809Y-88269466D01*
X135099190Y-88412323D01*
X135003952Y-88507561D01*
X134861095Y-88555180D01*
X134765857Y-88555180D01*
X135623000Y-88555180D02*
X135623000Y-87555180D01*
X136003952Y-87555180D01*
X136099190Y-87602800D01*
X136146809Y-87650419D01*
X136194428Y-87745657D01*
X136194428Y-87888514D01*
X136146809Y-87983752D01*
X136099190Y-88031371D01*
X136003952Y-88078990D01*
X135623000Y-88078990D01*
X137051571Y-87555180D02*
X136861095Y-87555180D01*
X136765857Y-87602800D01*
X136718238Y-87650419D01*
X136623000Y-87793276D01*
X136575380Y-87983752D01*
X136575380Y-88364704D01*
X136623000Y-88459942D01*
X136670619Y-88507561D01*
X136765857Y-88555180D01*
X136956333Y-88555180D01*
X137051571Y-88507561D01*
X137099190Y-88459942D01*
X137146809Y-88364704D01*
X137146809Y-88126609D01*
X137099190Y-88031371D01*
X137051571Y-87983752D01*
X136956333Y-87936133D01*
X136765857Y-87936133D01*
X136670619Y-87983752D01*
X136623000Y-88031371D01*
X136575380Y-88126609D01*
X138670619Y-88031371D02*
X138337285Y-88031371D01*
X138337285Y-88555180D02*
X138337285Y-87555180D01*
X138813476Y-87555180D01*
X139194428Y-88555180D02*
X139194428Y-87555180D01*
X139432523Y-87555180D01*
X139575380Y-87602800D01*
X139670619Y-87698038D01*
X139718238Y-87793276D01*
X139765857Y-87983752D01*
X139765857Y-88126609D01*
X139718238Y-88317085D01*
X139670619Y-88412323D01*
X139575380Y-88507561D01*
X139432523Y-88555180D01*
X139194428Y-88555180D01*
X140765857Y-88459942D02*
X140718238Y-88507561D01*
X140575380Y-88555180D01*
X140480142Y-88555180D01*
X140337285Y-88507561D01*
X140242047Y-88412323D01*
X140194428Y-88317085D01*
X140146809Y-88126609D01*
X140146809Y-87983752D01*
X140194428Y-87793276D01*
X140242047Y-87698038D01*
X140337285Y-87602800D01*
X140480142Y-87555180D01*
X140575380Y-87555180D01*
X140718238Y-87602800D01*
X140765857Y-87650419D01*
X142527761Y-88555180D02*
X142194428Y-88078990D01*
X141956333Y-88555180D02*
X141956333Y-87555180D01*
X142337285Y-87555180D01*
X142432523Y-87602800D01*
X142480142Y-87650419D01*
X142527761Y-87745657D01*
X142527761Y-87888514D01*
X142480142Y-87983752D01*
X142432523Y-88031371D01*
X142337285Y-88078990D01*
X141956333Y-88078990D01*
X142956333Y-88555180D02*
X142956333Y-87555180D01*
X143194428Y-87555180D01*
X143337285Y-87602800D01*
X143432523Y-87698038D01*
X143480142Y-87793276D01*
X143527761Y-87983752D01*
X143527761Y-88126609D01*
X143480142Y-88317085D01*
X143432523Y-88412323D01*
X143337285Y-88507561D01*
X143194428Y-88555180D01*
X142956333Y-88555180D01*
X144146809Y-88078990D02*
X144146809Y-88555180D01*
X143813476Y-87555180D02*
X144146809Y-88078990D01*
X144480142Y-87555180D01*
X136908714Y-90165180D02*
X136337285Y-90165180D01*
X136623000Y-90165180D02*
X136623000Y-89165180D01*
X136527761Y-89308038D01*
X136432523Y-89403276D01*
X136337285Y-89450895D01*
X137337285Y-89784228D02*
X138099190Y-89784228D01*
X138527761Y-89260419D02*
X138575380Y-89212800D01*
X138670619Y-89165180D01*
X138908714Y-89165180D01*
X139003952Y-89212800D01*
X139051571Y-89260419D01*
X139099190Y-89355657D01*
X139099190Y-89450895D01*
X139051571Y-89593752D01*
X138480142Y-90165180D01*
X139099190Y-90165180D01*
X140242047Y-89879466D02*
X140718238Y-89879466D01*
X140146809Y-90165180D02*
X140480142Y-89165180D01*
X140813476Y-90165180D01*
X141623000Y-90165180D02*
X141146809Y-90165180D01*
X141146809Y-89165180D01*
X141861095Y-89165180D02*
X142099190Y-90165180D01*
X142289666Y-89450895D01*
X142480142Y-90165180D01*
X142718238Y-89165180D01*
X143051571Y-89879466D02*
X143527761Y-89879466D01*
X142956333Y-90165180D02*
X143289666Y-89165180D01*
X143623000Y-90165180D01*
X144146809Y-89688990D02*
X144146809Y-90165180D01*
X143813476Y-89165180D02*
X144146809Y-89688990D01*
X144480142Y-89165180D01*
X144765857Y-90117561D02*
X144908714Y-90165180D01*
X145146809Y-90165180D01*
X145242047Y-90117561D01*
X145289666Y-90069942D01*
X145337285Y-89974704D01*
X145337285Y-89879466D01*
X145289666Y-89784228D01*
X145242047Y-89736609D01*
X145146809Y-89688990D01*
X144956333Y-89641371D01*
X144861095Y-89593752D01*
X144813476Y-89546133D01*
X144765857Y-89450895D01*
X144765857Y-89355657D01*
X144813476Y-89260419D01*
X144861095Y-89212800D01*
X144956333Y-89165180D01*
X145194428Y-89165180D01*
X145337285Y-89212800D01*
X136337285Y-90870419D02*
X136384904Y-90822800D01*
X136480142Y-90775180D01*
X136718238Y-90775180D01*
X136813476Y-90822800D01*
X136861095Y-90870419D01*
X136908714Y-90965657D01*
X136908714Y-91060895D01*
X136861095Y-91203752D01*
X136289666Y-91775180D01*
X136908714Y-91775180D01*
X137337285Y-91394228D02*
X138099190Y-91394228D01*
X138480142Y-90775180D02*
X139099190Y-90775180D01*
X138765857Y-91156133D01*
X138908714Y-91156133D01*
X139003952Y-91203752D01*
X139051571Y-91251371D01*
X139099190Y-91346609D01*
X139099190Y-91584704D01*
X139051571Y-91679942D01*
X139003952Y-91727561D01*
X138908714Y-91775180D01*
X138623000Y-91775180D01*
X138527761Y-91727561D01*
X138480142Y-91679942D01*
X140289666Y-91775180D02*
X140289666Y-90775180D01*
X140527761Y-90775180D01*
X140670619Y-90822800D01*
X140765857Y-90918038D01*
X140813476Y-91013276D01*
X140861095Y-91203752D01*
X140861095Y-91346609D01*
X140813476Y-91537085D01*
X140765857Y-91632323D01*
X140670619Y-91727561D01*
X140527761Y-91775180D01*
X140289666Y-91775180D01*
X141861095Y-91775180D02*
X141527761Y-91298990D01*
X141289666Y-91775180D02*
X141289666Y-90775180D01*
X141670619Y-90775180D01*
X141765857Y-90822800D01*
X141813476Y-90870419D01*
X141861095Y-90965657D01*
X141861095Y-91108514D01*
X141813476Y-91203752D01*
X141765857Y-91251371D01*
X141670619Y-91298990D01*
X141289666Y-91298990D01*
X142289666Y-91775180D02*
X142289666Y-90775180D01*
X142623000Y-90775180D02*
X142956333Y-91775180D01*
X143289666Y-90775180D01*
X143623000Y-91251371D02*
X143956333Y-91251371D01*
X144099190Y-91775180D02*
X143623000Y-91775180D01*
X143623000Y-90775180D01*
X144099190Y-90775180D01*
X135146809Y-92385180D02*
X135146809Y-93099466D01*
X135099190Y-93242323D01*
X135003952Y-93337561D01*
X134861095Y-93385180D01*
X134765857Y-93385180D01*
X135623000Y-93385180D02*
X135623000Y-92385180D01*
X136003952Y-92385180D01*
X136099190Y-92432800D01*
X136146809Y-92480419D01*
X136194428Y-92575657D01*
X136194428Y-92718514D01*
X136146809Y-92813752D01*
X136099190Y-92861371D01*
X136003952Y-92908990D01*
X135623000Y-92908990D01*
X136527761Y-92385180D02*
X137194428Y-92385180D01*
X136765857Y-93385180D01*
X138670619Y-92861371D02*
X138337285Y-92861371D01*
X138337285Y-93385180D02*
X138337285Y-92385180D01*
X138813476Y-92385180D01*
X139194428Y-93385180D02*
X139194428Y-92385180D01*
X139432523Y-92385180D01*
X139575380Y-92432800D01*
X139670619Y-92528038D01*
X139718238Y-92623276D01*
X139765857Y-92813752D01*
X139765857Y-92956609D01*
X139718238Y-93147085D01*
X139670619Y-93242323D01*
X139575380Y-93337561D01*
X139432523Y-93385180D01*
X139194428Y-93385180D01*
X140765857Y-93289942D02*
X140718238Y-93337561D01*
X140575380Y-93385180D01*
X140480142Y-93385180D01*
X140337285Y-93337561D01*
X140242047Y-93242323D01*
X140194428Y-93147085D01*
X140146809Y-92956609D01*
X140146809Y-92813752D01*
X140194428Y-92623276D01*
X140242047Y-92528038D01*
X140337285Y-92432800D01*
X140480142Y-92385180D01*
X140575380Y-92385180D01*
X140718238Y-92432800D01*
X140765857Y-92480419D01*
X141956333Y-93385180D02*
X141956333Y-92385180D01*
X142289666Y-93099466D01*
X142623000Y-92385180D01*
X142623000Y-93385180D01*
X143099190Y-93385180D02*
X143099190Y-92385180D01*
X143575380Y-93385180D02*
X143575380Y-92385180D01*
X144146809Y-93385180D01*
X144146809Y-92385180D01*
X144623000Y-93385180D02*
X144623000Y-92385180D01*
X136908714Y-94995180D02*
X136337285Y-94995180D01*
X136623000Y-94995180D02*
X136623000Y-93995180D01*
X136527761Y-94138038D01*
X136432523Y-94233276D01*
X136337285Y-94280895D01*
X137337285Y-94614228D02*
X138099190Y-94614228D01*
X138527761Y-94090419D02*
X138575380Y-94042800D01*
X138670619Y-93995180D01*
X138908714Y-93995180D01*
X139003952Y-94042800D01*
X139051571Y-94090419D01*
X139099190Y-94185657D01*
X139099190Y-94280895D01*
X139051571Y-94423752D01*
X138480142Y-94995180D01*
X139099190Y-94995180D01*
X140765857Y-94995180D02*
X140289666Y-94995180D01*
X140289666Y-93995180D01*
X141289666Y-93995180D02*
X141480142Y-93995180D01*
X141575380Y-94042800D01*
X141670619Y-94138038D01*
X141718238Y-94328514D01*
X141718238Y-94661847D01*
X141670619Y-94852323D01*
X141575380Y-94947561D01*
X141480142Y-94995180D01*
X141289666Y-94995180D01*
X141194428Y-94947561D01*
X141099190Y-94852323D01*
X141051571Y-94661847D01*
X141051571Y-94328514D01*
X141099190Y-94138038D01*
X141194428Y-94042800D01*
X141289666Y-93995180D01*
X142051571Y-93995180D02*
X142289666Y-94995180D01*
X142480142Y-94280895D01*
X142670619Y-94995180D01*
X142908714Y-93995180D01*
X136337285Y-95700419D02*
X136384904Y-95652800D01*
X136480142Y-95605180D01*
X136718238Y-95605180D01*
X136813476Y-95652800D01*
X136861095Y-95700419D01*
X136908714Y-95795657D01*
X136908714Y-95890895D01*
X136861095Y-96033752D01*
X136289666Y-96605180D01*
X136908714Y-96605180D01*
X137337285Y-96224228D02*
X138099190Y-96224228D01*
X138480142Y-95605180D02*
X139099190Y-95605180D01*
X138765857Y-95986133D01*
X138908714Y-95986133D01*
X139003952Y-96033752D01*
X139051571Y-96081371D01*
X139099190Y-96176609D01*
X139099190Y-96414704D01*
X139051571Y-96509942D01*
X139003952Y-96557561D01*
X138908714Y-96605180D01*
X138623000Y-96605180D01*
X138527761Y-96557561D01*
X138480142Y-96509942D01*
X140289666Y-96605180D02*
X140289666Y-95605180D01*
X140289666Y-96081371D02*
X140861095Y-96081371D01*
X140861095Y-96605180D02*
X140861095Y-95605180D01*
X141337285Y-96605180D02*
X141337285Y-95605180D01*
X142337285Y-95652800D02*
X142242047Y-95605180D01*
X142099190Y-95605180D01*
X141956333Y-95652800D01*
X141861095Y-95748038D01*
X141813476Y-95843276D01*
X141765857Y-96033752D01*
X141765857Y-96176609D01*
X141813476Y-96367085D01*
X141861095Y-96462323D01*
X141956333Y-96557561D01*
X142099190Y-96605180D01*
X142194428Y-96605180D01*
X142337285Y-96557561D01*
X142384904Y-96509942D01*
X142384904Y-96176609D01*
X142194428Y-96176609D01*
X142813476Y-96605180D02*
X142813476Y-95605180D01*
X142813476Y-96081371D02*
X143384904Y-96081371D01*
X143384904Y-96605180D02*
X143384904Y-95605180D01*
X134381628Y-123169371D02*
X134048295Y-123169371D01*
X134048295Y-123693180D02*
X134048295Y-122693180D01*
X134524485Y-122693180D01*
X135381628Y-123693180D02*
X134905438Y-123693180D01*
X134905438Y-122693180D01*
X135905438Y-122693180D02*
X136095914Y-122693180D01*
X136191152Y-122740800D01*
X136286390Y-122836038D01*
X136334009Y-123026514D01*
X136334009Y-123359847D01*
X136286390Y-123550323D01*
X136191152Y-123645561D01*
X136095914Y-123693180D01*
X135905438Y-123693180D01*
X135810200Y-123645561D01*
X135714961Y-123550323D01*
X135667342Y-123359847D01*
X135667342Y-123026514D01*
X135714961Y-122836038D01*
X135810200Y-122740800D01*
X135905438Y-122693180D01*
X136762580Y-123693180D02*
X136762580Y-122693180D01*
X137143533Y-122693180D01*
X137238771Y-122740800D01*
X137286390Y-122788419D01*
X137334009Y-122883657D01*
X137334009Y-123026514D01*
X137286390Y-123121752D01*
X137238771Y-123169371D01*
X137143533Y-123216990D01*
X136762580Y-123216990D01*
X137762580Y-123693180D02*
X137762580Y-122693180D01*
X138143533Y-122693180D01*
X138238771Y-122740800D01*
X138286390Y-122788419D01*
X138334009Y-122883657D01*
X138334009Y-123026514D01*
X138286390Y-123121752D01*
X138238771Y-123169371D01*
X138143533Y-123216990D01*
X137762580Y-123216990D01*
X138953057Y-123216990D02*
X138953057Y-123693180D01*
X138619723Y-122693180D02*
X138953057Y-123216990D01*
X139286390Y-122693180D01*
X99478895Y-85092980D02*
X99478895Y-84092980D01*
X99478895Y-84473933D02*
X99574133Y-84426314D01*
X99764609Y-84426314D01*
X99859847Y-84473933D01*
X99907466Y-84521552D01*
X99955085Y-84616790D01*
X99955085Y-84902504D01*
X99907466Y-84997742D01*
X99859847Y-85045361D01*
X99764609Y-85092980D01*
X99574133Y-85092980D01*
X99478895Y-85045361D01*
X100288419Y-84426314D02*
X100526514Y-85092980D01*
X100764609Y-84426314D02*
X100526514Y-85092980D01*
X100431276Y-85331076D01*
X100383657Y-85378695D01*
X100288419Y-85426314D01*
X101907466Y-85092980D02*
X101907466Y-84092980D01*
X102145561Y-84092980D01*
X102288419Y-84140600D01*
X102383657Y-84235838D01*
X102431276Y-84331076D01*
X102478895Y-84521552D01*
X102478895Y-84664409D01*
X102431276Y-84854885D01*
X102383657Y-84950123D01*
X102288419Y-85045361D01*
X102145561Y-85092980D01*
X101907466Y-85092980D01*
X103288419Y-85045361D02*
X103193180Y-85092980D01*
X103002704Y-85092980D01*
X102907466Y-85045361D01*
X102859847Y-84950123D01*
X102859847Y-84569171D01*
X102907466Y-84473933D01*
X103002704Y-84426314D01*
X103193180Y-84426314D01*
X103288419Y-84473933D01*
X103336038Y-84569171D01*
X103336038Y-84664409D01*
X102859847Y-84759647D01*
X103764609Y-84426314D02*
X103764609Y-85092980D01*
X103764609Y-84521552D02*
X103812228Y-84473933D01*
X103907466Y-84426314D01*
X104050323Y-84426314D01*
X104145561Y-84473933D01*
X104193180Y-84569171D01*
X104193180Y-85092980D01*
X104669371Y-84426314D02*
X104669371Y-85092980D01*
X104669371Y-84521552D02*
X104716990Y-84473933D01*
X104812228Y-84426314D01*
X104955085Y-84426314D01*
X105050323Y-84473933D01*
X105097942Y-84569171D01*
X105097942Y-85092980D01*
X105574133Y-85092980D02*
X105574133Y-84426314D01*
X105574133Y-84092980D02*
X105526514Y-84140600D01*
X105574133Y-84188219D01*
X105621752Y-84140600D01*
X105574133Y-84092980D01*
X105574133Y-84188219D01*
X106002704Y-85045361D02*
X106097942Y-85092980D01*
X106288419Y-85092980D01*
X106383657Y-85045361D01*
X106431276Y-84950123D01*
X106431276Y-84902504D01*
X106383657Y-84807266D01*
X106288419Y-84759647D01*
X106145561Y-84759647D01*
X106050323Y-84712028D01*
X106002704Y-84616790D01*
X106002704Y-84569171D01*
X106050323Y-84473933D01*
X106145561Y-84426314D01*
X106288419Y-84426314D01*
X106383657Y-84473933D01*
X108145561Y-84140600D02*
X108050323Y-84092980D01*
X107907466Y-84092980D01*
X107764609Y-84140600D01*
X107669371Y-84235838D01*
X107621752Y-84331076D01*
X107574133Y-84521552D01*
X107574133Y-84664409D01*
X107621752Y-84854885D01*
X107669371Y-84950123D01*
X107764609Y-85045361D01*
X107907466Y-85092980D01*
X108002704Y-85092980D01*
X108145561Y-85045361D01*
X108193180Y-84997742D01*
X108193180Y-84664409D01*
X108002704Y-84664409D01*
X109050323Y-84426314D02*
X109050323Y-85092980D01*
X108621752Y-84426314D02*
X108621752Y-84950123D01*
X108669371Y-85045361D01*
X108764609Y-85092980D01*
X108907466Y-85092980D01*
X109002704Y-85045361D01*
X109050323Y-84997742D01*
X109526514Y-84426314D02*
X109526514Y-85092980D01*
X109526514Y-84521552D02*
X109574133Y-84473933D01*
X109669371Y-84426314D01*
X109812228Y-84426314D01*
X109907466Y-84473933D01*
X109955085Y-84569171D01*
X109955085Y-85092980D01*
X110431276Y-85092980D02*
X110431276Y-84426314D01*
X110431276Y-84092980D02*
X110383657Y-84140600D01*
X110431276Y-84188219D01*
X110478895Y-84140600D01*
X110431276Y-84092980D01*
X110431276Y-84188219D01*
X111336038Y-85092980D02*
X111336038Y-84569171D01*
X111288419Y-84473933D01*
X111193180Y-84426314D01*
X111002704Y-84426314D01*
X110907466Y-84473933D01*
X111336038Y-85045361D02*
X111240800Y-85092980D01*
X111002704Y-85092980D01*
X110907466Y-85045361D01*
X110859847Y-84950123D01*
X110859847Y-84854885D01*
X110907466Y-84759647D01*
X111002704Y-84712028D01*
X111240800Y-84712028D01*
X111336038Y-84664409D01*
X112859847Y-85473933D02*
X112812228Y-85426314D01*
X112716990Y-85283457D01*
X112669371Y-85188219D01*
X112621752Y-85045361D01*
X112574133Y-84807266D01*
X112574133Y-84616790D01*
X112621752Y-84378695D01*
X112669371Y-84235838D01*
X112716990Y-84140600D01*
X112812228Y-83997742D01*
X112859847Y-83950123D01*
X113193180Y-84188219D02*
X113240800Y-84140600D01*
X113336038Y-84092980D01*
X113574133Y-84092980D01*
X113669371Y-84140600D01*
X113716990Y-84188219D01*
X113764609Y-84283457D01*
X113764609Y-84378695D01*
X113716990Y-84521552D01*
X113145561Y-85092980D01*
X113764609Y-85092980D01*
X114383657Y-84092980D02*
X114478895Y-84092980D01*
X114574133Y-84140600D01*
X114621752Y-84188219D01*
X114669371Y-84283457D01*
X114716990Y-84473933D01*
X114716990Y-84712028D01*
X114669371Y-84902504D01*
X114621752Y-84997742D01*
X114574133Y-85045361D01*
X114478895Y-85092980D01*
X114383657Y-85092980D01*
X114288419Y-85045361D01*
X114240800Y-84997742D01*
X114193180Y-84902504D01*
X114145561Y-84712028D01*
X114145561Y-84473933D01*
X114193180Y-84283457D01*
X114240800Y-84188219D01*
X114288419Y-84140600D01*
X114383657Y-84092980D01*
X115097942Y-84188219D02*
X115145561Y-84140600D01*
X115240800Y-84092980D01*
X115478895Y-84092980D01*
X115574133Y-84140600D01*
X115621752Y-84188219D01*
X115669371Y-84283457D01*
X115669371Y-84378695D01*
X115621752Y-84521552D01*
X115050323Y-85092980D01*
X115669371Y-85092980D01*
X116050323Y-84188219D02*
X116097942Y-84140600D01*
X116193180Y-84092980D01*
X116431276Y-84092980D01*
X116526514Y-84140600D01*
X116574133Y-84188219D01*
X116621752Y-84283457D01*
X116621752Y-84378695D01*
X116574133Y-84521552D01*
X116002704Y-85092980D01*
X116621752Y-85092980D01*
X116955085Y-85473933D02*
X117002704Y-85426314D01*
X117097942Y-85283457D01*
X117145561Y-85188219D01*
X117193180Y-85045361D01*
X117240800Y-84807266D01*
X117240800Y-84616790D01*
X117193180Y-84378695D01*
X117145561Y-84235838D01*
X117097942Y-84140600D01*
X117002704Y-83997742D01*
X116955085Y-83950123D01*
X99383657Y-86036314D02*
X99574133Y-86702980D01*
X99764609Y-86226790D01*
X99955085Y-86702980D01*
X100145561Y-86036314D01*
X100431276Y-86036314D02*
X100621752Y-86702980D01*
X100812228Y-86226790D01*
X101002704Y-86702980D01*
X101193180Y-86036314D01*
X101478895Y-86036314D02*
X101669371Y-86702980D01*
X101859847Y-86226790D01*
X102050323Y-86702980D01*
X102240800Y-86036314D01*
X102621752Y-86607742D02*
X102669371Y-86655361D01*
X102621752Y-86702980D01*
X102574133Y-86655361D01*
X102621752Y-86607742D01*
X102621752Y-86702980D01*
X103526514Y-86702980D02*
X103526514Y-85702980D01*
X103526514Y-86655361D02*
X103431276Y-86702980D01*
X103240800Y-86702980D01*
X103145561Y-86655361D01*
X103097942Y-86607742D01*
X103050323Y-86512504D01*
X103050323Y-86226790D01*
X103097942Y-86131552D01*
X103145561Y-86083933D01*
X103240800Y-86036314D01*
X103431276Y-86036314D01*
X103526514Y-86083933D01*
X104383657Y-86655361D02*
X104288419Y-86702980D01*
X104097942Y-86702980D01*
X104002704Y-86655361D01*
X103955085Y-86560123D01*
X103955085Y-86179171D01*
X104002704Y-86083933D01*
X104097942Y-86036314D01*
X104288419Y-86036314D01*
X104383657Y-86083933D01*
X104431276Y-86179171D01*
X104431276Y-86274409D01*
X103955085Y-86369647D01*
X104859847Y-86036314D02*
X104859847Y-86702980D01*
X104859847Y-86131552D02*
X104907466Y-86083933D01*
X105002704Y-86036314D01*
X105145561Y-86036314D01*
X105240800Y-86083933D01*
X105288419Y-86179171D01*
X105288419Y-86702980D01*
X105764609Y-86036314D02*
X105764609Y-86702980D01*
X105764609Y-86131552D02*
X105812228Y-86083933D01*
X105907466Y-86036314D01*
X106050323Y-86036314D01*
X106145561Y-86083933D01*
X106193180Y-86179171D01*
X106193180Y-86702980D01*
X106669371Y-86702980D02*
X106669371Y-86036314D01*
X106669371Y-85702980D02*
X106621752Y-85750600D01*
X106669371Y-85798219D01*
X106716990Y-85750600D01*
X106669371Y-85702980D01*
X106669371Y-85798219D01*
X107097942Y-86655361D02*
X107193180Y-86702980D01*
X107383657Y-86702980D01*
X107478895Y-86655361D01*
X107526514Y-86560123D01*
X107526514Y-86512504D01*
X107478895Y-86417266D01*
X107383657Y-86369647D01*
X107240800Y-86369647D01*
X107145561Y-86322028D01*
X107097942Y-86226790D01*
X107097942Y-86179171D01*
X107145561Y-86083933D01*
X107240800Y-86036314D01*
X107383657Y-86036314D01*
X107478895Y-86083933D01*
X108383657Y-86036314D02*
X108383657Y-86845838D01*
X108336038Y-86941076D01*
X108288419Y-86988695D01*
X108193180Y-87036314D01*
X108050323Y-87036314D01*
X107955085Y-86988695D01*
X108383657Y-86655361D02*
X108288419Y-86702980D01*
X108097942Y-86702980D01*
X108002704Y-86655361D01*
X107955085Y-86607742D01*
X107907466Y-86512504D01*
X107907466Y-86226790D01*
X107955085Y-86131552D01*
X108002704Y-86083933D01*
X108097942Y-86036314D01*
X108288419Y-86036314D01*
X108383657Y-86083933D01*
X109288419Y-86036314D02*
X109288419Y-86702980D01*
X108859847Y-86036314D02*
X108859847Y-86560123D01*
X108907466Y-86655361D01*
X109002704Y-86702980D01*
X109145561Y-86702980D01*
X109240800Y-86655361D01*
X109288419Y-86607742D01*
X109764609Y-86036314D02*
X109764609Y-86702980D01*
X109764609Y-86131552D02*
X109812228Y-86083933D01*
X109907466Y-86036314D01*
X110050323Y-86036314D01*
X110145561Y-86083933D01*
X110193180Y-86179171D01*
X110193180Y-86702980D01*
X110669371Y-86702980D02*
X110669371Y-86036314D01*
X110669371Y-85702980D02*
X110621752Y-85750600D01*
X110669371Y-85798219D01*
X110716990Y-85750600D01*
X110669371Y-85702980D01*
X110669371Y-85798219D01*
X111574133Y-86702980D02*
X111574133Y-86179171D01*
X111526514Y-86083933D01*
X111431276Y-86036314D01*
X111240800Y-86036314D01*
X111145561Y-86083933D01*
X111574133Y-86655361D02*
X111478895Y-86702980D01*
X111240800Y-86702980D01*
X111145561Y-86655361D01*
X111097942Y-86560123D01*
X111097942Y-86464885D01*
X111145561Y-86369647D01*
X111240800Y-86322028D01*
X111478895Y-86322028D01*
X111574133Y-86274409D01*
X112050323Y-86607742D02*
X112097942Y-86655361D01*
X112050323Y-86702980D01*
X112002704Y-86655361D01*
X112050323Y-86607742D01*
X112050323Y-86702980D01*
X112955085Y-86702980D02*
X112955085Y-85702980D01*
X112955085Y-86655361D02*
X112859847Y-86702980D01*
X112669371Y-86702980D01*
X112574133Y-86655361D01*
X112526514Y-86607742D01*
X112478895Y-86512504D01*
X112478895Y-86226790D01*
X112526514Y-86131552D01*
X112574133Y-86083933D01*
X112669371Y-86036314D01*
X112859847Y-86036314D01*
X112955085Y-86083933D01*
X113812228Y-86655361D02*
X113716990Y-86702980D01*
X113526514Y-86702980D01*
X113431276Y-86655361D01*
X113383657Y-86560123D01*
X113383657Y-86179171D01*
X113431276Y-86083933D01*
X113526514Y-86036314D01*
X113716990Y-86036314D01*
X113812228Y-86083933D01*
X113859847Y-86179171D01*
X113859847Y-86274409D01*
X113383657Y-86369647D01*
X99028391Y-88816571D02*
X99215891Y-87316571D01*
X99573033Y-87316571D01*
X99778391Y-87388000D01*
X99903391Y-87530857D01*
X99956962Y-87673714D01*
X99992676Y-87959428D01*
X99965891Y-88173714D01*
X99858748Y-88459428D01*
X99769462Y-88602285D01*
X99608748Y-88745142D01*
X99385533Y-88816571D01*
X99028391Y-88816571D01*
X100528391Y-88816571D02*
X100653391Y-87816571D01*
X100715891Y-87316571D02*
X100635533Y-87388000D01*
X100698033Y-87459428D01*
X100778391Y-87388000D01*
X100715891Y-87316571D01*
X100698033Y-87459428D01*
X101180176Y-88745142D02*
X101314105Y-88816571D01*
X101599819Y-88816571D01*
X101751605Y-88745142D01*
X101840891Y-88602285D01*
X101849819Y-88530857D01*
X101796248Y-88388000D01*
X101662319Y-88316571D01*
X101448033Y-88316571D01*
X101314105Y-88245142D01*
X101260533Y-88102285D01*
X101269462Y-88030857D01*
X101358748Y-87888000D01*
X101510533Y-87816571D01*
X101724819Y-87816571D01*
X101858748Y-87888000D01*
X102456962Y-88816571D02*
X102644462Y-87316571D01*
X102671248Y-88245142D02*
X103028391Y-88816571D01*
X103153391Y-87816571D02*
X102510533Y-88388000D01*
X104814105Y-88816571D02*
X105001605Y-87316571D01*
X105653391Y-87816571D02*
X105528391Y-88816571D01*
X105635533Y-87959428D02*
X105715891Y-87888000D01*
X105867676Y-87816571D01*
X106081962Y-87816571D01*
X106215891Y-87888000D01*
X106269462Y-88030857D01*
X106171248Y-88816571D01*
X106796248Y-87816571D02*
X107367676Y-87816571D01*
X107073033Y-87316571D02*
X106912319Y-88602285D01*
X106965891Y-88745142D01*
X107099819Y-88816571D01*
X107242676Y-88816571D01*
X108323033Y-88745142D02*
X108171248Y-88816571D01*
X107885533Y-88816571D01*
X107751605Y-88745142D01*
X107698033Y-88602285D01*
X107769462Y-88030857D01*
X107858748Y-87888000D01*
X108010533Y-87816571D01*
X108296248Y-87816571D01*
X108430176Y-87888000D01*
X108483748Y-88030857D01*
X108465891Y-88173714D01*
X107733748Y-88316571D01*
X109028391Y-88816571D02*
X109153391Y-87816571D01*
X109117676Y-88102285D02*
X109206962Y-87959428D01*
X109287319Y-87888000D01*
X109439105Y-87816571D01*
X109581962Y-87816571D01*
X109867676Y-87816571D02*
X110439105Y-87816571D01*
X109956962Y-88816571D02*
X110117676Y-87530857D01*
X110206962Y-87388000D01*
X110358748Y-87316571D01*
X110501605Y-87316571D01*
X111456962Y-88816571D02*
X111555176Y-88030857D01*
X111501605Y-87888000D01*
X111367676Y-87816571D01*
X111081962Y-87816571D01*
X110930176Y-87888000D01*
X111465891Y-88745142D02*
X111314105Y-88816571D01*
X110956962Y-88816571D01*
X110823033Y-88745142D01*
X110769462Y-88602285D01*
X110787319Y-88459428D01*
X110876605Y-88316571D01*
X111028391Y-88245142D01*
X111385533Y-88245142D01*
X111537319Y-88173714D01*
X112823033Y-88745142D02*
X112671248Y-88816571D01*
X112385533Y-88816571D01*
X112251605Y-88745142D01*
X112189105Y-88673714D01*
X112135533Y-88530857D01*
X112189105Y-88102285D01*
X112278391Y-87959428D01*
X112358748Y-87888000D01*
X112510533Y-87816571D01*
X112796248Y-87816571D01*
X112930176Y-87888000D01*
X114037319Y-88745142D02*
X113885533Y-88816571D01*
X113599819Y-88816571D01*
X113465891Y-88745142D01*
X113412319Y-88602285D01*
X113483748Y-88030857D01*
X113573033Y-87888000D01*
X113724819Y-87816571D01*
X114010533Y-87816571D01*
X114144462Y-87888000D01*
X114198033Y-88030857D01*
X114180176Y-88173714D01*
X113448033Y-88316571D01*
X116483748Y-88030857D02*
X116689105Y-88102285D01*
X116751605Y-88173714D01*
X116805176Y-88316571D01*
X116778391Y-88530857D01*
X116689105Y-88673714D01*
X116608748Y-88745142D01*
X116456962Y-88816571D01*
X115885533Y-88816571D01*
X116073033Y-87316571D01*
X116573033Y-87316571D01*
X116706962Y-87388000D01*
X116769462Y-87459428D01*
X116823033Y-87602285D01*
X116805176Y-87745142D01*
X116715891Y-87888000D01*
X116635533Y-87959428D01*
X116483748Y-88030857D01*
X115983748Y-88030857D01*
X117599819Y-88816571D02*
X117465891Y-88745142D01*
X117403391Y-88673714D01*
X117349819Y-88530857D01*
X117403391Y-88102285D01*
X117492676Y-87959428D01*
X117573033Y-87888000D01*
X117724819Y-87816571D01*
X117939105Y-87816571D01*
X118073033Y-87888000D01*
X118135533Y-87959428D01*
X118189105Y-88102285D01*
X118135533Y-88530857D01*
X118046248Y-88673714D01*
X117965891Y-88745142D01*
X117814105Y-88816571D01*
X117599819Y-88816571D01*
X119385533Y-88816571D02*
X119483748Y-88030857D01*
X119430176Y-87888000D01*
X119296248Y-87816571D01*
X119010533Y-87816571D01*
X118858748Y-87888000D01*
X119394462Y-88745142D02*
X119242676Y-88816571D01*
X118885533Y-88816571D01*
X118751605Y-88745142D01*
X118698033Y-88602285D01*
X118715891Y-88459428D01*
X118805176Y-88316571D01*
X118956962Y-88245142D01*
X119314105Y-88245142D01*
X119465891Y-88173714D01*
X120099819Y-88816571D02*
X120224819Y-87816571D01*
X120189105Y-88102285D02*
X120278391Y-87959428D01*
X120358748Y-87888000D01*
X120510533Y-87816571D01*
X120653391Y-87816571D01*
X121671248Y-88816571D02*
X121858748Y-87316571D01*
X121680176Y-88745142D02*
X121528391Y-88816571D01*
X121242676Y-88816571D01*
X121108748Y-88745142D01*
X121046248Y-88673714D01*
X120992676Y-88530857D01*
X121046248Y-88102285D01*
X121135533Y-87959428D01*
X121215891Y-87888000D01*
X121367676Y-87816571D01*
X121653391Y-87816571D01*
X121787319Y-87888000D01*
X123501605Y-87316571D02*
X123814105Y-88816571D01*
X124501605Y-87316571D01*
X125599819Y-88816571D02*
X124742676Y-88816571D01*
X125171248Y-88816571D02*
X125358748Y-87316571D01*
X125189105Y-87530857D01*
X125028391Y-87673714D01*
X124876605Y-87745142D01*
X72859695Y-123794780D02*
X72859695Y-122794780D01*
X73335885Y-123794780D02*
X73335885Y-122794780D01*
X73573980Y-122794780D01*
X73716838Y-122842400D01*
X73812076Y-122937638D01*
X73859695Y-123032876D01*
X73907314Y-123223352D01*
X73907314Y-123366209D01*
X73859695Y-123556685D01*
X73812076Y-123651923D01*
X73716838Y-123747161D01*
X73573980Y-123794780D01*
X73335885Y-123794780D01*
X74335885Y-123270971D02*
X74669219Y-123270971D01*
X74812076Y-123794780D02*
X74335885Y-123794780D01*
X74335885Y-122794780D01*
X74812076Y-122794780D01*
D12*
%TO.C,R1*%
X215733333Y-133152380D02*
X215400000Y-132676190D01*
X215161904Y-133152380D02*
X215161904Y-132152380D01*
X215542857Y-132152380D01*
X215638095Y-132200000D01*
X215685714Y-132247619D01*
X215733333Y-132342857D01*
X215733333Y-132485714D01*
X215685714Y-132580952D01*
X215638095Y-132628571D01*
X215542857Y-132676190D01*
X215161904Y-132676190D01*
X216685714Y-133152380D02*
X216114285Y-133152380D01*
X216400000Y-133152380D02*
X216400000Y-132152380D01*
X216304761Y-132295238D01*
X216209523Y-132390476D01*
X216114285Y-132438095D01*
%TO.C,Q1*%
X220884761Y-130337619D02*
X220789523Y-130290000D01*
X220694285Y-130194761D01*
X220551428Y-130051904D01*
X220456190Y-130004285D01*
X220360952Y-130004285D01*
X220408571Y-130242380D02*
X220313333Y-130194761D01*
X220218095Y-130099523D01*
X220170476Y-129909047D01*
X220170476Y-129575714D01*
X220218095Y-129385238D01*
X220313333Y-129290000D01*
X220408571Y-129242380D01*
X220599047Y-129242380D01*
X220694285Y-129290000D01*
X220789523Y-129385238D01*
X220837142Y-129575714D01*
X220837142Y-129909047D01*
X220789523Y-130099523D01*
X220694285Y-130194761D01*
X220599047Y-130242380D01*
X220408571Y-130242380D01*
X221789523Y-130242380D02*
X221218095Y-130242380D01*
X221503809Y-130242380D02*
X221503809Y-129242380D01*
X221408571Y-129385238D01*
X221313333Y-129480476D01*
X221218095Y-129528095D01*
%TO.C,C12*%
X153067142Y-99925142D02*
X153019523Y-99972761D01*
X152876666Y-100020380D01*
X152781428Y-100020380D01*
X152638571Y-99972761D01*
X152543333Y-99877523D01*
X152495714Y-99782285D01*
X152448095Y-99591809D01*
X152448095Y-99448952D01*
X152495714Y-99258476D01*
X152543333Y-99163238D01*
X152638571Y-99068000D01*
X152781428Y-99020380D01*
X152876666Y-99020380D01*
X153019523Y-99068000D01*
X153067142Y-99115619D01*
X154019523Y-100020380D02*
X153448095Y-100020380D01*
X153733809Y-100020380D02*
X153733809Y-99020380D01*
X153638571Y-99163238D01*
X153543333Y-99258476D01*
X153448095Y-99306095D01*
X154400476Y-99115619D02*
X154448095Y-99068000D01*
X154543333Y-99020380D01*
X154781428Y-99020380D01*
X154876666Y-99068000D01*
X154924285Y-99115619D01*
X154971904Y-99210857D01*
X154971904Y-99306095D01*
X154924285Y-99448952D01*
X154352857Y-100020380D01*
X154971904Y-100020380D01*
%TO.C,R4*%
X75113380Y-111088466D02*
X74637190Y-111421800D01*
X75113380Y-111659895D02*
X74113380Y-111659895D01*
X74113380Y-111278942D01*
X74161000Y-111183704D01*
X74208619Y-111136085D01*
X74303857Y-111088466D01*
X74446714Y-111088466D01*
X74541952Y-111136085D01*
X74589571Y-111183704D01*
X74637190Y-111278942D01*
X74637190Y-111659895D01*
X74446714Y-110231323D02*
X75113380Y-110231323D01*
X74065761Y-110469419D02*
X74780047Y-110707514D01*
X74780047Y-110088466D01*
%TO.C,JP6*%
X134904266Y-71874580D02*
X134904266Y-72588866D01*
X134856647Y-72731723D01*
X134761409Y-72826961D01*
X134618552Y-72874580D01*
X134523314Y-72874580D01*
X135380457Y-72874580D02*
X135380457Y-71874580D01*
X135761409Y-71874580D01*
X135856647Y-71922200D01*
X135904266Y-71969819D01*
X135951885Y-72065057D01*
X135951885Y-72207914D01*
X135904266Y-72303152D01*
X135856647Y-72350771D01*
X135761409Y-72398390D01*
X135380457Y-72398390D01*
X136809028Y-71874580D02*
X136618552Y-71874580D01*
X136523314Y-71922200D01*
X136475695Y-71969819D01*
X136380457Y-72112676D01*
X136332838Y-72303152D01*
X136332838Y-72684104D01*
X136380457Y-72779342D01*
X136428076Y-72826961D01*
X136523314Y-72874580D01*
X136713790Y-72874580D01*
X136809028Y-72826961D01*
X136856647Y-72779342D01*
X136904266Y-72684104D01*
X136904266Y-72446009D01*
X136856647Y-72350771D01*
X136809028Y-72303152D01*
X136713790Y-72255533D01*
X136523314Y-72255533D01*
X136428076Y-72303152D01*
X136380457Y-72350771D01*
X136332838Y-72446009D01*
%TO.C,R11*%
X133723142Y-111196380D02*
X133389809Y-110720190D01*
X133151714Y-111196380D02*
X133151714Y-110196380D01*
X133532666Y-110196380D01*
X133627904Y-110244000D01*
X133675523Y-110291619D01*
X133723142Y-110386857D01*
X133723142Y-110529714D01*
X133675523Y-110624952D01*
X133627904Y-110672571D01*
X133532666Y-110720190D01*
X133151714Y-110720190D01*
X134675523Y-111196380D02*
X134104095Y-111196380D01*
X134389809Y-111196380D02*
X134389809Y-110196380D01*
X134294571Y-110339238D01*
X134199333Y-110434476D01*
X134104095Y-110482095D01*
X135627904Y-111196380D02*
X135056476Y-111196380D01*
X135342190Y-111196380D02*
X135342190Y-110196380D01*
X135246952Y-110339238D01*
X135151714Y-110434476D01*
X135056476Y-110482095D01*
%TO.C,U12*%
X147097904Y-72096380D02*
X147097904Y-72905904D01*
X147145523Y-73001142D01*
X147193142Y-73048761D01*
X147288380Y-73096380D01*
X147478857Y-73096380D01*
X147574095Y-73048761D01*
X147621714Y-73001142D01*
X147669333Y-72905904D01*
X147669333Y-72096380D01*
X148669333Y-73096380D02*
X148097904Y-73096380D01*
X148383619Y-73096380D02*
X148383619Y-72096380D01*
X148288380Y-72239238D01*
X148193142Y-72334476D01*
X148097904Y-72382095D01*
X149050285Y-72191619D02*
X149097904Y-72144000D01*
X149193142Y-72096380D01*
X149431238Y-72096380D01*
X149526476Y-72144000D01*
X149574095Y-72191619D01*
X149621714Y-72286857D01*
X149621714Y-72382095D01*
X149574095Y-72524952D01*
X149002666Y-73096380D01*
X149621714Y-73096380D01*
%TO.C,C15*%
X166997142Y-70715142D02*
X166949523Y-70762761D01*
X166806666Y-70810380D01*
X166711428Y-70810380D01*
X166568571Y-70762761D01*
X166473333Y-70667523D01*
X166425714Y-70572285D01*
X166378095Y-70381809D01*
X166378095Y-70238952D01*
X166425714Y-70048476D01*
X166473333Y-69953238D01*
X166568571Y-69858000D01*
X166711428Y-69810380D01*
X166806666Y-69810380D01*
X166949523Y-69858000D01*
X166997142Y-69905619D01*
X167949523Y-70810380D02*
X167378095Y-70810380D01*
X167663809Y-70810380D02*
X167663809Y-69810380D01*
X167568571Y-69953238D01*
X167473333Y-70048476D01*
X167378095Y-70096095D01*
X168854285Y-69810380D02*
X168378095Y-69810380D01*
X168330476Y-70286571D01*
X168378095Y-70238952D01*
X168473333Y-70191333D01*
X168711428Y-70191333D01*
X168806666Y-70238952D01*
X168854285Y-70286571D01*
X168901904Y-70381809D01*
X168901904Y-70619904D01*
X168854285Y-70715142D01*
X168806666Y-70762761D01*
X168711428Y-70810380D01*
X168473333Y-70810380D01*
X168378095Y-70762761D01*
X168330476Y-70715142D01*
%TO.C,X1*%
X115522580Y-55495723D02*
X116522580Y-54829057D01*
X115522580Y-54829057D02*
X116522580Y-55495723D01*
X116522580Y-53924295D02*
X116522580Y-54495723D01*
X116522580Y-54210009D02*
X115522580Y-54210009D01*
X115665438Y-54305247D01*
X115760676Y-54400485D01*
X115808295Y-54495723D01*
%TO.C,C4*%
X211669333Y-103989142D02*
X211621714Y-104036761D01*
X211478857Y-104084380D01*
X211383619Y-104084380D01*
X211240761Y-104036761D01*
X211145523Y-103941523D01*
X211097904Y-103846285D01*
X211050285Y-103655809D01*
X211050285Y-103512952D01*
X211097904Y-103322476D01*
X211145523Y-103227238D01*
X211240761Y-103132000D01*
X211383619Y-103084380D01*
X211478857Y-103084380D01*
X211621714Y-103132000D01*
X211669333Y-103179619D01*
X212526476Y-103417714D02*
X212526476Y-104084380D01*
X212288380Y-103036761D02*
X212050285Y-103751047D01*
X212669333Y-103751047D01*
%TO.C,R9*%
X72649580Y-99668866D02*
X72173390Y-100002200D01*
X72649580Y-100240295D02*
X71649580Y-100240295D01*
X71649580Y-99859342D01*
X71697200Y-99764104D01*
X71744819Y-99716485D01*
X71840057Y-99668866D01*
X71982914Y-99668866D01*
X72078152Y-99716485D01*
X72125771Y-99764104D01*
X72173390Y-99859342D01*
X72173390Y-100240295D01*
X72649580Y-99192676D02*
X72649580Y-99002200D01*
X72601961Y-98906961D01*
X72554342Y-98859342D01*
X72411485Y-98764104D01*
X72221009Y-98716485D01*
X71840057Y-98716485D01*
X71744819Y-98764104D01*
X71697200Y-98811723D01*
X71649580Y-98906961D01*
X71649580Y-99097438D01*
X71697200Y-99192676D01*
X71744819Y-99240295D01*
X71840057Y-99287914D01*
X72078152Y-99287914D01*
X72173390Y-99240295D01*
X72221009Y-99192676D01*
X72268628Y-99097438D01*
X72268628Y-98906961D01*
X72221009Y-98811723D01*
X72173390Y-98764104D01*
X72078152Y-98716485D01*
%TO.C,C1*%
X195438333Y-74525142D02*
X195390714Y-74572761D01*
X195247857Y-74620380D01*
X195152619Y-74620380D01*
X195009761Y-74572761D01*
X194914523Y-74477523D01*
X194866904Y-74382285D01*
X194819285Y-74191809D01*
X194819285Y-74048952D01*
X194866904Y-73858476D01*
X194914523Y-73763238D01*
X195009761Y-73668000D01*
X195152619Y-73620380D01*
X195247857Y-73620380D01*
X195390714Y-73668000D01*
X195438333Y-73715619D01*
X196390714Y-74620380D02*
X195819285Y-74620380D01*
X196105000Y-74620380D02*
X196105000Y-73620380D01*
X196009761Y-73763238D01*
X195914523Y-73858476D01*
X195819285Y-73906095D01*
%TO.C,U6*%
X122428095Y-91146380D02*
X122428095Y-91955904D01*
X122475714Y-92051142D01*
X122523333Y-92098761D01*
X122618571Y-92146380D01*
X122809047Y-92146380D01*
X122904285Y-92098761D01*
X122951904Y-92051142D01*
X122999523Y-91955904D01*
X122999523Y-91146380D01*
X123904285Y-91146380D02*
X123713809Y-91146380D01*
X123618571Y-91194000D01*
X123570952Y-91241619D01*
X123475714Y-91384476D01*
X123428095Y-91574952D01*
X123428095Y-91955904D01*
X123475714Y-92051142D01*
X123523333Y-92098761D01*
X123618571Y-92146380D01*
X123809047Y-92146380D01*
X123904285Y-92098761D01*
X123951904Y-92051142D01*
X123999523Y-91955904D01*
X123999523Y-91717809D01*
X123951904Y-91622571D01*
X123904285Y-91574952D01*
X123809047Y-91527333D01*
X123618571Y-91527333D01*
X123523333Y-91574952D01*
X123475714Y-91622571D01*
X123428095Y-91717809D01*
%TO.C,C17*%
X122527142Y-66227142D02*
X122479523Y-66274761D01*
X122336666Y-66322380D01*
X122241428Y-66322380D01*
X122098571Y-66274761D01*
X122003333Y-66179523D01*
X121955714Y-66084285D01*
X121908095Y-65893809D01*
X121908095Y-65750952D01*
X121955714Y-65560476D01*
X122003333Y-65465238D01*
X122098571Y-65370000D01*
X122241428Y-65322380D01*
X122336666Y-65322380D01*
X122479523Y-65370000D01*
X122527142Y-65417619D01*
X123479523Y-66322380D02*
X122908095Y-66322380D01*
X123193809Y-66322380D02*
X123193809Y-65322380D01*
X123098571Y-65465238D01*
X123003333Y-65560476D01*
X122908095Y-65608095D01*
X123812857Y-65322380D02*
X124479523Y-65322380D01*
X124050952Y-66322380D01*
%TO.C,U5*%
X206248095Y-105116380D02*
X206248095Y-105925904D01*
X206295714Y-106021142D01*
X206343333Y-106068761D01*
X206438571Y-106116380D01*
X206629047Y-106116380D01*
X206724285Y-106068761D01*
X206771904Y-106021142D01*
X206819523Y-105925904D01*
X206819523Y-105116380D01*
X207771904Y-105116380D02*
X207295714Y-105116380D01*
X207248095Y-105592571D01*
X207295714Y-105544952D01*
X207390952Y-105497333D01*
X207629047Y-105497333D01*
X207724285Y-105544952D01*
X207771904Y-105592571D01*
X207819523Y-105687809D01*
X207819523Y-105925904D01*
X207771904Y-106021142D01*
X207724285Y-106068761D01*
X207629047Y-106116380D01*
X207390952Y-106116380D01*
X207295714Y-106068761D01*
X207248095Y-106021142D01*
%TO.C,U15*%
X107727904Y-41864380D02*
X107727904Y-42673904D01*
X107775523Y-42769142D01*
X107823142Y-42816761D01*
X107918380Y-42864380D01*
X108108857Y-42864380D01*
X108204095Y-42816761D01*
X108251714Y-42769142D01*
X108299333Y-42673904D01*
X108299333Y-41864380D01*
X109299333Y-42864380D02*
X108727904Y-42864380D01*
X109013619Y-42864380D02*
X109013619Y-41864380D01*
X108918380Y-42007238D01*
X108823142Y-42102476D01*
X108727904Y-42150095D01*
X110204095Y-41864380D02*
X109727904Y-41864380D01*
X109680285Y-42340571D01*
X109727904Y-42292952D01*
X109823142Y-42245333D01*
X110061238Y-42245333D01*
X110156476Y-42292952D01*
X110204095Y-42340571D01*
X110251714Y-42435809D01*
X110251714Y-42673904D01*
X110204095Y-42769142D01*
X110156476Y-42816761D01*
X110061238Y-42864380D01*
X109823142Y-42864380D01*
X109727904Y-42816761D01*
X109680285Y-42769142D01*
%TO.C,C9*%
X115403333Y-90019142D02*
X115355714Y-90066761D01*
X115212857Y-90114380D01*
X115117619Y-90114380D01*
X114974761Y-90066761D01*
X114879523Y-89971523D01*
X114831904Y-89876285D01*
X114784285Y-89685809D01*
X114784285Y-89542952D01*
X114831904Y-89352476D01*
X114879523Y-89257238D01*
X114974761Y-89162000D01*
X115117619Y-89114380D01*
X115212857Y-89114380D01*
X115355714Y-89162000D01*
X115403333Y-89209619D01*
X115879523Y-90114380D02*
X116070000Y-90114380D01*
X116165238Y-90066761D01*
X116212857Y-90019142D01*
X116308095Y-89876285D01*
X116355714Y-89685809D01*
X116355714Y-89304857D01*
X116308095Y-89209619D01*
X116260476Y-89162000D01*
X116165238Y-89114380D01*
X115974761Y-89114380D01*
X115879523Y-89162000D01*
X115831904Y-89209619D01*
X115784285Y-89304857D01*
X115784285Y-89542952D01*
X115831904Y-89638190D01*
X115879523Y-89685809D01*
X115974761Y-89733428D01*
X116165238Y-89733428D01*
X116260476Y-89685809D01*
X116308095Y-89638190D01*
X116355714Y-89542952D01*
%TO.C,U9*%
X189738095Y-45646380D02*
X189738095Y-46455904D01*
X189785714Y-46551142D01*
X189833333Y-46598761D01*
X189928571Y-46646380D01*
X190119047Y-46646380D01*
X190214285Y-46598761D01*
X190261904Y-46551142D01*
X190309523Y-46455904D01*
X190309523Y-45646380D01*
X190833333Y-46646380D02*
X191023809Y-46646380D01*
X191119047Y-46598761D01*
X191166666Y-46551142D01*
X191261904Y-46408285D01*
X191309523Y-46217809D01*
X191309523Y-45836857D01*
X191261904Y-45741619D01*
X191214285Y-45694000D01*
X191119047Y-45646380D01*
X190928571Y-45646380D01*
X190833333Y-45694000D01*
X190785714Y-45741619D01*
X190738095Y-45836857D01*
X190738095Y-46074952D01*
X190785714Y-46170190D01*
X190833333Y-46217809D01*
X190928571Y-46265428D01*
X191119047Y-46265428D01*
X191214285Y-46217809D01*
X191261904Y-46170190D01*
X191309523Y-46074952D01*
%TO.C,R2*%
X126680933Y-113137180D02*
X126347600Y-112660990D01*
X126109504Y-113137180D02*
X126109504Y-112137180D01*
X126490457Y-112137180D01*
X126585695Y-112184800D01*
X126633314Y-112232419D01*
X126680933Y-112327657D01*
X126680933Y-112470514D01*
X126633314Y-112565752D01*
X126585695Y-112613371D01*
X126490457Y-112660990D01*
X126109504Y-112660990D01*
X127061885Y-112232419D02*
X127109504Y-112184800D01*
X127204742Y-112137180D01*
X127442838Y-112137180D01*
X127538076Y-112184800D01*
X127585695Y-112232419D01*
X127633314Y-112327657D01*
X127633314Y-112422895D01*
X127585695Y-112565752D01*
X127014266Y-113137180D01*
X127633314Y-113137180D01*
%TO.C,C6*%
X102703333Y-120717142D02*
X102655714Y-120764761D01*
X102512857Y-120812380D01*
X102417619Y-120812380D01*
X102274761Y-120764761D01*
X102179523Y-120669523D01*
X102131904Y-120574285D01*
X102084285Y-120383809D01*
X102084285Y-120240952D01*
X102131904Y-120050476D01*
X102179523Y-119955238D01*
X102274761Y-119860000D01*
X102417619Y-119812380D01*
X102512857Y-119812380D01*
X102655714Y-119860000D01*
X102703333Y-119907619D01*
X103560476Y-119812380D02*
X103370000Y-119812380D01*
X103274761Y-119860000D01*
X103227142Y-119907619D01*
X103131904Y-120050476D01*
X103084285Y-120240952D01*
X103084285Y-120621904D01*
X103131904Y-120717142D01*
X103179523Y-120764761D01*
X103274761Y-120812380D01*
X103465238Y-120812380D01*
X103560476Y-120764761D01*
X103608095Y-120717142D01*
X103655714Y-120621904D01*
X103655714Y-120383809D01*
X103608095Y-120288571D01*
X103560476Y-120240952D01*
X103465238Y-120193333D01*
X103274761Y-120193333D01*
X103179523Y-120240952D01*
X103131904Y-120288571D01*
X103084285Y-120383809D01*
%TO.C,R3*%
X81732380Y-110910666D02*
X81256190Y-111244000D01*
X81732380Y-111482095D02*
X80732380Y-111482095D01*
X80732380Y-111101142D01*
X80780000Y-111005904D01*
X80827619Y-110958285D01*
X80922857Y-110910666D01*
X81065714Y-110910666D01*
X81160952Y-110958285D01*
X81208571Y-111005904D01*
X81256190Y-111101142D01*
X81256190Y-111482095D01*
X80732380Y-110577333D02*
X80732380Y-109958285D01*
X81113333Y-110291619D01*
X81113333Y-110148761D01*
X81160952Y-110053523D01*
X81208571Y-110005904D01*
X81303809Y-109958285D01*
X81541904Y-109958285D01*
X81637142Y-110005904D01*
X81684761Y-110053523D01*
X81732380Y-110148761D01*
X81732380Y-110434476D01*
X81684761Y-110529714D01*
X81637142Y-110577333D01*
%TO.C,U13*%
X131532380Y-67786095D02*
X132341904Y-67786095D01*
X132437142Y-67738476D01*
X132484761Y-67690857D01*
X132532380Y-67595619D01*
X132532380Y-67405142D01*
X132484761Y-67309904D01*
X132437142Y-67262285D01*
X132341904Y-67214666D01*
X131532380Y-67214666D01*
X132532380Y-66214666D02*
X132532380Y-66786095D01*
X132532380Y-66500380D02*
X131532380Y-66500380D01*
X131675238Y-66595619D01*
X131770476Y-66690857D01*
X131818095Y-66786095D01*
X131532380Y-65881333D02*
X131532380Y-65262285D01*
X131913333Y-65595619D01*
X131913333Y-65452761D01*
X131960952Y-65357523D01*
X132008571Y-65309904D01*
X132103809Y-65262285D01*
X132341904Y-65262285D01*
X132437142Y-65309904D01*
X132484761Y-65357523D01*
X132532380Y-65452761D01*
X132532380Y-65738476D01*
X132484761Y-65833714D01*
X132437142Y-65881333D01*
%TO.C,JP4*%
X139273066Y-71874580D02*
X139273066Y-72588866D01*
X139225447Y-72731723D01*
X139130209Y-72826961D01*
X138987352Y-72874580D01*
X138892114Y-72874580D01*
X139749257Y-72874580D02*
X139749257Y-71874580D01*
X140130209Y-71874580D01*
X140225447Y-71922200D01*
X140273066Y-71969819D01*
X140320685Y-72065057D01*
X140320685Y-72207914D01*
X140273066Y-72303152D01*
X140225447Y-72350771D01*
X140130209Y-72398390D01*
X139749257Y-72398390D01*
X141177828Y-72207914D02*
X141177828Y-72874580D01*
X140939733Y-71826961D02*
X140701638Y-72541247D01*
X141320685Y-72541247D01*
%TO.C,R12*%
X133723142Y-113456980D02*
X133389809Y-112980790D01*
X133151714Y-113456980D02*
X133151714Y-112456980D01*
X133532666Y-112456980D01*
X133627904Y-112504600D01*
X133675523Y-112552219D01*
X133723142Y-112647457D01*
X133723142Y-112790314D01*
X133675523Y-112885552D01*
X133627904Y-112933171D01*
X133532666Y-112980790D01*
X133151714Y-112980790D01*
X134675523Y-113456980D02*
X134104095Y-113456980D01*
X134389809Y-113456980D02*
X134389809Y-112456980D01*
X134294571Y-112599838D01*
X134199333Y-112695076D01*
X134104095Y-112742695D01*
X135056476Y-112552219D02*
X135104095Y-112504600D01*
X135199333Y-112456980D01*
X135437428Y-112456980D01*
X135532666Y-112504600D01*
X135580285Y-112552219D01*
X135627904Y-112647457D01*
X135627904Y-112742695D01*
X135580285Y-112885552D01*
X135008857Y-113456980D01*
X135627904Y-113456980D01*
%TO.C,C8*%
X195159333Y-44045142D02*
X195111714Y-44092761D01*
X194968857Y-44140380D01*
X194873619Y-44140380D01*
X194730761Y-44092761D01*
X194635523Y-43997523D01*
X194587904Y-43902285D01*
X194540285Y-43711809D01*
X194540285Y-43568952D01*
X194587904Y-43378476D01*
X194635523Y-43283238D01*
X194730761Y-43188000D01*
X194873619Y-43140380D01*
X194968857Y-43140380D01*
X195111714Y-43188000D01*
X195159333Y-43235619D01*
X195730761Y-43568952D02*
X195635523Y-43521333D01*
X195587904Y-43473714D01*
X195540285Y-43378476D01*
X195540285Y-43330857D01*
X195587904Y-43235619D01*
X195635523Y-43188000D01*
X195730761Y-43140380D01*
X195921238Y-43140380D01*
X196016476Y-43188000D01*
X196064095Y-43235619D01*
X196111714Y-43330857D01*
X196111714Y-43378476D01*
X196064095Y-43473714D01*
X196016476Y-43521333D01*
X195921238Y-43568952D01*
X195730761Y-43568952D01*
X195635523Y-43616571D01*
X195587904Y-43664190D01*
X195540285Y-43759428D01*
X195540285Y-43949904D01*
X195587904Y-44045142D01*
X195635523Y-44092761D01*
X195730761Y-44140380D01*
X195921238Y-44140380D01*
X196016476Y-44092761D01*
X196064095Y-44045142D01*
X196111714Y-43949904D01*
X196111714Y-43759428D01*
X196064095Y-43664190D01*
X196016476Y-43616571D01*
X195921238Y-43568952D01*
%TO.C,U7*%
X93218095Y-90842380D02*
X93218095Y-91651904D01*
X93265714Y-91747142D01*
X93313333Y-91794761D01*
X93408571Y-91842380D01*
X93599047Y-91842380D01*
X93694285Y-91794761D01*
X93741904Y-91747142D01*
X93789523Y-91651904D01*
X93789523Y-90842380D01*
X94170476Y-90842380D02*
X94837142Y-90842380D01*
X94408571Y-91842380D01*
%TO.C,U4*%
X206248095Y-75906380D02*
X206248095Y-76715904D01*
X206295714Y-76811142D01*
X206343333Y-76858761D01*
X206438571Y-76906380D01*
X206629047Y-76906380D01*
X206724285Y-76858761D01*
X206771904Y-76811142D01*
X206819523Y-76715904D01*
X206819523Y-75906380D01*
X207724285Y-76239714D02*
X207724285Y-76906380D01*
X207486190Y-75858761D02*
X207248095Y-76573047D01*
X207867142Y-76573047D01*
%TO.C,C10*%
X166997142Y-100179142D02*
X166949523Y-100226761D01*
X166806666Y-100274380D01*
X166711428Y-100274380D01*
X166568571Y-100226761D01*
X166473333Y-100131523D01*
X166425714Y-100036285D01*
X166378095Y-99845809D01*
X166378095Y-99702952D01*
X166425714Y-99512476D01*
X166473333Y-99417238D01*
X166568571Y-99322000D01*
X166711428Y-99274380D01*
X166806666Y-99274380D01*
X166949523Y-99322000D01*
X166997142Y-99369619D01*
X167949523Y-100274380D02*
X167378095Y-100274380D01*
X167663809Y-100274380D02*
X167663809Y-99274380D01*
X167568571Y-99417238D01*
X167473333Y-99512476D01*
X167378095Y-99560095D01*
X168568571Y-99274380D02*
X168663809Y-99274380D01*
X168759047Y-99322000D01*
X168806666Y-99369619D01*
X168854285Y-99464857D01*
X168901904Y-99655333D01*
X168901904Y-99893428D01*
X168854285Y-100083904D01*
X168806666Y-100179142D01*
X168759047Y-100226761D01*
X168663809Y-100274380D01*
X168568571Y-100274380D01*
X168473333Y-100226761D01*
X168425714Y-100179142D01*
X168378095Y-100083904D01*
X168330476Y-99893428D01*
X168330476Y-99655333D01*
X168378095Y-99464857D01*
X168425714Y-99369619D01*
X168473333Y-99322000D01*
X168568571Y-99274380D01*
%TO.C,JP1*%
X177479666Y-91444380D02*
X177479666Y-92158666D01*
X177432047Y-92301523D01*
X177336809Y-92396761D01*
X177193952Y-92444380D01*
X177098714Y-92444380D01*
X177955857Y-92444380D02*
X177955857Y-91444380D01*
X178336809Y-91444380D01*
X178432047Y-91492000D01*
X178479666Y-91539619D01*
X178527285Y-91634857D01*
X178527285Y-91777714D01*
X178479666Y-91872952D01*
X178432047Y-91920571D01*
X178336809Y-91968190D01*
X177955857Y-91968190D01*
X179479666Y-92444380D02*
X178908238Y-92444380D01*
X179193952Y-92444380D02*
X179193952Y-91444380D01*
X179098714Y-91587238D01*
X179003476Y-91682476D01*
X178908238Y-91730095D01*
%TO.C,U11*%
X161321904Y-101306380D02*
X161321904Y-102115904D01*
X161369523Y-102211142D01*
X161417142Y-102258761D01*
X161512380Y-102306380D01*
X161702857Y-102306380D01*
X161798095Y-102258761D01*
X161845714Y-102211142D01*
X161893333Y-102115904D01*
X161893333Y-101306380D01*
X162893333Y-102306380D02*
X162321904Y-102306380D01*
X162607619Y-102306380D02*
X162607619Y-101306380D01*
X162512380Y-101449238D01*
X162417142Y-101544476D01*
X162321904Y-101592095D01*
X163845714Y-102306380D02*
X163274285Y-102306380D01*
X163560000Y-102306380D02*
X163560000Y-101306380D01*
X163464761Y-101449238D01*
X163369523Y-101544476D01*
X163274285Y-101592095D01*
%TO.C,U2*%
X189738095Y-75906380D02*
X189738095Y-76715904D01*
X189785714Y-76811142D01*
X189833333Y-76858761D01*
X189928571Y-76906380D01*
X190119047Y-76906380D01*
X190214285Y-76858761D01*
X190261904Y-76811142D01*
X190309523Y-76715904D01*
X190309523Y-75906380D01*
X190738095Y-76001619D02*
X190785714Y-75954000D01*
X190880952Y-75906380D01*
X191119047Y-75906380D01*
X191214285Y-75954000D01*
X191261904Y-76001619D01*
X191309523Y-76096857D01*
X191309523Y-76192095D01*
X191261904Y-76334952D01*
X190690476Y-76906380D01*
X191309523Y-76906380D01*
%TO.C,R10*%
X133723142Y-118028980D02*
X133389809Y-117552790D01*
X133151714Y-118028980D02*
X133151714Y-117028980D01*
X133532666Y-117028980D01*
X133627904Y-117076600D01*
X133675523Y-117124219D01*
X133723142Y-117219457D01*
X133723142Y-117362314D01*
X133675523Y-117457552D01*
X133627904Y-117505171D01*
X133532666Y-117552790D01*
X133151714Y-117552790D01*
X134675523Y-118028980D02*
X134104095Y-118028980D01*
X134389809Y-118028980D02*
X134389809Y-117028980D01*
X134294571Y-117171838D01*
X134199333Y-117267076D01*
X134104095Y-117314695D01*
X135294571Y-117028980D02*
X135389809Y-117028980D01*
X135485047Y-117076600D01*
X135532666Y-117124219D01*
X135580285Y-117219457D01*
X135627904Y-117409933D01*
X135627904Y-117648028D01*
X135580285Y-117838504D01*
X135532666Y-117933742D01*
X135485047Y-117981361D01*
X135389809Y-118028980D01*
X135294571Y-118028980D01*
X135199333Y-117981361D01*
X135151714Y-117933742D01*
X135104095Y-117838504D01*
X135056476Y-117648028D01*
X135056476Y-117409933D01*
X135104095Y-117219457D01*
X135151714Y-117124219D01*
X135199333Y-117076600D01*
X135294571Y-117028980D01*
%TO.C,JP2*%
X173652380Y-99893333D02*
X174366666Y-99893333D01*
X174509523Y-99940952D01*
X174604761Y-100036190D01*
X174652380Y-100179047D01*
X174652380Y-100274285D01*
X174652380Y-99417142D02*
X173652380Y-99417142D01*
X173652380Y-99036190D01*
X173700000Y-98940952D01*
X173747619Y-98893333D01*
X173842857Y-98845714D01*
X173985714Y-98845714D01*
X174080952Y-98893333D01*
X174128571Y-98940952D01*
X174176190Y-99036190D01*
X174176190Y-99417142D01*
X173747619Y-98464761D02*
X173700000Y-98417142D01*
X173652380Y-98321904D01*
X173652380Y-98083809D01*
X173700000Y-97988571D01*
X173747619Y-97940952D01*
X173842857Y-97893333D01*
X173938095Y-97893333D01*
X174080952Y-97940952D01*
X174652380Y-98512380D01*
X174652380Y-97893333D01*
%TO.C,U10*%
X108997904Y-91146380D02*
X108997904Y-91955904D01*
X109045523Y-92051142D01*
X109093142Y-92098761D01*
X109188380Y-92146380D01*
X109378857Y-92146380D01*
X109474095Y-92098761D01*
X109521714Y-92051142D01*
X109569333Y-91955904D01*
X109569333Y-91146380D01*
X110569333Y-92146380D02*
X109997904Y-92146380D01*
X110283619Y-92146380D02*
X110283619Y-91146380D01*
X110188380Y-91289238D01*
X110093142Y-91384476D01*
X109997904Y-91432095D01*
X111188380Y-91146380D02*
X111283619Y-91146380D01*
X111378857Y-91194000D01*
X111426476Y-91241619D01*
X111474095Y-91336857D01*
X111521714Y-91527333D01*
X111521714Y-91765428D01*
X111474095Y-91955904D01*
X111426476Y-92051142D01*
X111378857Y-92098761D01*
X111283619Y-92146380D01*
X111188380Y-92146380D01*
X111093142Y-92098761D01*
X111045523Y-92051142D01*
X110997904Y-91955904D01*
X110950285Y-91765428D01*
X110950285Y-91527333D01*
X110997904Y-91336857D01*
X111045523Y-91241619D01*
X111093142Y-91194000D01*
X111188380Y-91146380D01*
%TO.C,J1*%
X223503380Y-44529333D02*
X224217666Y-44529333D01*
X224360523Y-44576952D01*
X224455761Y-44672190D01*
X224503380Y-44815047D01*
X224503380Y-44910285D01*
X224503380Y-43529333D02*
X224503380Y-44100761D01*
X224503380Y-43815047D02*
X223503380Y-43815047D01*
X223646238Y-43910285D01*
X223741476Y-44005523D01*
X223789095Y-44100761D01*
%TO.C,RN1*%
X188272380Y-86542476D02*
X187796190Y-86875809D01*
X188272380Y-87113904D02*
X187272380Y-87113904D01*
X187272380Y-86732952D01*
X187320000Y-86637714D01*
X187367619Y-86590095D01*
X187462857Y-86542476D01*
X187605714Y-86542476D01*
X187700952Y-86590095D01*
X187748571Y-86637714D01*
X187796190Y-86732952D01*
X187796190Y-87113904D01*
X188272380Y-86113904D02*
X187272380Y-86113904D01*
X188272380Y-85542476D01*
X187272380Y-85542476D01*
X188272380Y-84542476D02*
X188272380Y-85113904D01*
X188272380Y-84828190D02*
X187272380Y-84828190D01*
X187415238Y-84923428D01*
X187510476Y-85018666D01*
X187558095Y-85113904D01*
%TO.C,C5*%
X128103333Y-90019142D02*
X128055714Y-90066761D01*
X127912857Y-90114380D01*
X127817619Y-90114380D01*
X127674761Y-90066761D01*
X127579523Y-89971523D01*
X127531904Y-89876285D01*
X127484285Y-89685809D01*
X127484285Y-89542952D01*
X127531904Y-89352476D01*
X127579523Y-89257238D01*
X127674761Y-89162000D01*
X127817619Y-89114380D01*
X127912857Y-89114380D01*
X128055714Y-89162000D01*
X128103333Y-89209619D01*
X129008095Y-89114380D02*
X128531904Y-89114380D01*
X128484285Y-89590571D01*
X128531904Y-89542952D01*
X128627142Y-89495333D01*
X128865238Y-89495333D01*
X128960476Y-89542952D01*
X129008095Y-89590571D01*
X129055714Y-89685809D01*
X129055714Y-89923904D01*
X129008095Y-90019142D01*
X128960476Y-90066761D01*
X128865238Y-90114380D01*
X128627142Y-90114380D01*
X128531904Y-90066761D01*
X128484285Y-90019142D01*
%TO.C,R8*%
X119721333Y-119933980D02*
X119388000Y-119457790D01*
X119149904Y-119933980D02*
X119149904Y-118933980D01*
X119530857Y-118933980D01*
X119626095Y-118981600D01*
X119673714Y-119029219D01*
X119721333Y-119124457D01*
X119721333Y-119267314D01*
X119673714Y-119362552D01*
X119626095Y-119410171D01*
X119530857Y-119457790D01*
X119149904Y-119457790D01*
X120292761Y-119362552D02*
X120197523Y-119314933D01*
X120149904Y-119267314D01*
X120102285Y-119172076D01*
X120102285Y-119124457D01*
X120149904Y-119029219D01*
X120197523Y-118981600D01*
X120292761Y-118933980D01*
X120483238Y-118933980D01*
X120578476Y-118981600D01*
X120626095Y-119029219D01*
X120673714Y-119124457D01*
X120673714Y-119172076D01*
X120626095Y-119267314D01*
X120578476Y-119314933D01*
X120483238Y-119362552D01*
X120292761Y-119362552D01*
X120197523Y-119410171D01*
X120149904Y-119457790D01*
X120102285Y-119553028D01*
X120102285Y-119743504D01*
X120149904Y-119838742D01*
X120197523Y-119886361D01*
X120292761Y-119933980D01*
X120483238Y-119933980D01*
X120578476Y-119886361D01*
X120626095Y-119838742D01*
X120673714Y-119743504D01*
X120673714Y-119553028D01*
X120626095Y-119457790D01*
X120578476Y-119410171D01*
X120483238Y-119362552D01*
%TO.C,JP5*%
X76636666Y-103382380D02*
X76636666Y-104096666D01*
X76589047Y-104239523D01*
X76493809Y-104334761D01*
X76350952Y-104382380D01*
X76255714Y-104382380D01*
X77112857Y-104382380D02*
X77112857Y-103382380D01*
X77493809Y-103382380D01*
X77589047Y-103430000D01*
X77636666Y-103477619D01*
X77684285Y-103572857D01*
X77684285Y-103715714D01*
X77636666Y-103810952D01*
X77589047Y-103858571D01*
X77493809Y-103906190D01*
X77112857Y-103906190D01*
X78589047Y-103382380D02*
X78112857Y-103382380D01*
X78065238Y-103858571D01*
X78112857Y-103810952D01*
X78208095Y-103763333D01*
X78446190Y-103763333D01*
X78541428Y-103810952D01*
X78589047Y-103858571D01*
X78636666Y-103953809D01*
X78636666Y-104191904D01*
X78589047Y-104287142D01*
X78541428Y-104334761D01*
X78446190Y-104382380D01*
X78208095Y-104382380D01*
X78112857Y-104334761D01*
X78065238Y-104287142D01*
%TO.C,C3*%
X211908333Y-74525142D02*
X211860714Y-74572761D01*
X211717857Y-74620380D01*
X211622619Y-74620380D01*
X211479761Y-74572761D01*
X211384523Y-74477523D01*
X211336904Y-74382285D01*
X211289285Y-74191809D01*
X211289285Y-74048952D01*
X211336904Y-73858476D01*
X211384523Y-73763238D01*
X211479761Y-73668000D01*
X211622619Y-73620380D01*
X211717857Y-73620380D01*
X211860714Y-73668000D01*
X211908333Y-73715619D01*
X212241666Y-73620380D02*
X212860714Y-73620380D01*
X212527380Y-74001333D01*
X212670238Y-74001333D01*
X212765476Y-74048952D01*
X212813095Y-74096571D01*
X212860714Y-74191809D01*
X212860714Y-74429904D01*
X212813095Y-74525142D01*
X212765476Y-74572761D01*
X212670238Y-74620380D01*
X212384523Y-74620380D01*
X212289285Y-74572761D01*
X212241666Y-74525142D01*
%TO.C,J2*%
X71076380Y-129609833D02*
X71790666Y-129609833D01*
X71933523Y-129657452D01*
X72028761Y-129752690D01*
X72076380Y-129895547D01*
X72076380Y-129990785D01*
X71171619Y-129181261D02*
X71124000Y-129133642D01*
X71076380Y-129038404D01*
X71076380Y-128800309D01*
X71124000Y-128705071D01*
X71171619Y-128657452D01*
X71266857Y-128609833D01*
X71362095Y-128609833D01*
X71504952Y-128657452D01*
X72076380Y-129228880D01*
X72076380Y-128609833D01*
%TO.C,R7*%
X119721333Y-117495180D02*
X119388000Y-117018990D01*
X119149904Y-117495180D02*
X119149904Y-116495180D01*
X119530857Y-116495180D01*
X119626095Y-116542800D01*
X119673714Y-116590419D01*
X119721333Y-116685657D01*
X119721333Y-116828514D01*
X119673714Y-116923752D01*
X119626095Y-116971371D01*
X119530857Y-117018990D01*
X119149904Y-117018990D01*
X120054666Y-116495180D02*
X120721333Y-116495180D01*
X120292761Y-117495180D01*
%TO.C,C13*%
X169497142Y-68429142D02*
X169449523Y-68476761D01*
X169306666Y-68524380D01*
X169211428Y-68524380D01*
X169068571Y-68476761D01*
X168973333Y-68381523D01*
X168925714Y-68286285D01*
X168878095Y-68095809D01*
X168878095Y-67952952D01*
X168925714Y-67762476D01*
X168973333Y-67667238D01*
X169068571Y-67572000D01*
X169211428Y-67524380D01*
X169306666Y-67524380D01*
X169449523Y-67572000D01*
X169497142Y-67619619D01*
X170449523Y-68524380D02*
X169878095Y-68524380D01*
X170163809Y-68524380D02*
X170163809Y-67524380D01*
X170068571Y-67667238D01*
X169973333Y-67762476D01*
X169878095Y-67810095D01*
X170782857Y-67524380D02*
X171401904Y-67524380D01*
X171068571Y-67905333D01*
X171211428Y-67905333D01*
X171306666Y-67952952D01*
X171354285Y-68000571D01*
X171401904Y-68095809D01*
X171401904Y-68333904D01*
X171354285Y-68429142D01*
X171306666Y-68476761D01*
X171211428Y-68524380D01*
X170925714Y-68524380D01*
X170830476Y-68476761D01*
X170782857Y-68429142D01*
%TO.C,C16*%
X112867142Y-66227142D02*
X112819523Y-66274761D01*
X112676666Y-66322380D01*
X112581428Y-66322380D01*
X112438571Y-66274761D01*
X112343333Y-66179523D01*
X112295714Y-66084285D01*
X112248095Y-65893809D01*
X112248095Y-65750952D01*
X112295714Y-65560476D01*
X112343333Y-65465238D01*
X112438571Y-65370000D01*
X112581428Y-65322380D01*
X112676666Y-65322380D01*
X112819523Y-65370000D01*
X112867142Y-65417619D01*
X113819523Y-66322380D02*
X113248095Y-66322380D01*
X113533809Y-66322380D02*
X113533809Y-65322380D01*
X113438571Y-65465238D01*
X113343333Y-65560476D01*
X113248095Y-65608095D01*
X114676666Y-65322380D02*
X114486190Y-65322380D01*
X114390952Y-65370000D01*
X114343333Y-65417619D01*
X114248095Y-65560476D01*
X114200476Y-65750952D01*
X114200476Y-66131904D01*
X114248095Y-66227142D01*
X114295714Y-66274761D01*
X114390952Y-66322380D01*
X114581428Y-66322380D01*
X114676666Y-66274761D01*
X114724285Y-66227142D01*
X114771904Y-66131904D01*
X114771904Y-65893809D01*
X114724285Y-65798571D01*
X114676666Y-65750952D01*
X114581428Y-65703333D01*
X114390952Y-65703333D01*
X114295714Y-65750952D01*
X114248095Y-65798571D01*
X114200476Y-65893809D01*
%TO.C,JP7*%
X130586266Y-71874580D02*
X130586266Y-72588866D01*
X130538647Y-72731723D01*
X130443409Y-72826961D01*
X130300552Y-72874580D01*
X130205314Y-72874580D01*
X131062457Y-72874580D02*
X131062457Y-71874580D01*
X131443409Y-71874580D01*
X131538647Y-71922200D01*
X131586266Y-71969819D01*
X131633885Y-72065057D01*
X131633885Y-72207914D01*
X131586266Y-72303152D01*
X131538647Y-72350771D01*
X131443409Y-72398390D01*
X131062457Y-72398390D01*
X131967219Y-71874580D02*
X132633885Y-71874580D01*
X132205314Y-72874580D01*
%TO.C,U1*%
X175768095Y-101306380D02*
X175768095Y-102115904D01*
X175815714Y-102211142D01*
X175863333Y-102258761D01*
X175958571Y-102306380D01*
X176149047Y-102306380D01*
X176244285Y-102258761D01*
X176291904Y-102211142D01*
X176339523Y-102115904D01*
X176339523Y-101306380D01*
X177339523Y-102306380D02*
X176768095Y-102306380D01*
X177053809Y-102306380D02*
X177053809Y-101306380D01*
X176958571Y-101449238D01*
X176863333Y-101544476D01*
X176768095Y-101592095D01*
%TO.C,C14*%
X181221142Y-99925142D02*
X181173523Y-99972761D01*
X181030666Y-100020380D01*
X180935428Y-100020380D01*
X180792571Y-99972761D01*
X180697333Y-99877523D01*
X180649714Y-99782285D01*
X180602095Y-99591809D01*
X180602095Y-99448952D01*
X180649714Y-99258476D01*
X180697333Y-99163238D01*
X180792571Y-99068000D01*
X180935428Y-99020380D01*
X181030666Y-99020380D01*
X181173523Y-99068000D01*
X181221142Y-99115619D01*
X182173523Y-100020380D02*
X181602095Y-100020380D01*
X181887809Y-100020380D02*
X181887809Y-99020380D01*
X181792571Y-99163238D01*
X181697333Y-99258476D01*
X181602095Y-99306095D01*
X183030666Y-99353714D02*
X183030666Y-100020380D01*
X182792571Y-98972761D02*
X182554476Y-99687047D01*
X183173523Y-99687047D01*
%TO.C,U17*%
X161321904Y-72096380D02*
X161321904Y-72905904D01*
X161369523Y-73001142D01*
X161417142Y-73048761D01*
X161512380Y-73096380D01*
X161702857Y-73096380D01*
X161798095Y-73048761D01*
X161845714Y-73001142D01*
X161893333Y-72905904D01*
X161893333Y-72096380D01*
X162893333Y-73096380D02*
X162321904Y-73096380D01*
X162607619Y-73096380D02*
X162607619Y-72096380D01*
X162512380Y-72239238D01*
X162417142Y-72334476D01*
X162321904Y-72382095D01*
X163226666Y-72096380D02*
X163893333Y-72096380D01*
X163464761Y-73096380D01*
%TO.C,R5*%
X119721333Y-122372380D02*
X119388000Y-121896190D01*
X119149904Y-122372380D02*
X119149904Y-121372380D01*
X119530857Y-121372380D01*
X119626095Y-121420000D01*
X119673714Y-121467619D01*
X119721333Y-121562857D01*
X119721333Y-121705714D01*
X119673714Y-121800952D01*
X119626095Y-121848571D01*
X119530857Y-121896190D01*
X119149904Y-121896190D01*
X120626095Y-121372380D02*
X120149904Y-121372380D01*
X120102285Y-121848571D01*
X120149904Y-121800952D01*
X120245142Y-121753333D01*
X120483238Y-121753333D01*
X120578476Y-121800952D01*
X120626095Y-121848571D01*
X120673714Y-121943809D01*
X120673714Y-122181904D01*
X120626095Y-122277142D01*
X120578476Y-122324761D01*
X120483238Y-122372380D01*
X120245142Y-122372380D01*
X120149904Y-122324761D01*
X120102285Y-122277142D01*
%TO.C,U16*%
X147351904Y-101306380D02*
X147351904Y-102115904D01*
X147399523Y-102211142D01*
X147447142Y-102258761D01*
X147542380Y-102306380D01*
X147732857Y-102306380D01*
X147828095Y-102258761D01*
X147875714Y-102211142D01*
X147923333Y-102115904D01*
X147923333Y-101306380D01*
X148923333Y-102306380D02*
X148351904Y-102306380D01*
X148637619Y-102306380D02*
X148637619Y-101306380D01*
X148542380Y-101449238D01*
X148447142Y-101544476D01*
X148351904Y-101592095D01*
X149780476Y-101306380D02*
X149590000Y-101306380D01*
X149494761Y-101354000D01*
X149447142Y-101401619D01*
X149351904Y-101544476D01*
X149304285Y-101734952D01*
X149304285Y-102115904D01*
X149351904Y-102211142D01*
X149399523Y-102258761D01*
X149494761Y-102306380D01*
X149685238Y-102306380D01*
X149780476Y-102258761D01*
X149828095Y-102211142D01*
X149875714Y-102115904D01*
X149875714Y-101877809D01*
X149828095Y-101782571D01*
X149780476Y-101734952D01*
X149685238Y-101687333D01*
X149494761Y-101687333D01*
X149399523Y-101734952D01*
X149351904Y-101782571D01*
X149304285Y-101877809D01*
%TO.C,U3*%
X206248095Y-45680380D02*
X206248095Y-46489904D01*
X206295714Y-46585142D01*
X206343333Y-46632761D01*
X206438571Y-46680380D01*
X206629047Y-46680380D01*
X206724285Y-46632761D01*
X206771904Y-46585142D01*
X206819523Y-46489904D01*
X206819523Y-45680380D01*
X207200476Y-45680380D02*
X207819523Y-45680380D01*
X207486190Y-46061333D01*
X207629047Y-46061333D01*
X207724285Y-46108952D01*
X207771904Y-46156571D01*
X207819523Y-46251809D01*
X207819523Y-46489904D01*
X207771904Y-46585142D01*
X207724285Y-46632761D01*
X207629047Y-46680380D01*
X207343333Y-46680380D01*
X207248095Y-46632761D01*
X207200476Y-46585142D01*
%TO.C,CON1*%
X84475542Y-67889285D02*
X84523161Y-67936904D01*
X84570780Y-68079761D01*
X84570780Y-68175000D01*
X84523161Y-68317857D01*
X84427923Y-68413095D01*
X84332685Y-68460714D01*
X84142209Y-68508333D01*
X83999352Y-68508333D01*
X83808876Y-68460714D01*
X83713638Y-68413095D01*
X83618400Y-68317857D01*
X83570780Y-68175000D01*
X83570780Y-68079761D01*
X83618400Y-67936904D01*
X83666019Y-67889285D01*
X83570780Y-67270238D02*
X83570780Y-67079761D01*
X83618400Y-66984523D01*
X83713638Y-66889285D01*
X83904114Y-66841666D01*
X84237447Y-66841666D01*
X84427923Y-66889285D01*
X84523161Y-66984523D01*
X84570780Y-67079761D01*
X84570780Y-67270238D01*
X84523161Y-67365476D01*
X84427923Y-67460714D01*
X84237447Y-67508333D01*
X83904114Y-67508333D01*
X83713638Y-67460714D01*
X83618400Y-67365476D01*
X83570780Y-67270238D01*
X84570780Y-66413095D02*
X83570780Y-66413095D01*
X84570780Y-65841666D01*
X83570780Y-65841666D01*
X84570780Y-64841666D02*
X84570780Y-65413095D01*
X84570780Y-65127380D02*
X83570780Y-65127380D01*
X83713638Y-65222619D01*
X83808876Y-65317857D01*
X83856495Y-65413095D01*
%TO.C,C2*%
X211669333Y-44045142D02*
X211621714Y-44092761D01*
X211478857Y-44140380D01*
X211383619Y-44140380D01*
X211240761Y-44092761D01*
X211145523Y-43997523D01*
X211097904Y-43902285D01*
X211050285Y-43711809D01*
X211050285Y-43568952D01*
X211097904Y-43378476D01*
X211145523Y-43283238D01*
X211240761Y-43188000D01*
X211383619Y-43140380D01*
X211478857Y-43140380D01*
X211621714Y-43188000D01*
X211669333Y-43235619D01*
X212050285Y-43235619D02*
X212097904Y-43188000D01*
X212193142Y-43140380D01*
X212431238Y-43140380D01*
X212526476Y-43188000D01*
X212574095Y-43235619D01*
X212621714Y-43330857D01*
X212621714Y-43426095D01*
X212574095Y-43568952D01*
X212002666Y-44140380D01*
X212621714Y-44140380D01*
%TO.C,C11*%
X153027142Y-70715142D02*
X152979523Y-70762761D01*
X152836666Y-70810380D01*
X152741428Y-70810380D01*
X152598571Y-70762761D01*
X152503333Y-70667523D01*
X152455714Y-70572285D01*
X152408095Y-70381809D01*
X152408095Y-70238952D01*
X152455714Y-70048476D01*
X152503333Y-69953238D01*
X152598571Y-69858000D01*
X152741428Y-69810380D01*
X152836666Y-69810380D01*
X152979523Y-69858000D01*
X153027142Y-69905619D01*
X153979523Y-70810380D02*
X153408095Y-70810380D01*
X153693809Y-70810380D02*
X153693809Y-69810380D01*
X153598571Y-69953238D01*
X153503333Y-70048476D01*
X153408095Y-70096095D01*
X154931904Y-70810380D02*
X154360476Y-70810380D01*
X154646190Y-70810380D02*
X154646190Y-69810380D01*
X154550952Y-69953238D01*
X154455714Y-70048476D01*
X154360476Y-70096095D01*
%TO.C,R14*%
X133723142Y-120340380D02*
X133389809Y-119864190D01*
X133151714Y-120340380D02*
X133151714Y-119340380D01*
X133532666Y-119340380D01*
X133627904Y-119388000D01*
X133675523Y-119435619D01*
X133723142Y-119530857D01*
X133723142Y-119673714D01*
X133675523Y-119768952D01*
X133627904Y-119816571D01*
X133532666Y-119864190D01*
X133151714Y-119864190D01*
X134675523Y-120340380D02*
X134104095Y-120340380D01*
X134389809Y-120340380D02*
X134389809Y-119340380D01*
X134294571Y-119483238D01*
X134199333Y-119578476D01*
X134104095Y-119626095D01*
X135532666Y-119673714D02*
X135532666Y-120340380D01*
X135294571Y-119292761D02*
X135056476Y-120007047D01*
X135675523Y-120007047D01*
%TO.C,R6*%
X119721333Y-115082580D02*
X119388000Y-114606390D01*
X119149904Y-115082580D02*
X119149904Y-114082580D01*
X119530857Y-114082580D01*
X119626095Y-114130200D01*
X119673714Y-114177819D01*
X119721333Y-114273057D01*
X119721333Y-114415914D01*
X119673714Y-114511152D01*
X119626095Y-114558771D01*
X119530857Y-114606390D01*
X119149904Y-114606390D01*
X120578476Y-114082580D02*
X120388000Y-114082580D01*
X120292761Y-114130200D01*
X120245142Y-114177819D01*
X120149904Y-114320676D01*
X120102285Y-114511152D01*
X120102285Y-114892104D01*
X120149904Y-114987342D01*
X120197523Y-115034961D01*
X120292761Y-115082580D01*
X120483238Y-115082580D01*
X120578476Y-115034961D01*
X120626095Y-114987342D01*
X120673714Y-114892104D01*
X120673714Y-114654009D01*
X120626095Y-114558771D01*
X120578476Y-114511152D01*
X120483238Y-114463533D01*
X120292761Y-114463533D01*
X120197523Y-114511152D01*
X120149904Y-114558771D01*
X120102285Y-114654009D01*
%TO.C,C7*%
X195413333Y-103989142D02*
X195365714Y-104036761D01*
X195222857Y-104084380D01*
X195127619Y-104084380D01*
X194984761Y-104036761D01*
X194889523Y-103941523D01*
X194841904Y-103846285D01*
X194794285Y-103655809D01*
X194794285Y-103512952D01*
X194841904Y-103322476D01*
X194889523Y-103227238D01*
X194984761Y-103132000D01*
X195127619Y-103084380D01*
X195222857Y-103084380D01*
X195365714Y-103132000D01*
X195413333Y-103179619D01*
X195746666Y-103084380D02*
X196413333Y-103084380D01*
X195984761Y-104084380D01*
%TO.C,U8*%
X189738095Y-105624380D02*
X189738095Y-106433904D01*
X189785714Y-106529142D01*
X189833333Y-106576761D01*
X189928571Y-106624380D01*
X190119047Y-106624380D01*
X190214285Y-106576761D01*
X190261904Y-106529142D01*
X190309523Y-106433904D01*
X190309523Y-105624380D01*
X190928571Y-106052952D02*
X190833333Y-106005333D01*
X190785714Y-105957714D01*
X190738095Y-105862476D01*
X190738095Y-105814857D01*
X190785714Y-105719619D01*
X190833333Y-105672000D01*
X190928571Y-105624380D01*
X191119047Y-105624380D01*
X191214285Y-105672000D01*
X191261904Y-105719619D01*
X191309523Y-105814857D01*
X191309523Y-105862476D01*
X191261904Y-105957714D01*
X191214285Y-106005333D01*
X191119047Y-106052952D01*
X190928571Y-106052952D01*
X190833333Y-106100571D01*
X190785714Y-106148190D01*
X190738095Y-106243428D01*
X190738095Y-106433904D01*
X190785714Y-106529142D01*
X190833333Y-106576761D01*
X190928571Y-106624380D01*
X191119047Y-106624380D01*
X191214285Y-106576761D01*
X191261904Y-106529142D01*
X191309523Y-106433904D01*
X191309523Y-106243428D01*
X191261904Y-106148190D01*
X191214285Y-106100571D01*
X191119047Y-106052952D01*
%TO.C,JP3*%
X143641866Y-71874580D02*
X143641866Y-72588866D01*
X143594247Y-72731723D01*
X143499009Y-72826961D01*
X143356152Y-72874580D01*
X143260914Y-72874580D01*
X144118057Y-72874580D02*
X144118057Y-71874580D01*
X144499009Y-71874580D01*
X144594247Y-71922200D01*
X144641866Y-71969819D01*
X144689485Y-72065057D01*
X144689485Y-72207914D01*
X144641866Y-72303152D01*
X144594247Y-72350771D01*
X144499009Y-72398390D01*
X144118057Y-72398390D01*
X145022819Y-71874580D02*
X145641866Y-71874580D01*
X145308533Y-72255533D01*
X145451390Y-72255533D01*
X145546628Y-72303152D01*
X145594247Y-72350771D01*
X145641866Y-72446009D01*
X145641866Y-72684104D01*
X145594247Y-72779342D01*
X145546628Y-72826961D01*
X145451390Y-72874580D01*
X145165676Y-72874580D01*
X145070438Y-72826961D01*
X145022819Y-72779342D01*
%TO.C,R13*%
X133723142Y-115742980D02*
X133389809Y-115266790D01*
X133151714Y-115742980D02*
X133151714Y-114742980D01*
X133532666Y-114742980D01*
X133627904Y-114790600D01*
X133675523Y-114838219D01*
X133723142Y-114933457D01*
X133723142Y-115076314D01*
X133675523Y-115171552D01*
X133627904Y-115219171D01*
X133532666Y-115266790D01*
X133151714Y-115266790D01*
X134675523Y-115742980D02*
X134104095Y-115742980D01*
X134389809Y-115742980D02*
X134389809Y-114742980D01*
X134294571Y-114885838D01*
X134199333Y-114981076D01*
X134104095Y-115028695D01*
X135008857Y-114742980D02*
X135627904Y-114742980D01*
X135294571Y-115123933D01*
X135437428Y-115123933D01*
X135532666Y-115171552D01*
X135580285Y-115219171D01*
X135627904Y-115314409D01*
X135627904Y-115552504D01*
X135580285Y-115647742D01*
X135532666Y-115695361D01*
X135437428Y-115742980D01*
X135151714Y-115742980D01*
X135056476Y-115695361D01*
X135008857Y-115647742D01*
%TO.C,J3*%
X132290380Y-129609833D02*
X133004666Y-129609833D01*
X133147523Y-129657452D01*
X133242761Y-129752690D01*
X133290380Y-129895547D01*
X133290380Y-129990785D01*
X132290380Y-129228880D02*
X132290380Y-128609833D01*
X132671333Y-128943166D01*
X132671333Y-128800309D01*
X132718952Y-128705071D01*
X132766571Y-128657452D01*
X132861809Y-128609833D01*
X133099904Y-128609833D01*
X133195142Y-128657452D01*
X133242761Y-128705071D01*
X133290380Y-128800309D01*
X133290380Y-129086023D01*
X133242761Y-129181261D01*
X133195142Y-129228880D01*
%TO.C,LED1*%
X80472019Y-117575152D02*
X80472019Y-117098961D01*
X81472019Y-117098961D01*
X80995828Y-117908485D02*
X80995828Y-118241819D01*
X80472019Y-118384676D02*
X80472019Y-117908485D01*
X81472019Y-117908485D01*
X81472019Y-118384676D01*
X80472019Y-118813247D02*
X81472019Y-118813247D01*
X81472019Y-119051342D01*
X81424400Y-119194200D01*
X81329161Y-119289438D01*
X81233923Y-119337057D01*
X81043447Y-119384676D01*
X80900590Y-119384676D01*
X80710114Y-119337057D01*
X80614876Y-119289438D01*
X80519638Y-119194200D01*
X80472019Y-119051342D01*
X80472019Y-118813247D01*
X80472019Y-120337057D02*
X80472019Y-119765628D01*
X80472019Y-120051342D02*
X81472019Y-120051342D01*
X81329161Y-119956104D01*
X81233923Y-119860866D01*
X81186304Y-119765628D01*
D13*
%TO.C,R1*%
X215550000Y-134620000D02*
X216170000Y-134620000D01*
X215550000Y-134620000D02*
G75*
G03*
X215550000Y-134620000I-920000J0D01*
G01*
%TO.C,Q1*%
X219180000Y-135200000D02*
X222780000Y-135200000D01*
X222818478Y-135188478D02*
G75*
G03*
X220980000Y-130750000I-1838478J1838478D01*
G01*
X220980000Y-130749999D02*
G75*
G03*
X219141522Y-135188478I0J-2600001D01*
G01*
%TO.C,C12*%
X157330000Y-102720000D02*
X150090000Y-102720000D01*
X157330000Y-102720000D02*
X157330000Y-100480000D01*
X150090000Y-102720000D02*
X150090000Y-100480000D01*
X157330000Y-100480000D02*
X150090000Y-100480000D01*
%TO.C,R4*%
X76581000Y-113791800D02*
X76581000Y-112841800D01*
X76581000Y-108051800D02*
X76581000Y-109001800D01*
X77501000Y-109001800D02*
X75661000Y-109001800D01*
X75661000Y-109001800D02*
X75661000Y-112841800D01*
X75661000Y-112841800D02*
X77501000Y-112841800D01*
X77501000Y-112841800D02*
X77501000Y-109001800D01*
%TO.C,JP6*%
X134407600Y-81162200D02*
X137067600Y-81162200D01*
X134407600Y-73422200D02*
X135737600Y-73422200D01*
X134407600Y-76022200D02*
X134407600Y-81162200D01*
X134407600Y-74752200D02*
X134407600Y-73422200D01*
X137067600Y-76022200D02*
X137067600Y-81162200D01*
X134407600Y-76022200D02*
X137067600Y-76022200D01*
%TO.C,R11*%
X138796000Y-111689400D02*
X142636000Y-111689400D01*
X142636000Y-111689400D02*
X142636000Y-109849400D01*
X142636000Y-109849400D02*
X138796000Y-109849400D01*
X143586000Y-110769400D02*
X142636000Y-110769400D01*
X138796000Y-109849400D02*
X138796000Y-111689400D01*
X137846000Y-110769400D02*
X138796000Y-110769400D01*
%TO.C,U12*%
X147150000Y-73540000D02*
X147150000Y-94100000D01*
X147150000Y-94100000D02*
X157650000Y-94100000D01*
X157650000Y-94100000D02*
X157650000Y-73540000D01*
X154650000Y-73600000D02*
X153400000Y-73600000D01*
X157650000Y-73540000D02*
X147150000Y-73540000D01*
X154650000Y-94040000D02*
X154650000Y-73600000D01*
X150150000Y-73600000D02*
X150150000Y-94040000D01*
X150150000Y-94040000D02*
X154650000Y-94040000D01*
X151400000Y-73600000D02*
X150150000Y-73600000D01*
X151400000Y-73600000D02*
G75*
G03*
X153400000Y-73600000I1000000J0D01*
G01*
%TO.C,C15*%
X171300000Y-71270000D02*
X164060000Y-71270000D01*
X171300000Y-73510000D02*
X171300000Y-71270000D01*
X171300000Y-73510000D02*
X164060000Y-73510000D01*
X164060000Y-73510000D02*
X164060000Y-71270000D01*
%TO.C,X1*%
X129220200Y-44236200D02*
X117820200Y-44236200D01*
X117070200Y-44986200D02*
X117070200Y-64386200D01*
X117820200Y-65136200D02*
X129970200Y-65136200D01*
X129970200Y-65136200D02*
X129970200Y-44986200D01*
X129970200Y-44986200D02*
G75*
G03*
X129220200Y-44236200I-750000J0D01*
G01*
X117820200Y-44236200D02*
G75*
G03*
X117070200Y-44986200I0J-750000D01*
G01*
X117070200Y-64386200D02*
G75*
G03*
X117820200Y-65136200I750000J0D01*
G01*
%TO.C,C4*%
X215695000Y-106535000D02*
X208455000Y-106535000D01*
X208455000Y-106535000D02*
X208455000Y-104295000D01*
X215695000Y-106535000D02*
X215695000Y-104295000D01*
X215695000Y-104295000D02*
X208455000Y-104295000D01*
%TO.C,R9*%
X74117200Y-96632200D02*
X74117200Y-97582200D01*
X74117200Y-102372200D02*
X74117200Y-101422200D01*
X73197200Y-101422200D02*
X75037200Y-101422200D01*
X75037200Y-97582200D02*
X73197200Y-97582200D01*
X75037200Y-101422200D02*
X75037200Y-97582200D01*
X73197200Y-97582200D02*
X73197200Y-101422200D01*
%TO.C,C1*%
X199225000Y-75085000D02*
X191985000Y-75085000D01*
X199225000Y-77325000D02*
X191985000Y-77325000D01*
X191985000Y-77325000D02*
X191985000Y-75085000D01*
X199225000Y-77325000D02*
X199225000Y-75085000D01*
%TO.C,U6*%
X124750000Y-92650000D02*
X124750000Y-110550000D01*
X121750000Y-92590000D02*
X121750000Y-110610000D01*
X132250000Y-92590000D02*
X121750000Y-92590000D01*
X129250000Y-110550000D02*
X129250000Y-92650000D01*
X121750000Y-110610000D02*
X132250000Y-110610000D01*
X129250000Y-92650000D02*
X128000000Y-92650000D01*
X124750000Y-110550000D02*
X129250000Y-110550000D01*
X126000000Y-92650000D02*
X124750000Y-92650000D01*
X132250000Y-110610000D02*
X132250000Y-92590000D01*
X126000000Y-92650000D02*
G75*
G03*
X128000000Y-92650000I1000000J0D01*
G01*
%TO.C,C17*%
X125171000Y-72160000D02*
X125171000Y-74682000D01*
X126331000Y-68516000D02*
X126331000Y-73724000D01*
X125611000Y-67840000D02*
X125611000Y-74400000D01*
X125051000Y-67493000D02*
X125051000Y-70080000D01*
X123931000Y-72160000D02*
X123931000Y-75130000D01*
X123330000Y-67043000D02*
X123330000Y-75197000D01*
X124651000Y-72160000D02*
X124651000Y-74925000D01*
X125651000Y-67870000D02*
X125651000Y-74370000D01*
X126891000Y-69389000D02*
X126891000Y-72851000D01*
X124731000Y-67346000D02*
X124731000Y-70080000D01*
X126171000Y-68336000D02*
X126171000Y-73904000D01*
X126531000Y-68775000D02*
X126531000Y-73465000D01*
X126491000Y-68720000D02*
X126491000Y-73520000D01*
X126291000Y-68469000D02*
X126291000Y-73771000D01*
X124091000Y-72160000D02*
X124091000Y-75096000D01*
X125211000Y-67580000D02*
X125211000Y-70080000D01*
X125251000Y-67603000D02*
X125251000Y-70080000D01*
X123570000Y-67059000D02*
X123570000Y-70080000D01*
X123690000Y-67072000D02*
X123690000Y-70080000D01*
X126051000Y-68213000D02*
X126051000Y-74027000D01*
X124931000Y-72160000D02*
X124931000Y-74806000D01*
X126571000Y-68833000D02*
X126571000Y-73407000D01*
X126611000Y-68892000D02*
X126611000Y-73348000D01*
X127131000Y-70022000D02*
X127131000Y-72218000D01*
X123410000Y-67046000D02*
X123410000Y-70080000D01*
X123770000Y-72160000D02*
X123770000Y-75157000D01*
X125691000Y-67900000D02*
X125691000Y-74340000D01*
X124171000Y-67163000D02*
X124171000Y-70080000D01*
X123610000Y-67063000D02*
X123610000Y-70080000D01*
X124811000Y-67380000D02*
X124811000Y-70080000D01*
X124851000Y-72160000D02*
X124851000Y-74842000D01*
X123891000Y-67103000D02*
X123891000Y-70080000D01*
X126811000Y-69230000D02*
X126811000Y-73010000D01*
X124411000Y-67231000D02*
X124411000Y-70080000D01*
X124731000Y-72160000D02*
X124731000Y-74894000D01*
X124491000Y-72160000D02*
X124491000Y-74983000D01*
X123490000Y-72160000D02*
X123490000Y-75188000D01*
X126131000Y-68294000D02*
X126131000Y-73946000D01*
X124331000Y-67206000D02*
X124331000Y-70080000D01*
X123971000Y-67118000D02*
X123971000Y-70080000D01*
X123650000Y-72160000D02*
X123650000Y-75172000D01*
X125851000Y-68030000D02*
X125851000Y-74210000D01*
X124371000Y-67218000D02*
X124371000Y-70080000D01*
X124051000Y-67135000D02*
X124051000Y-70080000D01*
X126451000Y-68666000D02*
X126451000Y-73574000D01*
X126011000Y-68175000D02*
X126011000Y-74065000D01*
X125291000Y-67627000D02*
X125291000Y-70080000D01*
X123690000Y-72160000D02*
X123690000Y-75168000D01*
X125051000Y-72160000D02*
X125051000Y-74747000D01*
X124411000Y-72160000D02*
X124411000Y-75009000D01*
X124251000Y-72160000D02*
X124251000Y-75056000D01*
X124251000Y-67184000D02*
X124251000Y-70080000D01*
X124971000Y-67454000D02*
X124971000Y-70080000D01*
X124611000Y-72160000D02*
X124611000Y-74941000D01*
X125491000Y-67755000D02*
X125491000Y-74485000D01*
X124451000Y-72160000D02*
X124451000Y-74997000D01*
X124931000Y-67434000D02*
X124931000Y-70080000D01*
X125771000Y-67964000D02*
X125771000Y-74276000D01*
X127051000Y-69774000D02*
X127051000Y-72466000D01*
X123530000Y-67055000D02*
X123530000Y-70080000D01*
X124971000Y-72160000D02*
X124971000Y-74786000D01*
X124211000Y-67173000D02*
X124211000Y-70080000D01*
X125331000Y-72160000D02*
X125331000Y-74589000D01*
X124491000Y-67257000D02*
X124491000Y-70080000D01*
X125011000Y-72160000D02*
X125011000Y-74767000D01*
X124691000Y-67330000D02*
X124691000Y-70080000D01*
X127091000Y-69891000D02*
X127091000Y-72349000D01*
X125971000Y-68137000D02*
X125971000Y-74103000D01*
X124691000Y-72160000D02*
X124691000Y-74910000D01*
X123450000Y-72160000D02*
X123450000Y-75191000D01*
X124571000Y-67285000D02*
X124571000Y-70080000D01*
X125531000Y-67782000D02*
X125531000Y-74458000D01*
X126851000Y-69307000D02*
X126851000Y-72933000D01*
X125411000Y-72160000D02*
X125411000Y-74538000D01*
X124611000Y-67299000D02*
X124611000Y-70080000D01*
X124131000Y-67153000D02*
X124131000Y-70080000D01*
X124011000Y-67126000D02*
X124011000Y-70080000D01*
X124291000Y-67195000D02*
X124291000Y-70080000D01*
X123730000Y-67078000D02*
X123730000Y-70080000D01*
X123810000Y-67090000D02*
X123810000Y-70080000D01*
X126771000Y-69156000D02*
X126771000Y-73084000D01*
X125411000Y-67702000D02*
X125411000Y-70080000D01*
X123891000Y-72160000D02*
X123891000Y-75137000D01*
X124171000Y-72160000D02*
X124171000Y-75077000D01*
X118760302Y-68805000D02*
X119560302Y-68805000D01*
X126251000Y-68423000D02*
X126251000Y-73817000D01*
X125451000Y-72160000D02*
X125451000Y-74512000D01*
X125331000Y-67651000D02*
X125331000Y-70080000D01*
X126971000Y-69568000D02*
X126971000Y-72672000D01*
X124851000Y-67398000D02*
X124851000Y-70080000D01*
X123931000Y-67110000D02*
X123931000Y-70080000D01*
X123450000Y-67049000D02*
X123450000Y-70080000D01*
X123410000Y-72160000D02*
X123410000Y-75194000D01*
X125811000Y-67996000D02*
X125811000Y-74244000D01*
X126931000Y-69475000D02*
X126931000Y-72765000D01*
X125211000Y-72160000D02*
X125211000Y-74660000D01*
X124891000Y-67416000D02*
X124891000Y-70080000D01*
X125451000Y-67728000D02*
X125451000Y-70080000D01*
X126651000Y-68954000D02*
X126651000Y-73286000D01*
X123971000Y-72160000D02*
X123971000Y-75122000D01*
X124371000Y-72160000D02*
X124371000Y-75022000D01*
X124891000Y-72160000D02*
X124891000Y-74824000D01*
X127011000Y-69667000D02*
X127011000Y-72573000D01*
X123610000Y-72160000D02*
X123610000Y-75177000D01*
X127171000Y-70172000D02*
X127171000Y-72068000D01*
X125251000Y-72160000D02*
X125251000Y-74637000D01*
X123810000Y-72160000D02*
X123810000Y-75150000D01*
X123530000Y-72160000D02*
X123530000Y-75185000D01*
X119160302Y-68405000D02*
X119160302Y-69205000D01*
X123370000Y-67044000D02*
X123370000Y-75196000D01*
X123850000Y-72160000D02*
X123850000Y-75144000D01*
X124131000Y-72160000D02*
X124131000Y-75087000D01*
X123570000Y-72160000D02*
X123570000Y-75181000D01*
X123250000Y-67040000D02*
X123250000Y-75200000D01*
X125131000Y-72160000D02*
X125131000Y-74704000D01*
X124211000Y-72160000D02*
X124211000Y-75067000D01*
X124571000Y-72160000D02*
X124571000Y-74955000D01*
X123850000Y-67096000D02*
X123850000Y-70080000D01*
X125011000Y-67473000D02*
X125011000Y-70080000D01*
X126411000Y-68615000D02*
X126411000Y-73625000D01*
X124531000Y-67270000D02*
X124531000Y-70080000D01*
X126091000Y-68253000D02*
X126091000Y-73987000D01*
X127211000Y-70352000D02*
X127211000Y-71888000D01*
X126691000Y-69018000D02*
X126691000Y-73222000D01*
X125571000Y-67811000D02*
X125571000Y-74429000D01*
X124451000Y-67243000D02*
X124451000Y-70080000D01*
X125291000Y-72160000D02*
X125291000Y-74613000D01*
X124651000Y-67315000D02*
X124651000Y-70080000D01*
X124091000Y-67144000D02*
X124091000Y-70080000D01*
X124011000Y-72160000D02*
X124011000Y-75114000D01*
X125371000Y-67676000D02*
X125371000Y-70080000D01*
X126731000Y-69086000D02*
X126731000Y-73154000D01*
X124771000Y-72160000D02*
X124771000Y-74877000D01*
X125371000Y-72160000D02*
X125371000Y-74564000D01*
X124771000Y-67363000D02*
X124771000Y-70080000D01*
X126211000Y-68379000D02*
X126211000Y-73861000D01*
X125931000Y-68101000D02*
X125931000Y-74139000D01*
X123730000Y-72160000D02*
X123730000Y-75162000D01*
X123210000Y-67040000D02*
X123210000Y-75200000D01*
X125131000Y-67536000D02*
X125131000Y-70080000D01*
X124291000Y-72160000D02*
X124291000Y-75045000D01*
X123290000Y-67041000D02*
X123290000Y-75199000D01*
X123650000Y-67068000D02*
X123650000Y-70080000D01*
X123170000Y-67040000D02*
X123170000Y-75200000D01*
X124051000Y-72160000D02*
X124051000Y-75105000D01*
X127251000Y-70587000D02*
X127251000Y-71653000D01*
X125091000Y-72160000D02*
X125091000Y-74726000D01*
X124811000Y-72160000D02*
X124811000Y-74860000D01*
X123770000Y-67083000D02*
X123770000Y-70080000D01*
X125171000Y-67558000D02*
X125171000Y-70080000D01*
X124331000Y-72160000D02*
X124331000Y-75034000D01*
X123490000Y-67052000D02*
X123490000Y-70080000D01*
X125091000Y-67514000D02*
X125091000Y-70080000D01*
X126371000Y-68564000D02*
X126371000Y-73676000D01*
X124531000Y-72160000D02*
X124531000Y-74970000D01*
X125891000Y-68065000D02*
X125891000Y-74175000D01*
X125731000Y-67931000D02*
X125731000Y-74309000D01*
X127290000Y-71120000D02*
G75*
G03*
X127290000Y-71120000I-4120000J0D01*
G01*
%TO.C,U5*%
X213055000Y-106625000D02*
X211805000Y-106625000D01*
X208555000Y-132145000D02*
X213055000Y-132145000D01*
X209805000Y-106625000D02*
X208555000Y-106625000D01*
X208555000Y-106625000D02*
X208555000Y-132145000D01*
X213055000Y-132145000D02*
X213055000Y-106625000D01*
X209805000Y-106625000D02*
G75*
G03*
X211805000Y-106625000I1000000J0D01*
G01*
%TO.C,U15*%
X103846000Y-43412000D02*
X114086000Y-43412000D01*
X108966000Y-59302000D02*
X108966000Y-61842000D01*
X111506000Y-59302000D02*
X111506000Y-61842000D01*
X114086000Y-43412000D02*
X114086000Y-59302000D01*
X103846000Y-59302000D02*
X114086000Y-59302000D01*
X103846000Y-43412000D02*
X103846000Y-59302000D01*
X106426000Y-59302000D02*
X106426000Y-61842000D01*
%TO.C,C9*%
X119190000Y-92560000D02*
X119190000Y-90320000D01*
X119190000Y-92560000D02*
X111950000Y-92560000D01*
X119190000Y-90320000D02*
X111950000Y-90320000D01*
X111950000Y-92560000D02*
X111950000Y-90320000D01*
%TO.C,U9*%
X189045000Y-47134000D02*
X189045000Y-72774000D01*
X199545000Y-72774000D02*
X199545000Y-47134000D01*
X189045000Y-72774000D02*
X199545000Y-72774000D01*
X196545000Y-72714000D02*
X196545000Y-47194000D01*
X199545000Y-47134000D02*
X189045000Y-47134000D01*
X193295000Y-47194000D02*
X192045000Y-47194000D01*
X196545000Y-47194000D02*
X195295000Y-47194000D01*
X192045000Y-47194000D02*
X192045000Y-72714000D01*
X192045000Y-72714000D02*
X196545000Y-72714000D01*
X193295000Y-47194000D02*
G75*
G03*
X195295000Y-47194000I1000000J0D01*
G01*
%TO.C,R2*%
X124927600Y-115524800D02*
X128767600Y-115524800D01*
X124927600Y-113684800D02*
X124927600Y-115524800D01*
X128767600Y-115524800D02*
X128767600Y-113684800D01*
X128767600Y-113684800D02*
X124927600Y-113684800D01*
X123977600Y-114604800D02*
X124927600Y-114604800D01*
X129717600Y-114604800D02*
X128767600Y-114604800D01*
%TO.C,C6*%
X99250000Y-119230000D02*
X99250000Y-116990000D01*
X106490000Y-116990000D02*
X99250000Y-116990000D01*
X106490000Y-119230000D02*
X99250000Y-119230000D01*
X106490000Y-119230000D02*
X106490000Y-116990000D01*
%TO.C,R3*%
X80015600Y-112841800D02*
X80015600Y-109001800D01*
X78175600Y-109001800D02*
X78175600Y-112841800D01*
X78175600Y-112841800D02*
X80015600Y-112841800D01*
X79095600Y-108051800D02*
X79095600Y-109001800D01*
X79095600Y-113791800D02*
X79095600Y-112841800D01*
X80015600Y-109001800D02*
X78175600Y-109001800D01*
%TO.C,U13*%
X181730000Y-64940000D02*
X181730000Y-46820000D01*
X130750000Y-56880000D02*
X130750000Y-61940000D01*
X181670000Y-61940000D02*
X181670000Y-49820000D01*
X130690000Y-64940000D02*
X181730000Y-64940000D01*
X181670000Y-49820000D02*
X130750000Y-49820000D01*
X181730000Y-46820000D02*
X130690000Y-46820000D01*
X130690000Y-46820000D02*
X130690000Y-64940000D01*
X130750000Y-49820000D02*
X130750000Y-54880000D01*
X130750000Y-61940000D02*
X181670000Y-61940000D01*
X130750000Y-56880000D02*
G75*
G03*
X130750000Y-54880000I0J1000000D01*
G01*
%TO.C,JP4*%
X138776400Y-76022200D02*
X141436400Y-76022200D01*
X138776400Y-76022200D02*
X138776400Y-78622200D01*
X141436400Y-76022200D02*
X141436400Y-78622200D01*
X138776400Y-78622200D02*
X141436400Y-78622200D01*
X138776400Y-74752200D02*
X138776400Y-73422200D01*
X138776400Y-73422200D02*
X140106400Y-73422200D01*
%TO.C,R12*%
X138796000Y-112110000D02*
X138796000Y-113950000D01*
X142636000Y-113950000D02*
X142636000Y-112110000D01*
X143586000Y-113030000D02*
X142636000Y-113030000D01*
X137846000Y-113030000D02*
X138796000Y-113030000D01*
X142636000Y-112110000D02*
X138796000Y-112110000D01*
X138796000Y-113950000D02*
X142636000Y-113950000D01*
%TO.C,C8*%
X199145000Y-44605000D02*
X191905000Y-44605000D01*
X191905000Y-46845000D02*
X191905000Y-44605000D01*
X199145000Y-46845000D02*
X199145000Y-44605000D01*
X199145000Y-46845000D02*
X191905000Y-46845000D01*
%TO.C,U7*%
X105830000Y-115990000D02*
X105830000Y-92290000D01*
X105830000Y-92290000D02*
X94980000Y-92290000D01*
X92980000Y-92290000D02*
X83130000Y-92290000D01*
X82130000Y-93290000D02*
X82130000Y-115990000D01*
X82130000Y-115990000D02*
X105830000Y-115990000D01*
X83130000Y-92290000D02*
X82130000Y-93290000D01*
%TO.C,U4*%
X213055000Y-77415000D02*
X211805000Y-77415000D01*
X213055000Y-102935000D02*
X213055000Y-77415000D01*
X208555000Y-77415000D02*
X208555000Y-102935000D01*
X209805000Y-77415000D02*
X208555000Y-77415000D01*
X208555000Y-102935000D02*
X213055000Y-102935000D01*
X209805000Y-77415000D02*
G75*
G03*
X211805000Y-77415000I1000000J0D01*
G01*
%TO.C,C10*%
X171300000Y-100480000D02*
X164060000Y-100480000D01*
X171300000Y-102720000D02*
X171300000Y-100480000D01*
X164060000Y-102720000D02*
X164060000Y-100480000D01*
X171300000Y-102720000D02*
X164060000Y-102720000D01*
%TO.C,JP1*%
X178313000Y-90992000D02*
X175713000Y-90992000D01*
X180913000Y-88392000D02*
X180913000Y-75632000D01*
X180913000Y-75632000D02*
X175713000Y-75632000D01*
X175713000Y-90992000D02*
X175713000Y-75632000D01*
X180913000Y-90992000D02*
X179583000Y-90992000D01*
X180913000Y-89662000D02*
X180913000Y-90992000D01*
X180913000Y-88392000D02*
X178313000Y-88392000D01*
X178313000Y-88392000D02*
X178313000Y-90992000D01*
%TO.C,U11*%
X168630000Y-120705000D02*
X168630000Y-102805000D01*
X168630000Y-102805000D02*
X167380000Y-102805000D01*
X165380000Y-102805000D02*
X164130000Y-102805000D01*
X161130000Y-102745000D02*
X161130000Y-120765000D01*
X161130000Y-120765000D02*
X171630000Y-120765000D01*
X171630000Y-102745000D02*
X161130000Y-102745000D01*
X171630000Y-120765000D02*
X171630000Y-102745000D01*
X164130000Y-120705000D02*
X168630000Y-120705000D01*
X164130000Y-102805000D02*
X164130000Y-120705000D01*
X165380000Y-102805000D02*
G75*
G03*
X167380000Y-102805000I1000000J0D01*
G01*
%TO.C,U2*%
X192045000Y-77415000D02*
X192045000Y-102935000D01*
X196545000Y-102935000D02*
X196545000Y-77415000D01*
X193295000Y-77415000D02*
X192045000Y-77415000D01*
X192045000Y-102935000D02*
X196545000Y-102935000D01*
X196545000Y-77415000D02*
X195295000Y-77415000D01*
X193295000Y-77415000D02*
G75*
G03*
X195295000Y-77415000I1000000J0D01*
G01*
%TO.C,R10*%
X138796000Y-118522000D02*
X142636000Y-118522000D01*
X142636000Y-116682000D02*
X138796000Y-116682000D01*
X138796000Y-116682000D02*
X138796000Y-118522000D01*
X137846000Y-117602000D02*
X138796000Y-117602000D01*
X143586000Y-117602000D02*
X142636000Y-117602000D01*
X142636000Y-118522000D02*
X142636000Y-116682000D01*
%TO.C,JP2*%
X175200000Y-100390000D02*
X175200000Y-99060000D01*
X177800000Y-100390000D02*
X180400000Y-100390000D01*
X177800000Y-100390000D02*
X177800000Y-97730000D01*
X176530000Y-100390000D02*
X175200000Y-100390000D01*
X180400000Y-100390000D02*
X180400000Y-97730000D01*
X177800000Y-97730000D02*
X180400000Y-97730000D01*
%TO.C,U10*%
X108866800Y-110610000D02*
X119366800Y-110610000D01*
X111866800Y-92650000D02*
X111866800Y-110550000D01*
X116366800Y-92650000D02*
X115116800Y-92650000D01*
X119366800Y-110610000D02*
X119366800Y-92590000D01*
X108866800Y-92590000D02*
X108866800Y-110610000D01*
X116366800Y-110550000D02*
X116366800Y-92650000D01*
X113116800Y-92650000D02*
X111866800Y-92650000D01*
X119366800Y-92590000D02*
X108866800Y-92590000D01*
X111866800Y-110550000D02*
X116366800Y-110550000D01*
X113116800Y-92650000D02*
G75*
G03*
X115116800Y-92650000I1000000J0D01*
G01*
%TO.C,J1*%
X225791000Y-55096000D02*
X225791000Y-56157000D01*
X230211000Y-135906000D02*
X224791000Y-135906000D01*
X225791000Y-57636000D02*
X225791000Y-58697000D01*
X225791000Y-83036000D02*
X225791000Y-84097000D01*
X225791000Y-110976000D02*
X225791000Y-112037000D01*
X225791000Y-62716000D02*
X225791000Y-63777000D01*
X225791000Y-88116000D02*
X225791000Y-89177000D01*
X225791000Y-123676000D02*
X225791000Y-124737000D01*
X225791000Y-105896000D02*
X225791000Y-106957000D01*
X225791000Y-80496000D02*
X225791000Y-81557000D01*
X225791000Y-93196000D02*
X225791000Y-94257000D01*
X224791000Y-135906000D02*
X224791000Y-130386000D01*
X225791000Y-52556000D02*
X225791000Y-53617000D01*
X225791000Y-85576000D02*
X225791000Y-86637000D01*
X224791000Y-130386000D02*
X225791000Y-130386000D01*
X225791000Y-126216000D02*
X225791000Y-127277000D01*
X225791000Y-100816000D02*
X225791000Y-101877000D01*
X224911000Y-48181000D02*
X225211000Y-47581000D01*
X225791000Y-118596000D02*
X225791000Y-119657000D01*
X225791000Y-90656000D02*
X225791000Y-91717000D01*
X225791000Y-121136000D02*
X225791000Y-122197000D01*
X225791000Y-75416000D02*
X225791000Y-76477000D01*
X225211000Y-47581000D02*
X224611000Y-47581000D01*
X225791000Y-70336000D02*
X225791000Y-71397000D01*
X225791000Y-60176000D02*
X225791000Y-61237000D01*
X224611000Y-47581000D02*
X224911000Y-48181000D01*
X225791000Y-72876000D02*
X225791000Y-73937000D01*
X225791000Y-108436000D02*
X225791000Y-109497000D01*
X225791000Y-103356000D02*
X225791000Y-104417000D01*
X225791000Y-46905000D02*
X225791000Y-48181000D01*
X230211000Y-41386000D02*
X224791000Y-41386000D01*
X225791000Y-65256000D02*
X225791000Y-66317000D01*
X225791000Y-77956000D02*
X225791000Y-79017000D01*
X225791000Y-128756000D02*
X225791000Y-130386000D01*
X225791000Y-98276000D02*
X225791000Y-99337000D01*
X225791000Y-113516000D02*
X225791000Y-114577000D01*
X225791000Y-50371000D02*
X225791000Y-51077000D01*
X224791000Y-41386000D02*
X224791000Y-46906000D01*
X225791000Y-67796000D02*
X225791000Y-68857000D01*
X225791000Y-95736000D02*
X225791000Y-96797000D01*
X224791000Y-46906000D02*
X225791000Y-46906000D01*
X225791000Y-116056000D02*
X225791000Y-117117000D01*
%TO.C,RN1*%
X186820000Y-75692000D02*
X184020000Y-75692000D01*
X186820000Y-96182000D02*
X186820000Y-72982000D01*
X186820000Y-72982000D02*
X184020000Y-72982000D01*
X184020000Y-96182000D02*
X186820000Y-96182000D01*
X184020000Y-72982000D02*
X184020000Y-96182000D01*
%TO.C,C5*%
X131930000Y-92560000D02*
X131930000Y-90320000D01*
X124690000Y-92560000D02*
X124690000Y-90320000D01*
X131930000Y-90320000D02*
X124690000Y-90320000D01*
X131930000Y-92560000D02*
X124690000Y-92560000D01*
%TO.C,R8*%
X115991400Y-120376200D02*
X115991400Y-118536200D01*
X112151400Y-118536200D02*
X112151400Y-120376200D01*
X112151400Y-120376200D02*
X115991400Y-120376200D01*
X116941400Y-119456200D02*
X115991400Y-119456200D01*
X111201400Y-119456200D02*
X112151400Y-119456200D01*
X115991400Y-118536200D02*
X112151400Y-118536200D01*
%TO.C,JP5*%
X78800000Y-100330000D02*
X78800000Y-95190000D01*
X78800000Y-102930000D02*
X77470000Y-102930000D01*
X76140000Y-100330000D02*
X76140000Y-95190000D01*
X78800000Y-95190000D02*
X76140000Y-95190000D01*
X78800000Y-101600000D02*
X78800000Y-102930000D01*
X78800000Y-100330000D02*
X76140000Y-100330000D01*
%TO.C,C3*%
X208455000Y-77325000D02*
X208455000Y-75085000D01*
X215695000Y-77325000D02*
X215695000Y-75085000D01*
X215695000Y-75085000D02*
X208455000Y-75085000D01*
X215695000Y-77325000D02*
X208455000Y-77325000D01*
%TO.C,J2*%
X131194000Y-133836500D02*
X72514000Y-133836500D01*
X103904000Y-132526500D02*
X103904000Y-132526500D01*
X73814000Y-126026500D02*
X129894000Y-126026500D01*
X77224000Y-135226500D02*
X78224000Y-135226500D01*
X72514000Y-124716500D02*
X131194000Y-124716500D01*
X77724000Y-134226500D02*
X77224000Y-135226500D01*
X72514000Y-133836500D02*
X72514000Y-124716500D01*
X73814000Y-132526500D02*
X73814000Y-126026500D01*
X99804000Y-132526500D02*
X73814000Y-132526500D01*
X129894000Y-132526500D02*
X103904000Y-132526500D01*
X99804000Y-133836500D02*
X99804000Y-132526500D01*
X129894000Y-126026500D02*
X129894000Y-132526500D01*
X78224000Y-135226500D02*
X77724000Y-134226500D01*
X131194000Y-124716500D02*
X131194000Y-133836500D01*
X103904000Y-132526500D02*
X103904000Y-133836500D01*
%TO.C,R7*%
X115991400Y-116097400D02*
X112151400Y-116097400D01*
X116941400Y-117017400D02*
X115991400Y-117017400D01*
X111201400Y-117017400D02*
X112151400Y-117017400D01*
X112151400Y-116097400D02*
X112151400Y-117937400D01*
X115991400Y-117937400D02*
X115991400Y-116097400D01*
X112151400Y-117937400D02*
X115991400Y-117937400D01*
%TO.C,C13*%
X173760000Y-64920000D02*
X173760000Y-67160000D01*
X166520000Y-64920000D02*
X166520000Y-67160000D01*
X166520000Y-67160000D02*
X173760000Y-67160000D01*
X166520000Y-64920000D02*
X173760000Y-64920000D01*
%TO.C,C16*%
X114871000Y-72160000D02*
X114871000Y-74970000D01*
X115151000Y-67380000D02*
X115151000Y-70080000D01*
X115431000Y-72160000D02*
X115431000Y-74726000D01*
X116031000Y-72160000D02*
X116031000Y-74340000D01*
X115191000Y-67398000D02*
X115191000Y-70080000D01*
X114591000Y-72160000D02*
X114591000Y-75056000D01*
X116951000Y-68892000D02*
X116951000Y-73348000D01*
X116191000Y-72160000D02*
X116191000Y-74210000D01*
X115511000Y-72160000D02*
X115511000Y-74682000D01*
X117151000Y-69230000D02*
X117151000Y-73010000D01*
X115591000Y-72160000D02*
X115591000Y-74637000D01*
X113990000Y-67068000D02*
X113990000Y-75172000D01*
X115071000Y-67346000D02*
X115071000Y-70080000D01*
X114271000Y-67110000D02*
X114271000Y-70080000D01*
X113590000Y-67040000D02*
X113590000Y-75200000D01*
X115311000Y-72160000D02*
X115311000Y-74786000D01*
X115071000Y-72160000D02*
X115071000Y-74894000D01*
X109100302Y-68805000D02*
X109900302Y-68805000D01*
X115791000Y-67728000D02*
X115791000Y-70080000D01*
X113630000Y-67041000D02*
X113630000Y-75199000D01*
X116191000Y-68030000D02*
X116191000Y-70080000D01*
X115551000Y-72160000D02*
X115551000Y-74660000D01*
X115751000Y-67702000D02*
X115751000Y-70080000D01*
X116631000Y-68469000D02*
X116631000Y-73771000D01*
X115311000Y-67454000D02*
X115311000Y-70080000D01*
X113670000Y-67043000D02*
X113670000Y-75197000D01*
X115151000Y-72160000D02*
X115151000Y-74860000D01*
X115351000Y-72160000D02*
X115351000Y-74767000D01*
X114711000Y-72160000D02*
X114711000Y-75022000D01*
X116831000Y-68720000D02*
X116831000Y-73520000D01*
X116031000Y-67900000D02*
X116031000Y-70080000D01*
X114471000Y-67153000D02*
X114471000Y-70080000D01*
X114351000Y-72160000D02*
X114351000Y-75114000D01*
X115271000Y-72160000D02*
X115271000Y-74806000D01*
X115831000Y-67755000D02*
X115831000Y-70080000D01*
X114511000Y-72160000D02*
X114511000Y-75077000D01*
X115111000Y-72160000D02*
X115111000Y-74877000D01*
X113950000Y-67063000D02*
X113950000Y-75177000D01*
X117111000Y-69156000D02*
X117111000Y-73084000D01*
X115631000Y-67627000D02*
X115631000Y-70080000D01*
X115951000Y-67840000D02*
X115951000Y-70080000D01*
X115631000Y-72160000D02*
X115631000Y-74613000D01*
X115791000Y-72160000D02*
X115791000Y-74512000D01*
X114751000Y-67231000D02*
X114751000Y-70080000D01*
X114791000Y-72160000D02*
X114791000Y-74997000D01*
X115991000Y-72160000D02*
X115991000Y-74370000D01*
X114431000Y-72160000D02*
X114431000Y-75096000D01*
X117471000Y-70022000D02*
X117471000Y-72218000D01*
X117431000Y-69891000D02*
X117431000Y-72349000D01*
X116311000Y-68137000D02*
X116311000Y-74103000D01*
X115751000Y-72160000D02*
X115751000Y-74538000D01*
X116231000Y-68065000D02*
X116231000Y-70080000D01*
X114591000Y-67184000D02*
X114591000Y-70080000D01*
X114631000Y-72160000D02*
X114631000Y-75045000D01*
X116151000Y-67996000D02*
X116151000Y-70080000D01*
X116471000Y-68294000D02*
X116471000Y-73946000D01*
X116151000Y-72160000D02*
X116151000Y-74244000D01*
X115231000Y-67416000D02*
X115231000Y-70080000D01*
X115871000Y-67782000D02*
X115871000Y-70080000D01*
X117191000Y-69307000D02*
X117191000Y-72933000D01*
X115471000Y-72160000D02*
X115471000Y-74704000D01*
X116271000Y-72160000D02*
X116271000Y-74139000D01*
X116551000Y-68379000D02*
X116551000Y-73861000D01*
X114551000Y-67173000D02*
X114551000Y-70080000D01*
X114991000Y-67315000D02*
X114991000Y-70080000D01*
X115831000Y-72160000D02*
X115831000Y-74485000D01*
X114110000Y-67083000D02*
X114110000Y-75157000D01*
X114030000Y-67072000D02*
X114030000Y-75168000D01*
X117591000Y-70587000D02*
X117591000Y-71653000D01*
X115911000Y-72160000D02*
X115911000Y-74429000D01*
X114871000Y-67270000D02*
X114871000Y-70080000D01*
X115391000Y-72160000D02*
X115391000Y-74747000D01*
X114951000Y-67299000D02*
X114951000Y-70080000D01*
X115671000Y-72160000D02*
X115671000Y-74589000D01*
X114911000Y-72160000D02*
X114911000Y-74955000D01*
X115031000Y-72160000D02*
X115031000Y-74910000D01*
X113870000Y-67055000D02*
X113870000Y-75185000D01*
X116351000Y-68175000D02*
X116351000Y-74065000D01*
X116911000Y-68833000D02*
X116911000Y-73407000D01*
X116271000Y-68101000D02*
X116271000Y-70080000D01*
X116071000Y-67931000D02*
X116071000Y-70080000D01*
X114511000Y-67163000D02*
X114511000Y-70080000D01*
X115111000Y-67363000D02*
X115111000Y-70080000D01*
X114991000Y-72160000D02*
X114991000Y-74925000D01*
X115911000Y-67811000D02*
X115911000Y-70080000D01*
X116071000Y-72160000D02*
X116071000Y-74309000D01*
X116511000Y-68336000D02*
X116511000Y-73904000D01*
X114471000Y-72160000D02*
X114471000Y-75087000D01*
X114551000Y-72160000D02*
X114551000Y-75067000D01*
X114311000Y-67118000D02*
X114311000Y-70080000D01*
X115711000Y-72160000D02*
X115711000Y-74564000D01*
X116591000Y-68423000D02*
X116591000Y-73817000D01*
X114751000Y-72160000D02*
X114751000Y-75009000D01*
X116791000Y-68666000D02*
X116791000Y-73574000D01*
X116871000Y-68775000D02*
X116871000Y-73465000D01*
X113750000Y-67046000D02*
X113750000Y-75194000D01*
X114351000Y-67126000D02*
X114351000Y-70080000D01*
X115351000Y-67473000D02*
X115351000Y-70080000D01*
X117271000Y-69475000D02*
X117271000Y-72765000D01*
X114951000Y-72160000D02*
X114951000Y-74941000D01*
X114231000Y-72160000D02*
X114231000Y-75137000D01*
X116111000Y-72160000D02*
X116111000Y-74276000D01*
X116231000Y-72160000D02*
X116231000Y-74175000D01*
X116391000Y-68213000D02*
X116391000Y-74027000D01*
X114831000Y-72160000D02*
X114831000Y-74983000D01*
X113790000Y-67049000D02*
X113790000Y-75191000D01*
X115471000Y-67536000D02*
X115471000Y-70080000D01*
X115031000Y-67330000D02*
X115031000Y-70080000D01*
X116991000Y-68954000D02*
X116991000Y-73286000D01*
X114391000Y-72160000D02*
X114391000Y-75105000D01*
X115551000Y-67580000D02*
X115551000Y-70080000D01*
X115951000Y-72160000D02*
X115951000Y-74400000D01*
X116751000Y-68615000D02*
X116751000Y-73625000D01*
X114631000Y-67195000D02*
X114631000Y-70080000D01*
X114711000Y-67218000D02*
X114711000Y-70080000D01*
X115671000Y-67651000D02*
X115671000Y-70080000D01*
X116711000Y-68564000D02*
X116711000Y-73676000D01*
X109500302Y-68405000D02*
X109500302Y-69205000D01*
X117231000Y-69389000D02*
X117231000Y-72851000D01*
X115871000Y-72160000D02*
X115871000Y-74458000D01*
X114831000Y-67257000D02*
X114831000Y-70080000D01*
X115391000Y-67493000D02*
X115391000Y-70080000D01*
X117311000Y-69568000D02*
X117311000Y-72672000D01*
X114150000Y-67090000D02*
X114150000Y-75150000D01*
X116111000Y-67964000D02*
X116111000Y-70080000D01*
X114671000Y-67206000D02*
X114671000Y-70080000D01*
X116671000Y-68516000D02*
X116671000Y-73724000D01*
X115591000Y-67603000D02*
X115591000Y-70080000D01*
X115431000Y-67514000D02*
X115431000Y-70080000D01*
X115711000Y-67676000D02*
X115711000Y-70080000D01*
X113910000Y-67059000D02*
X113910000Y-75181000D01*
X113550000Y-67040000D02*
X113550000Y-75200000D01*
X114070000Y-67078000D02*
X114070000Y-75162000D01*
X115271000Y-67434000D02*
X115271000Y-70080000D01*
X113830000Y-67052000D02*
X113830000Y-75188000D01*
X114911000Y-67285000D02*
X114911000Y-70080000D01*
X114431000Y-67144000D02*
X114431000Y-70080000D01*
X115231000Y-72160000D02*
X115231000Y-74824000D01*
X114271000Y-72160000D02*
X114271000Y-75130000D01*
X117351000Y-69667000D02*
X117351000Y-72573000D01*
X115991000Y-67870000D02*
X115991000Y-70080000D01*
X114311000Y-72160000D02*
X114311000Y-75122000D01*
X117071000Y-69086000D02*
X117071000Y-73154000D01*
X114671000Y-72160000D02*
X114671000Y-75034000D01*
X115191000Y-72160000D02*
X115191000Y-74842000D01*
X115511000Y-67558000D02*
X115511000Y-70080000D01*
X113710000Y-67044000D02*
X113710000Y-75196000D01*
X114791000Y-67243000D02*
X114791000Y-70080000D01*
X117031000Y-69018000D02*
X117031000Y-73222000D01*
X114391000Y-67135000D02*
X114391000Y-70080000D01*
X117391000Y-69774000D02*
X117391000Y-72466000D01*
X117551000Y-70352000D02*
X117551000Y-71888000D01*
X113510000Y-67040000D02*
X113510000Y-75200000D01*
X114231000Y-67103000D02*
X114231000Y-70080000D01*
X117511000Y-70172000D02*
X117511000Y-72068000D01*
X116431000Y-68253000D02*
X116431000Y-73987000D01*
X114190000Y-67096000D02*
X114190000Y-75144000D01*
X117630000Y-71120000D02*
G75*
G03*
X117630000Y-71120000I-4120000J0D01*
G01*
%TO.C,JP7*%
X130089600Y-76022200D02*
X130089600Y-81162200D01*
X130089600Y-81162200D02*
X132749600Y-81162200D01*
X130089600Y-74752200D02*
X130089600Y-73422200D01*
X130089600Y-76022200D02*
X132749600Y-76022200D01*
X130089600Y-73422200D02*
X131419600Y-73422200D01*
X132749600Y-76022200D02*
X132749600Y-81162200D01*
%TO.C,U1*%
X179340000Y-102810000D02*
X178090000Y-102810000D01*
X185590000Y-120770000D02*
X185590000Y-102750000D01*
X185590000Y-102750000D02*
X175090000Y-102750000D01*
X175090000Y-120770000D02*
X185590000Y-120770000D01*
X182590000Y-120710000D02*
X182590000Y-102810000D01*
X175090000Y-102750000D02*
X175090000Y-120770000D01*
X178090000Y-120710000D02*
X182590000Y-120710000D01*
X182590000Y-102810000D02*
X181340000Y-102810000D01*
X178090000Y-102810000D02*
X178090000Y-120710000D01*
X179340000Y-102810000D02*
G75*
G03*
X181340000Y-102810000I1000000J0D01*
G01*
%TO.C,C14*%
X177990000Y-102720000D02*
X177990000Y-100480000D01*
X185230000Y-100480000D02*
X177990000Y-100480000D01*
X185230000Y-102720000D02*
X185230000Y-100480000D01*
X185230000Y-102720000D02*
X177990000Y-102720000D01*
%TO.C,U17*%
X164120000Y-99120000D02*
X168620000Y-99120000D01*
X168620000Y-73600000D02*
X167370000Y-73600000D01*
X164120000Y-73600000D02*
X164120000Y-99120000D01*
X165370000Y-73600000D02*
X164120000Y-73600000D01*
X168620000Y-99120000D02*
X168620000Y-73600000D01*
X165370000Y-73600000D02*
G75*
G03*
X167370000Y-73600000I1000000J0D01*
G01*
%TO.C,R5*%
X116941400Y-121894600D02*
X115991400Y-121894600D01*
X112151400Y-122814600D02*
X115991400Y-122814600D01*
X115991400Y-122814600D02*
X115991400Y-120974600D01*
X111201400Y-121894600D02*
X112151400Y-121894600D01*
X115991400Y-120974600D02*
X112151400Y-120974600D01*
X112151400Y-120974600D02*
X112151400Y-122814600D01*
%TO.C,U16*%
X154650000Y-120705000D02*
X154650000Y-102805000D01*
X147150000Y-102745000D02*
X147150000Y-120765000D01*
X151400000Y-102805000D02*
X150150000Y-102805000D01*
X150150000Y-120705000D02*
X154650000Y-120705000D01*
X157650000Y-102745000D02*
X147150000Y-102745000D01*
X150150000Y-102805000D02*
X150150000Y-120705000D01*
X147150000Y-120765000D02*
X157650000Y-120765000D01*
X154650000Y-102805000D02*
X153400000Y-102805000D01*
X157650000Y-120765000D02*
X157650000Y-102745000D01*
X151400000Y-102805000D02*
G75*
G03*
X153400000Y-102805000I1000000J0D01*
G01*
%TO.C,U3*%
X213055000Y-47194000D02*
X211805000Y-47194000D01*
X208555000Y-72714000D02*
X213055000Y-72714000D01*
X209805000Y-47194000D02*
X208555000Y-47194000D01*
X208555000Y-47194000D02*
X208555000Y-72714000D01*
X213055000Y-72714000D02*
X213055000Y-47194000D01*
X209805000Y-47194000D02*
G75*
G03*
X211805000Y-47194000I1000000J0D01*
G01*
%TO.C,CON1*%
X90248400Y-83085000D02*
X95858400Y-83085000D01*
X96688400Y-51115000D02*
X97188400Y-50865000D01*
X93978400Y-89155000D02*
X91618400Y-89155000D01*
X57448400Y-88265000D02*
X50468400Y-88265000D01*
X95858400Y-83085000D02*
X95858400Y-84095000D01*
X50468400Y-66675000D02*
X50468400Y-73025000D01*
X93978400Y-49255000D02*
X95858400Y-49255000D01*
X68248400Y-88265000D02*
X61898400Y-88265000D01*
X86938400Y-87225000D02*
X80258400Y-87225000D01*
X80258400Y-89155000D02*
X85928400Y-89155000D01*
X86938400Y-46125000D02*
X86938400Y-87225000D01*
X79038400Y-88265000D02*
X72688400Y-88265000D01*
X80258400Y-44195000D02*
X80258400Y-46125000D01*
X85928400Y-44195000D02*
X80258400Y-44195000D01*
X50468400Y-77465000D02*
X50468400Y-83815000D01*
X71418400Y-88265000D02*
X69518400Y-88265000D01*
X93978400Y-44195000D02*
X93978400Y-49255000D01*
X97188400Y-51365000D02*
X96688400Y-51115000D01*
X50468400Y-63505000D02*
X50468400Y-65405000D01*
X50468400Y-45085000D02*
X50468400Y-51435000D01*
X50468400Y-85085000D02*
X50468400Y-86995000D01*
X50468400Y-74295000D02*
X50468400Y-76205000D01*
X60628400Y-45085000D02*
X58718400Y-45085000D01*
X91618400Y-44195000D02*
X93978400Y-44195000D01*
X57448400Y-45085000D02*
X50468400Y-45085000D01*
X93978400Y-84095000D02*
X93978400Y-89155000D01*
X60628400Y-88265000D02*
X58718400Y-88265000D01*
X71418400Y-45085000D02*
X69518400Y-45085000D01*
X50468400Y-55885000D02*
X50468400Y-62225000D01*
X50468400Y-52705000D02*
X50468400Y-54615000D01*
X68248400Y-45085000D02*
X61898400Y-45085000D01*
X95858400Y-49255000D02*
X95858400Y-50265000D01*
X95858400Y-50265000D02*
X90248400Y-50265000D01*
X90248400Y-50265000D02*
X90248400Y-83085000D01*
X95858400Y-84095000D02*
X93978400Y-84095000D01*
X80258400Y-87225000D02*
X80258400Y-89155000D01*
X79038400Y-45085000D02*
X72688400Y-45085000D01*
X80258400Y-46125000D02*
X86938400Y-46125000D01*
X97188400Y-50865000D02*
X97188400Y-51365000D01*
%TO.C,C2*%
X215735000Y-46845000D02*
X208495000Y-46845000D01*
X215735000Y-46845000D02*
X215735000Y-44605000D01*
X215735000Y-44605000D02*
X208495000Y-44605000D01*
X208495000Y-46845000D02*
X208495000Y-44605000D01*
%TO.C,C11*%
X150050000Y-73510000D02*
X150050000Y-71270000D01*
X157290000Y-73510000D02*
X157290000Y-71270000D01*
X157290000Y-73510000D02*
X150050000Y-73510000D01*
X157290000Y-71270000D02*
X150050000Y-71270000D01*
%TO.C,R14*%
X142636000Y-120833400D02*
X142636000Y-118993400D01*
X142636000Y-118993400D02*
X138796000Y-118993400D01*
X138796000Y-118993400D02*
X138796000Y-120833400D01*
X138796000Y-120833400D02*
X142636000Y-120833400D01*
X143586000Y-119913400D02*
X142636000Y-119913400D01*
X137846000Y-119913400D02*
X138796000Y-119913400D01*
%TO.C,R6*%
X116941400Y-114604800D02*
X115991400Y-114604800D01*
X115991400Y-115524800D02*
X115991400Y-113684800D01*
X112151400Y-115524800D02*
X115991400Y-115524800D01*
X115991400Y-113684800D02*
X112151400Y-113684800D01*
X112151400Y-113684800D02*
X112151400Y-115524800D01*
X111201400Y-114604800D02*
X112151400Y-114604800D01*
%TO.C,C7*%
X199225000Y-106535000D02*
X191985000Y-106535000D01*
X191985000Y-106535000D02*
X191985000Y-104295000D01*
X199225000Y-106535000D02*
X199225000Y-104295000D01*
X199225000Y-104295000D02*
X191985000Y-104295000D01*
%TO.C,U8*%
X196545000Y-106625000D02*
X195295000Y-106625000D01*
X192045000Y-106625000D02*
X192045000Y-132145000D01*
X196545000Y-132145000D02*
X196545000Y-106625000D01*
X193295000Y-106625000D02*
X192045000Y-106625000D01*
X192045000Y-132145000D02*
X196545000Y-132145000D01*
X193295000Y-106625000D02*
G75*
G03*
X195295000Y-106625000I1000000J0D01*
G01*
%TO.C,JP3*%
X145805200Y-76022200D02*
X145805200Y-78622200D01*
X143145200Y-76022200D02*
X145805200Y-76022200D01*
X143145200Y-78622200D02*
X145805200Y-78622200D01*
X143145200Y-76022200D02*
X143145200Y-78622200D01*
X143145200Y-74752200D02*
X143145200Y-73422200D01*
X143145200Y-73422200D02*
X144475200Y-73422200D01*
%TO.C,R13*%
X142636000Y-114396000D02*
X138796000Y-114396000D01*
X137846000Y-115316000D02*
X138796000Y-115316000D01*
X142636000Y-116236000D02*
X142636000Y-114396000D01*
X138796000Y-114396000D02*
X138796000Y-116236000D01*
X138796000Y-116236000D02*
X142636000Y-116236000D01*
X143586000Y-115316000D02*
X142636000Y-115316000D01*
%TO.C,J3*%
X161308000Y-132526500D02*
X161308000Y-132526500D01*
X139438000Y-135226500D02*
X138938000Y-134226500D01*
X161308000Y-132526500D02*
X161308000Y-133836500D01*
X135028000Y-132526500D02*
X135028000Y-126026500D01*
X184788000Y-124716500D02*
X184788000Y-133836500D01*
X138438000Y-135226500D02*
X139438000Y-135226500D01*
X133728000Y-133836500D02*
X133728000Y-124716500D01*
X183488000Y-132526500D02*
X161308000Y-132526500D01*
X184788000Y-133836500D02*
X133728000Y-133836500D01*
X157208000Y-132526500D02*
X135028000Y-132526500D01*
X183488000Y-126026500D02*
X183488000Y-132526500D01*
X135028000Y-126026500D02*
X183488000Y-126026500D01*
X138938000Y-134226500D02*
X138438000Y-135226500D01*
X157208000Y-133836500D02*
X157208000Y-132526500D01*
X133728000Y-124716500D02*
X184788000Y-124716500D01*
%TO.C,LED1*%
X69753500Y-118617707D02*
X69753500Y-121117707D01*
X79753500Y-121117707D02*
X79753500Y-116117707D01*
X79753500Y-116117707D02*
X69753500Y-116117707D01*
X69753500Y-116117707D02*
X69753500Y-118617707D01*
X69753500Y-121117707D02*
X79753500Y-121117707D01*
%TD*%
M02*
