%TF.GenerationSoftware,KiCad,Pcbnew,(6.0.4)*%
%TF.CreationDate,2022-10-24T21:41:38+02:00*%
%TF.ProjectId,Z80-IDE,5a38302d-4944-4452-9e6b-696361645f70,rev?*%
%TF.SameCoordinates,Original*%
%TF.FileFunction,Paste,Top*%
%TF.FilePolarity,Positive*%
%FSLAX46Y46*%
G04 Gerber Fmt 4.6, Leading zero omitted, Abs format (unit mm)*
G04 Created by KiCad (PCBNEW (6.0.4)) date 2022-10-24 21:41:38*
%MOMM*%
%LPD*%
G01*
G04 APERTURE LIST*
%ADD10R,4.570000X2.490000*%
%ADD11R,3.510000X0.410000*%
G04 APERTURE END LIST*
D10*
%TO.C,CON1*%
X88768400Y-43335000D03*
X88768400Y-90015000D03*
D11*
X94438400Y-51115000D03*
X94438400Y-52385000D03*
X94438400Y-53655000D03*
X94438400Y-54925000D03*
X94438400Y-56195000D03*
X94438400Y-57465000D03*
X94438400Y-58735000D03*
X94438400Y-60005000D03*
X94438400Y-61275000D03*
X94438400Y-62545000D03*
X94438400Y-63815000D03*
X94438400Y-65085000D03*
X94438400Y-66355000D03*
X94438400Y-67625000D03*
X94438400Y-68895000D03*
X94438400Y-70165000D03*
X94438400Y-71435000D03*
X94438400Y-72705000D03*
X94438400Y-73975000D03*
X94438400Y-75245000D03*
X94438400Y-76515000D03*
X94438400Y-77785000D03*
X94438400Y-79055000D03*
X94438400Y-80325000D03*
X94438400Y-81595000D03*
X94438400Y-51755000D03*
X94438400Y-53025000D03*
X94438400Y-54295000D03*
X94438400Y-55565000D03*
X94438400Y-56835000D03*
X94438400Y-58105000D03*
X94438400Y-59375000D03*
X94438400Y-60645000D03*
X94438400Y-61915000D03*
X94438400Y-63185000D03*
X94438400Y-64455000D03*
X94438400Y-65725000D03*
X94438400Y-66995000D03*
X94438400Y-68265000D03*
X94438400Y-69535000D03*
X94438400Y-70805000D03*
X94438400Y-72075000D03*
X94438400Y-73345000D03*
X94438400Y-74615000D03*
X94438400Y-75885000D03*
X94438400Y-77155000D03*
X94438400Y-78425000D03*
X94438400Y-79695000D03*
X94438400Y-80965000D03*
X94438400Y-82235000D03*
%TD*%
M02*
