%TF.GenerationSoftware,KiCad,Pcbnew,(6.0.4)*%
%TF.CreationDate,2022-09-27T18:30:23+02:00*%
%TF.ProjectId,Z80,5a38302e-6b69-4636-9164-5f7063625858,rev?*%
%TF.SameCoordinates,Original*%
%TF.FileFunction,Legend,Top*%
%TF.FilePolarity,Positive*%
%FSLAX46Y46*%
G04 Gerber Fmt 4.6, Leading zero omitted, Abs format (unit mm)*
G04 Created by KiCad (PCBNEW (6.0.4)) date 2022-09-27 18:30:23*
%MOMM*%
%LPD*%
G01*
G04 APERTURE LIST*
%ADD10C,0.200000*%
%ADD11C,0.300000*%
%ADD12C,0.150000*%
%ADD13C,0.120000*%
%ADD14C,0.100000*%
G04 APERTURE END LIST*
D10*
X101523523Y-100515142D02*
X101475904Y-100562761D01*
X101333047Y-100610380D01*
X101237809Y-100610380D01*
X101094952Y-100562761D01*
X100999714Y-100467523D01*
X100952095Y-100372285D01*
X100904476Y-100181809D01*
X100904476Y-100038952D01*
X100952095Y-99848476D01*
X100999714Y-99753238D01*
X101094952Y-99658000D01*
X101237809Y-99610380D01*
X101333047Y-99610380D01*
X101475904Y-99658000D01*
X101523523Y-99705619D01*
X101809238Y-99610380D02*
X102380666Y-99610380D01*
X102094952Y-100610380D02*
X102094952Y-99610380D01*
X103285428Y-100515142D02*
X103237809Y-100562761D01*
X103094952Y-100610380D01*
X102999714Y-100610380D01*
X102856857Y-100562761D01*
X102761619Y-100467523D01*
X102714000Y-100372285D01*
X102666380Y-100181809D01*
X102666380Y-100038952D01*
X102714000Y-99848476D01*
X102761619Y-99753238D01*
X102856857Y-99658000D01*
X102999714Y-99610380D01*
X103094952Y-99610380D01*
X103237809Y-99658000D01*
X103285428Y-99705619D01*
X104475904Y-100086571D02*
X104809238Y-100086571D01*
X104952095Y-100610380D02*
X104475904Y-100610380D01*
X104475904Y-99610380D01*
X104952095Y-99610380D01*
X105285428Y-99610380D02*
X105952095Y-100610380D01*
X105952095Y-99610380D02*
X105285428Y-100610380D01*
X106190190Y-99610380D02*
X106761619Y-99610380D01*
X106475904Y-100610380D02*
X106475904Y-99610380D01*
X107094952Y-100229428D02*
X107856857Y-100229428D01*
X108904476Y-100515142D02*
X108856857Y-100562761D01*
X108714000Y-100610380D01*
X108618761Y-100610380D01*
X108475904Y-100562761D01*
X108380666Y-100467523D01*
X108333047Y-100372285D01*
X108285428Y-100181809D01*
X108285428Y-100038952D01*
X108333047Y-99848476D01*
X108380666Y-99753238D01*
X108475904Y-99658000D01*
X108618761Y-99610380D01*
X108714000Y-99610380D01*
X108856857Y-99658000D01*
X108904476Y-99705619D01*
X109809238Y-100610380D02*
X109333047Y-100610380D01*
X109333047Y-99610380D01*
X110142571Y-100610380D02*
X110142571Y-99610380D01*
X110714000Y-100610380D02*
X110285428Y-100038952D01*
X110714000Y-99610380D02*
X110142571Y-100181809D01*
X101475904Y-102220380D02*
X100904476Y-102220380D01*
X101190190Y-102220380D02*
X101190190Y-101220380D01*
X101094952Y-101363238D01*
X100999714Y-101458476D01*
X100904476Y-101506095D01*
X101904476Y-101839428D02*
X102666380Y-101839428D01*
X103094952Y-101315619D02*
X103142571Y-101268000D01*
X103237809Y-101220380D01*
X103475904Y-101220380D01*
X103571142Y-101268000D01*
X103618761Y-101315619D01*
X103666380Y-101410857D01*
X103666380Y-101506095D01*
X103618761Y-101648952D01*
X103047333Y-102220380D01*
X103666380Y-102220380D01*
X105428285Y-102125142D02*
X105380666Y-102172761D01*
X105237809Y-102220380D01*
X105142571Y-102220380D01*
X104999714Y-102172761D01*
X104904476Y-102077523D01*
X104856857Y-101982285D01*
X104809238Y-101791809D01*
X104809238Y-101648952D01*
X104856857Y-101458476D01*
X104904476Y-101363238D01*
X104999714Y-101268000D01*
X105142571Y-101220380D01*
X105237809Y-101220380D01*
X105380666Y-101268000D01*
X105428285Y-101315619D01*
X105856857Y-102220380D02*
X105856857Y-101220380D01*
X105856857Y-101696571D02*
X106428285Y-101696571D01*
X106428285Y-102220380D02*
X106428285Y-101220380D01*
X107094952Y-101220380D02*
X107190190Y-101220380D01*
X107285428Y-101268000D01*
X107333047Y-101315619D01*
X107380666Y-101410857D01*
X107428285Y-101601333D01*
X107428285Y-101839428D01*
X107380666Y-102029904D01*
X107333047Y-102125142D01*
X107285428Y-102172761D01*
X107190190Y-102220380D01*
X107094952Y-102220380D01*
X106999714Y-102172761D01*
X106952095Y-102125142D01*
X106904476Y-102029904D01*
X106856857Y-101839428D01*
X106856857Y-101601333D01*
X106904476Y-101410857D01*
X106952095Y-101315619D01*
X106999714Y-101268000D01*
X107094952Y-101220380D01*
X108809238Y-101220380D02*
X108999714Y-101220380D01*
X109094952Y-101268000D01*
X109190190Y-101363238D01*
X109237809Y-101553714D01*
X109237809Y-101887047D01*
X109190190Y-102077523D01*
X109094952Y-102172761D01*
X108999714Y-102220380D01*
X108809238Y-102220380D01*
X108714000Y-102172761D01*
X108618761Y-102077523D01*
X108571142Y-101887047D01*
X108571142Y-101553714D01*
X108618761Y-101363238D01*
X108714000Y-101268000D01*
X108809238Y-101220380D01*
X109666380Y-102220380D02*
X109666380Y-101220380D01*
X110237809Y-102220380D01*
X110237809Y-101220380D01*
X100856857Y-102830380D02*
X101475904Y-102830380D01*
X101142571Y-103211333D01*
X101285428Y-103211333D01*
X101380666Y-103258952D01*
X101428285Y-103306571D01*
X101475904Y-103401809D01*
X101475904Y-103639904D01*
X101428285Y-103735142D01*
X101380666Y-103782761D01*
X101285428Y-103830380D01*
X100999714Y-103830380D01*
X100904476Y-103782761D01*
X100856857Y-103735142D01*
X101904476Y-103449428D02*
X102666380Y-103449428D01*
X103571142Y-103163714D02*
X103571142Y-103830380D01*
X103333047Y-102782761D02*
X103094952Y-103497047D01*
X103714000Y-103497047D01*
X105428285Y-103735142D02*
X105380666Y-103782761D01*
X105237809Y-103830380D01*
X105142571Y-103830380D01*
X104999714Y-103782761D01*
X104904476Y-103687523D01*
X104856857Y-103592285D01*
X104809238Y-103401809D01*
X104809238Y-103258952D01*
X104856857Y-103068476D01*
X104904476Y-102973238D01*
X104999714Y-102878000D01*
X105142571Y-102830380D01*
X105237809Y-102830380D01*
X105380666Y-102878000D01*
X105428285Y-102925619D01*
X105856857Y-103830380D02*
X105856857Y-102830380D01*
X105856857Y-103306571D02*
X106428285Y-103306571D01*
X106428285Y-103830380D02*
X106428285Y-102830380D01*
X107428285Y-103830380D02*
X106856857Y-103830380D01*
X107142571Y-103830380D02*
X107142571Y-102830380D01*
X107047333Y-102973238D01*
X106952095Y-103068476D01*
X106856857Y-103116095D01*
X108809238Y-102830380D02*
X108999714Y-102830380D01*
X109094952Y-102878000D01*
X109190190Y-102973238D01*
X109237809Y-103163714D01*
X109237809Y-103497047D01*
X109190190Y-103687523D01*
X109094952Y-103782761D01*
X108999714Y-103830380D01*
X108809238Y-103830380D01*
X108714000Y-103782761D01*
X108618761Y-103687523D01*
X108571142Y-103497047D01*
X108571142Y-103163714D01*
X108618761Y-102973238D01*
X108714000Y-102878000D01*
X108809238Y-102830380D01*
X109666380Y-103830380D02*
X109666380Y-102830380D01*
X110237809Y-103830380D01*
X110237809Y-102830380D01*
X101428285Y-104440380D02*
X100952095Y-104440380D01*
X100904476Y-104916571D01*
X100952095Y-104868952D01*
X101047333Y-104821333D01*
X101285428Y-104821333D01*
X101380666Y-104868952D01*
X101428285Y-104916571D01*
X101475904Y-105011809D01*
X101475904Y-105249904D01*
X101428285Y-105345142D01*
X101380666Y-105392761D01*
X101285428Y-105440380D01*
X101047333Y-105440380D01*
X100952095Y-105392761D01*
X100904476Y-105345142D01*
X101904476Y-105059428D02*
X102666380Y-105059428D01*
X103571142Y-104440380D02*
X103380666Y-104440380D01*
X103285428Y-104488000D01*
X103237809Y-104535619D01*
X103142571Y-104678476D01*
X103094952Y-104868952D01*
X103094952Y-105249904D01*
X103142571Y-105345142D01*
X103190190Y-105392761D01*
X103285428Y-105440380D01*
X103475904Y-105440380D01*
X103571142Y-105392761D01*
X103618761Y-105345142D01*
X103666380Y-105249904D01*
X103666380Y-105011809D01*
X103618761Y-104916571D01*
X103571142Y-104868952D01*
X103475904Y-104821333D01*
X103285428Y-104821333D01*
X103190190Y-104868952D01*
X103142571Y-104916571D01*
X103094952Y-105011809D01*
X105428285Y-105345142D02*
X105380666Y-105392761D01*
X105237809Y-105440380D01*
X105142571Y-105440380D01*
X104999714Y-105392761D01*
X104904476Y-105297523D01*
X104856857Y-105202285D01*
X104809238Y-105011809D01*
X104809238Y-104868952D01*
X104856857Y-104678476D01*
X104904476Y-104583238D01*
X104999714Y-104488000D01*
X105142571Y-104440380D01*
X105237809Y-104440380D01*
X105380666Y-104488000D01*
X105428285Y-104535619D01*
X105856857Y-105440380D02*
X105856857Y-104440380D01*
X105856857Y-104916571D02*
X106428285Y-104916571D01*
X106428285Y-105440380D02*
X106428285Y-104440380D01*
X106856857Y-104535619D02*
X106904476Y-104488000D01*
X106999714Y-104440380D01*
X107237809Y-104440380D01*
X107333047Y-104488000D01*
X107380666Y-104535619D01*
X107428285Y-104630857D01*
X107428285Y-104726095D01*
X107380666Y-104868952D01*
X106809238Y-105440380D01*
X107428285Y-105440380D01*
X108809238Y-104440380D02*
X108999714Y-104440380D01*
X109094952Y-104488000D01*
X109190190Y-104583238D01*
X109237809Y-104773714D01*
X109237809Y-105107047D01*
X109190190Y-105297523D01*
X109094952Y-105392761D01*
X108999714Y-105440380D01*
X108809238Y-105440380D01*
X108714000Y-105392761D01*
X108618761Y-105297523D01*
X108571142Y-105107047D01*
X108571142Y-104773714D01*
X108618761Y-104583238D01*
X108714000Y-104488000D01*
X108809238Y-104440380D01*
X109666380Y-105440380D02*
X109666380Y-104440380D01*
X110237809Y-105440380D01*
X110237809Y-104440380D01*
X100856857Y-106050380D02*
X101523523Y-106050380D01*
X101094952Y-107050380D01*
X101904476Y-106669428D02*
X102666380Y-106669428D01*
X103285428Y-106478952D02*
X103190190Y-106431333D01*
X103142571Y-106383714D01*
X103094952Y-106288476D01*
X103094952Y-106240857D01*
X103142571Y-106145619D01*
X103190190Y-106098000D01*
X103285428Y-106050380D01*
X103475904Y-106050380D01*
X103571142Y-106098000D01*
X103618761Y-106145619D01*
X103666380Y-106240857D01*
X103666380Y-106288476D01*
X103618761Y-106383714D01*
X103571142Y-106431333D01*
X103475904Y-106478952D01*
X103285428Y-106478952D01*
X103190190Y-106526571D01*
X103142571Y-106574190D01*
X103094952Y-106669428D01*
X103094952Y-106859904D01*
X103142571Y-106955142D01*
X103190190Y-107002761D01*
X103285428Y-107050380D01*
X103475904Y-107050380D01*
X103571142Y-107002761D01*
X103618761Y-106955142D01*
X103666380Y-106859904D01*
X103666380Y-106669428D01*
X103618761Y-106574190D01*
X103571142Y-106526571D01*
X103475904Y-106478952D01*
X105428285Y-106955142D02*
X105380666Y-107002761D01*
X105237809Y-107050380D01*
X105142571Y-107050380D01*
X104999714Y-107002761D01*
X104904476Y-106907523D01*
X104856857Y-106812285D01*
X104809238Y-106621809D01*
X104809238Y-106478952D01*
X104856857Y-106288476D01*
X104904476Y-106193238D01*
X104999714Y-106098000D01*
X105142571Y-106050380D01*
X105237809Y-106050380D01*
X105380666Y-106098000D01*
X105428285Y-106145619D01*
X105856857Y-107050380D02*
X105856857Y-106050380D01*
X105856857Y-106526571D02*
X106428285Y-106526571D01*
X106428285Y-107050380D02*
X106428285Y-106050380D01*
X106809238Y-106050380D02*
X107428285Y-106050380D01*
X107094952Y-106431333D01*
X107237809Y-106431333D01*
X107333047Y-106478952D01*
X107380666Y-106526571D01*
X107428285Y-106621809D01*
X107428285Y-106859904D01*
X107380666Y-106955142D01*
X107333047Y-107002761D01*
X107237809Y-107050380D01*
X106952095Y-107050380D01*
X106856857Y-107002761D01*
X106809238Y-106955142D01*
X108809238Y-106050380D02*
X108999714Y-106050380D01*
X109094952Y-106098000D01*
X109190190Y-106193238D01*
X109237809Y-106383714D01*
X109237809Y-106717047D01*
X109190190Y-106907523D01*
X109094952Y-107002761D01*
X108999714Y-107050380D01*
X108809238Y-107050380D01*
X108714000Y-107002761D01*
X108618761Y-106907523D01*
X108571142Y-106717047D01*
X108571142Y-106383714D01*
X108618761Y-106193238D01*
X108714000Y-106098000D01*
X108809238Y-106050380D01*
X109666380Y-107050380D02*
X109666380Y-106050380D01*
X110237809Y-107050380D01*
X110237809Y-106050380D01*
X39014123Y-108707180D02*
X38680790Y-108230990D01*
X38442695Y-108707180D02*
X38442695Y-107707180D01*
X38823647Y-107707180D01*
X38918885Y-107754800D01*
X38966504Y-107802419D01*
X39014123Y-107897657D01*
X39014123Y-108040514D01*
X38966504Y-108135752D01*
X38918885Y-108183371D01*
X38823647Y-108230990D01*
X38442695Y-108230990D01*
X39442695Y-108183371D02*
X39776028Y-108183371D01*
X39918885Y-108707180D02*
X39442695Y-108707180D01*
X39442695Y-107707180D01*
X39918885Y-107707180D01*
X40299838Y-108659561D02*
X40442695Y-108707180D01*
X40680790Y-108707180D01*
X40776028Y-108659561D01*
X40823647Y-108611942D01*
X40871266Y-108516704D01*
X40871266Y-108421466D01*
X40823647Y-108326228D01*
X40776028Y-108278609D01*
X40680790Y-108230990D01*
X40490314Y-108183371D01*
X40395076Y-108135752D01*
X40347457Y-108088133D01*
X40299838Y-107992895D01*
X40299838Y-107897657D01*
X40347457Y-107802419D01*
X40395076Y-107754800D01*
X40490314Y-107707180D01*
X40728409Y-107707180D01*
X40871266Y-107754800D01*
X41299838Y-108183371D02*
X41633171Y-108183371D01*
X41776028Y-108707180D02*
X41299838Y-108707180D01*
X41299838Y-107707180D01*
X41776028Y-107707180D01*
X42061742Y-107707180D02*
X42633171Y-107707180D01*
X42347457Y-108707180D02*
X42347457Y-107707180D01*
X102397848Y-136171714D02*
X102317491Y-136243142D01*
X102094276Y-136314571D01*
X101951419Y-136314571D01*
X101746062Y-136243142D01*
X101621062Y-136100285D01*
X101567491Y-135957428D01*
X101531776Y-135671714D01*
X101558562Y-135457428D01*
X101665705Y-135171714D01*
X101754991Y-135028857D01*
X101915705Y-134886000D01*
X102138919Y-134814571D01*
X102281776Y-134814571D01*
X102487133Y-134886000D01*
X102549633Y-134957428D01*
X103022848Y-136314571D02*
X103210348Y-134814571D01*
X103781776Y-134814571D01*
X103915705Y-134886000D01*
X103978205Y-134957428D01*
X104031776Y-135100285D01*
X104004991Y-135314571D01*
X103915705Y-135457428D01*
X103835348Y-135528857D01*
X103683562Y-135600285D01*
X103112133Y-135600285D01*
X104710348Y-134814571D02*
X104558562Y-136028857D01*
X104612133Y-136171714D01*
X104674633Y-136243142D01*
X104808562Y-136314571D01*
X105094276Y-136314571D01*
X105246062Y-136243142D01*
X105326419Y-136171714D01*
X105415705Y-136028857D01*
X105567491Y-134814571D01*
X107362133Y-134743142D02*
X105835348Y-136671714D01*
X108540705Y-136171714D02*
X108460348Y-136243142D01*
X108237133Y-136314571D01*
X108094276Y-136314571D01*
X107888919Y-136243142D01*
X107763919Y-136100285D01*
X107710348Y-135957428D01*
X107674633Y-135671714D01*
X107701419Y-135457428D01*
X107808562Y-135171714D01*
X107897848Y-135028857D01*
X108058562Y-134886000D01*
X108281776Y-134814571D01*
X108424633Y-134814571D01*
X108629991Y-134886000D01*
X108692491Y-134957428D01*
X109638919Y-134814571D02*
X109924633Y-134814571D01*
X110058562Y-134886000D01*
X110183562Y-135028857D01*
X110219276Y-135314571D01*
X110156776Y-135814571D01*
X110049633Y-136100285D01*
X109888919Y-136243142D01*
X109737133Y-136314571D01*
X109451419Y-136314571D01*
X109317491Y-136243142D01*
X109192491Y-136100285D01*
X109156776Y-135814571D01*
X109219276Y-135314571D01*
X109326419Y-135028857D01*
X109487133Y-134886000D01*
X109638919Y-134814571D01*
X110737133Y-136314571D02*
X110924633Y-134814571D01*
X111290705Y-135886000D01*
X111924633Y-134814571D01*
X111737133Y-136314571D01*
X114192491Y-135528857D02*
X114397848Y-135600285D01*
X114460348Y-135671714D01*
X114513919Y-135814571D01*
X114487133Y-136028857D01*
X114397848Y-136171714D01*
X114317491Y-136243142D01*
X114165705Y-136314571D01*
X113594276Y-136314571D01*
X113781776Y-134814571D01*
X114281776Y-134814571D01*
X114415705Y-134886000D01*
X114478205Y-134957428D01*
X114531776Y-135100285D01*
X114513919Y-135243142D01*
X114424633Y-135386000D01*
X114344276Y-135457428D01*
X114192491Y-135528857D01*
X113692491Y-135528857D01*
X115308562Y-136314571D02*
X115174633Y-136243142D01*
X115112133Y-136171714D01*
X115058562Y-136028857D01*
X115112133Y-135600285D01*
X115201419Y-135457428D01*
X115281776Y-135386000D01*
X115433562Y-135314571D01*
X115647848Y-135314571D01*
X115781776Y-135386000D01*
X115844276Y-135457428D01*
X115897848Y-135600285D01*
X115844276Y-136028857D01*
X115754991Y-136171714D01*
X115674633Y-136243142D01*
X115522848Y-136314571D01*
X115308562Y-136314571D01*
X117094276Y-136314571D02*
X117192491Y-135528857D01*
X117138919Y-135386000D01*
X117004991Y-135314571D01*
X116719276Y-135314571D01*
X116567491Y-135386000D01*
X117103205Y-136243142D02*
X116951419Y-136314571D01*
X116594276Y-136314571D01*
X116460348Y-136243142D01*
X116406776Y-136100285D01*
X116424633Y-135957428D01*
X116513919Y-135814571D01*
X116665705Y-135743142D01*
X117022848Y-135743142D01*
X117174633Y-135671714D01*
X117808562Y-136314571D02*
X117933562Y-135314571D01*
X117897848Y-135600285D02*
X117987133Y-135457428D01*
X118067491Y-135386000D01*
X118219276Y-135314571D01*
X118362133Y-135314571D01*
X119379991Y-136314571D02*
X119567491Y-134814571D01*
X119388919Y-136243142D02*
X119237133Y-136314571D01*
X118951419Y-136314571D01*
X118817491Y-136243142D01*
X118754991Y-136171714D01*
X118701419Y-136028857D01*
X118754991Y-135600285D01*
X118844276Y-135457428D01*
X118924633Y-135386000D01*
X119076419Y-135314571D01*
X119362133Y-135314571D01*
X119496062Y-135386000D01*
X121210348Y-134814571D02*
X121522848Y-136314571D01*
X122210348Y-134814571D01*
X123308562Y-136314571D02*
X122451419Y-136314571D01*
X122879991Y-136314571D02*
X123067491Y-134814571D01*
X122897848Y-135028857D01*
X122737133Y-135171714D01*
X122585348Y-135243142D01*
X109092723Y-92669980D02*
X108759390Y-92193790D01*
X108521295Y-92669980D02*
X108521295Y-91669980D01*
X108902247Y-91669980D01*
X108997485Y-91717600D01*
X109045104Y-91765219D01*
X109092723Y-91860457D01*
X109092723Y-92003314D01*
X109045104Y-92098552D01*
X108997485Y-92146171D01*
X108902247Y-92193790D01*
X108521295Y-92193790D01*
X109711771Y-91669980D02*
X109902247Y-91669980D01*
X109997485Y-91717600D01*
X110092723Y-91812838D01*
X110140342Y-92003314D01*
X110140342Y-92336647D01*
X110092723Y-92527123D01*
X109997485Y-92622361D01*
X109902247Y-92669980D01*
X109711771Y-92669980D01*
X109616533Y-92622361D01*
X109521295Y-92527123D01*
X109473676Y-92336647D01*
X109473676Y-92003314D01*
X109521295Y-91812838D01*
X109616533Y-91717600D01*
X109711771Y-91669980D01*
X110568914Y-92669980D02*
X110568914Y-91669980D01*
X110902247Y-92384266D01*
X111235580Y-91669980D01*
X111235580Y-92669980D01*
X112378438Y-91669980D02*
X112616533Y-92669980D01*
X112807009Y-91955695D01*
X112997485Y-92669980D01*
X113235580Y-91669980D01*
X114187961Y-92669980D02*
X113854628Y-92193790D01*
X113616533Y-92669980D02*
X113616533Y-91669980D01*
X113997485Y-91669980D01*
X114092723Y-91717600D01*
X114140342Y-91765219D01*
X114187961Y-91860457D01*
X114187961Y-92003314D01*
X114140342Y-92098552D01*
X114092723Y-92146171D01*
X113997485Y-92193790D01*
X113616533Y-92193790D01*
X114616533Y-92669980D02*
X114616533Y-91669980D01*
X114949866Y-91669980D02*
X115521295Y-91669980D01*
X115235580Y-92669980D02*
X115235580Y-91669980D01*
X115854628Y-92146171D02*
X116187961Y-92146171D01*
X116330819Y-92669980D02*
X115854628Y-92669980D01*
X115854628Y-91669980D01*
X116330819Y-91669980D01*
X109045104Y-94279980D02*
X108473676Y-94279980D01*
X108759390Y-94279980D02*
X108759390Y-93279980D01*
X108664152Y-93422838D01*
X108568914Y-93518076D01*
X108473676Y-93565695D01*
X109473676Y-93899028D02*
X110235580Y-93899028D01*
X110664152Y-93375219D02*
X110711771Y-93327600D01*
X110807009Y-93279980D01*
X111045104Y-93279980D01*
X111140342Y-93327600D01*
X111187961Y-93375219D01*
X111235580Y-93470457D01*
X111235580Y-93565695D01*
X111187961Y-93708552D01*
X110616533Y-94279980D01*
X111235580Y-94279980D01*
X112616533Y-93279980D02*
X112807009Y-93279980D01*
X112902247Y-93327600D01*
X112997485Y-93422838D01*
X113045104Y-93613314D01*
X113045104Y-93946647D01*
X112997485Y-94137123D01*
X112902247Y-94232361D01*
X112807009Y-94279980D01*
X112616533Y-94279980D01*
X112521295Y-94232361D01*
X112426057Y-94137123D01*
X112378438Y-93946647D01*
X112378438Y-93613314D01*
X112426057Y-93422838D01*
X112521295Y-93327600D01*
X112616533Y-93279980D01*
X113807009Y-93756171D02*
X113473676Y-93756171D01*
X113473676Y-94279980D02*
X113473676Y-93279980D01*
X113949866Y-93279980D01*
X114664152Y-93756171D02*
X114330819Y-93756171D01*
X114330819Y-94279980D02*
X114330819Y-93279980D01*
X114807009Y-93279980D01*
X108473676Y-94985219D02*
X108521295Y-94937600D01*
X108616533Y-94889980D01*
X108854628Y-94889980D01*
X108949866Y-94937600D01*
X108997485Y-94985219D01*
X109045104Y-95080457D01*
X109045104Y-95175695D01*
X108997485Y-95318552D01*
X108426057Y-95889980D01*
X109045104Y-95889980D01*
X109473676Y-95509028D02*
X110235580Y-95509028D01*
X110616533Y-94889980D02*
X111235580Y-94889980D01*
X110902247Y-95270933D01*
X111045104Y-95270933D01*
X111140342Y-95318552D01*
X111187961Y-95366171D01*
X111235580Y-95461409D01*
X111235580Y-95699504D01*
X111187961Y-95794742D01*
X111140342Y-95842361D01*
X111045104Y-95889980D01*
X110759390Y-95889980D01*
X110664152Y-95842361D01*
X110616533Y-95794742D01*
X112616533Y-94889980D02*
X112807009Y-94889980D01*
X112902247Y-94937600D01*
X112997485Y-95032838D01*
X113045104Y-95223314D01*
X113045104Y-95556647D01*
X112997485Y-95747123D01*
X112902247Y-95842361D01*
X112807009Y-95889980D01*
X112616533Y-95889980D01*
X112521295Y-95842361D01*
X112426057Y-95747123D01*
X112378438Y-95556647D01*
X112378438Y-95223314D01*
X112426057Y-95032838D01*
X112521295Y-94937600D01*
X112616533Y-94889980D01*
X113473676Y-95889980D02*
X113473676Y-94889980D01*
X114045104Y-95889980D01*
X114045104Y-94889980D01*
X101714095Y-132235380D02*
X101714095Y-131235380D01*
X101714095Y-131616333D02*
X101809333Y-131568714D01*
X101999809Y-131568714D01*
X102095047Y-131616333D01*
X102142666Y-131663952D01*
X102190285Y-131759190D01*
X102190285Y-132044904D01*
X102142666Y-132140142D01*
X102095047Y-132187761D01*
X101999809Y-132235380D01*
X101809333Y-132235380D01*
X101714095Y-132187761D01*
X102523619Y-131568714D02*
X102761714Y-132235380D01*
X102999809Y-131568714D02*
X102761714Y-132235380D01*
X102666476Y-132473476D01*
X102618857Y-132521095D01*
X102523619Y-132568714D01*
X104142666Y-132235380D02*
X104142666Y-131235380D01*
X104380761Y-131235380D01*
X104523619Y-131283000D01*
X104618857Y-131378238D01*
X104666476Y-131473476D01*
X104714095Y-131663952D01*
X104714095Y-131806809D01*
X104666476Y-131997285D01*
X104618857Y-132092523D01*
X104523619Y-132187761D01*
X104380761Y-132235380D01*
X104142666Y-132235380D01*
X105523619Y-132187761D02*
X105428380Y-132235380D01*
X105237904Y-132235380D01*
X105142666Y-132187761D01*
X105095047Y-132092523D01*
X105095047Y-131711571D01*
X105142666Y-131616333D01*
X105237904Y-131568714D01*
X105428380Y-131568714D01*
X105523619Y-131616333D01*
X105571238Y-131711571D01*
X105571238Y-131806809D01*
X105095047Y-131902047D01*
X105999809Y-131568714D02*
X105999809Y-132235380D01*
X105999809Y-131663952D02*
X106047428Y-131616333D01*
X106142666Y-131568714D01*
X106285523Y-131568714D01*
X106380761Y-131616333D01*
X106428380Y-131711571D01*
X106428380Y-132235380D01*
X106904571Y-131568714D02*
X106904571Y-132235380D01*
X106904571Y-131663952D02*
X106952190Y-131616333D01*
X107047428Y-131568714D01*
X107190285Y-131568714D01*
X107285523Y-131616333D01*
X107333142Y-131711571D01*
X107333142Y-132235380D01*
X107809333Y-132235380D02*
X107809333Y-131568714D01*
X107809333Y-131235380D02*
X107761714Y-131283000D01*
X107809333Y-131330619D01*
X107856952Y-131283000D01*
X107809333Y-131235380D01*
X107809333Y-131330619D01*
X108237904Y-132187761D02*
X108333142Y-132235380D01*
X108523619Y-132235380D01*
X108618857Y-132187761D01*
X108666476Y-132092523D01*
X108666476Y-132044904D01*
X108618857Y-131949666D01*
X108523619Y-131902047D01*
X108380761Y-131902047D01*
X108285523Y-131854428D01*
X108237904Y-131759190D01*
X108237904Y-131711571D01*
X108285523Y-131616333D01*
X108380761Y-131568714D01*
X108523619Y-131568714D01*
X108618857Y-131616333D01*
X110380761Y-131283000D02*
X110285523Y-131235380D01*
X110142666Y-131235380D01*
X109999809Y-131283000D01*
X109904571Y-131378238D01*
X109856952Y-131473476D01*
X109809333Y-131663952D01*
X109809333Y-131806809D01*
X109856952Y-131997285D01*
X109904571Y-132092523D01*
X109999809Y-132187761D01*
X110142666Y-132235380D01*
X110237904Y-132235380D01*
X110380761Y-132187761D01*
X110428380Y-132140142D01*
X110428380Y-131806809D01*
X110237904Y-131806809D01*
X111285523Y-131568714D02*
X111285523Y-132235380D01*
X110856952Y-131568714D02*
X110856952Y-132092523D01*
X110904571Y-132187761D01*
X110999809Y-132235380D01*
X111142666Y-132235380D01*
X111237904Y-132187761D01*
X111285523Y-132140142D01*
X111761714Y-131568714D02*
X111761714Y-132235380D01*
X111761714Y-131663952D02*
X111809333Y-131616333D01*
X111904571Y-131568714D01*
X112047428Y-131568714D01*
X112142666Y-131616333D01*
X112190285Y-131711571D01*
X112190285Y-132235380D01*
X112666476Y-132235380D02*
X112666476Y-131568714D01*
X112666476Y-131235380D02*
X112618857Y-131283000D01*
X112666476Y-131330619D01*
X112714095Y-131283000D01*
X112666476Y-131235380D01*
X112666476Y-131330619D01*
X113571238Y-132235380D02*
X113571238Y-131711571D01*
X113523619Y-131616333D01*
X113428380Y-131568714D01*
X113237904Y-131568714D01*
X113142666Y-131616333D01*
X113571238Y-132187761D02*
X113476000Y-132235380D01*
X113237904Y-132235380D01*
X113142666Y-132187761D01*
X113095047Y-132092523D01*
X113095047Y-131997285D01*
X113142666Y-131902047D01*
X113237904Y-131854428D01*
X113476000Y-131854428D01*
X113571238Y-131806809D01*
X115095047Y-132616333D02*
X115047428Y-132568714D01*
X114952190Y-132425857D01*
X114904571Y-132330619D01*
X114856952Y-132187761D01*
X114809333Y-131949666D01*
X114809333Y-131759190D01*
X114856952Y-131521095D01*
X114904571Y-131378238D01*
X114952190Y-131283000D01*
X115047428Y-131140142D01*
X115095047Y-131092523D01*
X115428380Y-131330619D02*
X115476000Y-131283000D01*
X115571238Y-131235380D01*
X115809333Y-131235380D01*
X115904571Y-131283000D01*
X115952190Y-131330619D01*
X115999809Y-131425857D01*
X115999809Y-131521095D01*
X115952190Y-131663952D01*
X115380761Y-132235380D01*
X115999809Y-132235380D01*
X116618857Y-131235380D02*
X116714095Y-131235380D01*
X116809333Y-131283000D01*
X116856952Y-131330619D01*
X116904571Y-131425857D01*
X116952190Y-131616333D01*
X116952190Y-131854428D01*
X116904571Y-132044904D01*
X116856952Y-132140142D01*
X116809333Y-132187761D01*
X116714095Y-132235380D01*
X116618857Y-132235380D01*
X116523619Y-132187761D01*
X116476000Y-132140142D01*
X116428380Y-132044904D01*
X116380761Y-131854428D01*
X116380761Y-131616333D01*
X116428380Y-131425857D01*
X116476000Y-131330619D01*
X116523619Y-131283000D01*
X116618857Y-131235380D01*
X117333142Y-131330619D02*
X117380761Y-131283000D01*
X117476000Y-131235380D01*
X117714095Y-131235380D01*
X117809333Y-131283000D01*
X117856952Y-131330619D01*
X117904571Y-131425857D01*
X117904571Y-131521095D01*
X117856952Y-131663952D01*
X117285523Y-132235380D01*
X117904571Y-132235380D01*
X118285523Y-131330619D02*
X118333142Y-131283000D01*
X118428380Y-131235380D01*
X118666476Y-131235380D01*
X118761714Y-131283000D01*
X118809333Y-131330619D01*
X118856952Y-131425857D01*
X118856952Y-131521095D01*
X118809333Y-131663952D01*
X118237904Y-132235380D01*
X118856952Y-132235380D01*
X119190285Y-132616333D02*
X119237904Y-132568714D01*
X119333142Y-132425857D01*
X119380761Y-132330619D01*
X119428380Y-132187761D01*
X119476000Y-131949666D01*
X119476000Y-131759190D01*
X119428380Y-131521095D01*
X119380761Y-131378238D01*
X119333142Y-131283000D01*
X119237904Y-131140142D01*
X119190285Y-131092523D01*
X101618857Y-133178714D02*
X101809333Y-133845380D01*
X101999809Y-133369190D01*
X102190285Y-133845380D01*
X102380761Y-133178714D01*
X102666476Y-133178714D02*
X102856952Y-133845380D01*
X103047428Y-133369190D01*
X103237904Y-133845380D01*
X103428380Y-133178714D01*
X103714095Y-133178714D02*
X103904571Y-133845380D01*
X104095047Y-133369190D01*
X104285523Y-133845380D01*
X104476000Y-133178714D01*
X104856952Y-133750142D02*
X104904571Y-133797761D01*
X104856952Y-133845380D01*
X104809333Y-133797761D01*
X104856952Y-133750142D01*
X104856952Y-133845380D01*
X105761714Y-133845380D02*
X105761714Y-132845380D01*
X105761714Y-133797761D02*
X105666476Y-133845380D01*
X105476000Y-133845380D01*
X105380761Y-133797761D01*
X105333142Y-133750142D01*
X105285523Y-133654904D01*
X105285523Y-133369190D01*
X105333142Y-133273952D01*
X105380761Y-133226333D01*
X105476000Y-133178714D01*
X105666476Y-133178714D01*
X105761714Y-133226333D01*
X106618857Y-133797761D02*
X106523619Y-133845380D01*
X106333142Y-133845380D01*
X106237904Y-133797761D01*
X106190285Y-133702523D01*
X106190285Y-133321571D01*
X106237904Y-133226333D01*
X106333142Y-133178714D01*
X106523619Y-133178714D01*
X106618857Y-133226333D01*
X106666476Y-133321571D01*
X106666476Y-133416809D01*
X106190285Y-133512047D01*
X107095047Y-133178714D02*
X107095047Y-133845380D01*
X107095047Y-133273952D02*
X107142666Y-133226333D01*
X107237904Y-133178714D01*
X107380761Y-133178714D01*
X107476000Y-133226333D01*
X107523619Y-133321571D01*
X107523619Y-133845380D01*
X107999809Y-133178714D02*
X107999809Y-133845380D01*
X107999809Y-133273952D02*
X108047428Y-133226333D01*
X108142666Y-133178714D01*
X108285523Y-133178714D01*
X108380761Y-133226333D01*
X108428380Y-133321571D01*
X108428380Y-133845380D01*
X108904571Y-133845380D02*
X108904571Y-133178714D01*
X108904571Y-132845380D02*
X108856952Y-132893000D01*
X108904571Y-132940619D01*
X108952190Y-132893000D01*
X108904571Y-132845380D01*
X108904571Y-132940619D01*
X109333142Y-133797761D02*
X109428380Y-133845380D01*
X109618857Y-133845380D01*
X109714095Y-133797761D01*
X109761714Y-133702523D01*
X109761714Y-133654904D01*
X109714095Y-133559666D01*
X109618857Y-133512047D01*
X109476000Y-133512047D01*
X109380761Y-133464428D01*
X109333142Y-133369190D01*
X109333142Y-133321571D01*
X109380761Y-133226333D01*
X109476000Y-133178714D01*
X109618857Y-133178714D01*
X109714095Y-133226333D01*
X110618857Y-133178714D02*
X110618857Y-133988238D01*
X110571238Y-134083476D01*
X110523619Y-134131095D01*
X110428380Y-134178714D01*
X110285523Y-134178714D01*
X110190285Y-134131095D01*
X110618857Y-133797761D02*
X110523619Y-133845380D01*
X110333142Y-133845380D01*
X110237904Y-133797761D01*
X110190285Y-133750142D01*
X110142666Y-133654904D01*
X110142666Y-133369190D01*
X110190285Y-133273952D01*
X110237904Y-133226333D01*
X110333142Y-133178714D01*
X110523619Y-133178714D01*
X110618857Y-133226333D01*
X111523619Y-133178714D02*
X111523619Y-133845380D01*
X111095047Y-133178714D02*
X111095047Y-133702523D01*
X111142666Y-133797761D01*
X111237904Y-133845380D01*
X111380761Y-133845380D01*
X111476000Y-133797761D01*
X111523619Y-133750142D01*
X111999809Y-133178714D02*
X111999809Y-133845380D01*
X111999809Y-133273952D02*
X112047428Y-133226333D01*
X112142666Y-133178714D01*
X112285523Y-133178714D01*
X112380761Y-133226333D01*
X112428380Y-133321571D01*
X112428380Y-133845380D01*
X112904571Y-133845380D02*
X112904571Y-133178714D01*
X112904571Y-132845380D02*
X112856952Y-132893000D01*
X112904571Y-132940619D01*
X112952190Y-132893000D01*
X112904571Y-132845380D01*
X112904571Y-132940619D01*
X113809333Y-133845380D02*
X113809333Y-133321571D01*
X113761714Y-133226333D01*
X113666476Y-133178714D01*
X113476000Y-133178714D01*
X113380761Y-133226333D01*
X113809333Y-133797761D02*
X113714095Y-133845380D01*
X113476000Y-133845380D01*
X113380761Y-133797761D01*
X113333142Y-133702523D01*
X113333142Y-133607285D01*
X113380761Y-133512047D01*
X113476000Y-133464428D01*
X113714095Y-133464428D01*
X113809333Y-133416809D01*
X114285523Y-133750142D02*
X114333142Y-133797761D01*
X114285523Y-133845380D01*
X114237904Y-133797761D01*
X114285523Y-133750142D01*
X114285523Y-133845380D01*
X115190285Y-133845380D02*
X115190285Y-132845380D01*
X115190285Y-133797761D02*
X115095047Y-133845380D01*
X114904571Y-133845380D01*
X114809333Y-133797761D01*
X114761714Y-133750142D01*
X114714095Y-133654904D01*
X114714095Y-133369190D01*
X114761714Y-133273952D01*
X114809333Y-133226333D01*
X114904571Y-133178714D01*
X115095047Y-133178714D01*
X115190285Y-133226333D01*
X116047428Y-133797761D02*
X115952190Y-133845380D01*
X115761714Y-133845380D01*
X115666476Y-133797761D01*
X115618857Y-133702523D01*
X115618857Y-133321571D01*
X115666476Y-133226333D01*
X115761714Y-133178714D01*
X115952190Y-133178714D01*
X116047428Y-133226333D01*
X116095047Y-133321571D01*
X116095047Y-133416809D01*
X115618857Y-133512047D01*
X46040476Y-46886761D02*
X46183333Y-46934380D01*
X46421428Y-46934380D01*
X46516666Y-46886761D01*
X46564285Y-46839142D01*
X46611904Y-46743904D01*
X46611904Y-46648666D01*
X46564285Y-46553428D01*
X46516666Y-46505809D01*
X46421428Y-46458190D01*
X46230952Y-46410571D01*
X46135714Y-46362952D01*
X46088095Y-46315333D01*
X46040476Y-46220095D01*
X46040476Y-46124857D01*
X46088095Y-46029619D01*
X46135714Y-45982000D01*
X46230952Y-45934380D01*
X46469047Y-45934380D01*
X46611904Y-45982000D01*
X47040476Y-46934380D02*
X47040476Y-45934380D01*
X47707142Y-45934380D02*
X47897619Y-45934380D01*
X47992857Y-45982000D01*
X48088095Y-46077238D01*
X48135714Y-46267714D01*
X48135714Y-46601047D01*
X48088095Y-46791523D01*
X47992857Y-46886761D01*
X47897619Y-46934380D01*
X47707142Y-46934380D01*
X47611904Y-46886761D01*
X47516666Y-46791523D01*
X47469047Y-46601047D01*
X47469047Y-46267714D01*
X47516666Y-46077238D01*
X47611904Y-45982000D01*
X47707142Y-45934380D01*
X49326190Y-46934380D02*
X49326190Y-45934380D01*
X49707142Y-45934380D01*
X49802380Y-45982000D01*
X49850000Y-46029619D01*
X49897619Y-46124857D01*
X49897619Y-46267714D01*
X49850000Y-46362952D01*
X49802380Y-46410571D01*
X49707142Y-46458190D01*
X49326190Y-46458190D01*
X50516666Y-45934380D02*
X50707142Y-45934380D01*
X50802380Y-45982000D01*
X50897619Y-46077238D01*
X50945238Y-46267714D01*
X50945238Y-46601047D01*
X50897619Y-46791523D01*
X50802380Y-46886761D01*
X50707142Y-46934380D01*
X50516666Y-46934380D01*
X50421428Y-46886761D01*
X50326190Y-46791523D01*
X50278571Y-46601047D01*
X50278571Y-46267714D01*
X50326190Y-46077238D01*
X50421428Y-45982000D01*
X50516666Y-45934380D01*
X51945238Y-46934380D02*
X51611904Y-46458190D01*
X51373809Y-46934380D02*
X51373809Y-45934380D01*
X51754761Y-45934380D01*
X51850000Y-45982000D01*
X51897619Y-46029619D01*
X51945238Y-46124857D01*
X51945238Y-46267714D01*
X51897619Y-46362952D01*
X51850000Y-46410571D01*
X51754761Y-46458190D01*
X51373809Y-46458190D01*
X52230952Y-45934380D02*
X52802380Y-45934380D01*
X52516666Y-46934380D02*
X52516666Y-45934380D01*
X53850000Y-46648666D02*
X54326190Y-46648666D01*
X53754761Y-46934380D02*
X54088095Y-45934380D01*
X54421428Y-46934380D01*
D11*
X101343714Y-128972571D02*
X102343714Y-128972571D01*
X101343714Y-130472571D01*
X102343714Y-130472571D01*
X103129428Y-129615428D02*
X102986571Y-129544000D01*
X102915142Y-129472571D01*
X102843714Y-129329714D01*
X102843714Y-129258285D01*
X102915142Y-129115428D01*
X102986571Y-129044000D01*
X103129428Y-128972571D01*
X103415142Y-128972571D01*
X103558000Y-129044000D01*
X103629428Y-129115428D01*
X103700857Y-129258285D01*
X103700857Y-129329714D01*
X103629428Y-129472571D01*
X103558000Y-129544000D01*
X103415142Y-129615428D01*
X103129428Y-129615428D01*
X102986571Y-129686857D01*
X102915142Y-129758285D01*
X102843714Y-129901142D01*
X102843714Y-130186857D01*
X102915142Y-130329714D01*
X102986571Y-130401142D01*
X103129428Y-130472571D01*
X103415142Y-130472571D01*
X103558000Y-130401142D01*
X103629428Y-130329714D01*
X103700857Y-130186857D01*
X103700857Y-129901142D01*
X103629428Y-129758285D01*
X103558000Y-129686857D01*
X103415142Y-129615428D01*
X105200857Y-130329714D02*
X105129428Y-130401142D01*
X104915142Y-130472571D01*
X104772285Y-130472571D01*
X104558000Y-130401142D01*
X104415142Y-130258285D01*
X104343714Y-130115428D01*
X104272285Y-129829714D01*
X104272285Y-129615428D01*
X104343714Y-129329714D01*
X104415142Y-129186857D01*
X104558000Y-129044000D01*
X104772285Y-128972571D01*
X104915142Y-128972571D01*
X105129428Y-129044000D01*
X105200857Y-129115428D01*
X106986571Y-130472571D02*
X106986571Y-128972571D01*
X106986571Y-129686857D02*
X107843714Y-129686857D01*
X107843714Y-130472571D02*
X107843714Y-128972571D01*
X108772285Y-130472571D02*
X108629428Y-130401142D01*
X108558000Y-130329714D01*
X108486571Y-130186857D01*
X108486571Y-129758285D01*
X108558000Y-129615428D01*
X108629428Y-129544000D01*
X108772285Y-129472571D01*
X108986571Y-129472571D01*
X109129428Y-129544000D01*
X109200857Y-129615428D01*
X109272285Y-129758285D01*
X109272285Y-130186857D01*
X109200857Y-130329714D01*
X109129428Y-130401142D01*
X108986571Y-130472571D01*
X108772285Y-130472571D01*
X109915142Y-130472571D02*
X109915142Y-129472571D01*
X109915142Y-129615428D02*
X109986571Y-129544000D01*
X110129428Y-129472571D01*
X110343714Y-129472571D01*
X110486571Y-129544000D01*
X110558000Y-129686857D01*
X110558000Y-130472571D01*
X110558000Y-129686857D02*
X110629428Y-129544000D01*
X110772285Y-129472571D01*
X110986571Y-129472571D01*
X111129428Y-129544000D01*
X111200857Y-129686857D01*
X111200857Y-130472571D01*
X111915142Y-130472571D02*
X111915142Y-128972571D01*
X111915142Y-129544000D02*
X112058000Y-129472571D01*
X112343714Y-129472571D01*
X112486571Y-129544000D01*
X112558000Y-129615428D01*
X112629428Y-129758285D01*
X112629428Y-130186857D01*
X112558000Y-130329714D01*
X112486571Y-130401142D01*
X112343714Y-130472571D01*
X112058000Y-130472571D01*
X111915142Y-130401142D01*
X113272285Y-130472571D02*
X113272285Y-129472571D01*
X113272285Y-129758285D02*
X113343714Y-129615428D01*
X113415142Y-129544000D01*
X113558000Y-129472571D01*
X113700857Y-129472571D01*
X114772285Y-130401142D02*
X114629428Y-130472571D01*
X114343714Y-130472571D01*
X114200857Y-130401142D01*
X114129428Y-130258285D01*
X114129428Y-129686857D01*
X114200857Y-129544000D01*
X114343714Y-129472571D01*
X114629428Y-129472571D01*
X114772285Y-129544000D01*
X114843714Y-129686857D01*
X114843714Y-129829714D01*
X114129428Y-129972571D01*
X115343714Y-129472571D02*
X115629428Y-130472571D01*
X115915142Y-129758285D01*
X116200857Y-130472571D01*
X116486571Y-129472571D01*
X119058000Y-130329714D02*
X118986571Y-130401142D01*
X118772285Y-130472571D01*
X118629428Y-130472571D01*
X118415142Y-130401142D01*
X118272285Y-130258285D01*
X118200857Y-130115428D01*
X118129428Y-129829714D01*
X118129428Y-129615428D01*
X118200857Y-129329714D01*
X118272285Y-129186857D01*
X118415142Y-129044000D01*
X118629428Y-128972571D01*
X118772285Y-128972571D01*
X118986571Y-129044000D01*
X119058000Y-129115428D01*
X119915142Y-130472571D02*
X119772285Y-130401142D01*
X119700857Y-130329714D01*
X119629428Y-130186857D01*
X119629428Y-129758285D01*
X119700857Y-129615428D01*
X119772285Y-129544000D01*
X119915142Y-129472571D01*
X120129428Y-129472571D01*
X120272285Y-129544000D01*
X120343714Y-129615428D01*
X120415142Y-129758285D01*
X120415142Y-130186857D01*
X120343714Y-130329714D01*
X120272285Y-130401142D01*
X120129428Y-130472571D01*
X119915142Y-130472571D01*
X121058000Y-130472571D02*
X121058000Y-129472571D01*
X121058000Y-129615428D02*
X121129428Y-129544000D01*
X121272285Y-129472571D01*
X121486571Y-129472571D01*
X121629428Y-129544000D01*
X121700857Y-129686857D01*
X121700857Y-130472571D01*
X121700857Y-129686857D02*
X121772285Y-129544000D01*
X121915142Y-129472571D01*
X122129428Y-129472571D01*
X122272285Y-129544000D01*
X122343714Y-129686857D01*
X122343714Y-130472571D01*
X123058000Y-129472571D02*
X123058000Y-130972571D01*
X123058000Y-129544000D02*
X123200857Y-129472571D01*
X123486571Y-129472571D01*
X123629428Y-129544000D01*
X123700857Y-129615428D01*
X123772285Y-129758285D01*
X123772285Y-130186857D01*
X123700857Y-130329714D01*
X123629428Y-130401142D01*
X123486571Y-130472571D01*
X123200857Y-130472571D01*
X123058000Y-130401142D01*
X125058000Y-129472571D02*
X125058000Y-130472571D01*
X124415142Y-129472571D02*
X124415142Y-130258285D01*
X124486571Y-130401142D01*
X124629428Y-130472571D01*
X124843714Y-130472571D01*
X124986571Y-130401142D01*
X125058000Y-130329714D01*
X125558000Y-129472571D02*
X126129428Y-129472571D01*
X125772285Y-128972571D02*
X125772285Y-130258285D01*
X125843714Y-130401142D01*
X125986571Y-130472571D01*
X126129428Y-130472571D01*
X127200857Y-130401142D02*
X127058000Y-130472571D01*
X126772285Y-130472571D01*
X126629428Y-130401142D01*
X126558000Y-130258285D01*
X126558000Y-129686857D01*
X126629428Y-129544000D01*
X126772285Y-129472571D01*
X127058000Y-129472571D01*
X127200857Y-129544000D01*
X127272285Y-129686857D01*
X127272285Y-129829714D01*
X126558000Y-129972571D01*
X127915142Y-130472571D02*
X127915142Y-129472571D01*
X127915142Y-129758285D02*
X127986571Y-129615428D01*
X128058000Y-129544000D01*
X128200857Y-129472571D01*
X128343714Y-129472571D01*
D10*
X102766761Y-68259523D02*
X102814380Y-68116666D01*
X102814380Y-67878571D01*
X102766761Y-67783333D01*
X102719142Y-67735714D01*
X102623904Y-67688095D01*
X102528666Y-67688095D01*
X102433428Y-67735714D01*
X102385809Y-67783333D01*
X102338190Y-67878571D01*
X102290571Y-68069047D01*
X102242952Y-68164285D01*
X102195333Y-68211904D01*
X102100095Y-68259523D01*
X102004857Y-68259523D01*
X101909619Y-68211904D01*
X101862000Y-68164285D01*
X101814380Y-68069047D01*
X101814380Y-67830952D01*
X101862000Y-67688095D01*
X102814380Y-67259523D02*
X101814380Y-67259523D01*
X101814380Y-66592857D02*
X101814380Y-66402380D01*
X101862000Y-66307142D01*
X101957238Y-66211904D01*
X102147714Y-66164285D01*
X102481047Y-66164285D01*
X102671523Y-66211904D01*
X102766761Y-66307142D01*
X102814380Y-66402380D01*
X102814380Y-66592857D01*
X102766761Y-66688095D01*
X102671523Y-66783333D01*
X102481047Y-66830952D01*
X102147714Y-66830952D01*
X101957238Y-66783333D01*
X101862000Y-66688095D01*
X101814380Y-66592857D01*
X102814380Y-64973809D02*
X101814380Y-64973809D01*
X101814380Y-64592857D01*
X101862000Y-64497619D01*
X101909619Y-64450000D01*
X102004857Y-64402380D01*
X102147714Y-64402380D01*
X102242952Y-64450000D01*
X102290571Y-64497619D01*
X102338190Y-64592857D01*
X102338190Y-64973809D01*
X101814380Y-63783333D02*
X101814380Y-63592857D01*
X101862000Y-63497619D01*
X101957238Y-63402380D01*
X102147714Y-63354761D01*
X102481047Y-63354761D01*
X102671523Y-63402380D01*
X102766761Y-63497619D01*
X102814380Y-63592857D01*
X102814380Y-63783333D01*
X102766761Y-63878571D01*
X102671523Y-63973809D01*
X102481047Y-64021428D01*
X102147714Y-64021428D01*
X101957238Y-63973809D01*
X101862000Y-63878571D01*
X101814380Y-63783333D01*
X102814380Y-62354761D02*
X102338190Y-62688095D01*
X102814380Y-62926190D02*
X101814380Y-62926190D01*
X101814380Y-62545238D01*
X101862000Y-62450000D01*
X101909619Y-62402380D01*
X102004857Y-62354761D01*
X102147714Y-62354761D01*
X102242952Y-62402380D01*
X102290571Y-62450000D01*
X102338190Y-62545238D01*
X102338190Y-62926190D01*
X101814380Y-62069047D02*
X101814380Y-61497619D01*
X102814380Y-61783333D02*
X101814380Y-61783333D01*
X102290571Y-60069047D02*
X102338190Y-59926190D01*
X102385809Y-59878571D01*
X102481047Y-59830952D01*
X102623904Y-59830952D01*
X102719142Y-59878571D01*
X102766761Y-59926190D01*
X102814380Y-60021428D01*
X102814380Y-60402380D01*
X101814380Y-60402380D01*
X101814380Y-60069047D01*
X101862000Y-59973809D01*
X101909619Y-59926190D01*
X102004857Y-59878571D01*
X102100095Y-59878571D01*
X102195333Y-59926190D01*
X102242952Y-59973809D01*
X102290571Y-60069047D01*
X102290571Y-60402380D01*
D12*
%TO.C,R15*%
X170502342Y-117886980D02*
X170169009Y-117410790D01*
X169930914Y-117886980D02*
X169930914Y-116886980D01*
X170311866Y-116886980D01*
X170407104Y-116934600D01*
X170454723Y-116982219D01*
X170502342Y-117077457D01*
X170502342Y-117220314D01*
X170454723Y-117315552D01*
X170407104Y-117363171D01*
X170311866Y-117410790D01*
X169930914Y-117410790D01*
X171454723Y-117886980D02*
X170883295Y-117886980D01*
X171169009Y-117886980D02*
X171169009Y-116886980D01*
X171073771Y-117029838D01*
X170978533Y-117125076D01*
X170883295Y-117172695D01*
X172359485Y-116886980D02*
X171883295Y-116886980D01*
X171835676Y-117363171D01*
X171883295Y-117315552D01*
X171978533Y-117267933D01*
X172216628Y-117267933D01*
X172311866Y-117315552D01*
X172359485Y-117363171D01*
X172407104Y-117458409D01*
X172407104Y-117696504D01*
X172359485Y-117791742D01*
X172311866Y-117839361D01*
X172216628Y-117886980D01*
X171978533Y-117886980D01*
X171883295Y-117839361D01*
X171835676Y-117791742D01*
%TO.C,R14*%
X174186142Y-115478580D02*
X173852809Y-115002390D01*
X173614714Y-115478580D02*
X173614714Y-114478580D01*
X173995666Y-114478580D01*
X174090904Y-114526200D01*
X174138523Y-114573819D01*
X174186142Y-114669057D01*
X174186142Y-114811914D01*
X174138523Y-114907152D01*
X174090904Y-114954771D01*
X173995666Y-115002390D01*
X173614714Y-115002390D01*
X175138523Y-115478580D02*
X174567095Y-115478580D01*
X174852809Y-115478580D02*
X174852809Y-114478580D01*
X174757571Y-114621438D01*
X174662333Y-114716676D01*
X174567095Y-114764295D01*
X175995666Y-114811914D02*
X175995666Y-115478580D01*
X175757571Y-114430961D02*
X175519476Y-115145247D01*
X176138523Y-115145247D01*
%TO.C,R13*%
X169232342Y-115478580D02*
X168899009Y-115002390D01*
X168660914Y-115478580D02*
X168660914Y-114478580D01*
X169041866Y-114478580D01*
X169137104Y-114526200D01*
X169184723Y-114573819D01*
X169232342Y-114669057D01*
X169232342Y-114811914D01*
X169184723Y-114907152D01*
X169137104Y-114954771D01*
X169041866Y-115002390D01*
X168660914Y-115002390D01*
X170184723Y-115478580D02*
X169613295Y-115478580D01*
X169899009Y-115478580D02*
X169899009Y-114478580D01*
X169803771Y-114621438D01*
X169708533Y-114716676D01*
X169613295Y-114764295D01*
X170518057Y-114478580D02*
X171137104Y-114478580D01*
X170803771Y-114859533D01*
X170946628Y-114859533D01*
X171041866Y-114907152D01*
X171089485Y-114954771D01*
X171137104Y-115050009D01*
X171137104Y-115288104D01*
X171089485Y-115383342D01*
X171041866Y-115430961D01*
X170946628Y-115478580D01*
X170660914Y-115478580D01*
X170565676Y-115430961D01*
X170518057Y-115383342D01*
%TO.C,C10*%
X56100742Y-100839542D02*
X56053123Y-100887161D01*
X55910266Y-100934780D01*
X55815028Y-100934780D01*
X55672171Y-100887161D01*
X55576933Y-100791923D01*
X55529314Y-100696685D01*
X55481695Y-100506209D01*
X55481695Y-100363352D01*
X55529314Y-100172876D01*
X55576933Y-100077638D01*
X55672171Y-99982400D01*
X55815028Y-99934780D01*
X55910266Y-99934780D01*
X56053123Y-99982400D01*
X56100742Y-100030019D01*
X57053123Y-100934780D02*
X56481695Y-100934780D01*
X56767409Y-100934780D02*
X56767409Y-99934780D01*
X56672171Y-100077638D01*
X56576933Y-100172876D01*
X56481695Y-100220495D01*
X57672171Y-99934780D02*
X57767409Y-99934780D01*
X57862647Y-99982400D01*
X57910266Y-100030019D01*
X57957885Y-100125257D01*
X58005504Y-100315733D01*
X58005504Y-100553828D01*
X57957885Y-100744304D01*
X57910266Y-100839542D01*
X57862647Y-100887161D01*
X57767409Y-100934780D01*
X57672171Y-100934780D01*
X57576933Y-100887161D01*
X57529314Y-100839542D01*
X57481695Y-100744304D01*
X57434076Y-100553828D01*
X57434076Y-100315733D01*
X57481695Y-100125257D01*
X57529314Y-100030019D01*
X57576933Y-99982400D01*
X57672171Y-99934780D01*
%TO.C,C1*%
X73845142Y-53574287D02*
X73892761Y-53621906D01*
X73940380Y-53764763D01*
X73940380Y-53860001D01*
X73892761Y-54002859D01*
X73797523Y-54098097D01*
X73702285Y-54145716D01*
X73511809Y-54193335D01*
X73368952Y-54193335D01*
X73178476Y-54145716D01*
X73083238Y-54098097D01*
X72988000Y-54002859D01*
X72940380Y-53860001D01*
X72940380Y-53764763D01*
X72988000Y-53621906D01*
X73035619Y-53574287D01*
X73940380Y-52621906D02*
X73940380Y-53193335D01*
X73940380Y-52907621D02*
X72940380Y-52907621D01*
X73083238Y-53002859D01*
X73178476Y-53098097D01*
X73226095Y-53193335D01*
%TO.C,R3*%
X184491333Y-84272380D02*
X184158000Y-83796190D01*
X183919904Y-84272380D02*
X183919904Y-83272380D01*
X184300857Y-83272380D01*
X184396095Y-83320000D01*
X184443714Y-83367619D01*
X184491333Y-83462857D01*
X184491333Y-83605714D01*
X184443714Y-83700952D01*
X184396095Y-83748571D01*
X184300857Y-83796190D01*
X183919904Y-83796190D01*
X184824666Y-83272380D02*
X185443714Y-83272380D01*
X185110380Y-83653333D01*
X185253238Y-83653333D01*
X185348476Y-83700952D01*
X185396095Y-83748571D01*
X185443714Y-83843809D01*
X185443714Y-84081904D01*
X185396095Y-84177142D01*
X185348476Y-84224761D01*
X185253238Y-84272380D01*
X184967523Y-84272380D01*
X184872285Y-84224761D01*
X184824666Y-84177142D01*
%TO.C,C4*%
X73845142Y-46462287D02*
X73892761Y-46509906D01*
X73940380Y-46652763D01*
X73940380Y-46748001D01*
X73892761Y-46890859D01*
X73797523Y-46986097D01*
X73702285Y-47033716D01*
X73511809Y-47081335D01*
X73368952Y-47081335D01*
X73178476Y-47033716D01*
X73083238Y-46986097D01*
X72988000Y-46890859D01*
X72940380Y-46748001D01*
X72940380Y-46652763D01*
X72988000Y-46509906D01*
X73035619Y-46462287D01*
X73273714Y-45605144D02*
X73940380Y-45605144D01*
X72892761Y-45843240D02*
X73607047Y-46081335D01*
X73607047Y-45462287D01*
%TO.C,U5*%
X142748095Y-83272380D02*
X142748095Y-84081904D01*
X142795714Y-84177142D01*
X142843333Y-84224761D01*
X142938571Y-84272380D01*
X143129047Y-84272380D01*
X143224285Y-84224761D01*
X143271904Y-84177142D01*
X143319523Y-84081904D01*
X143319523Y-83272380D01*
X144271904Y-83272380D02*
X143795714Y-83272380D01*
X143748095Y-83748571D01*
X143795714Y-83700952D01*
X143890952Y-83653333D01*
X144129047Y-83653333D01*
X144224285Y-83700952D01*
X144271904Y-83748571D01*
X144319523Y-83843809D01*
X144319523Y-84081904D01*
X144271904Y-84177142D01*
X144224285Y-84224761D01*
X144129047Y-84272380D01*
X143890952Y-84272380D01*
X143795714Y-84224761D01*
X143748095Y-84177142D01*
%TO.C,J3*%
X117025380Y-94059333D02*
X117739666Y-94059333D01*
X117882523Y-94106952D01*
X117977761Y-94202190D01*
X118025380Y-94345047D01*
X118025380Y-94440285D01*
X117025380Y-93678380D02*
X117025380Y-93059333D01*
X117406333Y-93392666D01*
X117406333Y-93249809D01*
X117453952Y-93154571D01*
X117501571Y-93106952D01*
X117596809Y-93059333D01*
X117834904Y-93059333D01*
X117930142Y-93106952D01*
X117977761Y-93154571D01*
X118025380Y-93249809D01*
X118025380Y-93535523D01*
X117977761Y-93630761D01*
X117930142Y-93678380D01*
%TO.C,U7*%
X155448095Y-114592380D02*
X155448095Y-115401904D01*
X155495714Y-115497142D01*
X155543333Y-115544761D01*
X155638571Y-115592380D01*
X155829047Y-115592380D01*
X155924285Y-115544761D01*
X155971904Y-115497142D01*
X156019523Y-115401904D01*
X156019523Y-114592380D01*
X156400476Y-114592380D02*
X157067142Y-114592380D01*
X156638571Y-115592380D01*
%TO.C,J6*%
X191372380Y-45418333D02*
X192086666Y-45418333D01*
X192229523Y-45465952D01*
X192324761Y-45561190D01*
X192372380Y-45704047D01*
X192372380Y-45799285D01*
X191372380Y-44513571D02*
X191372380Y-44704047D01*
X191420000Y-44799285D01*
X191467619Y-44846904D01*
X191610476Y-44942142D01*
X191800952Y-44989761D01*
X192181904Y-44989761D01*
X192277142Y-44942142D01*
X192324761Y-44894523D01*
X192372380Y-44799285D01*
X192372380Y-44608809D01*
X192324761Y-44513571D01*
X192277142Y-44465952D01*
X192181904Y-44418333D01*
X191943809Y-44418333D01*
X191848571Y-44465952D01*
X191800952Y-44513571D01*
X191753333Y-44608809D01*
X191753333Y-44799285D01*
X191800952Y-44894523D01*
X191848571Y-44942142D01*
X191943809Y-44989761D01*
%TO.C,J1*%
X107616666Y-112228380D02*
X107616666Y-112942666D01*
X107569047Y-113085523D01*
X107473809Y-113180761D01*
X107330952Y-113228380D01*
X107235714Y-113228380D01*
X108616666Y-113228380D02*
X108045238Y-113228380D01*
X108330952Y-113228380D02*
X108330952Y-112228380D01*
X108235714Y-112371238D01*
X108140476Y-112466476D01*
X108045238Y-112514095D01*
%TO.C,C2*%
X73845142Y-60686287D02*
X73892761Y-60733906D01*
X73940380Y-60876763D01*
X73940380Y-60972001D01*
X73892761Y-61114859D01*
X73797523Y-61210097D01*
X73702285Y-61257716D01*
X73511809Y-61305335D01*
X73368952Y-61305335D01*
X73178476Y-61257716D01*
X73083238Y-61210097D01*
X72988000Y-61114859D01*
X72940380Y-60972001D01*
X72940380Y-60876763D01*
X72988000Y-60733906D01*
X73035619Y-60686287D01*
X73035619Y-60305335D02*
X72988000Y-60257716D01*
X72940380Y-60162478D01*
X72940380Y-59924382D01*
X72988000Y-59829144D01*
X73035619Y-59781525D01*
X73130857Y-59733906D01*
X73226095Y-59733906D01*
X73368952Y-59781525D01*
X73940380Y-60352954D01*
X73940380Y-59733906D01*
%TO.C,C5*%
X73845142Y-67798287D02*
X73892761Y-67845906D01*
X73940380Y-67988763D01*
X73940380Y-68084001D01*
X73892761Y-68226859D01*
X73797523Y-68322097D01*
X73702285Y-68369716D01*
X73511809Y-68417335D01*
X73368952Y-68417335D01*
X73178476Y-68369716D01*
X73083238Y-68322097D01*
X72988000Y-68226859D01*
X72940380Y-68084001D01*
X72940380Y-67988763D01*
X72988000Y-67845906D01*
X73035619Y-67798287D01*
X72940380Y-66893525D02*
X72940380Y-67369716D01*
X73416571Y-67417335D01*
X73368952Y-67369716D01*
X73321333Y-67274478D01*
X73321333Y-67036382D01*
X73368952Y-66941144D01*
X73416571Y-66893525D01*
X73511809Y-66845906D01*
X73749904Y-66845906D01*
X73845142Y-66893525D01*
X73892761Y-66941144D01*
X73940380Y-67036382D01*
X73940380Y-67274478D01*
X73892761Y-67369716D01*
X73845142Y-67417335D01*
%TO.C,U6*%
X142748095Y-114592380D02*
X142748095Y-115401904D01*
X142795714Y-115497142D01*
X142843333Y-115544761D01*
X142938571Y-115592380D01*
X143129047Y-115592380D01*
X143224285Y-115544761D01*
X143271904Y-115497142D01*
X143319523Y-115401904D01*
X143319523Y-114592380D01*
X144224285Y-114592380D02*
X144033809Y-114592380D01*
X143938571Y-114640000D01*
X143890952Y-114687619D01*
X143795714Y-114830476D01*
X143748095Y-115020952D01*
X143748095Y-115401904D01*
X143795714Y-115497142D01*
X143843333Y-115544761D01*
X143938571Y-115592380D01*
X144129047Y-115592380D01*
X144224285Y-115544761D01*
X144271904Y-115497142D01*
X144319523Y-115401904D01*
X144319523Y-115163809D01*
X144271904Y-115068571D01*
X144224285Y-115020952D01*
X144129047Y-114973333D01*
X143938571Y-114973333D01*
X143843333Y-115020952D01*
X143795714Y-115068571D01*
X143748095Y-115163809D01*
%TO.C,RN1*%
X53017380Y-94035476D02*
X52541190Y-94368809D01*
X53017380Y-94606904D02*
X52017380Y-94606904D01*
X52017380Y-94225952D01*
X52065000Y-94130714D01*
X52112619Y-94083095D01*
X52207857Y-94035476D01*
X52350714Y-94035476D01*
X52445952Y-94083095D01*
X52493571Y-94130714D01*
X52541190Y-94225952D01*
X52541190Y-94606904D01*
X53017380Y-93606904D02*
X52017380Y-93606904D01*
X53017380Y-93035476D01*
X52017380Y-93035476D01*
X53017380Y-92035476D02*
X53017380Y-92606904D01*
X53017380Y-92321190D02*
X52017380Y-92321190D01*
X52160238Y-92416428D01*
X52255476Y-92511666D01*
X52303095Y-92606904D01*
%TO.C,C16*%
X135501142Y-82399142D02*
X135453523Y-82446761D01*
X135310666Y-82494380D01*
X135215428Y-82494380D01*
X135072571Y-82446761D01*
X134977333Y-82351523D01*
X134929714Y-82256285D01*
X134882095Y-82065809D01*
X134882095Y-81922952D01*
X134929714Y-81732476D01*
X134977333Y-81637238D01*
X135072571Y-81542000D01*
X135215428Y-81494380D01*
X135310666Y-81494380D01*
X135453523Y-81542000D01*
X135501142Y-81589619D01*
X136453523Y-82494380D02*
X135882095Y-82494380D01*
X136167809Y-82494380D02*
X136167809Y-81494380D01*
X136072571Y-81637238D01*
X135977333Y-81732476D01*
X135882095Y-81780095D01*
X137310666Y-81494380D02*
X137120190Y-81494380D01*
X137024952Y-81542000D01*
X136977333Y-81589619D01*
X136882095Y-81732476D01*
X136834476Y-81922952D01*
X136834476Y-82303904D01*
X136882095Y-82399142D01*
X136929714Y-82446761D01*
X137024952Y-82494380D01*
X137215428Y-82494380D01*
X137310666Y-82446761D01*
X137358285Y-82399142D01*
X137405904Y-82303904D01*
X137405904Y-82065809D01*
X137358285Y-81970571D01*
X137310666Y-81922952D01*
X137215428Y-81875333D01*
X137024952Y-81875333D01*
X136929714Y-81922952D01*
X136882095Y-81970571D01*
X136834476Y-82065809D01*
%TO.C,C7*%
X185350682Y-41462142D02*
X185303063Y-41509761D01*
X185160206Y-41557380D01*
X185064968Y-41557380D01*
X184922110Y-41509761D01*
X184826872Y-41414523D01*
X184779253Y-41319285D01*
X184731634Y-41128809D01*
X184731634Y-40985952D01*
X184779253Y-40795476D01*
X184826872Y-40700238D01*
X184922110Y-40605000D01*
X185064968Y-40557380D01*
X185160206Y-40557380D01*
X185303063Y-40605000D01*
X185350682Y-40652619D01*
X185684015Y-40557380D02*
X186350682Y-40557380D01*
X185922110Y-41557380D01*
%TO.C,J4*%
X53327711Y-63208333D02*
X54041997Y-63208333D01*
X54184854Y-63255952D01*
X54280092Y-63351190D01*
X54327711Y-63494047D01*
X54327711Y-63589285D01*
X53661045Y-62303571D02*
X54327711Y-62303571D01*
X53280092Y-62541666D02*
X53994378Y-62779761D01*
X53994378Y-62160714D01*
%TO.C,Q1*%
X69246761Y-115355619D02*
X69151523Y-115308000D01*
X69056285Y-115212761D01*
X68913428Y-115069904D01*
X68818190Y-115022285D01*
X68722952Y-115022285D01*
X68770571Y-115260380D02*
X68675333Y-115212761D01*
X68580095Y-115117523D01*
X68532476Y-114927047D01*
X68532476Y-114593714D01*
X68580095Y-114403238D01*
X68675333Y-114308000D01*
X68770571Y-114260380D01*
X68961047Y-114260380D01*
X69056285Y-114308000D01*
X69151523Y-114403238D01*
X69199142Y-114593714D01*
X69199142Y-114927047D01*
X69151523Y-115117523D01*
X69056285Y-115212761D01*
X68961047Y-115260380D01*
X68770571Y-115260380D01*
X70151523Y-115260380D02*
X69580095Y-115260380D01*
X69865809Y-115260380D02*
X69865809Y-114260380D01*
X69770571Y-114403238D01*
X69675333Y-114498476D01*
X69580095Y-114546095D01*
%TO.C,R7*%
X52507380Y-105526666D02*
X52031190Y-105860000D01*
X52507380Y-106098095D02*
X51507380Y-106098095D01*
X51507380Y-105717142D01*
X51555000Y-105621904D01*
X51602619Y-105574285D01*
X51697857Y-105526666D01*
X51840714Y-105526666D01*
X51935952Y-105574285D01*
X51983571Y-105621904D01*
X52031190Y-105717142D01*
X52031190Y-106098095D01*
X51507380Y-105193333D02*
X51507380Y-104526666D01*
X52507380Y-104955238D01*
%TO.C,C20*%
X148201142Y-113133142D02*
X148153523Y-113180761D01*
X148010666Y-113228380D01*
X147915428Y-113228380D01*
X147772571Y-113180761D01*
X147677333Y-113085523D01*
X147629714Y-112990285D01*
X147582095Y-112799809D01*
X147582095Y-112656952D01*
X147629714Y-112466476D01*
X147677333Y-112371238D01*
X147772571Y-112276000D01*
X147915428Y-112228380D01*
X148010666Y-112228380D01*
X148153523Y-112276000D01*
X148201142Y-112323619D01*
X148582095Y-112323619D02*
X148629714Y-112276000D01*
X148724952Y-112228380D01*
X148963047Y-112228380D01*
X149058285Y-112276000D01*
X149105904Y-112323619D01*
X149153523Y-112418857D01*
X149153523Y-112514095D01*
X149105904Y-112656952D01*
X148534476Y-113228380D01*
X149153523Y-113228380D01*
X149772571Y-112228380D02*
X149867809Y-112228380D01*
X149963047Y-112276000D01*
X150010666Y-112323619D01*
X150058285Y-112418857D01*
X150105904Y-112609333D01*
X150105904Y-112847428D01*
X150058285Y-113037904D01*
X150010666Y-113133142D01*
X149963047Y-113180761D01*
X149867809Y-113228380D01*
X149772571Y-113228380D01*
X149677333Y-113180761D01*
X149629714Y-113133142D01*
X149582095Y-113037904D01*
X149534476Y-112847428D01*
X149534476Y-112609333D01*
X149582095Y-112418857D01*
X149629714Y-112323619D01*
X149677333Y-112276000D01*
X149772571Y-112228380D01*
%TO.C,U9*%
X55880095Y-101407980D02*
X55880095Y-102217504D01*
X55927714Y-102312742D01*
X55975333Y-102360361D01*
X56070571Y-102407980D01*
X56261047Y-102407980D01*
X56356285Y-102360361D01*
X56403904Y-102312742D01*
X56451523Y-102217504D01*
X56451523Y-101407980D01*
X56975333Y-102407980D02*
X57165809Y-102407980D01*
X57261047Y-102360361D01*
X57308666Y-102312742D01*
X57403904Y-102169885D01*
X57451523Y-101979409D01*
X57451523Y-101598457D01*
X57403904Y-101503219D01*
X57356285Y-101455600D01*
X57261047Y-101407980D01*
X57070571Y-101407980D01*
X56975333Y-101455600D01*
X56927714Y-101503219D01*
X56880095Y-101598457D01*
X56880095Y-101836552D01*
X56927714Y-101931790D01*
X56975333Y-101979409D01*
X57070571Y-102027028D01*
X57261047Y-102027028D01*
X57356285Y-101979409D01*
X57403904Y-101931790D01*
X57451523Y-101836552D01*
%TO.C,R9*%
X67955333Y-100132380D02*
X67622000Y-99656190D01*
X67383904Y-100132380D02*
X67383904Y-99132380D01*
X67764857Y-99132380D01*
X67860095Y-99180000D01*
X67907714Y-99227619D01*
X67955333Y-99322857D01*
X67955333Y-99465714D01*
X67907714Y-99560952D01*
X67860095Y-99608571D01*
X67764857Y-99656190D01*
X67383904Y-99656190D01*
X68431523Y-100132380D02*
X68622000Y-100132380D01*
X68717238Y-100084761D01*
X68764857Y-100037142D01*
X68860095Y-99894285D01*
X68907714Y-99703809D01*
X68907714Y-99322857D01*
X68860095Y-99227619D01*
X68812476Y-99180000D01*
X68717238Y-99132380D01*
X68526761Y-99132380D01*
X68431523Y-99180000D01*
X68383904Y-99227619D01*
X68336285Y-99322857D01*
X68336285Y-99560952D01*
X68383904Y-99656190D01*
X68431523Y-99703809D01*
X68526761Y-99751428D01*
X68717238Y-99751428D01*
X68812476Y-99703809D01*
X68860095Y-99656190D01*
X68907714Y-99560952D01*
%TO.C,U4*%
X101854095Y-40854380D02*
X101854095Y-41663904D01*
X101901714Y-41759142D01*
X101949333Y-41806761D01*
X102044571Y-41854380D01*
X102235047Y-41854380D01*
X102330285Y-41806761D01*
X102377904Y-41759142D01*
X102425523Y-41663904D01*
X102425523Y-40854380D01*
X103330285Y-41187714D02*
X103330285Y-41854380D01*
X103092190Y-40806761D02*
X102854095Y-41521047D01*
X103473142Y-41521047D01*
%TO.C,C12*%
X78097142Y-68647142D02*
X78049523Y-68694761D01*
X77906666Y-68742380D01*
X77811428Y-68742380D01*
X77668571Y-68694761D01*
X77573333Y-68599523D01*
X77525714Y-68504285D01*
X77478095Y-68313809D01*
X77478095Y-68170952D01*
X77525714Y-67980476D01*
X77573333Y-67885238D01*
X77668571Y-67790000D01*
X77811428Y-67742380D01*
X77906666Y-67742380D01*
X78049523Y-67790000D01*
X78097142Y-67837619D01*
X79049523Y-68742380D02*
X78478095Y-68742380D01*
X78763809Y-68742380D02*
X78763809Y-67742380D01*
X78668571Y-67885238D01*
X78573333Y-67980476D01*
X78478095Y-68028095D01*
X79430476Y-67837619D02*
X79478095Y-67790000D01*
X79573333Y-67742380D01*
X79811428Y-67742380D01*
X79906666Y-67790000D01*
X79954285Y-67837619D01*
X80001904Y-67932857D01*
X80001904Y-68028095D01*
X79954285Y-68170952D01*
X79382857Y-68742380D01*
X80001904Y-68742380D01*
%TO.C,R11*%
X39235142Y-124404380D02*
X38901809Y-123928190D01*
X38663714Y-124404380D02*
X38663714Y-123404380D01*
X39044666Y-123404380D01*
X39139904Y-123452000D01*
X39187523Y-123499619D01*
X39235142Y-123594857D01*
X39235142Y-123737714D01*
X39187523Y-123832952D01*
X39139904Y-123880571D01*
X39044666Y-123928190D01*
X38663714Y-123928190D01*
X40187523Y-124404380D02*
X39616095Y-124404380D01*
X39901809Y-124404380D02*
X39901809Y-123404380D01*
X39806571Y-123547238D01*
X39711333Y-123642476D01*
X39616095Y-123690095D01*
X41139904Y-124404380D02*
X40568476Y-124404380D01*
X40854190Y-124404380D02*
X40854190Y-123404380D01*
X40758952Y-123547238D01*
X40663714Y-123642476D01*
X40568476Y-123690095D01*
%TO.C,J2*%
X101876666Y-85382380D02*
X101876666Y-86096666D01*
X101829047Y-86239523D01*
X101733809Y-86334761D01*
X101590952Y-86382380D01*
X101495714Y-86382380D01*
X102305238Y-85477619D02*
X102352857Y-85430000D01*
X102448095Y-85382380D01*
X102686190Y-85382380D01*
X102781428Y-85430000D01*
X102829047Y-85477619D01*
X102876666Y-85572857D01*
X102876666Y-85668095D01*
X102829047Y-85810952D01*
X102257619Y-86382380D01*
X102876666Y-86382380D01*
%TO.C,C3*%
X51665142Y-134786666D02*
X51712761Y-134834285D01*
X51760380Y-134977142D01*
X51760380Y-135072380D01*
X51712761Y-135215238D01*
X51617523Y-135310476D01*
X51522285Y-135358095D01*
X51331809Y-135405714D01*
X51188952Y-135405714D01*
X50998476Y-135358095D01*
X50903238Y-135310476D01*
X50808000Y-135215238D01*
X50760380Y-135072380D01*
X50760380Y-134977142D01*
X50808000Y-134834285D01*
X50855619Y-134786666D01*
X50760380Y-134453333D02*
X50760380Y-133834285D01*
X51141333Y-134167619D01*
X51141333Y-134024761D01*
X51188952Y-133929523D01*
X51236571Y-133881904D01*
X51331809Y-133834285D01*
X51569904Y-133834285D01*
X51665142Y-133881904D01*
X51712761Y-133929523D01*
X51760380Y-134024761D01*
X51760380Y-134310476D01*
X51712761Y-134405714D01*
X51665142Y-134453333D01*
%TO.C,C17*%
X156603142Y-69222857D02*
X156650761Y-69270476D01*
X156698380Y-69413333D01*
X156698380Y-69508571D01*
X156650761Y-69651428D01*
X156555523Y-69746666D01*
X156460285Y-69794285D01*
X156269809Y-69841904D01*
X156126952Y-69841904D01*
X155936476Y-69794285D01*
X155841238Y-69746666D01*
X155746000Y-69651428D01*
X155698380Y-69508571D01*
X155698380Y-69413333D01*
X155746000Y-69270476D01*
X155793619Y-69222857D01*
X156698380Y-68270476D02*
X156698380Y-68841904D01*
X156698380Y-68556190D02*
X155698380Y-68556190D01*
X155841238Y-68651428D01*
X155936476Y-68746666D01*
X155984095Y-68841904D01*
X155698380Y-67937142D02*
X155698380Y-67270476D01*
X156698380Y-67699047D01*
%TO.C,LED1*%
X48569619Y-126388952D02*
X48569619Y-125912761D01*
X49569619Y-125912761D01*
X49093428Y-126722285D02*
X49093428Y-127055619D01*
X48569619Y-127198476D02*
X48569619Y-126722285D01*
X49569619Y-126722285D01*
X49569619Y-127198476D01*
X48569619Y-127627047D02*
X49569619Y-127627047D01*
X49569619Y-127865142D01*
X49522000Y-128008000D01*
X49426761Y-128103238D01*
X49331523Y-128150857D01*
X49141047Y-128198476D01*
X48998190Y-128198476D01*
X48807714Y-128150857D01*
X48712476Y-128103238D01*
X48617238Y-128008000D01*
X48569619Y-127865142D01*
X48569619Y-127627047D01*
X48569619Y-129150857D02*
X48569619Y-128579428D01*
X48569619Y-128865142D02*
X49569619Y-128865142D01*
X49426761Y-128769904D01*
X49331523Y-128674666D01*
X49283904Y-128579428D01*
%TO.C,C6*%
X43521333Y-108053142D02*
X43473714Y-108100761D01*
X43330857Y-108148380D01*
X43235619Y-108148380D01*
X43092761Y-108100761D01*
X42997523Y-108005523D01*
X42949904Y-107910285D01*
X42902285Y-107719809D01*
X42902285Y-107576952D01*
X42949904Y-107386476D01*
X42997523Y-107291238D01*
X43092761Y-107196000D01*
X43235619Y-107148380D01*
X43330857Y-107148380D01*
X43473714Y-107196000D01*
X43521333Y-107243619D01*
X44378476Y-107148380D02*
X44188000Y-107148380D01*
X44092761Y-107196000D01*
X44045142Y-107243619D01*
X43949904Y-107386476D01*
X43902285Y-107576952D01*
X43902285Y-107957904D01*
X43949904Y-108053142D01*
X43997523Y-108100761D01*
X44092761Y-108148380D01*
X44283238Y-108148380D01*
X44378476Y-108100761D01*
X44426095Y-108053142D01*
X44473714Y-107957904D01*
X44473714Y-107719809D01*
X44426095Y-107624571D01*
X44378476Y-107576952D01*
X44283238Y-107529333D01*
X44092761Y-107529333D01*
X43997523Y-107576952D01*
X43949904Y-107624571D01*
X43902285Y-107719809D01*
%TO.C,C18*%
X148455142Y-82399142D02*
X148407523Y-82446761D01*
X148264666Y-82494380D01*
X148169428Y-82494380D01*
X148026571Y-82446761D01*
X147931333Y-82351523D01*
X147883714Y-82256285D01*
X147836095Y-82065809D01*
X147836095Y-81922952D01*
X147883714Y-81732476D01*
X147931333Y-81637238D01*
X148026571Y-81542000D01*
X148169428Y-81494380D01*
X148264666Y-81494380D01*
X148407523Y-81542000D01*
X148455142Y-81589619D01*
X149407523Y-82494380D02*
X148836095Y-82494380D01*
X149121809Y-82494380D02*
X149121809Y-81494380D01*
X149026571Y-81637238D01*
X148931333Y-81732476D01*
X148836095Y-81780095D01*
X149978952Y-81922952D02*
X149883714Y-81875333D01*
X149836095Y-81827714D01*
X149788476Y-81732476D01*
X149788476Y-81684857D01*
X149836095Y-81589619D01*
X149883714Y-81542000D01*
X149978952Y-81494380D01*
X150169428Y-81494380D01*
X150264666Y-81542000D01*
X150312285Y-81589619D01*
X150359904Y-81684857D01*
X150359904Y-81732476D01*
X150312285Y-81827714D01*
X150264666Y-81875333D01*
X150169428Y-81922952D01*
X149978952Y-81922952D01*
X149883714Y-81970571D01*
X149836095Y-82018190D01*
X149788476Y-82113428D01*
X149788476Y-82303904D01*
X149836095Y-82399142D01*
X149883714Y-82446761D01*
X149978952Y-82494380D01*
X150169428Y-82494380D01*
X150264666Y-82446761D01*
X150312285Y-82399142D01*
X150359904Y-82303904D01*
X150359904Y-82113428D01*
X150312285Y-82018190D01*
X150264666Y-81970571D01*
X150169428Y-81922952D01*
%TO.C,X2*%
X125647380Y-117649523D02*
X126647380Y-116982857D01*
X125647380Y-116982857D02*
X126647380Y-117649523D01*
X125742619Y-116649523D02*
X125695000Y-116601904D01*
X125647380Y-116506666D01*
X125647380Y-116268571D01*
X125695000Y-116173333D01*
X125742619Y-116125714D01*
X125837857Y-116078095D01*
X125933095Y-116078095D01*
X126075952Y-116125714D01*
X126647380Y-116697142D01*
X126647380Y-116078095D01*
%TO.C,U12*%
X55149904Y-71588380D02*
X55149904Y-72397904D01*
X55197523Y-72493142D01*
X55245142Y-72540761D01*
X55340380Y-72588380D01*
X55530857Y-72588380D01*
X55626095Y-72540761D01*
X55673714Y-72493142D01*
X55721333Y-72397904D01*
X55721333Y-71588380D01*
X56721333Y-72588380D02*
X56149904Y-72588380D01*
X56435619Y-72588380D02*
X56435619Y-71588380D01*
X56340380Y-71731238D01*
X56245142Y-71826476D01*
X56149904Y-71874095D01*
X57102285Y-71683619D02*
X57149904Y-71636000D01*
X57245142Y-71588380D01*
X57483238Y-71588380D01*
X57578476Y-71636000D01*
X57626095Y-71683619D01*
X57673714Y-71778857D01*
X57673714Y-71874095D01*
X57626095Y-72016952D01*
X57054666Y-72588380D01*
X57673714Y-72588380D01*
%TO.C,U15*%
X55403904Y-47712380D02*
X55403904Y-48521904D01*
X55451523Y-48617142D01*
X55499142Y-48664761D01*
X55594380Y-48712380D01*
X55784857Y-48712380D01*
X55880095Y-48664761D01*
X55927714Y-48617142D01*
X55975333Y-48521904D01*
X55975333Y-47712380D01*
X56975333Y-48712380D02*
X56403904Y-48712380D01*
X56689619Y-48712380D02*
X56689619Y-47712380D01*
X56594380Y-47855238D01*
X56499142Y-47950476D01*
X56403904Y-47998095D01*
X57880095Y-47712380D02*
X57403904Y-47712380D01*
X57356285Y-48188571D01*
X57403904Y-48140952D01*
X57499142Y-48093333D01*
X57737238Y-48093333D01*
X57832476Y-48140952D01*
X57880095Y-48188571D01*
X57927714Y-48283809D01*
X57927714Y-48521904D01*
X57880095Y-48617142D01*
X57832476Y-48664761D01*
X57737238Y-48712380D01*
X57499142Y-48712380D01*
X57403904Y-48664761D01*
X57356285Y-48617142D01*
%TO.C,R10*%
X51427142Y-124404380D02*
X51093809Y-123928190D01*
X50855714Y-124404380D02*
X50855714Y-123404380D01*
X51236666Y-123404380D01*
X51331904Y-123452000D01*
X51379523Y-123499619D01*
X51427142Y-123594857D01*
X51427142Y-123737714D01*
X51379523Y-123832952D01*
X51331904Y-123880571D01*
X51236666Y-123928190D01*
X50855714Y-123928190D01*
X52379523Y-124404380D02*
X51808095Y-124404380D01*
X52093809Y-124404380D02*
X52093809Y-123404380D01*
X51998571Y-123547238D01*
X51903333Y-123642476D01*
X51808095Y-123690095D01*
X52998571Y-123404380D02*
X53093809Y-123404380D01*
X53189047Y-123452000D01*
X53236666Y-123499619D01*
X53284285Y-123594857D01*
X53331904Y-123785333D01*
X53331904Y-124023428D01*
X53284285Y-124213904D01*
X53236666Y-124309142D01*
X53189047Y-124356761D01*
X53093809Y-124404380D01*
X52998571Y-124404380D01*
X52903333Y-124356761D01*
X52855714Y-124309142D01*
X52808095Y-124213904D01*
X52760476Y-124023428D01*
X52760476Y-123785333D01*
X52808095Y-123594857D01*
X52855714Y-123499619D01*
X52903333Y-123452000D01*
X52998571Y-123404380D01*
%TO.C,J5*%
X171624666Y-140330380D02*
X171624666Y-141044666D01*
X171577047Y-141187523D01*
X171481809Y-141282761D01*
X171338952Y-141330380D01*
X171243714Y-141330380D01*
X172577047Y-140330380D02*
X172100857Y-140330380D01*
X172053238Y-140806571D01*
X172100857Y-140758952D01*
X172196095Y-140711333D01*
X172434190Y-140711333D01*
X172529428Y-140758952D01*
X172577047Y-140806571D01*
X172624666Y-140901809D01*
X172624666Y-141139904D01*
X172577047Y-141235142D01*
X172529428Y-141282761D01*
X172434190Y-141330380D01*
X172196095Y-141330380D01*
X172100857Y-141282761D01*
X172053238Y-141235142D01*
%TO.C,U1*%
X168143095Y-42847380D02*
X168143095Y-43656904D01*
X168190714Y-43752142D01*
X168238333Y-43799761D01*
X168333571Y-43847380D01*
X168524047Y-43847380D01*
X168619285Y-43799761D01*
X168666904Y-43752142D01*
X168714523Y-43656904D01*
X168714523Y-42847380D01*
X169714523Y-43847380D02*
X169143095Y-43847380D01*
X169428809Y-43847380D02*
X169428809Y-42847380D01*
X169333571Y-42990238D01*
X169238333Y-43085476D01*
X169143095Y-43133095D01*
%TO.C,C15*%
X135247142Y-41759142D02*
X135199523Y-41806761D01*
X135056666Y-41854380D01*
X134961428Y-41854380D01*
X134818571Y-41806761D01*
X134723333Y-41711523D01*
X134675714Y-41616285D01*
X134628095Y-41425809D01*
X134628095Y-41282952D01*
X134675714Y-41092476D01*
X134723333Y-40997238D01*
X134818571Y-40902000D01*
X134961428Y-40854380D01*
X135056666Y-40854380D01*
X135199523Y-40902000D01*
X135247142Y-40949619D01*
X136199523Y-41854380D02*
X135628095Y-41854380D01*
X135913809Y-41854380D02*
X135913809Y-40854380D01*
X135818571Y-40997238D01*
X135723333Y-41092476D01*
X135628095Y-41140095D01*
X137104285Y-40854380D02*
X136628095Y-40854380D01*
X136580476Y-41330571D01*
X136628095Y-41282952D01*
X136723333Y-41235333D01*
X136961428Y-41235333D01*
X137056666Y-41282952D01*
X137104285Y-41330571D01*
X137151904Y-41425809D01*
X137151904Y-41663904D01*
X137104285Y-41759142D01*
X137056666Y-41806761D01*
X136961428Y-41854380D01*
X136723333Y-41854380D01*
X136628095Y-41806761D01*
X136580476Y-41759142D01*
%TO.C,SW1*%
X41796666Y-81429761D02*
X41939523Y-81477380D01*
X42177619Y-81477380D01*
X42272857Y-81429761D01*
X42320476Y-81382142D01*
X42368095Y-81286904D01*
X42368095Y-81191666D01*
X42320476Y-81096428D01*
X42272857Y-81048809D01*
X42177619Y-81001190D01*
X41987142Y-80953571D01*
X41891904Y-80905952D01*
X41844285Y-80858333D01*
X41796666Y-80763095D01*
X41796666Y-80667857D01*
X41844285Y-80572619D01*
X41891904Y-80525000D01*
X41987142Y-80477380D01*
X42225238Y-80477380D01*
X42368095Y-80525000D01*
X42701428Y-80477380D02*
X42939523Y-81477380D01*
X43130000Y-80763095D01*
X43320476Y-81477380D01*
X43558571Y-80477380D01*
X44463333Y-81477380D02*
X43891904Y-81477380D01*
X44177619Y-81477380D02*
X44177619Y-80477380D01*
X44082380Y-80620238D01*
X43987142Y-80715476D01*
X43891904Y-80763095D01*
%TO.C,X1*%
X169624476Y-109688380D02*
X170291142Y-110688380D01*
X170291142Y-109688380D02*
X169624476Y-110688380D01*
X171195904Y-110688380D02*
X170624476Y-110688380D01*
X170910190Y-110688380D02*
X170910190Y-109688380D01*
X170814952Y-109831238D01*
X170719714Y-109926476D01*
X170624476Y-109974095D01*
%TO.C,R12*%
X44315142Y-136596380D02*
X43981809Y-136120190D01*
X43743714Y-136596380D02*
X43743714Y-135596380D01*
X44124666Y-135596380D01*
X44219904Y-135644000D01*
X44267523Y-135691619D01*
X44315142Y-135786857D01*
X44315142Y-135929714D01*
X44267523Y-136024952D01*
X44219904Y-136072571D01*
X44124666Y-136120190D01*
X43743714Y-136120190D01*
X45267523Y-136596380D02*
X44696095Y-136596380D01*
X44981809Y-136596380D02*
X44981809Y-135596380D01*
X44886571Y-135739238D01*
X44791333Y-135834476D01*
X44696095Y-135882095D01*
X45648476Y-135691619D02*
X45696095Y-135644000D01*
X45791333Y-135596380D01*
X46029428Y-135596380D01*
X46124666Y-135644000D01*
X46172285Y-135691619D01*
X46219904Y-135786857D01*
X46219904Y-135882095D01*
X46172285Y-136024952D01*
X45600857Y-136596380D01*
X46219904Y-136596380D01*
%TO.C,C13*%
X103497142Y-108343142D02*
X103449523Y-108390761D01*
X103306666Y-108438380D01*
X103211428Y-108438380D01*
X103068571Y-108390761D01*
X102973333Y-108295523D01*
X102925714Y-108200285D01*
X102878095Y-108009809D01*
X102878095Y-107866952D01*
X102925714Y-107676476D01*
X102973333Y-107581238D01*
X103068571Y-107486000D01*
X103211428Y-107438380D01*
X103306666Y-107438380D01*
X103449523Y-107486000D01*
X103497142Y-107533619D01*
X104449523Y-108438380D02*
X103878095Y-108438380D01*
X104163809Y-108438380D02*
X104163809Y-107438380D01*
X104068571Y-107581238D01*
X103973333Y-107676476D01*
X103878095Y-107724095D01*
X104782857Y-107438380D02*
X105401904Y-107438380D01*
X105068571Y-107819333D01*
X105211428Y-107819333D01*
X105306666Y-107866952D01*
X105354285Y-107914571D01*
X105401904Y-108009809D01*
X105401904Y-108247904D01*
X105354285Y-108343142D01*
X105306666Y-108390761D01*
X105211428Y-108438380D01*
X104925714Y-108438380D01*
X104830476Y-108390761D01*
X104782857Y-108343142D01*
%TO.C,SW2*%
X50720381Y-118803333D02*
X50768000Y-118660476D01*
X50768000Y-118422380D01*
X50720381Y-118327142D01*
X50672762Y-118279523D01*
X50577524Y-118231904D01*
X50482286Y-118231904D01*
X50387048Y-118279523D01*
X50339429Y-118327142D01*
X50291810Y-118422380D01*
X50244191Y-118612857D01*
X50196572Y-118708095D01*
X50148953Y-118755714D01*
X50053715Y-118803333D01*
X49958477Y-118803333D01*
X49863239Y-118755714D01*
X49815620Y-118708095D01*
X49768000Y-118612857D01*
X49768000Y-118374761D01*
X49815620Y-118231904D01*
X49768000Y-117898571D02*
X50768000Y-117660476D01*
X50053715Y-117470000D01*
X50768000Y-117279523D01*
X49768000Y-117041428D01*
X49863239Y-116708095D02*
X49815620Y-116660476D01*
X49768000Y-116565238D01*
X49768000Y-116327142D01*
X49815620Y-116231904D01*
X49863239Y-116184285D01*
X49958477Y-116136666D01*
X50053715Y-116136666D01*
X50196572Y-116184285D01*
X50768000Y-116755714D01*
X50768000Y-116136666D01*
%TO.C,R6*%
X43521333Y-106116380D02*
X43188000Y-105640190D01*
X42949904Y-106116380D02*
X42949904Y-105116380D01*
X43330857Y-105116380D01*
X43426095Y-105164000D01*
X43473714Y-105211619D01*
X43521333Y-105306857D01*
X43521333Y-105449714D01*
X43473714Y-105544952D01*
X43426095Y-105592571D01*
X43330857Y-105640190D01*
X42949904Y-105640190D01*
X44378476Y-105116380D02*
X44188000Y-105116380D01*
X44092761Y-105164000D01*
X44045142Y-105211619D01*
X43949904Y-105354476D01*
X43902285Y-105544952D01*
X43902285Y-105925904D01*
X43949904Y-106021142D01*
X43997523Y-106068761D01*
X44092761Y-106116380D01*
X44283238Y-106116380D01*
X44378476Y-106068761D01*
X44426095Y-106021142D01*
X44473714Y-105925904D01*
X44473714Y-105687809D01*
X44426095Y-105592571D01*
X44378476Y-105544952D01*
X44283238Y-105497333D01*
X44092761Y-105497333D01*
X43997523Y-105544952D01*
X43949904Y-105592571D01*
X43902285Y-105687809D01*
%TO.C,C9*%
X66635333Y-72493142D02*
X66587714Y-72540761D01*
X66444857Y-72588380D01*
X66349619Y-72588380D01*
X66206761Y-72540761D01*
X66111523Y-72445523D01*
X66063904Y-72350285D01*
X66016285Y-72159809D01*
X66016285Y-72016952D01*
X66063904Y-71826476D01*
X66111523Y-71731238D01*
X66206761Y-71636000D01*
X66349619Y-71588380D01*
X66444857Y-71588380D01*
X66587714Y-71636000D01*
X66635333Y-71683619D01*
X67111523Y-72588380D02*
X67302000Y-72588380D01*
X67397238Y-72540761D01*
X67444857Y-72493142D01*
X67540095Y-72350285D01*
X67587714Y-72159809D01*
X67587714Y-71778857D01*
X67540095Y-71683619D01*
X67492476Y-71636000D01*
X67397238Y-71588380D01*
X67206761Y-71588380D01*
X67111523Y-71636000D01*
X67063904Y-71683619D01*
X67016285Y-71778857D01*
X67016285Y-72016952D01*
X67063904Y-72112190D01*
X67111523Y-72159809D01*
X67206761Y-72207428D01*
X67397238Y-72207428D01*
X67492476Y-72159809D01*
X67540095Y-72112190D01*
X67587714Y-72016952D01*
%TO.C,R2*%
X157363333Y-82352380D02*
X157030000Y-81876190D01*
X156791904Y-82352380D02*
X156791904Y-81352380D01*
X157172857Y-81352380D01*
X157268095Y-81400000D01*
X157315714Y-81447619D01*
X157363333Y-81542857D01*
X157363333Y-81685714D01*
X157315714Y-81780952D01*
X157268095Y-81828571D01*
X157172857Y-81876190D01*
X156791904Y-81876190D01*
X157744285Y-81447619D02*
X157791904Y-81400000D01*
X157887142Y-81352380D01*
X158125238Y-81352380D01*
X158220476Y-81400000D01*
X158268095Y-81447619D01*
X158315714Y-81542857D01*
X158315714Y-81638095D01*
X158268095Y-81780952D01*
X157696666Y-82352380D01*
X158315714Y-82352380D01*
%TO.C,U14*%
X90196904Y-42847380D02*
X90196904Y-43656904D01*
X90244523Y-43752142D01*
X90292142Y-43799761D01*
X90387380Y-43847380D01*
X90577857Y-43847380D01*
X90673095Y-43799761D01*
X90720714Y-43752142D01*
X90768333Y-43656904D01*
X90768333Y-42847380D01*
X91768333Y-43847380D02*
X91196904Y-43847380D01*
X91482619Y-43847380D02*
X91482619Y-42847380D01*
X91387380Y-42990238D01*
X91292142Y-43085476D01*
X91196904Y-43133095D01*
X92625476Y-43180714D02*
X92625476Y-43847380D01*
X92387380Y-42799761D02*
X92149285Y-43514047D01*
X92768333Y-43514047D01*
%TO.C,C14*%
X126123142Y-48902857D02*
X126170761Y-48950476D01*
X126218380Y-49093333D01*
X126218380Y-49188571D01*
X126170761Y-49331428D01*
X126075523Y-49426666D01*
X125980285Y-49474285D01*
X125789809Y-49521904D01*
X125646952Y-49521904D01*
X125456476Y-49474285D01*
X125361238Y-49426666D01*
X125266000Y-49331428D01*
X125218380Y-49188571D01*
X125218380Y-49093333D01*
X125266000Y-48950476D01*
X125313619Y-48902857D01*
X126218380Y-47950476D02*
X126218380Y-48521904D01*
X126218380Y-48236190D02*
X125218380Y-48236190D01*
X125361238Y-48331428D01*
X125456476Y-48426666D01*
X125504095Y-48521904D01*
X125551714Y-47093333D02*
X126218380Y-47093333D01*
X125170761Y-47331428D02*
X125885047Y-47569523D01*
X125885047Y-46950476D01*
%TO.C,U3*%
X130302095Y-42886380D02*
X130302095Y-43695904D01*
X130349714Y-43791142D01*
X130397333Y-43838761D01*
X130492571Y-43886380D01*
X130683047Y-43886380D01*
X130778285Y-43838761D01*
X130825904Y-43791142D01*
X130873523Y-43695904D01*
X130873523Y-42886380D01*
X131254476Y-42886380D02*
X131873523Y-42886380D01*
X131540190Y-43267333D01*
X131683047Y-43267333D01*
X131778285Y-43314952D01*
X131825904Y-43362571D01*
X131873523Y-43457809D01*
X131873523Y-43695904D01*
X131825904Y-43791142D01*
X131778285Y-43838761D01*
X131683047Y-43886380D01*
X131397333Y-43886380D01*
X131302095Y-43838761D01*
X131254476Y-43791142D01*
%TO.C,U8*%
X130048095Y-114592380D02*
X130048095Y-115401904D01*
X130095714Y-115497142D01*
X130143333Y-115544761D01*
X130238571Y-115592380D01*
X130429047Y-115592380D01*
X130524285Y-115544761D01*
X130571904Y-115497142D01*
X130619523Y-115401904D01*
X130619523Y-114592380D01*
X131238571Y-115020952D02*
X131143333Y-114973333D01*
X131095714Y-114925714D01*
X131048095Y-114830476D01*
X131048095Y-114782857D01*
X131095714Y-114687619D01*
X131143333Y-114640000D01*
X131238571Y-114592380D01*
X131429047Y-114592380D01*
X131524285Y-114640000D01*
X131571904Y-114687619D01*
X131619523Y-114782857D01*
X131619523Y-114830476D01*
X131571904Y-114925714D01*
X131524285Y-114973333D01*
X131429047Y-115020952D01*
X131238571Y-115020952D01*
X131143333Y-115068571D01*
X131095714Y-115116190D01*
X131048095Y-115211428D01*
X131048095Y-115401904D01*
X131095714Y-115497142D01*
X131143333Y-115544761D01*
X131238571Y-115592380D01*
X131429047Y-115592380D01*
X131524285Y-115544761D01*
X131571904Y-115497142D01*
X131619523Y-115401904D01*
X131619523Y-115211428D01*
X131571904Y-115116190D01*
X131524285Y-115068571D01*
X131429047Y-115020952D01*
%TO.C,R5*%
X54706780Y-123940866D02*
X54230590Y-124274200D01*
X54706780Y-124512295D02*
X53706780Y-124512295D01*
X53706780Y-124131342D01*
X53754400Y-124036104D01*
X53802019Y-123988485D01*
X53897257Y-123940866D01*
X54040114Y-123940866D01*
X54135352Y-123988485D01*
X54182971Y-124036104D01*
X54230590Y-124131342D01*
X54230590Y-124512295D01*
X53706780Y-123036104D02*
X53706780Y-123512295D01*
X54182971Y-123559914D01*
X54135352Y-123512295D01*
X54087733Y-123417057D01*
X54087733Y-123178961D01*
X54135352Y-123083723D01*
X54182971Y-123036104D01*
X54278209Y-122988485D01*
X54516304Y-122988485D01*
X54611542Y-123036104D01*
X54659161Y-123083723D01*
X54706780Y-123178961D01*
X54706780Y-123417057D01*
X54659161Y-123512295D01*
X54611542Y-123559914D01*
%TO.C,U10*%
X59096904Y-122862380D02*
X59096904Y-123671904D01*
X59144523Y-123767142D01*
X59192142Y-123814761D01*
X59287380Y-123862380D01*
X59477857Y-123862380D01*
X59573095Y-123814761D01*
X59620714Y-123767142D01*
X59668333Y-123671904D01*
X59668333Y-122862380D01*
X60668333Y-123862380D02*
X60096904Y-123862380D01*
X60382619Y-123862380D02*
X60382619Y-122862380D01*
X60287380Y-123005238D01*
X60192142Y-123100476D01*
X60096904Y-123148095D01*
X61287380Y-122862380D02*
X61382619Y-122862380D01*
X61477857Y-122910000D01*
X61525476Y-122957619D01*
X61573095Y-123052857D01*
X61620714Y-123243333D01*
X61620714Y-123481428D01*
X61573095Y-123671904D01*
X61525476Y-123767142D01*
X61477857Y-123814761D01*
X61382619Y-123862380D01*
X61287380Y-123862380D01*
X61192142Y-123814761D01*
X61144523Y-123767142D01*
X61096904Y-123671904D01*
X61049285Y-123481428D01*
X61049285Y-123243333D01*
X61096904Y-123052857D01*
X61144523Y-122957619D01*
X61192142Y-122910000D01*
X61287380Y-122862380D01*
%TO.C,R8*%
X54300380Y-135294666D02*
X53824190Y-135628000D01*
X54300380Y-135866095D02*
X53300380Y-135866095D01*
X53300380Y-135485142D01*
X53348000Y-135389904D01*
X53395619Y-135342285D01*
X53490857Y-135294666D01*
X53633714Y-135294666D01*
X53728952Y-135342285D01*
X53776571Y-135389904D01*
X53824190Y-135485142D01*
X53824190Y-135866095D01*
X53728952Y-134723238D02*
X53681333Y-134818476D01*
X53633714Y-134866095D01*
X53538476Y-134913714D01*
X53490857Y-134913714D01*
X53395619Y-134866095D01*
X53348000Y-134818476D01*
X53300380Y-134723238D01*
X53300380Y-134532761D01*
X53348000Y-134437523D01*
X53395619Y-134389904D01*
X53490857Y-134342285D01*
X53538476Y-134342285D01*
X53633714Y-134389904D01*
X53681333Y-134437523D01*
X53728952Y-134532761D01*
X53728952Y-134723238D01*
X53776571Y-134818476D01*
X53824190Y-134866095D01*
X53919428Y-134913714D01*
X54109904Y-134913714D01*
X54205142Y-134866095D01*
X54252761Y-134818476D01*
X54300380Y-134723238D01*
X54300380Y-134532761D01*
X54252761Y-134437523D01*
X54205142Y-134389904D01*
X54109904Y-134342285D01*
X53919428Y-134342285D01*
X53824190Y-134389904D01*
X53776571Y-134437523D01*
X53728952Y-134532761D01*
%TO.C,R1*%
X79893333Y-54412380D02*
X79560000Y-53936190D01*
X79321904Y-54412380D02*
X79321904Y-53412380D01*
X79702857Y-53412380D01*
X79798095Y-53460000D01*
X79845714Y-53507619D01*
X79893333Y-53602857D01*
X79893333Y-53745714D01*
X79845714Y-53840952D01*
X79798095Y-53888571D01*
X79702857Y-53936190D01*
X79321904Y-53936190D01*
X80845714Y-54412380D02*
X80274285Y-54412380D01*
X80560000Y-54412380D02*
X80560000Y-53412380D01*
X80464761Y-53555238D01*
X80369523Y-53650476D01*
X80274285Y-53698095D01*
%TO.C,U13*%
X90196904Y-97437380D02*
X90196904Y-98246904D01*
X90244523Y-98342142D01*
X90292142Y-98389761D01*
X90387380Y-98437380D01*
X90577857Y-98437380D01*
X90673095Y-98389761D01*
X90720714Y-98342142D01*
X90768333Y-98246904D01*
X90768333Y-97437380D01*
X91768333Y-98437380D02*
X91196904Y-98437380D01*
X91482619Y-98437380D02*
X91482619Y-97437380D01*
X91387380Y-97580238D01*
X91292142Y-97675476D01*
X91196904Y-97723095D01*
X92101666Y-97437380D02*
X92720714Y-97437380D01*
X92387380Y-97818333D01*
X92530238Y-97818333D01*
X92625476Y-97865952D01*
X92673095Y-97913571D01*
X92720714Y-98008809D01*
X92720714Y-98246904D01*
X92673095Y-98342142D01*
X92625476Y-98389761D01*
X92530238Y-98437380D01*
X92244523Y-98437380D01*
X92149285Y-98389761D01*
X92101666Y-98342142D01*
%TO.C,C8*%
X61809333Y-46585142D02*
X61761714Y-46632761D01*
X61618857Y-46680380D01*
X61523619Y-46680380D01*
X61380761Y-46632761D01*
X61285523Y-46537523D01*
X61237904Y-46442285D01*
X61190285Y-46251809D01*
X61190285Y-46108952D01*
X61237904Y-45918476D01*
X61285523Y-45823238D01*
X61380761Y-45728000D01*
X61523619Y-45680380D01*
X61618857Y-45680380D01*
X61761714Y-45728000D01*
X61809333Y-45775619D01*
X62380761Y-46108952D02*
X62285523Y-46061333D01*
X62237904Y-46013714D01*
X62190285Y-45918476D01*
X62190285Y-45870857D01*
X62237904Y-45775619D01*
X62285523Y-45728000D01*
X62380761Y-45680380D01*
X62571238Y-45680380D01*
X62666476Y-45728000D01*
X62714095Y-45775619D01*
X62761714Y-45870857D01*
X62761714Y-45918476D01*
X62714095Y-46013714D01*
X62666476Y-46061333D01*
X62571238Y-46108952D01*
X62380761Y-46108952D01*
X62285523Y-46156571D01*
X62237904Y-46204190D01*
X62190285Y-46299428D01*
X62190285Y-46489904D01*
X62237904Y-46585142D01*
X62285523Y-46632761D01*
X62380761Y-46680380D01*
X62571238Y-46680380D01*
X62666476Y-46632761D01*
X62714095Y-46585142D01*
X62761714Y-46489904D01*
X62761714Y-46299428D01*
X62714095Y-46204190D01*
X62666476Y-46156571D01*
X62571238Y-46108952D01*
%TO.C,Q2*%
X69119761Y-108497619D02*
X69024523Y-108450000D01*
X68929285Y-108354761D01*
X68786428Y-108211904D01*
X68691190Y-108164285D01*
X68595952Y-108164285D01*
X68643571Y-108402380D02*
X68548333Y-108354761D01*
X68453095Y-108259523D01*
X68405476Y-108069047D01*
X68405476Y-107735714D01*
X68453095Y-107545238D01*
X68548333Y-107450000D01*
X68643571Y-107402380D01*
X68834047Y-107402380D01*
X68929285Y-107450000D01*
X69024523Y-107545238D01*
X69072142Y-107735714D01*
X69072142Y-108069047D01*
X69024523Y-108259523D01*
X68929285Y-108354761D01*
X68834047Y-108402380D01*
X68643571Y-108402380D01*
X69453095Y-107497619D02*
X69500714Y-107450000D01*
X69595952Y-107402380D01*
X69834047Y-107402380D01*
X69929285Y-107450000D01*
X69976904Y-107497619D01*
X70024523Y-107592857D01*
X70024523Y-107688095D01*
X69976904Y-107830952D01*
X69405476Y-108402380D01*
X70024523Y-108402380D01*
%TO.C,C11*%
X160901142Y-113133142D02*
X160853523Y-113180761D01*
X160710666Y-113228380D01*
X160615428Y-113228380D01*
X160472571Y-113180761D01*
X160377333Y-113085523D01*
X160329714Y-112990285D01*
X160282095Y-112799809D01*
X160282095Y-112656952D01*
X160329714Y-112466476D01*
X160377333Y-112371238D01*
X160472571Y-112276000D01*
X160615428Y-112228380D01*
X160710666Y-112228380D01*
X160853523Y-112276000D01*
X160901142Y-112323619D01*
X161853523Y-113228380D02*
X161282095Y-113228380D01*
X161567809Y-113228380D02*
X161567809Y-112228380D01*
X161472571Y-112371238D01*
X161377333Y-112466476D01*
X161282095Y-112514095D01*
X162805904Y-113228380D02*
X162234476Y-113228380D01*
X162520190Y-113228380D02*
X162520190Y-112228380D01*
X162424952Y-112371238D01*
X162329714Y-112466476D01*
X162234476Y-112514095D01*
%TO.C,C19*%
X135501142Y-113133142D02*
X135453523Y-113180761D01*
X135310666Y-113228380D01*
X135215428Y-113228380D01*
X135072571Y-113180761D01*
X134977333Y-113085523D01*
X134929714Y-112990285D01*
X134882095Y-112799809D01*
X134882095Y-112656952D01*
X134929714Y-112466476D01*
X134977333Y-112371238D01*
X135072571Y-112276000D01*
X135215428Y-112228380D01*
X135310666Y-112228380D01*
X135453523Y-112276000D01*
X135501142Y-112323619D01*
X136453523Y-113228380D02*
X135882095Y-113228380D01*
X136167809Y-113228380D02*
X136167809Y-112228380D01*
X136072571Y-112371238D01*
X135977333Y-112466476D01*
X135882095Y-112514095D01*
X136929714Y-113228380D02*
X137120190Y-113228380D01*
X137215428Y-113180761D01*
X137263047Y-113133142D01*
X137358285Y-112990285D01*
X137405904Y-112799809D01*
X137405904Y-112418857D01*
X137358285Y-112323619D01*
X137310666Y-112276000D01*
X137215428Y-112228380D01*
X137024952Y-112228380D01*
X136929714Y-112276000D01*
X136882095Y-112323619D01*
X136834476Y-112418857D01*
X136834476Y-112656952D01*
X136882095Y-112752190D01*
X136929714Y-112799809D01*
X137024952Y-112847428D01*
X137215428Y-112847428D01*
X137310666Y-112799809D01*
X137358285Y-112752190D01*
X137405904Y-112656952D01*
%TO.C,U11*%
X129571904Y-83272380D02*
X129571904Y-84081904D01*
X129619523Y-84177142D01*
X129667142Y-84224761D01*
X129762380Y-84272380D01*
X129952857Y-84272380D01*
X130048095Y-84224761D01*
X130095714Y-84177142D01*
X130143333Y-84081904D01*
X130143333Y-83272380D01*
X131143333Y-84272380D02*
X130571904Y-84272380D01*
X130857619Y-84272380D02*
X130857619Y-83272380D01*
X130762380Y-83415238D01*
X130667142Y-83510476D01*
X130571904Y-83558095D01*
X132095714Y-84272380D02*
X131524285Y-84272380D01*
X131810000Y-84272380D02*
X131810000Y-83272380D01*
X131714761Y-83415238D01*
X131619523Y-83510476D01*
X131524285Y-83558095D01*
%TO.C,LED2*%
X48569619Y-131468952D02*
X48569619Y-130992761D01*
X49569619Y-130992761D01*
X49093428Y-131802285D02*
X49093428Y-132135619D01*
X48569619Y-132278476D02*
X48569619Y-131802285D01*
X49569619Y-131802285D01*
X49569619Y-132278476D01*
X48569619Y-132707047D02*
X49569619Y-132707047D01*
X49569619Y-132945142D01*
X49522000Y-133088000D01*
X49426761Y-133183238D01*
X49331523Y-133230857D01*
X49141047Y-133278476D01*
X48998190Y-133278476D01*
X48807714Y-133230857D01*
X48712476Y-133183238D01*
X48617238Y-133088000D01*
X48569619Y-132945142D01*
X48569619Y-132707047D01*
X49474380Y-133659428D02*
X49522000Y-133707047D01*
X49569619Y-133802285D01*
X49569619Y-134040380D01*
X49522000Y-134135619D01*
X49474380Y-134183238D01*
X49379142Y-134230857D01*
X49283904Y-134230857D01*
X49141047Y-134183238D01*
X48569619Y-133611809D01*
X48569619Y-134230857D01*
%TO.C,R4*%
X184491333Y-86812380D02*
X184158000Y-86336190D01*
X183919904Y-86812380D02*
X183919904Y-85812380D01*
X184300857Y-85812380D01*
X184396095Y-85860000D01*
X184443714Y-85907619D01*
X184491333Y-86002857D01*
X184491333Y-86145714D01*
X184443714Y-86240952D01*
X184396095Y-86288571D01*
X184300857Y-86336190D01*
X183919904Y-86336190D01*
X185348476Y-86145714D02*
X185348476Y-86812380D01*
X185110380Y-85764761D02*
X184872285Y-86479047D01*
X185491333Y-86479047D01*
%TO.C,U2*%
X146568095Y-42827380D02*
X146568095Y-43636904D01*
X146615714Y-43732142D01*
X146663333Y-43779761D01*
X146758571Y-43827380D01*
X146949047Y-43827380D01*
X147044285Y-43779761D01*
X147091904Y-43732142D01*
X147139523Y-43636904D01*
X147139523Y-42827380D01*
X147568095Y-42922619D02*
X147615714Y-42875000D01*
X147710952Y-42827380D01*
X147949047Y-42827380D01*
X148044285Y-42875000D01*
X148091904Y-42922619D01*
X148139523Y-43017857D01*
X148139523Y-43113095D01*
X148091904Y-43255952D01*
X147520476Y-43827380D01*
X148139523Y-43827380D01*
D13*
%TO.C,R15*%
X170795200Y-119354600D02*
X171415200Y-119354600D01*
X170795200Y-119354600D02*
G75*
G03*
X170795200Y-119354600I-920000J0D01*
G01*
%TO.C,R14*%
X175179000Y-113106200D02*
X174559000Y-113106200D01*
X177019000Y-113106200D02*
G75*
G03*
X177019000Y-113106200I-920000J0D01*
G01*
%TO.C,R13*%
X170225200Y-113106200D02*
X169605200Y-113106200D01*
X172065200Y-113106200D02*
G75*
G03*
X172065200Y-113106200I-920000J0D01*
G01*
%TO.C,C10*%
X65596000Y-100480000D02*
X58356000Y-100480000D01*
X58356000Y-102720000D02*
X58356000Y-100480000D01*
X65596000Y-102720000D02*
X65596000Y-100480000D01*
X65596000Y-102720000D02*
X58356000Y-102720000D01*
%TO.C,C1*%
X68048000Y-53927621D02*
X65899000Y-53927621D01*
X70864000Y-56128621D02*
X67312000Y-56128621D01*
X68048000Y-53807621D02*
X65882000Y-53807621D01*
X70253000Y-56448621D02*
X67923000Y-56448621D01*
X68048000Y-53967621D02*
X65906000Y-53967621D01*
X68048000Y-54728621D02*
X66136000Y-54728621D01*
X68048000Y-54408621D02*
X66014000Y-54408621D01*
X71032000Y-56008621D02*
X67144000Y-56008621D01*
X68048000Y-54568621D02*
X66070000Y-54568621D01*
X68048000Y-54328621D02*
X65990000Y-54328621D01*
X68048000Y-55248621D02*
X66424000Y-55248621D01*
X72303000Y-53727621D02*
X70128000Y-53727621D01*
X72299000Y-53767621D02*
X70128000Y-53767621D01*
X68048000Y-55408621D02*
X66540000Y-55408621D01*
X71538000Y-55528621D02*
X70128000Y-55528621D01*
X71830000Y-55128621D02*
X70128000Y-55128621D01*
X68048000Y-54768621D02*
X66154000Y-54768621D01*
X71752000Y-55248621D02*
X70128000Y-55248621D01*
X68048000Y-54208621D02*
X65957000Y-54208621D01*
X68048000Y-54968621D02*
X66254000Y-54968621D01*
X71724000Y-55288621D02*
X70128000Y-55288621D01*
X72294000Y-53807621D02*
X70128000Y-53807621D01*
X68048000Y-55688621D02*
X66783000Y-55688621D01*
X72022000Y-54768621D02*
X70128000Y-54768621D01*
X71984000Y-54848621D02*
X70128000Y-54848621D01*
X71804000Y-55168621D02*
X70128000Y-55168621D01*
X70669000Y-56248621D02*
X67507000Y-56248621D01*
X71666000Y-55368621D02*
X70128000Y-55368621D01*
X71964000Y-54888621D02*
X70128000Y-54888621D01*
X68048000Y-53887621D02*
X65893000Y-53887621D01*
X68048000Y-54368621D02*
X66002000Y-54368621D01*
X71572000Y-55488621D02*
X70128000Y-55488621D01*
X68048000Y-55528621D02*
X66638000Y-55528621D01*
X72121000Y-54528621D02*
X70128000Y-54528621D01*
X68048000Y-55088621D02*
X66322000Y-55088621D01*
X71431000Y-55648621D02*
X70128000Y-55648621D01*
X68048000Y-54087621D02*
X65929000Y-54087621D01*
X70927000Y-49907380D02*
X70927000Y-50537380D01*
X68048000Y-54648621D02*
X66102000Y-54648621D01*
X71854000Y-55088621D02*
X70128000Y-55088621D01*
X68048000Y-55168621D02*
X66372000Y-55168621D01*
X71225000Y-55848621D02*
X66951000Y-55848621D01*
X72289000Y-53847621D02*
X70128000Y-53847621D01*
X71132000Y-55928621D02*
X67044000Y-55928621D01*
X72270000Y-53967621D02*
X70128000Y-53967621D01*
X70350000Y-56408621D02*
X67826000Y-56408621D01*
X71922000Y-54968621D02*
X70128000Y-54968621D01*
X70438000Y-56368621D02*
X67738000Y-56368621D01*
X72162000Y-54408621D02*
X70128000Y-54408621D01*
X68048000Y-55448621D02*
X66572000Y-55448621D01*
X71636000Y-55408621D02*
X70128000Y-55408621D01*
X68048000Y-54168621D02*
X65947000Y-54168621D01*
X72058000Y-54688621D02*
X70128000Y-54688621D01*
X70520000Y-56328621D02*
X67656000Y-56328621D01*
X68048000Y-55328621D02*
X66481000Y-55328621D01*
X72312000Y-53607621D02*
X65864000Y-53607621D01*
X68048000Y-54047621D02*
X65921000Y-54047621D01*
X72106000Y-54568621D02*
X70128000Y-54568621D01*
X68048000Y-55568621D02*
X66672000Y-55568621D01*
X70802000Y-56168621D02*
X67374000Y-56168621D01*
X68048000Y-55488621D02*
X66604000Y-55488621D01*
X71944000Y-54928621D02*
X70128000Y-54928621D01*
X72135000Y-54488621D02*
X70128000Y-54488621D01*
X71353000Y-55728621D02*
X66823000Y-55728621D01*
X68048000Y-53647621D02*
X65866000Y-53647621D01*
X71778000Y-55208621D02*
X70128000Y-55208621D01*
X68048000Y-53847621D02*
X65887000Y-53847621D01*
X69490000Y-56648621D02*
X68686000Y-56648621D01*
X72315000Y-53567621D02*
X65861000Y-53567621D01*
X72316000Y-53527621D02*
X65860000Y-53527621D01*
X68048000Y-55008621D02*
X66276000Y-55008621D01*
X68048000Y-55648621D02*
X66745000Y-55648621D01*
X71393000Y-55688621D02*
X70128000Y-55688621D01*
X70028000Y-56528621D02*
X68148000Y-56528621D01*
X68048000Y-55128621D02*
X66346000Y-55128621D01*
X71270000Y-55808621D02*
X66906000Y-55808621D01*
X72306000Y-53687621D02*
X70128000Y-53687621D01*
X68048000Y-54688621D02*
X66118000Y-54688621D01*
X72277000Y-53927621D02*
X70128000Y-53927621D01*
X72074000Y-54648621D02*
X70128000Y-54648621D01*
X68048000Y-54288621D02*
X65978000Y-54288621D01*
X71242000Y-50222380D02*
X70612000Y-50222380D01*
X72310000Y-53647621D02*
X70128000Y-53647621D01*
X72219000Y-54208621D02*
X70128000Y-54208621D01*
X72040000Y-54728621D02*
X70128000Y-54728621D01*
X71083000Y-55968621D02*
X67093000Y-55968621D01*
X72174000Y-54368621D02*
X70128000Y-54368621D01*
X72149000Y-54448621D02*
X70128000Y-54448621D01*
X68048000Y-54808621D02*
X66172000Y-54808621D01*
X68048000Y-54128621D02*
X65938000Y-54128621D01*
X68048000Y-54928621D02*
X66232000Y-54928621D01*
X68048000Y-54448621D02*
X66027000Y-54448621D01*
X72090000Y-54608621D02*
X70128000Y-54608621D01*
X68048000Y-54248621D02*
X65967000Y-54248621D01*
X72198000Y-54288621D02*
X70128000Y-54288621D01*
X72209000Y-54248621D02*
X70128000Y-54248621D01*
X71312000Y-55768621D02*
X66864000Y-55768621D01*
X70922000Y-56088621D02*
X67254000Y-56088621D01*
X71180000Y-55888621D02*
X66996000Y-55888621D01*
X72004000Y-54808621D02*
X70128000Y-54808621D01*
X70978000Y-56048621D02*
X67198000Y-56048621D01*
X68048000Y-54848621D02*
X66192000Y-54848621D01*
X68048000Y-55288621D02*
X66452000Y-55288621D01*
X68048000Y-54608621D02*
X66086000Y-54608621D01*
X71695000Y-55328621D02*
X70128000Y-55328621D01*
X72318000Y-53447621D02*
X65858000Y-53447621D01*
X68048000Y-55048621D02*
X66298000Y-55048621D01*
X68048000Y-55368621D02*
X66510000Y-55368621D01*
X69721000Y-56608621D02*
X68455000Y-56608621D01*
X69890000Y-56568621D02*
X68286000Y-56568621D01*
X71468000Y-55608621D02*
X70128000Y-55608621D01*
X68048000Y-54007621D02*
X65913000Y-54007621D01*
X68048000Y-55208621D02*
X66398000Y-55208621D01*
X68048000Y-55608621D02*
X66708000Y-55608621D01*
X68048000Y-54888621D02*
X66212000Y-54888621D01*
X72263000Y-54007621D02*
X70128000Y-54007621D01*
X72186000Y-54328621D02*
X70128000Y-54328621D01*
X72238000Y-54128621D02*
X70128000Y-54128621D01*
X72318000Y-53407621D02*
X65858000Y-53407621D01*
X70738000Y-56208621D02*
X67438000Y-56208621D01*
X70597000Y-56288621D02*
X67579000Y-56288621D01*
X71504000Y-55568621D02*
X70128000Y-55568621D01*
X72247000Y-54087621D02*
X70128000Y-54087621D01*
X72229000Y-54168621D02*
X70128000Y-54168621D01*
X71878000Y-55048621D02*
X70128000Y-55048621D01*
X72255000Y-54047621D02*
X70128000Y-54047621D01*
X71900000Y-55008621D02*
X70128000Y-55008621D01*
X68048000Y-54488621D02*
X66041000Y-54488621D01*
X68048000Y-53727621D02*
X65873000Y-53727621D01*
X71604000Y-55448621D02*
X70128000Y-55448621D01*
X68048000Y-53767621D02*
X65877000Y-53767621D01*
X70147000Y-56488621D02*
X68029000Y-56488621D01*
X72318000Y-53487621D02*
X65858000Y-53487621D01*
X68048000Y-54528621D02*
X66055000Y-54528621D01*
X72283000Y-53887621D02*
X70128000Y-53887621D01*
X68048000Y-53687621D02*
X65870000Y-53687621D01*
X72358000Y-53407621D02*
G75*
G03*
X72358000Y-53407621I-3270000J0D01*
G01*
%TO.C,R3*%
X180640000Y-83820000D02*
X180020000Y-83820000D01*
X182480000Y-83820000D02*
G75*
G03*
X182480000Y-83820000I-920000J0D01*
G01*
%TO.C,C4*%
X72209000Y-47136621D02*
X70128000Y-47136621D01*
X71468000Y-48496621D02*
X70128000Y-48496621D01*
X71695000Y-48216621D02*
X70128000Y-48216621D01*
X72174000Y-47256621D02*
X70128000Y-47256621D01*
X68048000Y-47776621D02*
X66212000Y-47776621D01*
X68048000Y-47536621D02*
X66102000Y-47536621D01*
X68048000Y-46895621D02*
X65913000Y-46895621D01*
X72263000Y-46895621D02*
X70128000Y-46895621D01*
X68048000Y-48176621D02*
X66452000Y-48176621D01*
X68048000Y-48416621D02*
X66638000Y-48416621D01*
X71393000Y-48576621D02*
X70128000Y-48576621D01*
X71944000Y-47816621D02*
X70128000Y-47816621D01*
X70864000Y-49016621D02*
X67312000Y-49016621D01*
X68048000Y-48016621D02*
X66346000Y-48016621D01*
X68048000Y-47216621D02*
X65990000Y-47216621D01*
X70738000Y-49096621D02*
X67438000Y-49096621D01*
X72318000Y-46375621D02*
X65858000Y-46375621D01*
X72198000Y-47176621D02*
X70128000Y-47176621D01*
X72270000Y-46855621D02*
X70128000Y-46855621D01*
X71083000Y-48856621D02*
X67093000Y-48856621D01*
X72283000Y-46775621D02*
X70128000Y-46775621D01*
X72318000Y-46335621D02*
X65858000Y-46335621D01*
X70597000Y-49176621D02*
X67579000Y-49176621D01*
X71778000Y-48096621D02*
X70128000Y-48096621D01*
X70802000Y-49056621D02*
X67374000Y-49056621D01*
X68048000Y-47896621D02*
X66276000Y-47896621D01*
X71180000Y-48776621D02*
X66996000Y-48776621D01*
X72106000Y-47456621D02*
X70128000Y-47456621D01*
X71752000Y-48136621D02*
X70128000Y-48136621D01*
X68048000Y-46575621D02*
X65870000Y-46575621D01*
X68048000Y-47696621D02*
X66172000Y-47696621D01*
X71312000Y-48656621D02*
X66864000Y-48656621D01*
X70253000Y-49336621D02*
X67923000Y-49336621D01*
X71900000Y-47896621D02*
X70128000Y-47896621D01*
X71353000Y-48616621D02*
X66823000Y-48616621D01*
X71225000Y-48736621D02*
X66951000Y-48736621D01*
X70438000Y-49256621D02*
X67738000Y-49256621D01*
X71132000Y-48816621D02*
X67044000Y-48816621D01*
X71984000Y-47736621D02*
X70128000Y-47736621D01*
X68048000Y-47336621D02*
X66027000Y-47336621D01*
X72247000Y-46975621D02*
X70128000Y-46975621D01*
X68048000Y-47256621D02*
X66002000Y-47256621D01*
X68048000Y-48136621D02*
X66424000Y-48136621D01*
X71666000Y-48256621D02*
X70128000Y-48256621D01*
X69490000Y-49536621D02*
X68686000Y-49536621D01*
X72303000Y-46615621D02*
X70128000Y-46615621D01*
X71504000Y-48456621D02*
X70128000Y-48456621D01*
X72316000Y-46415621D02*
X65860000Y-46415621D01*
X72294000Y-46695621D02*
X70128000Y-46695621D01*
X71032000Y-48896621D02*
X67144000Y-48896621D01*
X70669000Y-49136621D02*
X67507000Y-49136621D01*
X70350000Y-49296621D02*
X67826000Y-49296621D01*
X71854000Y-47976621D02*
X70128000Y-47976621D01*
X68048000Y-47616621D02*
X66136000Y-47616621D01*
X72022000Y-47656621D02*
X70128000Y-47656621D01*
X68048000Y-46975621D02*
X65929000Y-46975621D01*
X69721000Y-49496621D02*
X68455000Y-49496621D01*
X68048000Y-46735621D02*
X65887000Y-46735621D01*
X68048000Y-47816621D02*
X66232000Y-47816621D01*
X72004000Y-47696621D02*
X70128000Y-47696621D01*
X71431000Y-48536621D02*
X70128000Y-48536621D01*
X70922000Y-48976621D02*
X67254000Y-48976621D01*
X72135000Y-47376621D02*
X70128000Y-47376621D01*
X71804000Y-48056621D02*
X70128000Y-48056621D01*
X68048000Y-46855621D02*
X65906000Y-46855621D01*
X68048000Y-47176621D02*
X65978000Y-47176621D01*
X68048000Y-47936621D02*
X66298000Y-47936621D01*
X71964000Y-47776621D02*
X70128000Y-47776621D01*
X68048000Y-48456621D02*
X66672000Y-48456621D01*
X72306000Y-46575621D02*
X70128000Y-46575621D01*
X68048000Y-47016621D02*
X65938000Y-47016621D01*
X68048000Y-46935621D02*
X65921000Y-46935621D01*
X72289000Y-46735621D02*
X70128000Y-46735621D01*
X68048000Y-48536621D02*
X66745000Y-48536621D01*
X72312000Y-46495621D02*
X65864000Y-46495621D01*
X68048000Y-48496621D02*
X66708000Y-48496621D01*
X72162000Y-47296621D02*
X70128000Y-47296621D01*
X71604000Y-48336621D02*
X70128000Y-48336621D01*
X72186000Y-47216621D02*
X70128000Y-47216621D01*
X68048000Y-47096621D02*
X65957000Y-47096621D01*
X71538000Y-48416621D02*
X70128000Y-48416621D01*
X68048000Y-47136621D02*
X65967000Y-47136621D01*
X68048000Y-48216621D02*
X66481000Y-48216621D01*
X71242000Y-43110380D02*
X70612000Y-43110380D01*
X68048000Y-48056621D02*
X66372000Y-48056621D01*
X68048000Y-47416621D02*
X66055000Y-47416621D01*
X72090000Y-47496621D02*
X70128000Y-47496621D01*
X72149000Y-47336621D02*
X70128000Y-47336621D01*
X68048000Y-46775621D02*
X65893000Y-46775621D01*
X68048000Y-47576621D02*
X66118000Y-47576621D01*
X68048000Y-46815621D02*
X65899000Y-46815621D01*
X68048000Y-46615621D02*
X65873000Y-46615621D01*
X70028000Y-49416621D02*
X68148000Y-49416621D01*
X68048000Y-47056621D02*
X65947000Y-47056621D01*
X68048000Y-47976621D02*
X66322000Y-47976621D01*
X68048000Y-48096621D02*
X66398000Y-48096621D01*
X68048000Y-48376621D02*
X66604000Y-48376621D01*
X72040000Y-47616621D02*
X70128000Y-47616621D01*
X68048000Y-46535621D02*
X65866000Y-46535621D01*
X68048000Y-47456621D02*
X66070000Y-47456621D01*
X72121000Y-47416621D02*
X70128000Y-47416621D01*
X68048000Y-47856621D02*
X66254000Y-47856621D01*
X70520000Y-49216621D02*
X67656000Y-49216621D01*
X68048000Y-47736621D02*
X66192000Y-47736621D01*
X68048000Y-48256621D02*
X66510000Y-48256621D01*
X68048000Y-46695621D02*
X65882000Y-46695621D01*
X72058000Y-47576621D02*
X70128000Y-47576621D01*
X72238000Y-47016621D02*
X70128000Y-47016621D01*
X68048000Y-48576621D02*
X66783000Y-48576621D01*
X68048000Y-47296621D02*
X66014000Y-47296621D01*
X71922000Y-47856621D02*
X70128000Y-47856621D01*
X71270000Y-48696621D02*
X66906000Y-48696621D01*
X68048000Y-48296621D02*
X66540000Y-48296621D01*
X72255000Y-46935621D02*
X70128000Y-46935621D01*
X70927000Y-42795380D02*
X70927000Y-43425380D01*
X71572000Y-48376621D02*
X70128000Y-48376621D01*
X71830000Y-48016621D02*
X70128000Y-48016621D01*
X72299000Y-46655621D02*
X70128000Y-46655621D01*
X72229000Y-47056621D02*
X70128000Y-47056621D01*
X69890000Y-49456621D02*
X68286000Y-49456621D01*
X72310000Y-46535621D02*
X70128000Y-46535621D01*
X71878000Y-47936621D02*
X70128000Y-47936621D01*
X68048000Y-47656621D02*
X66154000Y-47656621D01*
X70147000Y-49376621D02*
X68029000Y-49376621D01*
X72219000Y-47096621D02*
X70128000Y-47096621D01*
X71636000Y-48296621D02*
X70128000Y-48296621D01*
X70978000Y-48936621D02*
X67198000Y-48936621D01*
X71724000Y-48176621D02*
X70128000Y-48176621D01*
X72277000Y-46815621D02*
X70128000Y-46815621D01*
X68048000Y-47376621D02*
X66041000Y-47376621D01*
X68048000Y-48336621D02*
X66572000Y-48336621D01*
X72074000Y-47536621D02*
X70128000Y-47536621D01*
X68048000Y-47496621D02*
X66086000Y-47496621D01*
X68048000Y-46655621D02*
X65877000Y-46655621D01*
X72315000Y-46455621D02*
X65861000Y-46455621D01*
X72318000Y-46295621D02*
X65858000Y-46295621D01*
X72358000Y-46295621D02*
G75*
G03*
X72358000Y-46295621I-3270000J0D01*
G01*
%TO.C,U5*%
X149580000Y-105460000D02*
X149580000Y-85020000D01*
X142080000Y-84960000D02*
X142080000Y-105520000D01*
X145080000Y-105460000D02*
X149580000Y-105460000D01*
X152580000Y-84960000D02*
X142080000Y-84960000D01*
X146330000Y-85020000D02*
X145080000Y-85020000D01*
X149580000Y-85020000D02*
X148330000Y-85020000D01*
X142080000Y-105520000D02*
X152580000Y-105520000D01*
X145080000Y-85020000D02*
X145080000Y-105460000D01*
X152580000Y-105520000D02*
X152580000Y-84960000D01*
X146330000Y-85020000D02*
G75*
G03*
X148330000Y-85020000I1000000J0D01*
G01*
%TO.C,J3*%
X121173000Y-92396000D02*
X126313000Y-92396000D01*
X126313000Y-95056000D02*
X126313000Y-92396000D01*
X121173000Y-95056000D02*
X126313000Y-95056000D01*
X118573000Y-95056000D02*
X118573000Y-93726000D01*
X119903000Y-95056000D02*
X118573000Y-95056000D01*
X121173000Y-95056000D02*
X121173000Y-92396000D01*
%TO.C,U7*%
X165280000Y-134100000D02*
X165280000Y-116080000D01*
X165280000Y-116080000D02*
X154780000Y-116080000D01*
X157780000Y-116140000D02*
X157780000Y-134040000D01*
X159030000Y-116140000D02*
X157780000Y-116140000D01*
X162280000Y-116140000D02*
X161030000Y-116140000D01*
X154780000Y-116080000D02*
X154780000Y-134100000D01*
X154780000Y-134100000D02*
X165280000Y-134100000D01*
X157780000Y-134040000D02*
X162280000Y-134040000D01*
X162280000Y-134040000D02*
X162280000Y-116140000D01*
X159030000Y-116140000D02*
G75*
G03*
X161030000Y-116140000I1000000J0D01*
G01*
%TO.C,J6*%
X193660000Y-51260000D02*
X193660000Y-51966000D01*
X193660000Y-116945000D02*
X193660000Y-118006000D01*
X192660000Y-136795000D02*
X192660000Y-131275000D01*
X198080000Y-136795000D02*
X192660000Y-136795000D01*
X192660000Y-42275000D02*
X192660000Y-47795000D01*
X193660000Y-101705000D02*
X193660000Y-102766000D01*
X193660000Y-96625000D02*
X193660000Y-97686000D01*
X193660000Y-89005000D02*
X193660000Y-90066000D01*
X193660000Y-53445000D02*
X193660000Y-54506000D01*
X193660000Y-73765000D02*
X193660000Y-74826000D01*
X193660000Y-76305000D02*
X193660000Y-77366000D01*
X193660000Y-94085000D02*
X193660000Y-95146000D01*
X193660000Y-129645000D02*
X193660000Y-131275000D01*
X193660000Y-47794000D02*
X193660000Y-49070000D01*
X193660000Y-99165000D02*
X193660000Y-100226000D01*
X193660000Y-61065000D02*
X193660000Y-62126000D01*
X192660000Y-131275000D02*
X193660000Y-131275000D01*
X193660000Y-104245000D02*
X193660000Y-105306000D01*
X193660000Y-68685000D02*
X193660000Y-69746000D01*
X193660000Y-114405000D02*
X193660000Y-115466000D01*
X193660000Y-71225000D02*
X193660000Y-72286000D01*
X192660000Y-47795000D02*
X193660000Y-47795000D01*
X193660000Y-66145000D02*
X193660000Y-67206000D01*
X193660000Y-55985000D02*
X193660000Y-57046000D01*
X193660000Y-106785000D02*
X193660000Y-107846000D01*
X193660000Y-109325000D02*
X193660000Y-110386000D01*
X193660000Y-58525000D02*
X193660000Y-59586000D01*
X193660000Y-86465000D02*
X193660000Y-87526000D01*
X193660000Y-124565000D02*
X193660000Y-125626000D01*
X192480000Y-48470000D02*
X192780000Y-49070000D01*
X193660000Y-127105000D02*
X193660000Y-128166000D01*
X193660000Y-91545000D02*
X193660000Y-92606000D01*
X192780000Y-49070000D02*
X193080000Y-48470000D01*
X193080000Y-48470000D02*
X192480000Y-48470000D01*
X193660000Y-78845000D02*
X193660000Y-79906000D01*
X193660000Y-83925000D02*
X193660000Y-84986000D01*
X193660000Y-63605000D02*
X193660000Y-64666000D01*
X193660000Y-111865000D02*
X193660000Y-112926000D01*
X193660000Y-119485000D02*
X193660000Y-120546000D01*
X198080000Y-42275000D02*
X192660000Y-42275000D01*
X193660000Y-81385000D02*
X193660000Y-82446000D01*
X193660000Y-122025000D02*
X193660000Y-123086000D01*
%TO.C,J1*%
X104135000Y-114310000D02*
X104135000Y-111710000D01*
X101535000Y-121990000D02*
X106735000Y-121990000D01*
X106735000Y-111710000D02*
X106735000Y-121990000D01*
X101535000Y-111710000D02*
X102865000Y-111710000D01*
X101535000Y-114310000D02*
X101535000Y-121990000D01*
X101535000Y-113040000D02*
X101535000Y-111710000D01*
X104135000Y-111710000D02*
X106735000Y-111710000D01*
X101535000Y-114310000D02*
X104135000Y-114310000D01*
%TO.C,C2*%
X68048000Y-61360621D02*
X65967000Y-61360621D01*
X72316000Y-60639621D02*
X65860000Y-60639621D01*
X71225000Y-62960621D02*
X66951000Y-62960621D01*
X68048000Y-61039621D02*
X65899000Y-61039621D01*
X68048000Y-61520621D02*
X66014000Y-61520621D01*
X68048000Y-61079621D02*
X65906000Y-61079621D01*
X72312000Y-60719621D02*
X65864000Y-60719621D01*
X71604000Y-62560621D02*
X70128000Y-62560621D01*
X72209000Y-61360621D02*
X70128000Y-61360621D01*
X68048000Y-61960621D02*
X66192000Y-61960621D01*
X70978000Y-63160621D02*
X67198000Y-63160621D01*
X68048000Y-62680621D02*
X66672000Y-62680621D01*
X68048000Y-62280621D02*
X66372000Y-62280621D01*
X68048000Y-61760621D02*
X66102000Y-61760621D01*
X68048000Y-61560621D02*
X66027000Y-61560621D01*
X70922000Y-63200621D02*
X67254000Y-63200621D01*
X71724000Y-62400621D02*
X70128000Y-62400621D01*
X71242000Y-57334380D02*
X70612000Y-57334380D01*
X68048000Y-62400621D02*
X66452000Y-62400621D01*
X70520000Y-63440621D02*
X67656000Y-63440621D01*
X72303000Y-60839621D02*
X70128000Y-60839621D01*
X72040000Y-61840621D02*
X70128000Y-61840621D01*
X72263000Y-61119621D02*
X70128000Y-61119621D01*
X71132000Y-63040621D02*
X67044000Y-63040621D01*
X68048000Y-62480621D02*
X66510000Y-62480621D01*
X72299000Y-60879621D02*
X70128000Y-60879621D01*
X72174000Y-61480621D02*
X70128000Y-61480621D01*
X72318000Y-60599621D02*
X65858000Y-60599621D01*
X68048000Y-62040621D02*
X66232000Y-62040621D01*
X68048000Y-61680621D02*
X66070000Y-61680621D01*
X72289000Y-60959621D02*
X70128000Y-60959621D01*
X68048000Y-61800621D02*
X66118000Y-61800621D01*
X68048000Y-62760621D02*
X66745000Y-62760621D01*
X68048000Y-62600621D02*
X66604000Y-62600621D01*
X71504000Y-62680621D02*
X70128000Y-62680621D01*
X68048000Y-62360621D02*
X66424000Y-62360621D01*
X72162000Y-61520621D02*
X70128000Y-61520621D01*
X72315000Y-60679621D02*
X65861000Y-60679621D01*
X68048000Y-60799621D02*
X65870000Y-60799621D01*
X72058000Y-61800621D02*
X70128000Y-61800621D01*
X68048000Y-62240621D02*
X66346000Y-62240621D01*
X72229000Y-61280621D02*
X70128000Y-61280621D01*
X71312000Y-62880621D02*
X66864000Y-62880621D01*
X71032000Y-63120621D02*
X67144000Y-63120621D01*
X72255000Y-61159621D02*
X70128000Y-61159621D01*
X72318000Y-60519621D02*
X65858000Y-60519621D01*
X70802000Y-63280621D02*
X67374000Y-63280621D01*
X70350000Y-63520621D02*
X67826000Y-63520621D01*
X68048000Y-61240621D02*
X65938000Y-61240621D01*
X68048000Y-62800621D02*
X66783000Y-62800621D01*
X71922000Y-62080621D02*
X70128000Y-62080621D01*
X69721000Y-63720621D02*
X68455000Y-63720621D01*
X68048000Y-61280621D02*
X65947000Y-61280621D01*
X68048000Y-62520621D02*
X66540000Y-62520621D01*
X68048000Y-62720621D02*
X66708000Y-62720621D01*
X70147000Y-63600621D02*
X68029000Y-63600621D01*
X68048000Y-60879621D02*
X65877000Y-60879621D01*
X68048000Y-62160621D02*
X66298000Y-62160621D01*
X71878000Y-62160621D02*
X70128000Y-62160621D01*
X68048000Y-62320621D02*
X66398000Y-62320621D01*
X69890000Y-63680621D02*
X68286000Y-63680621D01*
X71830000Y-62240621D02*
X70128000Y-62240621D01*
X72186000Y-61440621D02*
X70128000Y-61440621D01*
X68048000Y-60999621D02*
X65893000Y-60999621D01*
X68048000Y-61880621D02*
X66154000Y-61880621D01*
X70253000Y-63560621D02*
X67923000Y-63560621D01*
X72294000Y-60919621D02*
X70128000Y-60919621D01*
X72149000Y-61560621D02*
X70128000Y-61560621D01*
X72074000Y-61760621D02*
X70128000Y-61760621D01*
X71804000Y-62280621D02*
X70128000Y-62280621D01*
X68048000Y-61640621D02*
X66055000Y-61640621D01*
X72238000Y-61240621D02*
X70128000Y-61240621D01*
X68048000Y-61159621D02*
X65921000Y-61159621D01*
X71964000Y-62000621D02*
X70128000Y-62000621D01*
X68048000Y-61199621D02*
X65929000Y-61199621D01*
X68048000Y-61920621D02*
X66172000Y-61920621D01*
X70864000Y-63240621D02*
X67312000Y-63240621D01*
X71538000Y-62640621D02*
X70128000Y-62640621D01*
X68048000Y-62560621D02*
X66572000Y-62560621D01*
X70438000Y-63480621D02*
X67738000Y-63480621D01*
X71778000Y-62320621D02*
X70128000Y-62320621D01*
X69490000Y-63760621D02*
X68686000Y-63760621D01*
X72247000Y-61199621D02*
X70128000Y-61199621D01*
X70669000Y-63360621D02*
X67507000Y-63360621D01*
X71695000Y-62440621D02*
X70128000Y-62440621D01*
X68048000Y-61480621D02*
X66002000Y-61480621D01*
X68048000Y-61320621D02*
X65957000Y-61320621D01*
X70028000Y-63640621D02*
X68148000Y-63640621D01*
X71666000Y-62480621D02*
X70128000Y-62480621D01*
X72022000Y-61880621D02*
X70128000Y-61880621D01*
X68048000Y-60839621D02*
X65873000Y-60839621D01*
X68048000Y-62200621D02*
X66322000Y-62200621D01*
X70738000Y-63320621D02*
X67438000Y-63320621D01*
X68048000Y-60759621D02*
X65866000Y-60759621D01*
X71431000Y-62760621D02*
X70128000Y-62760621D01*
X71636000Y-62520621D02*
X70128000Y-62520621D01*
X71984000Y-61960621D02*
X70128000Y-61960621D01*
X68048000Y-61840621D02*
X66136000Y-61840621D01*
X71180000Y-63000621D02*
X66996000Y-63000621D01*
X72106000Y-61680621D02*
X70128000Y-61680621D01*
X70597000Y-63400621D02*
X67579000Y-63400621D01*
X71393000Y-62800621D02*
X70128000Y-62800621D01*
X68048000Y-61600621D02*
X66041000Y-61600621D01*
X71270000Y-62920621D02*
X66906000Y-62920621D01*
X72277000Y-61039621D02*
X70128000Y-61039621D01*
X68048000Y-60919621D02*
X65882000Y-60919621D01*
X71900000Y-62120621D02*
X70128000Y-62120621D01*
X71353000Y-62840621D02*
X66823000Y-62840621D01*
X72090000Y-61720621D02*
X70128000Y-61720621D01*
X72004000Y-61920621D02*
X70128000Y-61920621D01*
X68048000Y-62000621D02*
X66212000Y-62000621D01*
X72306000Y-60799621D02*
X70128000Y-60799621D01*
X68048000Y-61720621D02*
X66086000Y-61720621D01*
X68048000Y-62440621D02*
X66481000Y-62440621D01*
X68048000Y-60959621D02*
X65887000Y-60959621D01*
X71854000Y-62200621D02*
X70128000Y-62200621D01*
X72318000Y-60559621D02*
X65858000Y-60559621D01*
X68048000Y-61119621D02*
X65913000Y-61119621D01*
X72198000Y-61400621D02*
X70128000Y-61400621D01*
X72310000Y-60759621D02*
X70128000Y-60759621D01*
X72121000Y-61640621D02*
X70128000Y-61640621D01*
X68048000Y-61440621D02*
X65990000Y-61440621D01*
X68048000Y-61400621D02*
X65978000Y-61400621D01*
X71468000Y-62720621D02*
X70128000Y-62720621D01*
X71083000Y-63080621D02*
X67093000Y-63080621D01*
X72270000Y-61079621D02*
X70128000Y-61079621D01*
X71572000Y-62600621D02*
X70128000Y-62600621D01*
X68048000Y-62120621D02*
X66276000Y-62120621D01*
X68048000Y-62640621D02*
X66638000Y-62640621D01*
X71944000Y-62040621D02*
X70128000Y-62040621D01*
X72135000Y-61600621D02*
X70128000Y-61600621D01*
X68048000Y-62080621D02*
X66254000Y-62080621D01*
X72219000Y-61320621D02*
X70128000Y-61320621D01*
X70927000Y-57019380D02*
X70927000Y-57649380D01*
X72283000Y-60999621D02*
X70128000Y-60999621D01*
X71752000Y-62360621D02*
X70128000Y-62360621D01*
X72358000Y-60519621D02*
G75*
G03*
X72358000Y-60519621I-3270000J0D01*
G01*
%TO.C,C5*%
X68048000Y-69872621D02*
X66745000Y-69872621D01*
X72315000Y-67791621D02*
X65861000Y-67791621D01*
X70350000Y-70632621D02*
X67826000Y-70632621D01*
X72198000Y-68512621D02*
X70128000Y-68512621D01*
X68048000Y-67911621D02*
X65870000Y-67911621D01*
X68048000Y-68792621D02*
X66070000Y-68792621D01*
X68048000Y-68071621D02*
X65887000Y-68071621D01*
X71604000Y-69672621D02*
X70128000Y-69672621D01*
X68048000Y-69912621D02*
X66783000Y-69912621D01*
X72303000Y-67951621D02*
X70128000Y-67951621D01*
X68048000Y-69312621D02*
X66322000Y-69312621D01*
X72316000Y-67751621D02*
X65860000Y-67751621D01*
X70802000Y-70392621D02*
X67374000Y-70392621D01*
X70738000Y-70432621D02*
X67438000Y-70432621D01*
X68048000Y-69592621D02*
X66510000Y-69592621D01*
X68048000Y-69712621D02*
X66604000Y-69712621D01*
X68048000Y-67951621D02*
X65873000Y-67951621D01*
X71538000Y-69752621D02*
X70128000Y-69752621D01*
X68048000Y-69232621D02*
X66276000Y-69232621D01*
X68048000Y-69112621D02*
X66212000Y-69112621D01*
X71132000Y-70152621D02*
X67044000Y-70152621D01*
X68048000Y-69192621D02*
X66254000Y-69192621D01*
X68048000Y-69752621D02*
X66638000Y-69752621D01*
X72283000Y-68111621D02*
X70128000Y-68111621D01*
X72058000Y-68912621D02*
X70128000Y-68912621D01*
X71270000Y-70032621D02*
X66906000Y-70032621D01*
X72004000Y-69032621D02*
X70128000Y-69032621D01*
X71984000Y-69072621D02*
X70128000Y-69072621D01*
X72318000Y-67711621D02*
X65858000Y-67711621D01*
X70253000Y-70672621D02*
X67923000Y-70672621D01*
X68048000Y-68912621D02*
X66118000Y-68912621D01*
X69721000Y-70832621D02*
X68455000Y-70832621D01*
X68048000Y-69512621D02*
X66452000Y-69512621D01*
X71083000Y-70192621D02*
X67093000Y-70192621D01*
X69890000Y-70792621D02*
X68286000Y-70792621D01*
X72090000Y-68832621D02*
X70128000Y-68832621D01*
X72312000Y-67831621D02*
X65864000Y-67831621D01*
X68048000Y-68231621D02*
X65913000Y-68231621D01*
X71353000Y-69952621D02*
X66823000Y-69952621D01*
X71468000Y-69832621D02*
X70128000Y-69832621D01*
X71964000Y-69112621D02*
X70128000Y-69112621D01*
X71922000Y-69192621D02*
X70128000Y-69192621D01*
X68048000Y-68952621D02*
X66136000Y-68952621D01*
X72277000Y-68151621D02*
X70128000Y-68151621D01*
X72186000Y-68552621D02*
X70128000Y-68552621D01*
X72299000Y-67991621D02*
X70128000Y-67991621D01*
X68048000Y-67991621D02*
X65877000Y-67991621D01*
X71504000Y-69792621D02*
X70128000Y-69792621D01*
X68048000Y-68832621D02*
X66086000Y-68832621D01*
X68048000Y-67871621D02*
X65866000Y-67871621D01*
X71636000Y-69632621D02*
X70128000Y-69632621D01*
X70864000Y-70352621D02*
X67312000Y-70352621D01*
X72162000Y-68632621D02*
X70128000Y-68632621D01*
X72310000Y-67871621D02*
X70128000Y-67871621D01*
X71312000Y-69992621D02*
X66864000Y-69992621D01*
X70438000Y-70592621D02*
X67738000Y-70592621D01*
X72263000Y-68231621D02*
X70128000Y-68231621D01*
X72294000Y-68031621D02*
X70128000Y-68031621D01*
X72238000Y-68352621D02*
X70128000Y-68352621D01*
X70978000Y-70272621D02*
X67198000Y-70272621D01*
X68048000Y-69032621D02*
X66172000Y-69032621D01*
X72289000Y-68071621D02*
X70128000Y-68071621D01*
X72149000Y-68672621D02*
X70128000Y-68672621D01*
X68048000Y-68632621D02*
X66014000Y-68632621D01*
X72074000Y-68872621D02*
X70128000Y-68872621D01*
X71752000Y-69472621D02*
X70128000Y-69472621D01*
X68048000Y-68191621D02*
X65906000Y-68191621D01*
X72209000Y-68472621D02*
X70128000Y-68472621D01*
X71944000Y-69152621D02*
X70128000Y-69152621D01*
X70520000Y-70552621D02*
X67656000Y-70552621D01*
X71724000Y-69512621D02*
X70128000Y-69512621D01*
X71393000Y-69912621D02*
X70128000Y-69912621D01*
X72318000Y-67671621D02*
X65858000Y-67671621D01*
X71032000Y-70232621D02*
X67144000Y-70232621D01*
X70922000Y-70312621D02*
X67254000Y-70312621D01*
X72174000Y-68592621D02*
X70128000Y-68592621D01*
X72135000Y-68712621D02*
X70128000Y-68712621D01*
X72106000Y-68792621D02*
X70128000Y-68792621D01*
X72022000Y-68992621D02*
X70128000Y-68992621D01*
X68048000Y-68872621D02*
X66102000Y-68872621D01*
X68048000Y-69152621D02*
X66232000Y-69152621D01*
X71666000Y-69592621D02*
X70128000Y-69592621D01*
X68048000Y-68432621D02*
X65957000Y-68432621D01*
X68048000Y-68712621D02*
X66041000Y-68712621D01*
X68048000Y-68592621D02*
X66002000Y-68592621D01*
X68048000Y-68031621D02*
X65882000Y-68031621D01*
X72040000Y-68952621D02*
X70128000Y-68952621D01*
X71572000Y-69712621D02*
X70128000Y-69712621D01*
X68048000Y-69552621D02*
X66481000Y-69552621D01*
X70669000Y-70472621D02*
X67507000Y-70472621D01*
X70927000Y-64131380D02*
X70927000Y-64761380D01*
X72219000Y-68432621D02*
X70128000Y-68432621D01*
X70147000Y-70712621D02*
X68029000Y-70712621D01*
X72229000Y-68392621D02*
X70128000Y-68392621D01*
X68048000Y-69272621D02*
X66298000Y-69272621D01*
X68048000Y-68111621D02*
X65893000Y-68111621D01*
X68048000Y-69632621D02*
X66540000Y-69632621D01*
X68048000Y-69832621D02*
X66708000Y-69832621D01*
X71180000Y-70112621D02*
X66996000Y-70112621D01*
X68048000Y-68392621D02*
X65947000Y-68392621D01*
X68048000Y-68552621D02*
X65990000Y-68552621D01*
X72255000Y-68271621D02*
X70128000Y-68271621D01*
X68048000Y-69432621D02*
X66398000Y-69432621D01*
X72306000Y-67911621D02*
X70128000Y-67911621D01*
X71695000Y-69552621D02*
X70128000Y-69552621D01*
X68048000Y-68672621D02*
X66027000Y-68672621D01*
X72270000Y-68191621D02*
X70128000Y-68191621D01*
X68048000Y-69792621D02*
X66672000Y-69792621D01*
X70028000Y-70752621D02*
X68148000Y-70752621D01*
X72247000Y-68311621D02*
X70128000Y-68311621D01*
X68048000Y-69472621D02*
X66424000Y-69472621D01*
X71804000Y-69392621D02*
X70128000Y-69392621D01*
X68048000Y-69392621D02*
X66372000Y-69392621D01*
X68048000Y-68311621D02*
X65929000Y-68311621D01*
X72318000Y-67631621D02*
X65858000Y-67631621D01*
X71431000Y-69872621D02*
X70128000Y-69872621D01*
X68048000Y-69672621D02*
X66572000Y-69672621D01*
X68048000Y-68752621D02*
X66055000Y-68752621D01*
X68048000Y-68151621D02*
X65899000Y-68151621D01*
X68048000Y-68472621D02*
X65967000Y-68472621D01*
X71225000Y-70072621D02*
X66951000Y-70072621D01*
X68048000Y-68512621D02*
X65978000Y-68512621D01*
X68048000Y-69072621D02*
X66192000Y-69072621D01*
X68048000Y-68271621D02*
X65921000Y-68271621D01*
X71854000Y-69312621D02*
X70128000Y-69312621D01*
X72121000Y-68752621D02*
X70128000Y-68752621D01*
X71900000Y-69232621D02*
X70128000Y-69232621D01*
X68048000Y-68992621D02*
X66154000Y-68992621D01*
X71878000Y-69272621D02*
X70128000Y-69272621D01*
X68048000Y-69352621D02*
X66346000Y-69352621D01*
X71242000Y-64446380D02*
X70612000Y-64446380D01*
X69490000Y-70872621D02*
X68686000Y-70872621D01*
X71830000Y-69352621D02*
X70128000Y-69352621D01*
X70597000Y-70512621D02*
X67579000Y-70512621D01*
X71778000Y-69432621D02*
X70128000Y-69432621D01*
X68048000Y-68352621D02*
X65938000Y-68352621D01*
X72358000Y-67631621D02*
G75*
G03*
X72358000Y-67631621I-3270000J0D01*
G01*
%TO.C,U6*%
X146330000Y-116140000D02*
X145080000Y-116140000D01*
X149580000Y-116140000D02*
X148330000Y-116140000D01*
X149580000Y-134040000D02*
X149580000Y-116140000D01*
X142080000Y-116080000D02*
X142080000Y-134100000D01*
X152580000Y-116080000D02*
X142080000Y-116080000D01*
X145080000Y-134040000D02*
X149580000Y-134040000D01*
X145080000Y-116140000D02*
X145080000Y-134040000D01*
X152580000Y-134100000D02*
X152580000Y-116080000D01*
X142080000Y-134100000D02*
X152580000Y-134100000D01*
X146330000Y-116140000D02*
G75*
G03*
X148330000Y-116140000I1000000J0D01*
G01*
%TO.C,RN1*%
X48765000Y-103675000D02*
X51565000Y-103675000D01*
X51565000Y-83185000D02*
X48765000Y-83185000D01*
X51565000Y-80475000D02*
X48765000Y-80475000D01*
X48765000Y-80475000D02*
X48765000Y-103675000D01*
X51565000Y-103675000D02*
X51565000Y-80475000D01*
%TO.C,C16*%
X139764000Y-84940000D02*
X139764000Y-82700000D01*
X139764000Y-82700000D02*
X132524000Y-82700000D01*
X132524000Y-84940000D02*
X132524000Y-82700000D01*
X139764000Y-84940000D02*
X132524000Y-84940000D01*
%TO.C,C7*%
X186238349Y-42338000D02*
X186238349Y-45315000D01*
X189598349Y-45822000D02*
X189598349Y-46888000D01*
X186318349Y-47395000D02*
X186318349Y-50357000D01*
X187838349Y-42990000D02*
X187838349Y-49720000D01*
X186958349Y-47395000D02*
X186958349Y-50176000D01*
X186157349Y-47395000D02*
X186157349Y-50385000D01*
X189198349Y-44542000D02*
X189198349Y-48168000D01*
X189318349Y-44803000D02*
X189318349Y-47907000D01*
X185517349Y-42275000D02*
X185517349Y-50435000D01*
X186117349Y-42318000D02*
X186117349Y-45315000D01*
X187798349Y-47395000D02*
X187798349Y-49747000D01*
X186398349Y-47395000D02*
X186398349Y-50340000D01*
X188398349Y-43448000D02*
X188398349Y-49262000D01*
X185877349Y-42290000D02*
X185877349Y-45315000D01*
X187438349Y-42749000D02*
X187438349Y-45315000D01*
X188118349Y-43199000D02*
X188118349Y-49511000D01*
X188758349Y-43850000D02*
X188758349Y-48860000D01*
X188558349Y-43614000D02*
X188558349Y-49096000D01*
X185877349Y-47395000D02*
X185877349Y-50420000D01*
X186918349Y-47395000D02*
X186918349Y-50190000D01*
X189438349Y-45126000D02*
X189438349Y-47584000D01*
X186278349Y-47395000D02*
X186278349Y-50365000D01*
X186838349Y-47395000D02*
X186838349Y-50218000D01*
X186358349Y-42361000D02*
X186358349Y-45315000D01*
X185997349Y-42303000D02*
X185997349Y-45315000D01*
X181507651Y-43640000D02*
X181507651Y-44440000D01*
X187678349Y-47395000D02*
X187678349Y-49824000D01*
X188718349Y-43799000D02*
X188718349Y-48911000D01*
X188318349Y-43372000D02*
X188318349Y-49338000D01*
X187078349Y-42581000D02*
X187078349Y-45315000D01*
X188638349Y-43704000D02*
X188638349Y-49006000D01*
X186798349Y-42478000D02*
X186798349Y-45315000D01*
X185757349Y-47395000D02*
X185757349Y-50429000D01*
X187078349Y-47395000D02*
X187078349Y-50129000D01*
X186438349Y-42379000D02*
X186438349Y-45315000D01*
X186398349Y-42370000D02*
X186398349Y-45315000D01*
X188798349Y-43901000D02*
X188798349Y-48809000D01*
X188998349Y-44189000D02*
X188998349Y-48521000D01*
X187198349Y-42633000D02*
X187198349Y-45315000D01*
X186598349Y-42419000D02*
X186598349Y-45315000D01*
X186798349Y-47395000D02*
X186798349Y-50232000D01*
X186998349Y-47395000D02*
X186998349Y-50160000D01*
X187478349Y-42771000D02*
X187478349Y-45315000D01*
X185557349Y-42275000D02*
X185557349Y-50435000D01*
X185837349Y-47395000D02*
X185837349Y-50423000D01*
X186638349Y-42430000D02*
X186638349Y-45315000D01*
X186678349Y-47395000D02*
X186678349Y-50269000D01*
X188878349Y-44010000D02*
X188878349Y-48700000D01*
X188038349Y-43135000D02*
X188038349Y-49575000D01*
X187518349Y-42793000D02*
X187518349Y-45315000D01*
X187718349Y-47395000D02*
X187718349Y-49799000D01*
X189078349Y-44321000D02*
X189078349Y-48389000D01*
X186478349Y-47395000D02*
X186478349Y-50322000D01*
X187438349Y-47395000D02*
X187438349Y-49961000D01*
X188198349Y-43265000D02*
X188198349Y-49445000D01*
X187398349Y-42728000D02*
X187398349Y-45315000D01*
X187238349Y-47395000D02*
X187238349Y-50059000D01*
X186558349Y-47395000D02*
X186558349Y-50302000D01*
X189518349Y-45407000D02*
X189518349Y-47303000D01*
X187278349Y-42669000D02*
X187278349Y-45315000D01*
X187238349Y-42651000D02*
X187238349Y-45315000D01*
X187518349Y-47395000D02*
X187518349Y-49917000D01*
X187598349Y-47395000D02*
X187598349Y-49872000D01*
X187118349Y-47395000D02*
X187118349Y-50112000D01*
X189278349Y-44710000D02*
X189278349Y-48000000D01*
X186998349Y-42550000D02*
X186998349Y-45315000D01*
X185717349Y-42279000D02*
X185717349Y-50431000D01*
X185957349Y-47395000D02*
X185957349Y-50412000D01*
X185917349Y-47395000D02*
X185917349Y-50416000D01*
X188598349Y-43658000D02*
X188598349Y-49052000D01*
X187198349Y-47395000D02*
X187198349Y-50077000D01*
X187358349Y-42708000D02*
X187358349Y-45315000D01*
X186558349Y-42408000D02*
X186558349Y-45315000D01*
X185997349Y-47395000D02*
X185997349Y-50407000D01*
X187478349Y-47395000D02*
X187478349Y-49939000D01*
X188358349Y-43410000D02*
X188358349Y-49300000D01*
X186758349Y-42466000D02*
X186758349Y-45315000D01*
X189398349Y-45009000D02*
X189398349Y-47701000D01*
X187998349Y-43105000D02*
X187998349Y-49605000D01*
X186037349Y-42307000D02*
X186037349Y-45315000D01*
X186718349Y-47395000D02*
X186718349Y-50257000D01*
X188958349Y-44127000D02*
X188958349Y-48583000D01*
X188078349Y-43166000D02*
X188078349Y-49544000D01*
X186478349Y-42388000D02*
X186478349Y-45315000D01*
X181107651Y-44040000D02*
X181907651Y-44040000D01*
X187318349Y-47395000D02*
X187318349Y-50021000D01*
X189358349Y-44902000D02*
X189358349Y-47808000D01*
X186678349Y-42441000D02*
X186678349Y-45315000D01*
X187118349Y-42598000D02*
X187118349Y-45315000D01*
X187758349Y-47395000D02*
X187758349Y-49773000D01*
X186838349Y-42492000D02*
X186838349Y-45315000D01*
X186037349Y-47395000D02*
X186037349Y-50403000D01*
X186718349Y-42453000D02*
X186718349Y-45315000D01*
X187918349Y-43046000D02*
X187918349Y-49664000D01*
X187558349Y-47395000D02*
X187558349Y-49895000D01*
X186878349Y-47395000D02*
X186878349Y-50205000D01*
X186117349Y-47395000D02*
X186117349Y-50392000D01*
X185917349Y-42294000D02*
X185917349Y-45315000D01*
X185597349Y-42275000D02*
X185597349Y-50435000D01*
X187318349Y-42689000D02*
X187318349Y-45315000D01*
X187358349Y-47395000D02*
X187358349Y-50002000D01*
X189118349Y-44391000D02*
X189118349Y-48319000D01*
X186878349Y-42505000D02*
X186878349Y-45315000D01*
X187558349Y-42815000D02*
X187558349Y-45315000D01*
X187158349Y-42615000D02*
X187158349Y-45315000D01*
X187038349Y-42565000D02*
X187038349Y-45315000D01*
X187638349Y-42862000D02*
X187638349Y-45315000D01*
X186318349Y-42353000D02*
X186318349Y-45315000D01*
X188838349Y-43955000D02*
X188838349Y-48755000D01*
X186077349Y-42313000D02*
X186077349Y-45315000D01*
X189038349Y-44253000D02*
X189038349Y-48457000D01*
X187958349Y-43075000D02*
X187958349Y-49635000D01*
X185797349Y-47395000D02*
X185797349Y-50426000D01*
X186958349Y-42534000D02*
X186958349Y-45315000D01*
X186518349Y-47395000D02*
X186518349Y-50312000D01*
X187678349Y-42886000D02*
X187678349Y-45315000D01*
X186197349Y-47395000D02*
X186197349Y-50379000D01*
X187158349Y-47395000D02*
X187158349Y-50095000D01*
X187038349Y-47395000D02*
X187038349Y-50145000D01*
X188918349Y-44068000D02*
X188918349Y-48642000D01*
X185797349Y-42284000D02*
X185797349Y-45315000D01*
X186598349Y-47395000D02*
X186598349Y-50291000D01*
X187638349Y-47395000D02*
X187638349Y-49848000D01*
X186758349Y-47395000D02*
X186758349Y-50244000D01*
X185757349Y-42281000D02*
X185757349Y-45315000D01*
X188278349Y-43336000D02*
X188278349Y-49374000D01*
X186358349Y-47395000D02*
X186358349Y-50349000D01*
X188478349Y-43529000D02*
X188478349Y-49181000D01*
X188158349Y-43231000D02*
X188158349Y-49479000D01*
X186918349Y-42520000D02*
X186918349Y-45315000D01*
X187598349Y-42838000D02*
X187598349Y-45315000D01*
X186157349Y-42325000D02*
X186157349Y-45315000D01*
X186278349Y-42345000D02*
X186278349Y-45315000D01*
X185957349Y-42298000D02*
X185957349Y-45315000D01*
X187278349Y-47395000D02*
X187278349Y-50041000D01*
X186438349Y-47395000D02*
X186438349Y-50331000D01*
X187798349Y-42963000D02*
X187798349Y-45315000D01*
X188238349Y-43300000D02*
X188238349Y-49410000D01*
X185837349Y-42287000D02*
X185837349Y-45315000D01*
X186518349Y-42398000D02*
X186518349Y-45315000D01*
X189478349Y-45257000D02*
X189478349Y-47453000D01*
X186197349Y-42331000D02*
X186197349Y-45315000D01*
X186638349Y-47395000D02*
X186638349Y-50280000D01*
X187758349Y-42937000D02*
X187758349Y-45315000D01*
X188518349Y-43571000D02*
X188518349Y-49139000D01*
X188678349Y-43751000D02*
X188678349Y-48959000D01*
X185677349Y-42278000D02*
X185677349Y-50432000D01*
X186077349Y-47395000D02*
X186077349Y-50397000D01*
X187398349Y-47395000D02*
X187398349Y-49982000D01*
X185637349Y-42276000D02*
X185637349Y-50434000D01*
X189238349Y-44624000D02*
X189238349Y-48086000D01*
X188438349Y-43488000D02*
X188438349Y-49222000D01*
X189158349Y-44465000D02*
X189158349Y-48245000D01*
X187878349Y-43017000D02*
X187878349Y-49693000D01*
X189558349Y-45587000D02*
X189558349Y-47123000D01*
X186238349Y-47395000D02*
X186238349Y-50372000D01*
X187718349Y-42911000D02*
X187718349Y-45315000D01*
X189637349Y-46355000D02*
G75*
G03*
X189637349Y-46355000I-4120000J0D01*
G01*
%TO.C,J4*%
X53396656Y-68415000D02*
X53829669Y-68165000D01*
X53829669Y-68165000D02*
X53829669Y-68665000D01*
X52935331Y-47390000D02*
X52935331Y-78360000D01*
X53829669Y-68665000D02*
X53396656Y-68415000D01*
X38395331Y-47390000D02*
X52935331Y-47390000D01*
X52935331Y-78360000D02*
X38395331Y-78360000D01*
%TO.C,Q1*%
X67415000Y-113970000D02*
X71015000Y-113970000D01*
X69215000Y-109519999D02*
G75*
G03*
X67376522Y-113958478I0J-2600001D01*
G01*
X71053478Y-113958478D02*
G75*
G03*
X69215000Y-109520000I-1838478J1838478D01*
G01*
%TO.C,R7*%
X53975000Y-105710000D02*
X53975000Y-105090000D01*
X54895000Y-106630000D02*
G75*
G03*
X54895000Y-106630000I-920000J0D01*
G01*
%TO.C,C20*%
X145224000Y-115928000D02*
X145224000Y-113688000D01*
X152464000Y-115928000D02*
X145224000Y-115928000D01*
X152464000Y-113688000D02*
X145224000Y-113688000D01*
X152464000Y-115928000D02*
X152464000Y-113688000D01*
%TO.C,U9*%
X55085000Y-102745000D02*
X55085000Y-120765000D01*
X55085000Y-120765000D02*
X65585000Y-120765000D01*
X62585000Y-102805000D02*
X61335000Y-102805000D01*
X58085000Y-120705000D02*
X62585000Y-120705000D01*
X58085000Y-102805000D02*
X58085000Y-120705000D01*
X62585000Y-120705000D02*
X62585000Y-102805000D01*
X65585000Y-120765000D02*
X65585000Y-102745000D01*
X65585000Y-102745000D02*
X55085000Y-102745000D01*
X59335000Y-102805000D02*
X58085000Y-102805000D01*
X59335000Y-102805000D02*
G75*
G03*
X61335000Y-102805000I1000000J0D01*
G01*
%TO.C,R9*%
X67772000Y-101600000D02*
X68392000Y-101600000D01*
X67772000Y-101600000D02*
G75*
G03*
X67772000Y-101600000I-920000J0D01*
G01*
%TO.C,U4*%
X104112500Y-40540000D02*
X104112500Y-42400000D01*
X103092500Y-52470000D02*
X103092500Y-49930000D01*
X104112500Y-47300000D02*
X104112500Y-91140000D01*
X127212500Y-40540000D02*
X104112500Y-40540000D01*
X104112500Y-91140000D02*
X127212500Y-91140000D01*
X127212500Y-91140000D02*
X127212500Y-40540000D01*
X106392500Y-40540000D02*
X106392500Y-42800000D01*
X107392500Y-44850000D02*
G75*
G03*
X107392500Y-44850000I-2550000J0D01*
G01*
X105742500Y-44850000D02*
G75*
G03*
X105742500Y-44850000I-900000J0D01*
G01*
%TO.C,C12*%
X82360000Y-64920000D02*
X75120000Y-64920000D01*
X82360000Y-67160000D02*
X75120000Y-67160000D01*
X75120000Y-67160000D02*
X75120000Y-64920000D01*
X82360000Y-67160000D02*
X82360000Y-64920000D01*
%TO.C,R11*%
X44038000Y-123952000D02*
X43418000Y-123952000D01*
X45878000Y-123952000D02*
G75*
G03*
X45878000Y-123952000I-920000J0D01*
G01*
%TO.C,J2*%
X100880000Y-81890000D02*
X100880000Y-69130000D01*
X102210000Y-84490000D02*
X100880000Y-84490000D01*
X103540000Y-69130000D02*
X100880000Y-69130000D01*
X103540000Y-81890000D02*
X103540000Y-69130000D01*
X103540000Y-81890000D02*
X100880000Y-81890000D01*
X100880000Y-84490000D02*
X100880000Y-83160000D01*
%TO.C,C3*%
X49680000Y-133668000D02*
X49680000Y-126428000D01*
X49680000Y-126428000D02*
X51920000Y-126428000D01*
X51920000Y-133668000D02*
X51920000Y-126428000D01*
X49680000Y-133668000D02*
X51920000Y-133668000D01*
%TO.C,C17*%
X157376000Y-72200000D02*
X157376000Y-64960000D01*
X157376000Y-64960000D02*
X159616000Y-64960000D01*
X157376000Y-72200000D02*
X159616000Y-72200000D01*
X159616000Y-72200000D02*
X159616000Y-64960000D01*
%TO.C,LED1*%
X38118000Y-127508000D02*
X38118000Y-130008000D01*
X48118000Y-125008000D02*
X38118000Y-125008000D01*
X48118000Y-130008000D02*
X48118000Y-125008000D01*
X38118000Y-125008000D02*
X38118000Y-127508000D01*
X38118000Y-130008000D02*
X48118000Y-130008000D01*
%TO.C,C6*%
X45148000Y-106576000D02*
X52388000Y-106576000D01*
X52388000Y-106576000D02*
X52388000Y-108816000D01*
X45148000Y-108816000D02*
X52388000Y-108816000D01*
X45148000Y-106576000D02*
X45148000Y-108816000D01*
%TO.C,C18*%
X152464000Y-82700000D02*
X145224000Y-82700000D01*
X145224000Y-84940000D02*
X145224000Y-82700000D01*
X152464000Y-84940000D02*
X145224000Y-84940000D01*
X152464000Y-84940000D02*
X152464000Y-82700000D01*
%TO.C,X2*%
X113045000Y-127290000D02*
X124445000Y-127290000D01*
X124445000Y-106390000D02*
X112295000Y-106390000D01*
X125195000Y-126540000D02*
X125195000Y-107140000D01*
X112295000Y-106390000D02*
X112295000Y-126540000D01*
X112295000Y-126540000D02*
G75*
G03*
X113045000Y-127290000I750000J0D01*
G01*
X125195000Y-107140000D02*
G75*
G03*
X124445000Y-106390000I-750000J0D01*
G01*
X124445000Y-127290000D02*
G75*
G03*
X125195000Y-126540000I0J750000D01*
G01*
%TO.C,U12*%
X62585000Y-73605000D02*
X61335000Y-73605000D01*
X58085000Y-99125000D02*
X62585000Y-99125000D01*
X65585000Y-99185000D02*
X65585000Y-73545000D01*
X59335000Y-73605000D02*
X58085000Y-73605000D01*
X55085000Y-73545000D02*
X55085000Y-99185000D01*
X65585000Y-73545000D02*
X55085000Y-73545000D01*
X62585000Y-99125000D02*
X62585000Y-73605000D01*
X58085000Y-73605000D02*
X58085000Y-99125000D01*
X55085000Y-99185000D02*
X65585000Y-99185000D01*
X59335000Y-73605000D02*
G75*
G03*
X61335000Y-73605000I1000000J0D01*
G01*
%TO.C,U15*%
X59335000Y-49460000D02*
X58085000Y-49460000D01*
X58085000Y-69900000D02*
X62585000Y-69900000D01*
X55085000Y-69960000D02*
X65585000Y-69960000D01*
X55085000Y-49400000D02*
X55085000Y-69960000D01*
X58085000Y-49460000D02*
X58085000Y-69900000D01*
X65585000Y-69960000D02*
X65585000Y-49400000D01*
X65585000Y-49400000D02*
X55085000Y-49400000D01*
X62585000Y-49460000D02*
X61335000Y-49460000D01*
X62585000Y-69900000D02*
X62585000Y-49460000D01*
X59335000Y-49460000D02*
G75*
G03*
X61335000Y-49460000I1000000J0D01*
G01*
%TO.C,R10*%
X47910000Y-123952000D02*
X48530000Y-123952000D01*
X47910000Y-123952000D02*
G75*
G03*
X47910000Y-123952000I-920000J0D01*
G01*
D14*
%TO.C,J5*%
X176558000Y-139578000D02*
X176558000Y-139078000D01*
X176558000Y-124978000D02*
X176558000Y-125478000D01*
X167358000Y-139578000D02*
X167858000Y-139578000D01*
X167358000Y-139578000D02*
X167358000Y-139078000D01*
X167358000Y-124978000D02*
X167358000Y-125478000D01*
X176558000Y-124978000D02*
X176058000Y-124978000D01*
X176558000Y-139578000D02*
X176058000Y-139578000D01*
X176558000Y-132278000D02*
X176558000Y-133278000D01*
X167358000Y-132278000D02*
X167358000Y-133278000D01*
X173158000Y-130578000D02*
X170758000Y-130578000D01*
X167358000Y-124978000D02*
X167858000Y-124978000D01*
D13*
%TO.C,U1*%
X177965000Y-44335000D02*
X159845000Y-44335000D01*
X159845000Y-44335000D02*
X159845000Y-95375000D01*
X162845000Y-44395000D02*
X162845000Y-95315000D01*
X174965000Y-44395000D02*
X169905000Y-44395000D01*
X162845000Y-95315000D02*
X174965000Y-95315000D01*
X159845000Y-95375000D02*
X177965000Y-95375000D01*
X174965000Y-95315000D02*
X174965000Y-44395000D01*
X167905000Y-44395000D02*
X162845000Y-44395000D01*
X177965000Y-95375000D02*
X177965000Y-44335000D01*
X167905000Y-44395000D02*
G75*
G03*
X169905000Y-44395000I1000000J0D01*
G01*
%TO.C,C15*%
X139764000Y-44300000D02*
X139764000Y-42060000D01*
X132524000Y-44300000D02*
X132524000Y-42060000D01*
X139764000Y-44300000D02*
X132524000Y-44300000D01*
X139764000Y-42060000D02*
X132524000Y-42060000D01*
%TO.C,SW1*%
X36980000Y-87806000D02*
X38180000Y-87806000D01*
X36980000Y-83625000D02*
X36980000Y-85265000D01*
X36980000Y-98865000D02*
X38180000Y-98865000D01*
X36980000Y-85265000D02*
X38180000Y-85265000D01*
X36980000Y-88706000D02*
X38180000Y-88706000D01*
X36980000Y-91246000D02*
X38180000Y-91246000D01*
X37940000Y-81785000D02*
X39324000Y-81785000D01*
X36980000Y-101405000D02*
X38180000Y-101405000D01*
X38180000Y-104646000D02*
X48080000Y-104646000D01*
X36980000Y-92886000D02*
X38180000Y-92886000D01*
X38180000Y-83625000D02*
X38180000Y-85265000D01*
X38180000Y-86165000D02*
X38180000Y-87806000D01*
X36980000Y-100505000D02*
X38180000Y-100505000D01*
X38180000Y-101405000D02*
X38180000Y-103045000D01*
X36980000Y-91246000D02*
X36980000Y-92886000D01*
X36980000Y-93785000D02*
X38180000Y-93785000D01*
X38180000Y-88706000D02*
X38180000Y-90345000D01*
X38180000Y-82025000D02*
X48080000Y-82025000D01*
X38180000Y-96325000D02*
X38180000Y-97965000D01*
X38180000Y-91246000D02*
X38180000Y-92886000D01*
X36980000Y-86165000D02*
X38180000Y-86165000D01*
X36980000Y-98865000D02*
X36980000Y-100505000D01*
X36980000Y-86165000D02*
X36980000Y-87806000D01*
X36980000Y-83625000D02*
X38180000Y-83625000D01*
X36980000Y-96325000D02*
X36980000Y-97965000D01*
X37940000Y-81785000D02*
X37940000Y-83168000D01*
X36980000Y-93785000D02*
X36980000Y-95425000D01*
X36980000Y-90345000D02*
X38180000Y-90345000D01*
X36980000Y-88706000D02*
X36980000Y-90345000D01*
X38180000Y-82025000D02*
X38180000Y-104646000D01*
X36980000Y-95425000D02*
X38180000Y-95425000D01*
X38180000Y-98865000D02*
X38180000Y-100505000D01*
X36980000Y-101405000D02*
X36980000Y-103045000D01*
X38180000Y-93785000D02*
X38180000Y-95425000D01*
X36980000Y-97965000D02*
X38180000Y-97965000D01*
X48080000Y-82025000D02*
X48080000Y-104646000D01*
X36980000Y-96325000D02*
X38180000Y-96325000D01*
X36980000Y-103045000D02*
X38180000Y-103045000D01*
%TO.C,X1*%
X159730000Y-109320000D02*
X179880000Y-109320000D01*
X180630000Y-108570000D02*
X180630000Y-97170000D01*
X179880000Y-96420000D02*
X160480000Y-96420000D01*
X159730000Y-97170000D02*
X159730000Y-109320000D01*
X180630000Y-97170000D02*
G75*
G03*
X179880000Y-96420000I-750000J0D01*
G01*
X179880000Y-109320000D02*
G75*
G03*
X180630000Y-108570000I0J750000D01*
G01*
X160480000Y-96420000D02*
G75*
G03*
X159730000Y-97170000I0J-750000D01*
G01*
%TO.C,R12*%
X48418000Y-136144000D02*
X49038000Y-136144000D01*
X48418000Y-136144000D02*
G75*
G03*
X48418000Y-136144000I-920000J0D01*
G01*
%TO.C,C13*%
X100520000Y-109116000D02*
X100520000Y-111356000D01*
X100520000Y-111356000D02*
X107760000Y-111356000D01*
X107760000Y-109116000D02*
X107760000Y-111356000D01*
X100520000Y-109116000D02*
X107760000Y-109116000D01*
D14*
%TO.C,SW2*%
X39915620Y-122070000D02*
X39915620Y-121570000D01*
X49015620Y-115070000D02*
X49015620Y-116070000D01*
X39915620Y-122070000D02*
X40415620Y-122070000D01*
X49015620Y-122070000D02*
X49015620Y-121570000D01*
X39915620Y-109070000D02*
X40415620Y-109070000D01*
X49015620Y-122070000D02*
X48515620Y-122070000D01*
X49015620Y-109070000D02*
X49015620Y-109570000D01*
X39915620Y-116070000D02*
X39915620Y-115070000D01*
X49015620Y-109070000D02*
X48515620Y-109070000D01*
X39915620Y-109070000D02*
X39915620Y-109570000D01*
D13*
%TO.C,R6*%
X46944000Y-105664000D02*
X47564000Y-105664000D01*
X46944000Y-105664000D02*
G75*
G03*
X46944000Y-105664000I-920000J0D01*
G01*
%TO.C,C9*%
X65596000Y-71016000D02*
X58356000Y-71016000D01*
X65596000Y-73256000D02*
X58356000Y-73256000D01*
X58356000Y-73256000D02*
X58356000Y-71016000D01*
X65596000Y-73256000D02*
X65596000Y-71016000D01*
%TO.C,R2*%
X157180000Y-83820000D02*
X157800000Y-83820000D01*
X157180000Y-83820000D02*
G75*
G03*
X157180000Y-83820000I-920000J0D01*
G01*
%TO.C,U14*%
X82375000Y-95375000D02*
X100495000Y-95375000D01*
X82375000Y-44335000D02*
X82375000Y-95375000D01*
X100495000Y-44335000D02*
X82375000Y-44335000D01*
X97495000Y-44395000D02*
X92435000Y-44395000D01*
X100495000Y-95375000D02*
X100495000Y-44335000D01*
X85375000Y-95315000D02*
X97495000Y-95315000D01*
X85375000Y-44395000D02*
X85375000Y-95315000D01*
X97495000Y-95315000D02*
X97495000Y-44395000D01*
X90435000Y-44395000D02*
X85375000Y-44395000D01*
X90435000Y-44395000D02*
G75*
G03*
X92435000Y-44395000I1000000J0D01*
G01*
%TO.C,C14*%
X126896000Y-51880000D02*
X129136000Y-51880000D01*
X126896000Y-51880000D02*
X126896000Y-44640000D01*
X129136000Y-51880000D02*
X129136000Y-44640000D01*
X126896000Y-44640000D02*
X129136000Y-44640000D01*
%TO.C,U3*%
X129380000Y-44315000D02*
X129380000Y-80115000D01*
X136880000Y-44375000D02*
X135630000Y-44375000D01*
X129380000Y-80115000D02*
X139880000Y-80115000D01*
X132380000Y-80055000D02*
X136880000Y-80055000D01*
X136880000Y-80055000D02*
X136880000Y-44375000D01*
X139880000Y-44315000D02*
X129380000Y-44315000D01*
X133630000Y-44375000D02*
X132380000Y-44375000D01*
X139880000Y-80115000D02*
X139880000Y-44315000D01*
X132380000Y-44375000D02*
X132380000Y-80055000D01*
X133630000Y-44375000D02*
G75*
G03*
X135630000Y-44375000I1000000J0D01*
G01*
%TO.C,U8*%
X133630000Y-116140000D02*
X132380000Y-116140000D01*
X139880000Y-116080000D02*
X129380000Y-116080000D01*
X132380000Y-134040000D02*
X136880000Y-134040000D01*
X129380000Y-116080000D02*
X129380000Y-134100000D01*
X132380000Y-116140000D02*
X132380000Y-134040000D01*
X136880000Y-116140000D02*
X135630000Y-116140000D01*
X136880000Y-134040000D02*
X136880000Y-116140000D01*
X139880000Y-134100000D02*
X139880000Y-116080000D01*
X129380000Y-134100000D02*
X139880000Y-134100000D01*
X133630000Y-116140000D02*
G75*
G03*
X135630000Y-116140000I1000000J0D01*
G01*
%TO.C,R5*%
X53848000Y-126700000D02*
X53848000Y-127320000D01*
X54768000Y-125780000D02*
G75*
G03*
X54768000Y-125780000I-920000J0D01*
G01*
%TO.C,U10*%
X55085000Y-134750000D02*
X65585000Y-134750000D01*
X62585000Y-134690000D02*
X62585000Y-124410000D01*
X65585000Y-134750000D02*
X65585000Y-124350000D01*
X62585000Y-124410000D02*
X61335000Y-124410000D01*
X58085000Y-134690000D02*
X62585000Y-134690000D01*
X55085000Y-124350000D02*
X55085000Y-134750000D01*
X59335000Y-124410000D02*
X58085000Y-124410000D01*
X58085000Y-124410000D02*
X58085000Y-134690000D01*
X65585000Y-124350000D02*
X55085000Y-124350000D01*
X59335000Y-124410000D02*
G75*
G03*
X61335000Y-124410000I1000000J0D01*
G01*
%TO.C,R8*%
X53848000Y-131872000D02*
X53848000Y-131252000D01*
X54768000Y-132792000D02*
G75*
G03*
X54768000Y-132792000I-920000J0D01*
G01*
%TO.C,R1*%
X79710000Y-55880000D02*
X80330000Y-55880000D01*
X79710000Y-55880000D02*
G75*
G03*
X79710000Y-55880000I-920000J0D01*
G01*
%TO.C,U13*%
X100495000Y-134725000D02*
X100495000Y-98925000D01*
X100495000Y-98925000D02*
X82375000Y-98925000D01*
X85375000Y-134665000D02*
X97495000Y-134665000D01*
X90435000Y-98985000D02*
X85375000Y-98985000D01*
X97495000Y-134665000D02*
X97495000Y-98985000D01*
X97495000Y-98985000D02*
X92435000Y-98985000D01*
X82375000Y-134725000D02*
X100495000Y-134725000D01*
X85375000Y-98985000D02*
X85375000Y-134665000D01*
X82375000Y-98925000D02*
X82375000Y-134725000D01*
X90435000Y-98985000D02*
G75*
G03*
X92435000Y-98985000I1000000J0D01*
G01*
%TO.C,C8*%
X65596000Y-47140000D02*
X58356000Y-47140000D01*
X58356000Y-49380000D02*
X58356000Y-47140000D01*
X65596000Y-49380000D02*
X65596000Y-47140000D01*
X65596000Y-49380000D02*
X58356000Y-49380000D01*
%TO.C,Q2*%
X67415000Y-106985000D02*
X71015000Y-106985000D01*
X69215000Y-102534999D02*
G75*
G03*
X67376522Y-106973478I0J-2600001D01*
G01*
X71053478Y-106973478D02*
G75*
G03*
X69215000Y-102535000I-1838478J1838478D01*
G01*
%TO.C,C11*%
X157924000Y-115928000D02*
X157924000Y-113688000D01*
X165164000Y-113688000D02*
X157924000Y-113688000D01*
X165164000Y-115928000D02*
X165164000Y-113688000D01*
X165164000Y-115928000D02*
X157924000Y-115928000D01*
%TO.C,C19*%
X139764000Y-115928000D02*
X132524000Y-115928000D01*
X139764000Y-115928000D02*
X139764000Y-113688000D01*
X139764000Y-113688000D02*
X132524000Y-113688000D01*
X132524000Y-115928000D02*
X132524000Y-113688000D01*
%TO.C,U11*%
X139880000Y-110615000D02*
X139880000Y-84975000D01*
X132380000Y-110555000D02*
X136880000Y-110555000D01*
X129380000Y-84975000D02*
X129380000Y-110615000D01*
X133630000Y-85035000D02*
X132380000Y-85035000D01*
X136880000Y-110555000D02*
X136880000Y-85035000D01*
X129380000Y-110615000D02*
X139880000Y-110615000D01*
X132380000Y-85035000D02*
X132380000Y-110555000D01*
X136880000Y-85035000D02*
X135630000Y-85035000D01*
X139880000Y-84975000D02*
X129380000Y-84975000D01*
X133630000Y-85035000D02*
G75*
G03*
X135630000Y-85035000I1000000J0D01*
G01*
%TO.C,LED2*%
X38118000Y-132588000D02*
X38118000Y-135088000D01*
X38118000Y-130088000D02*
X38118000Y-132588000D01*
X48118000Y-135088000D02*
X48118000Y-130088000D01*
X38118000Y-135088000D02*
X48118000Y-135088000D01*
X48118000Y-130088000D02*
X38118000Y-130088000D01*
%TO.C,R4*%
X180640000Y-86360000D02*
X180020000Y-86360000D01*
X182480000Y-86360000D02*
G75*
G03*
X182480000Y-86360000I-920000J0D01*
G01*
%TO.C,U2*%
X152580000Y-44315000D02*
X142080000Y-44315000D01*
X152580000Y-80115000D02*
X152580000Y-44315000D01*
X145080000Y-44375000D02*
X145080000Y-80055000D01*
X149580000Y-80055000D02*
X149580000Y-44375000D01*
X142080000Y-80115000D02*
X152580000Y-80115000D01*
X146330000Y-44375000D02*
X145080000Y-44375000D01*
X142080000Y-44315000D02*
X142080000Y-80115000D01*
X149580000Y-44375000D02*
X148330000Y-44375000D01*
X145080000Y-80055000D02*
X149580000Y-80055000D01*
X146330000Y-44375000D02*
G75*
G03*
X148330000Y-44375000I1000000J0D01*
G01*
%TD*%
M02*
